<svg width="151" height="152" viewBox="0 0 151 152" fill="none" xmlns="http://www.w3.org/2000/svg">
<path d="M94.5654 33.3154C91.34 29.3998 87.4744 26.3598 81.0871 25.8886C69.7077 25.0496 63.6134 35.1515 55.3567 41.0552C45.0585 48.4181 31.5712 46.6184 22.0159 55.4131C11.5788 65.0195 15.1575 74.024 22.3179 79.1251C29.4783 84.2262 30.9642 92.3339 36.0347 102.533C41.1053 112.732 53.3303 122.643 63.4684 123.543C70.1426 124.135 77.0192 121.095 83.0984 118.679C92.8862 114.803 102.795 112.839 112.876 110.094C121.187 107.829 129.893 104.065 133.554 95.6171C138.621 83.9101 134.746 67.3998 126.097 60.1981C117.448 52.9963 109.995 52.0934 104.03 45.7885C100.291 41.8699 97.7394 37.167 94.5654 33.3154Z" fill="#92E3A9"/>
<path opacity="0.7" d="M94.5654 33.3154C91.34 29.3998 87.4744 26.3598 81.0871 25.8886C69.7077 25.0496 63.6134 35.1515 55.3567 41.0552C45.0585 48.4181 31.5712 46.6184 22.0159 55.4131C11.5788 65.0195 15.1575 74.024 22.3179 79.1251C29.4783 84.2262 30.9642 92.3339 36.0347 102.533C41.1053 112.732 53.3303 122.643 63.4684 123.543C70.1426 124.135 77.0192 121.095 83.0984 118.679C92.8862 114.803 102.795 112.839 112.876 110.094C121.187 107.829 129.893 104.065 133.554 95.6171C138.621 83.9101 134.746 67.3998 126.097 60.1981C117.448 52.9963 109.995 52.0934 104.03 45.7885C100.291 41.8699 97.7394 37.167 94.5654 33.3154Z" fill="white"/>
<path d="M29.6234 91.2608L25.8182 88.4245C24.8475 87.7014 23.9383 86.8981 23.1002 86.0229C22.4384 85.3499 21.8153 84.6394 21.2339 83.8949L20.6299 83.0224L26.1988 80.6208C26.1988 80.6208 26.4434 87.856 29.6234 91.2608Z" fill="#263238"/>
<path d="M21.4697 80.1253C21.4697 80.1253 22.6777 86.4302 31.3119 92.5893C39.9461 98.7483 83.1955 124.856 85.5813 125.607C87.9671 126.358 89.157 125.607 90.2019 124.856C91.2468 124.105 130.902 90.9325 130.902 90.9325C130.902 90.9325 113.012 81.776 99.4461 73.8234C85.8803 65.8707 76.0381 60.3166 73.2053 57.76C70.3726 55.2034 67.0929 52.6589 67.0929 52.6589C67.0929 52.6589 44.2828 67.9653 36.0805 72.3186C27.8782 76.6718 21.4697 80.1253 21.4697 80.1253Z" fill="#92E3A9" stroke="#263238" stroke-width="0.5" stroke-linecap="round" stroke-linejoin="round"/>
<path d="M52.7295 71.9325L68.7899 60.9702" stroke="white" stroke-width="0.5" stroke-linecap="round" stroke-linejoin="round"/>
<path d="M37.125 82.5846L50.9173 73.1698" stroke="white" stroke-width="0.5" stroke-linecap="round" stroke-linejoin="round"/>
<path d="M49.5039 80.1435L73.0267 64.0893" stroke="white" stroke-width="0.5" stroke-linecap="round" stroke-linejoin="round"/>
<path d="M41.3594 85.7037L47.0913 81.7912" stroke="white" stroke-width="0.5" stroke-linecap="round" stroke-linejoin="round"/>
<path d="M45.5967 88.8197L77.2614 67.2053" stroke="white" stroke-width="0.5" stroke-linecap="round" stroke-linejoin="round"/>
<path d="M53.8135 89.2179L81.4978 70.3243" stroke="white" stroke-width="0.5" stroke-linecap="round" stroke-linejoin="round"/>
<path d="M49.8301 91.9387L52.3578 90.212" stroke="white" stroke-width="0.5" stroke-linecap="round" stroke-linejoin="round"/>
<path d="M54.0674 95.0547L85.7321 73.4403" stroke="white" stroke-width="0.5" stroke-linecap="round" stroke-linejoin="round"/>
<path d="M58.3018 98.1738L89.9665 76.5594" stroke="white" stroke-width="0.5" stroke-linecap="round" stroke-linejoin="round"/>
<path d="M78.4355 90.437L94.203 79.6754" stroke="white" stroke-width="0.5" stroke-linecap="round" stroke-linejoin="round"/>
<path d="M62.5381 101.29L76.0949 92.036" stroke="white" stroke-width="0.5" stroke-linecap="round" stroke-linejoin="round"/>
<path d="M87.3203 90.3822L98.4369 82.7914" stroke="white" stroke-width="0.5" stroke-linecap="round" stroke-linejoin="round"/>
<path d="M74.9658 98.8152L85.5086 91.6195" stroke="white" stroke-width="0.5" stroke-linecap="round" stroke-linejoin="round"/>
<path d="M66.7725 104.406L73.1537 100.052" stroke="white" stroke-width="0.5" stroke-linecap="round" stroke-linejoin="round"/>
<path d="M100.391 87.4699L102.674 85.9104" stroke="white" stroke-width="0.5" stroke-linecap="round" stroke-linejoin="round"/>
<path d="M71.0098 107.525L98.4374 88.8014" stroke="white" stroke-width="0.5" stroke-linecap="round" stroke-linejoin="round"/>
<path d="M79.2002 107.941L106.909 89.0264" stroke="white" stroke-width="0.5" stroke-linecap="round" stroke-linejoin="round"/>
<path d="M75.2432 110.641L77.5323 109.081" stroke="white" stroke-width="0.5" stroke-linecap="round" stroke-linejoin="round"/>
<path d="M85.2821 115.395C84.8437 115.793 84.4965 116.282 84.2644 116.829C84.0324 117.375 83.9211 117.966 83.9382 118.56C83.9382 120.664 86.324 121.864 87.369 121.564C88.4139 121.263 91.6936 117.511 91.6936 117.511C91.6936 117.511 90.7876 114.66 89.0088 114.511C87.23 114.362 85.2821 115.395 85.2821 115.395Z" fill="#263238" stroke="#263238" stroke-width="0.5" stroke-linecap="round" stroke-linejoin="round"/>
<path d="M87.5321 125.932C87.5321 125.932 90.0538 124.999 90.3498 122.892C90.6457 120.785 89.0089 117.791 87.668 116.739C86.9574 116.152 86.1499 115.695 85.2822 115.389C85.2822 115.389 106.005 101.281 111.372 96.4774C116.739 91.6742 126.729 84.1715 126.729 84.1715C126.729 84.1715 128.816 83.1227 130.455 84.1715C132.095 85.2203 133.173 86.2782 133.288 88.6738C133.358 90.0326 130.606 91.9752 130.606 91.9752L93.3335 123.05C93.3335 123.05 88.8911 126.139 87.5321 125.932Z" fill="white"/>
<mask id="mask0_815_13394" style="mask-type:luminance" maskUnits="userSpaceOnUse" x="85" y="83" width="49" height="43">
<path d="M87.5321 125.932C87.5321 125.932 90.0538 124.999 90.3498 122.892C90.6457 120.785 89.0089 117.791 87.668 116.739C86.9574 116.152 86.1499 115.695 85.2822 115.389C85.2822 115.389 106.005 101.281 111.372 96.4774C116.739 91.6742 126.729 84.1715 126.729 84.1715C126.729 84.1715 128.816 83.1227 130.455 84.1715C132.095 85.2203 133.173 86.2782 133.288 88.6738C133.358 90.0326 130.606 91.9752 130.606 91.9752L93.3335 123.05C93.3335 123.05 88.8911 126.139 87.5321 125.932Z" fill="white"/>
</mask>
<g mask="url(#mask0_815_13394)">
<path d="M133.288 88.6798C133.272 88.3283 133.229 87.9786 133.158 87.6341C131.974 88.6677 129.836 90.4886 125.934 93.6837C117.883 100.287 111.471 105.09 111.471 105.09C111.471 105.09 118.478 99.8366 115.944 101.037C113.41 102.238 107.893 107.041 102.982 111.094C99.8656 113.66 94.3602 118.812 90.3587 122.898C90.0567 124.999 87.541 125.938 87.541 125.938C88.9 126.145 93.3424 123.056 93.3424 123.056L130.615 91.9874C130.615 91.9874 133.357 90.0387 133.288 88.6798Z" fill="#92E3A9"/>
<path opacity="0.5" d="M133.288 88.6798C133.272 88.3283 133.229 87.9786 133.158 87.6341C131.974 88.6677 129.836 90.4886 125.934 93.6837C117.883 100.287 111.471 105.09 111.471 105.09C111.471 105.09 118.478 99.8366 115.944 101.037C113.41 102.238 107.893 107.041 102.982 111.094C99.8656 113.66 94.3602 118.812 90.3587 122.898C90.0567 124.999 87.541 125.938 87.541 125.938C88.9 126.145 93.3424 123.056 93.3424 123.056L130.615 91.9874C130.615 91.9874 133.357 90.0387 133.288 88.6798Z" fill="white"/>
</g>
<path d="M87.5321 125.932C87.5321 125.932 90.0538 124.999 90.3498 122.892C90.6457 120.785 89.0089 117.791 87.668 116.739C86.9574 116.152 86.1499 115.695 85.2822 115.389C85.2822 115.389 106.005 101.281 111.372 96.4774C116.739 91.6742 126.729 84.1715 126.729 84.1715C126.729 84.1715 128.816 83.1227 130.455 84.1715C132.095 85.2203 133.173 86.2782 133.288 88.6738C133.358 90.0326 130.606 91.9752 130.606 91.9752L93.3335 123.05C93.3335 123.05 88.8911 126.139 87.5321 125.932Z" stroke="#263238" stroke-width="0.5" stroke-linecap="round" stroke-linejoin="round"/>
<path d="M103.758 46.5394C103.758 46.5394 105.211 45.4176 105.591 44.688C105.914 44.08 106.153 43.1893 105.839 42.5174C105.77 42.3574 105.668 42.2138 105.541 42.0959C105.413 41.978 105.262 41.8884 105.098 41.8331C104.933 41.7778 104.759 41.7578 104.587 41.7747C104.414 41.7915 104.247 41.8447 104.096 41.9307C103.205 42.4718 103.085 44.3627 103.296 45.2747C103.314 45.3507 103.743 46.5515 103.758 46.5394Z" fill="#263238"/>
<path d="M90.3283 55.8752C90.3887 55.9299 91.4034 56.693 91.4094 56.6747C91.4155 56.6565 92.0135 54.9298 91.9229 54.115C91.8534 53.4158 91.5695 52.5494 90.9414 52.1664C90.7965 52.0704 90.6331 52.0064 90.462 51.9783C90.2908 51.9503 90.1157 51.9589 89.9481 52.0037C89.7805 52.0484 89.6241 52.1283 89.4893 52.2381C89.3545 52.3478 89.2441 52.485 89.1656 52.6406C88.7186 53.5891 89.6518 55.2307 90.3283 55.8752Z" fill="#263238"/>
<path d="M120.571 48.5123C120.571 48.5123 115.228 53.9053 115.162 60.6267C115.095 67.3482 120.332 72.8445 120.332 72.8445C120.332 72.8445 125.674 67.4485 125.738 60.7301C125.801 54.0117 120.571 48.5123 120.571 48.5123Z" fill="#263238"/>
<path d="M112.836 64.6182C112.907 64.5437 112.972 64.4633 113.029 64.3781C113.422 63.8005 113.76 62.9523 113.525 62.2501C113.474 62.0831 113.39 61.9287 113.276 61.7968C113.163 61.6649 113.023 61.5585 112.866 61.4846C112.709 61.4106 112.539 61.3707 112.365 61.3674C112.192 61.3642 112.02 61.3977 111.861 61.4658C111.142 61.7941 110.776 62.9432 110.686 63.8978C110.402 63.8278 110.145 63.7731 109.925 63.7336L109.65 63.083C109.547 62.8581 109.481 62.6331 109.39 62.4051C109.269 62.0677 109.161 61.712 109.052 61.3594C109.472 61.18 110.692 60.6237 111.151 60.1282C111.61 59.6326 112.087 58.8301 111.96 58.1005C111.936 57.9278 111.876 57.7623 111.784 57.6146C111.692 57.4669 111.57 57.3403 111.426 57.2432C111.282 57.146 111.119 57.0803 110.949 57.0505C110.778 57.0206 110.603 57.0273 110.435 57.0699C109.433 57.3557 108.819 59.1432 108.786 60.0826C108.786 60.113 108.786 60.3106 108.813 60.5446C108.72 60.1981 108.623 59.8515 108.536 59.4958C108.294 58.4866 108.077 57.4499 107.856 56.4102C107.811 56.1944 107.762 55.9816 107.714 55.7658C108.067 55.6138 109.396 55.027 109.876 54.5042C110.357 53.9813 110.813 53.2091 110.683 52.4765C110.659 52.3053 110.599 52.1411 110.508 51.9944C110.417 51.8477 110.297 51.7218 110.154 51.6247C110.012 51.5277 109.851 51.4617 109.682 51.4309C109.513 51.4001 109.34 51.4052 109.173 51.4459C108.17 51.7317 107.557 53.5222 107.521 54.4586C107.521 54.492 107.536 54.7291 107.557 54.9936C107.43 54.4312 107.294 53.8749 107.143 53.3246C106.891 52.3793 106.577 51.452 106.201 50.5491C106.325 50.4974 107.895 49.8378 108.43 49.2602C108.904 48.7464 109.366 47.9621 109.239 47.2325C109.215 47.0598 109.155 46.8943 109.063 46.7466C108.971 46.5989 108.849 46.4723 108.705 46.3752C108.561 46.278 108.398 46.2123 108.228 46.1825C108.057 46.1526 107.882 46.1593 107.714 46.2019C106.712 46.4877 106.098 48.2752 106.062 49.2146C106.062 49.2784 106.126 50.1266 106.159 50.4306C106.16 50.4194 106.16 50.4082 106.159 50.3971C105.768 49.5206 105.301 48.6803 104.764 47.8861C104.285 47.1745 103.765 46.4914 103.208 45.8402C102.698 45.2322 102.194 44.7062 101.744 44.2442C101.499 43.9949 101.269 43.773 101.055 43.5693H101.076C101.094 43.5693 100.605 42.3928 100.566 42.3198C100.11 41.5021 98.7538 40.1918 97.73 40.4016C97.5615 40.4409 97.403 40.5156 97.265 40.6207C97.127 40.7258 97.0126 40.8589 96.9291 41.0115C96.8456 41.1641 96.795 41.3326 96.7806 41.5062C96.7661 41.6798 96.7881 41.8544 96.8452 42.0189C97.0626 42.7272 97.8297 43.2136 98.482 43.4507C99.1343 43.6878 100.626 43.6027 100.992 43.5754C101.212 43.7942 101.445 44.0283 101.695 44.2928C102.136 44.764 102.625 45.299 103.121 45.9162C103.254 46.0803 103.39 46.2627 103.522 46.439C103.235 46.1928 102.837 45.8614 102.795 45.831C102.015 45.3173 100.212 44.7853 99.4001 45.445C99.2683 45.5581 99.1616 45.6979 99.087 45.8552C99.0123 46.0126 98.9714 46.184 98.9669 46.3583C98.9623 46.5326 98.9942 46.7059 99.0605 46.867C99.1268 47.0281 99.2261 47.1733 99.3518 47.2933C99.8712 47.8192 100.774 47.9013 101.466 47.801C102.157 47.7006 103.48 46.9163 103.761 46.74C104.063 47.1322 104.344 47.5395 104.625 47.9834C105.139 48.7793 105.583 49.6196 105.95 50.4944C105.972 50.543 105.987 50.5978 106.005 50.6494C105.884 50.5035 105.162 49.7374 105.099 49.701C104.38 49.093 102.644 48.3755 101.777 48.941C101.635 49.0394 101.516 49.1664 101.425 49.3139C101.335 49.4615 101.277 49.6264 101.253 49.798C101.23 49.9696 101.243 50.1442 101.29 50.3107C101.338 50.4772 101.419 50.6319 101.529 50.765C101.988 51.3456 102.876 51.5189 103.571 51.5037C104.374 51.4854 105.963 50.7072 106.023 50.6768C106.363 51.5597 106.648 52.4634 106.875 53.3824C107.044 54.0603 107.177 54.7565 107.328 55.4557C107.168 55.2702 106.497 54.568 106.443 54.5224C105.724 53.9144 103.987 53.197 103.121 53.7624C102.979 53.8605 102.859 53.9874 102.768 54.1349C102.678 54.2825 102.619 54.4475 102.596 54.6192C102.573 54.791 102.585 54.9658 102.633 55.1323C102.681 55.2989 102.762 55.4536 102.873 55.5864C103.332 56.167 104.22 56.3434 104.915 56.3282C105.697 56.3099 107.225 55.5712 107.352 55.5074C107.415 55.8266 107.479 56.1427 107.539 56.4619C107.738 57.5016 107.932 58.5443 108.143 59.5688C108.222 59.9245 108.309 60.271 108.397 60.6206C108.146 60.347 107.678 59.8606 107.633 59.8242C106.917 59.2162 105.18 58.4957 104.311 59.0611C104.169 59.1595 104.049 59.2865 103.959 59.4341C103.869 59.5817 103.81 59.7465 103.787 59.9181C103.764 60.0898 103.776 60.2644 103.824 60.4309C103.871 60.5974 103.953 60.7521 104.063 60.8851C104.519 61.4658 105.41 61.639 106.104 61.6238C106.799 61.6086 108.101 61.0158 108.463 60.8426C108.614 61.4202 108.765 61.9886 108.961 62.5419C109.046 62.779 109.118 63.0283 109.212 63.2502C109.26 63.3688 109.306 63.4874 109.354 63.6029L109.152 63.5816C109.152 63.5816 109.134 63.9099 109.152 64.445C108.394 63.8826 107.294 63.3931 106.573 63.7154C106.416 63.7903 106.277 63.8974 106.165 64.0299C106.052 64.1624 105.968 64.3172 105.919 64.4844C105.87 64.6515 105.856 64.8272 105.879 65C105.901 65.1729 105.96 65.339 106.05 65.4877C106.095 65.5681 106.149 65.6435 106.21 65.7126C106.332 66.5282 106.662 67.2979 107.168 67.947C107.207 67.9957 107.72 68.4851 107.989 68.7314C107.729 68.5824 107.47 68.4274 107.201 68.2814C106.811 68.0565 106.41 67.8072 106.017 67.5701L105.398 67.184C105.192 67.0533 105.008 66.9043 104.812 66.7614C104.525 66.5486 104.241 66.3146 103.957 66.0805C104.205 65.6944 104.921 64.5605 105.032 63.8856C105.144 63.2107 105.102 62.2835 104.594 61.7576C104.479 61.6281 104.337 61.5245 104.179 61.4536C104.021 61.3827 103.85 61.346 103.676 61.346C103.503 61.346 103.332 61.3827 103.174 61.4536C103.016 61.5245 102.874 61.6281 102.758 61.7576C102.076 62.551 102.547 64.3842 103.033 65.1867C103.048 65.211 103.166 65.3691 103.311 65.5576C103.042 65.3205 102.77 65.0834 102.505 64.8341C101.747 64.1258 100.995 63.384 100.246 62.6392L99.7746 62.1802C99.986 61.8579 100.771 60.6298 100.886 59.9306C101.001 59.2314 100.955 58.3285 100.448 57.8026C100.332 57.6726 100.191 57.5686 100.033 57.4974C99.8746 57.4263 99.7032 57.3895 99.53 57.3895C99.3567 57.3895 99.1853 57.4263 99.0271 57.4974C98.8689 57.5686 98.7274 57.6726 98.6119 57.8026C97.9324 58.599 98.4005 60.4322 98.8867 61.2317C98.9048 61.259 99.0468 61.4475 99.2098 61.6573C98.7961 61.2621 98.3763 60.8699 97.9505 60.496C97.2209 59.847 96.4491 59.2478 95.6402 58.7024C95.7187 58.5899 96.667 57.1824 96.7968 56.392C96.9086 55.7019 96.8633 54.7899 96.359 54.264C96.2442 54.1335 96.1034 54.0287 95.9459 53.9565C95.7883 53.8843 95.6174 53.8462 95.4442 53.8448C95.2711 53.8434 95.0996 53.8786 94.9409 53.9482C94.7821 54.0178 94.6397 54.1202 94.5228 54.2488C93.8403 55.0453 94.3114 56.8784 94.7946 57.6779C94.8308 57.7357 95.3563 58.4136 95.5496 58.6507L95.5224 58.6294C94.7149 58.1154 93.864 57.6739 92.9796 57.3101C92.1913 56.9821 91.3846 56.7009 90.5636 56.468C89.8025 56.243 89.0959 56.085 88.4677 55.9482C88.1264 55.8782 87.8123 55.8205 87.5194 55.7688H87.5375C87.5526 55.7688 86.4987 55.0483 86.4292 55.0118C85.6017 54.5832 83.7505 54.2458 83.0106 54.9845C82.8916 55.1114 82.8004 55.262 82.7429 55.4267C82.6854 55.5913 82.6629 55.7663 82.6769 55.9402C82.6908 56.1142 82.7409 56.2833 82.8239 56.4365C82.9068 56.5897 83.0209 56.7237 83.1585 56.8298C83.7293 57.2979 84.6353 57.2766 85.3118 57.1125C85.9883 56.9483 87.1812 56.0485 87.4711 55.8235C87.7731 55.8813 88.0962 55.9482 88.4526 56.0302C89.0747 56.1792 89.7784 56.3525 90.5303 56.5926C90.7297 56.6565 90.9441 56.7325 91.1525 56.8024C90.778 56.7568 90.2616 56.7021 90.2102 56.7021C89.2801 56.7021 87.4922 57.2645 87.1661 58.2646C87.1186 58.4324 87.1067 58.6083 87.131 58.781C87.1554 58.9537 87.2155 59.1194 87.3074 59.2672C87.3994 59.4151 87.5211 59.5418 87.6648 59.6394C87.8085 59.7369 87.9709 59.8029 88.1415 59.8333C88.8603 59.9853 89.6515 59.5293 90.18 59.0854C90.7085 58.6416 91.388 57.228 91.5118 56.927C91.9709 57.0912 92.436 57.2675 92.9131 57.4834C93.7787 57.8608 94.6094 58.3145 95.3956 58.8392C95.4409 58.8726 95.4832 58.9091 95.5285 58.9395C95.3473 58.8848 94.3204 58.6568 94.257 58.6355C93.3329 58.5382 91.4847 58.8939 91.0619 59.8515C90.9961 60.0128 90.9647 60.1863 90.9699 60.3606C90.975 60.5349 91.0166 60.7062 91.0918 60.8633C91.1669 61.0204 91.2741 61.1598 91.4063 61.2725C91.5385 61.3852 91.6928 61.4687 91.8592 61.5174C92.5598 61.7485 93.3963 61.3989 93.9732 61.0006C94.6315 60.5416 95.5315 59.0094 95.5647 58.9517C96.3334 59.4967 97.0658 60.0918 97.7572 60.7331C98.2736 61.2043 98.775 61.7059 99.2672 62.2106C99.0286 62.1437 98.0864 61.9339 98.0169 61.9248C97.0898 61.8245 95.2446 62.1802 94.8188 63.1408C94.753 63.3021 94.7216 63.4756 94.7268 63.6499C94.7319 63.8242 94.7734 63.9955 94.8486 64.1526C94.9238 64.3097 95.031 64.4491 95.1632 64.5618C95.2954 64.6745 95.4497 64.758 95.616 64.8067C96.3167 65.0378 97.1532 64.6882 97.73 64.2899C98.3703 63.84 99.24 62.3778 99.3125 62.2531C99.539 62.4842 99.7655 62.7122 99.989 62.9432C100.726 63.7002 101.46 64.4632 102.209 65.1958C102.465 65.4482 102.731 65.6883 102.994 65.9285C102.635 65.8403 101.979 65.6944 101.922 65.6883C100.995 65.588 99.1494 65.9437 98.7266 66.9043C98.6608 67.0654 98.6293 67.2387 98.6343 67.4129C98.6392 67.587 98.6805 67.7582 98.7554 67.9152C98.8303 68.0723 98.9371 68.2118 99.069 68.3246C99.2009 68.4375 99.3548 68.5211 99.5209 68.5702C100.222 68.8013 101.061 68.4517 101.635 68.0534C102.209 67.6552 102.964 66.4362 103.172 66.0926C103.613 66.4909 104.06 66.877 104.519 67.2326C104.718 67.3846 104.915 67.5366 105.123 67.6826L105.727 68.096C106.141 68.3605 106.527 68.6098 106.935 68.8499C107.131 68.9715 107.322 69.081 107.515 69.1965C107.161 69.0536 106.609 68.8347 106.551 68.8226C105.645 68.5824 103.77 68.6523 103.208 69.5339C103.119 69.6834 103.062 69.8502 103.04 70.0234C103.019 70.1966 103.034 70.3723 103.085 70.5392C103.136 70.7061 103.221 70.8604 103.335 70.992C103.449 71.1236 103.589 71.2297 103.746 71.3032C104.401 71.6376 105.283 71.4218 105.908 71.1147C106.597 70.7742 107.645 69.5066 107.772 69.3515C108.246 69.6312 108.711 69.9018 109.149 70.145C110.323 70.7986 111.347 71.3214 112.141 71.7106C114.708 74.0118 118.366 74.3128 118.366 74.3128C118.366 74.3128 118.619 69.9018 116.08 66.9621C115.186 65.947 114.077 65.1462 112.836 64.6182ZM108.134 68.853C108.218 68.6736 108.859 67.2813 108.913 66.4909C109.058 66.4666 109.215 66.4362 109.345 66.4058C109.589 67.8041 110.121 69.1356 110.906 70.3152C110.435 70.0801 109.932 69.8207 109.396 69.537C108.986 69.3272 108.566 69.0962 108.134 68.853Z" fill="#263238"/>
<path d="M132.022 64.0467C132.022 64.0467 127.637 64.1197 124.913 66.8891C122.189 69.6586 122.162 74.0726 122.162 74.0726C122.162 74.0726 126.547 73.9997 129.271 71.2302C131.995 68.4608 132.022 64.0467 132.022 64.0467Z" fill="#263238"/>
<path d="M120.531 66.728L124.892 62.8915L124.711 62.6818L120.534 66.3541L120.582 61.2469L120.607 61.2621L124.324 55.9512L124.098 55.7931L120.588 60.8061L120.706 48.5123L120.431 48.5093L120.35 56.8541L117.641 54.4251L117.457 54.6318L120.347 57.2219L120.286 63.1864L116.182 59.4259L115.998 59.6326L120.283 63.5603L120.232 68.9928L117.143 66.4818L116.967 66.6976L120.229 69.3454L120.193 72.8445H120.471L120.531 66.725V66.728Z" fill="white"/>
<path d="M116.542 68.175L116.267 68.1386L115.877 71.2211L114.056 69.1144H114.059L113.642 65.3722L113.371 65.4026L113.742 68.7496L109.218 63.5117L109.01 63.6941L112.078 67.2478L110.103 67.2448V67.5214L112.32 67.5275L114.473 70.0173L111.383 69.9778L111.38 70.2574L114.715 70.3L116.672 72.5648L114.491 72.6682L114.503 72.9448L116.904 72.8323L118.206 74.3432L118.414 74.1608L116.119 71.5038L116.542 68.175Z" fill="white"/>
<path d="M126.934 69.4245L130.609 68.7253L130.558 68.4517L127.269 69.0749L132.122 64.144L131.926 63.9494L128.634 67.2965L128.489 65.3114L128.214 65.3326L128.374 67.5579L126.067 69.9048L125.877 66.801L125.602 66.8192L125.807 70.1693L123.708 72.3034L123.446 70.1206L123.171 70.1541L123.461 72.5526L122.062 73.9754L122.259 74.1699L124.72 71.668L128.048 71.8443L128.063 71.5646L124.98 71.4035L126.931 69.4184L126.934 69.4245Z" fill="white"/>
<path d="M42.1627 47.3754C42.1627 47.3754 41.0392 46.7674 40.698 46.3205C40.396 45.9314 40.1423 45.3568 40.2812 44.8613C40.3097 44.7436 40.3625 44.6333 40.4361 44.5376C40.5096 44.4418 40.6024 44.3626 40.7084 44.3053C40.8143 44.248 40.9311 44.2137 41.051 44.2047C41.171 44.1958 41.2915 44.2123 41.4047 44.2533C42.0781 44.5208 42.3771 45.8006 42.3348 46.4512C42.3318 46.512 42.1748 47.3814 42.1627 47.3754Z" fill="#263238"/>
<path d="M52.4187 52.212C52.3854 52.2576 51.7784 52.896 51.7724 52.8869C51.7663 52.8778 51.1684 51.7621 51.1291 51.1906C51.0959 50.7072 51.1925 50.081 51.5791 49.7435C51.6674 49.6613 51.7719 49.5988 51.8859 49.5601C51.9998 49.5214 52.1206 49.5073 52.2403 49.5188C52.36 49.5303 52.476 49.567 52.5806 49.6267C52.6853 49.6864 52.7762 49.7676 52.8475 49.8651C53.2612 50.464 52.8113 51.6952 52.4187 52.212Z" fill="#263238"/>
<path d="M30.8793 50.6646C30.8793 50.6646 35.1496 53.7411 35.9619 58.3346C36.7743 62.928 33.8238 67.2965 33.8238 67.2965C33.8238 67.2965 29.5535 64.22 28.7411 59.6266C27.9287 55.0331 30.8793 50.6646 30.8793 50.6646Z" fill="#263238"/>
<path d="M38.0093 60.8C37.9514 60.7578 37.8978 60.7099 37.8493 60.6571C37.514 60.3075 37.1849 59.7664 37.2664 59.2587C37.2813 59.1386 37.3213 59.023 37.3836 58.9195C37.446 58.816 37.5294 58.7269 37.6283 58.658C37.7272 58.5891 37.8394 58.5421 37.9576 58.5199C38.0759 58.4977 38.1974 58.5008 38.3143 58.5291C38.8459 58.672 39.2203 59.4138 39.3955 60.0491C39.5827 59.9701 39.7519 59.9032 39.8968 59.8485L40.0146 59.3712C40.0569 59.207 40.078 59.0429 40.1112 58.8787C40.1565 58.6325 40.1898 58.3771 40.226 58.1248C39.924 58.0488 39.018 57.8208 38.6496 57.5168C38.2811 57.2128 37.8613 56.7355 37.8644 56.2218C37.861 56.1009 37.883 55.9806 37.9289 55.8689C37.9748 55.7571 38.0436 55.6564 38.1308 55.5732C38.218 55.49 38.3216 55.4262 38.435 55.3861C38.5483 55.3459 38.6687 55.3303 38.7885 55.3402C39.5103 55.4192 40.1324 56.5744 40.2622 57.2098C40.2622 57.231 40.2804 57.3678 40.2955 57.532C40.3226 57.2827 40.3468 57.0334 40.3649 56.7811C40.4163 56.0606 40.4465 55.328 40.4797 54.5923C40.4797 54.4373 40.4948 54.2883 40.5038 54.1333C40.2441 54.0694 39.2687 53.8293 38.8791 53.5253C38.4895 53.2213 38.0909 52.747 38.0969 52.2302C38.0935 52.1094 38.1155 51.9891 38.1614 51.8773C38.2073 51.7656 38.2761 51.6648 38.3633 51.5816C38.4505 51.4985 38.5542 51.4347 38.6675 51.3946C38.7808 51.3544 38.9013 51.3388 39.021 51.3486C39.7398 51.4277 40.3649 52.5829 40.4948 53.2213C40.4948 53.2426 40.5159 53.4067 40.531 53.5922C40.5552 53.1909 40.5824 52.7926 40.6246 52.4005C40.6894 51.724 40.7994 51.0527 40.9538 50.391C40.8632 50.3698 39.7126 50.1022 39.2807 49.783C38.8972 49.479 38.4925 49.0018 38.4955 48.488C38.4921 48.3668 38.5142 48.2463 38.5603 48.1343C38.6064 48.0223 38.6754 47.9214 38.763 47.8382C38.8505 47.7549 38.9545 47.6913 39.0682 47.6513C39.1819 47.6114 39.3027 47.5961 39.4227 47.6064C40.1414 47.6854 40.7636 48.8224 40.8934 49.476C40.8934 49.5216 40.9568 50.1174 40.9689 50.3302C40.9689 50.3302 40.9689 50.3302 40.9689 50.3059C41.1356 49.6596 41.36 49.0298 41.6394 48.4242C41.8853 47.8813 42.1626 47.3535 42.4699 46.8434C42.7477 46.3691 43.0346 45.9496 43.2883 45.5818C43.4272 45.3842 43.5601 45.2048 43.6839 45.0406C43.6839 45.0406 43.8711 44.1803 43.8923 44.1286C44.1097 43.5206 44.8889 42.4627 45.6137 42.487C45.7336 42.4947 45.8507 42.5277 45.9572 42.5838C46.0637 42.6399 46.1573 42.718 46.2319 42.8128C46.3065 42.9077 46.3604 43.0173 46.3902 43.1345C46.4201 43.2518 46.4251 43.374 46.4049 43.4933C46.3355 44.001 45.8674 44.4235 45.4446 44.6606C45.0218 44.8978 43.995 45.0133 43.7413 45.0376C43.6175 45.2109 43.4846 45.3994 43.3426 45.6091C43.095 45.983 42.8202 46.4056 42.5514 46.8859C42.4789 47.0136 42.4095 47.1534 42.337 47.2872C42.5061 47.0866 42.7386 46.813 42.7658 46.7886C43.24 46.3478 44.4147 45.7733 45.0459 46.132C45.149 46.1941 45.238 46.2774 45.3069 46.3765C45.3759 46.4756 45.4233 46.5882 45.4461 46.7069C45.4689 46.8257 45.4665 46.948 45.4392 47.0658C45.4119 47.1836 45.3602 47.2942 45.2875 47.3906C44.9855 47.8101 44.3815 47.9682 43.9013 47.9834C43.4212 47.9986 42.4215 47.6094 42.2101 47.5213C42.0531 47.8253 41.9081 48.1293 41.7602 48.4728C41.4988 49.0775 41.2906 49.7041 41.138 50.3454L41.1199 50.4579C41.1864 50.3424 41.5941 49.7435 41.6273 49.704C42.0501 49.2146 43.1554 48.5123 43.8198 48.792C43.9279 48.8426 44.0243 48.9152 44.1029 49.0054C44.1815 49.0955 44.2406 49.2011 44.2764 49.3155C44.3122 49.43 44.3239 49.5506 44.3108 49.6698C44.2977 49.7891 44.2601 49.9042 44.2003 50.008C43.9527 50.461 43.3638 50.6829 42.8866 50.7528C42.334 50.8318 41.1592 50.4822 41.1139 50.4701C40.9809 51.113 40.8891 51.7639 40.8391 52.4187C40.7998 52.9051 40.7787 53.3976 40.7636 53.8901C40.8542 53.7442 41.2347 53.1878 41.2649 53.1514C41.6877 52.6589 42.793 51.9597 43.4604 52.2394C43.5685 52.2898 43.665 52.3625 43.7435 52.4527C43.8221 52.543 43.8811 52.6487 43.9166 52.7632C43.9522 52.8777 43.9635 52.9985 43.95 53.1177C43.9364 53.2369 43.8983 53.3519 43.8379 53.4554C43.5903 53.9053 43.0014 54.1272 42.5242 54.1971C41.9867 54.2762 40.8572 53.9448 40.7636 53.9174C40.7636 54.1424 40.7636 54.3674 40.7424 54.5923C40.7424 55.328 40.7122 56.0637 40.676 56.7902C40.676 57.0426 40.6428 57.2888 40.6216 57.5381C40.7636 57.3222 41.0263 56.9301 41.0535 56.9058C41.4763 56.4133 42.5816 55.7141 43.249 55.9938C43.3571 56.0442 43.4536 56.1169 43.5322 56.2071C43.6107 56.2974 43.6697 56.4031 43.7052 56.5176C43.7408 56.6321 43.7521 56.7529 43.7386 56.8721C43.725 56.9913 43.6869 57.1063 43.6265 57.2098C43.3789 57.6597 42.79 57.8816 42.3128 57.9515C41.8357 58.0214 40.8783 57.7661 40.6095 57.6901C40.5733 58.1005 40.528 58.5109 40.4646 58.9061C40.4314 59.0763 40.4102 59.2526 40.371 59.4168C40.3528 59.505 40.3347 59.5901 40.3136 59.6752L40.4495 59.6387C40.4495 59.6387 40.5008 59.8606 40.5461 60.2285C40.9991 59.7573 41.6967 59.2952 42.2283 59.432C42.344 59.4653 42.4515 59.5228 42.5437 59.6007C42.636 59.6786 42.7109 59.7752 42.7636 59.8842C42.8163 59.9931 42.8456 60.112 42.8496 60.2332C42.8536 60.3543 42.8323 60.4749 42.787 60.5872C42.7641 60.6459 42.7368 60.7028 42.7054 60.7574C42.712 61.3301 42.5737 61.895 42.3038 62.399C42.2826 62.4355 41.9867 62.8307 41.8296 63.0283C41.9927 62.8976 42.1528 62.7699 42.3189 62.6301C42.5574 62.4325 42.8051 62.2136 43.0467 62.0221L43.4121 61.6786C43.5389 61.5661 43.6477 61.4414 43.7654 61.3198C43.9376 61.1405 44.1067 60.949 44.2728 60.7544C44.0584 60.5203 43.4393 59.8242 43.2883 59.3773C43.1373 58.9304 43.0588 58.289 43.3426 57.8573C43.4064 57.7546 43.4909 57.6666 43.5907 57.5989C43.6904 57.5312 43.8032 57.4855 43.9217 57.4645C44.0402 57.4436 44.1617 57.448 44.2784 57.4774C44.3951 57.5069 44.5043 57.5607 44.599 57.6354C45.1546 58.1005 45.0429 59.4107 44.8013 60.0126C44.8013 60.0339 44.7288 60.1555 44.6533 60.2984C44.8104 60.1069 44.9553 59.9123 45.1244 59.7117C45.5593 59.1402 45.9882 58.5443 46.42 57.9485C46.5076 57.8238 46.6012 57.7022 46.6888 57.5776C46.5076 57.383 45.8311 56.6322 45.6711 56.167C45.511 55.7019 45.4415 55.0787 45.7254 54.647C45.7889 54.544 45.8732 54.4556 45.973 54.3877C46.0727 54.3197 46.1856 54.2738 46.3042 54.2528C46.4228 54.2319 46.5445 54.2364 46.6613 54.2661C46.778 54.2958 46.8872 54.35 46.9817 54.4251C47.5404 54.8902 47.4257 56.1974 47.1871 56.8024C47.1871 56.8237 47.0995 56.9696 47.0119 57.1338C47.2505 56.8115 47.4921 56.4954 47.7428 56.1914C48.1672 55.6626 48.6273 55.1638 49.1199 54.6987C49.0535 54.6288 48.2441 53.7654 48.0659 53.2486C47.9089 52.7896 47.8364 52.1603 48.1203 51.7286C48.1844 51.6263 48.269 51.5387 48.3688 51.4713C48.4686 51.4039 48.5812 51.3583 48.6996 51.3374C48.8179 51.3165 48.9393 51.3207 49.0559 51.3499C49.1725 51.3791 49.2817 51.4325 49.3766 51.5067C49.9323 51.9749 49.8205 53.2821 49.5789 53.887C49.5789 53.9296 49.2769 54.4555 49.1743 54.6379H49.1924C49.6853 54.1917 50.2169 53.7909 50.7809 53.4402C51.2834 53.1243 51.8037 52.8381 52.3392 52.5829C52.8345 52.3427 53.2996 52.1512 53.7163 51.9749C53.9398 51.8867 54.1482 51.8107 54.3415 51.7408C54.3415 51.7408 54.9696 51.1328 55.0149 51.0933C55.5314 50.7042 56.7605 50.2573 57.3494 50.6798C57.4457 50.7526 57.5257 50.845 57.5841 50.9509C57.6426 51.0568 57.6783 51.174 57.6888 51.2947C57.6994 51.4154 57.6845 51.537 57.6453 51.6516C57.6061 51.7661 57.5433 51.8711 57.4611 51.9597C57.1229 52.3458 56.5008 52.437 56.0176 52.4005C55.5344 52.364 54.6163 51.8898 54.3928 51.7682C54.1935 51.8442 53.9791 51.9262 53.7435 52.0235C53.3358 52.1968 52.8738 52.3974 52.3875 52.6498L51.9859 52.8656C52.2365 52.7896 52.5899 52.6923 52.6171 52.6893C53.2543 52.5829 54.5499 52.7562 54.879 53.4037C54.9313 53.5127 54.9602 53.6316 54.9636 53.7526C54.9671 53.8736 54.9452 53.994 54.8993 54.1059C54.8535 54.2178 54.7846 54.3187 54.6973 54.402C54.61 54.4853 54.5063 54.5491 54.3928 54.5893C53.9157 54.7778 53.3207 54.568 52.91 54.3157C52.4993 54.0634 51.8802 53.1818 51.7503 52.9902C51.4483 53.1574 51.1463 53.3307 50.8443 53.5344C50.2944 53.8919 49.7779 54.2989 49.3011 54.7504L49.2196 54.8325C49.3373 54.7747 50.0078 54.5011 50.0561 54.4859C50.6782 54.3126 51.9829 54.343 52.3845 54.951C52.4481 55.0537 52.4895 55.1688 52.5059 55.2887C52.5223 55.4086 52.5134 55.5306 52.4798 55.6468C52.4462 55.763 52.3886 55.8708 52.3107 55.9631C52.2329 56.0553 52.1366 56.13 52.0282 56.1822C51.5752 56.4224 50.9621 56.2795 50.5182 56.0728C50.0168 55.8326 49.2256 54.8872 49.1954 54.8568C48.7327 55.3188 48.2999 55.8103 47.8998 56.3282C47.5978 56.7112 47.3139 57.1125 47.0301 57.5168C47.1841 57.4438 47.8062 57.1885 47.8545 57.1763C48.4766 57 49.7813 57.0304 50.1799 57.6384C50.241 57.7405 50.2802 57.8543 50.2953 57.9726C50.3103 58.0908 50.3008 58.2109 50.2673 58.3252C50.2338 58.4396 50.177 58.5457 50.1006 58.6367C50.0243 58.7278 49.9299 58.802 49.8236 58.8544C49.3706 59.0946 48.7575 58.9517 48.3136 58.745C47.8213 58.5139 47.0603 57.611 46.9968 57.529C46.867 57.7114 46.7371 57.8938 46.6103 58.0792C46.1935 58.6872 45.7768 59.2952 45.3509 59.8758C45.1999 60.0795 45.0489 60.2741 44.8949 60.4838C45.1305 60.3805 45.5623 60.2042 45.6016 60.195C46.2237 60.0187 47.5284 60.0491 47.927 60.6571C47.9907 60.7596 48.0322 60.8745 48.0489 60.9943C48.0655 61.114 48.0569 61.236 48.0235 61.3522C47.9902 61.4683 47.9329 61.5761 47.8554 61.6685C47.7779 61.7609 47.6819 61.8358 47.5737 61.8883C47.1207 62.1285 46.5076 61.9856 46.0637 61.7789C45.6197 61.5722 44.9704 60.8274 44.7862 60.6146C44.5295 60.9368 44.2698 61.253 43.995 61.5509C43.8742 61.6786 43.7594 61.8154 43.6386 61.9278L43.2913 62.32C43.0376 62.551 42.8021 62.7669 42.5605 62.9736L42.2041 63.2776C42.4276 63.1378 42.787 62.925 42.8081 62.9098C43.4121 62.6392 44.6926 62.472 45.1788 63.0101C45.2571 63.1021 45.3153 63.2097 45.3497 63.3258C45.384 63.442 45.3936 63.5641 45.3779 63.6842C45.3623 63.8044 45.3216 63.9199 45.2587 64.0232C45.1958 64.1265 45.112 64.2153 45.0127 64.2838C44.599 64.5878 43.9738 64.5422 43.5027 64.4024C42.9923 64.2504 42.1316 63.4904 42.0259 63.4114C41.7239 63.6606 41.4461 63.8978 41.1743 64.1166C40.4465 64.6973 39.8032 65.1746 39.3049 65.5333C37.7949 67.4029 35.3396 68.0322 35.3396 68.0322C35.3396 68.0322 34.6632 65.0438 36.0675 62.7365C36.5642 61.9541 37.2275 61.2927 38.0093 60.8ZM41.7118 63.156C41.3761 62.6883 41.1048 62.177 40.9055 61.636C40.8058 61.636 40.7032 61.636 40.6035 61.636C40.597 62.6209 40.3851 63.5934 39.9814 64.4906C40.2834 64.2778 40.5854 64.0406 40.9327 63.7853C41.1803 63.5786 41.4431 63.3718 41.7118 63.156Z" fill="#263238"/>
<path d="M24.8096 62.624C24.8096 62.624 27.8296 62.168 30.0009 63.7488C32.1723 65.3296 32.7189 68.3483 32.7189 68.3483C32.7189 68.3483 29.699 68.8074 27.5276 67.2266C25.3562 65.6458 24.8096 62.624 24.8096 62.624Z" fill="#263238"/>
<path d="M32.9815 63.1317L29.5599 61.0098L29.6595 60.8456L32.9362 62.8763L32.3201 59.3864L32.3081 59.3986L29.1582 56.1944L29.2941 56.0576L32.2688 59.0854L30.783 50.6829L30.9732 50.6494L31.9789 56.3525L33.5553 54.3765L33.7063 54.4981L32.0242 56.6048L32.7429 60.6814L35.1257 57.6323L35.2767 57.7509L32.7882 60.9338L33.4436 64.6486L35.2737 62.5723L35.4156 62.7L33.4889 64.8888L33.9087 67.2782L33.7214 67.3147L32.9815 63.1317Z" fill="white"/>
<path d="M35.8773 63.6606L36.0616 63.6059L36.6807 65.6701L37.6863 64.0194H37.6833L37.5414 61.408L37.7316 61.3989L37.8585 63.7336L40.359 59.6235L40.5221 59.7238L38.8279 62.5115L40.1778 62.2805L40.211 62.472L38.695 62.7304L37.5051 64.6851L39.6131 64.3021L39.6463 64.4906L37.3692 64.907L36.2881 66.6824L37.792 66.5L37.8162 66.6915L36.1612 66.8922L35.4394 68.0778L35.2764 67.9744L36.5448 65.892L35.8773 63.6606Z" fill="white"/>
<path d="M28.9075 65.7187L26.3103 65.664L26.3133 65.4725L28.6357 65.5181L24.752 62.703L24.8637 62.545L27.5002 64.4571L27.3733 63.083L27.5636 63.0648L27.7055 64.6061L29.5538 65.9467L29.3303 63.8005L29.5205 63.7792L29.7621 66.0987L31.4413 67.3147L31.3748 65.7917L31.5651 65.7826L31.6406 67.4606L32.758 68.2693L32.6462 68.4274L30.6772 66.9986L28.4182 67.5032L28.376 67.3147L30.4688 66.8466L28.9075 65.7157V65.7187Z" fill="white"/>
<path d="M80.2684 64.3325C80.2684 64.3325 79.2507 65.0347 79.1208 65.129C78.991 65.2232 78.7373 67.561 78.7373 67.6734C78.7373 67.7859 80.5493 67.64 80.8815 67.2874C81.2137 66.9347 81.2318 65.8373 81.2318 65.8373C81.1895 65.5311 81.0814 65.2378 80.915 64.9779C80.7486 64.7181 80.528 64.4978 80.2684 64.3325Z" fill="white" stroke="#263238" stroke-width="0.5" stroke-linecap="round" stroke-linejoin="round"/>
<path d="M83.0503 53.2456L82.8812 60.9216L80.2568 64.3325C80.2568 64.3325 81.2716 65.0986 81.187 65.9498L84.0681 64.1592C84.0681 64.1592 84.0681 56.4862 83.899 54.5254C83.7298 52.5646 83.2315 52.5646 83.0503 53.2456Z" fill="white" stroke="#263238" stroke-width="0.5" stroke-linecap="round" stroke-linejoin="round"/>
<path d="M78.5741 67.7403C78.5741 67.7403 79.0814 66.123 79.1781 65.8646C79.2747 65.6062 81.8961 65.6093 81.8961 65.6093C81.9503 65.8333 81.9796 66.0627 81.9837 66.2933C81.9837 66.6338 81.3797 66.9742 81.3797 66.9742C81.3902 67.1867 81.3496 67.3985 81.2612 67.5917C81.1729 67.7849 81.0395 67.9538 80.8723 68.0838C80.3976 68.4514 79.8817 68.7616 79.3351 69.008L78.3174 68.6675L78.5741 67.7403Z" fill="white" stroke="#263238" stroke-width="0.5" stroke-linecap="round" stroke-linejoin="round"/>
<path d="M80.0481 64.5818C80.0481 64.5818 79.4743 64.5818 79.3776 64.7429C79.281 64.904 79.4411 66.3541 79.6343 66.3541C79.8276 66.3541 80.2081 66.4818 80.2715 66.0957C80.335 65.7096 80.4648 64.5179 80.0481 64.5818Z" fill="white" stroke="#263238" stroke-width="0.5" stroke-linecap="round" stroke-linejoin="round"/>
<path d="M65.5524 106.038C65.5524 106.038 64.8306 107.716 65.0299 108.315C65.2292 108.914 65.5343 109.297 66.8933 108.841C68.2523 108.385 71.4233 105.941 71.4233 105.339C71.4233 104.737 67.6452 105.54 67.6452 105.54C67.6452 105.54 67.4399 106.139 65.5524 106.038Z" fill="white" stroke="#263238" stroke-width="0.5" stroke-linecap="round" stroke-linejoin="round"/>
<path d="M57.1659 100.411C57.1659 100.411 56.9726 101.886 57.1025 102.114C57.2209 102.28 57.3775 102.414 57.559 102.506C57.7405 102.598 57.9414 102.643 58.1444 102.64C58.6004 102.606 58.8934 102.606 58.99 102.244C59.0866 101.883 59.1531 101.524 59.2497 101.229C59.3369 101 59.3705 100.754 59.348 100.51C59.3255 100.266 59.2474 100.03 59.1199 99.8214C58.7605 99.1982 57.4891 99.3867 57.0844 100.539" fill="white"/>
<path d="M57.1659 100.411C57.1659 100.411 56.9726 101.886 57.1025 102.114C57.2209 102.28 57.3775 102.414 57.559 102.506C57.7405 102.598 57.9414 102.643 58.1444 102.64C58.6004 102.606 58.8934 102.606 58.99 102.244C59.0866 101.883 59.1531 101.524 59.2497 101.229C59.3369 101 59.3705 100.754 59.348 100.51C59.3255 100.266 59.2474 100.03 59.1199 99.8214C58.7605 99.1982 57.4891 99.3867 57.0844 100.539" stroke="#263238" stroke-width="0.5" stroke-linecap="round" stroke-linejoin="round"/>
<path d="M60.1825 81.1254C60.1825 81.1254 60.2822 85.5274 60.2822 86.029C60.2822 86.5306 58.4943 90.0326 58.4943 90.9325C58.4943 91.8323 57.084 100.539 57.084 100.539C57.1954 100.707 57.3421 100.849 57.5137 100.954C57.6854 101.059 57.8779 101.125 58.0776 101.147C58.4315 101.148 58.7775 101.042 59.0711 100.843C59.0711 100.843 61.7891 91.9387 62.5683 91.0389C63.3475 90.139 64.7548 86.5366 64.7548 86.5366C64.7548 86.5366 65.6608 91.9387 65.5521 92.6379C65.4433 93.3371 64.5585 96.3406 64.6461 97.8424C64.7336 99.3442 65.4403 106.446 65.4403 106.446C65.6012 106.654 65.8175 106.811 66.0641 106.9C66.3106 106.989 66.5771 107.005 66.8325 106.947C67.4171 106.77 67.9134 106.377 68.2217 105.847C68.2217 105.847 69.4146 96.2403 69.5143 95.2402C69.614 94.24 70.7072 88.1357 70.8069 86.035C70.9065 83.9344 70.9065 81.0312 70.9065 81.0312C68.9239 81.4268 66.8748 81.3223 64.942 80.7272C63.3556 80.2294 61.8268 79.5618 60.3818 78.736L60.1825 81.1254Z" fill="#263238" stroke="#263238" stroke-width="0.5" stroke-linecap="round" stroke-linejoin="round"/>
<path d="M68.222 51.9445C68.3695 52.4548 68.4864 52.9735 68.5723 53.4979C68.5627 53.7574 68.5395 54.0161 68.5028 54.2731C68.5028 54.2731 69.0645 54.5558 69.0645 54.9085C69.0645 55.2611 68.5723 55.8965 68.5723 55.8965L68.3639 57.5898C68.2914 58.1522 67.8716 58.7875 67.4579 58.9274C67.0675 59.0144 66.666 59.039 66.268 59.0003L66.0566 61.3259L62.0612 59.8454L62.342 57.7174C62.342 57.7174 61.436 55.249 61.8528 53.8384C62.2695 52.4278 64.0242 52.0752 65.0751 51.7104C66.1261 51.3456 68.222 51.9445 68.222 51.9445Z" fill="white" stroke="#263238" stroke-width="0.5" stroke-linecap="round" stroke-linejoin="round"/>
<path d="M62.1273 58.368C62.1273 58.368 60.0133 55.8995 59.8834 53.5709C59.7535 51.2422 60.584 49.7618 61.9974 49.2693C63.4108 48.7768 64.1688 48.9136 64.1688 48.9136C64.1688 48.9136 63.1178 48.7038 64.2413 48.2083C65.3647 47.7128 66.624 48.561 66.624 48.561C66.624 48.561 65.9234 47.9986 66.763 48.0685C67.6025 48.1384 67.9529 48.561 68.726 50.3272C69.4991 52.0934 67.3941 52.7227 67.0438 52.8656C66.6935 53.0085 67.675 53.431 67.5331 53.7776C67.3911 54.1242 66.6271 54.6896 66.6271 54.6896L66.8354 56.243C66.8354 56.243 66.4851 56.8054 66.2768 56.4528C66.0684 56.1002 65.9959 55.3949 65.3708 55.8174C64.7456 56.24 65.5097 57.6414 65.7211 57.6414C65.9325 57.6414 65.2288 58.4166 64.3198 58.6994C63.8484 58.8747 63.3347 58.8992 62.849 58.7693C62.7074 58.7573 62.5699 58.7154 62.4456 58.6463C62.3212 58.5771 62.2127 58.4823 62.1273 58.368Z" fill="#263238" stroke="#263238" stroke-width="0.5" stroke-linecap="round" stroke-linejoin="round"/>
<path d="M61.2156 59.8454C61.3369 59.6065 61.5332 59.4145 61.7741 59.2996C62.015 59.1847 62.2869 59.1532 62.5474 59.2101C63.4534 59.4229 65.35 60.1981 65.7698 60.7635C66.1896 61.329 66.6758 63.0192 66.6758 63.0192L61.4904 60.6906C61.4904 60.6906 60.7234 60.3379 61.2156 59.8454Z" fill="white" stroke="#263238" stroke-width="0.5" stroke-linecap="round" stroke-linejoin="round"/>
<path d="M57.2681 78.8515L57.416 79.5963V81.168L57.1926 81.776L56.8241 81.925V81.551L57.0446 82.9707L56.6006 83.3416C56.6006 83.3416 55.6373 81.776 55.4138 81.3291C55.1903 80.8822 55.4138 78.8394 55.4138 78.8394C55.4138 78.8394 55.7852 79.2254 57.2681 78.8515Z" fill="white" stroke="#263238" stroke-width="0.5" stroke-linecap="round" stroke-linejoin="round"/>
<path d="M70.5202 65.0195C70.5202 65.0195 68.533 64.0163 66.4462 62.7182C64.3594 61.4202 61.3756 60.0157 60.5813 59.5141C59.7871 59.0125 59.1257 58.3406 57.7003 59.3165C54.946 61.1952 56.5074 66.6125 56.5074 67.3178C56.5074 68.023 55.0155 72.6226 55.1151 73.5224C55.2148 74.4222 55.4171 78.8242 55.4171 78.8242C55.4171 78.8242 55.8128 79.6267 57.3046 79.2254C57.3046 79.2254 58.2982 74.6229 58.3979 73.3218C58.5469 72.1393 58.779 70.969 59.0925 69.8197L60.0891 75.5227L59.0925 80.2256C59.0925 80.2256 59.7901 82.5269 62.0762 83.3264C64.3624 84.1259 66.7421 84.816 69.5266 83.828C70.6198 83.4358 72.4107 81.928 72.4107 81.928C72.4107 81.928 71.5047 71.7227 71.5047 71.2211C71.5047 70.7195 71.3174 67.2205 70.5202 65.0195Z" fill="white"/>
<mask id="mask1_815_13394" style="mask-type:luminance" maskUnits="userSpaceOnUse" x="55" y="58" width="18" height="27">
<path d="M70.5202 65.0195C70.5202 65.0195 68.533 64.0163 66.4462 62.7182C64.3594 61.4202 61.3756 60.0157 60.5813 59.5141C59.7871 59.0125 59.1257 58.3406 57.7003 59.3165C54.946 61.1952 56.5074 66.6125 56.5074 67.3178C56.5074 68.023 55.0155 72.6226 55.1151 73.5224C55.2148 74.4222 55.4171 78.8242 55.4171 78.8242C55.4171 78.8242 55.8128 79.6267 57.3046 79.2254C57.3046 79.2254 58.2982 74.6229 58.3979 73.3218C58.5469 72.1393 58.779 70.969 59.0925 69.8197L60.0891 75.5227L59.0925 80.2256C59.0925 80.2256 59.7901 82.5269 62.0762 83.3264C64.3624 84.1259 66.7421 84.816 69.5266 83.828C70.6198 83.4358 72.4107 81.928 72.4107 81.928C72.4107 81.928 71.5047 71.7227 71.5047 71.2211C71.5047 70.7195 71.3174 67.2205 70.5202 65.0195Z" fill="white"/>
</mask>
<g mask="url(#mask1_815_13394)">
<path d="M69.5263 83.828C70.6195 83.4358 72.4104 81.928 72.4104 81.928C72.4104 81.928 72.0238 77.52 71.7581 74.3584C71.6931 74.3309 71.6216 74.3226 71.5521 74.3344C71.4826 74.3463 71.4179 74.3778 71.3655 74.4253C70.6799 74.9998 70.9095 80.0675 70.4595 79.8395C70.0095 79.6115 67.8291 73.3856 66.1107 70.8533C64.3923 68.321 66.6845 72.349 66.2254 73.7322C65.7664 75.1154 61.0914 65.7826 58.5577 64.6304C56.0239 63.4782 58.0986 66.7037 58.0986 66.7037L58.5607 72.1939C58.7721 71.0357 59.0982 69.8197 59.0982 69.8197L60.0948 75.5227L59.0982 80.2256C59.0982 80.2256 59.7959 82.5269 62.082 83.3264C64.3681 84.1259 66.7419 84.816 69.5263 83.828Z" fill="#92E3A9"/>
<path opacity="0.5" d="M69.5263 83.828C70.6195 83.4358 72.4104 81.928 72.4104 81.928C72.4104 81.928 72.0238 77.52 71.7581 74.3584C71.6931 74.3309 71.6216 74.3226 71.5521 74.3344C71.4826 74.3463 71.4179 74.3778 71.3655 74.4253C70.6799 74.9998 70.9095 80.0675 70.4595 79.8395C70.0095 79.6115 67.8291 73.3856 66.1107 70.8533C64.3923 68.321 66.6845 72.349 66.2254 73.7322C65.7664 75.1154 61.0914 65.7826 58.5577 64.6304C56.0239 63.4782 58.0986 66.7037 58.0986 66.7037L58.5607 72.1939C58.7721 71.0357 59.0982 69.8197 59.0982 69.8197L60.0948 75.5227L59.0982 80.2256C59.0982 80.2256 59.7959 82.5269 62.082 83.3264C64.3681 84.1259 66.7419 84.816 69.5263 83.828Z" fill="white"/>
</g>
<path d="M70.5202 65.0195C70.5202 65.0195 68.533 64.0163 66.4462 62.7182C64.3594 61.4202 61.3756 60.0157 60.5813 59.5141C59.7871 59.0125 59.1257 58.3406 57.7003 59.3165C54.946 61.1952 56.5074 66.6125 56.5074 67.3178C56.5074 68.023 55.0155 72.6226 55.1151 73.5224C55.2148 74.4222 55.4171 78.8242 55.4171 78.8242C55.4171 78.8242 55.8128 79.6267 57.3046 79.2254C57.3046 79.2254 58.2982 74.6229 58.3979 73.3218C58.5469 72.1393 58.779 70.969 59.0925 69.8197L60.0891 75.5227L59.0925 80.2256C59.0925 80.2256 59.7901 82.5269 62.0762 83.3264C64.3624 84.1259 66.7421 84.816 69.5266 83.828C70.6198 83.4358 72.4107 81.928 72.4107 81.928C72.4107 81.928 71.5047 71.7227 71.5047 71.2211C71.5047 70.7195 71.3174 67.2205 70.5202 65.0195Z" stroke="#263238" stroke-width="0.5" stroke-linecap="round" stroke-linejoin="round"/>
<path d="M59.0895 69.8197C59.0895 69.8197 58.1835 67.3299 57.4678 65.3387" stroke="#263238" stroke-width="0.5" stroke-linecap="round" stroke-linejoin="round"/>
<path d="M68.4331 65.2171C68.4331 65.2171 69.925 64.8189 70.52 65.0195C71.1149 65.2202 74.0987 73.2275 74.0987 73.2275L78.076 68.327C78.076 68.327 78.68 67.5245 79.8638 69.239L74.7963 78.8424C74.7963 78.8424 74.1923 79.7544 73.2047 78.9427C72.2172 78.131 67.2402 70.224 67.2402 70.224" fill="white"/>
<path d="M68.4331 65.2171C68.4331 65.2171 69.925 64.8189 70.52 65.0195C71.1149 65.2202 74.0987 73.2275 74.0987 73.2275L78.076 68.327C78.076 68.327 78.68 67.5245 79.8638 69.239L74.7963 78.8424C74.7963 78.8424 74.1923 79.7544 73.2047 78.9427C72.2172 78.131 67.2402 70.224 67.2402 70.224" stroke="#263238" stroke-width="0.5" stroke-linecap="round" stroke-linejoin="round"/>
<path d="M94.7528 92.6197C94.7528 92.6197 94.6682 96.064 95.4323 97.1006C96.1963 98.1373 97.1265 97.8485 97.1265 96.7298C97.1265 95.611 96.7037 93.2733 96.1088 92.2488C95.5138 91.2243 94.7528 92.6197 94.7528 92.6197Z" fill="white" stroke="#263238" stroke-width="0.5" stroke-linecap="round" stroke-linejoin="round"/>
<path d="M84.9259 86.5002C84.9259 86.5002 82.3015 88.2056 82.1324 89.0568C81.9633 89.908 85.1796 88.9717 86.1128 87.777C87.046 86.5822 86.1128 86.1597 84.9259 86.5002Z" fill="white" stroke="#263238" stroke-width="0.5" stroke-linecap="round" stroke-linejoin="round"/>
<path d="M83.9107 69.008C83.9107 69.008 83.5694 75.0606 83.9952 77.1947C84.421 79.3288 84.3335 86.9987 84.3335 86.9987C84.3335 86.9987 84.9375 87.169 85.4327 87.3392C85.928 87.5094 86.7042 86.6582 86.7042 86.6582L87.9756 77.1096L88.8212 73.4434L90.8536 81.5419L94.7525 93.0514C94.7525 93.0514 95.0061 93.3098 95.8517 93.3949C95.958 93.4152 96.0673 93.4135 96.1729 93.3896C96.2785 93.3658 96.378 93.3204 96.4655 93.2563C96.553 93.1922 96.6264 93.1107 96.6814 93.0169C96.7363 92.9231 96.7716 92.8189 96.7849 92.7109L95.5981 80.177L94.7525 69.5187C94.7525 69.5187 91.364 69.5187 89.247 69.2634C87.7478 69.0255 86.2916 68.5666 84.9254 67.9014L83.8261 67.488L83.9107 69.008Z" fill="#263238" stroke="#263238" stroke-width="0.5" stroke-linecap="round" stroke-linejoin="round"/>
<path d="M88.2297 48.64L83.9111 50.0901C83.1471 50.3454 83.0625 51.3669 83.0625 52.5616C83.0625 53.7563 83.739 63.7306 83.5699 64.9253C83.4007 66.12 83.2316 69.616 83.2316 69.616C83.9011 70.2537 84.607 70.8516 85.3456 71.4066C85.9193 71.7487 86.5511 71.9806 87.209 72.0906L87.813 70.3L88.574 72.5162C88.574 72.5162 90.7756 73.1971 92.5544 72.9418C94.3331 72.6864 95.7737 69.8744 95.7737 69.8744L94.8284 64.1592C94.8284 64.1592 97.5464 53.5891 96.8609 52.3032C96.1753 51.0173 93.557 49.4882 91.7782 48.8923C90.6297 48.5386 89.4163 48.4523 88.2297 48.64Z" fill="white"/>
<mask id="mask2_815_13394" style="mask-type:luminance" maskUnits="userSpaceOnUse" x="83" y="48" width="14" height="25">
<path d="M88.2297 48.64L83.9111 50.0901C83.1471 50.3454 83.0625 51.3669 83.0625 52.5616C83.0625 53.7563 83.739 63.7306 83.5699 64.9253C83.4007 66.12 83.2316 69.616 83.2316 69.616C83.9011 70.2537 84.607 70.8516 85.3456 71.4066C85.9193 71.7487 86.5511 71.9806 87.209 72.0906L87.813 70.3L88.574 72.5162C88.574 72.5162 90.7756 73.1971 92.5544 72.9418C94.3331 72.6864 95.7737 69.8744 95.7737 69.8744L94.8284 64.1592C94.8284 64.1592 97.5464 53.5891 96.8609 52.3032C96.1753 51.0173 93.557 49.4882 91.7782 48.8923C90.6297 48.5386 89.4163 48.4523 88.2297 48.64Z" fill="white"/>
</mask>
<g mask="url(#mask2_815_13394)">
<path d="M95.1731 56.9118C95.1731 56.9118 94.3698 59.2162 93.6843 61.867C92.9987 64.5179 90.7096 69.239 90.4801 69.5856C90.2505 69.9322 85.6722 63.7093 86.0165 64.6304C86.2979 65.4993 86.5269 66.3845 86.702 67.2813L83.38 58.4987C83.5341 61.3715 83.682 64.3142 83.5824 64.9283C83.4133 66.123 83.2441 69.616 83.2441 69.616C83.9136 70.2537 84.6195 70.8516 85.3581 71.4066C85.9319 71.7487 86.5637 71.9806 87.2215 72.0906L87.8255 70.3L88.5865 72.5162C88.5865 72.5162 90.7881 73.1971 92.5669 72.9418C94.3457 72.6864 95.7862 69.8744 95.7862 69.8744L94.8289 64.1592C94.8289 64.1592 95.5899 61.1891 96.203 58.2069L95.1731 56.9118Z" fill="#92E3A9"/>
<path opacity="0.5" d="M95.1731 56.9118C95.1731 56.9118 94.3698 59.2162 93.6843 61.867C92.9987 64.5179 90.7096 69.239 90.4801 69.5856C90.2505 69.9322 85.6722 63.7093 86.0165 64.6304C86.2979 65.4993 86.5269 66.3845 86.702 67.2813L83.38 58.4987C83.5341 61.3715 83.682 64.3142 83.5824 64.9283C83.4133 66.123 83.2441 69.616 83.2441 69.616C83.9136 70.2537 84.6195 70.8516 85.3581 71.4066C85.9319 71.7487 86.5637 71.9806 87.2215 72.0906L87.8255 70.3L88.5865 72.5162C88.5865 72.5162 90.7881 73.1971 92.5669 72.9418C94.3457 72.6864 95.7862 69.8744 95.7862 69.8744L94.8289 64.1592C94.8289 64.1592 95.5899 61.1891 96.203 58.2069L95.1731 56.9118Z" fill="white"/>
</g>
<path d="M88.2297 48.64L83.9111 50.0901C83.1471 50.3454 83.0625 51.3669 83.0625 52.5616C83.0625 53.7563 83.739 63.7306 83.5699 64.9253C83.4007 66.12 83.2316 69.616 83.2316 69.616C83.9011 70.2537 84.607 70.8516 85.3456 71.4066C85.9193 71.7487 86.5511 71.9806 87.209 72.0906L87.813 70.3L88.574 72.5162C88.574 72.5162 90.7756 73.1971 92.5544 72.9418C94.3331 72.6864 95.7737 69.8744 95.7737 69.8744L94.8284 64.1592C94.8284 64.1592 97.5464 53.5891 96.8609 52.3032C96.1753 51.0173 93.557 49.4882 91.7782 48.8923C90.6297 48.5386 89.4163 48.4523 88.2297 48.64Z" stroke="#263238" stroke-width="0.5" stroke-linecap="round" stroke-linejoin="round"/>
<path d="M86.7048 49.1538L85.4334 51.8837L86.7894 53.7594L85.1797 55.0362L87.3843 58.1917" fill="white"/>
<path d="M86.7048 49.1538L85.4334 51.8837L86.7894 53.7594L85.1797 55.0362L87.3843 58.1917" stroke="#263238" stroke-width="0.5" stroke-linecap="round" stroke-linejoin="round"/>
<path d="M92.8049 49.324L93.6505 53.1605L91.618 53.6742L92.5482 55.0362C92.5482 55.0362 91.2798 56.4862 90.0929 57.1642C88.9061 57.8421 86.7891 59.125 86.7891 59.125L87.3931 68.5034" fill="white"/>
<path d="M92.8049 49.324L93.6505 53.1605L91.618 53.6742L92.5482 55.0362C92.5482 55.0362 91.2798 56.4862 90.0929 57.1642C88.9061 57.8421 86.7891 59.125 86.7891 59.125L87.3931 68.5034" stroke="#263238" stroke-width="0.5" stroke-linecap="round" stroke-linejoin="round"/>
<path d="M87.7224 48.64C87.7224 48.64 87.4688 51.6253 87.4688 53.3307C87.5169 54.6509 87.6867 55.9638 87.9761 57.2523C87.9761 57.2523 90.4314 53.7563 91.1954 52.3062C91.9595 50.8562 92.2947 49.5702 91.7994 48.8954C91.3041 48.2205 90.8662 48.2874 90.8662 48.2874C90.8662 48.2874 88.4865 47.6186 87.7224 48.64Z" fill="white" stroke="#263238" stroke-width="0.5" stroke-linecap="round" stroke-linejoin="round"/>
<path d="M88.0605 52.82L88.2296 53.504L87.6377 55.3797L87.9759 57.2554L89.0752 55.635L88.9061 53.6742L89.501 52.9902L89.0752 51.7134L88.0605 52.82Z" fill="#263238"/>
<path d="M87.5527 52.9902L88.9057 52.2242L90.2617 53.5891" stroke="#263238" stroke-width="0.5" stroke-linecap="round" stroke-linejoin="round"/>
<path d="M95.7671 71.0661L95.2598 72.8566L95.4289 74.2216H95.7671L95.9363 73.4555L96.0208 75.4163L96.8694 75.5014L97.7996 73.1971V71.2363L95.7671 71.0661Z" fill="white" stroke="#263238" stroke-width="0.5" stroke-linecap="round" stroke-linejoin="round"/>
<path d="M96.0364 53.1605C96.0364 53.1605 94.5959 55.2885 94.5113 56.316C94.4267 57.3435 94.768 58.5322 94.9371 59.3864C95.1062 60.2406 95.0217 64.3325 95.3599 65.7704C95.6982 67.2083 95.7827 71.057 95.7827 71.057C95.7827 71.057 96.3867 71.9112 97.8152 71.2272C97.8152 71.2272 98.4192 64.6638 98.241 61.253C98.1325 59.175 97.7911 57.116 97.2233 55.1152C97.2233 55.1152 97.6461 52.8109 96.8005 51.9597" fill="white"/>
<path d="M96.0364 53.1605C96.0364 53.1605 94.5959 55.2885 94.5113 56.316C94.4267 57.3435 94.768 58.5322 94.9371 59.3864C95.1062 60.2406 95.0217 64.3325 95.3599 65.7704C95.6982 67.2083 95.7827 71.057 95.7827 71.057C95.7827 71.057 96.3867 71.9112 97.8152 71.2272C97.8152 71.2272 98.4192 64.6638 98.241 61.253C98.1325 59.175 97.7911 57.116 97.2233 55.1152C97.2233 55.1152 97.6461 52.8109 96.8005 51.9597" stroke="#263238" stroke-width="0.5" stroke-linecap="round" stroke-linejoin="round"/>
<path d="M88.4858 49.1538C88.4858 49.1538 88.4012 52.2242 88.9086 52.2242C89.4159 52.2242 90.6873 48.8984 90.8565 48.3026C91.0256 47.7067 88.4858 49.1538 88.4858 49.1538Z" fill="white" stroke="#263238" stroke-width="0.5" stroke-linecap="round" stroke-linejoin="round"/>
<path d="M86.7466 43.168C86.7466 43.168 86.517 46.1472 87.0486 47.3693C87.5801 48.5914 87.9546 50.1053 88.7941 50.1934C89.6337 50.2816 91.4487 47.9043 91.4487 47.9043L91.6752 47.2963C92.2538 46.4391 92.5689 45.4294 92.5812 44.3931C92.5872 42.6998 88.1841 41.6298 86.7466 43.168Z" fill="white" stroke="#263238" stroke-width="0.5" stroke-linecap="round" stroke-linejoin="round"/>
<path d="M88.1023 45.7186L87.915 47.4939L88.658 47.6794" fill="white"/>
<path d="M88.1023 45.7186L87.915 47.4939L88.658 47.6794" stroke="#263238" stroke-width="0.5" stroke-linecap="round" stroke-linejoin="round"/>
<path d="M87.6044 45.7246C87.6044 45.9222 87.5531 46.0834 87.4897 46.0834C87.4263 46.0834 87.3779 45.9222 87.3779 45.7246C87.3779 45.527 87.4293 45.3629 87.4897 45.3629C87.5501 45.3629 87.6044 45.524 87.6044 45.7246Z" fill="#263238"/>
<path d="M89.2196 46.1776C89.2196 46.3782 89.1713 46.5394 89.1078 46.5394C89.0444 46.5394 88.9961 46.3782 88.9961 46.1776C88.9961 45.977 89.0444 45.8189 89.1078 45.8189C89.1713 45.8189 89.2196 45.98 89.2196 46.1776Z" fill="#263238"/>
<path d="M88.6943 45.3446C88.6943 45.3446 89.5581 45.1166 89.9356 45.7611L88.6943 45.3446Z" fill="white"/>
<path d="M88.6943 45.3446C88.6943 45.3446 89.5581 45.1166 89.9356 45.7611" stroke="#263238" stroke-width="0.5" stroke-linecap="round" stroke-linejoin="round"/>
<path d="M87.1152 44.9677C87.2502 44.9052 87.404 44.8978 87.5442 44.9472C87.6845 44.9965 87.8003 45.0987 87.8672 45.2322" fill="white"/>
<path d="M87.1152 44.9677C87.2502 44.9052 87.404 44.8978 87.5442 44.9472C87.6845 44.9965 87.8003 45.0987 87.8672 45.2322" stroke="#263238" stroke-width="0.5" stroke-linecap="round" stroke-linejoin="round"/>
<path d="M87.9424 48.26C88.0597 48.3871 88.2159 48.4711 88.386 48.4986C88.5562 48.5262 88.7306 48.4957 88.8816 48.412" fill="white"/>
<path d="M87.9424 48.26C88.0597 48.3871 88.2159 48.4711 88.386 48.4986C88.5562 48.5262 88.7306 48.4957 88.8816 48.412" stroke="#263238" stroke-width="0.5" stroke-linecap="round" stroke-linejoin="round"/>
<path d="M88.0361 40.0277C88.0361 40.0277 85.457 40.5597 85.759 42.1557C86.061 43.7517 88.64 44.2168 89.4011 44.2168C89.963 44.1983 90.5216 44.1219 91.0681 43.9888C91.0681 43.9888 90.3101 44.8278 90.7661 45.2048C91.2221 45.5818 91.4486 45.8128 91.4486 45.8128C91.4486 45.8128 91.9802 46.1958 91.9802 45.7368C92.008 45.3478 92.0841 44.9638 92.2067 44.5938L92.8892 44.5147C92.8892 44.5147 93.7952 42.8366 93.4932 41.6906C93.1912 40.5445 90.9926 38.2706 88.0361 40.0277Z" fill="#263238" stroke="#263238" stroke-width="0.5" stroke-linecap="round" stroke-linejoin="round"/>
<path d="M91.4492 45.828C91.4492 45.828 91.9807 43.7669 92.8898 44.5299C93.7988 45.293 92.1317 46.8221 91.7512 46.7461" fill="white"/>
<path d="M91.4492 45.828C91.4492 45.828 91.9807 43.7669 92.8898 44.5299C93.7988 45.293 92.1317 46.8221 91.7512 46.7461" stroke="#263238" stroke-width="0.5" stroke-linecap="round" stroke-linejoin="round"/>
</svg>
