<svg width="80" height="80" viewBox="0 0 80 80" fill="none" xmlns="http://www.w3.org/2000/svg">
<path d="M24.9902 8.94726C24.9902 8.94726 12.867 15.1233 6.82056 24.6401C0.774157 34.1569 1.25256 46.4001 8.59976 55.4881C15.947 64.5761 29.9902 63.3825 41.7486 69.1393C53.507 74.8961 66.4798 73.7105 72.0398 61.5137C77.5998 49.3169 69.2158 44.7585 67.7758 30.6433C66.3358 16.5281 53.611 -4.14074 24.9902 8.94726Z" fill="#56AA7A"/>
<path opacity="0.7" d="M24.9902 8.94726C24.9902 8.94726 12.867 15.1233 6.82056 24.6401C0.774157 34.1569 1.25256 46.4001 8.59976 55.4881C15.947 64.5761 29.9902 63.3825 41.7486 69.1393C53.507 74.8961 66.4798 73.7105 72.0398 61.5137C77.5998 49.3169 69.2158 44.7585 67.7758 30.6433C66.3358 16.5281 53.611 -4.14074 24.9902 8.94726Z" fill="white"/>
<path d="M50.0767 9.26725V6.76965H52.4063V24.8689" stroke="#808080" stroke-width="0.3" stroke-miterlimit="10"/>
<path d="M50.0767 47.4385V9.94568" stroke="#808080" stroke-width="0.3" stroke-miterlimit="10"/>
<path d="M52.4063 25.5472V67.1728H50.0767V48.3632" stroke="#808080" stroke-width="0.3" stroke-miterlimit="10"/>
<path d="M37.9199 7.86565V6.76965H40.2495V7.66565" stroke="#808080" stroke-width="0.3" stroke-miterlimit="10"/>
<path d="M37.9199 27.3345V26.6001" stroke="#808080" stroke-width="0.3" stroke-miterlimit="10"/>
<path d="M40.2495 65.0144V67.1728H37.9199V56.9952" stroke="#808080" stroke-width="0.3" stroke-miterlimit="10"/>
<path d="M40.2495 56.9552V64.2128" stroke="#808080" stroke-width="0.3" stroke-miterlimit="10"/>
<path d="M14.2593 62.9168V56.9952" stroke="#808080" stroke-width="0.3" stroke-miterlimit="10"/>
<path d="M16.5889 56.9552V67.1728H14.2593V63.904" stroke="#808080" stroke-width="0.3" stroke-miterlimit="10"/>
<path d="M40.2495 26.4V27.2944" stroke="#808080" stroke-width="0.3" stroke-miterlimit="10"/>
<path d="M31.0976 26.5073H50.0848V23.9473H7.5" stroke="#808080" stroke-width="0.3" stroke-miterlimit="10"/>
<path d="M16.1118 26.5072H30.4798" stroke="#808080" stroke-width="0.3" stroke-miterlimit="10"/>
<path d="M14.1392 26.5072H15.496" stroke="#808080" stroke-width="0.3" stroke-miterlimit="10"/>
<path d="M6.88477 26.5072H13.3984" stroke="#808080" stroke-width="0.3" stroke-miterlimit="10"/>
<path d="M48.6928 50.7377H43.8784V54.4641H48.6928V50.7377Z" stroke="#808080" stroke-width="0.3" stroke-miterlimit="10"/>
<path d="M36.9663 50.7377H32.1519V54.4641H36.9663V50.7377Z" stroke="#808080" stroke-width="0.3" stroke-miterlimit="10"/>
<path d="M25.2383 50.7377H11.3135V54.4641H25.2383V50.7377Z" stroke="#808080" stroke-width="0.3" stroke-miterlimit="10"/>
<path d="M25.2385 50.7377H21.1777V54.4641H25.2385V50.7377Z" stroke="#808080" stroke-width="0.3" stroke-miterlimit="10"/>
<path d="M49.0958 49.9889H9.12305V50.7345H49.0958V49.9889Z" stroke="#808080" stroke-width="0.3" stroke-miterlimit="10"/>
<path d="M49.0945 49.9889H19.4785V50.7345H49.0945V49.9889Z" stroke="#808080" stroke-width="0.3" stroke-miterlimit="10"/>
<path d="M23.864 49.4401H9.65283V50.0097H23.864V49.4401Z" stroke="#808080" stroke-width="0.3" stroke-miterlimit="10"/>
<path d="M29.8784 49.4401H26.9648V49.9745H29.8784V49.4401Z" stroke="#808080" stroke-width="0.3" stroke-miterlimit="10"/>
<path d="M35.8926 49.4401H32.979V49.9745H35.8926V49.4401Z" stroke="#808080" stroke-width="0.3" stroke-miterlimit="10"/>
<path d="M41.9073 49.4401H38.9937V49.9745H41.9073V49.4401Z" stroke="#808080" stroke-width="0.3" stroke-miterlimit="10"/>
<path d="M47.9214 49.4401H45.0078V49.9745H47.9214V49.4401Z" stroke="#808080" stroke-width="0.3" stroke-miterlimit="10"/>
<path d="M25.2383 54.4641H32.1519" stroke="#808080" stroke-width="0.3" stroke-miterlimit="10"/>
<path d="M36.9648 54.4641H43.8784" stroke="#808080" stroke-width="0.3" stroke-miterlimit="10"/>
<path d="M21.1279 49.9936V49.4592" stroke="#808080" stroke-width="0.3" stroke-miterlimit="10"/>
<path d="M23.8638 49.4401H26.9646" stroke="#808080" stroke-width="0.3" stroke-miterlimit="10"/>
<path d="M29.8784 49.4401H32.9792" stroke="#808080" stroke-width="0.3" stroke-miterlimit="10"/>
<path d="M35.8926 49.4401H38.9934" stroke="#808080" stroke-width="0.3" stroke-miterlimit="10"/>
<path d="M41.9072 49.4401H45.008" stroke="#808080" stroke-width="0.3" stroke-miterlimit="10"/>
<path d="M9.94557 57.0176H50.0848M11.386 54.4576H9.13541H6.88477M21.386 64.4576H19.1354H16.8848" stroke="white" stroke-width="0.3" stroke-miterlimit="10"/>
<path d="M6.88477 57.0177H9.20637" stroke="white" stroke-width="0.3" stroke-miterlimit="10"/>
<path d="M48.0349 27.3136H34.7485V38.352H48.0349V27.3136Z" stroke="#808080" stroke-width="0.3" stroke-miterlimit="10"/>
<path d="M48.0353 27.3136H37.3521V38.352H48.0353V27.3136Z" stroke="#808080" stroke-width="0.3" stroke-miterlimit="10"/>
<path d="M43.9453 28.1921H41.7053C41.6018 28.1921 41.5025 28.1509 41.4293 28.0777C41.3561 28.0045 41.3149 27.9052 41.3149 27.8017C41.3149 27.6981 41.3561 27.5988 41.4293 27.5256C41.5025 27.4524 41.6018 27.4113 41.7053 27.4113H43.9453C44.0489 27.4113 44.1482 27.4524 44.2214 27.5256C44.2946 27.5988 44.3357 27.6981 44.3357 27.8017C44.3357 27.9052 44.2946 28.0045 44.2214 28.0777C44.1482 28.1509 44.0489 28.1921 43.9453 28.1921Z" stroke="#808080" stroke-width="0.3" stroke-miterlimit="10"/>
<path d="M48.0349 38.3489H34.7485V49.3873H48.0349V38.3489Z" stroke="#808080" stroke-width="0.3" stroke-miterlimit="10"/>
<path d="M48.0353 38.3489H37.3521V49.3873H48.0353V38.3489Z" stroke="#808080" stroke-width="0.3" stroke-miterlimit="10"/>
<path d="M43.9453 38.4464H41.7053C41.4897 38.4464 41.3149 38.6208 41.3149 38.836C41.3149 39.0512 41.4897 39.2256 41.7053 39.2256H43.9453C44.161 39.2256 44.3357 39.0512 44.3357 38.836C44.3357 38.6208 44.161 38.4464 43.9453 38.4464Z" stroke="#808080" stroke-width="0.3" stroke-miterlimit="10"/>
<path d="M32.6526 38.3489H19.3662V49.3873H32.6526V38.3489Z" stroke="#808080" stroke-width="0.3" stroke-miterlimit="10"/>
<path d="M32.6529 38.3489H21.9697V49.3873H32.6529V38.3489Z" stroke="#808080" stroke-width="0.3" stroke-miterlimit="10"/>
<path d="M28.565 38.4464H26.325C26.1094 38.4464 25.9346 38.6208 25.9346 38.836C25.9346 39.0512 26.1094 39.2256 26.325 39.2256H28.565C28.7806 39.2256 28.9554 39.0512 28.9554 38.836C28.9554 38.6208 28.7806 38.4464 28.565 38.4464Z" stroke="#808080" stroke-width="0.3" stroke-miterlimit="10"/>
<path d="M48.6928 20.192H43.8784V23.9184H48.6928V20.192Z" stroke="#808080" stroke-width="0.3" stroke-miterlimit="10"/>
<path d="M36.9663 20.192H32.1519V23.9184H36.9663V20.192Z" stroke="#808080" stroke-width="0.3" stroke-miterlimit="10"/>
<path d="M25.2383 20.192H11.3135V23.9184H25.2383V20.192Z" stroke="#808080" stroke-width="0.3" stroke-miterlimit="10"/>
<path d="M25.2385 20.192H21.1777V23.9184H25.2385V20.192Z" stroke="#808080" stroke-width="0.3" stroke-miterlimit="10"/>
<path d="M49.0958 19.4448H9.12305V20.1904H49.0958V19.4448Z" stroke="#808080" stroke-width="0.3" stroke-miterlimit="10"/>
<path d="M49.0958 19.4448H9.12305V20.1904H10.5" stroke="white" stroke-width="0.3" stroke-miterlimit="10"/>
<path d="M49.0945 19.4448H19.4785V20.1904H49.0945V19.4448Z" stroke="#808080" stroke-width="0.3" stroke-miterlimit="10"/>
<path d="M13.5168 18.8944H9.65283V19.464H23.864V18.8944H14.1648" stroke="#808080" stroke-width="0.3" stroke-miterlimit="10"/>
<path d="M11.5742 18.8944H9.65283V19.464H11" stroke="white" stroke-width="0.3" stroke-miterlimit="10"/>
<path d="M29.8784 18.896H26.9648V19.4304H29.8784V18.896Z" stroke="#808080" stroke-width="0.3" stroke-miterlimit="10"/>
<path d="M35.8926 18.896H32.979V19.4304H35.8926V18.896Z" stroke="#808080" stroke-width="0.3" stroke-miterlimit="10"/>
<path d="M41.9073 18.896H38.9937V19.4304H41.9073V18.896Z" stroke="#808080" stroke-width="0.3" stroke-miterlimit="10"/>
<path d="M47.9214 18.896H45.0078V19.4304H47.9214V18.896Z" stroke="#808080" stroke-width="0.3" stroke-miterlimit="10"/>
<path d="M25.2383 23.92H32.1519" stroke="#808080" stroke-width="0.3" stroke-miterlimit="10"/>
<path d="M36.9648 23.92H43.8784" stroke="#808080" stroke-width="0.3" stroke-miterlimit="10"/>
<path d="M21.1279 19.4481V18.9153" stroke="#808080" stroke-width="0.3" stroke-miterlimit="10"/>
<path d="M23.8638 18.896H26.9646" stroke="#808080" stroke-width="0.3" stroke-miterlimit="10"/>
<path d="M29.8784 18.896H32.9792" stroke="#808080" stroke-width="0.3" stroke-miterlimit="10"/>
<path d="M35.8926 18.896H38.9934" stroke="#808080" stroke-width="0.3" stroke-miterlimit="10"/>
<path d="M41.9072 18.896H45.008" stroke="#808080" stroke-width="0.3" stroke-miterlimit="10"/>
<path d="M48.0349 7.80481H34.7485V18.8432H48.0349V7.80481Z" stroke="#808080" stroke-width="0.3" stroke-miterlimit="10"/>
<path d="M37.3521 15.136V7.80481H48.0336V18.8432H37.3521V16.0592" stroke="#808080" stroke-width="0.3" stroke-miterlimit="10"/>
<path d="M43.9453 8.68167H41.7053C41.6018 8.68167 41.5025 8.64054 41.4293 8.56732C41.3561 8.49411 41.3149 8.39481 41.3149 8.29127C41.3149 8.24008 41.325 8.18939 41.3447 8.14211C41.3643 8.09484 41.3931 8.0519 41.4294 8.01578C41.4657 7.97965 41.5087 7.95105 41.5561 7.9316C41.6034 7.91216 41.6541 7.90226 41.7053 7.90247H43.9453C43.9965 7.90226 44.0473 7.91216 44.0946 7.9316C44.142 7.95105 44.185 7.97965 44.2213 8.01578C44.2576 8.0519 44.2864 8.09484 44.306 8.14211C44.3256 8.18939 44.3357 8.24008 44.3357 8.29127C44.3357 8.39481 44.2946 8.49411 44.2214 8.56732C44.1482 8.64054 44.0489 8.68167 43.9453 8.68167Z" stroke="#808080" stroke-width="0.3" stroke-miterlimit="10"/>
<path d="M32.6526 12.6384V18.8432H19.3662V7.80481H32.6526V11.9456" stroke="#808080" stroke-width="0.3" stroke-miterlimit="10"/>
<path d="M19.3662 12.3312V7.80481H32.6526V11.4229" stroke="white" stroke-width="0.3" stroke-miterlimit="10"/>
<path d="M32.6529 12.6384V18.8432H21.9697V7.80481H32.6529V11.4832" stroke="#808080" stroke-width="0.3" stroke-miterlimit="10"/>
<path d="M22 11V9.5L21.9697 7.80481H27.5" stroke="white" stroke-width="0.3" stroke-miterlimit="10"/>
<path d="M28.5648 8.6817H26.3248C26.2736 8.6817 26.223 8.67159 26.1757 8.65195C26.1284 8.63231 26.0855 8.60353 26.0493 8.56725C26.0132 8.53098 25.9846 8.48793 25.9652 8.44057C25.9457 8.39322 25.9358 8.34249 25.936 8.2913C25.936 8.18818 25.977 8.08929 26.0499 8.01637C26.1228 7.94346 26.2217 7.9025 26.3248 7.9025H28.5648C28.6164 7.90186 28.6675 7.91144 28.7153 7.93067C28.7632 7.94991 28.8067 7.97842 28.8434 8.01457C28.8802 8.05071 28.9094 8.09378 28.9294 8.14127C28.9494 8.18877 28.9598 8.23976 28.96 8.2913C28.96 8.34297 28.9498 8.39413 28.9299 8.44181C28.9099 8.48949 28.8808 8.53275 28.844 8.56906C28.8072 8.60538 28.7636 8.63403 28.7157 8.65337C28.6678 8.6727 28.6165 8.68233 28.5648 8.6817Z" stroke="#808080" stroke-width="0.3" stroke-miterlimit="10"/>
<path d="M25.9652 8.44055C25.9457 8.39319 25.9358 8.34246 25.936 8.29127C25.936 8.18815 25.977 8.08926 26.0499 8.01635C26.1228 7.94343 26.0726 7.90247 26.1757 7.90247H27.5" stroke="white" stroke-width="0.3" stroke-miterlimit="10"/>
<path d="M45.7632 57.0304L50.112 60.0016" stroke="#808080" stroke-width="0.3" stroke-miterlimit="10"/>
<path d="M50.1056 62.2432L42.5024 57.0448" stroke="#808080" stroke-width="0.3" stroke-miterlimit="10"/>
<path d="M33.5503 57.0304L37.8975 60.0016" stroke="#808080" stroke-width="0.3" stroke-miterlimit="10"/>
<path d="M37.8913 62.2432L30.2881 57.0448" stroke="#808080" stroke-width="0.3" stroke-miterlimit="10"/>
<path d="M75.5199 67.1711H5.43994" stroke="#263238" stroke-width="0.5" stroke-linecap="round" stroke-linejoin="round"/>
<path d="M61.7408 56.5168H45.9888V69.6304H61.7408V56.5168Z" fill="#263238" stroke="#808080" stroke-width="0.3" stroke-miterlimit="10"/>
<path d="M57.2688 56.5168H45.9888V69.6304H57.2688V56.5168Z" fill="#FFFFE9" stroke="#808080" stroke-width="0.3" stroke-miterlimit="10"/>
<path d="M52.5889 56.5168H50.6689V58.9872H52.5889V56.5168Z" fill="#56AA7A" stroke="#808080" stroke-width="0.3" stroke-miterlimit="10"/>
<path d="M52.5889 56.5168H50.6689V58.9872H52.5889V56.5168Z" fill="#56AA7A" stroke="#808080" stroke-width="0.3" stroke-miterlimit="10"/>
<path opacity="0.4" d="M52.5889 56.5168H50.6689V58.9872H52.5889V56.5168Z" fill="white" stroke="#808080" stroke-width="0.3" stroke-miterlimit="10"/>
<path d="M74.7007 56.5168H58.9487V69.6304H74.7007V56.5168Z" fill="#263238" stroke="#808080" stroke-width="0.3" stroke-miterlimit="10"/>
<path d="M70.2287 56.5168H58.9487V69.6304H70.2287V56.5168Z" fill="#FFFFE9" stroke="#808080" stroke-width="0.3" stroke-miterlimit="10"/>
<path d="M65.5489 56.5168H63.6289V58.9872H65.5489V56.5168Z" fill="#56AA7A" stroke="#808080" stroke-width="0.3" stroke-miterlimit="10"/>
<path d="M65.5489 56.5168H63.6289V58.9872H65.5489V56.5168Z" fill="#56AA7A" stroke="#808080" stroke-width="0.3" stroke-miterlimit="10"/>
<path opacity="0.4" d="M65.5489 56.5168H63.6289V58.9872H65.5489V56.5168Z" fill="white" stroke="#808080" stroke-width="0.3" stroke-miterlimit="10"/>
<path d="M73.9024 43.4705H58.1504V56.5841H73.9024V43.4705Z" fill="#263238" stroke="#808080" stroke-width="0.3" stroke-miterlimit="10"/>
<path d="M69.4304 43.4705H58.1504V56.5841H69.4304V43.4705Z" fill="#FFFFE9" stroke="#808080" stroke-width="0.3" stroke-miterlimit="10"/>
<path d="M64.7502 43.4705H62.8286V45.9409H64.7502V43.4705Z" fill="#56AA7A" stroke="#808080" stroke-width="0.3" stroke-miterlimit="10"/>
<path d="M64.7502 43.4705H62.8286V45.9409H64.7502V43.4705Z" fill="#56AA7A" stroke="#808080" stroke-width="0.3" stroke-miterlimit="10"/>
<path opacity="0.4" d="M64.7502 43.4705H62.8286V45.9409H64.7502V43.4705Z" fill="white" stroke="#808080" stroke-width="0.3" stroke-miterlimit="10"/>
<path d="M73.9024 30.1904H58.1504V43.304H73.9024V30.1904Z" fill="#263238" stroke="#808080" stroke-width="0.3" stroke-miterlimit="10"/>
<path d="M69.4304 30.1904H58.1504V43.304H69.4304V30.1904Z" fill="#FFFFE9" stroke="#808080" stroke-width="0.3" stroke-miterlimit="10"/>
<path d="M63.7673 37.0782L59.7974 39.5474L61.1595 41.7375L65.1295 39.2683L63.7673 37.0782Z" fill="#56AA7A" stroke="#808080" stroke-width="0.3" stroke-miterlimit="10"/>
<path d="M63.7673 37.0782L59.7974 39.5474L61.1595 41.7375L65.1295 39.2683L63.7673 37.0782Z" fill="#56AA7A" stroke="#808080" stroke-width="0.3" stroke-miterlimit="10"/>
<path opacity="0.4" d="M63.7673 37.0782L59.7974 39.5474L61.1595 41.7375L65.1295 39.2683L63.7673 37.0782Z" fill="white" stroke="#808080" stroke-width="0.3" stroke-miterlimit="10"/>
<path d="M51.1936 62.6326L47.2236 65.1018L48.5858 67.2919L52.5558 64.8228L51.1936 62.6326Z" fill="#56AA7A" stroke="#808080" stroke-width="0.3" stroke-miterlimit="10"/>
<path d="M51.1936 62.6326L47.2236 65.1018L48.5858 67.2919L52.5558 64.8228L51.1936 62.6326Z" fill="#56AA7A" stroke="#808080" stroke-width="0.3" stroke-miterlimit="10"/>
<path opacity="0.4" d="M51.1936 62.6326L47.2236 65.1018L48.5858 67.2919L52.5558 64.8228L51.1936 62.6326Z" fill="white" stroke="#808080" stroke-width="0.3" stroke-miterlimit="10"/>
<path d="M64.7502 30.1904H62.8286V32.6608H64.7502V30.1904Z" fill="#56AA7A" stroke="#808080" stroke-width="0.3" stroke-miterlimit="10"/>
<path d="M64.7502 30.1904H62.8286V32.6608H64.7502V30.1904Z" fill="#56AA7A" stroke="#808080" stroke-width="0.3" stroke-miterlimit="10"/>
<path opacity="0.4" d="M64.7502 30.1904H62.8286V32.6608H64.7502V30.1904Z" fill="white" stroke="#808080" stroke-width="0.3" stroke-miterlimit="10"/>
<path d="M66.4541 46.27L67.4093 48.382L68.3677 46.2748L67.8717 46.2732V44.1148L66.9517 44.1132L66.9501 46.2716L66.4541 46.27Z" fill="#263238"/>
<path d="M54.25 59.5637L55.2052 61.6757L56.1636 59.5685L55.6676 59.5669V57.4085L54.7476 57.4069L54.746 59.5653L54.25 59.5637Z" fill="#263238"/>
<path d="M55.9998 19.04L75.8398 19.04V8.64004L55.9998 8.64004V19.04Z" stroke="#808080" stroke-width="0.3" stroke-miterlimit="10"/>
<path d="M74.8176 8.73121L75.7296 10.5552H56.6768L56 8.64001" stroke="#808080" stroke-width="0.3" stroke-miterlimit="10"/>
<path d="M74.8176 10.6049L75.7296 12.4305H56.6768L56 10.5153" stroke="#808080" stroke-width="0.3" stroke-miterlimit="10"/>
<path d="M74.8176 12.48L75.7296 14.304H56.6768L56 12.3904" stroke="#808080" stroke-width="0.3" stroke-miterlimit="10"/>
<path d="M74.8176 14.3552L75.7296 16.1792H56.6768L56 14.264" stroke="#808080" stroke-width="0.3" stroke-miterlimit="10"/>
<path d="M74.8176 16.2304L75.7296 18.0544H56.6768L56 16.1392" stroke="#808080" stroke-width="0.3" stroke-miterlimit="10"/>
<path d="M64.3251 19.04H75.8398V8.64004L56 8.64004V9L61.5 14.5L64.3251 19.04Z" stroke="white" stroke-width="0.3" stroke-miterlimit="10"/>
<path d="M74.8176 8.73121L75.7296 10.5552L57.5 10.5552L56 8.64001" stroke="white" stroke-width="0.3" stroke-miterlimit="10"/>
<path d="M74.8176 10.6049L75.7296 12.4305H59.5L57.5 10.5" stroke="white" stroke-width="0.3" stroke-miterlimit="10"/>
<path d="M74.8176 12.48L75.7296 14.304H61.2372L59.5 12.5" stroke="white" stroke-width="0.3" stroke-miterlimit="10"/>
<path d="M74.8177 14.3552L75.7297 16.1792H62.5" stroke="white" stroke-width="0.3" stroke-miterlimit="10"/>
<path d="M74.8178 16.2303L75.7298 18.0543H63.689" stroke="white" stroke-width="0.3" stroke-miterlimit="10"/>
<path d="M24.72 69.5872C30.8816 69.5872 36.1232 70.5168 38.072 71.8144L43.2832 73.8816L30.0528 77.1616L26.9008 76.24C26.1904 76.2656 25.4634 76.2789 24.72 76.28C16.896 76.28 10.5552 74.7808 10.5552 72.9328C10.5552 71.0848 16.896 69.5872 24.72 69.5872Z" fill="#263238"/>
<path d="M11.7582 47.4208C11.7582 47.4208 11.2782 48.5584 10.891 49.696C10.5038 50.8336 10.3742 51.6896 10.5358 52.5552C10.6974 53.4208 11.4958 54.352 12.2958 54.5152C13.0958 54.6784 17.7118 53.1616 18.9022 52.24C20.0926 51.3184 19.2814 48.9376 18.307 48.4C17.3326 47.8624 11.7582 47.4208 11.7582 47.4208Z" fill="white" stroke="#263238" stroke-width="0.3" stroke-linecap="round" stroke-linejoin="round"/>
<path d="M12.8672 48.4127C12.8672 48.4127 14.08 49.1823 14.7312 49.3887C15.3824 49.5951 16.5648 49.8335 16.5648 49.8335C16.5648 49.8335 14.5232 49.6847 14.1088 49.8623C13.6944 50.0399 13.3392 50.2175 13.3392 50.2175C13.3392 50.2175 16.2992 50.1295 16.9504 50.5727C17.6016 51.0159 18.4 51.6927 18.4 51.6927L17.4832 49.3247L17.6304 49.0591C17.6304 49.0591 14.7904 49.0927 12.8672 48.4127Z" fill="#263238" stroke="#263238" stroke-width="0.3" stroke-linecap="round" stroke-linejoin="round"/>
<path d="M26.0303 37.6575C26.0303 37.6575 28.2975 38.9023 28.6095 40.1903C28.7757 40.9213 29.0451 41.6249 29.4095 42.2799L18.4719 49.0383C18.4719 49.0383 16.1167 49.5711 14.2927 48.9935C12.4687 48.4159 11.5375 48.1487 11.5727 47.3935C11.6079 46.6383 12.3295 46.1039 12.5519 45.7039C12.7743 45.3039 14.6415 40.9471 15.7087 39.2575C16.7759 37.5679 17.0863 36.1903 19.2655 35.3007C20.531 34.7706 21.8939 34.5127 23.2655 34.5439L26.0303 37.6575Z" fill="#56AA7A" stroke="#263238" stroke-width="0.3" stroke-linecap="round" stroke-linejoin="round"/>
<path d="M13.6369 47.6544C13.3713 47.6544 13.1057 47.6544 12.8369 47.6304" stroke="#263238" stroke-width="0.3" stroke-linecap="round" stroke-linejoin="round"/>
<path d="M17.1309 47.36C16.0921 47.5258 15.0433 47.6215 13.9917 47.6464" stroke="#263238" stroke-width="0.3" stroke-linecap="round" stroke-linejoin="round"/>
<path d="M17.9375 47.224C17.9375 47.224 17.8015 47.2528 17.5615 47.2944" stroke="#263238" stroke-width="0.3" stroke-linecap="round" stroke-linejoin="round"/>
<path d="M17.016 45.6736C16.0208 46.1744 14.3168 46.9248 12.584 47.1872" stroke="#263238" stroke-width="0.3" stroke-linecap="round" stroke-linejoin="round"/>
<path d="M17.9008 45.1936C17.9008 45.1936 17.7408 45.2896 17.4624 45.44" stroke="#263238" stroke-width="0.3" stroke-linecap="round" stroke-linejoin="round"/>
<path d="M12.0669 46.8543C12.5097 46.645 12.9688 46.4721 13.4397 46.3375" stroke="#263238" stroke-width="0.3" stroke-linecap="round" stroke-linejoin="round"/>
<path d="M25.5409 39.1248L24.3409 42.5472L23.8081 42.6368L24.4305 40.9472" stroke="#263238" stroke-width="0.3" stroke-linecap="round" stroke-linejoin="round"/>
<path d="M27.0961 39.0656L26.5825 40.5344L26.2417 38.9968L27.0961 39.0656Z" fill="#56AA7A" stroke="#263238" stroke-width="0.3" stroke-linecap="round" stroke-linejoin="round"/>
<path d="M26.1919 37.0352L27.0959 39.0656L25.2847 39.3392L26.1919 37.0352Z" fill="#56AA7A" stroke="#263238" stroke-width="0.3" stroke-linecap="round" stroke-linejoin="round"/>
<path d="M32.0861 32.6047C32.0861 32.6047 31.5053 33.4591 31.4365 33.7327C31.3677 34.0063 30.8893 34.9631 30.5133 35.5103C30.1373 36.0575 28.7709 37.5903 27.9533 37.7327C27.1357 37.8751 26.4157 37.2879 26.4157 37.2879L25.2797 39.3391L23.9805 34.3791L24.8349 33.7631C24.6169 33.4525 24.4976 33.0834 24.4925 32.7039C24.4925 32.0895 24.8685 31.3375 24.8685 31.3375C24.8685 31.3375 25.3485 30.4815 26.1341 30.0719C26.9197 29.6623 29.9277 30.2431 30.9533 30.5855C31.9789 30.9279 32.2221 31.8527 32.0861 32.6047Z" fill="white" stroke="#263238" stroke-width="0.3" stroke-linecap="round" stroke-linejoin="round"/>
<path d="M26.4126 37.288L25.5454 36.504L25.9326 37.9104L26.4126 37.288Z" fill="#263238" stroke="#263238" stroke-width="0.3" stroke-linecap="round" stroke-linejoin="round"/>
<path d="M30.035 32.8447L29.659 33.3567C29.659 33.3567 29.7614 34.8943 29.4542 35.0319C29.147 35.1695 28.4942 34.9983 28.3262 34.7247" stroke="#263238" stroke-width="0.3" stroke-linecap="round" stroke-linejoin="round"/>
<path d="M28.224 35.2367C27.9616 34.9115 27.7216 34.5688 27.5056 34.2112C27.232 33.7312 26.8224 33.904 26.5824 34.2112C26.3424 34.5184 26.5488 34.9632 26.8912 35.1712C27.2336 35.3792 28.0528 35.6463 28.224 35.2367Z" stroke="#263238" stroke-width="0.3" stroke-linecap="round" stroke-linejoin="round"/>
<path d="M26.7197 34.08C26.7197 34.08 27.1997 35.0704 28.0189 35.344" stroke="#263238" stroke-width="0.3" stroke-linecap="round" stroke-linejoin="round"/>
<path d="M28.6189 32.8623C28.5217 32.7019 28.3859 32.5685 28.2237 32.4743C28.0616 32.3801 27.8784 32.3281 27.6909 32.3231" stroke="#263238" stroke-width="0.3" stroke-linecap="round" stroke-linejoin="round"/>
<path d="M30.1519 33.5184C30.1519 33.5184 30.7455 33.4608 30.8943 33.8944" stroke="#263238" stroke-width="0.3" stroke-linecap="round" stroke-linejoin="round"/>
<path d="M31.2959 33.4672C31.2959 33.4672 31.3263 32.9872 30.3359 32.9568" stroke="#263238" stroke-width="0.3" stroke-linecap="round" stroke-linejoin="round"/>
<path d="M28.9742 32.5312C28.9742 32.5312 28.8958 31.8304 27.8462 31.688" stroke="#263238" stroke-width="0.3" stroke-linecap="round" stroke-linejoin="round"/>
<path d="M24.8911 31.3104C25.1027 30.9646 25.3673 30.6542 25.6751 30.3904C26.2211 30.4353 26.7639 30.5128 27.3007 30.6224L27.4719 30.896C27.4719 30.896 26.4463 32.2976 26.0703 32.2976C25.6943 32.2976 25.7967 31.5104 25.4543 31.3056C25.3672 31.2602 25.2703 31.237 25.1721 31.2378C25.0739 31.2386 24.9774 31.2636 24.8911 31.3104Z" fill="#263238" stroke="#263238" stroke-width="0.3" stroke-linecap="round" stroke-linejoin="round"/>
<path d="M24.4976 32.7072C24.5008 32.5405 24.5223 32.3747 24.5616 32.2128C24.4992 32.8256 24.8 33.3024 24.9088 33.3568C25.0131 33.4205 25.1056 33.5016 25.1824 33.5968L24.8304 33.7568C24.6182 33.4474 24.5024 33.0822 24.4976 32.7072Z" fill="#263238" stroke="#263238" stroke-width="0.3" stroke-linecap="round" stroke-linejoin="round"/>
<path d="M24.8525 31.1728C24.8525 31.1728 26.5277 30.7968 29.0493 31.4528C31.5709 32.1088 32.1149 32.76 32.1149 32.76C32.1149 32.76 32.4669 31.3648 32.6221 30.4896C32.7773 29.6144 31.1453 28.2496 30.2045 27.8736C29.2637 27.4976 27.3005 27.8096 26.6413 28.0048C25.9821 28.2 25.4765 29.0832 25.3613 29.3408C25.2461 29.5984 24.8525 31.1728 24.8525 31.1728Z" fill="#56AA7A" stroke="#263238" stroke-width="0.3" stroke-linecap="round" stroke-linejoin="round"/>
<path opacity="0.4" d="M24.8525 31.1728C24.8525 31.1728 26.5277 30.7968 29.0493 31.4528C31.5709 32.1088 32.1149 32.76 32.1149 32.76C32.1149 32.76 32.4669 31.3648 32.6221 30.4896C32.7773 29.6144 31.1453 28.2496 30.2045 27.8736C29.2637 27.4976 27.3005 27.8096 26.6413 28.0048C25.9821 28.2 25.4765 29.0832 25.3613 29.3408C25.2461 29.5984 24.8525 31.1728 24.8525 31.1728Z" fill="white" stroke="#263238" stroke-width="0.3" stroke-linecap="round" stroke-linejoin="round"/>
<path d="M32.115 32.76C32.115 32.76 33.5406 34.5056 33.2078 34.6208C32.875 34.736 31.5918 33.3616 30.1837 33.0768C28.7757 32.792 27.4557 32.2112 26.9837 31.7456C26.7424 31.5256 26.5276 31.278 26.3438 31.008C26.3438 31.008 29.6734 30.8688 32.115 32.76Z" fill="white" stroke="#263238" stroke-width="0.3" stroke-linecap="round" stroke-linejoin="round"/>
<path d="M24.3953 33.8015L25.6257 39.2703L24.0545 39.8863L23.0625 34.3135L24.3953 33.8015Z" fill="#56AA7A" stroke="#263238" stroke-width="0.3" stroke-linecap="round" stroke-linejoin="round"/>
<path d="M29.1953 63.504L27.4625 66.4272C27.4625 66.4272 27.8417 66.7472 27.8417 66.9152V67.456C27.8417 67.456 30.0065 68.2144 30.4945 68.432C30.9825 68.6496 31.0897 69.2976 31.0353 69.4608C30.9809 69.624 29.8993 69.84 28.8705 69.84C27.8417 69.84 25.8913 69.352 25.8913 69.352C25.8913 69.352 24.5921 69.352 24.1585 69.0816C23.7249 68.8112 23.8881 68.16 23.9985 67.6736C24.1089 67.1872 24.2689 66.6992 24.2689 66.6992C24.2689 66.6992 24.2145 65.8864 24.3233 65.6704C24.4321 65.4544 24.5937 65.2368 24.5937 65.0192C24.5937 64.8016 25.3521 61.6592 25.3521 61.6592L29.1953 63.504Z" fill="#263238" stroke="#263238" stroke-width="0.3" stroke-linecap="round" stroke-linejoin="round"/>
<path d="M27.5696 53.9199L32.0096 66.0495L22.2064 60.4191L17.6816 49.3503L27.5696 53.9199Z" fill="#263238" stroke="#263238" stroke-width="0.3" stroke-linecap="round" stroke-linejoin="round"/>
<path d="M41.8112 43.5759L27.5696 53.9199L17.6816 49.3503L30.0064 40.3823L41.8112 43.5759Z" fill="#FFFFDF" stroke="#263238" stroke-width="0.3" stroke-linecap="round" stroke-linejoin="round"/>
<path d="M41.8109 43.5759L45.9261 55.7055L32.0093 66.0495L27.5693 53.9199L41.8109 43.5759Z" fill="#FFFFE9" stroke="#263238" stroke-width="0.3" stroke-linecap="round" stroke-linejoin="round"/>
<path d="M36.227 42.1151L22.8958 51.7439L23.8942 54.9663L22.0814 53.8783L20.9214 50.8511L33.827 41.4095L36.227 42.1151Z" fill="#56AA7A" stroke="#263238" stroke-width="0.3" stroke-linecap="round" stroke-linejoin="round"/>
<path d="M36.227 42.1151L22.8958 51.7439L23.8942 54.9663L22.0814 53.8783L20.9214 50.8511L33.827 41.4095L36.227 42.1151Z" fill="#56AA7A" stroke="#263238" stroke-width="0.3" stroke-linecap="round" stroke-linejoin="round"/>
<path opacity="0.4" d="M36.227 42.1151L22.8958 51.7439L23.8942 54.9663L22.0814 53.8783L20.9214 50.8511L33.827 41.4095L36.227 42.1151Z" fill="white" stroke="#263238" stroke-width="0.3" stroke-linecap="round" stroke-linejoin="round"/>
<path d="M21.5024 51.0928L21.2192 50.96" stroke="#263238" stroke-width="0.3" stroke-linecap="round" stroke-linejoin="round"/>
<path d="M22.6528 51.6368L21.7104 51.192" stroke="#263238" stroke-width="0.3" stroke-linecap="round" stroke-linejoin="round"/>
<path d="M39.9216 48.4096L41.5261 49.5467L41.8515 47.264L41.3502 47.5624L40.6955 45.8125L39.765 46.363L40.4212 48.1129L39.9216 48.4096Z" fill="#263238"/>
<path d="M30.4596 55.9058L32.0657 57.0429L32.3896 54.7603L31.8899 55.057L31.2336 53.3071L30.3047 53.8592L30.9593 55.6091L30.4596 55.9058Z" fill="#263238"/>
<path d="M45.7744 50.0959L45.9632 50.6383" stroke="#263238" stroke-width="0.3" stroke-linecap="round" stroke-linejoin="round"/>
<path d="M43.6592 44.0256L45.6256 49.6736" stroke="#263238" stroke-width="0.3" stroke-linecap="round" stroke-linejoin="round"/>
<path d="M46.3613 49.4656L47.0029 51.3072" stroke="#263238" stroke-width="0.3" stroke-linecap="round" stroke-linejoin="round"/>
<path d="M44.6992 44.6943L46.2016 49.0095" stroke="#263238" stroke-width="0.3" stroke-linecap="round" stroke-linejoin="round"/>
<path d="M36.2029 40.832L31.5469 39.568" stroke="#263238" stroke-width="0.3" stroke-linecap="round" stroke-linejoin="round"/>
<path d="M37.5665 41.2015L36.6929 40.9647" stroke="#263238" stroke-width="0.3" stroke-linecap="round" stroke-linejoin="round"/>
<path d="M34.5934 39.9392L31.1758 39.048" stroke="#263238" stroke-width="0.3" stroke-linecap="round" stroke-linejoin="round"/>
<path d="M33.2157 66.2208L32.6621 66.6144" stroke="#263238" stroke-width="0.3" stroke-linecap="round" stroke-linejoin="round"/>
<path d="M35.4865 64.6079L33.5361 65.9935" stroke="#263238" stroke-width="0.3" stroke-linecap="round" stroke-linejoin="round"/>
<path d="M36.1534 65.0543L34.8174 66.0191" stroke="#263238" stroke-width="0.3" stroke-linecap="round" stroke-linejoin="round"/>
<path d="M33.0509 48.7232C33.2259 48.6864 33.4027 48.6586 33.5805 48.64C33.855 48.6844 34.1352 48.679 34.4077 48.624C34.7709 48.5248 34.9373 48.624 34.8365 48.856C34.7729 48.9766 34.6839 49.082 34.5756 49.1649C34.4673 49.2477 34.3424 49.3061 34.2093 49.336C34.0109 49.352 33.5693 49.352 33.5693 49.352L32.9741 48.8224L33.0509 48.7232Z" fill="white" stroke="#263238" stroke-width="0.3" stroke-linecap="round" stroke-linejoin="round"/>
<path d="M22.0288 36.8127C22.0288 36.8127 23.008 37.7455 23.096 38.7231C23.184 39.7007 22.56 45.3039 22.56 45.3039C22.56 45.3039 24.56 46.2815 26.072 47.1711C27.584 48.0607 30.1184 49.1279 30.1184 49.1279C30.1184 49.1279 33.0512 48.5935 33.2736 48.6831C33.496 48.7727 34.6976 50.0607 34.7408 50.2383C34.784 50.4159 34.5184 51.4383 34.5184 51.6175C34.5184 51.7967 34.288 51.7999 34.288 51.7999H34.1184L33.9968 52.0431C33.9662 52.1042 33.921 52.1568 33.8652 52.1961C33.8093 52.2355 33.7446 52.2604 33.6768 52.2687L33.4992 52.2879C33.4992 52.2879 33.1888 52.6447 32.9216 52.4223C32.6544 52.1999 32.0768 51.2207 32.0768 51.2207C32.0768 51.2207 30.6992 51.0879 30.3424 50.9551C30.0494 50.8297 29.7669 50.6809 29.4976 50.5103C29.4976 50.5103 21.28 48.4159 20.48 48.1935C19.68 47.9711 19.368 47.7487 19.0576 47.1263C18.7472 46.5039 18.04 40.3263 18.04 39.7935" fill="white"/>
<path d="M22.0288 36.8127C22.0288 36.8127 23.008 37.7455 23.096 38.7231C23.184 39.7007 22.56 45.3039 22.56 45.3039C22.56 45.3039 24.56 46.2815 26.072 47.1711C27.584 48.0607 30.1184 49.1279 30.1184 49.1279C30.1184 49.1279 33.0512 48.5935 33.2736 48.6831C33.496 48.7727 34.6976 50.0607 34.7408 50.2383C34.784 50.4159 34.5184 51.4383 34.5184 51.6175C34.5184 51.7967 34.288 51.7999 34.288 51.7999H34.1184L33.9968 52.0431C33.9662 52.1042 33.921 52.1568 33.8652 52.1961C33.8093 52.2355 33.7446 52.2604 33.6768 52.2687L33.4992 52.2879C33.4992 52.2879 33.1888 52.6447 32.9216 52.4223C32.6544 52.1999 32.0768 51.2207 32.0768 51.2207C32.0768 51.2207 30.6992 51.0879 30.3424 50.9551C30.0494 50.8297 29.7669 50.6809 29.4976 50.5103C29.4976 50.5103 21.28 48.4159 20.48 48.1935C19.68 47.9711 19.368 47.7487 19.0576 47.1263C18.7472 46.5039 18.04 40.3263 18.04 39.7935" stroke="#263238" stroke-width="0.3" stroke-linecap="round" stroke-linejoin="round"/>
<path d="M32.0317 50.24C32.0317 50.24 32.9661 51.04 32.9661 51.352C32.9661 51.664 33.3981 52.3472 33.3981 52.3472" stroke="#263238" stroke-width="0.3" stroke-linecap="round" stroke-linejoin="round"/>
<path d="M32.5889 49.6655C32.5889 49.6655 33.2177 50.3599 33.3489 50.5759C33.4801 50.7919 33.6689 52.2639 33.6689 52.2639" stroke="#263238" stroke-width="0.3" stroke-linecap="round" stroke-linejoin="round"/>
<path d="M33.1006 49.2528C33.1006 49.2528 33.9006 49.9968 33.9118 50.2784C33.923 50.56 34.1214 51.7952 34.1214 51.7952" stroke="#263238" stroke-width="0.3" stroke-linecap="round" stroke-linejoin="round"/>
<path d="M21.9824 36.736C21.9824 36.736 23.008 37.7456 23.1024 38.7232C23.1648 39.4112 22.8768 42.3808 22.6992 44.0864C21.808 43.7584 20.1152 43.4064 18.5984 44.6384C18.3376 42.7664 18.0832 40.4368 18.04 39.7936" fill="#56AA7A"/>
<path d="M21.9824 36.736C21.9824 36.736 23.008 37.7456 23.1024 38.7232C23.1648 39.4112 22.8768 42.3808 22.6992 44.0864C21.808 43.7584 20.1152 43.4064 18.5984 44.6384C18.3376 42.7664 18.0832 40.4368 18.04 39.7936" stroke="#263238" stroke-width="0.3" stroke-linecap="round" stroke-linejoin="round"/>
<path d="M22.5601 45.304C22.5601 45.304 21.5377 44.992 21.1377 45.0816" stroke="#263238" stroke-width="0.3" stroke-linecap="round" stroke-linejoin="round"/>
<path d="M19.5055 73.5088C19.5055 73.5088 20.7519 74.9168 21.6719 75.6752C22.5919 76.4336 22.2127 77.1376 21.5631 77.2992C20.9135 77.4608 19.6143 77.192 18.4223 76.8192C17.2303 76.4464 16.2575 75.1952 16.2575 75.1952C16.2575 75.1952 14.9023 74.328 14.7951 74.0032C14.6879 73.6784 15.9311 72.16 15.9311 72.16C15.9311 72.16 19.1807 73.5088 19.5055 73.5088Z" fill="#56AA7A" stroke="#263238" stroke-width="0.3" stroke-linecap="round" stroke-linejoin="round"/>
<path d="M14.795 73.9968C14.7566 73.8848 14.8814 73.6288 15.0622 73.3424C15.7806 73.9616 17.067 75.728 18.043 76.2224C18.8702 76.6352 20.7038 77.0816 21.9918 77.0816C21.8695 77.19 21.7221 77.2664 21.563 77.304C20.9134 77.464 19.6142 77.1968 18.4222 76.824C17.2302 76.4512 16.2574 75.2 16.2574 75.2C16.2574 75.2 14.9022 74.3216 14.795 73.9968Z" fill="white" stroke="#263238" stroke-width="0.3" stroke-linecap="round" stroke-linejoin="round"/>
<path d="M12.7871 50.4544C12.7871 50.4544 14.8447 49.5872 16.3615 50.1824C17.8783 50.7776 20.5855 53.2224 21.7215 54.9488C22.8575 56.6752 23.8399 57.44 23.7791 59.064C23.7183 60.688 21.1807 67.944 21.0719 68.5936C20.9631 69.2432 20.2719 71.9392 20.2719 71.9392C20.3097 72.2811 20.3097 72.6261 20.2719 72.968C20.2223 73.3808 20.0895 74.088 20.0895 74.088C20.0895 74.088 18.2687 73.992 17.2399 73.504C16.6755 73.2499 16.1472 72.9223 15.6687 72.5296C15.7388 72.1239 15.8459 71.7254 15.9887 71.3392C16.2063 70.7968 16.9055 69.8352 17.0143 69.5088C17.1231 69.1824 17.3935 65.8816 17.3935 64.528C17.3935 63.1744 17.9887 59.816 17.9887 59.6C18.0359 59.2881 18.1081 58.9804 18.2047 58.68C18.2047 58.68 13.6031 56.4048 12.3567 55.32C11.1103 54.2352 10.5807 53.2208 10.4575 52.2512C10.3695 51.5488 10.6607 50.544 10.6607 50.544" fill="white"/>
<path d="M12.7871 50.4544C12.7871 50.4544 14.8447 49.5872 16.3615 50.1824C17.8783 50.7776 20.5855 53.2224 21.7215 54.9488C22.8575 56.6752 23.8399 57.44 23.7791 59.064C23.7183 60.688 21.1807 67.944 21.0719 68.5936C20.9631 69.2432 20.2719 71.9392 20.2719 71.9392C20.3097 72.2811 20.3097 72.6261 20.2719 72.968C20.2223 73.3808 20.0895 74.088 20.0895 74.088C20.0895 74.088 18.2687 73.992 17.2399 73.504C16.6755 73.2499 16.1472 72.9223 15.6687 72.5296C15.7388 72.1239 15.8459 71.7254 15.9887 71.3392C16.2063 70.7968 16.9055 69.8352 17.0143 69.5088C17.1231 69.1824 17.3935 65.8816 17.3935 64.528C17.3935 63.1744 17.9887 59.816 17.9887 59.6C18.0359 59.2881 18.1081 58.9804 18.2047 58.68C18.2047 58.68 13.6031 56.4048 12.3567 55.32C11.1103 54.2352 10.5807 53.2208 10.4575 52.2512C10.3695 51.5488 10.6607 50.544 10.6607 50.544" stroke="#263238" stroke-width="0.3" stroke-linecap="round" stroke-linejoin="round"/>
<path d="M12.2993 48.5583C12.2993 48.5583 11.5953 49.3168 11.7041 49.6416C11.8129 49.9664 12.2993 50.56 12.0833 50.56C11.8673 50.56 11.5425 51.0479 11.5425 51.0479L12.0225 51.1552L11.8065 52.4016L18.3105 57.6C18.6139 57.847 18.9402 58.0645 19.2849 58.2496L18.9057 58.8992L19.6097 59.0079C19.6097 59.0079 18.5809 60.0368 18.4737 60.9024C18.3665 61.768 17.4481 70.8544 17.3393 71.1248C17.2305 71.3952 17.0689 71.5583 17.0193 71.8287C16.9918 72.1172 16.9918 72.4075 17.0193 72.696C17.0193 72.856 16.9649 73.2368 16.9649 73.2368" stroke="#263238" stroke-width="0.3" stroke-linecap="round" stroke-linejoin="round"/>
<path d="M31.4828 58.7577L31.2553 58.879L30.9132 58.2372L31.1426 58.1149C31.2071 58.0805 31.2695 58.0637 31.3298 58.0646C31.39 58.0652 31.4454 58.0828 31.4959 58.1173C31.5467 58.1516 31.5899 58.2021 31.6254 58.2688C31.661 58.3356 31.679 58.3998 31.6794 58.4613C31.6799 58.5227 31.6635 58.5788 31.6302 58.6296C31.5971 58.6802 31.548 58.7229 31.4828 58.7577ZM31.329 58.6904L31.4152 58.6444C31.4553 58.623 31.4853 58.598 31.5051 58.5692C31.5249 58.54 31.5338 58.5068 31.5315 58.4693C31.5294 58.4316 31.5155 58.3888 31.49 58.3409C31.4647 58.2935 31.4371 58.2585 31.4071 58.2359C31.3772 58.2131 31.3448 58.202 31.3099 58.2024C31.275 58.2027 31.2374 58.2136 31.1973 58.235L31.1108 58.2811L31.329 58.6904ZM32.316 57.9014C32.3533 57.9714 32.3718 58.038 32.3714 58.1012C32.3713 58.1644 32.3553 58.221 32.3236 58.2712C32.292 58.3211 32.2478 58.3611 32.1912 58.3913C32.1342 58.4217 32.0761 58.436 32.017 58.4343C31.9578 58.4325 31.902 58.4141 31.8495 58.3791C31.797 58.344 31.7522 58.2916 31.715 58.2218C31.6777 58.1518 31.6591 58.0853 31.6592 58.0222C31.6594 57.959 31.6753 57.9025 31.7069 57.8527C31.7384 57.8026 31.7827 57.7624 31.8397 57.732C31.8963 57.7018 31.9542 57.6875 32.0134 57.6893C32.0726 57.6907 32.1285 57.7089 32.181 57.744C32.2337 57.7789 32.2787 57.8314 32.316 57.9014ZM32.1784 57.9747C32.1543 57.9294 32.1271 57.8948 32.0969 57.8709C32.0669 57.8469 32.0355 57.8334 32.0024 57.8303C31.9694 57.8273 31.9365 57.8345 31.9037 57.852C31.8709 57.8695 31.8466 57.8928 31.8307 57.9219C31.8148 57.951 31.8084 57.9847 31.8114 58.0231C31.8147 58.0614 31.8284 58.1031 31.8525 58.1485C31.8767 58.1938 31.9038 58.2285 31.9337 58.2525C31.9639 58.2764 31.9955 58.2898 32.0285 58.2929C32.0615 58.2959 32.0944 58.2887 32.1272 58.2712C32.16 58.2538 32.1844 58.2305 32.2002 58.2013C32.2161 58.1722 32.2224 58.1385 32.2192 58.1003C32.2162 58.0619 32.2026 58.0201 32.1784 57.9747ZM32.7079 58.1045L32.1821 57.5607L32.3303 57.4816L32.6743 57.8709L32.6796 57.8681L32.5591 57.3597L32.686 57.292L33.0411 57.6766L33.0468 57.6736L32.9148 57.1701L33.063 57.091L33.2215 57.8307L33.0893 57.9012L32.7434 57.5468L32.7383 57.5495L32.8401 58.034L32.7079 58.1045ZM33.6724 56.7661L34.0145 57.4079L33.8973 57.4704L33.4028 57.2153L33.3981 57.2178L33.6134 57.6218L33.4778 57.6941L33.1356 57.0523L33.2547 56.9888L33.7469 57.2448L33.7525 57.2418L33.5373 56.8382L33.6724 56.7661Z" fill="#263238"/>
<path d="M65.9739 49.96H65.716V49.2327H65.976C66.0491 49.2327 66.1121 49.2472 66.1649 49.2764C66.2177 49.3052 66.2583 49.3468 66.2867 49.401C66.3154 49.4552 66.3297 49.5201 66.3297 49.5956C66.3297 49.6714 66.3154 49.7365 66.2867 49.7909C66.2583 49.8454 66.2175 49.8872 66.1642 49.9163C66.1112 49.9454 66.0477 49.96 65.9739 49.96ZM65.8698 49.8282H65.9675C66.0129 49.8282 66.0512 49.8202 66.0822 49.8041C66.1134 49.7877 66.1369 49.7625 66.1525 49.7284C66.1683 49.6941 66.1763 49.6498 66.1763 49.5956C66.1763 49.5419 66.1683 49.498 66.1525 49.4639C66.1369 49.4298 66.1135 49.4047 66.0825 49.3886C66.0515 49.3725 66.0133 49.3644 65.9678 49.3644H65.8698V49.8282ZM67.1119 49.5963C67.1119 49.6756 67.0969 49.7431 67.0668 49.7987C67.037 49.8544 66.9963 49.8969 66.9446 49.9262C66.8933 49.9553 66.8355 49.9699 66.7714 49.9699C66.7067 49.9699 66.6487 49.9552 66.5973 49.9259C66.546 49.8965 66.5054 49.854 66.4755 49.7984C66.4457 49.7427 66.4308 49.6754 66.4308 49.5963C66.4308 49.517 66.4457 49.4495 66.4755 49.3939C66.5054 49.3383 66.546 49.2959 66.5973 49.2668C66.6487 49.2374 66.7067 49.2227 66.7714 49.2227C66.8355 49.2227 66.8933 49.2374 66.9446 49.2668C66.9963 49.2959 67.037 49.3383 67.0668 49.3939C67.0969 49.4495 67.1119 49.517 67.1119 49.5963ZM66.956 49.5963C66.956 49.545 66.9483 49.5016 66.9329 49.4664C66.9178 49.4311 66.8964 49.4043 66.8687 49.3861C66.841 49.3679 66.8085 49.3588 66.7714 49.3588C66.7342 49.3588 66.7017 49.3679 66.6741 49.3861C66.6464 49.4043 66.6248 49.4311 66.6094 49.4664C66.5943 49.5016 66.5867 49.545 66.5867 49.5963C66.5867 49.6477 66.5943 49.691 66.6094 49.7263C66.6248 49.7616 66.6464 49.7883 66.6741 49.8066C66.7017 49.8248 66.7342 49.8339 66.7714 49.8339C66.8085 49.8339 66.841 49.8248 66.8687 49.8066C66.8964 49.7883 66.9178 49.7616 66.9329 49.7263C66.9483 49.691 66.956 49.6477 66.956 49.5963ZM67.3622 49.96L67.1541 49.2327H67.322L67.4424 49.738H67.4485L67.5813 49.2327H67.7251L67.8576 49.7391H67.8639L67.9843 49.2327H68.1523L67.9442 49.96H67.7943L67.6559 49.4845H67.6502L67.512 49.96H67.3622ZM68.8429 49.2327V49.96H68.7101L68.3937 49.5022H68.3884V49.96H68.2346V49.2327H68.3695L68.6835 49.6901H68.6899V49.2327H68.8429Z" fill="#263238"/>
<path d="M53.8142 62.92H53.5564V62.1928H53.8163C53.8895 62.1928 53.9524 62.2073 54.0052 62.2365C54.058 62.2653 54.0986 62.3069 54.127 62.3611C54.1557 62.4153 54.17 62.4802 54.17 62.5557C54.17 62.6315 54.1557 62.6966 54.127 62.751C54.0986 62.8055 54.0578 62.8472 54.0045 62.8764C53.9515 62.9055 53.8881 62.92 53.8142 62.92ZM53.7101 62.7883H53.8078C53.8532 62.7883 53.8915 62.7802 53.9225 62.7641C53.9537 62.7478 53.9772 62.7226 53.9928 62.6885C54.0087 62.6542 54.0166 62.6099 54.0166 62.5557C54.0166 62.502 54.0087 62.458 53.9928 62.424C53.9772 62.3899 53.9539 62.3648 53.9229 62.3487C53.8918 62.3326 53.8536 62.3245 53.8081 62.3245H53.7101V62.7883ZM54.9522 62.5564C54.9522 62.6357 54.9372 62.7032 54.9071 62.7588C54.8773 62.8145 54.8366 62.857 54.785 62.8863C54.7336 62.9154 54.6758 62.93 54.6117 62.93C54.5471 62.93 54.4891 62.9153 54.4377 62.886C54.3863 62.8566 54.3457 62.8141 54.3159 62.7585C54.286 62.7028 54.2711 62.6355 54.2711 62.5564C54.2711 62.4771 54.286 62.4096 54.3159 62.354C54.3457 62.2984 54.3863 62.256 54.4377 62.2269C54.4891 62.1975 54.5471 62.1828 54.6117 62.1828C54.6758 62.1828 54.7336 62.1975 54.785 62.2269C54.8366 62.256 54.8773 62.2984 54.9071 62.354C54.9372 62.4096 54.9522 62.4771 54.9522 62.5564ZM54.7963 62.5564C54.7963 62.505 54.7886 62.4617 54.7733 62.4264C54.7581 62.3912 54.7367 62.3644 54.709 62.3462C54.6813 62.328 54.6489 62.3188 54.6117 62.3188C54.5745 62.3188 54.5421 62.328 54.5144 62.3462C54.4867 62.3644 54.4651 62.3912 54.4498 62.4264C54.4346 62.4617 54.427 62.505 54.427 62.5564C54.427 62.6078 54.4346 62.6511 54.4498 62.6864C54.4651 62.7217 54.4867 62.7484 54.5144 62.7666C54.5421 62.7849 54.5745 62.794 54.6117 62.794C54.6489 62.794 54.6813 62.7849 54.709 62.7666C54.7367 62.7484 54.7581 62.7217 54.7733 62.6864C54.7886 62.6511 54.7963 62.6078 54.7963 62.5564ZM55.2025 62.92L54.9944 62.1928H55.1624L55.2828 62.6981H55.2888L55.4216 62.1928H55.5654L55.6979 62.6992H55.7043L55.8247 62.1928H55.9926L55.7845 62.92H55.6347L55.4962 62.4445H55.4905L55.3524 62.92H55.2025ZM56.6832 62.1928V62.92H56.5504L56.234 62.4623H56.2287V62.92H56.0749V62.1928H56.2099L56.5238 62.6502H56.5302V62.1928H56.6832Z" fill="#263238"/>
<path d="M41.0829 51.3977L40.8554 51.519L40.5133 50.8772L40.7426 50.7549C40.8072 50.7205 40.8696 50.7037 40.9299 50.7046C40.9901 50.7052 41.0455 50.7228 41.096 50.7573C41.1468 50.7916 41.19 50.8421 41.2255 50.9088C41.2611 50.9756 41.2791 51.0398 41.2795 51.1013C41.28 51.1628 41.2636 51.2188 41.2303 51.2696C41.1972 51.3202 41.1481 51.3629 41.0829 51.3977ZM40.9291 51.3304L41.0153 51.2844C41.0554 51.2631 41.0854 51.238 41.1052 51.2092C41.125 51.1801 41.1339 51.1468 41.1316 51.1093C41.1295 51.0716 41.1156 51.0288 41.0901 50.981C41.0648 50.9335 41.0372 50.8985 41.0071 50.8759C40.9773 50.8532 40.9449 50.842 40.91 50.8424C40.8751 50.8428 40.8375 50.8536 40.7974 50.875L40.7109 50.9211L40.9291 51.3304ZM41.9161 50.5414C41.9534 50.6114 41.9719 50.678 41.9715 50.7412C41.9714 50.8044 41.9554 50.861 41.9237 50.9112C41.8921 50.9611 41.8479 51.0011 41.7913 51.0313C41.7343 51.0617 41.6762 51.076 41.6171 51.0743C41.5579 51.0725 41.5021 51.0541 41.4496 51.0191C41.3971 50.984 41.3523 50.9316 41.3151 50.8618C41.2777 50.7919 41.2592 50.7253 41.2593 50.6622C41.2595 50.599 41.2754 50.5425 41.307 50.4927C41.3385 50.4426 41.3828 50.4024 41.4398 50.372C41.4964 50.3418 41.5543 50.3276 41.6135 50.3293C41.6727 50.3307 41.7286 50.3489 41.7811 50.384C41.8338 50.419 41.8788 50.4714 41.9161 50.5414ZM41.7785 50.6147C41.7544 50.5694 41.7272 50.5348 41.697 50.5109C41.667 50.4869 41.6355 50.4734 41.6025 50.4703C41.5695 50.4673 41.5366 50.4745 41.5038 50.492C41.471 50.5095 41.4467 50.5328 41.4308 50.5619C41.4149 50.591 41.4085 50.6247 41.4115 50.6631C41.4148 50.7014 41.4285 50.7432 41.4526 50.7885C41.4768 50.8338 41.5039 50.8685 41.5338 50.8925C41.564 50.9164 41.5956 50.9299 41.6286 50.9329C41.6616 50.936 41.6945 50.9287 41.7273 50.9113C41.7601 50.8938 41.7845 50.8705 41.8003 50.8414C41.8162 50.8122 41.8225 50.7786 41.8193 50.7403C41.8163 50.7019 41.8027 50.6601 41.7785 50.6147ZM42.308 50.7445L41.7822 50.2007L41.9304 50.1217L42.2744 50.5109L42.2797 50.5081L42.1592 49.9997L42.2861 49.932L42.6412 50.3166L42.6469 50.3136L42.5149 49.8101L42.6631 49.7311L42.8216 50.4707L42.6894 50.5412L42.3435 50.1868L42.3384 50.1895L42.4402 50.674L42.308 50.7445ZM43.2725 49.4062L43.6146 50.0479L43.4974 50.1104L43.0029 49.8553L42.9982 49.8578L43.2135 50.2618L43.0779 50.3341L42.7357 49.6923L42.8548 49.6289L43.347 49.8848L43.3526 49.8818L43.1374 49.4782L43.2725 49.4062Z" fill="#263238"/>
</svg>
