<svg width="139" height="92" viewBox="0 0 139 92" fill="none" xmlns="http://www.w3.org/2000/svg">
<path d="M123.097 80.96C129.042 71.7029 130.567 60.0208 128.868 49.312C128.544 47.2708 128.067 45.2565 127.441 43.286C123.273 30.1613 112.559 19.653 99.8763 14.1128C87.7796 8.83198 72.4859 6.21918 61.023 14.352C53.4744 19.7064 49.2006 28.2881 42.2895 34.2957C38.8553 37.2802 35.0949 38.2517 31.0083 40.0365C21.0485 44.39 12.7122 52.7822 12.0264 63.848C11.6164 69.836 13.0563 75.8058 16.1538 80.96H123.097Z" fill="#56AA7A"/>
<path opacity="0.8" d="M123.097 80.96C129.042 71.7029 130.567 60.0208 128.868 49.312C128.544 47.2708 128.067 45.2565 127.441 43.286C123.273 30.1613 112.559 19.653 99.8763 14.1128C87.7796 8.83198 72.4859 6.21918 61.023 14.352C53.4744 19.7064 49.2006 28.2881 42.2895 34.2957C38.8553 37.2802 35.0949 38.2517 31.0083 40.0365C21.0485 44.39 12.7122 52.7822 12.0264 63.848C11.6164 69.836 13.0563 75.8058 16.1538 80.96H123.097Z" fill="white"/>
<path d="M75.7752 9.09328C75.7344 8.96816 75.6918 8.84304 75.6473 8.72528C73.9793 4.11424 66.2083 3.79592 66.2083 9.46128C66.2083 10.5524 63.5691 9.46128 62.5794 10.8799C61.5898 12.2986 62.6906 13.1707 61.3711 13.6068C60.0515 14.0429 59.9421 12.9536 58.2927 13.0548C56.6432 13.156 56.8638 14.6924 56.3152 15.1285C55.7666 15.5646 55.7592 15.3456 54.5564 15.456C53.3535 15.5664 53.1274 16.4367 53.1274 16.4367H82.0394C82.0394 16.4367 83.1366 13.167 81.1573 11.96C79.1779 10.753 79.1797 12.3961 77.6359 11.741C76.3682 11.2074 76.131 10.1807 75.7752 9.09328Z" stroke="url(#paint0_linear_257_9113)" stroke-width="0.5" stroke-linecap="round" stroke-linejoin="round"/>
<path d="M76.7745 15.248C76.7745 15.248 77.3732 13.408 75.9035 12.0575C74.4338 10.7069 72.9103 11.4632 72.4748 12.0575C72.0393 12.6518 72.0393 13.7871 71.3313 13.8975C70.6233 14.0079 70.7864 12.7088 69.2611 13.0327C67.7358 13.3565 68.3344 14.8727 67.6283 15.1947C66.9222 15.5167 66.9204 14.3299 65.9418 14.7089C64.9632 15.088 65.0151 15.789 65.0151 15.789" stroke="#BABBB9" stroke-width="0.5" stroke-linecap="round" stroke-linejoin="round"/>
<path d="M68.9552 11.5755C68.5552 11.2935 68.0868 11.1225 67.5981 11.0801C67.1095 11.0377 66.6183 11.1255 66.1752 11.3344C64.598 12.0576 65.3263 13.5608 64.598 13.9215C63.8696 14.2821 63.5082 13.8626 62.5982 14.2895C61.6882 14.7164 61.7494 15.3125 61.7494 15.3125" stroke="#B1B1B1" stroke-width="0.5" stroke-linecap="round" stroke-linejoin="round"/>
<path d="M45.6476 19.5463C45.6291 19.4929 45.6106 19.4377 45.5902 19.3844C44.8637 17.3788 41.485 17.2389 41.485 19.7045C41.485 20.1792 40.336 19.7045 39.906 20.3228C39.476 20.941 39.9542 21.32 39.3797 21.5096C38.8051 21.6991 38.7588 21.2244 38.0415 21.2722C37.3243 21.32 37.4188 21.9843 37.1797 22.1738C36.9407 22.3633 36.9407 22.2695 36.4143 22.3155C36.2789 22.3143 36.1464 22.355 36.0352 22.4318C35.924 22.5086 35.8395 22.6177 35.7935 22.7442H48.372C48.372 22.7442 48.8502 21.32 47.9902 20.7975C47.1303 20.2749 47.1303 20.9815 46.4594 20.7018C45.9052 20.4663 45.8015 20.0192 45.6476 19.5463Z" stroke="white" stroke-width="0.5" stroke-linecap="round" stroke-linejoin="round"/>
<path d="M46.0815 22.2235C46.1524 21.9806 46.1554 21.7232 46.0901 21.4788C46.0248 21.2344 45.8937 21.0122 45.7109 20.8361C45.0715 20.2492 44.4135 20.5785 44.2282 20.8361C44.0429 21.0937 44.0429 21.5887 43.7297 21.6365C43.4164 21.6844 43.4924 21.1195 42.8308 21.2685C42.1692 21.4176 42.4268 22.0689 42.1191 22.2106C41.8115 22.3523 41.8115 21.8426 41.3778 21.999C40.9441 22.1554 40.9756 22.4682 40.9756 22.4682" stroke="white" stroke-width="0.5" stroke-linecap="round" stroke-linejoin="round"/>
<path d="M42.6804 20.6264C42.5058 20.503 42.3012 20.4282 42.0878 20.4098C41.8743 20.3913 41.6598 20.4299 41.4664 20.5215C40.7807 20.8362 41.0958 21.4912 40.7807 21.6476C40.4656 21.804 40.3062 21.6218 39.9115 21.804C39.5167 21.9862 39.5408 22.2493 39.5408 22.2493" stroke="white" stroke-width="0.5" stroke-linecap="round" stroke-linejoin="round"/>
<path d="M91.677 26.312C91.6603 26.2586 91.6418 26.2034 91.6214 26.1501C90.8949 24.1426 87.5144 24.0046 87.5144 26.4702C87.5144 26.945 86.3672 26.4702 85.9373 27.0866C85.5073 27.703 85.9854 28.0839 85.4109 28.2753C84.8364 28.4666 84.79 27.9901 84.0709 28.0379C83.3519 28.0858 83.4501 28.75 83.211 28.9395C82.9719 29.129 82.9719 29.0334 82.4456 29.0812C82.3102 29.0794 82.1776 29.1195 82.0664 29.196C81.9551 29.2726 81.8706 29.3816 81.8247 29.5081H94.4014C94.4014 29.5081 94.8796 28.0839 94.0196 27.5614C93.1597 27.0388 93.1578 27.7454 92.4888 27.4675C91.9365 27.232 91.8327 26.7812 91.677 26.312Z" stroke="#B1B1B1" stroke-width="0.5" stroke-linecap="round" stroke-linejoin="round"/>
<path d="M92.1108 28.9856C92.1809 28.7429 92.1834 28.486 92.1181 28.242C92.0529 27.998 91.9222 27.7762 91.7401 27.6001C91.1007 27.0131 90.4428 27.3425 90.2574 27.6001C90.0721 27.8577 90.0721 28.3526 89.7607 28.4005C89.4494 28.4483 89.5235 27.8816 88.86 28.0233C88.1965 28.1649 88.4578 28.8237 88.1502 28.9635C87.8425 29.1033 87.8425 28.5955 87.4088 28.7519C86.9752 28.9083 87.0048 29.2229 87.0048 29.2229" stroke="#B1B1B1" stroke-width="0.5" stroke-linecap="round" stroke-linejoin="round"/>
<path d="M88.7097 27.3883C88.5356 27.2647 88.3313 27.1898 88.1181 27.1714C87.9049 27.1529 87.6906 27.1916 87.4976 27.2835C86.8119 27.5981 87.127 28.2513 86.8119 28.4095C86.4968 28.5678 86.3375 28.3838 85.9408 28.5659C85.5442 28.7481 85.5702 29.0112 85.5702 29.0112" stroke="#B1B1B1" stroke-width="0.5" stroke-linecap="round" stroke-linejoin="round"/>
<path d="M15.9682 79.7861C22.2846 79.7861 27.4051 74.4306 27.4051 67.8243C27.4051 61.2179 22.2846 55.8624 15.9682 55.8624C9.65173 55.8624 4.53125 61.2179 4.53125 67.8243C4.53125 74.4306 9.65173 79.7861 15.9682 79.7861Z" fill="#56AA7A"/>
<path opacity="0.4" d="M15.9682 79.7861C22.2846 79.7861 27.4051 74.4306 27.4051 67.8243C27.4051 61.2179 22.2846 55.8624 15.9682 55.8624C9.65173 55.8624 4.53125 61.2179 4.53125 67.8243C4.53125 74.4306 9.65173 79.7861 15.9682 79.7861Z" fill="white"/>
<path d="M17.3934 74.3268L15.768 76.0766L15.705 72.2035L17.0468 70.3929L15.6901 71.2798L15.629 67.6421H15.4529L15.4288 69.3367L14.3854 68.7019L15.4177 70.2236L15.3621 74.3176L13.3179 73.3995L15.3139 75.2689L14.984 81.0557H15.97L15.8032 77.0555L17.3934 74.3268Z" fill="#263238"/>
<path d="M101.237 48.4104C101.237 48.4104 111.002 49.369 115.952 55.3785C115.952 55.3785 121.18 48.4159 130.573 48.5594C132.868 45.8106 134.329 42.4712 134.786 38.93C135.243 35.3888 134.678 31.7915 133.156 28.5568C131.634 25.3222 129.218 22.5834 126.188 20.6593C123.159 18.7352 119.642 17.7049 116.046 17.6884C112.45 17.672 108.923 18.67 105.876 20.5663C102.829 22.4626 100.388 25.1792 98.8356 28.3997C97.2835 31.6203 96.6848 35.2123 97.1092 38.7575C97.5336 42.3028 98.9636 45.6554 101.233 48.4251L101.237 48.4104Z" fill="#56AA7A"/>
<path opacity="0.4" d="M101.237 48.4104C101.237 48.4104 111.002 49.369 115.952 55.3785C115.952 55.3785 121.18 48.4159 130.573 48.5594C132.868 45.8106 134.329 42.4712 134.786 38.93C135.243 35.3888 134.678 31.7915 133.156 28.5568C131.634 25.3222 129.218 22.5834 126.188 20.6593C123.159 18.7352 119.642 17.7049 116.046 17.6884C112.45 17.672 108.923 18.67 105.876 20.5663C102.829 22.4626 100.388 25.1792 98.8356 28.3997C97.2835 31.6203 96.6848 35.2123 97.1092 38.7575C97.5336 42.3028 98.9636 45.6554 101.233 48.4251L101.237 48.4104Z" fill="white"/>
<path d="M106.728 41.6005C111.606 43.1351 114.634 47.6357 115.426 48.9348L115.353 80.96H116.76L116.549 52.8632C117.612 51.2642 120.656 47.2732 125.356 45.8491C125.356 45.8491 119.773 47.1628 116.513 51.5788L116.328 44.8518C117.131 43.5748 120.274 39.0429 125.352 37.5028C125.352 37.5028 119.514 38.8755 116.291 43.5362L116.106 36.7576L116.119 36.8478C116.119 36.8478 119.416 30.9598 125.35 29.1566C125.35 29.1566 119.234 30.5955 116.072 35.5212L115.624 26.3966L115.485 39.4753C112.38 34.7907 106.724 33.4033 106.724 33.4033C111.728 34.9747 114.779 39.6593 115.476 40.8296L115.431 47.5713C112.312 42.9658 106.728 41.6005 106.728 41.6005Z" fill="#263238"/>
<path d="M106.728 41.6005C111.606 43.1351 114.634 47.6357 115.426 48.9348L115.353 80.96H116.76L116.549 52.8632C117.612 51.2642 120.656 47.2732 125.356 45.8491C125.356 45.8491 119.773 47.1628 116.513 51.5788L116.328 44.8518C117.131 43.5748 120.274 39.0429 125.352 37.5028C125.352 37.5028 119.514 38.8755 116.291 43.5362L116.106 36.7576L116.119 36.8478C116.119 36.8478 119.416 30.9598 125.35 29.1566C125.35 29.1566 119.234 30.5955 116.072 35.5212L115.624 26.3966L115.485 39.4753C112.38 34.7907 106.724 33.4033 106.724 33.4033C111.728 34.9747 114.779 39.6593 115.476 40.8296L115.431 47.5713C112.312 42.9658 106.728 41.6005 106.728 41.6005Z" fill="#263238"/>
<path d="M122.853 79.7861C129.17 79.7861 134.29 74.4306 134.29 67.8243C134.29 61.2179 129.17 55.8624 122.853 55.8624C116.537 55.8624 111.417 61.2179 111.417 67.8243C111.417 74.4306 116.537 79.7861 122.853 79.7861Z" fill="#56AA7A"/>
<path opacity="0.4" d="M122.853 79.7861C129.17 79.7861 134.29 74.4306 134.29 67.8243C134.29 61.2179 129.17 55.8624 122.853 55.8624C116.537 55.8624 111.417 61.2179 111.417 67.8243C111.417 74.4306 116.537 79.7861 122.853 79.7861Z" fill="white"/>
<path d="M124.279 74.3268L122.653 76.0766L122.588 72.2035L123.93 70.3929L122.574 71.2798L122.514 67.6421H122.336L122.314 69.3367L121.269 68.7019L122.301 70.2236L122.247 74.3176L120.203 73.3995L122.199 75.2689L121.869 81.0557H122.853L122.688 77.0555L124.279 74.3268Z" fill="#263238"/>
<path d="M110.123 45.4149H23.4297V80.9674H110.123V45.4149Z" fill="#263238" stroke="#263238" stroke-width="0.5" stroke-linecap="round" stroke-linejoin="round"/>
<path d="M54.0709 61.307L47.7529 67.5796" stroke="white" stroke-width="0.5" stroke-linecap="round" stroke-linejoin="round"/>
<path d="M48.8055 67.7966L46.9336 69.655" stroke="white" stroke-width="0.5" stroke-linecap="round" stroke-linejoin="round"/>
<path d="M49.5248 67.0828L49.1875 67.4176" stroke="white" stroke-width="0.5" stroke-linecap="round" stroke-linejoin="round"/>
<path d="M67.7835 64.4791L64.6606 67.5795" stroke="white" stroke-width="0.5" stroke-linecap="round" stroke-linejoin="round"/>
<path d="M70.9807 61.307L68.2285 64.0376" stroke="white" stroke-width="0.5" stroke-linecap="round" stroke-linejoin="round"/>
<path d="M66.4347 67.0828L63.8438 69.6551" stroke="white" stroke-width="0.5" stroke-linecap="round" stroke-linejoin="round"/>
<path d="M81.6077 62.308L76.2979 67.5796" stroke="white" stroke-width="0.5" stroke-linecap="round" stroke-linejoin="round"/>
<path d="M82.6161 61.307L82.3066 61.6143" stroke="white" stroke-width="0.5" stroke-linecap="round" stroke-linejoin="round"/>
<path d="M78.0714 67.0828L75.4805 69.6551" stroke="white" stroke-width="0.5" stroke-linecap="round" stroke-linejoin="round"/>
<path d="M39.5241 61.307L33.2061 67.5796" stroke="white" stroke-width="0.5" stroke-linecap="round" stroke-linejoin="round"/>
<path d="M34.9796 67.0828L32.3887 69.6551" stroke="white" stroke-width="0.5" stroke-linecap="round" stroke-linejoin="round"/>
<path d="M85.8427 45.4149H84.9976V80.9674H85.8427V45.4149Z" fill="white" stroke="#263238" stroke-width="0.5" stroke-linecap="round" stroke-linejoin="round"/>
<path d="M74.1815 45.4149H73.3364V80.9674H74.1815V45.4149Z" fill="white" stroke="#263238" stroke-width="0.5" stroke-linecap="round" stroke-linejoin="round"/>
<path d="M42.5448 45.4149H41.6997V80.9674H42.5448V45.4149Z" fill="white" stroke="#263238" stroke-width="0.5" stroke-linecap="round" stroke-linejoin="round"/>
<path d="M86.4766 73.933V73.094H27.3793V73.933H86.4766Z" fill="white" stroke="#263238" stroke-width="0.5" stroke-linecap="round" stroke-linejoin="round"/>
<path d="M28.8229 45.4149H23.4297V80.9674H28.8229V45.4149Z" fill="white" stroke="#263238" stroke-width="0.5" stroke-linecap="round" stroke-linejoin="round"/>
<path opacity="0.55" d="M25.4237 57.3602H23.8169V58.2177H25.4237V57.3602Z" fill="black"/>
<path opacity="0.55" d="M26.4486 58.5378H24.8418V59.3953H26.4486V58.5378Z" fill="black"/>
<path opacity="0.22" d="M28.3783 58.5378H26.7715V59.3953H28.3783V58.5378Z" fill="black"/>
<path opacity="0.55" d="M27.4179 57.3602H25.811V58.2177H27.4179V57.3602Z" fill="black"/>
<path opacity="0.22" d="M25.4237 59.7098H23.8169V60.5673H25.4237V59.7098Z" fill="black"/>
<path opacity="0.55" d="M26.4486 60.8893H24.8418V61.7467H26.4486V60.8893Z" fill="black"/>
<path opacity="0.22" d="M28.3783 60.8893H26.7715V61.7467H28.3783V60.8893Z" fill="black"/>
<path opacity="0.55" d="M27.4179 59.7098H25.811V60.5673H27.4179V59.7098Z" fill="black"/>
<path opacity="0.22" d="M25.4237 62.0614H23.8169V62.9188H25.4237V62.0614Z" fill="black"/>
<path opacity="0.55" d="M26.4486 63.239H24.8418V64.0965H26.4486V63.239Z" fill="black"/>
<path opacity="0.22" d="M28.3783 63.239H26.7715V64.0965H28.3783V63.239Z" fill="black"/>
<path opacity="0.55" d="M27.4179 62.0614H25.811V62.9188H27.4179V62.0614Z" fill="black"/>
<path opacity="0.22" d="M25.4237 64.411H23.8169V65.2685H25.4237V64.411Z" fill="black"/>
<path opacity="0.55" d="M26.4486 65.5886H24.8418V66.4461H26.4486V65.5886Z" fill="black"/>
<path opacity="0.22" d="M28.3783 65.5886H26.7715V66.4461H28.3783V65.5886Z" fill="black"/>
<path opacity="0.55" d="M27.4179 64.411H25.811V65.2685H27.4179V64.411Z" fill="black"/>
<path opacity="0.22" d="M25.4237 66.7607H23.8169V67.6182H25.4237V66.7607Z" fill="black"/>
<path opacity="0.55" d="M26.4486 67.9384H24.8418V68.7958H26.4486V67.9384Z" fill="black"/>
<path opacity="0.22" d="M28.3783 67.9384H26.7715V68.7958H28.3783V67.9384Z" fill="black"/>
<path opacity="0.55" d="M27.4179 66.7607H25.811V67.6182H27.4179V66.7607Z" fill="black"/>
<path opacity="0.22" d="M25.4237 69.1105H23.8169V69.9679H25.4237V69.1105Z" fill="black"/>
<path opacity="0.55" d="M26.4486 70.2881H24.8418V71.1455H26.4486V70.2881Z" fill="black"/>
<path opacity="0.22" d="M28.3783 70.2881H26.7715V71.1455H28.3783V70.2881Z" fill="black"/>
<path opacity="0.55" d="M27.4179 69.1105H25.811V69.9679H27.4179V69.1105Z" fill="black"/>
<path opacity="0.22" d="M25.4237 71.4601H23.8169V72.3175H25.4237V71.4601Z" fill="black"/>
<path opacity="0.55" d="M26.4486 72.6377H24.8418V73.4951H26.4486V72.6377Z" fill="black"/>
<path opacity="0.22" d="M28.3783 72.6377H26.7715V73.4951H28.3783V72.6377Z" fill="black"/>
<path opacity="0.55" d="M27.4179 71.4601H25.811V72.3175H27.4179V71.4601Z" fill="black"/>
<path opacity="0.22" d="M25.4237 73.8098H23.8169V74.6672H25.4237V73.8098Z" fill="black"/>
<path opacity="0.55" d="M26.4486 74.9874H24.8418V75.8449H26.4486V74.9874Z" fill="black"/>
<path opacity="0.22" d="M28.3783 74.9874H26.7715V75.8449H28.3783V74.9874Z" fill="black"/>
<path opacity="0.55" d="M27.4179 73.8098H25.811V74.6672H27.4179V73.8098Z" fill="black"/>
<path opacity="0.22" d="M25.4237 76.1594H23.8169V77.0169H25.4237V76.1594Z" fill="black"/>
<path opacity="0.55" d="M26.4486 77.337H24.8418V78.1945H26.4486V77.337Z" fill="black"/>
<path opacity="0.22" d="M28.3783 77.337H26.7715V78.1945H28.3783V77.337Z" fill="black"/>
<path opacity="0.55" d="M27.4179 76.1594H25.811V77.0169H27.4179V76.1594Z" fill="black"/>
<path opacity="0.22" d="M25.4237 78.5092H23.8169V79.3666H25.4237V78.5092Z" fill="black"/>
<path opacity="0.55" d="M26.4486 79.6868H24.8418V80.5442H26.4486V79.6868Z" fill="black"/>
<path opacity="0.22" d="M28.3783 79.6868H26.7715V80.5442H28.3783V79.6868Z" fill="black"/>
<path opacity="0.55" d="M27.4179 78.5092H25.811V79.3666H27.4179V78.5092Z" fill="black"/>
<path d="M28.8229 45.4149H23.4297V56.7861H28.8229V45.4149Z" fill="#263238" stroke="#263238" stroke-width="0.5" stroke-linecap="round" stroke-linejoin="round"/>
<path d="M110.123 45.4149H23.4297V55.4816H110.123V45.4149Z" fill="#56AA7A" stroke="#263238" stroke-width="0.5" stroke-linecap="round" stroke-linejoin="round"/>
<path opacity="0.4" d="M110.123 45.4149H23.4297V55.4816H110.123V45.4149Z" fill="black" stroke="#263238" stroke-width="0.5" stroke-linecap="round" stroke-linejoin="round"/>
<path d="M110.123 45.4149H23.4297V51.222H110.123V45.4149Z" fill="#263238" stroke="#263238" stroke-width="0.5" stroke-linecap="round" stroke-linejoin="round"/>
<path d="M110.123 45.4149H23.4297V55.4816H110.123V45.4149Z" stroke="#263238" stroke-width="0.5" stroke-linecap="round" stroke-linejoin="round"/>
<path d="M62.1886 45.4149H56.7954V80.9674H62.1886V45.4149Z" fill="white" stroke="#263238" stroke-width="0.5" stroke-linecap="round" stroke-linejoin="round"/>
<path opacity="0.55" d="M58.8671 57.3602H57.2603V58.2177H58.8671V57.3602Z" fill="black"/>
<path opacity="0.55" d="M59.892 58.5378H58.2852V59.3953H59.892V58.5378Z" fill="black"/>
<path opacity="0.22" d="M61.8217 58.5378H60.2148V59.3953H61.8217V58.5378Z" fill="black"/>
<path opacity="0.55" d="M60.8632 57.3602H59.2563V58.2177H60.8632V57.3602Z" fill="black"/>
<path opacity="0.22" d="M58.8671 59.7098H57.2603V60.5673H58.8671V59.7098Z" fill="black"/>
<path opacity="0.55" d="M59.892 60.8893H58.2852V61.7467H59.892V60.8893Z" fill="black"/>
<path opacity="0.22" d="M61.8217 60.8893H60.2148V61.7467H61.8217V60.8893Z" fill="black"/>
<path opacity="0.55" d="M60.8632 59.7098H59.2563V60.5673H60.8632V59.7098Z" fill="black"/>
<path opacity="0.22" d="M58.8671 62.0614H57.2603V62.9188H58.8671V62.0614Z" fill="black"/>
<path opacity="0.55" d="M59.892 63.239H58.2852V64.0965H59.892V63.239Z" fill="black"/>
<path opacity="0.22" d="M61.8217 63.239H60.2148V64.0965H61.8217V63.239Z" fill="black"/>
<path opacity="0.55" d="M60.8632 62.0614H59.2563V62.9188H60.8632V62.0614Z" fill="black"/>
<path opacity="0.22" d="M58.8671 64.411H57.2603V65.2685H58.8671V64.411Z" fill="black"/>
<path opacity="0.55" d="M59.892 65.5886H58.2852V66.4461H59.892V65.5886Z" fill="black"/>
<path opacity="0.22" d="M61.8217 65.5886H60.2148V66.4461H61.8217V65.5886Z" fill="black"/>
<path opacity="0.55" d="M60.8632 64.411H59.2563V65.2685H60.8632V64.411Z" fill="black"/>
<path opacity="0.22" d="M58.8671 66.7607H57.2603V67.6182H58.8671V66.7607Z" fill="black"/>
<path opacity="0.55" d="M59.892 67.9384H58.2852V68.7958H59.892V67.9384Z" fill="black"/>
<path opacity="0.22" d="M61.8217 67.9384H60.2148V68.7958H61.8217V67.9384Z" fill="black"/>
<path opacity="0.55" d="M60.8632 66.7607H59.2563V67.6182H60.8632V66.7607Z" fill="black"/>
<path opacity="0.22" d="M58.8671 69.1105H57.2603V69.9679H58.8671V69.1105Z" fill="black"/>
<path opacity="0.55" d="M59.892 70.2881H58.2852V71.1455H59.892V70.2881Z" fill="black"/>
<path opacity="0.22" d="M61.8217 70.2881H60.2148V71.1455H61.8217V70.2881Z" fill="black"/>
<path opacity="0.55" d="M60.8632 69.1105H59.2563V69.9679H60.8632V69.1105Z" fill="black"/>
<path opacity="0.22" d="M58.8671 71.4601H57.2603V72.3175H58.8671V71.4601Z" fill="black"/>
<path opacity="0.55" d="M59.892 72.6377H58.2852V73.4951H59.892V72.6377Z" fill="black"/>
<path opacity="0.22" d="M61.8217 72.6377H60.2148V73.4951H61.8217V72.6377Z" fill="black"/>
<path opacity="0.55" d="M60.8632 71.4601H59.2563V72.3175H60.8632V71.4601Z" fill="black"/>
<path opacity="0.22" d="M58.8671 73.8098H57.2603V74.6672H58.8671V73.8098Z" fill="black"/>
<path opacity="0.55" d="M59.892 74.9874H58.2852V75.8449H59.892V74.9874Z" fill="black"/>
<path opacity="0.22" d="M61.8217 74.9874H60.2148V75.8449H61.8217V74.9874Z" fill="black"/>
<path opacity="0.55" d="M60.8632 73.8098H59.2563V74.6672H60.8632V73.8098Z" fill="black"/>
<path opacity="0.22" d="M58.8671 76.1594H57.2603V77.0169H58.8671V76.1594Z" fill="black"/>
<path opacity="0.55" d="M59.892 77.337H58.2852V78.1945H59.892V77.337Z" fill="black"/>
<path opacity="0.22" d="M61.8217 77.337H60.2148V78.1945H61.8217V77.337Z" fill="black"/>
<path opacity="0.55" d="M60.8632 76.1594H59.2563V77.0169H60.8632V76.1594Z" fill="black"/>
<path opacity="0.22" d="M58.8671 78.5092H57.2603V79.3666H58.8671V78.5092Z" fill="black"/>
<path opacity="0.55" d="M59.892 79.6868H58.2852V80.5442H59.892V79.6868Z" fill="black"/>
<path opacity="0.22" d="M61.8217 79.6868H60.2148V80.5442H61.8217V79.6868Z" fill="black"/>
<path opacity="0.55" d="M60.8632 78.5092H59.2563V79.3666H60.8632V78.5092Z" fill="black"/>
<path d="M62.1886 45.4149H56.7954V56.7861H62.1886V45.4149Z" fill="#263238" stroke="#263238" stroke-width="0.5" stroke-linecap="round" stroke-linejoin="round"/>
<path d="M104.98 57.9637H84.8916V80.9693H104.98V57.9637Z" fill="white" stroke="#263238" stroke-width="0.5" stroke-linecap="round" stroke-linejoin="round"/>
<path d="M104.104 58.766H85.7705V80.1634H104.104V58.766Z" fill="white" stroke="#263238" stroke-width="0.5" stroke-linecap="round" stroke-linejoin="round"/>
<path d="M95.6413 66.4738H95.228V71.8153H95.6413V66.4738Z" stroke="#263238" stroke-width="0.5" stroke-linecap="round" stroke-linejoin="round"/>
<path d="M94.5363 66.4738H94.123V71.8153H94.5363V66.4738Z" stroke="#263238" stroke-width="0.5" stroke-linecap="round" stroke-linejoin="round"/>
<path d="M102.928 60.6704H96.2935V78.0566H102.928V60.6704Z" fill="#263238" stroke="#263238" stroke-width="0.5" stroke-linecap="round" stroke-linejoin="round"/>
<path d="M93.5153 60.6704H86.8804V78.0566H93.5153V60.6704Z" fill="#263238" stroke="#263238" stroke-width="0.5" stroke-linecap="round" stroke-linejoin="round"/>
<path d="M94.8813 58.9187V80.1873" stroke="#263238" stroke-width="0.5" stroke-linecap="round" stroke-linejoin="round"/>
<path d="M110.123 45.4149H104.73V80.9674H110.123V45.4149Z" fill="white" stroke="#263238" stroke-width="0.5" stroke-linecap="round" stroke-linejoin="round"/>
<path opacity="0.55" d="M106.845 57.3602H105.238V58.2177H106.845V57.3602Z" fill="black"/>
<path opacity="0.55" d="M107.87 58.5378H106.263V59.3953H107.87V58.5378Z" fill="black"/>
<path opacity="0.22" d="M109.799 58.5378H108.192V59.3953H109.799V58.5378Z" fill="black"/>
<path opacity="0.55" d="M108.841 57.3602H107.234V58.2177H108.841V57.3602Z" fill="black"/>
<path opacity="0.22" d="M106.845 59.7098H105.238V60.5673H106.845V59.7098Z" fill="black"/>
<path opacity="0.55" d="M107.87 60.8893H106.263V61.7467H107.87V60.8893Z" fill="black"/>
<path opacity="0.22" d="M109.799 60.8893H108.192V61.7467H109.799V60.8893Z" fill="black"/>
<path opacity="0.55" d="M108.841 59.7098H107.234V60.5673H108.841V59.7098Z" fill="black"/>
<path opacity="0.22" d="M106.845 62.0614H105.238V62.9188H106.845V62.0614Z" fill="black"/>
<path opacity="0.55" d="M107.87 63.239H106.263V64.0965H107.87V63.239Z" fill="black"/>
<path opacity="0.22" d="M109.799 63.239H108.192V64.0965H109.799V63.239Z" fill="black"/>
<path opacity="0.55" d="M108.841 62.0614H107.234V62.9188H108.841V62.0614Z" fill="black"/>
<path opacity="0.22" d="M106.845 64.411H105.238V65.2685H106.845V64.411Z" fill="black"/>
<path opacity="0.55" d="M107.87 65.5886H106.263V66.4461H107.87V65.5886Z" fill="black"/>
<path opacity="0.22" d="M109.799 65.5886H108.192V66.4461H109.799V65.5886Z" fill="black"/>
<path opacity="0.55" d="M108.841 64.411H107.234V65.2685H108.841V64.411Z" fill="black"/>
<path opacity="0.22" d="M106.845 66.7607H105.238V67.6182H106.845V66.7607Z" fill="black"/>
<path opacity="0.55" d="M107.87 67.9384H106.263V68.7958H107.87V67.9384Z" fill="black"/>
<path opacity="0.22" d="M109.799 67.9384H108.192V68.7958H109.799V67.9384Z" fill="black"/>
<path opacity="0.55" d="M108.841 66.7607H107.234V67.6182H108.841V66.7607Z" fill="black"/>
<path opacity="0.22" d="M106.845 69.1105H105.238V69.9679H106.845V69.1105Z" fill="black"/>
<path opacity="0.55" d="M107.87 70.2881H106.263V71.1455H107.87V70.2881Z" fill="black"/>
<path opacity="0.22" d="M109.799 70.2881H108.192V71.1455H109.799V70.2881Z" fill="black"/>
<path opacity="0.55" d="M108.841 69.1105H107.234V69.9679H108.841V69.1105Z" fill="black"/>
<path opacity="0.22" d="M106.845 71.4601H105.238V72.3175H106.845V71.4601Z" fill="black"/>
<path opacity="0.55" d="M107.87 72.6377H106.263V73.4951H107.87V72.6377Z" fill="black"/>
<path opacity="0.22" d="M109.799 72.6377H108.192V73.4951H109.799V72.6377Z" fill="black"/>
<path opacity="0.55" d="M108.841 71.4601H107.234V72.3175H108.841V71.4601Z" fill="black"/>
<path opacity="0.22" d="M106.845 73.8098H105.238V74.6672H106.845V73.8098Z" fill="black"/>
<path opacity="0.55" d="M107.87 74.9874H106.263V75.8449H107.87V74.9874Z" fill="black"/>
<path opacity="0.22" d="M109.799 74.9874H108.192V75.8449H109.799V74.9874Z" fill="black"/>
<path opacity="0.55" d="M108.841 73.8098H107.234V74.6672H108.841V73.8098Z" fill="black"/>
<path opacity="0.22" d="M106.845 76.1594H105.238V77.0169H106.845V76.1594Z" fill="black"/>
<path opacity="0.55" d="M107.87 77.337H106.263V78.1945H107.87V77.337Z" fill="black"/>
<path opacity="0.22" d="M109.799 77.337H108.192V78.1945H109.799V77.337Z" fill="black"/>
<path opacity="0.55" d="M108.841 76.1594H107.234V77.0169H108.841V76.1594Z" fill="black"/>
<path opacity="0.22" d="M106.845 78.5092H105.238V79.3666H106.845V78.5092Z" fill="black"/>
<path opacity="0.55" d="M107.87 79.6868H106.263V80.5442H107.87V79.6868Z" fill="black"/>
<path opacity="0.22" d="M109.799 79.6868H108.192V80.5442H109.799V79.6868Z" fill="black"/>
<path opacity="0.55" d="M108.841 78.5092H107.234V79.3666H108.841V78.5092Z" fill="black"/>
<path d="M110.123 45.4149H104.73V56.7861H110.123V45.4149Z" fill="#263238" stroke="#263238" stroke-width="0.5" stroke-linecap="round" stroke-linejoin="round"/>
<path d="M22.0249 36.4872V49.2476H56.4784V55.5054H110.687V49.2476V36.4872H22.0249Z" fill="#56AA7A" stroke="#263238" stroke-width="0.5" stroke-linecap="round" stroke-linejoin="round"/>
<path d="M110.686 36.4872H22.0693V38.3529H110.686V36.4872Z" fill="#263238" stroke="#263238" stroke-width="0.5" stroke-linecap="round" stroke-linejoin="round"/>
<path d="M110.686 36.2775H22.0693V38.1432H110.686V36.2775Z" fill="white" stroke="#263238" stroke-width="0.5" stroke-linecap="round" stroke-linejoin="round"/>
<path d="M8.66797 80.9674H133.531" stroke="#263238" stroke-linecap="round" stroke-linejoin="round"/>
<path d="M8.66797 82.4119H133.531" stroke="#263238" stroke-linecap="round" stroke-linejoin="round"/>
<mask id="path-180-outside-1_257_9113" maskUnits="userSpaceOnUse" x="85" y="45" width="5" height="6" fill="black">
<rect fill="white" x="85" y="45" width="5" height="6"/>
<path d="M85.5547 50V45.6055H86.9932C87.5244 45.6055 87.9844 45.6953 88.373 45.875C88.7617 46.0547 89.0625 46.3086 89.2754 46.6367C89.4883 46.9648 89.5947 47.3535 89.5947 47.8027C89.5947 48.25 89.4883 48.6387 89.2754 48.9688C89.0625 49.2969 88.7617 49.5508 88.373 49.7305C87.9844 49.9102 87.5244 50 86.9932 50H85.5547ZM86.457 49.2119H87.0254C87.377 49.2119 87.6748 49.1572 87.9189 49.0479C88.165 48.9365 88.3516 48.7764 88.4785 48.5674C88.6074 48.3564 88.6719 48.1016 88.6719 47.8027C88.6719 47.502 88.6074 47.2471 88.4785 47.0381C88.3516 46.8291 88.165 46.6699 87.9189 46.5605C87.6748 46.4492 87.377 46.3936 87.0254 46.3936H86.457V49.2119Z"/>
</mask>
<path d="M85.5547 50V45.6055H86.9932C87.5244 45.6055 87.9844 45.6953 88.373 45.875C88.7617 46.0547 89.0625 46.3086 89.2754 46.6367C89.4883 46.9648 89.5947 47.3535 89.5947 47.8027C89.5947 48.25 89.4883 48.6387 89.2754 48.9688C89.0625 49.2969 88.7617 49.5508 88.373 49.7305C87.9844 49.9102 87.5244 50 86.9932 50H85.5547ZM86.457 49.2119H87.0254C87.377 49.2119 87.6748 49.1572 87.9189 49.0479C88.165 48.9365 88.3516 48.7764 88.4785 48.5674C88.6074 48.3564 88.6719 48.1016 88.6719 47.8027C88.6719 47.502 88.6074 47.2471 88.4785 47.0381C88.3516 46.8291 88.165 46.6699 87.9189 46.5605C87.6748 46.4492 87.377 46.3936 87.0254 46.3936H86.457V49.2119Z" fill="white"/>
<path d="M85.5547 50H85.2547V50.3H85.5547V50ZM85.5547 45.6055V45.3055H85.2547V45.6055H85.5547ZM89.2754 48.9688L89.5271 49.132L89.5275 49.1314L89.2754 48.9688ZM86.457 49.2119H86.157V49.5119H86.457V49.2119ZM87.9189 49.0479L88.0416 49.3216L88.0426 49.3212L87.9189 49.0479ZM88.4785 48.5674L88.2225 48.4109L88.2221 48.4116L88.4785 48.5674ZM88.4785 47.0381L88.2221 47.1938L88.2232 47.1956L88.4785 47.0381ZM87.9189 46.5605L87.7945 46.8335L87.7971 46.8347L87.9189 46.5605ZM86.457 46.3936V46.0936H86.157V46.3936H86.457ZM85.8547 50V45.6055H85.2547V50H85.8547ZM85.5547 45.9055H86.9932V45.3055H85.5547V45.9055ZM86.9932 45.9055C87.4911 45.9055 87.9063 45.9897 88.2472 46.1473L88.4989 45.6027C88.0625 45.4009 87.5577 45.3055 86.9932 45.3055V45.9055ZM88.2472 46.1473C88.5895 46.3056 88.8445 46.5238 89.0237 46.8L89.5271 46.4734C89.2805 46.0934 88.9339 45.8038 88.4989 45.6027L88.2472 46.1473ZM89.0237 46.8C89.2006 47.0726 89.2947 47.4026 89.2947 47.8027H89.8947C89.8947 47.3044 89.776 46.8571 89.5271 46.4734L89.0237 46.8ZM89.2947 47.8027C89.2947 48.2005 89.2007 48.531 89.0233 48.8061L89.5275 49.1314C89.7758 48.7463 89.8947 48.2995 89.8947 47.8027H89.2947ZM89.0237 48.8055C88.8445 49.0817 88.5895 49.2999 88.2472 49.4582L88.4989 50.0028C88.9339 49.8017 89.2805 49.5121 89.5271 49.132L89.0237 48.8055ZM88.2472 49.4582C87.9063 49.6158 87.4911 49.7 86.9932 49.7V50.3C87.5577 50.3 88.0625 50.2045 88.4989 50.0028L88.2472 49.4582ZM86.9932 49.7H85.5547V50.3H86.9932V49.7ZM86.457 49.5119H87.0254V48.9119H86.457V49.5119ZM87.0254 49.5119C87.4066 49.5119 87.7488 49.4528 88.0416 49.3216L87.7963 48.7741C87.6008 48.8616 87.3473 48.9119 87.0254 48.9119V49.5119ZM88.0426 49.3212C88.3378 49.1877 88.5733 48.9892 88.7349 48.7231L88.2221 48.4116C88.1298 48.5636 87.9923 48.6854 87.7953 48.7745L88.0426 49.3212ZM88.7345 48.7238C88.8977 48.4568 88.9719 48.1452 88.9719 47.8027H88.3719C88.3719 48.0579 88.3172 48.2561 88.2225 48.4109L88.7345 48.7238ZM88.9719 47.8027C88.9719 47.4588 88.8979 47.1465 88.7338 46.8806L88.2232 47.1956C88.3169 47.3476 88.3719 47.5451 88.3719 47.8027H88.9719ZM88.7349 46.8823C88.573 46.6158 88.3368 46.418 88.0408 46.2864L87.7971 46.8347C87.9933 46.9219 88.1301 47.0424 88.2221 47.1938L88.7349 46.8823ZM88.0434 46.2876C87.7501 46.1538 87.4072 46.0936 87.0254 46.0936V46.6936C87.3467 46.6936 87.5995 46.7446 87.7945 46.8335L88.0434 46.2876ZM87.0254 46.0936H86.457V46.6936H87.0254V46.0936ZM86.157 46.3936V49.2119H86.757V46.3936H86.157Z" fill="#263238" mask="url(#path-180-outside-1_257_9113)"/>
<mask id="path-182-outside-2_257_9113" maskUnits="userSpaceOnUse" x="90" y="46" width="4" height="5" fill="black">
<rect fill="white" x="90" y="46" width="4" height="5"/>
<path d="M93.3477 49.6719C92.9844 49.9297 92.5869 50.0586 92.1553 50.0586C91.835 50.0586 91.5469 49.9902 91.291 49.8535C91.0371 49.7148 90.8359 49.5273 90.6875 49.291C90.541 49.0547 90.4678 48.7881 90.4678 48.4912C90.4678 48.208 90.5342 47.9551 90.667 47.7324C90.8018 47.5098 90.9844 47.334 91.2148 47.2051C91.4453 47.0762 91.707 47.0117 92 47.0117C92.3027 47.0117 92.5693 47.083 92.7998 47.2256C93.0303 47.3662 93.21 47.5635 93.3389 47.8174C93.4678 48.0693 93.5322 48.3613 93.5322 48.6934V48.7871H91.373C91.4082 48.9023 91.4658 49.0039 91.5459 49.0918C91.626 49.1777 91.7256 49.2461 91.8447 49.2969C91.9639 49.3477 92.1006 49.373 92.2549 49.373C92.5537 49.373 92.832 49.2764 93.0898 49.083L93.3477 49.6719ZM91.335 48.3594H92.7559C92.7402 48.2324 92.7002 48.1211 92.6357 48.0254C92.5732 47.9277 92.4902 47.8516 92.3867 47.7969C92.2852 47.7422 92.1709 47.7148 92.0439 47.7148C91.915 47.7148 91.7998 47.7432 91.6982 47.7998C91.5986 47.8564 91.5176 47.9326 91.4551 48.0283C91.3926 48.124 91.3525 48.2344 91.335 48.3594Z"/>
</mask>
<path d="M93.3477 49.6719C92.9844 49.9297 92.5869 50.0586 92.1553 50.0586C91.835 50.0586 91.5469 49.9902 91.291 49.8535C91.0371 49.7148 90.8359 49.5273 90.6875 49.291C90.541 49.0547 90.4678 48.7881 90.4678 48.4912C90.4678 48.208 90.5342 47.9551 90.667 47.7324C90.8018 47.5098 90.9844 47.334 91.2148 47.2051C91.4453 47.0762 91.707 47.0117 92 47.0117C92.3027 47.0117 92.5693 47.083 92.7998 47.2256C93.0303 47.3662 93.21 47.5635 93.3389 47.8174C93.4678 48.0693 93.5322 48.3613 93.5322 48.6934V48.7871H91.373C91.4082 48.9023 91.4658 49.0039 91.5459 49.0918C91.626 49.1777 91.7256 49.2461 91.8447 49.2969C91.9639 49.3477 92.1006 49.373 92.2549 49.373C92.5537 49.373 92.832 49.2764 93.0898 49.083L93.3477 49.6719ZM91.335 48.3594H92.7559C92.7402 48.2324 92.7002 48.1211 92.6357 48.0254C92.5732 47.9277 92.4902 47.8516 92.3867 47.7969C92.2852 47.7422 92.1709 47.7148 92.0439 47.7148C91.915 47.7148 91.7998 47.7432 91.6982 47.7998C91.5986 47.8564 91.5176 47.9326 91.4551 48.0283C91.3926 48.124 91.3525 48.2344 91.335 48.3594Z" fill="white"/>
<path d="M93.3477 49.6719L93.5213 49.9165L93.7204 49.7752L93.6225 49.5516L93.3477 49.6719ZM91.291 49.8535L91.1472 50.1168L91.1496 50.1181L91.291 49.8535ZM90.6875 49.291L90.4325 49.4491L90.4335 49.4506L90.6875 49.291ZM90.667 47.7324L90.4103 47.5771L90.4093 47.5787L90.667 47.7324ZM92.7998 47.2256L92.642 47.4807L92.6435 47.4817L92.7998 47.2256ZM93.3389 47.8174L93.0714 47.9532L93.0718 47.954L93.3389 47.8174ZM93.5322 48.7871V49.0871H93.8322V48.7871H93.5322ZM91.373 48.7871V48.4871H90.9679L91.0861 48.8747L91.373 48.7871ZM91.5459 49.0918L91.3241 49.2939L91.3264 49.2963L91.5459 49.0918ZM93.0898 49.083L93.3647 48.9627L93.2128 48.6158L92.9098 48.843L93.0898 49.083ZM91.335 48.3594L91.0379 48.3176L90.9898 48.6594H91.335V48.3594ZM92.7559 48.3594V48.6594H93.095L93.0536 48.3227L92.7559 48.3594ZM92.6357 48.0254L92.383 48.1872L92.3869 48.193L92.6357 48.0254ZM92.3867 47.7969L92.2445 48.061L92.2466 48.0621L92.3867 47.7969ZM91.6982 47.7998L91.5521 47.5378L91.55 47.539L91.6982 47.7998ZM93.174 49.4272C92.8598 49.6503 92.5226 49.7586 92.1553 49.7586V50.3586C92.6512 50.3586 93.109 50.2091 93.5213 49.9165L93.174 49.4272ZM92.1553 49.7586C91.879 49.7586 91.6404 49.7 91.4324 49.5889L91.1496 50.1181C91.4534 50.2804 91.7909 50.3586 92.1553 50.3586V49.7586ZM91.4348 49.5902C91.2242 49.4752 91.0617 49.3227 90.9415 49.1315L90.4335 49.4506C90.6102 49.732 90.85 49.9545 91.1472 50.1168L91.4348 49.5902ZM90.9425 49.133C90.8274 48.9473 90.7678 48.7362 90.7678 48.4912H90.1678C90.1678 48.84 90.2546 49.162 90.4325 49.4491L90.9425 49.133ZM90.7678 48.4912C90.7678 48.257 90.8221 48.0581 90.9246 47.8861L90.4093 47.5787C90.2463 47.8521 90.1678 48.1591 90.1678 48.4912H90.7678ZM90.9236 47.8878C91.0311 47.7102 91.1755 47.5708 91.3613 47.4669L91.0684 46.9433C90.7933 47.0971 90.5724 47.3093 90.4103 47.5771L90.9236 47.8878ZM91.3613 47.4669C91.5423 47.3657 91.7526 47.3117 92 47.3117V46.7117C91.6615 46.7117 91.3484 46.7867 91.0684 46.9433L91.3613 47.4669ZM92 47.3117C92.2537 47.3117 92.4643 47.3708 92.642 47.4807L92.9576 46.9705C92.6743 46.7952 92.3518 46.7117 92 46.7117V47.3117ZM92.6435 47.4817C92.8238 47.5917 92.9662 47.7461 93.0714 47.9532L93.6064 47.6816C93.4537 47.3809 93.2367 47.1407 92.9561 46.9695L92.6435 47.4817ZM93.0718 47.954C93.1756 48.1569 93.2322 48.4006 93.2322 48.6934H93.8322C93.8322 48.322 93.7599 47.9817 93.6059 47.6807L93.0718 47.954ZM93.2322 48.6934V48.7871H93.8322V48.6934H93.2322ZM93.5322 48.4871H91.373V49.0871H93.5322V48.4871ZM91.0861 48.8747C91.1341 49.0318 91.2137 49.1726 91.3241 49.2938L91.7677 48.8898C91.7179 48.8352 91.6824 48.7729 91.66 48.6996L91.0861 48.8747ZM91.3264 49.2963C91.4379 49.4159 91.5734 49.5073 91.7271 49.5729L91.9624 49.0209C91.8778 48.9849 91.8141 48.9395 91.7654 48.8873L91.3264 49.2963ZM91.7271 49.5729C91.8898 49.6422 92.0678 49.673 92.2549 49.673V49.073C92.1334 49.073 92.0379 49.0531 91.9624 49.0209L91.7271 49.5729ZM92.2549 49.673C92.6238 49.673 92.9644 49.5521 93.2698 49.323L92.9098 48.843C92.6996 49.0007 92.4836 49.073 92.2549 49.073V49.673ZM92.815 49.2033L93.0728 49.7922L93.6225 49.5516L93.3647 48.9627L92.815 49.2033ZM91.335 48.6594H92.7559V48.0594H91.335V48.6594ZM93.0536 48.3227C93.0329 48.1541 92.9782 47.9968 92.8846 47.8578L92.3869 48.193C92.4222 48.2454 92.4476 48.3108 92.4581 48.396L93.0536 48.3227ZM92.8884 47.8637C92.7977 47.7219 92.6757 47.6103 92.5269 47.5316L92.2466 48.0621C92.3047 48.0929 92.3488 48.1336 92.3831 48.1871L92.8884 47.8637ZM92.5289 47.5327C92.3794 47.4522 92.2154 47.4148 92.0439 47.4148V48.0148C92.1264 48.0148 92.1909 48.0322 92.2445 48.061L92.5289 47.5327ZM92.0439 47.4148C91.8696 47.4148 91.7031 47.4536 91.5521 47.5378L91.8444 48.0618C91.8965 48.0327 91.9605 48.0148 92.0439 48.0148V47.4148ZM91.55 47.539C91.4089 47.6192 91.2926 47.7285 91.2039 47.8643L91.7063 48.1924C91.7426 48.1367 91.7883 48.0937 91.8465 48.0606L91.55 47.539ZM91.2039 47.8643C91.1149 48.0006 91.061 48.1536 91.0379 48.3176L91.632 48.4012C91.6441 48.3152 91.6703 48.2475 91.7063 48.1924L91.2039 47.8643Z" fill="#263238" mask="url(#path-182-outside-2_257_9113)"/>
<mask id="path-184-outside-3_257_9113" maskUnits="userSpaceOnUse" x="94" y="46" width="4" height="6" fill="black">
<rect fill="white" x="94" y="46" width="4" height="6"/>
<path d="M95.335 51.4648H94.4912V47.0703H95.2295L95.2734 47.4688C95.3984 47.3262 95.5479 47.2148 95.7217 47.1348C95.8975 47.0527 96.0889 47.0117 96.2959 47.0117C96.5654 47.0117 96.8047 47.0781 97.0137 47.2109C97.2227 47.3418 97.3877 47.5225 97.5088 47.7529C97.6299 47.9814 97.6904 48.2422 97.6904 48.5352C97.6904 48.8262 97.6299 49.0869 97.5088 49.3174C97.3877 49.5479 97.2227 49.7295 97.0137 49.8623C96.8047 49.9932 96.5654 50.0586 96.2959 50.0586C96.1045 50.0586 95.9268 50.0244 95.7627 49.9561C95.6006 49.8857 95.458 49.7891 95.335 49.666V51.4648ZM96.082 49.3027C96.2285 49.3027 96.3574 49.2705 96.4688 49.2061C96.5801 49.1396 96.667 49.0488 96.7295 48.9336C96.7939 48.8164 96.8262 48.6836 96.8262 48.5352C96.8262 48.3848 96.7939 48.252 96.7295 48.1367C96.667 48.0215 96.5801 47.9307 96.4688 47.8643C96.3574 47.7979 96.2295 47.7646 96.085 47.7646C95.9482 47.7646 95.8252 47.7949 95.7158 47.8555C95.6064 47.9141 95.5176 47.9961 95.4492 48.1016C95.3828 48.207 95.3447 48.3281 95.335 48.4648V48.6113C95.3447 48.7441 95.3828 48.8633 95.4492 48.9688C95.5156 49.0723 95.6035 49.1543 95.7129 49.2148C95.8223 49.2734 95.9453 49.3027 96.082 49.3027Z"/>
</mask>
<path d="M95.335 51.4648H94.4912V47.0703H95.2295L95.2734 47.4688C95.3984 47.3262 95.5479 47.2148 95.7217 47.1348C95.8975 47.0527 96.0889 47.0117 96.2959 47.0117C96.5654 47.0117 96.8047 47.0781 97.0137 47.2109C97.2227 47.3418 97.3877 47.5225 97.5088 47.7529C97.6299 47.9814 97.6904 48.2422 97.6904 48.5352C97.6904 48.8262 97.6299 49.0869 97.5088 49.3174C97.3877 49.5479 97.2227 49.7295 97.0137 49.8623C96.8047 49.9932 96.5654 50.0586 96.2959 50.0586C96.1045 50.0586 95.9268 50.0244 95.7627 49.9561C95.6006 49.8857 95.458 49.7891 95.335 49.666V51.4648ZM96.082 49.3027C96.2285 49.3027 96.3574 49.2705 96.4688 49.2061C96.5801 49.1396 96.667 49.0488 96.7295 48.9336C96.7939 48.8164 96.8262 48.6836 96.8262 48.5352C96.8262 48.3848 96.7939 48.252 96.7295 48.1367C96.667 48.0215 96.5801 47.9307 96.4688 47.8643C96.3574 47.7979 96.2295 47.7646 96.085 47.7646C95.9482 47.7646 95.8252 47.7949 95.7158 47.8555C95.6064 47.9141 95.5176 47.9961 95.4492 48.1016C95.3828 48.207 95.3447 48.3281 95.335 48.4648V48.6113C95.3447 48.7441 95.3828 48.8633 95.4492 48.9688C95.5156 49.0723 95.6035 49.1543 95.7129 49.2148C95.8223 49.2734 95.9453 49.3027 96.082 49.3027Z" fill="white"/>
<path d="M95.335 51.4648V51.7648H95.635V51.4648H95.335ZM94.4912 51.4648H94.1912V51.7648H94.4912V51.4648ZM94.4912 47.0703V46.7703H94.1912V47.0703H94.4912ZM95.2295 47.0703L95.5277 47.0374L95.4982 46.7703H95.2295V47.0703ZM95.2734 47.4688L94.9752 47.5016L95.0499 48.1788L95.499 47.6665L95.2734 47.4688ZM95.7217 47.1348L95.8472 47.4072L95.8485 47.4066L95.7217 47.1348ZM97.0137 47.2109L96.8528 47.4641L96.8545 47.4652L97.0137 47.2109ZM97.5088 47.7529L97.2432 47.8925L97.2437 47.8934L97.5088 47.7529ZM97.0137 49.8623L97.1729 50.1166L97.1746 50.1155L97.0137 49.8623ZM95.7627 49.9561L95.6433 50.2313L95.6473 50.233L95.7627 49.9561ZM95.335 49.666L95.5471 49.4539L95.035 48.9418V49.666H95.335ZM96.4688 49.2061L96.6191 49.4657L96.6224 49.4637L96.4688 49.2061ZM96.7295 48.9336L96.4666 48.789L96.4658 48.7906L96.7295 48.9336ZM96.7295 48.1367L96.4658 48.2798L96.4677 48.2832L96.7295 48.1367ZM95.7158 47.8555L95.8575 48.1199L95.8611 48.1179L95.7158 47.8555ZM95.4492 48.1016L95.1975 47.9384L95.1953 47.9417L95.4492 48.1016ZM95.335 48.4648L95.0357 48.4435L95.035 48.4541V48.4648H95.335ZM95.335 48.6113H95.035V48.6223L95.0358 48.6333L95.335 48.6113ZM95.4492 48.9688L95.1953 49.1286L95.1967 49.1307L95.4492 48.9688ZM95.7129 49.2148L95.5676 49.4773L95.5712 49.4793L95.7129 49.2148ZM95.335 51.1648H94.4912V51.7648H95.335V51.1648ZM94.7912 51.4648V47.0703H94.1912V51.4648H94.7912ZM94.4912 47.3703H95.2295V46.7703H94.4912V47.3703ZM94.9313 47.1032L94.9752 47.5016L95.5716 47.4359L95.5277 47.0374L94.9313 47.1032ZM95.499 47.6665C95.596 47.5559 95.7112 47.4699 95.8472 47.4072L95.5962 46.8623C95.3845 46.9598 95.2009 47.0965 95.0479 47.271L95.499 47.6665ZM95.8485 47.4066C95.982 47.3444 96.1297 47.3117 96.2959 47.3117V46.7117C96.048 46.7117 95.813 46.7611 95.5948 46.8629L95.8485 47.4066ZM96.2959 47.3117C96.5137 47.3117 96.6961 47.3646 96.8528 47.4641L97.1746 46.9577C96.9133 46.7917 96.6172 46.7117 96.2959 46.7117V47.3117ZM96.8545 47.4652C97.0159 47.5663 97.1454 47.7062 97.2432 47.8925L97.7744 47.6134C97.63 47.3387 97.4294 47.1173 97.1729 46.9567L96.8545 47.4652ZM97.2437 47.8934C97.339 48.0732 97.3904 48.2846 97.3904 48.5352H97.9904C97.9904 48.1998 97.9208 47.8897 97.7739 47.6125L97.2437 47.8934ZM97.3904 48.5352C97.3904 48.7834 97.3391 48.9953 97.2432 49.1778L97.7744 49.4569C97.9206 49.1786 97.9904 48.869 97.9904 48.5352H97.3904ZM97.2432 49.1778C97.1452 49.3644 97.0152 49.5059 96.8528 49.6091L97.1746 50.1155C97.4301 49.9531 97.6302 49.7313 97.7744 49.4569L97.2432 49.1778ZM96.8545 49.608C96.6976 49.7063 96.5146 49.7586 96.2959 49.7586V50.3586C96.6163 50.3586 96.9118 50.2801 97.1729 50.1166L96.8545 49.608ZM96.2959 49.7586C96.141 49.7586 96.0028 49.7311 95.8781 49.6791L95.6473 50.233C95.8507 50.3177 96.068 50.3586 96.2959 50.3586V49.7586ZM95.8821 49.6808C95.754 49.6253 95.643 49.5498 95.5471 49.4539L95.1228 49.8781C95.273 50.0283 95.4471 50.1462 95.6433 50.2313L95.8821 49.6808ZM95.035 49.666V51.4648H95.635V49.666H95.035ZM96.082 49.6027C96.2739 49.6027 96.456 49.5601 96.6191 49.4657L96.3184 48.9464C96.2588 48.9809 96.1832 49.0027 96.082 49.0027V49.6027ZM96.6224 49.4637C96.7806 49.3693 96.9053 49.2387 96.9932 49.0766L96.4658 48.7906C96.4287 48.859 96.3795 48.91 96.3151 48.9484L96.6224 49.4637ZM96.9924 49.0782C97.0838 48.912 97.1262 48.7285 97.1262 48.5352H96.5262C96.5262 48.6387 96.5041 48.7208 96.4666 48.789L96.9924 49.0782ZM97.1262 48.5352C97.1262 48.3407 97.0841 48.1562 96.9913 47.9903L96.4677 48.2832C96.5038 48.3477 96.5262 48.4288 96.5262 48.5352H97.1262ZM96.9932 47.9937C96.9053 47.8316 96.7806 47.701 96.6224 47.6066L96.3151 48.1219C96.3795 48.1604 96.4287 48.2113 96.4658 48.2797L96.9932 47.9937ZM96.6224 47.6066C96.4594 47.5094 96.2772 47.4646 96.085 47.4646V48.0646C96.1818 48.0646 96.2554 48.0863 96.3151 48.1219L96.6224 47.6066ZM96.085 47.4646C95.9023 47.4646 95.7285 47.5056 95.5705 47.593L95.8611 48.1179C95.9219 48.0843 95.9942 48.0646 96.085 48.0646V47.4646ZM95.5742 47.591C95.4195 47.6739 95.293 47.791 95.1975 47.9384L95.701 48.2647C95.7421 48.2012 95.7934 48.1543 95.8575 48.1199L95.5742 47.591ZM95.1953 47.9417C95.1001 48.093 95.0486 48.2626 95.0357 48.4435L95.6342 48.4862C95.6408 48.3937 95.6655 48.3211 95.7031 48.2614L95.1953 47.9417ZM95.035 48.4648V48.6113H95.635V48.4648H95.035ZM95.0358 48.6333C95.0489 48.8117 95.101 48.9787 95.1953 49.1286L95.7031 48.8089C95.6646 48.7478 95.6406 48.6766 95.6342 48.5893L95.0358 48.6333ZM95.1967 49.1307C95.2904 49.2768 95.4155 49.3931 95.5676 49.4773L95.8582 48.9524C95.7916 48.9155 95.7408 48.8677 95.7017 48.8068L95.1967 49.1307ZM95.5712 49.4793C95.7285 49.5635 95.901 49.6027 96.082 49.6027V49.0027C95.9896 49.0027 95.916 48.9833 95.8546 48.9504L95.5712 49.4793Z" fill="#263238" mask="url(#path-184-outside-3_257_9113)"/>
<mask id="path-186-outside-4_257_9113" maskUnits="userSpaceOnUse" x="98" y="46" width="4" height="5" fill="black">
<rect fill="white" x="98" y="46" width="4" height="5"/>
<path d="M100.003 50.0586C99.7021 50.0586 99.4326 49.9932 99.1943 49.8623C98.9561 49.7295 98.7686 49.5488 98.6318 49.3203C98.4971 49.0898 98.4297 48.8281 98.4297 48.5352C98.4297 48.2441 98.4971 47.9844 98.6318 47.7559C98.7686 47.5254 98.9561 47.3438 99.1943 47.2109C99.4326 47.0781 99.7021 47.0117 100.003 47.0117C100.304 47.0117 100.571 47.0781 100.806 47.2109C101.042 47.3438 101.228 47.5254 101.362 47.7559C101.499 47.9844 101.567 48.2441 101.567 48.5352C101.567 48.8281 101.499 49.0898 101.362 49.3203C101.228 49.5488 101.042 49.7295 100.806 49.8623C100.571 49.9932 100.304 50.0586 100.003 50.0586ZM100 49.3057C100.135 49.3057 100.255 49.2725 100.36 49.2061C100.468 49.1377 100.552 49.0459 100.612 48.9307C100.675 48.8135 100.706 48.6797 100.706 48.5293C100.706 48.3848 100.675 48.2549 100.612 48.1396C100.552 48.0244 100.468 47.9336 100.36 47.8672C100.255 47.7988 100.135 47.7646 100 47.7646C99.8633 47.7646 99.7412 47.7988 99.6338 47.8672C99.5283 47.9336 99.4443 48.0244 99.3818 48.1396C99.3213 48.2549 99.291 48.3848 99.291 48.5293C99.291 48.6797 99.3213 48.8135 99.3818 48.9307C99.4443 49.0459 99.5283 49.1377 99.6338 49.2061C99.7412 49.2725 99.8633 49.3057 100 49.3057Z"/>
</mask>
<path d="M100.003 50.0586C99.7021 50.0586 99.4326 49.9932 99.1943 49.8623C98.9561 49.7295 98.7686 49.5488 98.6318 49.3203C98.4971 49.0898 98.4297 48.8281 98.4297 48.5352C98.4297 48.2441 98.4971 47.9844 98.6318 47.7559C98.7686 47.5254 98.9561 47.3438 99.1943 47.2109C99.4326 47.0781 99.7021 47.0117 100.003 47.0117C100.304 47.0117 100.571 47.0781 100.806 47.2109C101.042 47.3438 101.228 47.5254 101.362 47.7559C101.499 47.9844 101.567 48.2441 101.567 48.5352C101.567 48.8281 101.499 49.0898 101.362 49.3203C101.228 49.5488 101.042 49.7295 100.806 49.8623C100.571 49.9932 100.304 50.0586 100.003 50.0586ZM100 49.3057C100.135 49.3057 100.255 49.2725 100.36 49.2061C100.468 49.1377 100.552 49.0459 100.612 48.9307C100.675 48.8135 100.706 48.6797 100.706 48.5293C100.706 48.3848 100.675 48.2549 100.612 48.1396C100.552 48.0244 100.468 47.9336 100.36 47.8672C100.255 47.7988 100.135 47.7646 100 47.7646C99.8633 47.7646 99.7412 47.7988 99.6338 47.8672C99.5283 47.9336 99.4443 48.0244 99.3818 48.1396C99.3213 48.2549 99.291 48.3848 99.291 48.5293C99.291 48.6797 99.3213 48.8135 99.3818 48.9307C99.4443 49.0459 99.5283 49.1377 99.6338 49.2061C99.7412 49.2725 99.8633 49.3057 100 49.3057Z" fill="white"/>
<path d="M99.1943 49.8623L99.0483 50.1244L99.0499 50.1253L99.1943 49.8623ZM98.6318 49.3203L98.3728 49.4718L98.3744 49.4743L98.6318 49.3203ZM98.6318 47.7559L98.3738 47.6028L98.3734 47.6035L98.6318 47.7559ZM100.806 47.2109L100.658 47.4719L100.659 47.4725L100.806 47.2109ZM101.362 47.7559L101.103 47.9073L101.105 47.9099L101.362 47.7559ZM101.362 49.3203L101.104 49.1673L101.104 49.1679L101.362 49.3203ZM100.806 49.8623L100.952 50.1242L100.953 50.1238L100.806 49.8623ZM100.36 49.2061L100.52 49.4599L100.521 49.4592L100.36 49.2061ZM100.612 48.9307L100.348 48.7895L100.347 48.7911L100.612 48.9307ZM100.612 48.1396L100.347 48.2792L100.349 48.2827L100.612 48.1396ZM100.36 47.8672L100.197 48.119L100.203 48.1224L100.36 47.8672ZM99.6338 47.8672L99.7936 48.1211L99.7949 48.1203L99.6338 47.8672ZM99.3818 48.1396L99.1181 47.9966L99.1163 48.0001L99.3818 48.1396ZM99.3818 48.9307L99.1153 49.0684L99.1181 49.0737L99.3818 48.9307ZM99.6338 49.2061L99.4706 49.4579L99.476 49.4612L99.6338 49.2061ZM100.003 49.7586C99.7471 49.7586 99.5282 49.7034 99.3387 49.5993L99.0499 50.1253C99.337 50.2829 99.6571 50.3586 100.003 50.3586V49.7586ZM99.3404 49.6003C99.1469 49.4924 98.9983 49.3485 98.8893 49.1663L98.3744 49.4743C98.5388 49.7491 98.7652 49.9666 99.0483 50.1243L99.3404 49.6003ZM98.8908 49.1689C98.7855 48.9887 98.7297 48.7802 98.7297 48.5352H98.1297C98.1297 48.876 98.2087 49.1909 98.3729 49.4717L98.8908 49.1689ZM98.7297 48.5352C98.7297 48.2924 98.7853 48.0862 98.8902 47.9083L98.3734 47.6035C98.2088 47.8826 98.1297 48.1959 98.1297 48.5352H98.7297ZM98.8899 47.9089C98.999 47.7249 99.1475 47.5805 99.3404 47.473L99.0483 46.9489C98.7646 47.107 98.5381 47.3259 98.3738 47.6028L98.8899 47.9089ZM99.3404 47.473C99.5296 47.3675 99.7479 47.3117 100.003 47.3117V46.7117C99.6564 46.7117 99.3357 46.7887 99.0483 46.9489L99.3404 47.473ZM100.003 47.3117C100.258 47.3117 100.474 47.3676 100.658 47.4719L100.954 46.9499C100.669 46.7887 100.349 46.7117 100.003 46.7117V47.3117ZM100.659 47.4725C100.849 47.5796 100.996 47.7236 101.103 47.9073L101.621 47.6044C101.459 47.3272 101.235 47.1079 100.953 46.9494L100.659 47.4725ZM101.105 47.9099C101.211 48.0876 101.267 48.2932 101.267 48.5352H101.867C101.867 48.1951 101.787 47.8812 101.62 47.6018L101.105 47.9099ZM101.267 48.5352C101.267 48.7794 101.211 48.9874 101.104 49.1673L101.62 49.4734C101.787 49.1923 101.867 48.8768 101.867 48.5352H101.267ZM101.104 49.1679C100.997 49.3498 100.85 49.4933 100.659 49.6008L100.953 50.1238C101.234 49.9657 101.458 49.7478 101.621 49.4727L101.104 49.1679ZM100.659 49.6004C100.475 49.7034 100.259 49.7586 100.003 49.7586V50.3586C100.349 50.3586 100.668 50.283 100.952 50.1242L100.659 49.6004ZM100 49.6057C100.187 49.6057 100.363 49.5589 100.52 49.4599L100.201 48.9522C100.147 48.986 100.083 49.0057 100 49.0057V49.6057ZM100.521 49.4592C100.674 49.3621 100.794 49.2307 100.878 49.0702L100.347 48.7911C100.31 48.8611 100.262 48.9133 100.199 48.953L100.521 49.4592ZM100.877 49.0718C100.966 48.9057 101.006 48.7223 101.006 48.5293H100.406C100.406 48.637 100.384 48.7212 100.348 48.7895L100.877 49.0718ZM101.006 48.5293C101.006 48.34 100.965 48.1601 100.876 47.9966L100.349 48.2827C100.385 48.3496 100.406 48.4295 100.406 48.5293H101.006ZM100.878 48.0001C100.793 47.8389 100.673 47.7075 100.518 47.612L100.203 48.1224C100.263 48.1597 100.31 48.2099 100.347 48.2792L100.878 48.0001ZM100.524 47.6154C100.366 47.5133 100.188 47.4646 100 47.4646V48.0646C100.081 48.0646 100.144 48.0844 100.197 48.1189L100.524 47.6154ZM100 47.4646C99.8106 47.4646 99.6319 47.5128 99.4727 47.6141L99.7949 48.1203C99.8506 48.0848 99.9159 48.0646 100 48.0646V47.4646ZM99.4739 47.6133C99.3226 47.7086 99.2038 47.8386 99.1181 47.9966L99.6455 48.2827C99.6848 48.2103 99.734 48.1586 99.7936 48.1211L99.4739 47.6133ZM99.1163 48.0001C99.0307 48.163 98.991 48.3416 98.991 48.5293H99.591C99.591 48.4279 99.6119 48.3468 99.6474 48.2792L99.1163 48.0001ZM98.991 48.5293C98.991 48.7208 99.0299 48.903 99.1153 49.0684L99.6484 48.793C99.6127 48.724 99.591 48.6385 99.591 48.5293H98.991ZM99.1181 49.0737C99.2035 49.231 99.3212 49.361 99.4706 49.4578L99.797 48.9543C99.7354 48.9144 99.6852 48.8608 99.6455 48.7876L99.1181 49.0737ZM99.476 49.4612C99.6348 49.5594 99.8123 49.6057 100 49.6057V49.0057C99.9142 49.0057 99.8477 48.9856 99.7915 48.9509L99.476 49.4612Z" fill="#263238" mask="url(#path-186-outside-4_257_9113)"/>
<mask id="path-188-outside-5_257_9113" maskUnits="userSpaceOnUse" x="102" y="46" width="3" height="5" fill="black">
<rect fill="white" x="102" y="46" width="3" height="5"/>
<path d="M104.637 49.9238C104.412 50.0137 104.194 50.0586 103.983 50.0586C103.765 50.0586 103.571 50.0127 103.403 49.9209C103.237 49.8271 103.107 49.6973 103.014 49.5312C102.92 49.3633 102.873 49.1699 102.873 48.9512V47.8203H102.36V47.0703H102.917V46.3379H103.714V47.0703H104.525V47.8203H103.714V48.7988C103.714 48.959 103.758 49.084 103.846 49.1738C103.934 49.2617 104.043 49.3057 104.174 49.3057C104.293 49.3057 104.409 49.2686 104.522 49.1943L104.637 49.9238Z"/>
</mask>
<path d="M104.637 49.9238C104.412 50.0137 104.194 50.0586 103.983 50.0586C103.765 50.0586 103.571 50.0127 103.403 49.9209C103.237 49.8271 103.107 49.6973 103.014 49.5312C102.92 49.3633 102.873 49.1699 102.873 48.9512V47.8203H102.36V47.0703H102.917V46.3379H103.714V47.0703H104.525V47.8203H103.714V48.7988C103.714 48.959 103.758 49.084 103.846 49.1738C103.934 49.2617 104.043 49.3057 104.174 49.3057C104.293 49.3057 104.409 49.2686 104.522 49.1943L104.637 49.9238Z" fill="white"/>
<path d="M104.637 49.9238L104.748 50.2024L104.97 50.1136L104.933 49.8774L104.637 49.9238ZM103.403 49.9209L103.256 50.1821L103.259 50.1842L103.403 49.9209ZM103.014 49.5312L102.752 49.6775L102.752 49.6788L103.014 49.5312ZM102.873 47.8203H103.173V47.5203H102.873V47.8203ZM102.36 47.8203H102.06V48.1203H102.36V47.8203ZM102.36 47.0703V46.7703H102.06V47.0703H102.36ZM102.917 47.0703V47.3703H103.217V47.0703H102.917ZM102.917 46.3379V46.0379H102.617V46.3379H102.917ZM103.714 46.3379H104.014V46.0379H103.714V46.3379ZM103.714 47.0703H103.414V47.3703H103.714V47.0703ZM104.525 47.0703H104.825V46.7703H104.525V47.0703ZM104.525 47.8203V48.1203H104.825V47.8203H104.525ZM103.714 47.8203V47.5203H103.414V47.8203H103.714ZM103.846 49.1738L103.631 49.3836L103.634 49.386L103.846 49.1738ZM104.522 49.1943L104.819 49.1479L104.747 48.6886L104.358 48.9434L104.522 49.1943ZM104.525 49.6453C104.331 49.723 104.151 49.7586 103.983 49.7586V50.3586C104.238 50.3586 104.493 50.3043 104.748 50.2024L104.525 49.6453ZM103.983 49.7586C103.808 49.7586 103.665 49.7221 103.547 49.6576L103.259 50.1842C103.477 50.3033 103.722 50.3586 103.983 50.3586V49.7586ZM103.551 49.6597C103.432 49.5928 103.342 49.5022 103.275 49.3837L102.752 49.6788C102.873 49.8923 103.042 50.0615 103.256 50.1821L103.551 49.6597ZM103.276 49.385C103.21 49.2676 103.173 49.1259 103.173 48.9512H102.573C102.573 49.214 102.63 49.459 102.752 49.6775L103.276 49.385ZM103.173 48.9512V47.8203H102.573V48.9512H103.173ZM102.873 47.5203H102.36V48.1203H102.873V47.5203ZM102.66 47.8203V47.0703H102.06V47.8203H102.66ZM102.36 47.3703H102.917V46.7703H102.36V47.3703ZM103.217 47.0703V46.3379H102.617V47.0703H103.217ZM102.917 46.6379H103.714V46.0379H102.917V46.6379ZM103.414 46.3379V47.0703H104.014V46.3379H103.414ZM103.714 47.3703H104.525V46.7703H103.714V47.3703ZM104.225 47.0703V47.8203H104.825V47.0703H104.225ZM104.525 47.5203H103.714V48.1203H104.525V47.5203ZM103.414 47.8203V48.7988H104.014V47.8203H103.414ZM103.414 48.7988C103.414 49.0149 103.475 49.2235 103.631 49.3836L104.06 48.964C104.041 48.9445 104.014 48.9031 104.014 48.7988H103.414ZM103.634 49.386C103.781 49.5333 103.968 49.6057 104.174 49.6057V49.0057C104.118 49.0057 104.086 48.9901 104.058 48.9617L103.634 49.386ZM104.174 49.6057C104.359 49.6057 104.532 49.547 104.687 49.4453L104.358 48.9434C104.287 48.9901 104.227 49.0057 104.174 49.0057V49.6057ZM104.226 49.2408L104.34 49.9703L104.933 49.8774L104.819 49.1479L104.226 49.2408Z" fill="#263238" mask="url(#path-188-outside-5_257_9113)"/>
<defs>
<linearGradient id="paint0_linear_257_9113" x1="57.5" y1="12" x2="61" y2="20.5" gradientUnits="userSpaceOnUse">
<stop stop-color="white"/>
<stop offset="1" stop-color="#B0B0B0"/>
</linearGradient>
</defs>
</svg>
