<svg width="198" height="242" viewBox="0 0 198 242" fill="none" xmlns="http://www.w3.org/2000/svg">
<g filter="url(#filter0_d_19_21)">
<g clip-path="url(#clip0_19_21)">
<g filter="url(#filter1_d_19_21)">
<path d="M4 108.471C4 102.111 7.76685 96.3545 13.595 93.8085L171.595 24.7874C182.165 20.17 194 27.9149 194 39.4495V221C194 229.837 186.837 237 178 237H20C11.1634 237 4 229.837 4 221V108.471Z" fill="#3DB678"/>
</g>
<g opacity="0.2" filter="url(#filter2_d_19_21)">
<circle cx="55.1067" cy="232.752" r="125.122" transform="rotate(6.32385 55.1067 232.752)" fill="url(#paint0_linear_19_21)"/>
<circle cx="55.1067" cy="232.752" r="124.872" transform="rotate(6.32385 55.1067 232.752)" stroke="white" stroke-width="0.5"/>
</g>
<path d="M24.24 196L21.028 190.17H20.126V196H16.364V180.556H22.678C23.8953 180.556 24.9293 180.769 25.78 181.194C26.6453 181.619 27.2907 182.206 27.716 182.954C28.1413 183.687 28.354 184.509 28.354 185.418C28.354 186.445 28.0607 187.361 27.474 188.168C26.902 188.975 26.0513 189.547 24.922 189.884L28.486 196H24.24ZM20.126 187.508H22.458C23.1473 187.508 23.6607 187.339 23.998 187.002C24.35 186.665 24.526 186.188 24.526 185.572C24.526 184.985 24.35 184.523 23.998 184.186C23.6607 183.849 23.1473 183.68 22.458 183.68H20.126V187.508ZM42.2876 189.664C42.2876 190.016 42.2656 190.383 42.2216 190.764H33.7076C33.7662 191.527 34.0082 192.113 34.4336 192.524C34.8736 192.92 35.4089 193.118 36.0396 193.118C36.9782 193.118 37.6309 192.722 37.9976 191.93H42.0016C41.7962 192.737 41.4222 193.463 40.8796 194.108C40.3516 194.753 39.6842 195.259 38.8776 195.626C38.0709 195.993 37.1689 196.176 36.1716 196.176C34.9689 196.176 33.8982 195.919 32.9596 195.406C32.0209 194.893 31.2876 194.159 30.7596 193.206C30.2316 192.253 29.9676 191.138 29.9676 189.862C29.9676 188.586 30.2242 187.471 30.7376 186.518C31.2656 185.565 31.9989 184.831 32.9376 184.318C33.8762 183.805 34.9542 183.548 36.1716 183.548C37.3596 183.548 38.4156 183.797 39.3396 184.296C40.2636 184.795 40.9822 185.506 41.4956 186.43C42.0236 187.354 42.2876 188.432 42.2876 189.664ZM38.4376 188.674C38.4376 188.029 38.2176 187.515 37.7776 187.134C37.3376 186.753 36.7876 186.562 36.1276 186.562C35.4969 186.562 34.9616 186.745 34.5216 187.112C34.0962 187.479 33.8322 187.999 33.7296 188.674H38.4376ZM48.9362 183.548C49.8015 183.548 50.5569 183.724 51.2022 184.076C51.8622 184.428 52.3682 184.89 52.7202 185.462V183.724H56.4822V195.978C56.4822 197.107 56.2549 198.127 55.8002 199.036C55.3602 199.96 54.6782 200.693 53.7542 201.236C52.8449 201.779 51.7082 202.05 50.3442 202.05C48.5255 202.05 47.0515 201.617 45.9222 200.752C44.7929 199.901 44.1475 198.743 43.9862 197.276H47.7042C47.8215 197.745 48.1002 198.112 48.5402 198.376C48.9802 198.655 49.5229 198.794 50.1682 198.794C50.9455 198.794 51.5615 198.567 52.0162 198.112C52.4855 197.672 52.7202 196.961 52.7202 195.978V194.24C52.3535 194.812 51.8475 195.281 51.2022 195.648C50.5569 196 49.8015 196.176 48.9362 196.176C47.9242 196.176 47.0075 195.919 46.1862 195.406C45.3649 194.878 44.7122 194.137 44.2282 193.184C43.7589 192.216 43.5242 191.101 43.5242 189.84C43.5242 188.579 43.7589 187.471 44.2282 186.518C44.7122 185.565 45.3649 184.831 46.1862 184.318C47.0075 183.805 47.9242 183.548 48.9362 183.548ZM52.7202 189.862C52.7202 188.923 52.4562 188.183 51.9282 187.64C51.4149 187.097 50.7842 186.826 50.0362 186.826C49.2882 186.826 48.6502 187.097 48.1222 187.64C47.6089 188.168 47.3522 188.901 47.3522 189.84C47.3522 190.779 47.6089 191.527 48.1222 192.084C48.6502 192.627 49.2882 192.898 50.0362 192.898C50.7842 192.898 51.4149 192.627 51.9282 192.084C52.4562 191.541 52.7202 190.801 52.7202 189.862ZM61.0958 182.448C60.4358 182.448 59.8932 182.257 59.4678 181.876C59.0572 181.48 58.8518 180.996 58.8518 180.424C58.8518 179.837 59.0572 179.353 59.4678 178.972C59.8932 178.576 60.4358 178.378 61.0958 178.378C61.7412 178.378 62.2692 178.576 62.6798 178.972C63.1052 179.353 63.3178 179.837 63.3178 180.424C63.3178 180.996 63.1052 181.48 62.6798 181.876C62.2692 182.257 61.7412 182.448 61.0958 182.448ZM62.9658 183.724V196H59.2038V183.724H62.9658ZM70.6861 196.176C69.6155 196.176 68.6621 195.993 67.8261 195.626C66.9901 195.259 66.3301 194.761 65.8461 194.13C65.3621 193.485 65.0908 192.766 65.0321 191.974H68.7501C68.7941 192.399 68.9921 192.744 69.3441 193.008C69.6961 193.272 70.1288 193.404 70.6421 193.404C71.1115 193.404 71.4708 193.316 71.7201 193.14C71.9841 192.949 72.1161 192.707 72.1161 192.414C72.1161 192.062 71.9328 191.805 71.5661 191.644C71.1995 191.468 70.6055 191.277 69.7841 191.072C68.9041 190.867 68.1708 190.654 67.5841 190.434C66.9975 190.199 66.4915 189.84 66.0661 189.356C65.6408 188.857 65.4281 188.19 65.4281 187.354C65.4281 186.65 65.6188 186.012 66.0001 185.44C66.3961 184.853 66.9681 184.391 67.7161 184.054C68.4788 183.717 69.3808 183.548 70.4221 183.548C71.9621 183.548 73.1721 183.929 74.0521 184.692C74.9468 185.455 75.4601 186.467 75.5921 187.728H72.1161C72.0575 187.303 71.8668 186.965 71.5441 186.716C71.2361 186.467 70.8255 186.342 70.3121 186.342C69.8721 186.342 69.5348 186.43 69.3001 186.606C69.0655 186.767 68.9481 186.995 68.9481 187.288C68.9481 187.64 69.1315 187.904 69.4981 188.08C69.8795 188.256 70.4661 188.432 71.2581 188.608C72.1675 188.843 72.9081 189.077 73.4801 189.312C74.0521 189.532 74.5508 189.899 74.9761 190.412C75.4161 190.911 75.6435 191.585 75.6581 192.436C75.6581 193.155 75.4528 193.8 75.0421 194.372C74.6461 194.929 74.0668 195.369 73.3041 195.692C72.5561 196.015 71.6835 196.176 70.6861 196.176ZM84.8017 192.81V196H82.8877C81.5237 196 80.4604 195.67 79.6977 195.01C78.935 194.335 78.5537 193.243 78.5537 191.732V186.848H77.0577V183.724H78.5537V180.732H82.3157V183.724H84.7797V186.848H82.3157V191.776C82.3157 192.143 82.4037 192.407 82.5797 192.568C82.7557 192.729 83.049 192.81 83.4597 192.81H84.8017ZM98.4692 189.664C98.4692 190.016 98.4472 190.383 98.4032 190.764H89.8892C89.9479 191.527 90.1899 192.113 90.6152 192.524C91.0552 192.92 91.5905 193.118 92.2212 193.118C93.1599 193.118 93.8125 192.722 94.1792 191.93H98.1832C97.9779 192.737 97.6039 193.463 97.0612 194.108C96.5332 194.753 95.8659 195.259 95.0592 195.626C94.2525 195.993 93.3505 196.176 92.3532 196.176C91.1505 196.176 90.0799 195.919 89.1412 195.406C88.2025 194.893 87.4692 194.159 86.9412 193.206C86.4132 192.253 86.1492 191.138 86.1492 189.862C86.1492 188.586 86.4059 187.471 86.9192 186.518C87.4472 185.565 88.1805 184.831 89.1192 184.318C90.0579 183.805 91.1359 183.548 92.3532 183.548C93.5412 183.548 94.5972 183.797 95.5212 184.296C96.4452 184.795 97.1639 185.506 97.6772 186.43C98.2052 187.354 98.4692 188.432 98.4692 189.664ZM94.6192 188.674C94.6192 188.029 94.3992 187.515 93.9592 187.134C93.5192 186.753 92.9692 186.562 92.3092 186.562C91.6785 186.562 91.1432 186.745 90.7032 187.112C90.2779 187.479 90.0139 187.999 89.9112 188.674H94.6192ZM104.216 185.77C104.656 185.095 105.206 184.567 105.866 184.186C106.526 183.79 107.259 183.592 108.066 183.592V187.574H107.032C106.093 187.574 105.389 187.779 104.92 188.19C104.451 188.586 104.216 189.29 104.216 190.302V196H100.454V183.724H104.216V185.77ZM20.126 216.57V219.694H25.164V222.598H20.126V225.986H25.824V229H16.364V213.556H25.824V216.57H20.126ZM43.9303 216.592C45.4557 216.592 46.6657 217.054 47.5603 217.978C48.4697 218.902 48.9243 220.185 48.9243 221.828V229H45.1843V222.334C45.1843 221.542 44.9717 220.933 44.5463 220.508C44.1357 220.068 43.5637 219.848 42.8303 219.848C42.097 219.848 41.5177 220.068 41.0923 220.508C40.6817 220.933 40.4763 221.542 40.4763 222.334V229H36.7363V222.334C36.7363 221.542 36.5237 220.933 36.0983 220.508C35.6877 220.068 35.1157 219.848 34.3823 219.848C33.649 219.848 33.0697 220.068 32.6443 220.508C32.2337 220.933 32.0283 221.542 32.0283 222.334V229H28.2663V216.724H32.0283V218.264C32.4097 217.751 32.9083 217.347 33.5243 217.054C34.1403 216.746 34.837 216.592 35.6143 216.592C36.5383 216.592 37.3597 216.79 38.0783 217.186C38.8117 217.582 39.3837 218.147 39.7943 218.88C40.2197 218.205 40.799 217.655 41.5323 217.23C42.2657 216.805 43.065 216.592 43.9303 216.592ZM55.3174 218.462C55.6841 217.89 56.1901 217.428 56.8354 217.076C57.4807 216.724 58.2361 216.548 59.1014 216.548C60.1134 216.548 61.0301 216.805 61.8514 217.318C62.6727 217.831 63.3181 218.565 63.7874 219.518C64.2714 220.471 64.5134 221.579 64.5134 222.84C64.5134 224.101 64.2714 225.216 63.7874 226.184C63.3181 227.137 62.6727 227.878 61.8514 228.406C61.0301 228.919 60.1134 229.176 59.1014 229.176C58.2507 229.176 57.4954 229 56.8354 228.648C56.1901 228.296 55.6841 227.841 55.3174 227.284V234.852H51.5554V216.724H55.3174V218.462ZM60.6854 222.84C60.6854 221.901 60.4214 221.168 59.8934 220.64C59.3801 220.097 58.7421 219.826 57.9794 219.826C57.2314 219.826 56.5934 220.097 56.0654 220.64C55.5521 221.183 55.2954 221.923 55.2954 222.862C55.2954 223.801 55.5521 224.541 56.0654 225.084C56.5934 225.627 57.2314 225.898 57.9794 225.898C58.7274 225.898 59.3654 225.627 59.8934 225.084C60.4214 224.527 60.6854 223.779 60.6854 222.84ZM70.249 212.72V229H66.487V212.72H70.249ZM78.5633 229.176C77.3607 229.176 76.2753 228.919 75.3073 228.406C74.354 227.893 73.5987 227.159 73.0413 226.206C72.4987 225.253 72.2273 224.138 72.2273 222.862C72.2273 221.601 72.506 220.493 73.0633 219.54C73.6207 218.572 74.3833 217.831 75.3513 217.318C76.3193 216.805 77.4047 216.548 78.6073 216.548C79.81 216.548 80.8953 216.805 81.8633 217.318C82.8313 217.831 83.594 218.572 84.1513 219.54C84.7087 220.493 84.9873 221.601 84.9873 222.862C84.9873 224.123 84.7013 225.238 84.1293 226.206C83.572 227.159 82.802 227.893 81.8193 228.406C80.8513 228.919 79.766 229.176 78.5633 229.176ZM78.5633 225.92C79.282 225.92 79.8907 225.656 80.3893 225.128C80.9027 224.6 81.1593 223.845 81.1593 222.862C81.1593 221.879 80.91 221.124 80.4113 220.596C79.9273 220.068 79.326 219.804 78.6073 219.804C77.874 219.804 77.2653 220.068 76.7813 220.596C76.2973 221.109 76.0553 221.865 76.0553 222.862C76.0553 223.845 76.29 224.6 76.7593 225.128C77.2433 225.656 77.8447 225.92 78.5633 225.92ZM99.5231 216.724L91.8231 234.83H87.7751L90.5911 228.582L85.5971 216.724H89.7991L92.6371 224.402L95.4531 216.724H99.5231ZM112.456 222.664C112.456 223.016 112.434 223.383 112.39 223.764H103.876C103.934 224.527 104.176 225.113 104.602 225.524C105.042 225.92 105.577 226.118 106.208 226.118C107.146 226.118 107.799 225.722 108.166 224.93H112.17C111.964 225.737 111.59 226.463 111.048 227.108C110.52 227.753 109.852 228.259 109.046 228.626C108.239 228.993 107.337 229.176 106.34 229.176C105.137 229.176 104.066 228.919 103.128 228.406C102.189 227.893 101.456 227.159 100.928 226.206C100.4 225.253 100.136 224.138 100.136 222.862C100.136 221.586 100.392 220.471 100.906 219.518C101.434 218.565 102.167 217.831 103.106 217.318C104.044 216.805 105.122 216.548 106.34 216.548C107.528 216.548 108.584 216.797 109.508 217.296C110.432 217.795 111.15 218.506 111.664 219.43C112.192 220.354 112.456 221.432 112.456 222.664ZM108.606 221.674C108.606 221.029 108.386 220.515 107.946 220.134C107.506 219.753 106.956 219.562 106.296 219.562C105.665 219.562 105.13 219.745 104.69 220.112C104.264 220.479 104 220.999 103.898 221.674H108.606ZM126.012 222.664C126.012 223.016 125.99 223.383 125.946 223.764H117.432C117.491 224.527 117.733 225.113 118.158 225.524C118.598 225.92 119.134 226.118 119.764 226.118C120.703 226.118 121.356 225.722 121.722 224.93H125.726C125.521 225.737 125.147 226.463 124.604 227.108C124.076 227.753 123.409 228.259 122.602 228.626C121.796 228.993 120.894 229.176 119.896 229.176C118.694 229.176 117.623 228.919 116.684 228.406C115.746 227.893 115.012 227.159 114.484 226.206C113.956 225.253 113.692 224.138 113.692 222.862C113.692 221.586 113.949 220.471 114.462 219.518C114.99 218.565 115.724 217.831 116.662 217.318C117.601 216.805 118.679 216.548 119.896 216.548C121.084 216.548 122.14 216.797 123.064 217.296C123.988 217.795 124.707 218.506 125.22 219.43C125.748 220.354 126.012 221.432 126.012 222.664ZM122.162 221.674C122.162 221.029 121.942 220.515 121.502 220.134C121.062 219.753 120.512 219.562 119.852 219.562C119.222 219.562 118.686 219.745 118.246 220.112C117.821 220.479 117.557 220.999 117.454 221.674H122.162Z" fill="white"/>
<path d="M126.912 129.6H126.912C127.529 129.599 128.12 129.353 128.556 128.917C128.992 128.481 129.238 127.89 129.239 127.273V127.273V27.2268V27.2266C129.238 26.6099 128.992 26.0187 128.556 25.5826C128.12 25.1465 127.529 24.901 126.912 24.9H126.912L58.2268 24.9L58.2266 24.9C57.6099 24.901 57.0187 25.1465 56.5826 25.5826C56.1465 26.0187 55.901 26.6099 55.9 27.2266V27.2268L55.9 127.273L55.9 127.273C55.901 127.89 56.1465 128.481 56.5826 128.917C57.0187 129.353 57.6099 129.599 58.2266 129.6H58.2268H126.912ZM58.2268 25.1988L58.2268 25.1988L126.912 25.195C127.451 25.195 127.967 25.4091 128.349 25.7901C128.73 26.1711 128.944 26.6879 128.944 27.2268V127.273C128.944 127.812 128.73 128.329 128.349 128.71C127.967 129.091 127.451 129.305 126.912 129.305H58.2268C57.6879 129.305 57.1711 129.091 56.7901 128.71C56.4091 128.329 56.195 127.812 56.195 127.273V27.2269C56.196 26.6887 56.4105 26.1729 56.7914 25.7926C57.1723 25.4124 57.6886 25.1988 58.2268 25.1988Z" fill="#F0F0F0" stroke="#F0F0F0" stroke-width="0.2"/>
<path d="M99 164.473C139.691 164.473 172.678 162.547 172.678 160.171C172.678 157.796 139.691 155.87 99 155.87C58.3086 155.87 25.3218 157.796 25.3218 160.171C25.3218 162.547 58.3086 164.473 99 164.473Z" fill="#F5F5F5"/>
<path d="M157.25 161.003H93.319C93.0386 161.009 92.7602 160.955 92.5028 160.844C92.2454 160.732 92.015 160.567 91.8274 160.358C91.6399 160.15 91.4995 159.903 91.4159 159.635C91.3323 159.368 91.3074 159.085 91.343 158.807L102.314 49.9673C102.383 49.371 102.666 48.8201 103.111 48.4164C103.555 48.0126 104.13 47.7833 104.73 47.7709H168.662C168.942 47.7654 169.22 47.8203 169.477 47.9319C169.734 48.0434 169.964 48.209 170.152 48.4174C170.339 48.6257 170.48 48.872 170.563 49.1394C170.647 49.4069 170.673 49.6892 170.638 49.9673L159.667 158.807C159.597 159.403 159.314 159.954 158.87 160.358C158.426 160.762 157.85 160.991 157.25 161.003Z" fill="#B63D6D"/>
<path d="M147.678 56.0169H124.053C123.828 56.0215 123.605 55.9775 123.399 55.888C123.192 55.7984 123.008 55.6655 122.857 55.4982C122.707 55.3308 122.594 55.1331 122.527 54.9183C122.46 54.7036 122.44 54.4769 122.469 54.2537L123.126 47.7063C123.141 47.6221 123.183 47.5452 123.246 47.488C123.31 47.4307 123.391 47.3966 123.476 47.3909H149.996C150.036 47.39 150.076 47.3978 150.113 47.4138C150.15 47.4298 150.183 47.4537 150.209 47.4837C150.236 47.5137 150.256 47.5491 150.268 47.5876C150.28 47.626 150.283 47.6665 150.277 47.7063L149.62 54.2537C149.563 54.7324 149.335 55.1744 148.979 55.4984C148.622 55.8224 148.16 56.0065 147.678 56.0169Z" fill="#263238"/>
<path d="M137.038 44.3966C136.555 44.4062 136.092 44.5905 135.734 44.9153C135.376 45.2402 135.148 45.6836 135.092 46.1636L134.815 48.9072H138.349L138.623 46.1636C138.652 45.9401 138.632 45.713 138.565 45.4978C138.499 45.2826 138.386 45.0843 138.236 44.9166C138.085 44.7488 137.9 44.6155 137.694 44.5258C137.487 44.436 137.263 44.392 137.038 44.3966ZM136.772 47.0262C136.681 47.0286 136.59 47.0112 136.506 46.9752C136.422 46.9391 136.347 46.8852 136.286 46.8173C136.225 46.7494 136.179 46.669 136.152 46.5817C136.125 46.4944 136.118 46.4023 136.13 46.3118C136.153 46.1182 136.245 45.9395 136.39 45.8089C136.534 45.6782 136.722 45.6044 136.916 45.6012C137.007 45.5994 137.097 45.6172 137.181 45.6532C137.264 45.6893 137.339 45.7428 137.399 45.8102C137.46 45.8775 137.506 45.9571 137.533 46.0437C137.561 46.1302 137.569 46.2216 137.559 46.3118C137.536 46.5057 137.444 46.6848 137.299 46.8161C137.154 46.9474 136.967 47.022 136.772 47.0262Z" fill="#263238"/>
<path d="M147.393 54.4019H137.828C137.777 54.4017 137.727 54.3912 137.68 54.371C137.633 54.3507 137.59 54.3212 137.555 54.2841C137.519 54.2474 137.492 54.2039 137.473 54.1563C137.455 54.1086 137.447 54.0577 137.448 54.0067C137.456 53.8416 137.431 53.6765 137.374 53.5212C137.318 53.3659 137.23 53.2235 137.118 53.1023C137.003 52.9859 136.865 52.8939 136.714 52.8319C136.562 52.7699 136.4 52.7391 136.236 52.7413C135.861 52.7499 135.501 52.8883 135.217 53.1329C134.933 53.3776 134.742 53.7133 134.678 54.0827C134.664 54.1726 134.617 54.2543 134.548 54.3129C134.478 54.3715 134.389 54.4031 134.298 54.4019H124.741C124.688 54.4023 124.634 54.3914 124.585 54.3698C124.536 54.3481 124.492 54.3164 124.456 54.2765C124.421 54.2371 124.394 54.1907 124.378 54.1403C124.361 54.0899 124.356 54.0366 124.361 53.9839L124.84 49.2453C124.849 49.1513 124.894 49.0641 124.964 49.0009C125.034 48.9376 125.125 48.9029 125.22 48.9033H147.868C147.921 48.9031 147.974 48.914 148.023 48.9354C148.072 48.9568 148.115 48.9883 148.151 49.0277C148.187 49.0671 148.214 49.1136 148.231 49.1642C148.247 49.2148 148.253 49.2683 148.248 49.3213L147.769 54.0599C147.76 54.1533 147.716 54.24 147.647 54.3031C147.577 54.3663 147.487 54.4015 147.393 54.4019ZM138.186 53.6419H147.047L147.45 49.6633H125.562L125.159 53.6419H134.006C134.159 53.1676 134.456 52.7529 134.856 52.4552C135.255 52.1576 135.738 51.992 136.236 51.9813C136.707 51.9745 137.165 52.1392 137.523 52.4447C137.882 52.7503 138.117 53.1757 138.186 53.6419Z" fill="white"/>
<path d="M146.082 49.31C146.083 49.2053 146.112 49.1027 146.164 49.0122C146.217 48.9216 146.292 48.8462 146.382 48.7932H126.622C126.532 48.8462 126.457 48.9216 126.404 49.0122C126.352 49.1027 126.323 49.2053 126.322 49.31C126.28 49.7204 126.516 49.8268 126.516 49.8268H146.276C146.276 49.8268 146.04 49.7204 146.082 49.31Z" fill="#B63D6D"/>
<path d="M157.463 157.678H94.0904L104.833 51.0923H168.206L157.463 157.678Z" fill="white"/>
<path d="M163.174 62.3402H107.634C107.583 62.3402 107.535 62.3202 107.499 62.2846C107.464 62.2489 107.444 62.2006 107.444 62.1502C107.444 62.0998 107.464 62.0515 107.499 62.0159C107.535 61.9802 107.583 61.9602 107.634 61.9602H163.174C163.225 61.9602 163.273 61.9802 163.309 62.0159C163.344 62.0515 163.364 62.0998 163.364 62.1502C163.364 62.2006 163.344 62.2489 163.309 62.2846C163.273 62.3202 163.225 62.3402 163.174 62.3402Z" fill="#263238"/>
<path d="M114.869 57.2976C114.771 58.1151 114.382 58.8699 113.772 59.4234C113.163 59.977 112.374 60.2921 111.551 60.311C111.166 60.3216 110.783 60.2483 110.429 60.0963C110.075 59.9443 109.758 59.7171 109.5 59.4305C109.243 59.1439 109.05 58.8047 108.937 58.4364C108.823 58.0682 108.791 57.6796 108.842 57.2976C108.94 56.4801 109.329 55.7253 109.938 55.1718C110.548 54.6182 111.336 54.3031 112.159 54.2842C112.545 54.2736 112.928 54.3469 113.282 54.4989C113.636 54.6509 113.953 54.8781 114.211 55.1647C114.468 55.4513 114.661 55.7905 114.774 56.1588C114.888 56.5271 114.92 56.9156 114.869 57.2976Z" fill="#B63D6D"/>
<path d="M110.142 56.8455C110.142 56.8455 108.523 58.9811 109.002 59.6309C109.48 60.2807 113.976 56.6251 115.055 55.3711C116.134 54.1171 114.869 54.6111 114.869 54.6111C114.869 54.6111 115.344 54.6377 115.089 55.0215C114.569 55.8119 110.301 58.6315 109.868 58.4795C109.435 58.3275 110.142 56.8455 110.142 56.8455Z" fill="#263238"/>
<path d="M163.083 56.2869H157.383C157.282 56.2869 157.186 56.2468 157.115 56.1756C157.043 56.1043 157.003 56.0076 157.003 55.9069C157.003 55.8061 157.043 55.7094 157.115 55.6382C157.186 55.5669 157.282 55.5269 157.383 55.5269H163.083C163.184 55.5269 163.281 55.5669 163.352 55.6382C163.423 55.7094 163.463 55.8061 163.463 55.9069C163.463 56.0076 163.423 56.1043 163.352 56.1756C163.281 56.2468 163.184 56.2869 163.083 56.2869Z" fill="#263238"/>
<path d="M162.905 58.0576H159.222C159.122 58.0576 159.025 58.0176 158.954 57.9463C158.882 57.875 158.842 57.7784 158.842 57.6776C158.842 57.5768 158.882 57.4802 158.954 57.4089C159.025 57.3376 159.122 57.2976 159.222 57.2976H162.905C163.005 57.2976 163.102 57.3376 163.173 57.4089C163.245 57.4802 163.285 57.5768 163.285 57.6776C163.285 57.7784 163.245 57.875 163.173 57.9463C163.102 58.0176 163.005 58.0576 162.905 58.0576Z" fill="#263238"/>
<path d="M162.726 59.8284H153.104C153.004 59.8284 152.907 59.7883 152.836 59.7171C152.764 59.6458 152.724 59.5491 152.724 59.4484C152.724 59.3476 152.764 59.2509 152.836 59.1797C152.907 59.1084 153.004 59.0684 153.104 59.0684H162.726C162.827 59.0684 162.923 59.1084 162.995 59.1797C163.066 59.2509 163.106 59.3476 163.106 59.4484C163.106 59.5491 163.066 59.6458 162.995 59.7171C162.923 59.7883 162.827 59.8284 162.726 59.8284Z" fill="#263238"/>
<path d="M122.001 66.9002C122.05 66.4411 122.27 66.0172 122.617 65.713C122.964 65.4087 123.413 65.2465 123.875 65.2586C124.104 65.2458 124.333 65.2873 124.543 65.3797C124.753 65.4722 124.938 65.613 125.083 65.7906L124.665 66.1516C124.568 66.0294 124.443 65.9315 124.301 65.8656C124.16 65.7996 124.005 65.7675 123.848 65.7716C123.536 65.7638 123.233 65.8754 123 66.0838C122.768 66.2922 122.624 66.5816 122.598 66.8926C122.571 67.0383 122.579 67.1882 122.619 67.3307C122.659 67.4732 122.732 67.6045 122.831 67.7146C122.93 67.8247 123.053 67.9106 123.191 67.9657C123.328 68.0209 123.476 68.0437 123.624 68.0326C123.79 68.0324 123.955 67.9986 124.107 67.9333C124.26 67.868 124.398 67.7725 124.513 67.6526L124.859 68.0326C124.688 68.2074 124.482 68.3451 124.255 68.4372C124.028 68.5294 123.785 68.5741 123.54 68.5684C123.323 68.5856 123.104 68.553 122.9 68.4733C122.697 68.3935 122.514 68.2686 122.366 68.108C122.218 67.9474 122.108 67.7552 122.045 67.546C121.982 67.3368 121.967 67.116 122.001 66.9002Z" fill="black"/>
<path d="M125.247 66.9002C125.298 66.4374 125.522 66.0112 125.875 65.7068C126.227 65.4024 126.681 65.2423 127.147 65.2586C127.363 65.2412 127.58 65.2725 127.782 65.3502C127.984 65.4279 128.167 65.5501 128.315 65.7076C128.464 65.8652 128.576 66.0541 128.642 66.2605C128.708 66.4669 128.727 66.6855 128.697 66.9002C128.647 67.3599 128.425 67.7839 128.077 68.088C127.728 68.3921 127.278 68.5541 126.816 68.5418C126.599 68.5608 126.38 68.5307 126.176 68.4538C125.972 68.3769 125.788 68.2552 125.637 68.0976C125.487 67.94 125.373 67.7506 125.306 67.5434C125.238 67.3361 125.218 67.1163 125.247 66.9002ZM128.085 66.9002C128.109 66.7574 128.1 66.6112 128.059 66.4723C128.019 66.3334 127.948 66.2054 127.851 66.0978C127.754 65.9902 127.635 65.9057 127.501 65.8505C127.367 65.7954 127.223 65.771 127.078 65.7792C126.769 65.7761 126.47 65.8899 126.241 66.0977C126.012 66.3055 125.87 66.5921 125.843 66.9002C125.817 67.0442 125.824 67.1923 125.863 67.3333C125.903 67.4742 125.974 67.6045 126.071 67.7142C126.167 67.8239 126.288 67.9102 126.423 67.9667C126.558 68.0231 126.704 68.0483 126.85 68.0402C127.162 68.0429 127.464 67.9265 127.693 67.7147C127.923 67.5029 128.063 67.2116 128.085 66.9002Z" fill="black"/>
<path d="M132.311 65.3042L131.988 68.4962H131.501L129.959 66.334L129.742 68.5H129.153L129.476 65.308H129.962L131.505 67.4702L131.722 65.308L132.311 65.3042Z" fill="black"/>
<path d="M133.766 65.8058H132.706L132.759 65.3042H135.48L135.431 65.8058H134.374L134.101 68.4962H133.508L133.766 65.8058Z" fill="black"/>
<path d="M137.68 68.5L137.122 67.5652H136.278L136.183 68.4962H135.59L135.913 65.3042H137.228C138.064 65.3042 138.543 65.7336 138.471 66.4442C138.453 66.6702 138.369 66.8861 138.23 67.0651C138.091 67.2441 137.902 67.3783 137.688 67.4512L138.319 68.5H137.68ZM137.148 65.8096H136.457L136.327 67.0826H137.019C137.54 67.0826 137.832 66.8432 137.874 66.4442C137.916 66.0452 137.669 65.8058 137.148 65.8058V65.8096Z" fill="black"/>
<path d="M141.07 67.7399H139.474L139.094 68.4999H138.482L140.238 65.3079H140.8L141.94 68.4999H141.321L141.07 67.7399ZM140.922 67.2763L140.458 65.8817L139.721 67.2763H140.922Z" fill="black"/>
<path d="M142.229 66.9002C142.277 66.4411 142.497 66.0172 142.844 65.713C143.192 65.4087 143.641 65.2465 144.102 65.2586C144.331 65.2458 144.56 65.2873 144.77 65.3797C144.98 65.4722 145.165 65.613 145.311 65.7906L144.893 66.1516C144.795 66.0294 144.671 65.9315 144.529 65.8656C144.387 65.7996 144.232 65.7675 144.076 65.7716C143.764 65.7647 143.461 65.8767 143.229 66.0849C142.997 66.2931 142.852 66.5819 142.825 66.8926C142.799 67.0383 142.806 67.1882 142.846 67.3307C142.887 67.4732 142.959 67.6045 143.058 67.7146C143.158 67.8247 143.281 67.9106 143.418 67.9657C143.555 68.0209 143.704 68.0437 143.851 68.0326C144.018 68.0326 144.182 67.9989 144.335 67.9336C144.488 67.8683 144.626 67.7727 144.741 67.6526L145.086 68.0326C144.915 68.2074 144.709 68.3451 144.483 68.4372C144.256 68.5294 144.013 68.5741 143.768 68.5684C143.55 68.5848 143.332 68.5518 143.128 68.4718C142.925 68.3918 142.743 68.2669 142.595 68.1064C142.447 67.946 142.337 67.7542 142.274 67.5453C142.21 67.3364 142.195 67.1159 142.229 66.9002Z" fill="black"/>
<path d="M146.5 65.8058H145.436L145.485 65.3042H148.191L148.142 65.8058H147.085L146.812 68.4962H146.223L146.5 65.8058Z" fill="black"/>
<path d="M120.155 72.9802H107.235C107.134 72.9802 107.037 72.9402 106.966 72.8689C106.895 72.7977 106.855 72.701 106.855 72.6002C106.855 72.4994 106.895 72.4028 106.966 72.3315C107.037 72.2603 107.134 72.2202 107.235 72.2202H120.155C120.255 72.2202 120.352 72.2603 120.423 72.3315C120.495 72.4028 120.535 72.4994 120.535 72.6002C120.535 72.701 120.495 72.7977 120.423 72.8689C120.352 72.9402 120.255 72.9802 120.155 72.9802Z" fill="#263238"/>
<path d="M113.493 75.0322H107.033C106.932 75.0322 106.836 74.9922 106.764 74.9209C106.693 74.8497 106.653 74.753 106.653 74.6522C106.653 74.5514 106.693 74.4548 106.764 74.3835C106.836 74.3123 106.932 74.2722 107.033 74.2722H113.493C113.594 74.2722 113.691 74.3123 113.762 74.3835C113.833 74.4548 113.873 74.5514 113.873 74.6522C113.873 74.753 113.833 74.8497 113.762 74.9209C113.691 74.9922 113.594 75.0322 113.493 75.0322Z" fill="#263238"/>
<path d="M159.766 85.7595H105.962C105.861 85.7595 105.764 85.7195 105.693 85.6482C105.622 85.5769 105.582 85.4803 105.582 85.3795C105.582 85.2787 105.622 85.1821 105.693 85.1108C105.764 85.0395 105.861 84.9995 105.962 84.9995H159.766C159.867 84.9995 159.963 85.0395 160.034 85.1108C160.106 85.1821 160.146 85.2787 160.146 85.3795C160.146 85.4803 160.106 85.5769 160.034 85.6482C159.963 85.7195 159.867 85.7595 159.766 85.7595Z" fill="#263238"/>
<path d="M159.53 88.1042H105.722C105.621 88.1042 105.525 88.0642 105.454 87.9929C105.382 87.9217 105.342 87.825 105.342 87.7242C105.342 87.6235 105.382 87.5268 105.454 87.4555C105.525 87.3843 105.621 87.3442 105.722 87.3442H159.53C159.631 87.3442 159.728 87.3843 159.799 87.4555C159.87 87.5268 159.91 87.6235 159.91 87.7242C159.91 87.825 159.87 87.9217 159.799 87.9929C159.728 88.0642 159.631 88.1042 159.53 88.1042Z" fill="#263238"/>
<path d="M159.295 90.4451H105.487C105.386 90.4451 105.289 90.405 105.218 90.3338C105.147 90.2625 105.107 90.1658 105.107 90.0651C105.107 89.9643 105.147 89.8676 105.218 89.7964C105.289 89.7251 105.386 89.6851 105.487 89.6851H159.295C159.395 89.6851 159.492 89.7251 159.563 89.7964C159.635 89.8676 159.675 89.9643 159.675 90.0651C159.675 90.1658 159.635 90.2625 159.563 90.3338C159.492 90.405 159.395 90.4451 159.295 90.4451Z" fill="#263238"/>
<path d="M159.059 92.7859H105.251C105.15 92.7859 105.054 92.7458 104.982 92.6746C104.911 92.6033 104.871 92.5067 104.871 92.4059C104.871 92.3051 104.911 92.2084 104.982 92.1372C105.054 92.0659 105.15 92.0259 105.251 92.0259H159.059C159.16 92.0259 159.256 92.0659 159.328 92.1372C159.399 92.2084 159.439 92.3051 159.439 92.4059C159.439 92.5067 159.399 92.6033 159.328 92.6746C159.256 92.7458 159.16 92.7859 159.059 92.7859Z" fill="#263238"/>
<path d="M158.82 95.1265H105.015C104.915 95.1265 104.818 95.0864 104.747 95.0152C104.675 94.9439 104.635 94.8472 104.635 94.7465C104.635 94.6457 104.675 94.549 104.747 94.4778C104.818 94.4065 104.915 94.3665 105.015 94.3665H158.82C158.92 94.3665 159.017 94.4065 159.088 94.4778C159.16 94.549 159.2 94.6457 159.2 94.7465C159.2 94.8472 159.16 94.9439 159.088 95.0152C159.017 95.0864 158.92 95.1265 158.82 95.1265Z" fill="#263238"/>
<path d="M158.584 97.4712H104.78C104.679 97.4712 104.582 97.4311 104.511 97.3599C104.44 97.2886 104.4 97.192 104.4 97.0912C104.4 96.9904 104.44 96.8937 104.511 96.8225C104.582 96.7512 104.679 96.7112 104.78 96.7112H158.584C158.685 96.7112 158.781 96.7512 158.853 96.8225C158.924 96.8937 158.964 96.9904 158.964 97.0912C158.964 97.192 158.924 97.2886 158.853 97.3599C158.781 97.4311 158.685 97.4712 158.584 97.4712Z" fill="#263238"/>
<path d="M158.348 99.812H104.544C104.443 99.812 104.347 99.772 104.275 99.7007C104.204 99.6294 104.164 99.5328 104.164 99.432C104.164 99.3312 104.204 99.2346 104.275 99.1633C104.347 99.092 104.443 99.052 104.544 99.052H158.348C158.449 99.052 158.546 99.092 158.617 99.1633C158.688 99.2346 158.728 99.3312 158.728 99.432C158.728 99.5328 158.688 99.6294 158.617 99.7007C158.546 99.772 158.449 99.812 158.348 99.812Z" fill="#263238"/>
<path d="M158.113 102.153H104.32C104.219 102.153 104.123 102.113 104.051 102.042C103.98 101.97 103.94 101.874 103.94 101.773C103.94 101.672 103.98 101.575 104.051 101.504C104.123 101.433 104.219 101.393 104.32 101.393H158.113C158.214 101.393 158.31 101.433 158.382 101.504C158.453 101.575 158.493 101.672 158.493 101.773C158.493 101.874 158.453 101.97 158.382 102.042C158.31 102.113 158.214 102.153 158.113 102.153Z" fill="#263238"/>
<path d="M131.277 104.494H104.073C103.972 104.494 103.876 104.454 103.804 104.382C103.733 104.311 103.693 104.214 103.693 104.114C103.693 104.013 103.733 103.916 103.804 103.845C103.876 103.774 103.972 103.734 104.073 103.734H131.277C131.378 103.734 131.475 103.774 131.546 103.845C131.617 103.916 131.657 104.013 131.657 104.114C131.657 104.214 131.617 104.311 131.546 104.382C131.475 104.454 131.378 104.494 131.277 104.494Z" fill="#263238"/>
<path d="M161.453 72.9802H152.173C152.073 72.9802 151.976 72.9402 151.905 72.8689C151.833 72.7977 151.793 72.701 151.793 72.6002C151.793 72.4994 151.833 72.4028 151.905 72.3315C151.976 72.2603 152.073 72.2202 152.173 72.2202H161.453C161.554 72.2202 161.65 72.2603 161.722 72.3315C161.793 72.4028 161.833 72.4994 161.833 72.6002C161.833 72.701 161.793 72.7977 161.722 72.8689C161.65 72.9402 161.554 72.9802 161.453 72.9802Z" fill="#263238"/>
<path d="M157.581 107.67H109.503C109.402 107.67 109.306 107.63 109.235 107.559C109.163 107.488 109.123 107.391 109.123 107.29C109.123 107.19 109.163 107.093 109.235 107.022C109.306 106.95 109.402 106.91 109.503 106.91H157.581C157.682 106.91 157.778 106.95 157.85 107.022C157.921 107.093 157.961 107.19 157.961 107.29C157.961 107.391 157.921 107.488 157.85 107.559C157.778 107.63 157.682 107.67 157.581 107.67Z" fill="#263238"/>
<path d="M157.322 110.011H103.514C103.414 110.011 103.317 109.971 103.246 109.9C103.174 109.829 103.134 109.732 103.134 109.631C103.134 109.53 103.174 109.434 103.246 109.363C103.317 109.291 103.414 109.251 103.514 109.251H157.322C157.423 109.251 157.52 109.291 157.591 109.363C157.662 109.434 157.702 109.53 157.702 109.631C157.702 109.732 157.662 109.829 157.591 109.9C157.52 109.971 157.423 110.011 157.322 110.011Z" fill="#263238"/>
<path d="M157.087 112.356H103.279C103.178 112.356 103.081 112.316 103.01 112.244C102.939 112.173 102.899 112.076 102.899 111.976C102.899 111.875 102.939 111.778 103.01 111.707C103.081 111.636 103.178 111.596 103.279 111.596H157.087C157.188 111.596 157.284 111.636 157.355 111.707C157.427 111.778 157.467 111.875 157.467 111.976C157.467 112.076 157.427 112.173 157.355 112.244C157.284 112.316 157.188 112.356 157.087 112.356Z" fill="#263238"/>
<path d="M156.847 114.697H103.043C102.942 114.697 102.846 114.656 102.775 114.585C102.703 114.514 102.663 114.417 102.663 114.317C102.663 114.216 102.703 114.119 102.775 114.048C102.846 113.977 102.942 113.937 103.043 113.937H156.847C156.948 113.937 157.045 113.977 157.116 114.048C157.187 114.119 157.227 114.216 157.227 114.317C157.227 114.417 157.187 114.514 157.116 114.585C157.045 114.656 156.948 114.697 156.847 114.697Z" fill="#263238"/>
<path d="M156.612 117.037H102.8C102.699 117.037 102.603 116.997 102.531 116.926C102.46 116.855 102.42 116.758 102.42 116.657C102.42 116.557 102.46 116.46 102.531 116.389C102.603 116.317 102.699 116.277 102.8 116.277H156.612C156.713 116.277 156.809 116.317 156.881 116.389C156.952 116.46 156.992 116.557 156.992 116.657C156.992 116.758 156.952 116.855 156.881 116.926C156.809 116.997 156.713 117.037 156.612 117.037Z" fill="#263238"/>
<path d="M122.18 119.382H102.572C102.471 119.382 102.375 119.342 102.303 119.271C102.232 119.2 102.192 119.103 102.192 119.002C102.192 118.901 102.232 118.805 102.303 118.733C102.375 118.662 102.471 118.622 102.572 118.622H122.18C122.281 118.622 122.377 118.662 122.449 118.733C122.52 118.805 122.56 118.901 122.56 119.002C122.56 119.103 122.52 119.2 122.449 119.271C122.377 119.342 122.281 119.382 122.18 119.382Z" fill="#263238"/>
<g opacity="0.2">
<path d="M157.463 157.678H94.0904L104.833 51.0923H168.206L157.463 157.678Z" fill="black"/>
</g>
<path d="M147.207 154.46H83.8342C95.4698 120.176 102.5 85.3759 104.073 51.0999H167.446C165.88 85.3759 158.842 120.18 147.207 154.46Z" fill="white"/>
<path d="M162.502 61.964H106.957C106.907 61.9631 106.86 61.9434 106.824 61.9089C106.788 61.8744 106.766 61.8275 106.763 61.7778C106.763 61.7534 106.767 61.7291 106.777 61.7065C106.786 61.6838 106.8 61.6633 106.817 61.6462C106.834 61.6291 106.855 61.6158 106.878 61.6071C106.901 61.5983 106.925 61.5943 106.95 61.5954H162.49C162.541 61.5943 162.589 61.6127 162.626 61.6467C162.663 61.6807 162.685 61.7277 162.688 61.7778C162.689 61.8024 162.684 61.8268 162.675 61.8496C162.666 61.8725 162.652 61.8932 162.635 61.9106C162.617 61.928 162.597 61.9417 162.574 61.9509C162.551 61.96 162.526 61.9645 162.502 61.964Z" fill="#263238"/>
<path d="M114.025 57.1001C113.951 57.8987 113.581 58.6406 112.987 59.18C112.394 59.7194 111.62 60.0171 110.818 60.0147C110.437 60.026 110.057 59.9576 109.704 59.8139C109.35 59.6701 109.031 59.4541 108.766 59.1797C108.501 58.9054 108.296 58.5787 108.165 58.2205C108.033 57.8624 107.978 57.4808 108.002 57.1001C108.072 56.3041 108.438 55.5633 109.027 55.0242C109.617 54.4852 110.388 54.1872 111.187 54.1893C111.569 54.1776 111.949 54.2455 112.304 54.3886C112.658 54.5318 112.979 54.747 113.246 55.0207C113.513 55.2944 113.72 55.6205 113.854 55.9785C113.988 56.3364 114.046 56.7184 114.025 57.1001Z" fill="#B63D6D"/>
<path d="M109.283 56.6477C109.283 56.6477 107.763 58.7111 108.253 59.3419C108.743 59.9727 113.125 56.4349 114.139 55.2265C115.154 54.0181 113.915 54.5007 113.919 54.5007C113.923 54.5007 114.394 54.5235 114.158 54.8997C113.679 55.6597 109.522 58.3843 109.078 58.2399C108.633 58.0955 109.283 56.6477 109.283 56.6477Z" fill="#263238"/>
<path d="M162.202 56.1082H156.502C156.45 56.1108 156.399 56.1028 156.35 56.0849C156.302 56.067 156.258 56.0394 156.221 56.0038C156.183 55.9683 156.153 55.9255 156.133 55.8781C156.113 55.8307 156.103 55.7797 156.103 55.7282C156.099 55.6774 156.107 55.6265 156.125 55.5789C156.143 55.5313 156.17 55.488 156.206 55.452C156.242 55.4161 156.286 55.3882 156.333 55.3703C156.381 55.3524 156.432 55.3448 156.483 55.3482H162.183C162.283 55.3482 162.38 55.3882 162.451 55.4595C162.523 55.5308 162.563 55.6274 162.563 55.7282C162.566 55.7773 162.559 55.8265 162.542 55.8728C162.525 55.9191 162.499 55.9614 162.465 55.997C162.431 56.0327 162.39 56.061 162.345 56.0801C162.3 56.0993 162.251 56.1088 162.202 56.1082Z" fill="#263238"/>
<path d="M162.08 57.8221H158.398C158.297 57.8221 158.2 57.782 158.129 57.7108C158.058 57.6395 158.018 57.5428 158.018 57.4421C158.014 57.3913 158.022 57.3404 158.04 57.2928C158.058 57.2451 158.086 57.2019 158.122 57.1659C158.158 57.1299 158.201 57.102 158.249 57.0841C158.296 57.0662 158.347 57.0587 158.398 57.0621H162.08C162.181 57.0621 162.277 57.1021 162.349 57.1734C162.42 57.2446 162.46 57.3413 162.46 57.4421C162.46 57.5428 162.42 57.6395 162.349 57.7108C162.277 57.782 162.181 57.8221 162.08 57.8221Z" fill="#263238"/>
<path d="M161.977 59.5321H152.356C152.255 59.5321 152.158 59.492 152.087 59.4208C152.016 59.3495 151.976 59.2529 151.976 59.1521C151.972 59.1012 151.979 59.05 151.997 59.0021C152.014 58.9541 152.042 58.9106 152.078 58.8745C152.114 58.8384 152.158 58.8105 152.206 58.7928C152.254 58.7752 152.305 58.7681 152.356 58.7721H161.974C162.074 58.7721 162.171 58.8121 162.242 58.8834C162.314 58.9546 162.354 59.0513 162.354 59.1521C162.357 59.2025 162.349 59.2531 162.332 59.3004C162.314 59.3478 162.287 59.3908 162.251 59.4267C162.215 59.4627 162.173 59.4906 162.126 59.5088C162.078 59.5269 162.028 59.5349 161.977 59.5321Z" fill="#263238"/>
<path d="M121.42 66.3758C121.468 65.9257 121.686 65.5109 122.029 65.2157C122.372 64.9206 122.815 64.7674 123.267 64.7874C123.495 64.7765 123.723 64.8173 123.934 64.9067C124.144 64.9962 124.332 65.1321 124.483 65.3042L124.072 65.6538C123.973 65.533 123.847 65.4361 123.705 65.3704C123.563 65.3046 123.408 65.2716 123.252 65.2738C122.946 65.2619 122.647 65.368 122.417 65.5703C122.187 65.7726 122.044 66.0556 122.017 66.3606C121.999 66.5037 122.013 66.649 122.058 66.7859C122.103 66.9228 122.179 67.0479 122.278 67.152C122.378 67.2562 122.5 67.3367 122.635 67.3878C122.769 67.4389 122.914 67.4593 123.058 67.4474C123.223 67.4473 123.387 67.4135 123.539 67.3482C123.692 67.2829 123.829 67.1873 123.943 67.0674L124.293 67.4208C124.12 67.5916 123.915 67.7255 123.689 67.8144C123.462 67.9032 123.221 67.9452 122.978 67.9376C122.001 67.9642 121.336 67.2992 121.42 66.3758Z" fill="black"/>
<path d="M124.665 66.3758C124.716 65.9248 124.936 65.5099 125.281 65.215C125.626 64.9201 126.07 64.7672 126.523 64.7874C127.511 64.7874 128.184 65.4562 128.1 66.3758C128.05 66.8275 127.829 67.243 127.483 67.538C127.138 67.833 126.692 67.9854 126.238 67.9642C125.25 67.9642 124.585 67.2916 124.665 66.3758ZM127.504 66.3758C127.522 66.2341 127.508 66.0902 127.463 65.9545C127.419 65.8188 127.345 65.6945 127.247 65.5907C127.149 65.4868 127.029 65.4059 126.896 65.3538C126.763 65.3016 126.62 65.2795 126.478 65.289C126.175 65.282 125.881 65.3904 125.655 65.5922C125.429 65.7941 125.289 66.0742 125.262 66.3758C125.244 66.5173 125.257 66.6611 125.301 66.7969C125.345 66.9326 125.418 67.057 125.516 67.1609C125.614 67.2648 125.733 67.3458 125.866 67.398C125.999 67.4501 126.142 67.4722 126.284 67.4626C126.587 67.4687 126.88 67.36 127.106 67.1584C127.331 66.9567 127.472 66.6771 127.5 66.3758H127.504Z" fill="black"/>
<path d="M131.703 64.833C131.614 65.8641 131.522 66.8939 131.425 67.9224H130.939C130.418 67.2232 129.894 66.5278 129.37 65.8286C129.309 66.5278 129.244 67.2232 129.18 67.9224H128.591C128.689 66.8939 128.782 65.8641 128.868 64.833H129.354C129.883 65.5284 130.407 66.2276 130.931 66.923C130.992 66.2276 131.057 65.5284 131.114 64.833H131.703Z" fill="black"/>
<path d="M133.166 65.3156H132.109C132.109 65.156 132.136 64.9926 132.151 64.833H134.857C134.857 64.9926 134.83 65.156 134.815 65.3156H133.759C133.683 66.1858 133.607 67.0522 133.523 67.9224H132.93C133.014 67.0522 133.09 66.1858 133.166 65.3156Z" fill="black"/>
<path d="M137.118 67.9223L136.548 67.0179H135.704C135.678 67.3181 135.651 67.6183 135.621 67.9185H135.032C135.128 66.89 135.219 65.8602 135.305 64.8291H136.62C137.456 64.8291 137.942 65.2433 137.882 65.9273C137.866 66.1472 137.786 66.3575 137.65 66.5314C137.515 66.7053 137.331 66.835 137.122 66.9039C137.338 67.2421 137.551 67.5803 137.764 67.9185L137.118 67.9223ZM136.548 65.3155H135.86C135.826 65.7259 135.788 66.1363 135.754 66.5467H136.445C136.966 66.5467 137.255 66.3187 137.289 65.9311C137.323 65.5435 137.068 65.3155 136.548 65.3155Z" fill="black"/>
<path d="M140.5 67.208H138.9L138.52 67.9224H137.912C138.487 66.8939 139.057 65.8641 139.622 64.833H140.207C140.6 65.8641 140.987 66.8939 141.37 67.9224H140.751L140.5 67.208ZM140.344 66.7558C140.184 66.3074 140.025 65.8552 139.861 65.4068C139.622 65.8552 139.386 66.3074 139.143 66.7558H140.344Z" fill="black"/>
<path d="M141.647 66.3757C141.695 65.9257 141.913 65.5108 142.256 65.2157C142.599 64.9206 143.042 64.7674 143.494 64.7873C143.723 64.7758 143.952 64.8163 144.163 64.9058C144.375 64.9953 144.563 65.1315 144.714 65.3041C144.573 65.4181 144.437 65.5359 144.3 65.6537C144.2 65.5329 144.075 65.4361 143.933 65.3703C143.791 65.3045 143.636 65.2715 143.479 65.2737C143.173 65.2618 142.874 65.368 142.644 65.5703C142.414 65.7726 142.271 66.0555 142.244 66.3605C142.226 66.5036 142.24 66.6489 142.285 66.7858C142.331 66.9227 142.406 67.0478 142.506 67.152C142.605 67.2561 142.727 67.3366 142.862 67.3877C142.997 67.4388 143.142 67.4592 143.285 67.4473C143.451 67.4472 143.615 67.4134 143.767 67.3481C143.919 67.2828 144.056 67.1873 144.171 67.0673L144.52 67.4207C144.348 67.5916 144.142 67.7255 143.916 67.8143C143.69 67.9032 143.448 67.9451 143.205 67.9375C142.229 67.9641 141.56 67.2991 141.647 66.3757Z" fill="black"/>
<path d="M145.892 65.3156H144.836C144.836 65.156 144.862 64.9926 144.877 64.833H147.583C147.583 64.9926 147.556 65.156 147.541 65.3156H146.5C146.428 66.1858 146.348 67.0522 146.264 67.9224H145.675C145.74 67.0522 145.82 66.1858 145.892 65.3156Z" fill="black"/>
<path d="M119.611 72.2696H106.691C106.635 72.2836 106.577 72.2847 106.52 72.2728C106.464 72.2608 106.411 72.2361 106.365 72.2006C106.32 72.165 106.283 72.1196 106.257 72.0677C106.232 72.0158 106.219 71.9588 106.219 71.901C106.219 71.8432 106.232 71.7862 106.257 71.7343C106.283 71.6824 106.32 71.6369 106.365 71.6014C106.411 71.5659 106.464 71.5412 106.52 71.5292C106.577 71.5173 106.635 71.5184 106.691 71.5324H119.611C119.667 71.5184 119.726 71.5173 119.782 71.5292C119.839 71.5412 119.892 71.5659 119.937 71.6014C119.983 71.6369 120.02 71.6824 120.045 71.7343C120.07 71.7862 120.084 71.8432 120.084 71.901C120.084 71.9588 120.07 72.0158 120.045 72.0677C120.02 72.1196 119.983 72.165 119.937 72.2006C119.892 72.2361 119.839 72.2608 119.782 72.2728C119.726 72.2847 119.667 72.2836 119.611 72.2696Z" fill="#263238"/>
<path d="M112.938 74.2607H106.478C106.378 74.2607 106.281 74.2207 106.21 74.1494C106.138 74.0782 106.098 73.9815 106.098 73.8807C106.098 73.78 106.138 73.6833 106.21 73.612C106.281 73.5408 106.378 73.5007 106.478 73.5007H112.938C113.039 73.5007 113.136 73.5408 113.207 73.612C113.278 73.6833 113.318 73.78 113.318 73.8807C113.318 73.9815 113.278 74.0782 113.207 74.1494C113.136 74.2207 113.039 74.2607 112.938 74.2607Z" fill="#263238"/>
<path d="M158.975 84.6728H105.171C105.07 84.6728 104.974 84.6328 104.903 84.5615C104.831 84.4903 104.791 84.3936 104.791 84.2928C104.791 84.1921 104.831 84.0954 104.903 84.0241C104.974 83.9529 105.07 83.9128 105.171 83.9128H159.002C159.103 83.9128 159.199 83.9529 159.271 84.0241C159.342 84.0954 159.382 84.1921 159.382 84.2928C159.382 84.3451 159.371 84.3967 159.351 84.4447C159.33 84.4926 159.3 84.5357 159.261 84.5714C159.223 84.6071 159.178 84.6345 159.129 84.6519C159.08 84.6694 159.027 84.6765 158.975 84.6728Z" fill="#263238"/>
<path d="M158.66 86.949H104.844C104.793 86.953 104.742 86.9459 104.694 86.9282C104.646 86.9106 104.603 86.8827 104.567 86.8466C104.531 86.8105 104.503 86.767 104.485 86.719C104.467 86.6711 104.46 86.6199 104.464 86.569C104.464 86.4682 104.504 86.3716 104.576 86.3003C104.647 86.229 104.744 86.189 104.844 86.189H158.679C158.73 86.1857 158.781 86.1932 158.828 86.2111C158.876 86.229 158.919 86.2569 158.955 86.2929C158.991 86.3288 159.019 86.3721 159.037 86.4197C159.055 86.4673 159.062 86.5182 159.059 86.569C159.059 86.6206 159.049 86.6716 159.028 86.719C159.008 86.7663 158.978 86.8091 158.941 86.8447C158.904 86.8802 158.86 86.9078 158.811 86.9257C158.763 86.9437 158.711 86.9516 158.66 86.949Z" fill="#263238"/>
<path d="M158.307 89.2251H104.499C104.448 89.2284 104.397 89.2209 104.349 89.203C104.302 89.1851 104.258 89.1572 104.222 89.1212C104.186 89.0853 104.159 89.042 104.141 88.9944C104.123 88.9468 104.115 88.8959 104.119 88.8451C104.124 88.7426 104.168 88.6459 104.242 88.5752C104.316 88.5044 104.415 88.465 104.518 88.4651H158.341C158.442 88.4651 158.538 88.5051 158.61 88.5764C158.681 88.6477 158.721 88.7443 158.721 88.8451C158.715 88.9499 158.668 89.0483 158.591 89.1193C158.514 89.1903 158.412 89.2282 158.307 89.2251Z" fill="#263238"/>
<path d="M157.949 91.5014H104.141C104.092 91.5027 104.043 91.4935 103.998 91.4746C103.952 91.4556 103.911 91.4273 103.878 91.3914C103.844 91.3555 103.818 91.3129 103.802 91.2664C103.786 91.2199 103.78 91.1705 103.784 91.1214C103.79 91.0193 103.834 90.9231 103.909 90.8526C103.983 90.782 104.081 90.7422 104.183 90.7414H157.987C158.037 90.7396 158.086 90.7484 158.132 90.7671C158.178 90.7858 158.22 90.8141 158.254 90.85C158.288 90.886 158.314 90.9287 158.33 90.9755C158.347 91.0223 158.353 91.0721 158.348 91.1214C158.343 91.2236 158.298 91.3198 158.224 91.3903C158.15 91.4609 158.052 91.5006 157.949 91.5014Z" fill="#263238"/>
<path d="M157.577 93.7777H103.773C103.724 93.779 103.675 93.7698 103.629 93.7508C103.584 93.7319 103.543 93.7035 103.509 93.6677C103.475 93.6318 103.45 93.5892 103.434 93.5427C103.417 93.4961 103.411 93.4467 103.416 93.3977C103.421 93.2949 103.466 93.1982 103.541 93.1275C103.616 93.0568 103.715 93.0175 103.818 93.0177H157.623C157.672 93.0164 157.721 93.0256 157.766 93.0446C157.812 93.0635 157.853 93.0919 157.886 93.1277C157.92 93.1636 157.946 93.2062 157.962 93.2527C157.978 93.2992 157.984 93.3486 157.98 93.3977C157.973 93.5002 157.928 93.5964 157.853 93.6669C157.778 93.7374 157.68 93.777 157.577 93.7777Z" fill="#263238"/>
<path d="M157.189 96.0538H103.385C103.336 96.0551 103.287 96.046 103.242 96.027C103.197 96.008 103.156 95.9796 103.123 95.9436C103.089 95.9077 103.064 95.865 103.048 95.8185C103.033 95.772 103.027 95.7227 103.032 95.6738C103.039 95.5713 103.084 95.4751 103.159 95.4047C103.233 95.3342 103.332 95.2946 103.435 95.2938H157.239C157.288 95.2926 157.337 95.3017 157.382 95.3207C157.428 95.3396 157.469 95.368 157.502 95.4039C157.536 95.4397 157.562 95.4823 157.578 95.5288C157.594 95.5754 157.6 95.6248 157.596 95.6738C157.588 95.7767 157.542 95.8729 157.467 95.9433C157.392 96.0137 157.293 96.0531 157.189 96.0538Z" fill="#263238"/>
<path d="M156.79 98.3299H102.982C102.933 98.3313 102.885 98.3222 102.84 98.3032C102.795 98.2842 102.754 98.2557 102.721 98.2196C102.688 98.1836 102.663 98.1409 102.648 98.0944C102.632 98.0478 102.627 97.9986 102.633 97.9499C102.64 97.8471 102.687 97.7509 102.762 97.6805C102.837 97.6101 102.936 97.5706 103.039 97.5699H156.844C156.893 97.5686 156.941 97.5778 156.987 97.5968C157.032 97.6158 157.073 97.6442 157.106 97.6801C157.14 97.7161 157.165 97.7587 157.181 97.8053C157.196 97.8518 157.202 97.9011 157.197 97.9499C157.189 98.0528 157.143 98.149 157.068 98.2194C156.993 98.2898 156.894 98.3293 156.79 98.3299Z" fill="#263238"/>
<path d="M156.38 100.606H102.568C102.519 100.608 102.47 100.6 102.425 100.581C102.379 100.562 102.339 100.533 102.305 100.497C102.272 100.461 102.247 100.418 102.232 100.371C102.217 100.325 102.213 100.275 102.219 100.226C102.227 100.123 102.274 100.027 102.35 99.9565C102.426 99.8862 102.526 99.8468 102.629 99.8462H156.433C156.482 99.8442 156.531 99.8529 156.577 99.8717C156.622 99.8905 156.663 99.919 156.696 99.9552C156.729 99.9913 156.754 100.034 156.769 100.081C156.784 100.128 156.789 100.177 156.783 100.226C156.775 100.328 156.73 100.424 156.655 100.494C156.581 100.565 156.482 100.605 156.38 100.606Z" fill="#263238"/>
<path d="M129.343 102.882H102.139C102.09 102.884 102.041 102.876 101.995 102.857C101.95 102.838 101.909 102.81 101.876 102.773C101.843 102.737 101.818 102.694 101.803 102.647C101.788 102.601 101.783 102.551 101.789 102.502C101.798 102.399 101.845 102.302 101.922 102.231C101.999 102.161 102.099 102.122 102.203 102.122H129.4C129.449 102.12 129.498 102.129 129.543 102.148C129.589 102.167 129.63 102.195 129.663 102.231C129.696 102.267 129.721 102.31 129.736 102.357C129.751 102.404 129.756 102.454 129.75 102.502C129.74 102.605 129.694 102.7 129.619 102.77C129.544 102.84 129.446 102.88 129.343 102.882Z" fill="#263238"/>
<path d="M160.91 72.2696H151.63C151.574 72.2836 151.515 72.2847 151.459 72.2728C151.402 72.2608 151.349 72.2361 151.304 72.2006C151.258 72.165 151.222 72.1196 151.196 72.0677C151.171 72.0158 151.158 71.9588 151.158 71.901C151.158 71.8432 151.171 71.7862 151.196 71.7343C151.222 71.6824 151.258 71.6369 151.304 71.6014C151.349 71.5659 151.402 71.5412 151.459 71.5292C151.515 71.5173 151.574 71.5184 151.63 71.5324H160.91C160.966 71.5184 161.024 71.5173 161.081 71.5292C161.137 71.5412 161.19 71.5659 161.236 71.6014C161.281 71.6369 161.318 71.6824 161.344 71.7343C161.369 71.7862 161.382 71.8432 161.382 71.901C161.382 71.9588 161.369 72.0158 161.344 72.0677C161.318 72.1196 161.281 72.165 161.236 72.2006C161.19 72.2361 161.137 72.2608 161.081 72.2728C161.024 72.2847 160.966 72.2836 160.91 72.2696Z" fill="#263238"/>
<path d="M155.362 105.972H107.284C107.235 105.973 107.187 105.964 107.142 105.945C107.097 105.926 107.057 105.897 107.024 105.861C106.991 105.825 106.966 105.782 106.951 105.736C106.937 105.689 106.932 105.64 106.938 105.592C106.949 105.488 106.997 105.392 107.074 105.321C107.151 105.251 107.252 105.212 107.356 105.212H155.43C155.479 105.21 155.528 105.218 155.573 105.237C155.618 105.256 155.659 105.285 155.692 105.321C155.725 105.357 155.75 105.4 155.764 105.447C155.779 105.494 155.783 105.543 155.776 105.592C155.766 105.695 155.718 105.791 155.641 105.861C155.565 105.931 155.465 105.97 155.362 105.972Z" fill="#263238"/>
<path d="M154.86 108.248H101.067C101.018 108.25 100.97 108.242 100.925 108.223C100.879 108.204 100.839 108.175 100.806 108.139C100.774 108.102 100.749 108.059 100.735 108.012C100.721 107.966 100.718 107.916 100.725 107.868C100.736 107.764 100.784 107.668 100.861 107.598C100.938 107.527 101.039 107.488 101.143 107.488H154.947C154.996 107.486 155.045 107.494 155.09 107.513C155.135 107.532 155.176 107.561 155.208 107.597C155.241 107.633 155.265 107.676 155.279 107.723C155.293 107.77 155.297 107.82 155.289 107.868C155.278 107.973 155.228 108.071 155.148 108.141C155.069 108.211 154.966 108.249 154.86 108.248Z" fill="#263238"/>
<path d="M154.393 110.524H100.588C100.54 110.526 100.491 110.518 100.446 110.499C100.401 110.48 100.36 110.451 100.328 110.415C100.295 110.379 100.271 110.335 100.257 110.289C100.243 110.242 100.239 110.192 100.246 110.144C100.259 110.041 100.309 109.945 100.386 109.875C100.464 109.806 100.564 109.766 100.668 109.764H154.48C154.529 109.763 154.577 109.772 154.622 109.791C154.667 109.81 154.707 109.838 154.739 109.875C154.772 109.911 154.796 109.954 154.81 110C154.825 110.047 154.829 110.096 154.822 110.144C154.809 110.249 154.758 110.345 154.679 110.415C154.6 110.485 154.498 110.524 154.393 110.524Z" fill="#263238"/>
<path d="M153.899 112.8H100.094C100.046 112.803 99.997 112.794 99.952 112.775C99.9071 112.756 99.8669 112.728 99.8344 112.691C99.802 112.655 99.7782 112.611 99.7646 112.565C99.7511 112.518 99.7482 112.468 99.7562 112.42C99.769 112.317 99.8187 112.221 99.8962 112.152C99.9736 112.082 100.074 112.042 100.178 112.04H153.986C154.034 112.038 154.083 112.047 154.127 112.067C154.172 112.086 154.211 112.115 154.243 112.151C154.275 112.187 154.299 112.23 154.312 112.277C154.326 112.324 154.328 112.372 154.32 112.42C154.308 112.524 154.258 112.619 154.18 112.689C154.103 112.759 154.003 112.798 153.899 112.8Z" fill="#263238"/>
<path d="M153.389 115.077H99.5852C99.5366 115.079 99.4881 115.071 99.4432 115.052C99.3983 115.033 99.3583 115.004 99.3262 114.967C99.294 114.931 99.2705 114.888 99.2575 114.841C99.2444 114.794 99.2422 114.745 99.2508 114.697C99.2645 114.593 99.3149 114.497 99.393 114.428C99.4712 114.358 99.5717 114.318 99.6764 114.317H153.481C153.529 114.315 153.577 114.324 153.622 114.343C153.666 114.362 153.706 114.391 153.738 114.427C153.77 114.464 153.793 114.507 153.807 114.553C153.82 114.6 153.823 114.649 153.815 114.697C153.802 114.801 153.752 114.897 153.674 114.967C153.595 115.036 153.494 115.076 153.389 115.077Z" fill="#263238"/>
<path d="M118.669 117.353H99.0608C99.0125 117.355 98.9644 117.346 98.92 117.327C98.8757 117.307 98.8361 117.278 98.8044 117.242C98.7727 117.206 98.7495 117.162 98.7367 117.116C98.7239 117.069 98.7216 117.02 98.7302 116.973C98.7446 116.869 98.7953 116.774 98.8732 116.705C98.9512 116.635 99.0513 116.595 99.1558 116.593H118.76C118.808 116.591 118.856 116.6 118.901 116.619C118.945 116.638 118.985 116.667 119.016 116.704C119.048 116.74 119.071 116.783 119.084 116.83C119.097 116.876 119.099 116.925 119.091 116.973C119.076 117.076 119.026 117.17 118.949 117.24C118.872 117.309 118.773 117.349 118.669 117.353Z" fill="#263238"/>
<g opacity="0.1">
<path d="M147.207 154.46H83.8342C95.4698 120.176 102.5 85.3759 104.073 51.0999H167.446C165.88 85.3759 158.842 120.18 147.207 154.46Z" fill="black"/>
</g>
<path d="M138.604 147.749H75.231C89.8458 115.692 99.5206 83.1491 104.073 51.0923H167.446C162.893 83.1491 153.218 115.692 138.604 147.749Z" fill="white"/>
<path d="M161.936 61.2571H106.395C106.372 61.2587 106.348 61.2554 106.326 61.2475C106.304 61.2396 106.285 61.2271 106.268 61.2111C106.251 61.195 106.238 61.1755 106.229 61.154C106.22 61.1325 106.216 61.1094 106.216 61.0861C106.221 61.0374 106.244 60.9923 106.281 60.9599C106.317 60.9275 106.365 60.9101 106.414 60.9113H161.958C161.982 60.9097 162.006 60.913 162.028 60.9212C162.05 60.9293 162.07 60.9421 162.087 60.9586C162.104 60.9751 162.117 60.995 162.126 61.017C162.134 61.039 162.138 61.0625 162.137 61.0861C162.131 61.1348 162.107 61.1795 162.07 61.2112C162.033 61.243 161.985 61.2593 161.936 61.2571Z" fill="#263238"/>
<path d="M113.885 56.6971C113.645 58.1981 112.087 59.4179 110.423 59.4179C108.758 59.4179 107.618 58.1981 107.862 56.6971C108.105 55.1961 109.632 53.9763 111.282 53.9763C112.931 53.9763 114.128 55.1999 113.885 56.6971Z" fill="#B63D6D"/>
<path d="M109.176 56.2869C109.176 56.2869 107.466 58.2173 107.915 58.8063C108.363 59.3953 113.041 56.0893 114.158 54.9569C115.275 53.8245 114.002 54.2767 114.002 54.2767C114.002 54.2767 114.477 54.3033 114.208 54.6567C113.664 55.3673 109.268 57.9133 108.838 57.7803C108.409 57.6473 109.18 56.2869 109.176 56.2869Z" fill="#263238"/>
<path d="M162.145 55.7851H156.445C156.396 55.7899 156.348 55.7845 156.302 55.7693C156.256 55.7541 156.214 55.7294 156.178 55.6968C156.142 55.6642 156.113 55.6244 156.094 55.5801C156.074 55.5357 156.064 55.4878 156.065 55.4393C156.074 55.3453 156.118 55.2581 156.189 55.1949C156.259 55.1316 156.35 55.0969 156.445 55.0973H162.145C162.193 55.0913 162.242 55.0957 162.288 55.1103C162.334 55.1248 162.377 55.1491 162.413 55.1815C162.449 55.214 162.477 55.2538 162.497 55.2983C162.516 55.3427 162.526 55.3909 162.525 55.4393C162.516 55.5341 162.472 55.6222 162.402 55.6862C162.332 55.7502 162.24 55.7855 162.145 55.7851Z" fill="#263238"/>
<path d="M161.89 57.385H158.208C158.16 57.3898 158.111 57.3844 158.065 57.3692C158.019 57.3539 157.977 57.3292 157.941 57.2966C157.905 57.264 157.876 57.2243 157.857 57.1799C157.838 57.1356 157.828 57.0876 157.828 57.0392C157.837 56.9451 157.881 56.858 157.952 56.7947C158.022 56.7315 158.113 56.6967 158.208 56.6972H161.89C161.938 56.6912 161.987 56.6956 162.033 56.7101C162.08 56.7247 162.122 56.749 162.158 56.7814C162.194 56.8138 162.223 56.8536 162.242 56.8981C162.261 56.9426 162.271 56.9907 162.27 57.0392C162.261 57.1339 162.218 57.222 162.147 57.286C162.077 57.3501 161.985 57.3854 161.89 57.385Z" fill="#263238"/>
<path d="M161.624 59H152.002C151.954 59.0054 151.905 59.0004 151.859 58.9854C151.813 58.9704 151.77 58.9458 151.734 58.913C151.698 58.8803 151.67 58.8403 151.65 58.7957C151.631 58.751 151.622 58.7028 151.622 58.6542C151.632 58.5567 151.679 58.4668 151.753 58.4031C151.828 58.3394 151.924 58.3068 152.021 58.3122H161.662C161.71 58.3062 161.759 58.3106 161.805 58.3251C161.851 58.3396 161.894 58.364 161.93 58.3964C161.966 58.4288 161.995 58.4686 162.014 58.5131C162.033 58.5576 162.043 58.6057 162.042 58.6542C162.038 58.7045 162.023 58.7535 162 58.7982C161.977 58.843 161.945 58.8826 161.906 58.9148C161.867 58.947 161.822 58.9711 161.773 58.9857C161.725 59.0004 161.674 59.0052 161.624 59Z" fill="#263238"/>
<path d="M101.614 142.383H82.166C82.1224 142.388 82.0783 142.382 82.0378 142.365C81.9974 142.348 81.9621 142.32 81.9353 142.286C81.9085 142.251 81.8912 142.21 81.885 142.166C81.8789 142.123 81.884 142.078 81.9 142.038C81.9398 141.939 82.0073 141.854 82.0943 141.794C82.1814 141.733 82.2842 141.699 82.3902 141.696H101.839C101.882 141.69 101.926 141.695 101.967 141.712C102.007 141.729 102.043 141.756 102.07 141.79C102.097 141.825 102.114 141.866 102.12 141.909C102.126 141.953 102.121 141.997 102.105 142.038C102.066 142.137 101.999 142.223 101.912 142.284C101.824 142.346 101.721 142.38 101.614 142.383Z" fill="#263238"/>
<path d="M136.536 142.383H114.116C114.073 142.388 114.029 142.382 113.988 142.365C113.948 142.348 113.912 142.32 113.886 142.286C113.859 142.251 113.842 142.21 113.835 142.166C113.829 142.123 113.834 142.078 113.85 142.038C113.89 141.939 113.958 141.854 114.045 141.794C114.132 141.733 114.235 141.699 114.341 141.696H136.78C136.823 141.69 136.867 141.696 136.908 141.713C136.948 141.729 136.984 141.756 137.011 141.791C137.038 141.825 137.056 141.866 137.063 141.909C137.069 141.952 137.065 141.997 137.049 142.038C137.008 142.14 136.937 142.227 136.846 142.289C136.754 142.35 136.647 142.383 136.536 142.383Z" fill="#263238"/>
<path d="M105.11 122.483H94.7972C94.7532 122.488 94.7088 122.481 94.6677 122.465C94.6267 122.449 94.5903 122.422 94.5618 122.389C94.5332 122.355 94.5135 122.315 94.5042 122.271C94.4948 122.228 94.4963 122.183 94.5084 122.141C94.5409 122.041 94.6039 121.954 94.6884 121.892C94.7729 121.83 94.8748 121.796 94.9796 121.795H105.289C105.333 121.79 105.378 121.796 105.42 121.813C105.461 121.829 105.498 121.856 105.527 121.89C105.555 121.924 105.575 121.965 105.584 122.009C105.593 122.053 105.591 122.098 105.578 122.141C105.545 122.239 105.483 122.325 105.399 122.387C105.315 122.448 105.214 122.482 105.11 122.483Z" fill="#263238"/>
<path d="M140.891 122.483H125.87C125.826 122.488 125.781 122.481 125.74 122.465C125.699 122.449 125.663 122.422 125.634 122.389C125.606 122.355 125.586 122.315 125.577 122.271C125.567 122.228 125.569 122.183 125.581 122.141C125.614 122.041 125.677 121.954 125.761 121.892C125.846 121.83 125.947 121.796 126.052 121.795H141.07C141.114 121.79 141.159 121.796 141.201 121.813C141.242 121.829 141.279 121.856 141.307 121.89C141.336 121.924 141.356 121.965 141.365 122.009C141.374 122.053 141.371 122.098 141.359 122.141C141.327 122.24 141.264 122.326 141.18 122.387C141.096 122.449 140.995 122.482 140.891 122.483Z" fill="#263238"/>
<path d="M124.502 138.355C124.184 138.37 123.867 138.303 123.582 138.162C123.1 137.88 122.982 137.402 123.244 136.786C123.282 136.695 123.326 136.606 123.373 136.52C121.912 137.102 120.378 137.478 118.813 137.637C117.878 137.694 117.65 137.329 117.628 137.01C117.582 136.444 118.137 135.543 119.022 134.498C116.97 135.418 115.465 135.977 115.435 135.988C115.325 136.03 115.226 135.988 115.207 135.904C115.204 135.854 115.219 135.803 115.249 135.762C115.278 135.72 115.321 135.69 115.37 135.676C115.405 135.676 117.194 134.996 119.528 133.925C121.899 131.344 125.843 128.168 127.888 127.085C129.358 126.325 130.213 126.093 130.434 126.454C130.776 127.024 129.096 128.734 126.326 130.588C124.229 131.954 122.029 133.154 119.744 134.175C118.676 135.35 117.973 136.357 118.015 136.904C118.015 137.018 118.053 137.356 118.889 137.284C120.535 137.109 122.148 136.698 123.677 136.064C124.863 134.46 127.618 132.568 128.879 132.264C129.366 132.142 129.56 132.264 129.639 132.393C129.719 132.522 129.742 132.728 129.476 133.07C128.803 133.94 126.47 135.312 123.901 136.326C123.792 136.484 123.698 136.652 123.62 136.828C123.419 137.307 123.499 137.645 123.871 137.861C124.722 138.352 126.911 137.652 129.085 136.649C129.105 136.531 129.14 136.416 129.191 136.307C129.799 134.924 132.771 132.781 134.351 132.887C134.667 132.887 134.731 133.043 134.731 133.157C134.766 133.659 133.428 134.59 132.299 135.285C131.382 135.839 130.437 136.347 129.468 136.805C129.522 136.991 129.708 137.109 130.027 137.162C132.379 137.542 137.878 134.103 137.927 134.069C137.963 134.036 138.01 134.018 138.058 134.018C138.107 134.018 138.154 134.036 138.189 134.069C138.208 134.114 138.209 134.164 138.192 134.209C138.175 134.254 138.141 134.291 138.098 134.312C137.87 134.457 132.375 137.899 129.86 137.481C129.697 137.476 129.538 137.425 129.404 137.332C129.269 137.24 129.164 137.111 129.1 136.961C127.416 137.747 125.672 138.355 124.502 138.355ZM134.135 133.21C132.744 133.21 130.061 135.167 129.544 136.345C129.544 136.379 129.514 136.41 129.503 136.444C130.449 135.984 131.365 135.483 132.14 135.004C133.766 134.004 134.355 133.396 134.344 133.252C134.344 133.252 134.31 133.222 134.215 133.214L134.135 133.21ZM129.119 132.553C129.039 132.555 128.96 132.568 128.883 132.591C127.796 132.861 125.494 134.426 124.281 135.825C126.561 134.875 128.575 133.685 129.157 132.929C129.271 132.781 129.309 132.674 129.267 132.606C129.249 132.586 129.225 132.57 129.2 132.561C129.174 132.552 129.146 132.549 129.119 132.553ZM129.928 126.64C129.696 126.64 129.149 126.781 128.028 127.381C126.067 128.422 122.636 131.208 120.333 133.571C122.345 132.639 124.287 131.562 126.143 130.349C129.062 128.38 130.232 126.929 130.08 126.682C130.057 126.64 130.012 126.64 129.928 126.64Z" fill="#263238"/>
<path d="M120.47 65.384C120.578 64.9448 120.836 64.5567 121.198 64.2858C121.56 64.0149 122.005 63.878 122.457 63.8982C122.677 63.8824 122.896 63.9178 123.099 64.0016C123.303 64.0853 123.483 64.2151 123.628 64.3808L123.187 64.7076C123.09 64.5944 122.968 64.5051 122.831 64.4464C122.694 64.3878 122.545 64.3614 122.397 64.3694C122.091 64.3571 121.792 64.4518 121.549 64.637C121.306 64.8222 121.135 65.0864 121.067 65.384C120.956 65.9768 121.352 66.3986 122.013 66.3986C122.351 66.3994 122.677 66.2779 122.932 66.0566L123.252 66.3872C122.872 66.709 122.388 66.8807 121.891 66.8698C120.915 66.8698 120.307 66.2466 120.47 65.384Z" fill="black"/>
<path d="M123.719 65.384C123.828 64.9445 124.086 64.5564 124.449 64.2855C124.812 64.0147 125.258 63.8778 125.71 63.8982C126.702 63.8982 127.314 64.5252 127.154 65.384C127.043 65.8245 126.782 66.2129 126.418 66.4836C126.053 66.7543 125.605 66.8907 125.152 66.8698C124.164 66.8698 123.556 66.239 123.719 65.384ZM126.558 65.384C126.587 65.2521 126.584 65.115 126.549 64.9844C126.514 64.8538 126.448 64.7336 126.357 64.634C126.265 64.5344 126.151 64.4584 126.024 64.4123C125.897 64.3662 125.761 64.3515 125.627 64.3694C125.324 64.3602 125.028 64.4563 124.789 64.6415C124.55 64.8266 124.382 65.0891 124.316 65.384C124.202 65.973 124.601 66.3986 125.243 66.3986C125.545 66.4073 125.842 66.311 126.081 66.1261C126.321 65.9411 126.489 65.6789 126.558 65.384Z" fill="black"/>
<path d="M130.89 63.9399C130.711 64.9013 130.529 65.8665 130.342 66.8279H129.856L128.469 64.8709C128.347 65.5245 128.221 66.1769 128.089 66.8279H127.5C127.686 65.8665 127.88 64.9013 128.047 63.9399H128.534C129.002 64.5885 129.467 65.2408 129.928 65.8969L130.308 63.9399H130.89Z" fill="black"/>
<path d="M132.311 64.3921H131.254C131.281 64.2401 131.308 64.0919 131.338 63.9399H134.044C134.017 64.0919 133.987 64.2401 133.96 64.3921H132.904C132.752 65.2053 132.6 66.0185 132.44 66.8279H131.851C132.008 66.0198 132.161 65.2079 132.311 64.3921Z" fill="black"/>
<path d="M136.035 66.828L135.545 65.9806C135.504 65.9842 135.463 65.9842 135.423 65.9806H134.72L134.56 66.8204H133.96C134.146 65.859 134.34 64.8938 134.503 63.9324H135.814C136.654 63.9324 137.103 64.3124 136.985 64.9584C136.941 65.1741 136.838 65.3735 136.688 65.5345C136.538 65.6954 136.346 65.8117 136.134 65.8704C136.316 66.1896 136.514 66.505 136.685 66.8204L136.035 66.828ZM135.693 64.3922H135.001L134.785 65.5322H135.48C136.001 65.5322 136.312 65.3194 136.381 64.9546C136.449 64.5898 136.213 64.3922 135.693 64.3922Z" fill="black"/>
<path d="M139.478 66.1591H137.882C137.737 66.3833 137.589 66.6075 137.441 66.8279H136.829C137.495 65.8678 138.155 64.9051 138.809 63.9399H139.394C139.694 64.9013 139.994 65.8665 140.287 66.8279H139.66C139.607 66.5999 139.542 66.3833 139.478 66.1591ZM139.364 65.7373L138.984 64.4757C138.706 64.8975 138.429 65.3193 138.148 65.7373H139.364Z" fill="black"/>
<path d="M140.697 65.384C140.806 64.9448 141.063 64.5567 141.426 64.2858C141.788 64.015 142.233 63.878 142.685 63.8982C142.905 63.8824 143.125 63.9178 143.329 64.0015C143.532 64.0852 143.714 64.2151 143.859 64.3808L143.414 64.7076C143.317 64.5944 143.196 64.5051 143.059 64.4464C142.922 64.3878 142.773 64.3614 142.624 64.3694C142.319 64.3571 142.019 64.4518 141.776 64.637C141.533 64.8222 141.363 65.0864 141.294 65.384C141.184 65.9768 141.579 66.3986 142.24 66.3986C142.578 66.3994 142.905 66.2779 143.16 66.0566L143.479 66.3872C143.1 66.709 142.616 66.8807 142.119 66.8698C141.142 66.8698 140.538 66.2466 140.697 65.384Z" fill="black"/>
<path d="M145.037 64.3921H143.981C144.007 64.2401 144.034 64.0919 144.064 63.9399H146.77C146.743 64.0919 146.717 64.2401 146.686 64.3921H145.63C145.478 65.2053 145.325 66.0173 145.17 66.8279H144.577C144.733 66.0185 144.889 65.2053 145.037 64.3921Z" fill="black"/>
<path d="M118.148 70.894H105.228C105.182 70.8974 105.135 70.8907 105.091 70.8746C105.048 70.8584 105.008 70.8331 104.975 70.8004C104.942 70.7677 104.916 70.7282 104.9 70.6847C104.883 70.6412 104.876 70.5947 104.879 70.5482C104.895 70.451 104.946 70.3629 105.022 70.3001C105.098 70.2372 105.194 70.2039 105.293 70.2062H118.213C118.259 70.2023 118.306 70.2084 118.349 70.2241C118.393 70.2398 118.433 70.2647 118.466 70.2972C118.499 70.3296 118.525 70.3689 118.542 70.4122C118.558 70.4555 118.565 70.5019 118.562 70.5482C118.548 70.6465 118.497 70.736 118.421 70.7997C118.345 70.8634 118.248 70.897 118.148 70.894Z" fill="#263238"/>
<path d="M111.308 72.756H104.848C104.802 72.7594 104.755 72.7528 104.712 72.7366C104.668 72.7205 104.629 72.6951 104.596 72.6623C104.563 72.6295 104.538 72.59 104.522 72.5465C104.506 72.503 104.499 72.4565 104.502 72.4102C104.52 72.3126 104.571 72.2245 104.648 72.1617C104.725 72.099 104.821 72.0658 104.92 72.0682H111.38C111.426 72.0649 111.472 72.0714 111.516 72.0874C111.559 72.1033 111.598 72.1283 111.631 72.1607C111.664 72.1931 111.689 72.2321 111.706 72.2752C111.722 72.3182 111.729 72.3643 111.726 72.4102C111.71 72.5085 111.658 72.5976 111.582 72.6611C111.505 72.7246 111.408 72.7583 111.308 72.756Z" fill="#263238"/>
<path d="M156.437 82.4915H102.633C102.587 82.4958 102.541 82.4898 102.498 82.474C102.455 82.4582 102.416 82.433 102.384 82.4002C102.352 82.3675 102.328 82.328 102.313 82.2846C102.298 82.2412 102.293 82.1951 102.298 82.1495C102.318 82.0513 102.371 81.963 102.449 81.8998C102.527 81.8367 102.624 81.8027 102.724 81.8037H156.528C156.574 81.8001 156.62 81.8066 156.663 81.8229C156.706 81.8391 156.745 81.8647 156.777 81.8977C156.809 81.9308 156.833 81.9705 156.848 82.014C156.863 82.0576 156.868 82.1038 156.863 82.1495C156.843 82.2474 156.79 82.3352 156.712 82.3978C156.634 82.4603 156.537 82.4935 156.437 82.4915Z" fill="#263238"/>
<path d="M155.913 84.6197H102.108C102.062 84.624 102.016 84.618 101.973 84.602C101.929 84.586 101.89 84.5604 101.858 84.5272C101.826 84.494 101.802 84.454 101.787 84.4101C101.773 84.3663 101.768 84.3197 101.774 84.2739C101.794 84.1757 101.848 84.0878 101.927 84.0253C102.005 83.9628 102.103 83.9298 102.203 83.9319H156C156.045 83.9283 156.091 83.9348 156.134 83.9508C156.177 83.9668 156.215 83.992 156.247 84.0247C156.279 84.0573 156.303 84.0965 156.319 84.1396C156.334 84.1826 156.339 84.2285 156.334 84.2739C156.314 84.3711 156.262 84.4585 156.185 84.5215C156.108 84.5844 156.012 84.6191 155.913 84.6197Z" fill="#263238"/>
<path d="M155.373 86.7399H101.565C101.519 86.7438 101.474 86.7374 101.431 86.7211C101.388 86.7048 101.35 86.6791 101.318 86.6458C101.287 86.6126 101.263 86.5727 101.249 86.5291C101.236 86.4855 101.232 86.4394 101.238 86.3941C101.259 86.2959 101.313 86.2079 101.392 86.145C101.47 86.082 101.567 86.0478 101.668 86.0483H155.472C155.517 86.0452 155.563 86.0522 155.606 86.0687C155.648 86.0852 155.686 86.1109 155.718 86.1439C155.75 86.1769 155.773 86.2164 155.788 86.2596C155.803 86.3029 155.808 86.3488 155.802 86.3941C155.782 86.4926 155.728 86.581 155.65 86.6441C155.571 86.7072 155.474 86.7411 155.373 86.7399Z" fill="#263238"/>
<path d="M154.818 88.8756H101.01C100.965 88.8794 100.919 88.873 100.876 88.8567C100.833 88.8404 100.795 88.8147 100.763 88.7815C100.732 88.7482 100.709 88.7083 100.695 88.6648C100.681 88.6212 100.677 88.575 100.683 88.5298C100.706 88.432 100.761 88.3447 100.84 88.2826C100.919 88.2204 101.016 88.1869 101.117 88.1878H154.921C154.966 88.1832 155.012 88.1891 155.055 88.2049C155.097 88.2208 155.136 88.2461 155.168 88.2791C155.199 88.312 155.223 88.3518 155.237 88.3952C155.25 88.4386 155.254 88.4846 155.248 88.5298C155.227 88.6283 155.173 88.7167 155.095 88.7798C155.017 88.8429 154.919 88.8767 154.818 88.8756Z" fill="#263238"/>
<path d="M154.248 91.0036H100.44C100.395 91.0076 100.349 91.0013 100.306 90.9849C100.264 90.9686 100.225 90.9428 100.194 90.9095C100.163 90.8762 100.14 90.8362 100.127 90.7926C100.113 90.749 100.11 90.7029 100.117 90.6578C100.14 90.56 100.195 90.4728 100.274 90.4106C100.352 90.3484 100.45 90.315 100.55 90.3158H154.358C154.403 90.3119 154.449 90.3182 154.491 90.3343C154.533 90.3504 154.571 90.3759 154.603 90.4088C154.634 90.4417 154.657 90.4811 154.67 90.5243C154.684 90.5674 154.688 90.613 154.681 90.6578C154.66 90.7567 154.606 90.8451 154.527 90.9082C154.448 90.9712 154.349 91.005 154.248 91.0036Z" fill="#263238"/>
<path d="M153.663 93.1354H99.8588C99.8134 93.1394 99.7676 93.133 99.725 93.1167C99.6824 93.1004 99.6441 93.0746 99.613 93.0413C99.5818 93.008 99.5587 92.968 99.5453 92.9244C99.532 92.8807 99.5287 92.8347 99.5358 92.7896C99.5577 92.6904 99.6131 92.6019 99.6928 92.5389C99.7724 92.4759 99.8713 92.4423 99.9728 92.4438H153.777C153.822 92.4398 153.868 92.4462 153.911 92.4625C153.953 92.4788 153.992 92.5046 154.023 92.5379C154.054 92.5712 154.077 92.6112 154.091 92.6548C154.104 92.6985 154.107 92.7445 154.1 92.7896C154.077 92.8881 154.021 92.9758 153.942 93.0386C153.862 93.1014 153.764 93.1355 153.663 93.1354Z" fill="#263238"/>
<path d="M153.063 95.2634H99.2584C99.2131 95.2676 99.1675 95.2613 99.125 95.2449C99.0825 95.2286 99.0443 95.2027 99.0135 95.1693C98.9826 95.1359 98.9599 95.0958 98.947 95.0521C98.9341 95.0085 98.9315 94.9624 98.9392 94.9176C98.9624 94.8191 99.0182 94.7314 99.0975 94.6686C99.1768 94.6058 99.2751 94.5717 99.3762 94.5718H153.184C153.23 94.5676 153.275 94.574 153.318 94.5903C153.36 94.6066 153.398 94.6325 153.429 94.6659C153.46 94.6994 153.483 94.7394 153.496 94.7831C153.509 94.8267 153.511 94.8728 153.503 94.9176C153.479 95.0161 153.422 95.1035 153.342 95.1662C153.263 95.2288 153.164 95.263 153.063 95.2634Z" fill="#263238"/>
<path d="M152.451 97.3799H98.6428C98.5978 97.3834 98.5526 97.3766 98.5106 97.36C98.4686 97.3434 98.431 97.3175 98.4005 97.2841C98.3701 97.2508 98.3477 97.2109 98.335 97.1676C98.3224 97.1242 98.3198 97.0786 98.3274 97.0341C98.3519 96.9356 98.4086 96.8481 98.4885 96.7855C98.5683 96.7229 98.6667 96.6886 98.7682 96.6883H152.58C152.625 96.6841 152.671 96.6904 152.713 96.7067C152.756 96.7231 152.794 96.7489 152.825 96.7824C152.856 96.8158 152.879 96.8559 152.891 96.8995C152.904 96.9432 152.907 96.9892 152.899 97.0341C152.874 97.1338 152.817 97.2222 152.735 97.285C152.654 97.3478 152.554 97.3812 152.451 97.3799Z" fill="#263238"/>
<path d="M125.22 99.5193H98.012C97.9668 99.5236 97.9212 99.5174 97.8788 99.501C97.8365 99.4847 97.7985 99.4587 97.7679 99.4252C97.7373 99.3916 97.7149 99.3514 97.7025 99.3077C97.6902 99.264 97.6881 99.2181 97.6966 99.1735C97.7225 99.075 97.78 98.9878 97.8604 98.9253C97.9407 98.8628 98.0394 98.8285 98.1412 98.8277H125.345C125.391 98.8235 125.436 98.8298 125.479 98.8461C125.521 98.8625 125.559 98.8883 125.59 98.9218C125.621 98.9552 125.644 98.9953 125.657 99.039C125.67 99.0826 125.672 99.1286 125.665 99.1735C125.639 99.2722 125.582 99.3598 125.501 99.4224C125.421 99.485 125.322 99.5191 125.22 99.5193Z" fill="#263238"/>
<path d="M159.447 70.894H150.171C150.124 70.8973 150.078 70.8907 150.034 70.8745C149.99 70.8584 149.951 70.8331 149.918 70.8004C149.884 70.7676 149.859 70.7282 149.842 70.6847C149.826 70.6412 149.818 70.5946 149.821 70.5482C149.838 70.4509 149.889 70.3628 149.965 70.3C150.041 70.2372 150.137 70.2039 150.235 70.2062H159.515C159.561 70.2028 159.607 70.2094 159.65 70.2253C159.694 70.2413 159.733 70.2663 159.766 70.2987C159.798 70.3311 159.824 70.3701 159.84 70.4131C159.857 70.4561 159.864 70.5022 159.861 70.5482C159.846 70.6465 159.796 70.736 159.719 70.7997C159.643 70.8634 159.546 70.8969 159.447 70.894Z" fill="#263238"/>
<path d="M150.973 102.407H102.895C102.85 102.412 102.804 102.406 102.762 102.389C102.72 102.373 102.682 102.347 102.652 102.313C102.621 102.28 102.599 102.239 102.588 102.196C102.576 102.152 102.574 102.106 102.583 102.062C102.609 101.963 102.666 101.875 102.747 101.813C102.827 101.75 102.926 101.716 103.028 101.716H151.106C151.151 101.711 151.196 101.717 151.239 101.734C151.281 101.75 151.319 101.776 151.349 101.81C151.379 101.843 151.401 101.884 151.413 101.928C151.425 101.971 151.426 102.017 151.417 102.062C151.392 102.16 151.335 102.248 151.254 102.311C151.174 102.373 151.075 102.407 150.973 102.407Z" fill="#263238"/>
<path d="M150.3 104.535H96.4806C96.4355 104.54 96.39 104.534 96.3477 104.517C96.3054 104.501 96.2676 104.475 96.2373 104.441C96.2069 104.408 96.185 104.367 96.1731 104.324C96.1612 104.28 96.1598 104.234 96.169 104.19C96.1956 104.091 96.2539 104.004 96.3349 103.941C96.4159 103.879 96.5151 103.844 96.6174 103.844H150.425C150.47 103.839 150.516 103.845 150.558 103.862C150.6 103.878 150.638 103.904 150.668 103.938C150.698 103.972 150.72 104.012 150.731 104.056C150.742 104.1 150.743 104.145 150.733 104.19C150.707 104.286 150.651 104.371 150.573 104.434C150.495 104.496 150.4 104.532 150.3 104.535Z" fill="#263238"/>
<path d="M149.608 106.663H95.8004C95.7554 106.668 95.71 106.662 95.6678 106.646C95.6256 106.629 95.5879 106.603 95.5578 106.569C95.5278 106.536 95.5062 106.495 95.4948 106.451C95.4835 106.408 95.4827 106.362 95.4926 106.318C95.5207 106.219 95.58 106.133 95.6615 106.071C95.7431 106.009 95.8425 105.976 95.9448 105.976H149.753C149.797 105.971 149.842 105.977 149.884 105.993C149.926 106.009 149.964 106.035 149.994 106.068C150.024 106.102 150.045 106.142 150.057 106.185C150.069 106.228 150.07 106.274 150.061 106.318C150.033 106.417 149.974 106.504 149.893 106.566C149.811 106.629 149.711 106.663 149.608 106.663Z" fill="#263238"/>
<path d="M148.917 108.78H95.1088C95.0641 108.784 95.0191 108.777 94.9774 108.761C94.9357 108.744 94.8986 108.718 94.8689 108.684C94.8393 108.651 94.818 108.61 94.8069 108.567C94.7958 108.523 94.795 108.478 94.8048 108.434C94.8329 108.335 94.8926 108.247 94.9749 108.185C95.0572 108.122 95.1575 108.089 95.2608 108.088H149.065C149.11 108.083 149.155 108.089 149.197 108.106C149.24 108.122 149.277 108.148 149.307 108.182C149.337 108.216 149.358 108.257 149.369 108.301C149.38 108.344 149.38 108.39 149.369 108.434C149.341 108.533 149.281 108.619 149.2 108.682C149.118 108.744 149.019 108.778 148.917 108.78Z" fill="#263238"/>
<path d="M148.21 110.923H94.4058C94.3611 110.927 94.3161 110.921 94.2744 110.904C94.2327 110.887 94.1956 110.861 94.1659 110.828C94.1363 110.794 94.115 110.754 94.1039 110.71C94.0928 110.667 94.092 110.621 94.1018 110.577C94.1299 110.478 94.1896 110.39 94.2719 110.328C94.3541 110.266 94.4545 110.232 94.5578 110.232H148.366C148.411 110.226 148.456 110.232 148.498 110.249C148.54 110.265 148.578 110.291 148.607 110.325C148.637 110.359 148.657 110.4 148.668 110.444C148.678 110.488 148.677 110.534 148.666 110.577C148.637 110.676 148.578 110.764 148.495 110.826C148.413 110.888 148.313 110.922 148.21 110.923Z" fill="#263238"/>
<path d="M113.288 113.051H93.68C93.6354 113.055 93.5905 113.049 93.5489 113.032C93.5073 113.016 93.4702 112.989 93.4409 112.956C93.4115 112.922 93.3906 112.881 93.38 112.838C93.3694 112.794 93.3693 112.749 93.3798 112.705C93.4092 112.606 93.4698 112.519 93.5526 112.456C93.6354 112.394 93.736 112.36 93.8396 112.359H113.44C113.485 112.354 113.53 112.36 113.572 112.376C113.614 112.393 113.652 112.419 113.681 112.453C113.711 112.487 113.732 112.528 113.742 112.572C113.752 112.616 113.752 112.662 113.74 112.705C113.711 112.803 113.652 112.89 113.571 112.952C113.489 113.014 113.39 113.049 113.288 113.051Z" fill="#263238"/>
<g opacity="0.2">
<path d="M111.247 130.109C111.441 129.938 111.928 129.562 112.216 129.349C112.346 129.251 112.509 129.239 112.596 129.327C112.76 129.524 112.923 129.707 113.083 129.923C113.083 129.923 112.543 130.527 112.368 130.733C110.62 132.804 109.575 134.795 109.708 135.175C111.494 134.992 123.164 129.281 128.389 125.926C127.23 123.501 124.471 121.989 120.713 122.16C115.363 122.403 109.617 126.138 107.151 130.881C106.35 132.332 105.932 133.962 105.935 135.619C107.552 133.641 109.329 131.798 111.247 130.109Z" fill="black"/>
<path d="M107.778 139.864C109.059 141.053 110.962 141.764 113.356 141.764C119.334 141.764 126.113 137.383 128.298 131.964C128.858 130.659 129.075 129.234 128.929 127.822C123.575 131.637 113.178 137.888 107.778 139.864Z" fill="black"/>
<path d="M111.734 130.486C111.753 130.486 103.875 137.432 104.924 139.549C106.038 141.669 125.858 129.775 130.764 125.683C135.738 121.601 130.764 123.232 130.764 123.235C130.764 123.239 132.451 123.319 131.201 124.58C128.697 127.157 110.655 136.334 109.207 135.844C107.759 135.354 111.745 130.49 111.734 130.486Z" fill="black"/>
</g>
<path d="M87.6266 139.066C84.8336 139.066 84.275 137.983 84.3016 137.048C84.3966 134.282 89.7926 129.551 95.4166 127.312C98.506 126.085 100.968 126.005 101.694 127.115C102.287 128.031 101.557 129.543 99.6726 131.268C95.9486 134.688 92.8706 135.448 91.5102 134.711C91.3193 134.612 91.1571 134.465 91.039 134.285C90.697 134.445 90.3208 134.612 89.899 134.783C89.8792 134.796 89.8569 134.804 89.8338 134.807C89.8106 134.81 89.7871 134.808 89.7648 134.801C89.7424 134.794 89.7218 134.782 89.7044 134.767C89.6869 134.751 89.6729 134.732 89.6634 134.711C89.6584 134.661 89.6707 134.61 89.6984 134.568C89.7261 134.526 89.7674 134.495 89.8154 134.479C90.2144 134.308 90.5754 134.149 90.8984 133.997C90.8633 133.806 90.8682 133.61 90.9126 133.421C90.9571 133.232 91.0402 133.054 91.1568 132.898C91.395 132.547 91.7139 132.258 92.0867 132.055C92.4596 131.852 92.8756 131.741 93.3 131.732C93.6572 131.751 93.8662 131.91 93.8548 132.161C93.832 132.655 92.9808 133.328 91.4266 134.099C91.5174 134.227 91.6372 134.331 91.7762 134.403C92.6996 134.905 95.3748 134.783 99.4256 131.067C101.158 129.478 101.85 128.118 101.326 127.339C100.695 126.37 98.3464 126.484 95.485 127.62C90.0168 129.794 84.7728 134.339 84.6816 136.964C84.6436 138.184 85.8216 138.792 88.0788 138.716C90.9744 138.625 94.0334 137.443 96.606 136.056C97.4192 134.498 99.7866 132.477 102.306 131.264C102.808 131.021 103.096 130.968 103.229 131.09C103.362 131.211 103.313 131.344 103.169 131.565C102.644 132.37 100.155 134.453 96.9214 136.216C96.8796 136.307 96.8416 136.398 96.8112 136.482C96.718 136.661 96.6861 136.866 96.7204 137.065C96.7547 137.264 96.8534 137.446 97.0012 137.584C98.0728 138.473 101.968 135.824 103.362 134.726C103.4 134.693 103.449 134.675 103.499 134.675C103.549 134.675 103.598 134.693 103.636 134.726C103.697 134.787 103.67 134.897 103.579 134.969C103.37 135.14 98.202 139.149 96.6896 137.876C96.3096 137.565 96.2298 137.086 96.435 136.493C93.8244 137.865 90.7958 138.986 87.9952 139.073L87.6266 139.066ZM102.891 131.375C102.729 131.418 102.572 131.479 102.424 131.557C100.254 132.606 98.1374 134.335 97.2064 135.737C98.8231 134.827 100.35 133.766 101.766 132.568C102.204 132.234 102.584 131.831 102.891 131.375ZM93.1328 132.074C92.809 132.096 92.4945 132.192 92.2129 132.353C91.9312 132.514 91.6897 132.737 91.5064 133.005C91.3339 133.236 91.2601 133.525 91.3012 133.81C92.9504 132.993 93.452 132.454 93.4596 132.237C93.4596 132.104 93.2658 132.081 93.1784 132.078L93.1328 132.074Z" fill="#B63D6D"/>
<path d="M74.1404 69.3019C74.1404 69.3019 67.137 62.3745 58.72 61.9451C58.72 61.9451 53.7116 74.0747 51.2834 86.1055L67.9616 89.0771C67.9616 89.0771 70.2682 76.5941 74.1404 69.3019Z" fill="#B63D6D"/>
<path opacity="0.6" d="M74.1404 69.3019C70.2682 76.5941 67.9768 89.0619 67.9768 89.0619L51.2986 86.0903C52.1926 81.7922 53.3126 77.5442 54.654 73.3641C55.566 70.4723 56.4628 67.9225 57.181 65.9655C58.1044 63.4575 58.7352 61.9299 58.7352 61.9299C67.137 62.3745 74.1404 69.3019 74.1404 69.3019Z" fill="white"/>
<path d="M70.5304 62.3782C70.3594 62.5416 70.1884 62.7126 70.0326 62.8912L69.949 62.99C69.6137 63.3654 69.3554 63.8031 69.189 64.2782C69.1232 64.4835 69.0874 64.6973 69.0826 64.9128C69.0974 65.2882 69.189 65.6565 69.3517 65.9951C69.5145 66.3336 69.7449 66.6352 70.0288 66.8812C69.9984 67.7172 67.84 66.904 67.84 66.904C67.84 66.904 64.667 65.2092 64.2642 63.2826C65.484 63.0318 66.5898 61.6752 67.46 60.1742C67.6804 59.7942 67.8856 59.4142 68.0756 59.0152C68.4024 58.3464 68.676 57.6928 68.885 57.1494L70.5304 62.3782Z" fill="#E4897B"/>
<path opacity="0.2" d="M70.0326 62.8912L69.949 62.99C69.6136 63.3654 69.3554 63.8031 69.189 64.2782C69.1232 64.4835 69.0874 64.6972 69.0826 64.9127C68.1516 64.0273 66.966 62.3553 67.46 60.1741C67.5683 59.6976 67.7396 59.2376 67.9692 58.8062L68.0756 59.0151L70.0326 62.8912Z" fill="black"/>
<path d="M78.518 55.2419C78.518 55.2419 77.6098 59.4219 74.9232 60.1629C72.2366 60.9039 75.0486 53.5015 75.0486 53.5015L78.518 55.2419Z" fill="#263238"/>
<path d="M67.6082 60.9874C67.7994 61.8094 68.2557 62.5456 68.9067 63.0826C69.5577 63.6196 70.3673 63.9276 71.2106 63.959C71.8268 63.9883 72.4422 63.8878 73.017 63.6639C73.5918 63.44 74.1131 63.0978 74.547 62.6594C76.504 60.6302 78.4496 56.5148 76.4926 53.946C76.0625 53.3772 75.4941 52.9279 74.8413 52.6408C74.1886 52.3537 73.4733 52.2384 72.7634 52.3058C72.0535 52.3732 71.3726 52.6211 70.7856 53.026C70.1985 53.4308 69.7248 53.979 69.4094 54.6186C68.0148 57.3318 67.08 58.8632 67.6082 60.9874Z" fill="#E4897B"/>
<path d="M72.9662 57.7042C72.9321 57.741 72.9055 57.7842 72.8882 57.8314C72.8708 57.8785 72.863 57.9286 72.8651 57.9788C72.8672 58.029 72.8792 58.0782 72.9005 58.1237C72.9218 58.1692 72.9519 58.21 72.989 58.2438C73.1334 58.3274 73.3462 58.2172 73.4716 58.0044C73.597 57.7916 73.5856 57.5484 73.4488 57.4686C73.312 57.3888 73.0954 57.48 72.9662 57.7042Z" fill="#263238"/>
<path d="M75.383 59.1331C75.3157 59.2077 75.2806 59.306 75.2856 59.4065C75.2906 59.5069 75.3352 59.6012 75.4096 59.6689C75.5502 59.7525 75.7668 59.6423 75.8922 59.4295C76.0176 59.2167 76.0062 58.9773 75.8656 58.8937C75.725 58.8101 75.5046 58.9317 75.383 59.1331Z" fill="#263238"/>
<path d="M74.5546 58.7834C74.4224 59.5887 74.4019 60.4084 74.4938 61.2192C74.2851 61.2378 74.0748 61.2103 73.8778 61.1388C73.6808 61.0672 73.502 60.9533 73.3538 60.8051L74.5546 58.7834Z" fill="#DE5753"/>
<path d="M76.8916 58.62C76.8649 58.6196 76.8388 58.612 76.816 58.598C76.7933 58.5839 76.7748 58.564 76.7624 58.5402C76.6812 58.3766 76.5631 58.2341 76.4173 58.1239C76.2716 58.0138 76.1022 57.9391 75.9226 57.9056C75.884 57.9018 75.8483 57.8829 75.8235 57.8531C75.7986 57.8232 75.7864 57.7848 75.7896 57.746C75.7915 57.727 75.7972 57.7086 75.8062 57.6918C75.8153 57.675 75.8276 57.6602 75.8425 57.6481C75.8573 57.6361 75.8744 57.6272 75.8927 57.6218C75.911 57.6164 75.9302 57.6147 75.9492 57.6168C76.1777 57.6529 76.3941 57.7436 76.58 57.8812C76.7659 58.0188 76.9158 58.1993 77.017 58.4072C77.0265 58.4237 77.0327 58.4419 77.0352 58.4607C77.0377 58.4796 77.0364 58.4987 77.0315 58.5171C77.0265 58.5355 77.018 58.5527 77.0064 58.5677C76.9948 58.5828 76.9803 58.5954 76.9638 58.6048C76.9408 58.6139 76.9164 58.6191 76.8916 58.62Z" fill="#263238"/>
<path d="M73.0574 56.454C73.0317 56.4393 73.0117 56.4166 73.0004 56.3894C72.9937 56.3511 73.0023 56.3118 73.0243 56.2798C73.0464 56.2478 73.0801 56.2257 73.1182 56.2184C73.3459 56.1748 73.5807 56.1867 73.8029 56.2528C74.0251 56.3189 74.2281 56.4374 74.395 56.5984C74.409 56.6115 74.4202 56.6274 74.4279 56.645C74.4355 56.6627 74.4394 56.6817 74.4394 56.701C74.4394 56.7202 74.4355 56.7392 74.4279 56.7569C74.4202 56.7745 74.409 56.7904 74.395 56.8036C74.3674 56.83 74.3306 56.8448 74.2924 56.8448C74.2541 56.8448 74.2174 56.83 74.1898 56.8036C74.0531 56.6816 73.89 56.593 73.7133 56.5448C73.5365 56.4967 73.351 56.4903 73.1714 56.5262C73.1479 56.5243 73.1253 56.5168 73.1054 56.5042C73.0856 56.4916 73.0691 56.4744 73.0574 56.454Z" fill="#263238"/>
<path d="M73.274 52.4754L72.78 53.7408C72.5281 53.7313 72.2818 53.8165 72.0898 53.9798C71.8977 54.143 71.7738 54.3723 71.7426 54.6224C71.5982 55.827 70.2226 57.081 69.1206 57.2824C69.1206 57.2824 69.322 56.8378 68.904 56.7466C68.486 56.6554 67.384 58.9658 67.5398 60.4212C67.5398 60.4212 66.9736 58.8784 67.6158 56.1842C68.2086 53.6952 69.1016 51.8332 69.9984 51.2214L73.274 52.4754Z" fill="#263238"/>
<path d="M66.9888 56.0931C66.9297 56.8606 67.177 57.6203 67.6766 58.2059C68.3416 58.9659 69.2384 58.5137 69.5234 57.5903C69.7704 56.7695 69.7362 55.3559 68.8356 54.9303C67.935 54.5047 67.08 55.1545 66.9888 56.0931Z" fill="#E4897B"/>
<path d="M72.78 61.3865C72.4664 61.612 72.1692 61.8597 71.8908 62.1275L71.7274 62.0059C70.994 61.4435 70.8382 60.9381 70.8876 60.5505C70.915 60.3622 70.9881 60.1835 71.1004 60.0299C71.1605 59.94 71.2335 59.8593 71.317 59.7905C71.6182 60.3379 72.0328 60.8147 72.533 61.1889C72.6888 61.3143 72.78 61.3865 72.78 61.3865Z" fill="#263238"/>
<path d="M72.5406 61.1889L72.2746 61.4017C71.583 60.8697 71.165 60.4061 71.108 60.0299C71.1681 59.94 71.2411 59.8593 71.3246 59.7905C71.6258 60.3379 72.0404 60.8147 72.5406 61.1889Z" fill="white"/>
<path d="M71.735 62.0059C71.0016 61.4435 70.8458 60.9381 70.8952 60.5505C71.1704 60.7698 71.4046 61.0361 71.5868 61.3371C71.707 61.5383 71.759 61.7729 71.735 62.0059Z" fill="#DE5753"/>
<path d="M72.78 53.7409C72.78 53.7409 78.2558 58.3009 79.1602 53.7865C79.1602 53.7865 76.5306 50.4767 73.35 49.8953C70.1694 49.3139 69.2194 52.4793 69.2194 52.4793L72.78 53.7409Z" fill="#263238"/>
<path d="M53.0466 157.872H49.1972C49.1335 157.873 49.072 157.895 49.0224 157.935C48.9728 157.975 48.938 158.031 48.9236 158.093L48.3004 160.916C48.2883 160.978 48.2886 161.041 48.3013 161.102C48.3139 161.163 48.3386 161.222 48.374 161.273C48.4094 161.325 48.4547 161.369 48.5073 161.403C48.5599 161.437 48.6188 161.46 48.6804 161.471H48.783C50.0294 161.452 50.9376 161.376 52.4994 161.376C53.4646 161.376 56.3716 161.475 57.7054 161.475C59.0392 161.475 59.2064 160.16 58.663 160.038C56.2196 159.506 54.3804 158.769 53.5976 158.066C53.5231 157.999 53.436 157.947 53.3415 157.914C53.2469 157.881 53.1467 157.867 53.0466 157.872Z" fill="black"/>
<path d="M69.379 157.773H65.5296C65.4667 157.774 65.4058 157.795 65.3568 157.834C65.3078 157.874 65.2736 157.929 65.2598 157.99L64.6328 160.813C64.6194 160.882 64.6213 160.953 64.6383 161.02C64.6554 161.088 64.6872 161.151 64.7314 161.206C64.7757 161.26 64.8314 161.303 64.8945 161.333C64.9576 161.363 65.0265 161.379 65.0964 161.38C66.3428 161.357 67.251 161.281 68.8166 161.281C69.778 161.281 72.6888 161.383 74.0188 161.383C75.3488 161.383 75.5388 160.069 74.9764 159.947C72.533 159.415 70.6938 158.678 69.911 157.975C69.7664 157.841 69.5757 157.769 69.379 157.773Z" fill="black"/>
<path d="M51.2986 84.7373L68.372 87.2909C68.5696 88.3587 68.0984 90.5589 68.0984 90.5589C70.0782 103.513 73.9998 134.061 70.8458 158.241H65.1458C65.1458 158.241 65.674 116.403 60.6428 102.886C60.0652 110.106 54.1828 158.21 54.1828 158.21H48.3878C48.3878 158.21 49.2542 140.122 50.1244 123.034C50.5804 114.009 49.6456 95.4457 50.5044 88.8337L51.2986 84.7373Z" fill="#263238"/>
<path opacity="0.2" d="M60.6504 102.886C61.4747 105.257 62.1001 107.692 62.52 110.167C62.9912 103.726 61.1102 96.8975 61.1102 96.8975L60.6504 102.886Z" fill="black"/>
<path d="M55.9688 87.9218L65.617 89.3734L65.8602 87.4582L56.25 86.0256L55.9688 87.9218Z" fill="black"/>
<path d="M55.433 85.9002L51.044 85.2466L50.683 87.1276L55.1746 87.8002L55.433 85.9002Z" fill="black"/>
<path d="M66.6164 87.5723L66.263 89.4685L68.1364 89.7497L68.372 87.8345L66.6164 87.5723Z" fill="black"/>
<path d="M63.0292 87.0439C62.8969 86.8606 62.7 86.7343 62.4782 86.6905L60.9582 86.4245C60.8692 86.4077 60.7777 86.4099 60.6896 86.4309C60.6014 86.452 60.5188 86.4914 60.447 86.5467C60.3752 86.602 60.316 86.6718 60.2731 86.7516C60.2302 86.8314 60.2047 86.9194 60.1982 87.0097L60.088 87.9977C60.0715 88.2114 60.129 88.4243 60.2507 88.6008C60.3725 88.7772 60.5512 88.9064 60.7568 88.9667H60.8214L62.3414 89.2289C62.4305 89.2458 62.522 89.2436 62.6101 89.2226C62.6982 89.2015 62.7809 89.162 62.8527 89.1068C62.9245 89.0515 62.9837 88.9817 63.0266 88.9019C63.0695 88.8221 63.095 88.7341 63.1014 88.6437L63.2116 87.6595C63.2285 87.4389 63.1636 87.2198 63.0292 87.0439ZM62.3414 88.8413L60.8214 88.5753C60.7677 88.568 60.7162 88.5493 60.6704 88.5205C60.6245 88.4917 60.5853 88.4534 60.5554 88.4081C60.4874 88.3206 60.4549 88.2107 60.4642 88.1003L60.5744 87.1123C60.5777 87.0676 60.5906 87.024 60.6122 86.9847C60.6339 86.9454 60.6638 86.9112 60.6999 86.8845C60.736 86.8578 60.7774 86.8392 60.8213 86.83C60.8653 86.8208 60.9107 86.8212 60.9544 86.8311L62.4744 87.0971H62.52C62.614 87.1251 62.6965 87.1823 62.7556 87.2605C62.8226 87.3484 62.8539 87.4584 62.843 87.5683L62.824 87.7165C62.806 87.7067 62.7869 87.699 62.767 87.6937L62.3414 87.6139C62.3088 87.6078 62.2753 87.609 62.2432 87.6172C62.211 87.6254 62.1811 87.6405 62.1554 87.6615C62.1297 87.6825 62.1089 87.7088 62.0944 87.7387C62.08 87.7685 62.0722 87.8012 62.0716 87.8343C62.0708 87.9077 62.0953 87.9792 62.141 88.0366C62.1867 88.0941 62.2507 88.134 62.3224 88.1497L62.748 88.2295H62.7708L62.7328 88.5525C62.7303 88.5989 62.7176 88.6442 62.6955 88.6851C62.6734 88.726 62.6426 88.7615 62.6052 88.7891C62.5678 88.8167 62.5247 88.8357 62.4791 88.8447C62.4336 88.8538 62.3865 88.8526 62.3414 88.8413Z" fill="white"/>
<path d="M65.2788 65.9807L65.8602 68.8003C65.8602 68.8003 64.553 75.9101 66.263 82.4803L67.9122 83.4455L68.8128 82.1383C68.8128 82.1383 66.2592 75.7125 66.8558 69.3209L68.3758 67.2461L65.2788 65.9807Z" fill="#263238"/>
<path d="M65.56 62.6062L67.1788 66.4062L69.1966 64.2744L70.614 66.4974C70.5863 67.0436 70.4468 67.5783 70.2043 68.0684C69.9619 68.5586 69.6215 68.9939 69.2042 69.3474L67.1142 67.246L63.9298 67.626C63.9298 67.626 62.938 64.3352 63.1698 63.4878C63.4016 62.6404 65.56 62.6062 65.56 62.6062Z" fill="#B63D6D"/>
<path opacity="0.2" d="M54.654 73.3793C55.566 70.4875 56.4628 67.9377 57.181 65.9807L58.2374 65.5095C58.2374 65.5095 59.5218 69.6135 54.654 73.3793Z" fill="black"/>
<path opacity="0.4" d="M65.56 62.6062L67.1788 66.4062L69.1966 64.2744L70.614 66.4974C70.5863 67.0436 70.4468 67.5783 70.2043 68.0684C69.9619 68.5586 69.6215 68.9939 69.2042 69.3474L67.1142 67.246L63.9298 67.626C63.9298 67.626 62.938 64.3352 63.1698 63.4878C63.4016 62.6404 65.56 62.6062 65.56 62.6062Z" fill="white"/>
<path d="M58.72 61.945C56.4704 61.8348 51.9218 67.1966 50.7704 68.1504C49.619 69.1042 46.4574 68.9598 44.5954 67.2574C44.5954 67.2574 43.1666 66.9724 42.551 67.949C42.551 67.949 45.591 72.281 49.8622 71.8098C54.1334 71.3386 56.9226 67.2498 56.9226 67.2498C57.6808 66.4414 58.2893 65.5047 58.72 64.4834C59.3432 62.9368 58.72 61.945 58.72 61.945Z" fill="#B63D6D"/>
<path opacity="0.6" d="M58.72 61.945C56.4704 61.8348 51.9218 67.1966 50.7704 68.1504C49.619 69.1042 46.4574 68.9598 44.5954 67.2574C44.5954 67.2574 43.1666 66.9724 42.551 67.949C42.551 67.949 45.591 72.281 49.8622 71.8098C54.1334 71.3386 56.9226 67.2498 56.9226 67.2498C57.6808 66.4414 58.2893 65.5047 58.72 64.4834C59.3432 62.9368 58.72 61.945 58.72 61.945Z" fill="white"/>
<path d="M97.8106 115.43L98.126 116.182L97.3888 115.837L94.63 112.983L95.0518 112.576L97.8106 115.43Z" fill="#263238"/>
<path d="M33.1821 49.9685L34.5145 48.6731C34.6133 48.5771 34.7456 48.5236 34.8833 48.524C35.021 48.5244 35.1531 48.5788 35.2512 48.6754L40.8718 54.4566L38.7842 56.4861L33.1636 50.705C33.0663 50.6048 33.0127 50.4701 33.0147 50.3305C33.0166 50.1908 33.074 50.0577 33.1741 49.9603L33.1821 49.9685Z" fill="#263238"/>
<path opacity="0.1" d="M33.1821 49.9685L34.5145 48.6731C34.6133 48.5771 34.7456 48.5236 34.8833 48.524C35.021 48.5244 35.1531 48.5788 35.2512 48.6754L40.8718 54.4566L38.7842 56.4861L33.1636 50.705C33.0663 50.6048 33.0127 50.4701 33.0147 50.3305C33.0166 50.1908 33.074 50.0577 33.1741 49.9603L33.1821 49.9685Z" fill="white"/>
<path d="M39.5984 52.806L36.7598 55.5496C36.504 55.7956 36.3541 56.1317 36.342 56.4865C36.33 56.8412 36.4567 57.1867 36.6952 57.4496C53.4532 76.062 70.8711 94.0487 88.949 111.41C88.949 111.41 92.8972 114.609 96.7314 115.426L97.4344 114.75C96.7428 110.889 93.68 106.838 93.68 106.838C76.9448 88.2106 59.5484 70.1986 41.4908 52.8022C41.2361 52.558 40.8967 52.4219 40.5438 52.4226C40.191 52.4233 39.8521 52.5607 39.5984 52.806Z" fill="#B63D6D"/>
<path d="M40.879 50.146L36.091 54.7745C36.053 54.8119 36.0228 54.8566 36.0022 54.9058C35.9816 54.9551 35.9709 55.008 35.9709 55.0613C35.9709 55.1147 35.9816 55.1676 36.0022 55.2169C36.0228 55.2661 36.053 55.3108 36.091 55.3482L36.5546 55.8309L41.4224 51.1227C48.7754 58.0425 54.3158 64.3732 54.3158 64.3732L54.1258 64.89L55.8586 65.9427C54.4108 62.6823 43.5428 52.0916 41.5288 50.146C41.4864 50.103 41.4358 50.0687 41.38 50.0454C41.3243 50.022 41.2644 50.01 41.2039 50.01C41.1434 50.01 41.0836 50.022 41.0278 50.0454C40.972 50.0687 40.9214 50.103 40.879 50.146Z" fill="#263238"/>
<path d="M66.2485 77.4281L60.4564 83.0273L61.5314 84.1393L67.3234 78.5401L66.2485 77.4281Z" fill="#B63D6D"/>
<path d="M70.272 93.5306C75.516 98.8227 80.8056 104.054 86.1408 109.225C86.2572 109.338 86.4134 109.402 86.5759 109.402C86.7385 109.402 86.8946 109.338 87.011 109.225L91.571 104.836C91.6882 104.723 91.7565 104.569 91.7615 104.406C91.7664 104.243 91.7076 104.085 91.5976 103.965C86.6222 98.463 81.572 93.0011 76.447 87.5798C76.39 87.5194 76.3215 87.4709 76.2455 87.4372C76.1695 87.4035 76.0876 87.3852 76.0045 87.3834C75.9214 87.3817 75.8388 87.3964 75.7615 87.4269C75.6841 87.4573 75.6136 87.5029 75.554 87.5608L70.3024 92.6376C70.2417 92.6942 70.1927 92.7622 70.1583 92.8377C70.1239 92.9133 70.1047 92.9948 70.1019 93.0778C70.099 93.1608 70.1126 93.2435 70.1418 93.3212C70.171 93.3989 70.2153 93.47 70.272 93.5306Z" fill="#263238"/>
<path opacity="0.2" d="M66.2485 77.4281L60.4564 83.0273L61.5314 84.1393L67.3234 78.5401L66.2485 77.4281Z" fill="black"/>
<path opacity="0.6" d="M40.879 50.146L36.091 54.7745C36.053 54.8119 36.0228 54.8566 36.0022 54.9058C35.9816 54.9551 35.9709 55.008 35.9709 55.0613C35.9709 55.1147 35.9816 55.1676 36.0022 55.2169C36.0228 55.2661 36.053 55.3108 36.091 55.3482L36.5546 55.8309L41.4224 51.1227C48.7754 58.0425 54.3158 64.3732 54.3158 64.3732L54.1258 64.89L55.8586 65.9427C54.4108 62.6823 43.5428 52.0916 41.5288 50.146C41.4864 50.103 41.4358 50.0687 41.38 50.0454C41.3243 50.022 41.2644 50.01 41.2039 50.01C41.1434 50.01 41.0836 50.022 41.0278 50.0454C40.972 50.0687 40.9214 50.103 40.879 50.146Z" fill="white"/>
<path opacity="0.1" d="M70.272 93.5306C75.516 98.8227 80.8056 104.054 86.1408 109.225C86.2572 109.338 86.4134 109.402 86.5759 109.402C86.7385 109.402 86.8946 109.338 87.011 109.225L91.571 104.836C91.6882 104.723 91.7565 104.569 91.7615 104.406C91.7664 104.243 91.7076 104.085 91.5976 103.965C86.6222 98.463 81.572 93.0011 76.447 87.5798C76.39 87.5194 76.3215 87.4709 76.2455 87.4372C76.1695 87.4035 76.0876 87.3852 76.0045 87.3834C75.9214 87.3817 75.8388 87.3964 75.7615 87.4269C75.6841 87.4573 75.6136 87.5029 75.554 87.5608L70.3024 92.6376C70.2417 92.6942 70.1927 92.7622 70.1583 92.8377C70.1239 92.9133 70.1047 92.9948 70.1019 93.0778C70.099 93.1608 70.1126 93.2435 70.1418 93.3212C70.171 93.3989 70.2153 93.47 70.272 93.5306Z" fill="white"/>
<path d="M78.2634 86.5803L77.8188 87.1769C77.5858 87.1199 77.3435 87.112 77.1073 87.1539C76.8711 87.1958 76.6462 87.2864 76.447 87.4201C76.447 87.4201 76.485 88.9401 76.5496 89.1301C76.6864 89.5709 78.6662 90.8857 79.1792 90.9541C79.3388 90.9769 79.6428 89.9205 79.5934 89.5595C79.4245 89.0765 79.1974 88.6158 78.917 88.1877L79.297 87.6557L78.2634 86.5803Z" fill="#E4897B"/>
<path d="M44.6334 68.0251L44.6942 67.5463C44.6942 67.5463 45.0172 67.6261 45.154 67.0713C45.2908 66.5165 45.5682 65.1485 45.3744 64.8141C44.8547 64.1396 44.2856 63.5045 43.672 62.9141C43.3908 62.6709 42.7334 63.8261 42.5852 64.3619C42.437 64.8977 43.1818 66.9763 43.1818 66.9763L43.1514 67.8769C43.3708 68.013 43.6184 68.0972 43.8752 68.1229C44.1321 68.1486 44.3915 68.1151 44.6334 68.0251Z" fill="#E4897B"/>
<path d="M74.1404 69.3018C75.231 70.5482 78.6586 75.606 79.601 78.0722C80.9158 81.5302 79.601 88.4842 79.601 88.4842L77.321 86.9642C77.321 86.9642 77.7504 81.6708 77.1614 79.7898C76.5724 77.9088 71.9516 74.3786 71.9516 74.3786C72.0608 73.5314 72.2885 72.7038 72.628 71.92C73.0022 70.9784 73.5117 70.0964 74.1404 69.3018Z" fill="#B63D6D"/>
<path opacity="0.6" d="M79.62 88.4842L77.34 86.9642C77.34 86.9642 77.7694 81.6708 77.1804 79.7898C76.846 78.7258 75.2158 77.1298 73.8668 75.948C72.837 75.0436 71.9668 74.3786 71.9668 74.3786C72.0718 73.5946 72.28 72.8279 72.5862 72.0986L72.6584 71.9276C73.0366 70.9922 73.5486 70.1167 74.1784 69.3284C75.269 70.5748 78.6966 75.6326 79.639 78.0988C80.9158 81.5302 79.62 88.4842 79.62 88.4842Z" fill="white"/>
<path opacity="0.2" d="M73.8326 75.9329C72.8028 75.0285 71.9326 74.3635 71.9326 74.3635C72.0376 73.5795 72.2459 72.8128 72.552 72.0835C73.3245 73.2246 73.7676 74.5565 73.8326 75.9329Z" fill="black"/>
</g>
</g>
<defs>
<filter id="filter0_d_19_21" x="0.95" y="0.48" width="196.1" height="241.1" filterUnits="userSpaceOnUse" color-interpolation-filters="sRGB">
<feFlood flood-opacity="0" result="BackgroundImageFix"/>
<feColorMatrix in="SourceAlpha" type="matrix" values="0 0 0 0 0 0 0 0 0 0 0 0 0 0 0 0 0 0 127 0" result="hardAlpha"/>
<feOffset dy="1.53"/>
<feGaussianBlur stdDeviation="1.525"/>
<feComposite in2="hardAlpha" operator="out"/>
<feColorMatrix type="matrix" values="0 0 0 0 0.827451 0 0 0 0 0.854902 0 0 0 0 0.886275 0 0 0 1 0"/>
<feBlend mode="normal" in2="BackgroundImageFix" result="effect1_dropShadow_19_21"/>
<feBlend mode="normal" in="SourceGraphic" in2="effect1_dropShadow_19_21" result="shape"/>
</filter>
<filter id="filter1_d_19_21" x="0.95" y="21.9119" width="196.1" height="219.668" filterUnits="userSpaceOnUse" color-interpolation-filters="sRGB">
<feFlood flood-opacity="0" result="BackgroundImageFix"/>
<feColorMatrix in="SourceAlpha" type="matrix" values="0 0 0 0 0 0 0 0 0 0 0 0 0 0 0 0 0 0 127 0" result="hardAlpha"/>
<feOffset dy="1.53"/>
<feGaussianBlur stdDeviation="1.525"/>
<feComposite in2="hardAlpha" operator="out"/>
<feColorMatrix type="matrix" values="0 0 0 0 0.827451 0 0 0 0 0.854902 0 0 0 0 0.886275 0 0 0 1 0"/>
<feBlend mode="normal" in2="BackgroundImageFix" result="effect1_dropShadow_19_21"/>
<feBlend mode="normal" in="SourceGraphic" in2="effect1_dropShadow_19_21" result="shape"/>
</filter>
<filter id="filter2_d_19_21" x="-74.0259" y="102.619" width="258.265" height="258.265" filterUnits="userSpaceOnUse" color-interpolation-filters="sRGB">
<feFlood flood-opacity="0" result="BackgroundImageFix"/>
<feColorMatrix in="SourceAlpha" type="matrix" values="0 0 0 0 0 0 0 0 0 0 0 0 0 0 0 0 0 0 127 0" result="hardAlpha"/>
<feOffset dy="-1"/>
<feGaussianBlur stdDeviation="2"/>
<feComposite in2="hardAlpha" operator="out"/>
<feColorMatrix type="matrix" values="0 0 0 0 1 0 0 0 0 1 0 0 0 0 1 0 0 0 0.82 0"/>
<feBlend mode="normal" in2="BackgroundImageFix" result="effect1_dropShadow_19_21"/>
<feBlend mode="normal" in="SourceGraphic" in2="effect1_dropShadow_19_21" result="shape"/>
</filter>
<linearGradient id="paint0_linear_19_21" x1="94.1056" y1="177.503" x2="-29.391" y2="270.126" gradientUnits="userSpaceOnUse">
<stop stop-color="white"/>
<stop offset="1" stop-color="#999999"/>
</linearGradient>
<clipPath id="clip0_19_21">
<rect x="4" y="2" width="190" height="235" rx="16" fill="white"/>
</clipPath>
</defs>
</svg>
