<svg width="144" height="96" viewBox="0 0 144 96" fill="none" xmlns="http://www.w3.org/2000/svg">
<path d="M136.245 65.0688C139.446 41.3607 123.398 19.3152 99.9321 14.665C96.576 14.0007 92.8627 13.44 88.7712 13.0349C65.1552 10.7309 47.2992 32.8109 30.9792 39.1469C14.6592 45.4829 7.17116 44.7149 5.63516 65.0669C4.09916 85.4189 22.7232 91.7549 43.8432 87.7229C64.9632 83.6909 63.4272 73.1309 87.6192 81.7709C111.811 90.4109 122.755 92.3309 131.395 79.0829C133.878 75.2755 135.521 70.4352 136.245 65.0688Z" fill="#56AA7A"/>
<path opacity="0.7" d="M136.245 65.0688C139.446 41.3607 123.398 19.3152 99.9321 14.665C96.576 14.0007 92.8627 13.44 88.7712 13.0349C65.1552 10.7309 47.2992 32.8109 30.9792 39.1469C14.6592 45.4829 7.17116 44.7149 5.63516 65.0669C4.09916 85.4189 22.7232 91.7549 43.8432 87.7229C64.9632 83.6909 63.4272 73.1309 87.6192 81.7709C111.811 90.4109 122.755 92.3309 131.395 79.0829C133.878 75.2755 135.521 70.4352 136.245 65.0688Z" fill="white"/>
<path d="M128.88 64.0953L130.973 84.1459" stroke="#263238" stroke-width="0.3" stroke-miterlimit="10"/>
<path d="M130.637 80.3078L129.688 79.3075" stroke="#263238" stroke-width="0.3" stroke-miterlimit="10"/>
<path d="M129.984 79.607C129.981 79.4533 129.946 79.3018 129.88 79.163C129.813 79.0242 129.718 78.9013 129.6 78.8025C129.356 78.5856 128.076 78.0461 127.953 78.4973C127.82 78.9888 129.132 79.9526 129.984 79.607Z" fill="#56AA7A" stroke="#263238" stroke-width="0.3" stroke-miterlimit="10"/>
<path opacity="0.4" d="M129.984 79.607C129.981 79.4533 129.946 79.3018 129.88 79.163C129.813 79.0242 129.718 78.9013 129.6 78.8025C129.356 78.5856 128.076 78.0461 127.953 78.4973C127.82 78.9888 129.132 79.9526 129.984 79.607Z" fill="white" stroke="#263238" stroke-width="0.3" stroke-miterlimit="10"/>
<path d="M129.976 79.607L128.755 78.8467" stroke="#263238" stroke-width="0.3" stroke-miterlimit="10"/>
<path d="M130.875 82.5888L129.924 81.5865" stroke="#263238" stroke-width="0.3" stroke-miterlimit="10"/>
<path d="M130.214 81.888C130.212 81.734 130.176 81.5823 130.11 81.4432C130.043 81.3041 129.948 81.1808 129.83 81.0816C129.586 80.8646 128.306 80.3251 128.183 80.7763C128.064 81.2678 129.369 82.2317 130.214 81.888Z" fill="#56AA7A" stroke="#263238" stroke-width="0.3" stroke-miterlimit="10"/>
<path opacity="0.4" d="M130.214 81.888C130.212 81.734 130.176 81.5823 130.11 81.4432C130.043 81.3041 129.948 81.1808 129.83 81.0816C129.586 80.8646 128.306 80.3251 128.183 80.7763C128.064 81.2678 129.369 82.2317 130.214 81.888Z" fill="white" stroke="#263238" stroke-width="0.3" stroke-miterlimit="10"/>
<path d="M130.214 81.888L128.993 81.1277" stroke="#263238" stroke-width="0.3" stroke-miterlimit="10"/>
<path d="M130.055 74.7437L129.106 73.7433" stroke="#263238" stroke-width="0.3" stroke-miterlimit="10"/>
<path d="M129.394 74.0429C129.392 73.8891 129.356 73.7378 129.29 73.599C129.223 73.4602 129.128 73.3372 129.01 73.2384C128.767 73.0214 127.474 72.4819 127.363 72.9331C127.238 73.4246 128.55 74.3885 129.394 74.0429Z" fill="#56AA7A" stroke="#263238" stroke-width="0.3" stroke-miterlimit="10"/>
<path opacity="0.4" d="M129.395 74.0428C129.392 73.8891 129.356 73.7377 129.29 73.5989C129.224 73.4601 129.128 73.3372 129.011 73.2383C128.767 73.0214 127.475 72.4819 127.363 72.9331C127.238 73.4246 128.55 74.3884 129.395 74.0428Z" fill="white" stroke="#263238" stroke-width="0.3" stroke-miterlimit="10"/>
<path d="M129.394 74.0429L128.175 73.2825" stroke="#263238" stroke-width="0.3" stroke-miterlimit="10"/>
<path d="M130.293 77.0246L129.344 76.0224" stroke="#263238" stroke-width="0.3" stroke-miterlimit="10"/>
<path d="M129.633 76.3238C129.63 76.1698 129.594 76.0182 129.528 75.8791C129.462 75.74 129.366 75.6167 129.249 75.5174C129.005 75.3005 127.713 74.7609 127.601 75.214C127.477 75.7036 128.788 76.6675 129.633 76.3238Z" fill="#56AA7A" stroke="#263238" stroke-width="0.3" stroke-miterlimit="10"/>
<path opacity="0.4" d="M129.632 76.3238C129.63 76.1698 129.594 76.0182 129.528 75.8791C129.461 75.74 129.366 75.6167 129.248 75.5174C129.005 75.3005 127.712 74.7609 127.601 75.214C127.476 75.7036 128.788 76.6675 129.632 76.3238Z" fill="white" stroke="#263238" stroke-width="0.3" stroke-miterlimit="10"/>
<path d="M129.633 76.3238L128.413 75.5635" stroke="#263238" stroke-width="0.3" stroke-miterlimit="10"/>
<path d="M129.669 71.04L128.72 70.0377" stroke="#263238" stroke-width="0.3" stroke-miterlimit="10"/>
<path d="M129.008 70.3392C129.006 70.1854 128.97 70.034 128.904 69.8952C128.838 69.7564 128.742 69.6334 128.624 69.5347C128.381 69.3158 127.1 68.7782 126.979 69.2294C126.852 69.719 128.164 70.6828 129.008 70.3392Z" fill="#56AA7A" stroke="#263238" stroke-width="0.3" stroke-miterlimit="10"/>
<path opacity="0.4" d="M129.009 70.3392C129.006 70.1854 128.97 70.034 128.904 69.8952C128.838 69.7564 128.743 69.6334 128.625 69.5347C128.381 69.3158 127.1 68.7782 126.979 69.2294C126.853 69.719 128.164 70.6828 129.009 70.3392Z" fill="white" stroke="#263238" stroke-width="0.3" stroke-miterlimit="10"/>
<path d="M129.009 70.3392L127.789 69.5789" stroke="#263238" stroke-width="0.3" stroke-miterlimit="10"/>
<path d="M129.281 67.321L128.333 66.3187" stroke="#263238" stroke-width="0.3" stroke-miterlimit="10"/>
<path d="M128.621 66.624C128.618 66.4702 128.582 66.3188 128.516 66.18C128.45 66.0412 128.355 65.9183 128.237 65.8195C127.993 65.6026 126.712 65.063 126.589 65.5142C126.465 66 127.776 66.9638 128.621 66.624Z" fill="#56AA7A" stroke="#263238" stroke-width="0.3" stroke-miterlimit="10"/>
<path opacity="0.4" d="M128.621 66.624C128.618 66.4702 128.582 66.3188 128.516 66.18C128.45 66.0412 128.355 65.9183 128.237 65.8195C127.993 65.6026 126.712 65.063 126.589 65.5142C126.465 66 127.776 66.9638 128.621 66.624Z" fill="white" stroke="#263238" stroke-width="0.3" stroke-miterlimit="10"/>
<path d="M128.621 66.6182L127.4 65.8579" stroke="#263238" stroke-width="0.3" stroke-miterlimit="10"/>
<path d="M130.477 78.96L131.197 77.783" stroke="#263238" stroke-width="0.3" stroke-miterlimit="10"/>
<path d="M130.979 78.144C130.948 77.9935 130.951 77.8383 130.986 77.6889C131.021 77.5395 131.088 77.3994 131.182 77.2781C131.374 77.015 132.526 76.224 132.73 76.6406C132.96 77.0861 131.875 78.2995 130.979 78.144Z" fill="#56AA7A" stroke="#263238" stroke-width="0.3" stroke-miterlimit="10"/>
<path opacity="0.4" d="M130.978 78.144C130.948 77.9935 130.951 77.8383 130.986 77.6889C131.021 77.5395 131.088 77.3994 131.182 77.2781C131.374 77.015 132.526 76.224 132.729 76.6406C132.96 77.0861 131.875 78.2995 130.978 78.144Z" fill="white" stroke="#263238" stroke-width="0.3" stroke-miterlimit="10"/>
<path d="M130.979 78.1363L132.077 77.0861" stroke="#263238" stroke-width="0.3" stroke-miterlimit="10"/>
<path d="M129.85 72.96L130.572 71.783" stroke="#263238" stroke-width="0.3" stroke-miterlimit="10"/>
<path d="M130.351 72.1363C130.322 71.9854 130.326 71.8301 130.362 71.6807C130.398 71.5314 130.465 71.3915 130.56 71.2704C130.752 71.0073 131.904 70.2163 132.109 70.6329C132.334 71.0861 131.249 72.2995 130.351 72.1363Z" fill="#56AA7A" stroke="#263238" stroke-width="0.3" stroke-miterlimit="10"/>
<path opacity="0.4" d="M130.351 72.1363C130.322 71.9854 130.326 71.8301 130.362 71.6807C130.398 71.5314 130.465 71.3915 130.56 71.2704C130.752 71.0073 131.904 70.2163 132.109 70.6329C132.334 71.0861 131.249 72.2995 130.351 72.1363Z" fill="white" stroke="#263238" stroke-width="0.3" stroke-miterlimit="10"/>
<path d="M130.351 72.1363L131.451 71.0861" stroke="#263238" stroke-width="0.3" stroke-miterlimit="10"/>
<path d="M129.575 70.3219L130.297 69.1469" stroke="#263238" stroke-width="0.3" stroke-miterlimit="10"/>
<path d="M130.076 69.504C130.047 69.3538 130.049 69.199 130.085 69.05C130.12 68.901 130.186 68.7612 130.28 68.64C130.472 68.377 131.624 67.584 131.827 68.0007C132.058 68.448 130.975 69.6614 130.076 69.504Z" fill="#56AA7A" stroke="#263238" stroke-width="0.3" stroke-miterlimit="10"/>
<path opacity="0.4" d="M130.076 69.504C130.046 69.3538 130.049 69.199 130.084 69.05C130.119 68.901 130.186 68.7612 130.279 68.64C130.471 68.377 131.623 67.584 131.827 68.0007C132.057 68.448 130.974 69.6614 130.076 69.504Z" fill="white" stroke="#263238" stroke-width="0.3" stroke-miterlimit="10"/>
<path d="M130.076 69.4982L131.174 68.4499" stroke="#263238" stroke-width="0.3" stroke-miterlimit="10"/>
<path d="M129.172 66.4569L129.894 65.28" stroke="#263238" stroke-width="0.3" stroke-miterlimit="10"/>
<path d="M129.673 65.6332C129.643 65.4827 129.646 65.3277 129.681 65.1783C129.716 65.029 129.783 64.8889 129.876 64.7673C130.068 64.5043 131.22 63.7132 131.424 64.1299C131.654 64.583 130.571 65.7964 129.673 65.6332Z" fill="#56AA7A" stroke="#263238" stroke-width="0.3" stroke-miterlimit="10"/>
<path opacity="0.4" d="M129.673 65.6332C129.644 65.4827 129.646 65.3277 129.681 65.1783C129.717 65.029 129.783 64.8889 129.877 64.7673C130.069 64.5043 131.221 63.7132 131.424 64.1299C131.655 64.583 130.572 65.7964 129.673 65.6332Z" fill="white" stroke="#263238" stroke-width="0.3" stroke-miterlimit="10"/>
<path d="M129.673 65.6332L130.771 64.583" stroke="#263238" stroke-width="0.3" stroke-miterlimit="10"/>
<path d="M128.863 63.984C128.833 63.8338 128.836 63.679 128.871 63.53C128.906 63.381 128.973 63.2412 129.066 63.12C129.258 62.8569 130.41 62.064 130.614 62.4806C130.846 62.9338 129.761 64.1472 128.863 63.984Z" fill="#56AA7A" stroke="#263238" stroke-width="0.3" stroke-miterlimit="10"/>
<path opacity="0.4" d="M128.862 63.984C128.833 63.8338 128.836 63.679 128.871 63.53C128.906 63.381 128.973 63.2412 129.066 63.12C129.258 62.8569 130.41 62.064 130.614 62.4806C130.846 62.9338 129.761 64.1472 128.862 63.984Z" fill="white" stroke="#263238" stroke-width="0.3" stroke-miterlimit="10"/>
<path d="M128.863 63.984L129.961 62.9357" stroke="#263238" stroke-width="0.3" stroke-miterlimit="10"/>
<path d="M128.926 64.03C128.773 64.044 128.619 64.025 128.475 63.9743C128.33 63.9236 128.198 63.8424 128.087 63.7363C127.847 63.5174 127.179 62.2982 127.615 62.1312C128.089 61.9488 129.183 63.1545 128.926 64.03Z" fill="#56AA7A" stroke="#263238" stroke-width="0.3" stroke-miterlimit="10"/>
<path opacity="0.4" d="M128.926 64.0301C128.773 64.044 128.619 64.025 128.474 63.9744C128.33 63.9237 128.197 63.8425 128.087 63.7363C127.847 63.5175 127.179 62.2983 127.614 62.1312C128.089 61.9488 129.183 63.1546 128.926 64.0301Z" fill="white" stroke="#263238" stroke-width="0.3" stroke-miterlimit="10"/>
<path d="M128.926 64.03L127.999 62.8281" stroke="#263238" stroke-width="0.3" stroke-miterlimit="10"/>
<path d="M134.4 66.8563L132.319 86.9088" stroke="#263238" stroke-width="0.3" stroke-miterlimit="10"/>
<path d="M132.78 83.0841L132.058 81.9072" stroke="#263238" stroke-width="0.3" stroke-miterlimit="10"/>
<path d="M132.276 82.2605C132.306 82.1103 132.304 81.9554 132.269 81.8063C132.234 81.6572 132.167 81.5174 132.073 81.3965C131.881 81.1334 130.729 80.3424 130.525 80.759C130.295 81.216 131.38 82.4256 132.276 82.2605Z" fill="#56AA7A" stroke="#263238" stroke-width="0.3" stroke-miterlimit="10"/>
<path opacity="0.4" d="M132.277 82.2605C132.307 82.1103 132.304 81.9554 132.269 81.8063C132.234 81.6572 132.167 81.5174 132.073 81.3965C131.881 81.1334 130.729 80.3424 130.526 80.759C130.295 81.216 131.38 82.4256 132.277 82.2605Z" fill="white" stroke="#263238" stroke-width="0.3" stroke-miterlimit="10"/>
<path d="M132.276 82.2605L131.24 81.2659" stroke="#263238" stroke-width="0.3" stroke-miterlimit="10"/>
<path d="M133.355 77.52L132.634 76.343" stroke="#263238" stroke-width="0.3" stroke-miterlimit="10"/>
<path d="M132.864 76.6963C132.894 76.5461 132.892 76.3912 132.856 76.2421C132.821 76.093 132.754 75.9533 132.66 75.8323C132.468 75.5693 131.316 74.7763 131.113 75.193C130.873 75.648 131.958 76.8595 132.864 76.6963Z" fill="#56AA7A" stroke="#263238" stroke-width="0.3" stroke-miterlimit="10"/>
<path opacity="0.4" d="M132.864 76.6963C132.894 76.5461 132.892 76.3912 132.856 76.2421C132.821 76.093 132.754 75.9532 132.66 75.8323C132.468 75.5692 131.316 74.7763 131.113 75.1929C130.873 75.648 131.958 76.8595 132.864 76.6963Z" fill="white" stroke="#263238" stroke-width="0.3" stroke-miterlimit="10"/>
<path d="M132.854 76.6963L131.818 75.7017" stroke="#263238" stroke-width="0.3" stroke-miterlimit="10"/>
<path d="M133.119 79.799L132.397 78.624" stroke="#263238" stroke-width="0.3" stroke-miterlimit="10"/>
<path d="M132.618 78.9773C132.648 78.8268 132.645 78.6717 132.61 78.5224C132.575 78.3731 132.508 78.2329 132.415 78.1114C132.223 77.8483 131.071 77.0573 130.865 77.4739C130.635 77.9271 131.712 79.1405 132.618 78.9773Z" fill="#56AA7A" stroke="#263238" stroke-width="0.3" stroke-miterlimit="10"/>
<path opacity="0.4" d="M132.618 78.9772C132.648 78.8267 132.645 78.6716 132.61 78.5223C132.575 78.373 132.508 78.2329 132.414 78.1113C132.222 77.8483 131.07 77.0572 130.865 77.4739C130.635 77.927 131.712 79.1404 132.618 78.9772Z" fill="white" stroke="#263238" stroke-width="0.3" stroke-miterlimit="10"/>
<path d="M132.618 78.9773L131.581 77.9827" stroke="#263238" stroke-width="0.3" stroke-miterlimit="10"/>
<path d="M133.741 73.8144L133.02 72.6393" stroke="#263238" stroke-width="0.3" stroke-miterlimit="10"/>
<path d="M133.248 72.9926C133.278 72.8421 133.275 72.6869 133.24 72.5375C133.205 72.3881 133.138 72.248 133.044 72.1267C132.852 71.8637 131.7 71.0726 131.497 71.4893C131.257 71.9424 132.342 73.152 133.248 72.9926Z" fill="#56AA7A" stroke="#263238" stroke-width="0.3" stroke-miterlimit="10"/>
<path opacity="0.4" d="M133.248 72.9926C133.278 72.8421 133.275 72.6869 133.24 72.5375C133.205 72.3881 133.138 72.248 133.044 72.1267C132.852 71.8637 131.7 71.0726 131.497 71.4893C131.257 71.9424 132.342 73.152 133.248 72.9926Z" fill="white" stroke="#263238" stroke-width="0.3" stroke-miterlimit="10"/>
<path d="M133.238 72.9926L132.201 71.998" stroke="#263238" stroke-width="0.3" stroke-miterlimit="10"/>
<path d="M134.127 70.0954L133.405 68.9184" stroke="#263238" stroke-width="0.3" stroke-miterlimit="10"/>
<path d="M133.632 69.2717C133.662 69.1215 133.66 68.9666 133.625 68.8175C133.589 68.6684 133.523 68.5286 133.429 68.4077C133.237 68.1446 132.085 67.3516 131.881 67.7683C131.643 68.2214 132.728 69.4349 133.632 69.2717Z" fill="#56AA7A" stroke="#263238" stroke-width="0.3" stroke-miterlimit="10"/>
<path opacity="0.4" d="M133.632 69.2717C133.662 69.1215 133.66 68.9666 133.625 68.8175C133.589 68.6684 133.523 68.5286 133.429 68.4077C133.237 68.1447 132.085 67.3517 131.881 67.7683C131.643 68.2215 132.728 69.4349 133.632 69.2717Z" fill="white" stroke="#263238" stroke-width="0.3" stroke-miterlimit="10"/>
<path d="M133.624 69.2717L132.587 68.2771" stroke="#263238" stroke-width="0.3" stroke-miterlimit="10"/>
<path d="M132.9 81.7306L133.849 80.7283" stroke="#263238" stroke-width="0.3" stroke-miterlimit="10"/>
<path d="M133.561 81.024C133.564 80.8703 133.6 80.719 133.666 80.5802C133.732 80.4415 133.827 80.3185 133.945 80.2195C134.189 80.0025 135.469 79.463 135.592 79.9142C135.717 80.4076 134.4 81.3734 133.561 81.024Z" fill="#56AA7A" stroke="#263238" stroke-width="0.3" stroke-miterlimit="10"/>
<path opacity="0.4" d="M133.561 81.024C133.564 80.8703 133.6 80.719 133.666 80.5803C133.732 80.4415 133.827 80.3185 133.945 80.2195C134.189 80.0026 135.47 79.4631 135.592 79.9143C135.717 80.4077 134.4 81.3735 133.561 81.024Z" fill="white" stroke="#263238" stroke-width="0.3" stroke-miterlimit="10"/>
<path d="M133.561 81.0278L134.851 80.2272" stroke="#263238" stroke-width="0.3" stroke-miterlimit="10"/>
<path d="M133.522 75.7306L134.471 74.7283" stroke="#263238" stroke-width="0.3" stroke-miterlimit="10"/>
<path d="M134.183 75.0278C134.185 74.8741 134.221 74.7227 134.287 74.5839C134.354 74.4451 134.449 74.3221 134.567 74.2234C134.809 74.0045 136.091 73.465 136.212 73.9162C136.339 74.4077 135.028 75.3715 134.183 75.0278Z" fill="#56AA7A" stroke="#263238" stroke-width="0.3" stroke-miterlimit="10"/>
<path opacity="0.4" d="M134.183 75.0278C134.186 74.8741 134.221 74.7227 134.288 74.5839C134.354 74.4451 134.449 74.3221 134.567 74.2234C134.809 74.0045 136.092 73.465 136.213 73.9162C136.339 74.4077 135.028 75.3715 134.183 75.0278Z" fill="white" stroke="#263238" stroke-width="0.3" stroke-miterlimit="10"/>
<path d="M134.183 75.0278L135.475 74.2272" stroke="#263238" stroke-width="0.3" stroke-miterlimit="10"/>
<path d="M133.797 73.0925L134.746 72.0902" stroke="#263238" stroke-width="0.3" stroke-miterlimit="10"/>
<path d="M134.458 72.384C134.46 72.2302 134.495 72.0787 134.562 71.9398C134.628 71.801 134.723 71.6781 134.842 71.5795C135.085 71.3626 136.366 70.823 136.489 71.2742C136.614 71.7696 135.302 72.7354 134.458 72.384Z" fill="#56AA7A" stroke="#263238" stroke-width="0.3" stroke-miterlimit="10"/>
<path opacity="0.4" d="M134.458 72.384C134.46 72.2302 134.495 72.0787 134.562 71.9398C134.628 71.801 134.723 71.6781 134.842 71.5795C135.085 71.3626 136.366 70.823 136.489 71.2742C136.614 71.7696 135.302 72.7354 134.458 72.384Z" fill="white" stroke="#263238" stroke-width="0.3" stroke-miterlimit="10"/>
<path d="M134.458 72.3898L135.748 71.5891" stroke="#263238" stroke-width="0.3" stroke-miterlimit="10"/>
<path d="M134.198 69.2275L135.147 68.2253" stroke="#263238" stroke-width="0.3" stroke-miterlimit="10"/>
<path d="M134.859 68.5248C134.861 68.371 134.897 68.2194 134.963 68.0806C135.029 67.9417 135.125 67.8188 135.243 67.7203C135.487 67.5014 136.767 66.9619 136.888 67.4131C137.015 67.9046 135.704 68.8685 134.859 68.5248Z" fill="#56AA7A" stroke="#263238" stroke-width="0.3" stroke-miterlimit="10"/>
<path opacity="0.4" d="M134.859 68.5248C134.861 68.371 134.897 68.2194 134.963 68.0806C135.029 67.9417 135.125 67.8188 135.243 67.7203C135.487 67.5014 136.767 66.9619 136.888 67.4131C137.015 67.9046 135.704 68.8685 134.859 68.5248Z" fill="white" stroke="#263238" stroke-width="0.3" stroke-miterlimit="10"/>
<path d="M134.859 68.5248L136.149 67.7241" stroke="#263238" stroke-width="0.3" stroke-miterlimit="10"/>
<path d="M134.4 66.745C134.403 66.5912 134.438 66.4398 134.505 66.301C134.571 66.1623 134.666 66.0393 134.784 65.9405C135.028 65.7216 136.308 65.1821 136.431 65.6333C136.562 66.1248 135.25 67.0886 134.4 66.745Z" fill="#56AA7A" stroke="#263238" stroke-width="0.3" stroke-miterlimit="10"/>
<path opacity="0.4" d="M134.4 66.7449C134.403 66.5911 134.438 66.4398 134.505 66.301C134.571 66.1622 134.666 66.0392 134.784 65.9404C135.028 65.7215 136.308 65.182 136.431 65.6332C136.562 66.1247 135.25 67.0886 134.4 66.7449Z" fill="white" stroke="#263238" stroke-width="0.3" stroke-miterlimit="10"/>
<path d="M134.406 66.745L135.696 65.9443" stroke="#263238" stroke-width="0.3" stroke-miterlimit="10"/>
<path d="M134.457 66.8025C134.304 66.7857 134.155 66.7358 134.023 66.6562C133.89 66.5767 133.777 66.4694 133.689 66.3417C133.497 66.0787 133.096 64.7481 133.557 64.6732C134.068 64.5926 134.889 65.998 134.457 66.8025Z" fill="#56AA7A" stroke="#263238" stroke-width="0.3" stroke-miterlimit="10"/>
<path opacity="0.4" d="M134.457 66.8026C134.304 66.7857 134.155 66.7358 134.023 66.6563C133.89 66.5767 133.777 66.4695 133.689 66.3418C133.497 66.0787 133.096 64.7482 133.557 64.6733C134.068 64.5927 134.889 65.9981 134.457 66.8026Z" fill="white" stroke="#263238" stroke-width="0.3" stroke-miterlimit="10"/>
<path d="M134.458 66.8026L133.797 65.4336" stroke="#263238" stroke-width="0.3" stroke-miterlimit="10"/>
<path d="M132.015 58.6924V84.048" stroke="#263238" stroke-width="0.3" stroke-miterlimit="10"/>
<path d="M132.037 80.2348L131.196 79.1404" stroke="#263238" stroke-width="0.3" stroke-miterlimit="10"/>
<path d="M131.451 79.4688C131.465 79.3162 131.446 79.1624 131.396 79.0177C131.346 78.8729 131.265 78.7407 131.159 78.6298C130.94 78.3878 129.721 77.7197 129.554 78.1555C129.372 78.6298 130.575 79.7242 131.451 79.4688Z" fill="#56AA7A" stroke="#263238" stroke-width="0.3" stroke-miterlimit="10"/>
<path opacity="0.4" d="M131.451 79.4688C131.465 79.3162 131.446 79.1624 131.396 79.0177C131.345 78.8729 131.265 78.7407 131.159 78.6298C130.94 78.3878 129.721 77.7197 129.554 78.1555C129.371 78.6298 130.575 79.7242 131.451 79.4688Z" fill="white" stroke="#263238" stroke-width="0.3" stroke-miterlimit="10"/>
<path d="M131.451 79.4688L130.318 78.5856" stroke="#263238" stroke-width="0.3" stroke-miterlimit="10"/>
<path d="M132.037 75.4713L131.196 74.375" stroke="#263238" stroke-width="0.3" stroke-miterlimit="10"/>
<path d="M131.451 74.7034C131.465 74.5508 131.446 74.3969 131.396 74.2522C131.346 74.1075 131.265 73.9752 131.159 73.8643C130.94 73.6224 129.721 72.9542 129.554 73.3901C129.372 73.8643 130.575 74.9587 131.451 74.7034Z" fill="#56AA7A" stroke="#263238" stroke-width="0.3" stroke-miterlimit="10"/>
<path opacity="0.4" d="M131.451 74.7033C131.465 74.5507 131.446 74.3969 131.396 74.2522C131.345 74.1074 131.265 73.9752 131.159 73.8643C130.94 73.6223 129.721 72.9542 129.554 73.39C129.371 73.8643 130.575 74.9587 131.451 74.7033Z" fill="white" stroke="#263238" stroke-width="0.3" stroke-miterlimit="10"/>
<path d="M131.451 74.7034L130.318 73.8221" stroke="#263238" stroke-width="0.3" stroke-miterlimit="10"/>
<path d="M132.037 69.8764L131.196 68.782" stroke="#263238" stroke-width="0.3" stroke-miterlimit="10"/>
<path d="M131.451 69.12C131.465 68.9671 131.446 68.8131 131.396 68.668C131.345 68.523 131.265 68.3904 131.159 68.279C130.94 68.039 129.721 67.369 129.554 67.8048C129.372 68.2694 130.575 69.3658 131.451 69.12Z" fill="#56AA7A" stroke="#263238" stroke-width="0.3" stroke-miterlimit="10"/>
<path opacity="0.4" d="M131.451 69.12C131.465 68.9671 131.446 68.8131 131.395 68.668C131.345 68.523 131.264 68.3904 131.159 68.279C130.94 68.039 129.721 67.369 129.554 67.8048C129.371 68.2694 130.575 69.3658 131.451 69.12Z" fill="white" stroke="#263238" stroke-width="0.3" stroke-miterlimit="10"/>
<path d="M131.451 69.1104L130.318 68.2272" stroke="#263238" stroke-width="0.3" stroke-miterlimit="10"/>
<path d="M132.037 66.1517L131.196 65.0573" stroke="#263238" stroke-width="0.3" stroke-miterlimit="10"/>
<path d="M131.451 65.3856C131.465 65.233 131.446 65.0792 131.396 64.9345C131.346 64.7897 131.265 64.6575 131.159 64.5466C130.94 64.3046 129.721 63.6346 129.554 64.0723C129.372 64.5466 130.575 65.641 131.451 65.3856Z" fill="#56AA7A" stroke="#263238" stroke-width="0.3" stroke-miterlimit="10"/>
<path opacity="0.4" d="M131.451 65.3856C131.465 65.233 131.446 65.0792 131.396 64.9345C131.345 64.7897 131.265 64.6575 131.159 64.5466C130.94 64.3046 129.721 63.6346 129.554 64.0723C129.371 64.5466 130.575 65.641 131.451 65.3856Z" fill="white" stroke="#263238" stroke-width="0.3" stroke-miterlimit="10"/>
<path d="M131.451 65.3856L130.318 64.5024" stroke="#263238" stroke-width="0.3" stroke-miterlimit="10"/>
<path d="M132.037 62.4115L131.196 61.3171" stroke="#263238" stroke-width="0.3" stroke-miterlimit="10"/>
<path d="M131.451 61.6454C131.465 61.4928 131.446 61.339 131.396 61.1943C131.346 61.0496 131.265 60.9173 131.159 60.8064C130.94 60.5645 129.721 59.8944 129.554 60.3322C129.372 60.8064 130.575 61.9008 131.451 61.6454Z" fill="#56AA7A" stroke="#263238" stroke-width="0.3" stroke-miterlimit="10"/>
<path opacity="0.4" d="M131.451 61.6454C131.465 61.4928 131.446 61.339 131.396 61.1942C131.345 61.0495 131.265 60.9172 131.159 60.8063C130.94 60.5644 129.721 59.8943 129.554 60.3321C129.371 60.8063 130.575 61.9007 131.451 61.6454Z" fill="white" stroke="#263238" stroke-width="0.3" stroke-miterlimit="10"/>
<path d="M131.451 61.6454L130.318 60.7622" stroke="#263238" stroke-width="0.3" stroke-miterlimit="10"/>
<path d="M132.017 81.6902L132.856 80.5958" stroke="#263238" stroke-width="0.3" stroke-miterlimit="10"/>
<path d="M132.601 80.9241C132.587 80.7715 132.606 80.6177 132.656 80.473C132.706 80.3283 132.787 80.196 132.893 80.0851C133.112 79.8432 134.331 79.1731 134.498 79.6108C134.682 80.0851 133.476 81.1795 132.601 80.9241Z" fill="#56AA7A" stroke="#263238" stroke-width="0.3" stroke-miterlimit="10"/>
<path opacity="0.4" d="M132.601 80.9242C132.587 80.7716 132.605 80.6178 132.656 80.473C132.706 80.3283 132.787 80.1961 132.893 80.0851C133.111 79.8432 134.331 79.1731 134.498 79.6109C134.682 80.0851 133.476 81.1795 132.601 80.9242Z" fill="white" stroke="#263238" stroke-width="0.3" stroke-miterlimit="10"/>
<path d="M132.601 80.9241L133.803 79.9929" stroke="#263238" stroke-width="0.3" stroke-miterlimit="10"/>
<path d="M132.017 74.112L132.856 73.0176" stroke="#263238" stroke-width="0.3" stroke-miterlimit="10"/>
<path d="M132.601 73.344C132.587 73.1914 132.606 73.0376 132.656 72.8928C132.706 72.7481 132.787 72.6159 132.893 72.5049C133.112 72.263 134.331 71.5929 134.498 72.0307C134.682 72.5069 133.476 73.6013 132.601 73.344Z" fill="#56AA7A" stroke="#263238" stroke-width="0.3" stroke-miterlimit="10"/>
<path opacity="0.4" d="M132.601 73.344C132.587 73.1914 132.605 73.0376 132.656 72.8928C132.706 72.7481 132.787 72.6159 132.893 72.5049C133.111 72.263 134.331 71.5929 134.498 72.0307C134.682 72.5069 133.476 73.6013 132.601 73.344Z" fill="white" stroke="#263238" stroke-width="0.3" stroke-miterlimit="10"/>
<path d="M132.601 73.3459L133.803 72.4147" stroke="#263238" stroke-width="0.3" stroke-miterlimit="10"/>
<path d="M132.017 70.3718L132.856 69.2774" stroke="#263238" stroke-width="0.3" stroke-miterlimit="10"/>
<path d="M132.601 69.6058C132.587 69.4532 132.606 69.2994 132.656 69.1546C132.706 69.0099 132.787 68.8776 132.893 68.7667C133.112 68.5248 134.331 67.8547 134.498 68.2906C134.682 68.7667 133.476 69.8611 132.601 69.6058Z" fill="#56AA7A" stroke="#263238" stroke-width="0.3" stroke-miterlimit="10"/>
<path opacity="0.4" d="M132.601 69.6057C132.587 69.4531 132.605 69.2993 132.656 69.1546C132.706 69.0098 132.787 68.8776 132.893 68.7667C133.111 68.5247 134.331 67.8547 134.498 68.2905C134.682 68.7667 133.476 69.8611 132.601 69.6057Z" fill="white" stroke="#263238" stroke-width="0.3" stroke-miterlimit="10"/>
<path d="M132.601 69.6058L133.803 68.6746" stroke="#263238" stroke-width="0.3" stroke-miterlimit="10"/>
<path d="M132.017 65.4278L132.856 64.3334" stroke="#263238" stroke-width="0.3" stroke-miterlimit="10"/>
<path d="M132.601 64.6617C132.587 64.5091 132.606 64.3553 132.656 64.2106C132.706 64.0659 132.787 63.9336 132.893 63.8227C133.112 63.5808 134.331 62.9107 134.498 63.3484C134.682 63.8227 133.476 64.9171 132.601 64.6617Z" fill="#56AA7A" stroke="#263238" stroke-width="0.3" stroke-miterlimit="10"/>
<path opacity="0.4" d="M132.601 64.6617C132.587 64.5091 132.605 64.3553 132.656 64.2106C132.706 64.0659 132.787 63.9336 132.893 63.8227C133.111 63.5808 134.331 62.9107 134.498 63.3484C134.682 63.8227 133.476 64.9171 132.601 64.6617Z" fill="white" stroke="#263238" stroke-width="0.3" stroke-miterlimit="10"/>
<path d="M132.601 64.6617L133.803 63.7305" stroke="#263238" stroke-width="0.3" stroke-miterlimit="10"/>
<path d="M132.017 61.5418L132.856 60.4454" stroke="#263238" stroke-width="0.3" stroke-miterlimit="10"/>
<path d="M132.601 60.7756C132.587 60.6228 132.606 60.4686 132.656 60.3236C132.706 60.1786 132.787 60.046 132.893 59.9347C133.112 59.6928 134.331 59.0246 134.498 59.4604C134.682 59.9347 133.477 61.031 132.601 60.7756Z" fill="#56AA7A" stroke="#263238" stroke-width="0.3" stroke-miterlimit="10"/>
<path opacity="0.4" d="M132.601 60.7756C132.587 60.6228 132.605 60.4686 132.656 60.3236C132.706 60.1786 132.787 60.046 132.893 59.9347C133.111 59.6928 134.331 59.0246 134.498 59.4604C134.682 59.9347 133.476 61.031 132.601 60.7756Z" fill="white" stroke="#263238" stroke-width="0.3" stroke-miterlimit="10"/>
<path d="M132.601 60.7757L133.803 59.8445" stroke="#263238" stroke-width="0.3" stroke-miterlimit="10"/>
<path d="M131.967 59.0515C131.953 58.8987 131.972 58.7446 132.023 58.5996C132.073 58.4545 132.154 58.3219 132.259 58.2106C132.478 57.9706 133.697 57.3005 133.864 57.7363C134.047 58.2106 132.843 59.3069 131.967 59.0515Z" fill="#56AA7A" stroke="#263238" stroke-width="0.3" stroke-miterlimit="10"/>
<path opacity="0.4" d="M131.967 59.0515C131.953 58.8987 131.972 58.7446 132.023 58.5996C132.073 58.4545 132.154 58.3219 132.259 58.2106C132.478 57.9706 133.697 57.3005 133.864 57.7363C134.047 58.2106 132.843 59.3069 131.967 59.0515Z" fill="white" stroke="#263238" stroke-width="0.3" stroke-miterlimit="10"/>
<path d="M131.967 59.0515L133.167 58.1203" stroke="#263238" stroke-width="0.3" stroke-miterlimit="10"/>
<path d="M132.025 59.1033C131.871 59.1002 131.72 59.0644 131.581 58.9981C131.443 58.9319 131.32 58.8369 131.22 58.7193C131.004 58.4774 130.466 57.1949 130.917 57.0739C131.409 56.9453 132.371 58.2585 132.025 59.1033Z" fill="#56AA7A" stroke="#263238" stroke-width="0.3" stroke-miterlimit="10"/>
<path opacity="0.4" d="M132.025 59.1033C131.871 59.1002 131.72 59.0644 131.581 58.9981C131.442 58.9319 131.319 58.8369 131.22 58.7193C131.003 58.4774 130.466 57.1949 130.917 57.0739C131.408 56.9453 132.37 58.2585 132.025 59.1033Z" fill="white" stroke="#263238" stroke-width="0.3" stroke-miterlimit="10"/>
<path d="M132.025 59.1033L131.226 57.8093" stroke="#263238" stroke-width="0.3" stroke-miterlimit="10"/>
<path d="M133.058 90.624H130.374L130.038 83.8425H133.394L133.058 90.624Z" fill="#263238" stroke="#263238" stroke-width="0.3" stroke-miterlimit="10"/>
<path d="M28.5312 10.56H10.752V22.5907H28.5312V10.56Z" stroke="white" stroke-width="0.5" stroke-linecap="round" stroke-linejoin="round"/>
<path d="M47.3644 10.56H29.5852V22.5907H47.3644V10.56Z" stroke="white" stroke-width="0.5" stroke-linecap="round" stroke-linejoin="round"/>
<path d="M73.296 10.56H55.5168V22.5907H73.296V10.56Z" stroke="url(#paint0_linear_417_27094)" stroke-width="0.5" stroke-linecap="round" stroke-linejoin="round"/>
<path d="M92.1313 10.56H74.3521V22.5907H92.1313V10.56Z" stroke="#D7D7D7" stroke-width="0.5" stroke-linecap="round" stroke-linejoin="round"/>
<path d="M118.063 10.56H100.283V22.5907H118.063V10.56Z" stroke="white" stroke-width="0.5" stroke-linecap="round" stroke-linejoin="round"/>
<path d="M136.896 10.56H119.117V22.5907H136.896V10.56Z" stroke="white" stroke-width="0.5" stroke-linecap="round" stroke-linejoin="round"/>
<path d="M94.0664 73.3248H80.2693V88.0877H94.0664V73.3248Z" fill="white" stroke="#B2B2B2" stroke-width="0.3" stroke-linecap="round" stroke-linejoin="round"/>
<path d="M82.608 73.3248H81.3542V78.695H82.608V73.3248Z" fill="#B2B2B2" stroke="#B2B2B2" stroke-width="0.3" stroke-miterlimit="10"/>
<path d="M107.852 73.3248H94.0549V88.0877H107.852V73.3248Z" fill="white" stroke="#B2B2B2" stroke-width="0.3" stroke-linecap="round" stroke-linejoin="round"/>
<path d="M96.3934 73.3248H95.1396V78.695H96.3934V73.3248Z" fill="#B2B2B2" stroke="#B2B2B2" stroke-width="0.3" stroke-miterlimit="10"/>
<path d="M94.0664 58.4659H80.2693V73.2288H94.0664V58.4659Z" fill="white" stroke="#B2B2B2" stroke-width="0.3" stroke-linecap="round" stroke-linejoin="round"/>
<path d="M82.608 58.4659H81.3542V63.8361H82.608V58.4659Z" fill="#B2B2B2" stroke="#B2B2B2" stroke-width="0.3" stroke-miterlimit="10"/>
<path d="M107.852 58.4659H94.0549V73.2288H107.852V58.4659Z" fill="white" stroke="#B2B2B2" stroke-width="0.3" stroke-linecap="round" stroke-linejoin="round"/>
<path d="M96.3934 58.4659H95.1396V63.8361H96.3934V58.4659Z" fill="#B2B2B2" stroke="#B2B2B2" stroke-width="0.3" stroke-miterlimit="10"/>
<path d="M109.281 89.9193H79.7415V90.624H109.281V89.9193Z" fill="white" stroke="#B2B2B2" stroke-width="0.3" stroke-linecap="round" stroke-linejoin="round"/>
<path d="M109.281 87.3619H79.7415V88.0665H109.281V87.3619Z" fill="white" stroke="#B2B2B2" stroke-width="0.3" stroke-linecap="round" stroke-linejoin="round"/>
<path d="M82.5618 88.0876H80.2693V89.8771H82.5618V88.0876Z" fill="white" stroke="#B2B2B2" stroke-width="0.3" stroke-linecap="round" stroke-linejoin="round"/>
<path d="M95.2781 88.0876H92.9856V89.8771H95.2781V88.0876Z" fill="white" stroke="#B2B2B2" stroke-width="0.3" stroke-linecap="round" stroke-linejoin="round"/>
<path d="M107.994 88.0876H105.702V89.8771H107.994V88.0876Z" fill="white" stroke="#B2B2B2" stroke-width="0.3" stroke-linecap="round" stroke-linejoin="round"/>
<path d="M63.9226 73.3248H50.1255V88.0877H63.9226V73.3248Z" fill="white" stroke="#B2B2B2" stroke-width="0.3" stroke-linecap="round" stroke-linejoin="round"/>
<path d="M52.464 73.3248H51.2102V78.695H52.464V73.3248Z" fill="#B2B2B2" stroke="#B2B2B2" stroke-width="0.3" stroke-miterlimit="10"/>
<path d="M77.708 73.3248H63.9109V88.0877H77.708V73.3248Z" fill="white" stroke="#B2B2B2" stroke-width="0.3" stroke-linecap="round" stroke-linejoin="round"/>
<path d="M66.2496 73.3248H64.9958V78.695H66.2496V73.3248Z" fill="#B2B2B2" stroke="#B2B2B2" stroke-width="0.3" stroke-miterlimit="10"/>
<path d="M63.9226 58.4659H50.1255V73.2288H63.9226V58.4659Z" fill="white" stroke="#B2B2B2" stroke-width="0.3" stroke-linecap="round" stroke-linejoin="round"/>
<path d="M52.464 58.4659H51.2102V63.8361H52.464V58.4659Z" fill="#B2B2B2" stroke="#B2B2B2" stroke-width="0.3" stroke-miterlimit="10"/>
<path d="M77.708 58.4659H63.9109V73.2288H77.708V58.4659Z" fill="white" stroke="#B2B2B2" stroke-width="0.3" stroke-linecap="round" stroke-linejoin="round"/>
<path d="M66.2496 58.4659H64.9958V63.8361H66.2496V58.4659Z" fill="#B2B2B2" stroke="#B2B2B2" stroke-width="0.3" stroke-miterlimit="10"/>
<path d="M79.1366 89.9193H49.5974V90.624H79.1366V89.9193Z" fill="white" stroke="#B2B2B2" stroke-width="0.3" stroke-linecap="round" stroke-linejoin="round"/>
<path d="M79.1366 87.3619H49.5974V88.0665H79.1366V87.3619Z" fill="white" stroke="#B2B2B2" stroke-width="0.3" stroke-linecap="round" stroke-linejoin="round"/>
<path d="M52.418 88.0876H50.1255V89.8771H52.418V88.0876Z" fill="white" stroke="#B2B2B2" stroke-width="0.3" stroke-linecap="round" stroke-linejoin="round"/>
<path d="M65.134 88.0876H62.8416V89.8771H65.134V88.0876Z" fill="white" stroke="#B2B2B2" stroke-width="0.3" stroke-linecap="round" stroke-linejoin="round"/>
<path d="M77.8501 88.0876H75.5576V89.8771H77.8501V88.0876Z" fill="white" stroke="#B2B2B2" stroke-width="0.3" stroke-linecap="round" stroke-linejoin="round"/>
<path d="M33.7786 73.3248H19.9814V88.0877H33.7786V73.3248Z" fill="white" stroke="#B2B2B2" stroke-width="0.3" stroke-linecap="round" stroke-linejoin="round"/>
<path d="M22.3199 73.3248H21.0662V78.695H22.3199V73.3248Z" fill="#B2B2B2" stroke="#B2B2B2" stroke-width="0.3" stroke-miterlimit="10"/>
<path d="M47.5642 73.3248H33.7671V88.0877H47.5642V73.3248Z" fill="white" stroke="#B2B2B2" stroke-width="0.3" stroke-linecap="round" stroke-linejoin="round"/>
<path d="M36.1056 73.3248H34.8518V78.695H36.1056V73.3248Z" fill="#B2B2B2" stroke="#B2B2B2" stroke-width="0.3" stroke-miterlimit="10"/>
<path d="M33.7786 58.4659H19.9814V73.2288H33.7786V58.4659Z" fill="white" stroke="#B2B2B2" stroke-width="0.3" stroke-linecap="round" stroke-linejoin="round"/>
<path d="M22.3199 58.4659H21.0662V63.8361H22.3199V58.4659Z" fill="#B2B2B2" stroke="#B2B2B2" stroke-width="0.3" stroke-miterlimit="10"/>
<path d="M47.5642 58.4659H33.7671V73.2288H47.5642V58.4659Z" fill="white" stroke="#B2B2B2" stroke-width="0.3" stroke-linecap="round" stroke-linejoin="round"/>
<path d="M36.1056 58.4659H34.8518V63.8361H36.1056V58.4659Z" fill="#B2B2B2" stroke="#B2B2B2" stroke-width="0.3" stroke-miterlimit="10"/>
<path d="M33.7786 43.8739H19.9814V58.6368H33.7786V43.8739Z" fill="white" stroke="#B2B2B2" stroke-width="0.3" stroke-linecap="round" stroke-linejoin="round"/>
<path d="M22.3199 43.8739H21.0662V49.2441H22.3199V43.8739Z" fill="#B2B2B2" stroke="#B2B2B2" stroke-width="0.3" stroke-miterlimit="10"/>
<path d="M47.5642 43.8739H33.7671V58.6368H47.5642V43.8739Z" fill="white" stroke="#B2B2B2" stroke-width="0.3" stroke-linecap="round" stroke-linejoin="round"/>
<path d="M36.1056 43.8739H34.8518V49.2441H36.1056V43.8739Z" fill="#B2B2B2" stroke="#B2B2B2" stroke-width="0.3" stroke-miterlimit="10"/>
<path d="M48.9926 89.9193H19.4534V90.624H48.9926V89.9193Z" fill="white" stroke="#B2B2B2" stroke-width="0.3" stroke-linecap="round" stroke-linejoin="round"/>
<path d="M48.9926 87.3619H19.4534V88.0665H48.9926V87.3619Z" fill="white" stroke="#B2B2B2" stroke-width="0.3" stroke-linecap="round" stroke-linejoin="round"/>
<path d="M22.2739 88.0876H19.9814V89.8771H22.2739V88.0876Z" fill="white" stroke="#B2B2B2" stroke-width="0.3" stroke-linecap="round" stroke-linejoin="round"/>
<path d="M34.99 88.0876H32.6975V89.8771H34.99V88.0876Z" fill="white" stroke="#B2B2B2" stroke-width="0.3" stroke-linecap="round" stroke-linejoin="round"/>
<path d="M47.7061 88.0876H45.4136V89.8771H47.7061V88.0876Z" fill="white" stroke="#B2B2B2" stroke-width="0.3" stroke-linecap="round" stroke-linejoin="round"/>
<path d="M128.145 5.21283H75.7134V46.2375H128.145V5.21283Z" fill="#FDFFF4" stroke="#263238" stroke-width="0.3" stroke-linecap="round" stroke-linejoin="round"/>
<path d="M128.145 5.21283H75.7134V7.06947H128.145V5.21283Z" fill="#263238" stroke="#263238" stroke-width="0.3" stroke-linecap="round" stroke-linejoin="round"/>
<path d="M123.905 6.06144C123.907 5.9668 123.881 5.87373 123.83 5.79413C123.778 5.71454 123.705 5.65201 123.618 5.61455C123.531 5.57709 123.435 5.5664 123.342 5.58383C123.249 5.60126 123.163 5.64602 123.095 5.71241C123.028 5.7788 122.982 5.86379 122.963 5.95654C122.944 6.04929 122.953 6.14557 122.989 6.23311C123.025 6.32064 123.086 6.39545 123.165 6.44798C123.244 6.5005 123.336 6.52836 123.431 6.528C123.555 6.52752 123.675 6.47846 123.763 6.39128C123.852 6.3041 123.903 6.18572 123.905 6.06144Z" fill="white" stroke="#263238" stroke-width="0.3" stroke-linecap="round" stroke-linejoin="round"/>
<path d="M125.568 6.06144C125.57 5.96721 125.544 5.87454 125.493 5.79516C125.442 5.71579 125.369 5.65328 125.283 5.61555C125.196 5.57783 125.101 5.56658 125.008 5.58324C124.915 5.5999 124.829 5.64372 124.762 5.70914C124.694 5.77457 124.647 5.85865 124.627 5.95075C124.607 6.04285 124.615 6.13882 124.649 6.22651C124.684 6.31419 124.744 6.38965 124.821 6.44332C124.898 6.49699 124.99 6.52646 125.084 6.528C125.21 6.53006 125.332 6.48211 125.423 6.39467C125.513 6.30722 125.566 6.1874 125.568 6.06144Z" fill="white" stroke="#263238" stroke-width="0.3" stroke-linecap="round" stroke-linejoin="round"/>
<path d="M127.213 6.06144C127.215 5.96688 127.189 5.8739 127.138 5.79434C127.087 5.71478 127.013 5.65226 126.926 5.61474C126.839 5.57723 126.743 5.56642 126.65 5.58369C126.557 5.60097 126.472 5.64554 126.404 5.71174C126.337 5.77793 126.29 5.86274 126.271 5.95536C126.252 6.04798 126.261 6.14421 126.297 6.23178C126.332 6.31934 126.393 6.39428 126.472 6.44704C126.55 6.4998 126.643 6.52798 126.737 6.528C126.862 6.52803 126.982 6.47918 127.071 6.39195C127.16 6.30472 127.211 6.18606 127.213 6.06144Z" fill="white" stroke="#263238" stroke-width="0.3" stroke-linecap="round" stroke-linejoin="round"/>
<path d="M79.033 12.2131H78.7546V9.42145H79.1502L79.7953 11.4394V9.42145H80.0641V12.2131H79.7396L79.0254 9.95521L79.033 12.2131Z" fill="#263238"/>
<path d="M81.3832 10.6579V10.944H80.7016V11.9386H81.5387V12.2208H80.3867V9.42145H81.5387V9.70369H80.7016V10.6637L81.3832 10.6579Z" fill="#263238"/>
<path d="M82.5697 12.2131H82.1416L81.7576 9.42145H82.0609L82.3873 11.7984L82.6984 9.42529H83.0056L83.3128 11.8022L83.6276 9.42145H83.9041L83.5201 12.2131H83.1092L82.8424 10.3181L82.5697 12.2131Z" fill="#263238"/>
<path d="M85.7646 10.6579V10.944H85.083V11.9386H85.922V12.2208H84.77V9.42145H85.922V9.70369H85.083V10.6637L85.7646 10.6579Z" fill="#263238"/>
<path d="M86.4845 12.2131H86.208V9.42145H86.592L87.239 11.4394V9.42145H87.5136V12.2131H87.191L86.4768 9.95521L86.4845 12.2131Z" fill="#263238"/>
<path d="M88.2433 12.2131V9.70369H87.7288V9.42145H89.0728V9.70369H88.5505V12.2131H88.2433Z" fill="#263238"/>
<path d="M89.9002 9.42145C90.338 9.42145 90.5223 9.64417 90.5223 10.0589V10.2854C90.5223 10.5926 90.4147 10.7846 90.1747 10.8614C90.4301 10.9363 90.5261 11.1437 90.5261 11.4374V11.8733C90.5169 11.9875 90.536 12.1023 90.5818 12.2074H90.2669C90.2225 12.0999 90.2047 11.9833 90.2151 11.8675V11.4355C90.2151 11.1206 90.0672 11.0208 89.808 11.0208H89.5891V12.2131H89.28V9.42145H89.9002ZM89.8195 10.7366C90.0672 10.7366 90.2151 10.6579 90.2151 10.3526V10.0877C90.2151 9.83617 90.1229 9.70369 89.8925 9.70369H89.5891V10.7366H89.8195Z" fill="#263238"/>
<path d="M91.1616 9.42145V12.2131H90.8486V9.42145H91.1616Z" fill="#263238"/>
<path d="M92.473 10.6579V10.944H91.7914V11.9386H92.6286V12.2208H91.4766V9.42145H92.6286V9.70369H91.7914V10.6637L92.473 10.6579Z" fill="#263238"/>
<path d="M94.1261 10.0916V10.176H93.8304V10.0839C93.8304 9.83236 93.7344 9.68644 93.5117 9.68644C93.289 9.68644 93.191 9.83236 93.191 10.08C93.191 10.7079 94.1299 10.7674 94.1299 11.5527C94.1299 11.9751 93.9264 12.2516 93.5002 12.2516C93.0739 12.2516 92.8723 11.9751 92.8723 11.5527V11.3933H93.1642V11.568C93.1642 11.8196 93.2678 11.9674 93.4906 11.9674C93.7133 11.9674 93.8189 11.8196 93.8189 11.568C93.8189 10.946 92.8858 10.8864 92.8858 10.1012C92.8858 9.66916 93.0778 9.40228 93.504 9.40228C93.9302 9.40228 94.1261 9.66724 94.1261 10.0916Z" fill="#263238"/>
<path d="M96.2516 13.6877H79.2404C78.8703 13.6877 78.5703 13.9877 78.5703 14.3578V16.7674C78.5703 17.1374 78.8703 17.4374 79.2404 17.4374H96.2516C96.6217 17.4374 96.9217 17.1374 96.9217 16.7674V14.3578C96.9217 13.9877 96.6217 13.6877 96.2516 13.6877Z" fill="#56AA7A" stroke="#263238" stroke-width="0.3" stroke-linecap="round" stroke-linejoin="round"/>
<path d="M87.8266 41.0823H79.0234C78.7732 41.0823 78.5703 41.2851 78.5703 41.5354V43.8797C78.5703 44.13 78.7732 44.3328 79.0234 44.3328H87.8266C88.0769 44.3328 88.2798 44.13 88.2798 43.8797V41.5354C88.2798 41.2851 88.0769 41.0823 87.8266 41.0823Z" fill="#56AA7A" stroke="#263238" stroke-width="0.3" stroke-linecap="round" stroke-linejoin="round"/>
<path d="M99.8325 41.0823H91.0293C90.779 41.0823 90.5762 41.2851 90.5762 41.5354V43.8797C90.5762 44.13 90.779 44.3328 91.0293 44.3328H99.8325C100.083 44.3328 100.286 44.13 100.286 43.8797V41.5354C100.286 41.2851 100.083 41.0823 99.8325 41.0823Z" fill="#263238" stroke="#263238" stroke-width="0.3" stroke-linecap="round" stroke-linejoin="round"/>
<path d="M124.915 19.8835H79.2404C78.8703 19.8835 78.5703 20.1836 78.5703 20.5536V22.9632C78.5703 23.3333 78.8703 23.6333 79.2404 23.6333H124.915C125.285 23.6333 125.585 23.3333 125.585 22.9632V20.5536C125.585 20.1836 125.285 19.8835 124.915 19.8835Z" fill="#56AA7A" stroke="#263238" stroke-width="0.3" stroke-linecap="round" stroke-linejoin="round"/>
<path d="M125.585 25.3479H112.305V38.5498H125.585V25.3479Z" fill="white" stroke="#263238" stroke-width="0.3" stroke-linecap="round" stroke-linejoin="round"/>
<path d="M111.375 25.3585H78.7925V38.5604H111.375V25.3585Z" fill="white" stroke="#263238" stroke-width="0.3" stroke-linecap="round" stroke-linejoin="round"/>
<path d="M113.215 27.4906H123.978" stroke="#263238" stroke-width="0.3" stroke-linecap="round" stroke-linejoin="round"/>
<path d="M79.6982 27.1698H110.234" stroke="#263238" stroke-width="0.3" stroke-linecap="round" stroke-linejoin="round"/>
<path d="M113.301 30.3034H123.978" stroke="#263238" stroke-width="0.3" stroke-linecap="round" stroke-linejoin="round"/>
<path d="M79.6982 29.8868H110.318" stroke="#263238" stroke-width="0.3" stroke-linecap="round" stroke-linejoin="round"/>
<path d="M113.301 33.1162H123.978" stroke="#263238" stroke-width="0.3" stroke-linecap="round" stroke-linejoin="round"/>
<path d="M79.7761 33.1162H110.396" stroke="#263238" stroke-width="0.3" stroke-linecap="round" stroke-linejoin="round"/>
<path d="M113.301 35.929H123.978" stroke="#263238" stroke-width="0.3" stroke-linecap="round" stroke-linejoin="round"/>
<path d="M79.7761 35.929H110.396" stroke="#263238" stroke-width="0.3" stroke-linecap="round" stroke-linejoin="round"/>
<path d="M112.466 14.4788C112.718 14.4788 112.833 14.6304 112.833 14.88V15.6922C112.833 15.9399 112.718 16.0916 112.466 16.0916H112.082V14.4788H112.466ZM112.466 15.9284C112.595 15.9284 112.658 15.8477 112.658 15.6999V14.8704C112.658 14.7226 112.597 14.642 112.466 14.642H112.274V15.936L112.466 15.9284Z" fill="#263238"/>
<path d="M113.18 15.7671L113.119 16.0916H112.952L113.261 14.4788H113.522L113.829 16.0916H113.651L113.587 15.7671H113.18ZM113.203 15.6116H113.562L113.382 14.6823L113.203 15.6116Z" fill="#263238"/>
<path d="M114.206 16.0916V14.642H113.908V14.4788H114.676V14.642H114.38V16.0916H114.206Z" fill="#263238"/>
<path d="M115.381 15.193V15.3601H114.987V15.9361H115.471V16.0993H114.816V14.4865H115.48V14.6497H114.997V15.2007L115.381 15.193Z" fill="#263238"/>
<path d="M118.946 14.21H116.412V16.7444H118.946V14.21Z" fill="#56AA7A" stroke="#263238" stroke-width="0.3" stroke-linecap="round" stroke-linejoin="round"/>
<path d="M122.348 14.21H119.814V16.7444H122.348V14.21Z" fill="#56AA7A" stroke="#263238" stroke-width="0.3" stroke-linecap="round" stroke-linejoin="round"/>
<path d="M125.75 14.21H123.216V16.7444H125.75V14.21Z" fill="#56AA7A" stroke="#263238" stroke-width="0.3" stroke-linecap="round" stroke-linejoin="round"/>
<path d="M92.5864 47.7159H101.497L110.193 57.5367L104.254 47.7159H114.152" stroke="#263238" stroke-width="0.3" stroke-linecap="round" stroke-linejoin="round"/>
<path d="M91.033 47.7159H91.7702" stroke="#263238" stroke-width="0.3" stroke-linecap="round" stroke-linejoin="round"/>
<path d="M113.432 87.3293C113.432 87.3293 112.524 88.7904 112.264 89.0189C112.005 89.2474 111.354 89.7331 111.095 89.9923C110.836 90.2515 111.159 90.5779 111.452 90.6086C111.746 90.6394 115.292 90.6086 115.292 90.6086C115.292 90.6086 115.676 90.5453 115.715 90.3494C115.753 90.1536 115.907 89.5699 115.682 89.0515C115.539 88.6998 115.462 88.3251 115.454 87.9456L115.519 87.7843L115.454 87.4003L113.432 87.3293Z" fill="white" stroke="#263238" stroke-width="0.3" stroke-linecap="round" stroke-linejoin="round"/>
<path d="M111.452 90.6086C111.744 90.6413 115.292 90.6086 115.292 90.6086C115.292 90.6086 115.676 90.5453 115.715 90.3494C115.769 90.1081 115.798 89.8615 115.799 89.6141C115.263 89.7734 114.72 89.9981 114.72 89.9981H111.095C110.834 90.2515 111.168 90.5779 111.452 90.6086Z" fill="white" stroke="#263238" stroke-width="0.3" stroke-linecap="round" stroke-linejoin="round"/>
<path d="M114.879 89.6621L114.63 90.5396" stroke="#263238" stroke-width="0.3" stroke-linecap="round" stroke-linejoin="round"/>
<path d="M113.835 89.2628C113.815 89.2629 113.794 89.2589 113.775 89.2512C113.102 88.9517 112.662 89.1552 112.645 89.1648C112.61 89.1813 112.571 89.1835 112.535 89.1709C112.499 89.1583 112.469 89.132 112.453 89.0976C112.436 89.0635 112.433 89.0242 112.446 88.9882C112.458 88.9522 112.484 88.9226 112.518 88.9056C112.541 88.8941 113.094 88.6292 113.894 88.9863C113.912 88.9938 113.928 89.0047 113.942 89.0185C113.955 89.0323 113.965 89.0486 113.972 89.0665C113.979 89.0844 113.983 89.1035 113.982 89.1227C113.982 89.1419 113.977 89.1608 113.969 89.1783C113.957 89.2038 113.938 89.2254 113.915 89.2404C113.891 89.2554 113.863 89.2631 113.835 89.2628Z" fill="white" stroke="#263238" stroke-width="0.3" stroke-linecap="round" stroke-linejoin="round"/>
<path d="M113.96 88.896C113.939 88.8959 113.919 88.892 113.9 88.8845C113.228 88.585 112.789 88.7885 112.769 88.7981C112.735 88.812 112.697 88.8124 112.663 88.7993C112.628 88.7862 112.6 88.7605 112.584 88.7274C112.567 88.6943 112.564 88.6563 112.575 88.6209C112.585 88.5856 112.609 88.5556 112.641 88.537C112.664 88.5255 113.217 88.2605 114.019 88.6176C114.049 88.6315 114.074 88.6552 114.089 88.6848C114.104 88.7144 114.108 88.7482 114.101 88.7806C114.094 88.813 114.076 88.8421 114.051 88.8631C114.025 88.884 113.993 88.8957 113.96 88.896Z" fill="white" stroke="#263238" stroke-width="0.3" stroke-linecap="round" stroke-linejoin="round"/>
<path d="M114.085 88.512C114.065 88.5119 114.045 88.508 114.027 88.5005C113.353 88.199 112.913 88.4045 112.894 88.4141C112.86 88.428 112.822 88.4284 112.787 88.4153C112.753 88.4021 112.725 88.3765 112.708 88.3434C112.692 88.3103 112.689 88.2722 112.7 88.2369C112.71 88.2016 112.734 88.1716 112.766 88.1529C112.789 88.1414 113.342 87.8765 114.144 88.2336C114.179 88.2492 114.207 88.2781 114.221 88.3141C114.235 88.3501 114.234 88.3902 114.219 88.4256C114.207 88.4512 114.188 88.4729 114.164 88.4882C114.141 88.5035 114.113 88.5117 114.085 88.512Z" fill="white" stroke="#263238" stroke-width="0.3" stroke-linecap="round" stroke-linejoin="round"/>
<path d="M123.297 87.3293C123.297 87.3293 124.205 88.7904 124.466 89.0189C124.727 89.2474 125.374 89.7331 125.635 89.9923C125.896 90.2515 125.57 90.5779 125.276 90.6086C124.982 90.6394 121.436 90.6086 121.436 90.6086C121.436 90.6086 121.052 90.5453 121.016 90.3494C120.979 90.1536 120.824 89.5699 121.046 89.0515C121.189 88.6998 121.267 88.3251 121.275 87.9456L121.21 87.7843L121.275 87.4003L123.297 87.3293Z" fill="white" stroke="#263238" stroke-width="0.3" stroke-linecap="round" stroke-linejoin="round"/>
<path d="M125.276 90.6086C124.984 90.6413 121.436 90.6086 121.436 90.6086C121.436 90.6086 121.052 90.5453 121.016 90.3494C120.959 90.1084 120.93 89.8617 120.929 89.6141C121.465 89.7734 122.008 89.9981 122.008 89.9981H125.628C125.895 90.2515 125.568 90.5779 125.276 90.6086Z" fill="white" stroke="#263238" stroke-width="0.3" stroke-linecap="round" stroke-linejoin="round"/>
<path d="M121.849 89.6621L122.101 90.5396" stroke="#263238" stroke-width="0.3" stroke-linecap="round" stroke-linejoin="round"/>
<path d="M122.894 89.2627C122.914 89.2628 122.934 89.2589 122.953 89.2512C123.627 88.9517 124.067 89.1552 124.084 89.1648C124.102 89.174 124.121 89.1796 124.141 89.1814C124.161 89.1831 124.181 89.1809 124.2 89.175C124.218 89.169 124.236 89.1593 124.251 89.1466C124.267 89.1338 124.279 89.1181 124.288 89.1005C124.298 89.0828 124.303 89.0635 124.305 89.0437C124.307 89.0239 124.305 89.0039 124.299 88.9849C124.293 88.9659 124.283 88.9483 124.27 88.933C124.257 88.9178 124.242 88.9052 124.224 88.896C124.201 88.8845 123.648 88.6195 122.846 88.9766C122.828 88.9841 122.812 88.9951 122.798 89.0089C122.785 89.0227 122.775 89.039 122.768 89.0569C122.761 89.0747 122.757 89.0938 122.758 89.113C122.758 89.1322 122.763 89.1511 122.771 89.1686C122.78 89.1943 122.797 89.2167 122.819 89.2333C122.84 89.2499 122.866 89.2601 122.894 89.2627Z" fill="white" stroke="#263238" stroke-width="0.3" stroke-linecap="round" stroke-linejoin="round"/>
<path d="M122.769 88.896C122.789 88.8959 122.809 88.892 122.828 88.8845C123.502 88.585 123.94 88.7885 123.959 88.7981C123.993 88.812 124.032 88.8124 124.066 88.7993C124.1 88.7862 124.129 88.7605 124.145 88.7274C124.161 88.6943 124.164 88.6563 124.154 88.6209C124.143 88.5856 124.12 88.5556 124.088 88.537C124.065 88.5255 123.512 88.2605 122.709 88.6176C122.679 88.6315 122.655 88.6552 122.64 88.6848C122.625 88.7144 122.621 88.7482 122.628 88.7806C122.635 88.813 122.652 88.8421 122.678 88.8631C122.704 88.884 122.736 88.8957 122.769 88.896Z" fill="white" stroke="#263238" stroke-width="0.3" stroke-linecap="round" stroke-linejoin="round"/>
<path d="M122.644 88.512C122.664 88.5119 122.683 88.508 122.701 88.5005C123.375 88.199 123.815 88.4045 123.834 88.4141C123.868 88.428 123.907 88.4284 123.941 88.4153C123.975 88.4021 124.004 88.3765 124.02 88.3434C124.036 88.3103 124.039 88.2722 124.029 88.2369C124.018 88.2016 123.995 88.1716 123.963 88.1529C123.94 88.1414 123.387 87.8765 122.584 88.2336C122.554 88.2475 122.53 88.2712 122.515 88.3008C122.5 88.3304 122.496 88.3642 122.503 88.3966C122.51 88.429 122.527 88.458 122.553 88.479C122.579 88.5 122.611 88.5116 122.644 88.512Z" fill="white" stroke="#263238" stroke-width="0.3" stroke-linecap="round" stroke-linejoin="round"/>
<path d="M123.798 86.4327C123.771 86.3347 123.742 86.2407 123.715 86.1427C123.482 85.1731 123.346 84.1826 123.31 83.1859C122.862 76.7271 122.414 70.2675 121.966 63.8074C121.982 64.0263 115.594 63.8919 115.024 63.8823C113.722 63.8631 113.804 64.2144 113.772 65.4759C113.739 66.7373 113.71 68.0525 113.683 69.3408C113.586 74.2816 113.543 79.2218 113.555 84.1613C113.574 84.5651 113.537 84.9696 113.445 85.3632C113.357 85.6723 113.2 85.9565 113.104 86.2618C112.939 86.7821 112.95 87.3418 113.134 87.8554C113.98 87.8288 114.821 87.9819 115.603 88.3047C116.083 87.3677 116.21 86.2963 116.329 85.2499L118.057 70.1127L120.277 82.8691L120.691 85.248C120.868 86.2637 121.045 87.2813 121.239 88.2951C122.059 87.9929 122.924 87.8331 123.798 87.8227C124.032 87.4119 123.928 86.9107 123.798 86.4327Z" fill="#263238" stroke="#263238" stroke-width="0.3" stroke-linecap="round" stroke-linejoin="round"/>
<path d="M120.474 64.3431H115.215V64.9114H120.474V64.3431Z" fill="#575757" stroke="#263238" stroke-width="0.3" stroke-linecap="round" stroke-linejoin="round"/>
<path d="M121.968 64.3431H120.952V64.9114H121.968V64.3431Z" fill="#575757" stroke="#263238" stroke-width="0.3" stroke-linecap="round" stroke-linejoin="round"/>
<path d="M114.737 64.3431H113.931V64.9114H114.737V64.3431Z" fill="#575757" stroke="#263238" stroke-width="0.3" stroke-linecap="round" stroke-linejoin="round"/>
<path d="M118.562 64.4026H117.247V64.8807H118.562V64.4026Z" fill="white" stroke="#263238" stroke-width="0.3" stroke-linecap="round" stroke-linejoin="round"/>
<path d="M112.107 53.8906C112.107 53.8906 109.684 62.3155 109.578 62.5306C109.473 62.7456 110.106 62.6362 110.701 62.7418C111.297 62.8474 112.141 62.3904 112.237 62.2138C112.333 62.0371 113.221 59.3011 113.221 59.3011L112.107 53.8906Z" fill="white" stroke="#263238" stroke-width="0.3" stroke-linecap="round" stroke-linejoin="round"/>
<path d="M112.216 56.6208L112.116 56.377" stroke="#263238" stroke-width="0.3" stroke-linecap="round" stroke-linejoin="round"/>
<path d="M113.011 58.5428L112.333 56.9031" stroke="#263238" stroke-width="0.3" stroke-linecap="round" stroke-linejoin="round"/>
<path d="M112.159 61.1021L112.351 61.2404L112.159 61.1021Z" fill="white"/>
<path d="M112.159 61.1021L112.351 61.2404" stroke="#263238" stroke-width="0.3" stroke-linecap="round" stroke-linejoin="round"/>
<path d="M110.369 60.722C110.629 60.622 110.896 60.5412 111.168 60.48C111.441 60.6028 111.699 60.7575 111.936 60.9408" fill="white"/>
<path d="M110.369 60.722C110.629 60.622 110.896 60.5412 111.168 60.48C111.441 60.6028 111.699 60.7575 111.936 60.9408" stroke="#263238" stroke-width="0.3" stroke-linecap="round" stroke-linejoin="round"/>
<path d="M123.341 53.399C123.341 53.399 126.113 60.8064 126.184 61.079C126.271 61.3252 126.307 61.5865 126.29 61.847C126.254 62.1619 125.764 62.3731 125.658 62.3731C125.553 62.3731 124.781 61.8816 124.464 61.7415C124.147 61.6013 123.201 61.1443 123.201 61.1443L122.709 59.5642L123.341 53.399Z" fill="white" stroke="#263238" stroke-width="0.3" stroke-linecap="round" stroke-linejoin="round"/>
<path d="M123.496 55.8029L123.542 55.6224" stroke="#263238" stroke-width="0.3" stroke-linecap="round" stroke-linejoin="round"/>
<path d="M122.834 58.4084L123.422 56.0967" stroke="#263238" stroke-width="0.3" stroke-linecap="round" stroke-linejoin="round"/>
<path d="M124.533 59.7293L123.4 60.4378" stroke="#263238" stroke-width="0.3" stroke-linecap="round" stroke-linejoin="round"/>
<path d="M116.162 51.3389L116.277 49.5552H118.549L119.009 51.5405L117.485 52.8922L116.162 51.3389Z" fill="white" stroke="#263238" stroke-width="0.3" stroke-linecap="round" stroke-linejoin="round"/>
<path d="M116.074 51.7844L112.107 53.8964L113.835 63.024C113.835 63.024 113.695 63.8669 113.798 64.0416C113.871 64.1549 113.967 64.2507 114.081 64.322H121.839C121.839 64.322 122.365 63.8304 122.365 63.7268V63.264L123.349 53.3991L119.413 51.84L116.074 51.7844Z" fill="white" stroke="#263238" stroke-width="0.3" stroke-linecap="round" stroke-linejoin="round"/>
<path d="M116.963 52.201L117.483 53.6698L116.778 62.6093L117.88 64.3546L118.831 62.4557L117.85 53.6698L118.462 52.3527L117.575 51.3735L116.963 52.201Z" fill="#263238" stroke="#263238" stroke-width="0.3" stroke-linecap="round" stroke-linejoin="round"/>
<path d="M116.014 51.0067L115.922 51.9859L116.748 53.3338L117.36 51.863L116.014 51.0067Z" fill="white" stroke="#263238" stroke-width="0.3" stroke-linecap="round" stroke-linejoin="round"/>
<path d="M117.911 51.8938L118.401 53.4547L119.413 51.8323L118.952 50.8839L117.911 51.8938Z" fill="white" stroke="#263238" stroke-width="0.3" stroke-linecap="round" stroke-linejoin="round"/>
<path d="M120.426 62.2464L120.286 61.1578L121.235 61.3325L120.426 62.2464Z" fill="white" stroke="#263238" stroke-width="0.3" stroke-linecap="round" stroke-linejoin="round"/>
<path d="M117.828 58.944C117.532 58.907 117.239 58.8479 116.951 58.7674C116.634 58.6637 116.425 58.8038 116.671 59.1187C116.916 59.4336 117.794 59.5757 117.9 59.5757C117.9 59.5757 118.074 60.4877 118.566 60.6643C118.811 60.7615 119.07 60.8205 119.334 60.839C119.468 61.0315 119.668 61.1681 119.896 61.223C120.213 61.2595 120.948 61.7856 120.948 61.7856L121.3 60.9773L120.532 60.3456L119.764 59.0112L119.027 58.7654L118.391 58.56L117.828 58.944Z" fill="white" stroke="#263238" stroke-width="0.3" stroke-linecap="round" stroke-linejoin="round"/>
<path d="M119.795 59.904L119.48 60.2189C119.501 60.3109 119.513 60.4048 119.514 60.4992C119.514 60.6413 119.268 60.6413 119.092 60.6413C118.906 60.6487 118.723 60.5991 118.566 60.4992C118.426 60.3955 117.863 59.904 117.863 59.904L118.46 58.8499L117.934 59.2013C117.807 59.4397 117.654 59.6632 117.477 59.8675C117.268 60.0787 117.197 59.833 117.197 59.833C117.284 59.5406 117.402 59.2581 117.548 58.9901C117.748 58.7796 117.958 58.5803 118.18 58.393C118.319 58.3716 118.461 58.3716 118.6 58.393C118.938 58.4956 119.258 58.6497 119.549 58.8499C119.743 58.9904 119.891 59.1865 119.971 59.4125C119.992 59.4929 120.003 59.5753 120.006 59.6583" fill="white"/>
<path d="M119.795 59.904L119.48 60.2189C119.501 60.3109 119.513 60.4048 119.514 60.4992C119.514 60.6413 119.268 60.6413 119.092 60.6413C118.906 60.6487 118.723 60.5991 118.566 60.4992C118.426 60.3955 117.863 59.904 117.863 59.904L118.46 58.8499L117.934 59.2013C117.807 59.4397 117.654 59.6632 117.477 59.8675C117.268 60.0787 117.197 59.833 117.197 59.833C117.284 59.5406 117.402 59.2581 117.548 58.9901C117.748 58.7796 117.958 58.5803 118.18 58.393C118.319 58.3716 118.461 58.3716 118.6 58.393C118.938 58.4956 119.258 58.6497 119.549 58.8499C119.743 58.9904 119.891 59.1865 119.971 59.4125C119.992 59.4929 120.003 59.5753 120.006 59.6583" stroke="#263238" stroke-width="0.3" stroke-linecap="round" stroke-linejoin="round"/>
<path d="M118.883 60.5952C118.825 60.4628 118.812 60.3151 118.846 60.1747C119.008 59.8849 119.184 59.6035 119.374 59.3318" stroke="#263238" stroke-width="0.3" stroke-linecap="round" stroke-linejoin="round"/>
<path d="M118.566 60.4896C118.566 60.4896 118.51 60.4263 118.447 60.3379C118.383 60.2496 118.435 60.0903 118.435 59.9751C118.435 59.7639 118.952 58.9114 118.952 58.9114" stroke="#263238" stroke-width="0.3" stroke-linecap="round" stroke-linejoin="round"/>
<path d="M125.482 60.3149C125.482 60.3149 126.359 61.6493 126.325 62.0007C126.29 62.352 126.079 63.1238 125.764 63.1238C125.449 63.1238 124.036 62.9472 123.061 62.7725C122.085 62.5978 121.409 62.5267 121.409 62.5267L120.426 62.2464L121.094 60.6317L121.732 60.7642C122.037 60.6902 122.347 60.6388 122.659 60.6106C123.116 60.5741 124.639 60.2093 124.639 60.2093" fill="white"/>
<path d="M125.482 60.3149C125.482 60.3149 126.359 61.6493 126.325 62.0007C126.29 62.352 126.079 63.1238 125.764 63.1238C125.449 63.1238 124.036 62.9472 123.061 62.7725C122.085 62.5978 121.409 62.5267 121.409 62.5267L120.426 62.2464L121.094 60.6317L121.732 60.7642C122.037 60.6902 122.347 60.6388 122.659 60.6106C123.116 60.5741 124.639 60.2093 124.639 60.2093" stroke="#263238" stroke-width="0.3" stroke-linecap="round" stroke-linejoin="round"/>
<path d="M121.738 60.9235C121.754 61.3171 121.657 61.7071 121.457 62.0467" stroke="#263238" stroke-width="0.3" stroke-linecap="round" stroke-linejoin="round"/>
<path d="M110.035 61.4035C110.035 61.4035 109.438 62.8416 109.404 62.9395C109.369 63.0374 109.509 63.7075 110.07 63.5712C110.63 63.4349 113.616 63.1162 114.002 63.0451L114.985 62.8704H115.753C116.104 62.8704 117.097 62.8704 117.299 62.7994L118.142 62.519C118.351 62.448 118.808 62.1677 118.842 62.0621C118.877 61.9565 118.739 61.8528 118.387 61.8874C118.036 61.9219 116.947 61.9565 116.947 61.9565C116.947 61.9565 117.93 61.5725 118.247 61.4304C118.564 61.2883 118.456 61.1501 118.456 61.1501C118.253 61.1514 118.051 61.1871 117.859 61.2557C117.614 61.3613 115.192 61.6762 115.192 61.6762L114.916 61.44C114.995 61.238 115.043 61.0249 115.056 60.8083C115.056 60.528 114.916 60.3168 114.739 60.3878C114.563 60.4589 114.494 60.8794 114.459 61.0195C114.424 61.1597 114.248 61.7203 114.248 61.7203L114.179 62.0371C114.179 62.0371 112.739 61.7568 112.316 61.5802C111.894 61.4035 111.018 61.1597 110.878 61.1962C110.738 61.2326 110.456 61.6186 110.387 61.7933" fill="white"/>
<path d="M110.035 61.4035C110.035 61.4035 109.438 62.8416 109.404 62.9395C109.369 63.0374 109.509 63.7075 110.07 63.5712C110.63 63.4349 113.616 63.1162 114.002 63.0451L114.985 62.8704H115.753C116.104 62.8704 117.097 62.8704 117.299 62.7994L118.142 62.519C118.351 62.448 118.808 62.1677 118.842 62.0621C118.877 61.9565 118.739 61.8528 118.387 61.8874C118.036 61.9219 116.947 61.9565 116.947 61.9565C116.947 61.9565 117.93 61.5725 118.247 61.4304C118.564 61.2883 118.456 61.1501 118.456 61.1501C118.253 61.1514 118.051 61.1871 117.859 61.2557C117.614 61.3613 115.192 61.6762 115.192 61.6762L114.916 61.44C114.995 61.238 115.043 61.0249 115.056 60.8083C115.056 60.528 114.916 60.3168 114.739 60.3878C114.563 60.4589 114.494 60.8794 114.459 61.0195C114.424 61.1597 114.248 61.7203 114.248 61.7203L114.179 62.0371C114.179 62.0371 112.739 61.7568 112.316 61.5802C111.894 61.4035 111.018 61.1597 110.878 61.1962C110.738 61.2326 110.456 61.6186 110.387 61.7933" stroke="#263238" stroke-width="0.3" stroke-linecap="round" stroke-linejoin="round"/>
<path d="M113.171 61.9066C113.171 61.9066 112.936 62.4211 113.219 62.7494" stroke="#263238" stroke-width="0.3" stroke-linecap="round" stroke-linejoin="round"/>
<path d="M113.674 60.0576L114.741 62.2291C114.76 62.2684 114.79 62.3014 114.827 62.3245C114.864 62.3476 114.907 62.3598 114.95 62.3597L118.848 62.4C118.886 62.4004 118.924 62.3913 118.959 62.3737C118.993 62.356 119.022 62.3302 119.044 62.2986C119.066 62.267 119.08 62.2305 119.085 62.1923C119.089 62.1541 119.084 62.1153 119.071 62.0794L118.222 59.8675C118.205 59.8234 118.175 59.7854 118.136 59.7587C118.097 59.732 118.051 59.7177 118.003 59.7178H113.885C113.845 59.7174 113.805 59.7274 113.77 59.7468C113.735 59.7661 113.705 59.7942 113.684 59.8284C113.663 59.8625 113.65 59.9015 113.649 59.9417C113.647 59.9818 113.655 60.0217 113.674 60.0576Z" fill="#56AA7A" stroke="#263238" stroke-width="0.3" stroke-linecap="round" stroke-linejoin="round"/>
<path d="M118.391 61.895C118.04 61.9296 116.951 61.9642 116.951 61.9642C116.951 61.9642 117.934 61.5802 118.251 61.4381C118.568 61.296 118.46 61.1578 118.46 61.1578C118.257 61.1591 118.055 61.1948 117.863 61.2634C117.617 61.369 115.196 61.6838 115.196 61.6838L114.916 61.44C114.995 61.238 115.043 61.0249 115.056 60.8083C115.056 60.528 114.916 60.3168 114.739 60.3878C114.563 60.4589 114.493 60.8794 114.459 61.0195C114.424 61.1597 114.248 61.7203 114.248 61.7203L114.179 62.0371L113.806 61.9622C113.737 62.2056 113.744 62.4644 113.827 62.7034C113.866 62.8249 113.911 62.9442 113.964 63.0605H114.002L114.985 62.8858H115.753C116.104 62.8858 117.097 62.8858 117.299 62.8147L118.141 62.5344C118.351 62.4634 118.808 62.183 118.842 62.0774C118.877 61.9718 118.742 61.8605 118.391 61.895Z" fill="white" stroke="#263238" stroke-width="0.3" stroke-linecap="round" stroke-linejoin="round"/>
<path d="M118.714 62.1255C118.444 62.259 118.165 62.3745 117.88 62.4711C117.777 62.4711 116.536 62.6112 116.536 62.6112" stroke="#263238" stroke-width="0.3" stroke-linecap="round" stroke-linejoin="round"/>
<path d="M113.125 87.8631C113.133 87.8291 113.144 87.7957 113.157 87.7632C113.144 87.7863 113.128 87.8074 113.113 87.8304L113.125 87.8631Z" fill="white" stroke="#263238" stroke-width="0.3" stroke-linecap="round" stroke-linejoin="round"/>
<path d="M115.24 46.8173C115.24 46.8173 114.925 46.5869 114.81 46.9325C114.695 47.2781 114.637 47.6506 114.868 47.9098C115.098 48.169 115.413 48.6298 115.413 48.6298L115.24 46.8173Z" fill="white" stroke="#263238" stroke-width="0.3" stroke-linecap="round" stroke-linejoin="round"/>
<path d="M119.57 46.8173C119.57 46.8173 119.885 46.5869 120 46.9325C120.115 47.2781 120.173 47.6506 119.943 47.9098C119.712 48.169 119.397 48.6298 119.397 48.6298L119.57 46.8173Z" fill="white" stroke="#263238" stroke-width="0.3" stroke-linecap="round" stroke-linejoin="round"/>
<path d="M115.567 49.298C115.567 49.298 116.719 50.8436 116.961 50.9242C117.239 51.0164 117.75 51.1162 117.982 50.9703C118.215 50.8244 119.445 49.4535 119.48 48.818C119.514 48.1824 119.735 45.698 119.376 45.0701C119.017 44.4423 118.261 43.5341 116.264 44.1869C116.264 44.1869 114.359 44.7917 115.567 49.298Z" fill="white" stroke="#263238" stroke-width="0.3" stroke-linecap="round" stroke-linejoin="round"/>
<path d="M116.896 49.1693C116.952 49.2745 117.038 49.3614 117.142 49.4199C117.247 49.4783 117.366 49.506 117.485 49.4996C117.761 49.4996 117.925 49.1731 117.925 49.1731" stroke="#263238" stroke-width="0.3" stroke-linecap="round" stroke-linejoin="round"/>
<path d="M117.147 49.9008C117.147 49.9008 117.339 50.1331 117.844 49.9008" stroke="#263238" stroke-width="0.3" stroke-linecap="round" stroke-linejoin="round"/>
<path d="M115.891 48.192C115.891 48.192 116.506 48.4954 116.88 48.1786" stroke="#263238" stroke-width="0.3" stroke-linecap="round" stroke-linejoin="round"/>
<path d="M118.028 48.192C118.379 48.2814 118.746 48.2767 119.094 48.1786" stroke="#263238" stroke-width="0.3" stroke-linecap="round" stroke-linejoin="round"/>
<path d="M116.938 47.8234C116.78 47.6912 116.593 47.6008 116.391 47.5605C116.19 47.5202 115.982 47.5314 115.786 47.593" stroke="#263238" stroke-width="0.3" stroke-linecap="round" stroke-linejoin="round"/>
<path d="M117.944 47.8234C118.133 47.6973 118.352 47.623 118.579 47.6078C118.806 47.5927 119.033 47.6372 119.238 47.737" stroke="#263238" stroke-width="0.3" stroke-linecap="round" stroke-linejoin="round"/>
<path d="M114.25 46.2835C114.25 46.2835 115.194 47.5431 116.769 47.6064C118.343 47.6698 118.988 47.3856 119.382 47.0707C119.776 46.7559 120.547 46.0954 120.547 46.0954C120.324 45.7289 120.174 45.3227 120.106 44.8992C120.012 44.2368 119.914 42.9466 118.468 42.505C117.022 42.0634 115.383 42.6624 114.88 43.6704C114.376 44.6784 114.595 45.8746 114.25 46.2835Z" fill="white" stroke="#263238" stroke-width="0.3" stroke-linecap="round" stroke-linejoin="round"/>
<path d="M115.885 46.2586C115.885 46.2586 115.843 44.8013 116.014 44.2868C116.185 43.7722 117.128 43.344 117.128 43.344V42.7872" fill="white"/>
<path d="M115.885 46.2586C115.885 46.2586 115.843 44.8013 116.014 44.2868C116.185 43.7722 117.128 43.344 117.128 43.344V42.7872" stroke="#263238" stroke-width="0.3" stroke-linecap="round" stroke-linejoin="round"/>
<path d="M118.671 46.2586C118.671 46.2586 118.885 44.7591 118.456 44.0717C118.028 43.3843 117.729 43.3863 117.729 43.3863V42.7872" fill="white"/>
<path d="M118.671 46.2586C118.671 46.2586 118.885 44.7591 118.456 44.0717C118.028 43.3843 117.729 43.3863 117.729 43.3863V42.7872" stroke="#263238" stroke-width="0.3" stroke-linecap="round" stroke-linejoin="round"/>
<path d="M46.485 31.7319H42.5471V88.3066H46.485V31.7319Z" fill="#263238" stroke="#263238" stroke-width="0.5" stroke-linecap="round" stroke-linejoin="round"/>
<path d="M48.3955 43.657H45.9264C45.3418 43.657 44.7812 43.8892 44.3678 44.3026C43.9545 44.7159 43.7223 45.2766 43.7223 45.8611V47.5354C43.72 47.7022 43.7613 47.8667 43.842 48.0127C43.9227 48.1587 44.0401 48.2811 44.1825 48.368C44.325 48.4548 44.4876 48.503 44.6543 48.5078C44.8211 48.5127 44.9862 48.474 45.1335 48.3955L49.3575 46.2144V43.9219L48.3955 43.657Z" fill="#424242" stroke="#263238" stroke-width="0.5" stroke-linecap="round" stroke-linejoin="round"/>
<path d="M48.3955 74.88H45.9264C45.3418 74.88 44.7812 75.1122 44.3678 75.5256C43.9545 75.939 43.7223 76.4996 43.7223 77.0842V78.7584C43.72 78.9252 43.7613 79.0897 43.842 79.2357C43.9227 79.3817 44.0401 79.5042 44.1825 79.591C44.325 79.6778 44.4876 79.726 44.6543 79.7308C44.8211 79.7357 44.9862 79.697 45.1335 79.6186L49.3575 77.4374V75.1354L48.3955 74.88Z" fill="#424242" stroke="#263238" stroke-width="0.5" stroke-linecap="round" stroke-linejoin="round"/>
<path d="M42.839 30.2535H41.0764V42.7738H42.839V30.2535Z" fill="#424242" stroke="#263238" stroke-linecap="round" stroke-linejoin="round"/>
<path d="M74.0715 66.7008H60.4587V72.9389H74.0715V66.7008Z" fill="#263238" stroke="#263238" stroke-width="0.3" stroke-linecap="round" stroke-linejoin="round"/>
<path d="M49.1116 77.568L54.9849 47.2109C55.3177 45.4886 56.2212 43.9287 57.5495 42.783C58.8777 41.6372 60.5533 40.9725 62.3058 40.896L75.6805 40.32C76.3343 40.292 76.9734 40.5184 77.4639 40.9515C77.9543 41.3847 78.2579 41.991 78.3109 42.6432L80.6149 71.3664" stroke="#263238" stroke-width="2.5" stroke-miterlimit="10"/>
<path d="M59.6159 78.2785L45.5615 76.2202V82.9345L60.5106 79.2634L59.6159 78.2785Z" fill="#263238" stroke="#263238" stroke-width="0.5" stroke-miterlimit="10"/>
<path d="M58.604 63.0356L56.6398 61.9028L55.6164 62.4L53.9518 61.152L53.2951 62.2253L53.9518 62.9415L53.2951 63.241L53.6523 64.009C53.6523 64.009 52.1604 65.0228 51.8033 67.7684L50.252 67.7088V73.152L52.2238 72.2516L52.94 72.1325C52.94 72.1325 56.7608 68.1946 57.6555 66.2842C58.5502 64.3738 58.604 63.0356 58.604 63.0356Z" fill="#263238" stroke="#263238" stroke-width="0.5" stroke-miterlimit="10"/>
<path d="M62.6842 57.9495L62.1082 58.2029L57.9686 57.8189C57.9686 57.8189 56.8858 57.1834 56.2502 57.4349C55.8634 57.5915 55.5155 57.8307 55.2307 58.1357C55.2307 58.1357 55.2307 59.3453 55.5494 59.4087C55.8682 59.4721 56.4403 59.282 56.4403 59.282L56.759 58.9632C56.759 58.9632 60.8333 60.0461 61.4073 60.1728C61.9814 60.2996 63.6346 59.5968 63.6346 59.5968L62.6842 57.9495Z" fill="white" stroke="#263238" stroke-width="0.3" stroke-linecap="round" stroke-linejoin="round"/>
<path d="M56.2558 57.4388C55.869 57.5954 55.5211 57.8346 55.2363 58.1396C55.2363 58.1396 55.2363 59.3492 55.555 59.4125C55.8738 59.4759 56.4459 59.2858 56.4459 59.2858L56.7646 58.9671L57.9608 59.2839C58.105 59.1289 58.1911 58.9288 58.2046 58.7175C58.182 58.4171 58.1312 58.1195 58.053 57.8285H57.9743C57.9743 57.8285 56.8894 57.1853 56.2558 57.4388Z" fill="#56AA7A" stroke="#263238" stroke-width="0.3" stroke-linecap="round" stroke-linejoin="round"/>
<path d="M56.7954 57.8112L56.421 57.8746C56.421 57.8746 55.8584 58.5005 55.8584 58.7175C55.8584 58.9344 56.2021 59.0611 56.3269 58.9997C56.4651 58.9085 56.5937 58.8037 56.7109 58.6867C56.8654 58.7961 57.0516 58.8514 57.2408 58.8442C57.4587 58.8401 57.6728 58.7863 57.8667 58.6867" stroke="#263238" stroke-width="0.3" stroke-miterlimit="10"/>
<path d="M65.7406 54.8295L62.2385 57.6307L63.6382 59.6045L65.7406 58.0762V54.8295Z" fill="white" stroke="#263238" stroke-width="0.3" stroke-linecap="round" stroke-linejoin="round"/>
<path d="M62.2385 57.6307L63.4481 60.1767L64.2123 59.4125L63.1294 56.8666L62.2385 57.6307Z" fill="white" stroke="#263238" stroke-width="0.3" stroke-linecap="round" stroke-linejoin="round"/>
<path d="M65.8041 52.8001L64.9132 56.8743C64.9132 56.8743 65.2972 60.2477 65.2972 60.8852C65.2972 61.5226 64.9785 62.9223 64.9785 62.9223L64.8499 63.3677C64.8499 63.3677 64.8499 65.7869 65.8694 66.0423C66.8889 66.2977 67.9065 66.5511 69.1795 66.5511C70.4524 66.5511 71.4719 65.9751 71.9807 65.0881C72.4895 64.201 72.4915 62.2849 72.4915 61.586C72.4915 60.8871 71.4086 55.4093 71.2166 54.0097C71.0246 52.61 69.1795 51.5252 68.7974 51.3985C68.4153 51.2717 65.8041 52.8001 65.8041 52.8001Z" fill="white" stroke="#263238" stroke-width="0.3" stroke-linecap="round" stroke-linejoin="round"/>
<path d="M64.1433 46.9037L63.7901 47.6851C63.7901 47.6851 62.8435 48.3782 63.0624 48.5606C63.1875 48.6626 63.3055 48.773 63.4157 48.8909C63.4157 48.8909 63.0566 50.4518 63.1872 50.5901C63.3281 50.7184 63.5045 50.8011 63.6933 50.8275C63.8821 50.8539 64.0744 50.8227 64.2451 50.7379C64.3591 50.699 64.4811 50.6897 64.5996 50.7108C64.7182 50.732 64.8294 50.7829 64.9229 50.8589L65.8541 52.6253L68.7187 50.8973L68.3347 49.4362L69.0451 48.361L64.1433 46.9037Z" fill="white" stroke="#263238" stroke-width="0.3" stroke-linecap="round" stroke-linejoin="round"/>
<path d="M68.3307 49.4343L69.0411 48.3591L65.1109 47.2321C65.0149 47.4029 64.8459 47.7466 64.9899 47.8388C65.1377 47.9454 65.2673 48.075 65.3739 48.2228C65.3739 48.2228 65.3259 48.5895 65.5851 48.5473C65.8443 48.505 66.2417 47.9809 66.6526 48.2861C67.0635 48.5914 67.0769 48.9351 66.7774 49.2058C66.5979 49.3679 66.4095 49.5199 66.2129 49.6609C66.2129 49.6609 67.8104 50.8705 68.3249 50.7821L68.6245 50.7303L68.3307 49.4343Z" fill="#263238" stroke="#263238" stroke-width="0.3" stroke-linecap="round" stroke-linejoin="round"/>
<path d="M63.7075 46.6118L62.6592 46.7674C62.6592 46.7674 65.1072 47.7274 65.8137 47.7178C66.5203 47.7082 69.2697 49.1405 69.2697 49.1405C69.2697 49.1405 70.4371 47.4125 69.5597 45.8765C68.6822 44.3405 67.1577 43.9373 66.0153 44.3405C64.8729 44.7437 64.2797 45.145 63.7075 46.6118Z" fill="white" stroke="#263238" stroke-width="0.3" stroke-linecap="round" stroke-linejoin="round"/>
<path d="M68.6052 50.2445L65.1665 52.345L65.2951 53.4279L69.114 51.2007L68.6052 50.2445Z" fill="white" stroke="#263238" stroke-width="0.3" stroke-linecap="round" stroke-linejoin="round"/>
<path d="M54.6028 73.8624C54.6028 73.8624 52.5733 74.9971 52.2143 75.1162C51.8553 75.2352 49.5263 75.8323 49.5896 76.2509C49.653 76.6695 49.8277 76.7866 50.782 77.0189C51.7362 77.2512 55.7356 77.6755 56.2732 77.616C56.8108 77.5565 56.2136 74.3328 56.2136 74.3328L54.6028 73.8624Z" fill="#263238" stroke="#263238" stroke-width="0.3" stroke-linecap="round" stroke-linejoin="round"/>
<path d="M50.782 77.0266C51.742 77.2647 55.7356 77.6832 56.2732 77.6237C56.4652 77.6026 56.5113 77.1764 56.4921 76.6407C53.278 77.0976 50.8454 76.4986 49.6665 76.0916C49.6418 76.11 49.622 76.1341 49.6086 76.1619C49.5953 76.1896 49.5888 76.2201 49.5897 76.2509C49.6492 76.6676 49.8278 76.7866 50.782 77.0266Z" fill="white" stroke="#263238" stroke-width="0.3" stroke-linecap="round" stroke-linejoin="round"/>
<path d="M69.8187 64.4948C69.8187 64.4948 67.2536 63.36 67.0078 63.1815C66.7621 63.0029 59.3681 63.5981 58.7115 64.0762C58.0549 64.5543 53.0417 73.3268 53.0417 73.3268L56.2654 75.4157L61.2862 67.776C61.2862 67.776 63.1947 67.7165 63.6728 67.538C64.1509 67.3594 66.956 66.8813 66.956 66.8813C66.956 66.8813 69.9992 67.298 70.8344 66.9408C71.6696 66.5837 70.7153 65.09 70.7153 65.09" fill="#56AA7A"/>
<path d="M69.8187 64.4948C69.8187 64.4948 67.2536 63.36 67.0078 63.1815C66.7621 63.0029 59.3681 63.5981 58.7115 64.0762C58.0549 64.5543 53.0417 73.3268 53.0417 73.3268L56.2654 75.4157L61.2862 67.776C61.2862 67.776 63.1947 67.7165 63.6728 67.538C64.1509 67.3594 66.956 66.8813 66.956 66.8813C66.956 66.8813 69.9992 67.298 70.8344 66.9408C71.6696 66.5837 70.7153 65.09 70.7153 65.09" stroke="#263238" stroke-width="0.3" stroke-linecap="round" stroke-linejoin="round"/>
<path d="M61.1673 67.5975L59.616 65.7466L61.3459 67.0003" stroke="#263238" stroke-width="0.3" stroke-miterlimit="10"/>
<path d="M62.6802 68.5555H74.1829V65.1763C74.1829 65.1763 73.6914 64.5773 72.6565 64.9574C71.6216 65.3376 70.8575 66.7027 70.8575 66.7027C70.8575 66.7027 63.2792 65.3952 62.6802 68.5555Z" fill="#263238" stroke="#263238" stroke-width="0.3" stroke-linecap="round" stroke-linejoin="round"/>
<path d="M74.0735 66.4839H75.5999L78.2168 59.1245L77.0168 58.7981L74.0735 66.4839Z" fill="#263238" stroke="#263238" stroke-width="0.3" stroke-linecap="round" stroke-linejoin="round"/>
<path d="M77.0168 58.7981L74.8914 64.5773L73.0635 63.8285C72.8649 63.7475 72.6853 63.6261 72.5361 63.4721C72.3868 63.318 72.2711 63.1347 72.1964 62.9336C72.1217 62.7325 72.0895 62.5182 72.102 62.304C72.1144 62.0899 72.1712 61.8807 72.2687 61.6896C72.9138 60.4282 73.9448 58.7251 75.1083 57.9802C77.0706 56.7264 77.1839 57.9264 77.0168 58.7981Z" fill="#263238" stroke="#263238" stroke-width="0.3" stroke-linecap="round" stroke-linejoin="round"/>
<path d="M59.0784 71.3876L58.7194 78.9965L52.1472 80.1485C53.3737 80.9615 54.274 82.1811 54.6899 83.5926C55.1057 85.004 55.0103 86.5169 54.4205 87.865H81.7402C82.0686 87.865 82.3836 87.7345 82.6159 87.5023C82.8481 87.27 82.9786 86.955 82.9786 86.6266V70.1664C82.9791 69.886 82.8741 69.6156 82.6846 69.409C82.495 69.2023 82.2347 69.0745 81.9552 69.0509C78.3207 68.736 65.904 67.968 59.0784 71.3876Z" fill="#56AA7A" stroke="#263238" stroke-width="0.3" stroke-linecap="round" stroke-linejoin="round"/>
<path d="M52.2224 89.2685C54.3856 87.3194 54.5592 83.9857 52.61 81.8224C50.6609 79.6592 47.3272 79.4857 45.1639 81.4348C43.0007 83.384 42.8272 86.7177 44.7763 88.8809C46.7255 91.0441 50.0592 91.2177 52.2224 89.2685Z" fill="#263238" stroke="#263238" stroke-linecap="round" stroke-linejoin="round"/>
<path d="M50.3381 87.1812C51.3441 86.2715 51.4222 84.7187 50.5126 83.7127C49.603 82.7067 48.0501 82.6286 47.0441 83.5382C46.0382 84.4478 45.96 86.0007 46.8696 87.0067C47.7793 88.0126 49.3321 88.0908 50.3381 87.1812Z" fill="white" stroke="#263238" stroke-linecap="round" stroke-linejoin="round"/>
<path d="M81.9991 89.806C83.0901 88.715 83.0901 86.9462 81.9991 85.8553C80.9082 84.7643 79.1393 84.7643 78.0484 85.8553C76.9574 86.9462 76.9574 88.715 78.0484 89.806C79.1393 90.897 80.9082 90.897 81.9991 89.806Z" fill="#263238" stroke="#263238" stroke-linecap="round" stroke-linejoin="round"/>
<path d="M81.3235 87.8304C81.3235 87.5729 81.2471 87.3211 81.104 87.107C80.9608 86.8929 80.7574 86.7261 80.5194 86.6276C80.2815 86.5291 80.0196 86.5035 79.7671 86.5538C79.5145 86.6042 79.2825 86.7284 79.1006 86.9106C78.9186 87.0929 78.7948 87.325 78.7448 87.5777C78.6947 87.8303 78.7208 88.0921 78.8196 88.3299C78.9184 88.5678 79.0856 88.7709 79.2999 88.9138C79.5142 89.0566 79.7661 89.1326 80.0237 89.1322C80.1945 89.1322 80.3637 89.0985 80.5215 89.0331C80.6794 88.9676 80.8227 88.8717 80.9435 88.7508C81.0642 88.6299 81.1599 88.4864 81.2251 88.3285C81.2903 88.1705 81.3237 88.0013 81.3235 87.8304Z" fill="white" stroke="#263238" stroke-linecap="round" stroke-linejoin="round"/>
<path d="M45.1488 80.6285C46.1511 79.8757 47.3669 79.4614 48.6202 79.4454C49.8736 79.4294 51.0996 79.8126 52.1207 80.5395C53.1419 81.2665 53.9053 82.2995 54.3004 83.489C54.6956 84.6786 54.702 85.963 54.3187 87.1565H54.7027C55.0822 85.8931 55.0532 84.542 54.6198 83.296C54.1865 82.05 53.3708 80.9726 52.2891 80.2174C51.2075 79.4622 49.915 79.0677 48.596 79.0901C47.277 79.1126 45.9987 79.5508 44.9434 80.3424L45.1488 80.6285Z" fill="#56AA7A" stroke="#263238" stroke-linecap="round" stroke-linejoin="round"/>
<path d="M58.7192 78.9965C58.7192 78.9965 73.1576 76.8576 74.2501 76.6925C75.3426 76.5274 78.5624 75.3696 79.7701 68.9299" stroke="#263238" stroke-width="0.3" stroke-linecap="round" stroke-linejoin="round"/>
<path d="M25.5994 26.1812H11.8022V40.944H25.5994V26.1812Z" fill="#56AA7A" stroke="#263238" stroke-width="0.5" stroke-linecap="round" stroke-linejoin="round"/>
<path opacity="0.4" d="M25.5991 26.1812H11.802V40.944H25.5991V26.1812Z" fill="white" stroke="#263238" stroke-width="0.3" stroke-linecap="round" stroke-linejoin="round"/>
<path d="M14.1407 26.1812H12.887V31.5514H14.1407V26.1812Z" fill="#263238"/>
<path d="M39.3848 26.1812H25.5876V40.944H39.3848V26.1812Z" fill="#56AA7A" stroke="#263238" stroke-width="0.5" stroke-linecap="round" stroke-linejoin="round"/>
<path opacity="0.4" d="M39.3848 26.1812H25.5876V40.944H39.3848V26.1812Z" fill="white" stroke="#263238" stroke-width="0.3" stroke-linecap="round" stroke-linejoin="round"/>
<path d="M27.9264 26.1812H26.6726V31.5514H27.9264V26.1812Z" fill="#263238"/>
<path d="M25.5994 11.3223H11.8022V26.0851H25.5994V11.3223Z" fill="#56AA7A" stroke="#263238" stroke-width="0.5" stroke-linecap="round" stroke-linejoin="round"/>
<path opacity="0.4" d="M25.5991 11.3223H11.802V26.0851H25.5991V11.3223Z" fill="white" stroke="#263238" stroke-width="0.3" stroke-linecap="round" stroke-linejoin="round"/>
<path d="M14.1407 11.3223H12.887V16.6925H14.1407V11.3223Z" fill="#263238"/>
<path d="M39.3848 11.3223H25.5876V26.0851H39.3848V11.3223Z" fill="#56AA7A" stroke="#263238" stroke-width="0.5" stroke-linecap="round" stroke-linejoin="round"/>
<path opacity="0.4" d="M39.3848 11.3223H25.5876V26.0851H39.3848V11.3223Z" fill="white" stroke="#263238" stroke-width="0.3" stroke-linecap="round" stroke-linejoin="round"/>
<path d="M27.9264 11.3223H26.6726V16.6925H27.9264V11.3223Z" fill="#263238"/>
<path d="M40.8114 42.7757H11.2722V43.4803H40.8114V42.7757Z" fill="white" stroke="#263238" stroke-linecap="round" stroke-linejoin="round"/>
<path d="M40.8114 40.2183H11.2722V40.9229H40.8114V40.2183Z" fill="white" stroke="#263238" stroke-linecap="round" stroke-linejoin="round"/>
<path d="M14.0947 40.944H11.8022V42.7335H14.0947V40.944Z" fill="white" stroke="#263238" stroke-linecap="round" stroke-linejoin="round"/>
<path d="M26.8108 40.944H24.5183V42.7335H26.8108V40.944Z" fill="white" stroke="#263238" stroke-linecap="round" stroke-linejoin="round"/>
<path d="M39.5249 40.944H37.2324V42.7335H39.5249V40.944Z" fill="white" stroke="#263238" stroke-linecap="round" stroke-linejoin="round"/>
<path d="M64.4024 59.7946C64.4024 59.7946 61.029 60.9466 60.5202 61.1386C60.3855 61.177 60.2599 61.2417 60.1504 61.3291C60.041 61.4164 59.95 61.5246 59.8827 61.6474C59.8827 61.6474 59.4373 62.7302 59.8194 62.9203C60.2014 63.1104 61.1634 62.9837 61.1634 62.9837C61.1634 62.9837 61.7394 63.1123 61.8642 62.857C61.9644 62.569 62.0288 62.2698 62.0562 61.9661C62.0562 61.9661 64.9861 61.7741 65.6216 61.7107C66.0452 61.6508 66.444 61.4747 66.7736 61.2019L64.4024 59.7946Z" fill="white" stroke="#263238" stroke-width="0.3" stroke-linecap="round" stroke-linejoin="round"/>
<path d="M61.8566 62.8512C61.9577 62.5648 62.0222 62.2668 62.0486 61.9642C61.6774 61.93 61.3269 61.7779 61.0483 61.5303C60.8179 61.3267 60.8045 61.1463 60.8563 61.0099C60.7027 61.0637 60.5817 61.1059 60.5145 61.1328C60.3799 61.1712 60.2542 61.236 60.1448 61.3233C60.0354 61.4107 59.9444 61.5189 59.8771 61.6416C59.8771 61.6416 59.4317 62.7245 59.8137 62.9146C60.1958 63.1047 61.1577 62.9779 61.1577 62.9779C61.1577 62.9779 61.7299 63.1066 61.8566 62.8512Z" fill="#56AA7A" stroke="#263238" stroke-width="0.5" stroke-linecap="round" stroke-linejoin="round"/>
<path d="M67.2 52.992C67.2 52.992 66.5011 53.8195 66.3091 54.528C66.1171 55.2365 65.6083 57.7747 65.6083 57.7747L65.0995 58.7347L64.3987 59.8157C64.4807 60.1211 64.6417 60.3996 64.8655 60.623C65.0893 60.8465 65.368 61.0071 65.6736 61.0886C66.7545 61.4074 67.0176 61.536 67.2652 61.2806C67.5129 61.0253 68.6092 59.1149 68.8569 58.224C69.1046 57.3331 70.1299 54.8506 70.1299 54.8506" fill="white"/>
<path d="M67.2 52.992C67.2 52.992 66.5011 53.8195 66.3091 54.528C66.1171 55.2365 65.6083 57.7747 65.6083 57.7747L65.0995 58.7347L64.3987 59.8157C64.4807 60.1211 64.6417 60.3996 64.8655 60.623C65.0893 60.8465 65.368 61.0071 65.6736 61.0886C66.7545 61.4074 67.0176 61.536 67.2652 61.2806C67.5129 61.0253 68.6092 59.1149 68.8569 58.224C69.1046 57.3331 70.1299 54.8506 70.1299 54.8506" stroke="#263238" stroke-width="0.3" stroke-linecap="round" stroke-linejoin="round"/>
<path d="M65.1031 58.7136L63.6382 59.6045C63.7752 60.0626 63.9909 60.4933 64.2756 60.8775C64.7211 61.4535 65.4276 61.705 65.6196 61.705H66.5124L67.53 61.129C67.53 61.129 66.1303 60.937 65.6849 59.977C65.2395 59.017 65.1031 58.7136 65.1031 58.7136Z" fill="white" stroke="#263238" stroke-width="0.3" stroke-linecap="round" stroke-linejoin="round"/>
<path d="M56.1541 60.0768L56.8702 61.9872L58.7787 62.882L59.4353 61.7492L56.1541 60.0768Z" fill="#263238" stroke="#263238" stroke-width="0.5" stroke-miterlimit="10"/>
<path d="M61.4745 63.145C61.4164 63.1449 61.3592 63.1311 61.3075 63.1047L54.8121 59.666C54.733 59.6188 54.675 59.543 54.6502 59.4543C54.6254 59.3656 54.6357 59.2707 54.6788 59.1894C54.722 59.108 54.7947 59.0463 54.8821 59.0171C54.9694 58.9879 55.0647 58.9933 55.1481 59.0323L61.6416 62.4711C61.7127 62.5081 61.7692 62.5679 61.8022 62.6409C61.8352 62.714 61.8426 62.796 61.8234 62.8738C61.8041 62.9516 61.7592 63.0206 61.6959 63.0698C61.6326 63.119 61.5547 63.1455 61.4745 63.145Z" fill="#263238"/>
<path d="M10.9441 90.624H138.403" stroke="#263238" stroke-linecap="round" stroke-linejoin="round"/>
<path d="M4.22412 90.624H9.60012" stroke="#263238" stroke-linecap="round" stroke-linejoin="round"/>
<defs>
<linearGradient id="paint0_linear_417_27094" x1="55.0002" y1="10.9999" x2="63.0002" y2="22.9999" gradientUnits="userSpaceOnUse">
<stop stop-color="white"/>
<stop offset="1" stop-color="#D7D7D7"/>
</linearGradient>
</defs>
</svg>
