<svg width="140" height="94" viewBox="0 0 140 94" fill="none" xmlns="http://www.w3.org/2000/svg">
<path d="M136.245 65.0688C139.446 41.3606 123.398 19.3152 99.9321 14.6649C96.576 14.0006 92.8627 13.44 88.7712 13.0348C65.1552 10.7308 47.2992 32.8108 30.9792 39.1468C14.6592 45.4828 7.17116 44.7148 5.63516 65.0668C4.09916 85.4188 22.7232 91.7548 43.8432 87.7228C64.9632 83.6908 63.4272 73.1308 87.6192 81.7708C111.811 90.4108 122.755 92.3308 131.395 79.0828C133.878 75.2755 135.521 70.4352 136.245 65.0688Z" fill="#56AA7A"/>
<path opacity="0.7" d="M136.245 65.0688C139.446 41.3606 123.398 19.3152 99.9321 14.6649C96.576 14.0006 92.8627 13.44 88.7712 13.0348C65.1552 10.7308 47.2992 32.8108 30.9792 39.1468C14.6592 45.4828 7.17116 44.7148 5.63516 65.0668C4.09916 85.4188 22.7232 91.7548 43.8432 87.7228C64.9632 83.6908 63.4272 73.1308 87.6192 81.7708C111.811 90.4108 122.755 92.3308 131.395 79.0828C133.878 75.2755 135.521 70.4352 136.245 65.0688Z" fill="white"/>
<path d="M128.88 64.0955L130.973 84.146" stroke="#263238" stroke-width="0.3" stroke-miterlimit="10"/>
<path d="M130.637 80.3079L129.688 79.3076" stroke="#263238" stroke-width="0.3" stroke-miterlimit="10"/>
<path d="M129.984 79.6071C129.981 79.4533 129.946 79.3019 129.88 79.1631C129.813 79.0243 129.718 78.9014 129.6 78.8026C129.356 78.5856 128.076 78.0461 127.953 78.4973C127.82 78.9889 129.132 79.9527 129.984 79.6071Z" fill="#56AA7A" stroke="#263238" stroke-width="0.3" stroke-miterlimit="10"/>
<path opacity="0.4" d="M129.984 79.6071C129.981 79.4533 129.946 79.3019 129.88 79.1631C129.813 79.0243 129.718 78.9014 129.6 78.8026C129.356 78.5856 128.076 78.0461 127.953 78.4973C127.82 78.9889 129.132 79.9527 129.984 79.6071Z" fill="white" stroke="#263238" stroke-width="0.3" stroke-miterlimit="10"/>
<path d="M129.976 79.6071L128.755 78.8468" stroke="#263238" stroke-width="0.3" stroke-miterlimit="10"/>
<path d="M130.875 82.5888L129.924 81.5865" stroke="#263238" stroke-width="0.3" stroke-miterlimit="10"/>
<path d="M130.214 81.8881C130.212 81.734 130.176 81.5824 130.11 81.4433C130.043 81.3042 129.948 81.1809 129.83 81.0817C129.586 80.8647 128.306 80.3252 128.183 80.7764C128.064 81.2679 129.369 82.2317 130.214 81.8881Z" fill="#56AA7A" stroke="#263238" stroke-width="0.3" stroke-miterlimit="10"/>
<path opacity="0.4" d="M130.214 81.8881C130.212 81.734 130.176 81.5824 130.11 81.4433C130.043 81.3042 129.948 81.1809 129.83 81.0817C129.586 80.8647 128.306 80.3252 128.183 80.7764C128.064 81.2679 129.369 82.2317 130.214 81.8881Z" fill="white" stroke="#263238" stroke-width="0.3" stroke-miterlimit="10"/>
<path d="M130.214 81.888L128.993 81.1277" stroke="#263238" stroke-width="0.3" stroke-miterlimit="10"/>
<path d="M130.055 74.7437L129.106 73.7434" stroke="#263238" stroke-width="0.3" stroke-miterlimit="10"/>
<path d="M129.395 74.0429C129.392 73.8891 129.356 73.7378 129.29 73.599C129.224 73.4602 129.128 73.3372 129.011 73.2384C128.767 73.0214 127.475 72.4819 127.363 72.9331C127.238 73.4246 128.55 74.3885 129.395 74.0429Z" fill="#56AA7A" stroke="#263238" stroke-width="0.3" stroke-miterlimit="10"/>
<path opacity="0.4" d="M129.395 74.0429C129.392 73.8891 129.356 73.7378 129.29 73.599C129.224 73.4602 129.128 73.3372 129.011 73.2384C128.767 73.0214 127.475 72.4819 127.363 72.9331C127.238 73.4246 128.55 74.3885 129.395 74.0429Z" fill="white" stroke="#263238" stroke-width="0.3" stroke-miterlimit="10"/>
<path d="M129.394 74.0429L128.175 73.2826" stroke="#263238" stroke-width="0.3" stroke-miterlimit="10"/>
<path d="M130.293 77.0247L129.345 76.0225" stroke="#263238" stroke-width="0.3" stroke-miterlimit="10"/>
<path d="M129.632 76.3239C129.63 76.1699 129.594 76.0182 129.528 75.8792C129.461 75.7401 129.366 75.6168 129.248 75.5175C129.005 75.3005 127.712 74.761 127.601 75.2141C127.476 75.7037 128.788 76.6675 129.632 76.3239Z" fill="#56AA7A" stroke="#263238" stroke-width="0.3" stroke-miterlimit="10"/>
<path opacity="0.4" d="M129.632 76.3239C129.63 76.1699 129.594 76.0182 129.528 75.8792C129.461 75.7401 129.366 75.6168 129.248 75.5175C129.005 75.3005 127.712 74.761 127.601 75.2141C127.476 75.7037 128.788 76.6675 129.632 76.3239Z" fill="white" stroke="#263238" stroke-width="0.3" stroke-miterlimit="10"/>
<path d="M129.633 76.3239L128.414 75.5636" stroke="#263238" stroke-width="0.3" stroke-miterlimit="10"/>
<path d="M129.669 71.0401L128.721 70.0378" stroke="#263238" stroke-width="0.3" stroke-miterlimit="10"/>
<path d="M129.009 70.3392C129.006 70.1854 128.97 70.034 128.904 69.8952C128.838 69.7564 128.743 69.6335 128.625 69.5347C128.381 69.3159 127.1 68.7783 126.979 69.2295C126.853 69.7191 128.164 70.6829 129.009 70.3392Z" fill="#56AA7A" stroke="#263238" stroke-width="0.3" stroke-miterlimit="10"/>
<path opacity="0.4" d="M129.009 70.3392C129.006 70.1854 128.97 70.034 128.904 69.8952C128.838 69.7564 128.743 69.6335 128.625 69.5347C128.381 69.3159 127.1 68.7783 126.979 69.2295C126.853 69.7191 128.164 70.6829 129.009 70.3392Z" fill="white" stroke="#263238" stroke-width="0.3" stroke-miterlimit="10"/>
<path d="M129.009 70.3393L127.79 69.579" stroke="#263238" stroke-width="0.3" stroke-miterlimit="10"/>
<path d="M129.281 67.321L128.333 66.3187" stroke="#263238" stroke-width="0.3" stroke-miterlimit="10"/>
<path d="M128.621 66.6241C128.618 66.4703 128.582 66.3189 128.516 66.1801C128.45 66.0413 128.355 65.9183 128.237 65.8196C127.993 65.6026 126.712 65.0631 126.589 65.5143C126.465 66.0001 127.776 66.9639 128.621 66.6241Z" fill="#56AA7A" stroke="#263238" stroke-width="0.3" stroke-miterlimit="10"/>
<path opacity="0.4" d="M128.621 66.6241C128.618 66.4703 128.582 66.3189 128.516 66.1801C128.45 66.0413 128.355 65.9183 128.237 65.8196C127.993 65.6026 126.712 65.0631 126.589 65.5143C126.465 66.0001 127.776 66.9639 128.621 66.6241Z" fill="white" stroke="#263238" stroke-width="0.3" stroke-miterlimit="10"/>
<path d="M128.621 66.6184L127.399 65.858" stroke="#263238" stroke-width="0.3" stroke-miterlimit="10"/>
<path d="M130.478 78.96L131.198 77.7831" stroke="#263238" stroke-width="0.3" stroke-miterlimit="10"/>
<path d="M130.978 78.144C130.948 77.9936 130.951 77.8384 130.986 77.689C131.021 77.5396 131.088 77.3995 131.182 77.2781C131.374 77.0151 132.526 76.224 132.729 76.6407C132.96 77.0861 131.875 78.2996 130.978 78.144Z" fill="#56AA7A" stroke="#263238" stroke-width="0.3" stroke-miterlimit="10"/>
<path opacity="0.4" d="M130.978 78.144C130.948 77.9936 130.951 77.8384 130.986 77.689C131.021 77.5396 131.088 77.3995 131.182 77.2781C131.374 77.0151 132.526 76.224 132.729 76.6407C132.96 77.0861 131.875 78.2996 130.978 78.144Z" fill="white" stroke="#263238" stroke-width="0.3" stroke-miterlimit="10"/>
<path d="M130.979 78.1364L132.077 77.0862" stroke="#263238" stroke-width="0.3" stroke-miterlimit="10"/>
<path d="M129.85 72.96L130.572 71.7831" stroke="#263238" stroke-width="0.3" stroke-miterlimit="10"/>
<path d="M130.351 72.1364C130.322 71.9854 130.326 71.8301 130.362 71.6808C130.398 71.5315 130.465 71.3916 130.56 71.2704C130.752 71.0074 131.904 70.2164 132.109 70.633C132.334 71.0861 131.249 72.2996 130.351 72.1364Z" fill="#56AA7A" stroke="#263238" stroke-width="0.3" stroke-miterlimit="10"/>
<path opacity="0.4" d="M130.351 72.1364C130.322 71.9854 130.326 71.8301 130.362 71.6808C130.398 71.5315 130.465 71.3916 130.56 71.2704C130.752 71.0074 131.904 70.2164 132.109 70.633C132.334 71.0861 131.249 72.2996 130.351 72.1364Z" fill="white" stroke="#263238" stroke-width="0.3" stroke-miterlimit="10"/>
<path d="M130.351 72.1364L131.451 71.0862" stroke="#263238" stroke-width="0.3" stroke-miterlimit="10"/>
<path d="M129.575 70.322L130.297 69.147" stroke="#263238" stroke-width="0.3" stroke-miterlimit="10"/>
<path d="M130.076 69.5041C130.046 69.3539 130.049 69.1991 130.084 69.0501C130.119 68.9011 130.186 68.7613 130.279 68.6401C130.471 68.377 131.623 67.5841 131.827 68.0007C132.057 68.4481 130.974 69.6615 130.076 69.5041Z" fill="#56AA7A" stroke="#263238" stroke-width="0.3" stroke-miterlimit="10"/>
<path opacity="0.4" d="M130.076 69.5041C130.046 69.3539 130.049 69.1991 130.084 69.0501C130.119 68.9011 130.186 68.7613 130.279 68.6401C130.471 68.377 131.623 67.5841 131.827 68.0007C132.057 68.4481 130.974 69.6615 130.076 69.5041Z" fill="white" stroke="#263238" stroke-width="0.3" stroke-miterlimit="10"/>
<path d="M130.076 69.4983L131.174 68.45" stroke="#263238" stroke-width="0.3" stroke-miterlimit="10"/>
<path d="M129.172 66.457L129.894 65.28" stroke="#263238" stroke-width="0.3" stroke-miterlimit="10"/>
<path d="M129.673 65.6333C129.644 65.4828 129.646 65.3277 129.681 65.1784C129.717 65.0291 129.783 64.889 129.877 64.7674C130.069 64.5043 131.221 63.7133 131.424 64.1299C131.655 64.5831 130.572 65.7965 129.673 65.6333Z" fill="#56AA7A" stroke="#263238" stroke-width="0.3" stroke-miterlimit="10"/>
<path opacity="0.4" d="M129.673 65.6333C129.644 65.4828 129.646 65.3277 129.681 65.1784C129.717 65.0291 129.783 64.889 129.877 64.7674C130.069 64.5043 131.221 63.7133 131.424 64.1299C131.655 64.5831 130.572 65.7965 129.673 65.6333Z" fill="white" stroke="#263238" stroke-width="0.3" stroke-miterlimit="10"/>
<path d="M129.673 65.6334L130.771 64.5831" stroke="#263238" stroke-width="0.3" stroke-miterlimit="10"/>
<path d="M128.862 63.984C128.833 63.8338 128.836 63.6791 128.871 63.5301C128.906 63.3811 128.973 63.2413 129.066 63.12C129.258 62.857 130.41 62.0641 130.614 62.4807C130.846 62.9338 129.761 64.1472 128.862 63.984Z" fill="#56AA7A" stroke="#263238" stroke-width="0.3" stroke-miterlimit="10"/>
<path opacity="0.4" d="M128.862 63.984C128.833 63.8338 128.836 63.6791 128.871 63.5301C128.906 63.3811 128.973 63.2413 129.066 63.12C129.258 62.857 130.41 62.0641 130.614 62.4807C130.846 62.9338 129.761 64.1472 128.862 63.984Z" fill="white" stroke="#263238" stroke-width="0.3" stroke-miterlimit="10"/>
<path d="M128.863 63.9841L129.961 62.9358" stroke="#263238" stroke-width="0.3" stroke-miterlimit="10"/>
<path d="M128.926 64.0302C128.773 64.0441 128.619 64.0251 128.474 63.9744C128.33 63.9237 128.197 63.8426 128.087 63.7364C127.847 63.5175 127.179 62.2983 127.614 62.1313C128.089 61.9489 129.183 63.1546 128.926 64.0302Z" fill="#56AA7A" stroke="#263238" stroke-width="0.3" stroke-miterlimit="10"/>
<path opacity="0.4" d="M128.926 64.0302C128.773 64.0441 128.619 64.0251 128.474 63.9744C128.33 63.9237 128.197 63.8426 128.087 63.7364C127.847 63.5175 127.179 62.2983 127.614 62.1313C128.089 61.9489 129.183 63.1546 128.926 64.0302Z" fill="white" stroke="#263238" stroke-width="0.3" stroke-miterlimit="10"/>
<path d="M128.926 64.0302L127.999 62.8282" stroke="#263238" stroke-width="0.3" stroke-miterlimit="10"/>
<path d="M134.4 66.8563L132.319 86.9088" stroke="#263238" stroke-width="0.3" stroke-miterlimit="10"/>
<path d="M132.78 83.0842L132.058 81.9072" stroke="#263238" stroke-width="0.3" stroke-miterlimit="10"/>
<path d="M132.277 82.2605C132.307 82.1104 132.304 81.9554 132.269 81.8063C132.234 81.6572 132.167 81.5175 132.073 81.3965C131.881 81.1335 130.729 80.3425 130.526 80.7591C130.295 81.2161 131.38 82.4257 132.277 82.2605Z" fill="#56AA7A" stroke="#263238" stroke-width="0.3" stroke-miterlimit="10"/>
<path opacity="0.4" d="M132.277 82.2605C132.307 82.1104 132.304 81.9554 132.269 81.8063C132.234 81.6572 132.167 81.5175 132.073 81.3965C131.881 81.1335 130.729 80.3425 130.526 80.7591C130.295 81.2161 131.38 82.4257 132.277 82.2605Z" fill="white" stroke="#263238" stroke-width="0.3" stroke-miterlimit="10"/>
<path d="M132.277 82.2605L131.24 81.266" stroke="#263238" stroke-width="0.3" stroke-miterlimit="10"/>
<path d="M133.355 77.5201L132.633 76.3431" stroke="#263238" stroke-width="0.3" stroke-miterlimit="10"/>
<path d="M132.864 76.6963C132.894 76.5461 132.892 76.3912 132.856 76.2421C132.821 76.093 132.754 75.9533 132.66 75.8323C132.468 75.5693 131.316 74.7763 131.113 75.193C130.873 75.648 131.958 76.8595 132.864 76.6963Z" fill="#56AA7A" stroke="#263238" stroke-width="0.3" stroke-miterlimit="10"/>
<path opacity="0.4" d="M132.864 76.6963C132.894 76.5461 132.892 76.3912 132.856 76.2421C132.821 76.093 132.754 75.9533 132.66 75.8323C132.468 75.5693 131.316 74.7763 131.113 75.193C130.873 75.648 131.958 76.8595 132.864 76.6963Z" fill="white" stroke="#263238" stroke-width="0.3" stroke-miterlimit="10"/>
<path d="M132.854 76.6963L131.817 75.7018" stroke="#263238" stroke-width="0.3" stroke-miterlimit="10"/>
<path d="M133.119 79.7991L132.397 78.624" stroke="#263238" stroke-width="0.3" stroke-miterlimit="10"/>
<path d="M132.618 78.9773C132.648 78.8268 132.645 78.6717 132.61 78.5224C132.575 78.3731 132.508 78.2329 132.414 78.1114C132.222 77.8483 131.07 77.0573 130.865 77.4739C130.635 77.9271 131.712 79.1405 132.618 78.9773Z" fill="#56AA7A" stroke="#263238" stroke-width="0.3" stroke-miterlimit="10"/>
<path opacity="0.4" d="M132.618 78.9773C132.648 78.8268 132.645 78.6717 132.61 78.5224C132.575 78.3731 132.508 78.2329 132.414 78.1114C132.222 77.8483 131.07 77.0573 130.865 77.4739C130.635 77.9271 131.712 79.1405 132.618 78.9773Z" fill="white" stroke="#263238" stroke-width="0.3" stroke-miterlimit="10"/>
<path d="M132.618 78.9773L131.582 77.9828" stroke="#263238" stroke-width="0.3" stroke-miterlimit="10"/>
<path d="M133.741 73.8144L133.02 72.6394" stroke="#263238" stroke-width="0.3" stroke-miterlimit="10"/>
<path d="M133.248 72.9927C133.278 72.8422 133.275 72.687 133.24 72.5376C133.205 72.3882 133.138 72.2481 133.044 72.1268C132.852 71.8637 131.7 71.0727 131.497 71.4893C131.257 71.9424 132.342 73.152 133.248 72.9927Z" fill="#56AA7A" stroke="#263238" stroke-width="0.3" stroke-miterlimit="10"/>
<path opacity="0.4" d="M133.248 72.9927C133.278 72.8422 133.275 72.687 133.24 72.5376C133.205 72.3882 133.138 72.2481 133.044 72.1268C132.852 71.8637 131.7 71.0727 131.497 71.4893C131.257 71.9424 132.342 73.152 133.248 72.9927Z" fill="white" stroke="#263238" stroke-width="0.3" stroke-miterlimit="10"/>
<path d="M133.238 72.9927L132.202 71.9982" stroke="#263238" stroke-width="0.3" stroke-miterlimit="10"/>
<path d="M134.127 70.0954L133.405 68.9185" stroke="#263238" stroke-width="0.3" stroke-miterlimit="10"/>
<path d="M133.632 69.2718C133.662 69.1216 133.66 68.9667 133.625 68.8176C133.589 68.6685 133.523 68.5287 133.429 68.4078C133.237 68.1447 132.085 67.3518 131.881 67.7684C131.643 68.2215 132.728 69.435 133.632 69.2718Z" fill="#56AA7A" stroke="#263238" stroke-width="0.3" stroke-miterlimit="10"/>
<path opacity="0.4" d="M133.632 69.2718C133.662 69.1216 133.66 68.9667 133.625 68.8176C133.589 68.6685 133.523 68.5287 133.429 68.4078C133.237 68.1447 132.085 67.3518 131.881 67.7684C131.643 68.2215 132.728 69.435 133.632 69.2718Z" fill="white" stroke="#263238" stroke-width="0.3" stroke-miterlimit="10"/>
<path d="M133.624 69.2718L132.587 68.2772" stroke="#263238" stroke-width="0.3" stroke-miterlimit="10"/>
<path d="M132.9 81.7306L133.849 80.7284" stroke="#263238" stroke-width="0.3" stroke-miterlimit="10"/>
<path d="M133.561 81.0241C133.564 80.8704 133.6 80.7191 133.666 80.5803C133.732 80.4416 133.827 80.3186 133.945 80.2196C134.189 80.0026 135.47 79.4631 135.592 79.9143C135.717 80.4078 134.4 81.3735 133.561 81.0241Z" fill="#56AA7A" stroke="#263238" stroke-width="0.3" stroke-miterlimit="10"/>
<path opacity="0.4" d="M133.561 81.0241C133.564 80.8704 133.6 80.7191 133.666 80.5803C133.732 80.4416 133.827 80.3186 133.945 80.2196C134.189 80.0026 135.47 79.4631 135.592 79.9143C135.717 80.4078 134.4 81.3735 133.561 81.0241Z" fill="white" stroke="#263238" stroke-width="0.3" stroke-miterlimit="10"/>
<path d="M133.561 81.0279L134.851 80.2273" stroke="#263238" stroke-width="0.3" stroke-miterlimit="10"/>
<path d="M133.522 75.7306L134.471 74.7284" stroke="#263238" stroke-width="0.3" stroke-miterlimit="10"/>
<path d="M134.183 75.0279C134.186 74.8741 134.221 74.7227 134.288 74.5839C134.354 74.4451 134.449 74.3222 134.567 74.2234C134.809 74.0045 136.092 73.465 136.213 73.9162C136.339 74.4078 135.028 75.3716 134.183 75.0279Z" fill="#56AA7A" stroke="#263238" stroke-width="0.3" stroke-miterlimit="10"/>
<path opacity="0.4" d="M134.183 75.0279C134.186 74.8741 134.221 74.7227 134.288 74.5839C134.354 74.4451 134.449 74.3222 134.567 74.2234C134.809 74.0045 136.092 73.465 136.213 73.9162C136.339 74.4078 135.028 75.3716 134.183 75.0279Z" fill="white" stroke="#263238" stroke-width="0.3" stroke-miterlimit="10"/>
<path d="M134.183 75.0279L135.475 74.2273" stroke="#263238" stroke-width="0.3" stroke-miterlimit="10"/>
<path d="M133.797 73.0926L134.745 72.0903" stroke="#263238" stroke-width="0.3" stroke-miterlimit="10"/>
<path d="M134.458 72.3841C134.46 72.2302 134.495 72.0787 134.562 71.9399C134.628 71.8011 134.723 71.6782 134.842 71.5796C135.085 71.3626 136.366 70.8231 136.489 71.2743C136.614 71.7697 135.302 72.7354 134.458 72.3841Z" fill="#56AA7A" stroke="#263238" stroke-width="0.3" stroke-miterlimit="10"/>
<path opacity="0.4" d="M134.458 72.3841C134.46 72.2302 134.495 72.0787 134.562 71.9399C134.628 71.8011 134.723 71.6782 134.842 71.5796C135.085 71.3626 136.366 70.8231 136.489 71.2743C136.614 71.7697 135.302 72.7354 134.458 72.3841Z" fill="white" stroke="#263238" stroke-width="0.3" stroke-miterlimit="10"/>
<path d="M134.458 72.3898L135.748 71.5891" stroke="#263238" stroke-width="0.3" stroke-miterlimit="10"/>
<path d="M134.198 69.2276L135.147 68.2253" stroke="#263238" stroke-width="0.3" stroke-miterlimit="10"/>
<path d="M134.859 68.5249C134.861 68.371 134.897 68.2195 134.963 68.0806C135.029 67.9418 135.125 67.8189 135.243 67.7204C135.487 67.5015 136.767 66.962 136.888 67.4132C137.015 67.9047 135.704 68.8685 134.859 68.5249Z" fill="#56AA7A" stroke="#263238" stroke-width="0.3" stroke-miterlimit="10"/>
<path opacity="0.4" d="M134.859 68.5249C134.861 68.371 134.897 68.2195 134.963 68.0806C135.029 67.9418 135.125 67.8189 135.243 67.7204C135.487 67.5015 136.767 66.962 136.888 67.4132C137.015 67.9047 135.704 68.8685 134.859 68.5249Z" fill="white" stroke="#263238" stroke-width="0.3" stroke-miterlimit="10"/>
<path d="M134.859 68.5249L136.149 67.7242" stroke="#263238" stroke-width="0.3" stroke-miterlimit="10"/>
<path d="M134.4 66.745C134.403 66.5912 134.438 66.4398 134.505 66.301C134.571 66.1623 134.666 66.0393 134.784 65.9405C135.028 65.7216 136.308 65.1821 136.431 65.6333C136.562 66.1248 135.25 67.0886 134.4 66.745Z" fill="#56AA7A" stroke="#263238" stroke-width="0.3" stroke-miterlimit="10"/>
<path opacity="0.4" d="M134.4 66.745C134.403 66.5912 134.438 66.4398 134.505 66.301C134.571 66.1623 134.666 66.0393 134.784 65.9405C135.028 65.7216 136.308 65.1821 136.431 65.6333C136.562 66.1248 135.25 67.0886 134.4 66.745Z" fill="white" stroke="#263238" stroke-width="0.3" stroke-miterlimit="10"/>
<path d="M134.406 66.745L135.696 65.9443" stroke="#263238" stroke-width="0.3" stroke-miterlimit="10"/>
<path d="M134.457 66.8026C134.304 66.7858 134.155 66.7359 134.023 66.6564C133.89 66.5768 133.777 66.4695 133.689 66.3418C133.497 66.0788 133.096 64.7482 133.557 64.6734C134.068 64.5927 134.889 65.9982 134.457 66.8026Z" fill="#56AA7A" stroke="#263238" stroke-width="0.3" stroke-miterlimit="10"/>
<path opacity="0.4" d="M134.457 66.8026C134.304 66.7858 134.155 66.7359 134.023 66.6564C133.89 66.5768 133.777 66.4695 133.689 66.3418C133.497 66.0788 133.096 64.7482 133.557 64.6734C134.068 64.5927 134.889 65.9982 134.457 66.8026Z" fill="white" stroke="#263238" stroke-width="0.3" stroke-miterlimit="10"/>
<path d="M134.457 66.8026L133.797 65.4336" stroke="#263238" stroke-width="0.3" stroke-miterlimit="10"/>
<path d="M132.015 58.6925V84.048" stroke="#263238" stroke-width="0.3" stroke-miterlimit="10"/>
<path d="M132.036 80.2349L131.195 79.1405" stroke="#263238" stroke-width="0.3" stroke-miterlimit="10"/>
<path d="M131.451 79.4689C131.465 79.3163 131.446 79.1624 131.396 79.0177C131.345 78.873 131.265 78.7407 131.159 78.6298C130.94 78.3879 129.721 77.7197 129.554 78.1556C129.371 78.6298 130.575 79.7242 131.451 79.4689Z" fill="#56AA7A" stroke="#263238" stroke-width="0.3" stroke-miterlimit="10"/>
<path opacity="0.4" d="M131.451 79.4689C131.465 79.3163 131.446 79.1624 131.396 79.0177C131.345 78.873 131.265 78.7407 131.159 78.6298C130.94 78.3879 129.721 77.7197 129.554 78.1556C129.371 78.6298 130.575 79.7242 131.451 79.4689Z" fill="white" stroke="#263238" stroke-width="0.3" stroke-miterlimit="10"/>
<path d="M131.451 79.4689L130.318 78.5857" stroke="#263238" stroke-width="0.3" stroke-miterlimit="10"/>
<path d="M132.036 75.4714L131.195 74.3751" stroke="#263238" stroke-width="0.3" stroke-miterlimit="10"/>
<path d="M131.451 74.7034C131.465 74.5508 131.446 74.3969 131.396 74.2522C131.345 74.1075 131.265 73.9752 131.159 73.8643C130.94 73.6224 129.721 72.9542 129.554 73.3901C129.371 73.8643 130.575 74.9587 131.451 74.7034Z" fill="#56AA7A" stroke="#263238" stroke-width="0.3" stroke-miterlimit="10"/>
<path opacity="0.4" d="M131.451 74.7034C131.465 74.5508 131.446 74.3969 131.396 74.2522C131.345 74.1075 131.265 73.9752 131.159 73.8643C130.94 73.6224 129.721 72.9542 129.554 73.3901C129.371 73.8643 130.575 74.9587 131.451 74.7034Z" fill="white" stroke="#263238" stroke-width="0.3" stroke-miterlimit="10"/>
<path d="M131.451 74.7034L130.318 73.8221" stroke="#263238" stroke-width="0.3" stroke-miterlimit="10"/>
<path d="M132.036 69.8765L131.195 68.7821" stroke="#263238" stroke-width="0.3" stroke-miterlimit="10"/>
<path d="M131.451 69.1201C131.465 68.9672 131.446 68.8131 131.395 68.6681C131.345 68.5231 131.264 68.3905 131.159 68.2791C130.94 68.0391 129.721 67.369 129.554 67.8049C129.371 68.2695 130.575 69.3658 131.451 69.1201Z" fill="#56AA7A" stroke="#263238" stroke-width="0.3" stroke-miterlimit="10"/>
<path opacity="0.4" d="M131.451 69.1201C131.465 68.9672 131.446 68.8131 131.395 68.6681C131.345 68.5231 131.264 68.3905 131.159 68.2791C130.94 68.0391 129.721 67.369 129.554 67.8049C129.371 68.2695 130.575 69.3658 131.451 69.1201Z" fill="white" stroke="#263238" stroke-width="0.3" stroke-miterlimit="10"/>
<path d="M131.451 69.1105L130.318 68.2273" stroke="#263238" stroke-width="0.3" stroke-miterlimit="10"/>
<path d="M132.036 66.1518L131.195 65.0574" stroke="#263238" stroke-width="0.3" stroke-miterlimit="10"/>
<path d="M131.451 65.3857C131.465 65.2331 131.446 65.0793 131.396 64.9345C131.345 64.7898 131.265 64.6575 131.159 64.5466C130.94 64.3047 129.721 63.6346 129.554 64.0724C129.371 64.5466 130.575 65.641 131.451 65.3857Z" fill="#56AA7A" stroke="#263238" stroke-width="0.3" stroke-miterlimit="10"/>
<path opacity="0.4" d="M131.451 65.3857C131.465 65.2331 131.446 65.0793 131.396 64.9345C131.345 64.7898 131.265 64.6575 131.159 64.5466C130.94 64.3047 129.721 63.6346 129.554 64.0724C129.371 64.5466 130.575 65.641 131.451 65.3857Z" fill="white" stroke="#263238" stroke-width="0.3" stroke-miterlimit="10"/>
<path d="M131.451 65.3856L130.318 64.5024" stroke="#263238" stroke-width="0.3" stroke-miterlimit="10"/>
<path d="M132.036 62.4115L131.195 61.3171" stroke="#263238" stroke-width="0.3" stroke-miterlimit="10"/>
<path d="M131.451 61.6454C131.465 61.4928 131.446 61.339 131.396 61.1943C131.345 61.0496 131.265 60.9173 131.159 60.8064C130.94 60.5645 129.721 59.8944 129.554 60.3322C129.371 60.8064 130.575 61.9008 131.451 61.6454Z" fill="#56AA7A" stroke="#263238" stroke-width="0.3" stroke-miterlimit="10"/>
<path opacity="0.4" d="M131.451 61.6454C131.465 61.4928 131.446 61.339 131.396 61.1943C131.345 61.0496 131.265 60.9173 131.159 60.8064C130.94 60.5645 129.721 59.8944 129.554 60.3322C129.371 60.8064 130.575 61.9008 131.451 61.6454Z" fill="white" stroke="#263238" stroke-width="0.3" stroke-miterlimit="10"/>
<path d="M131.451 61.6455L130.318 60.7623" stroke="#263238" stroke-width="0.3" stroke-miterlimit="10"/>
<path d="M132.017 81.6903L132.856 80.5959" stroke="#263238" stroke-width="0.3" stroke-miterlimit="10"/>
<path d="M132.601 80.9242C132.587 80.7717 132.605 80.6178 132.656 80.4731C132.706 80.3284 132.787 80.1961 132.893 80.0852C133.111 79.8433 134.331 79.1732 134.498 79.611C134.682 80.0852 133.476 81.1796 132.601 80.9242Z" fill="#56AA7A" stroke="#263238" stroke-width="0.3" stroke-miterlimit="10"/>
<path opacity="0.4" d="M132.601 80.9242C132.587 80.7717 132.605 80.6178 132.656 80.4731C132.706 80.3284 132.787 80.1961 132.893 80.0852C133.111 79.8433 134.331 79.1732 134.498 79.611C134.682 80.0852 133.476 81.1796 132.601 80.9242Z" fill="white" stroke="#263238" stroke-width="0.3" stroke-miterlimit="10"/>
<path d="M132.601 80.9242L133.803 79.993" stroke="#263238" stroke-width="0.3" stroke-miterlimit="10"/>
<path d="M132.017 74.1121L132.856 73.0177" stroke="#263238" stroke-width="0.3" stroke-miterlimit="10"/>
<path d="M132.601 73.344C132.587 73.1915 132.605 73.0376 132.656 72.8929C132.706 72.7482 132.787 72.6159 132.893 72.505C133.111 72.2631 134.331 71.593 134.498 72.0308C134.682 72.5069 133.476 73.6013 132.601 73.344Z" fill="#56AA7A" stroke="#263238" stroke-width="0.3" stroke-miterlimit="10"/>
<path opacity="0.4" d="M132.601 73.344C132.587 73.1915 132.605 73.0376 132.656 72.8929C132.706 72.7482 132.787 72.6159 132.893 72.505C133.111 72.2631 134.331 71.593 134.498 72.0308C134.682 72.5069 133.476 73.6013 132.601 73.344Z" fill="white" stroke="#263238" stroke-width="0.3" stroke-miterlimit="10"/>
<path d="M132.601 73.346L133.803 72.4148" stroke="#263238" stroke-width="0.3" stroke-miterlimit="10"/>
<path d="M132.017 70.3719L132.856 69.2775" stroke="#263238" stroke-width="0.3" stroke-miterlimit="10"/>
<path d="M132.601 69.6058C132.587 69.4532 132.605 69.2994 132.656 69.1546C132.706 69.0099 132.787 68.8776 132.893 68.7667C133.111 68.5248 134.331 67.8547 134.498 68.2906C134.682 68.7667 133.476 69.8611 132.601 69.6058Z" fill="#56AA7A" stroke="#263238" stroke-width="0.3" stroke-miterlimit="10"/>
<path opacity="0.4" d="M132.601 69.6058C132.587 69.4532 132.605 69.2994 132.656 69.1546C132.706 69.0099 132.787 68.8776 132.893 68.7667C133.111 68.5248 134.331 67.8547 134.498 68.2906C134.682 68.7667 133.476 69.8611 132.601 69.6058Z" fill="white" stroke="#263238" stroke-width="0.3" stroke-miterlimit="10"/>
<path d="M132.601 69.6058L133.803 68.6746" stroke="#263238" stroke-width="0.3" stroke-miterlimit="10"/>
<path d="M132.017 65.4279L132.856 64.3335" stroke="#263238" stroke-width="0.3" stroke-miterlimit="10"/>
<path d="M132.601 64.6618C132.587 64.5092 132.605 64.3554 132.656 64.2107C132.706 64.0659 132.787 63.9337 132.893 63.8227C133.111 63.5808 134.331 62.9107 134.498 63.3485C134.682 63.8227 133.476 64.9171 132.601 64.6618Z" fill="#56AA7A" stroke="#263238" stroke-width="0.3" stroke-miterlimit="10"/>
<path opacity="0.4" d="M132.601 64.6618C132.587 64.5092 132.605 64.3554 132.656 64.2107C132.706 64.0659 132.787 63.9337 132.893 63.8227C133.111 63.5808 134.331 62.9107 134.498 63.3485C134.682 63.8227 133.476 64.9171 132.601 64.6618Z" fill="white" stroke="#263238" stroke-width="0.3" stroke-miterlimit="10"/>
<path d="M132.601 64.6618L133.803 63.7306" stroke="#263238" stroke-width="0.3" stroke-miterlimit="10"/>
<path d="M132.017 61.5418L132.856 60.4454" stroke="#263238" stroke-width="0.3" stroke-miterlimit="10"/>
<path d="M132.601 60.7757C132.587 60.6228 132.605 60.4687 132.656 60.3237C132.706 60.1786 132.787 60.046 132.893 59.9347C133.111 59.6928 134.331 59.0247 134.498 59.4605C134.682 59.9347 133.476 61.0311 132.601 60.7757Z" fill="#56AA7A" stroke="#263238" stroke-width="0.3" stroke-miterlimit="10"/>
<path opacity="0.4" d="M132.601 60.7757C132.587 60.6228 132.605 60.4687 132.656 60.3237C132.706 60.1786 132.787 60.046 132.893 59.9347C133.111 59.6928 134.331 59.0247 134.498 59.4605C134.682 59.9347 133.476 61.0311 132.601 60.7757Z" fill="white" stroke="#263238" stroke-width="0.3" stroke-miterlimit="10"/>
<path d="M132.601 60.7757L133.803 59.8445" stroke="#263238" stroke-width="0.3" stroke-miterlimit="10"/>
<path d="M131.967 59.0516C131.953 58.8987 131.972 58.7446 132.023 58.5996C132.073 58.4546 132.154 58.322 132.259 58.2106C132.478 57.9706 133.697 57.3005 133.864 57.7364C134.047 58.2106 132.843 59.3069 131.967 59.0516Z" fill="#56AA7A" stroke="#263238" stroke-width="0.3" stroke-miterlimit="10"/>
<path opacity="0.4" d="M131.967 59.0516C131.953 58.8987 131.972 58.7446 132.023 58.5996C132.073 58.4546 132.154 58.322 132.259 58.2106C132.478 57.9706 133.697 57.3005 133.864 57.7364C134.047 58.2106 132.843 59.3069 131.967 59.0516Z" fill="white" stroke="#263238" stroke-width="0.3" stroke-miterlimit="10"/>
<path d="M131.967 59.0516L133.167 58.1204" stroke="#263238" stroke-width="0.3" stroke-miterlimit="10"/>
<path d="M132.025 59.1034C131.871 59.1003 131.72 59.0644 131.581 58.9982C131.442 58.932 131.319 58.8369 131.22 58.7194C131.003 58.4775 130.466 57.1949 130.917 57.074C131.408 56.9453 132.37 58.2586 132.025 59.1034Z" fill="#56AA7A" stroke="#263238" stroke-width="0.3" stroke-miterlimit="10"/>
<path opacity="0.4" d="M132.025 59.1034C131.871 59.1003 131.72 59.0644 131.581 58.9982C131.442 58.932 131.319 58.8369 131.22 58.7194C131.003 58.4775 130.466 57.1949 130.917 57.074C131.408 56.9453 132.37 58.2586 132.025 59.1034Z" fill="white" stroke="#263238" stroke-width="0.3" stroke-miterlimit="10"/>
<path d="M132.025 59.1034L131.226 57.8093" stroke="#263238" stroke-width="0.3" stroke-miterlimit="10"/>
<path d="M133.058 90.6241H130.374L130.038 83.8427H133.394L133.058 90.6241Z" fill="#263238" stroke="#263238" stroke-width="0.3" stroke-miterlimit="10"/>
<path d="M28.5312 10.5601H10.752V22.5908H28.5312V10.5601Z" stroke="white" stroke-width="0.5" stroke-linecap="round" stroke-linejoin="round"/>
<path d="M47.3647 10.5601H29.5854V22.5908H47.3647V10.5601Z" stroke="white" stroke-width="0.5" stroke-linecap="round" stroke-linejoin="round"/>
<path d="M73.2958 10.5601H55.5166V22.5908H73.2958V10.5601Z" stroke="url(#paint0_linear_257_8585)" stroke-width="0.5" stroke-linecap="round" stroke-linejoin="round"/>
<path d="M92.1313 10.5601H74.3521V22.5908H92.1313V10.5601Z" stroke="#D7D7D7" stroke-width="0.5" stroke-linecap="round" stroke-linejoin="round"/>
<path d="M118.063 10.5601H100.284V22.5908H118.063V10.5601Z" stroke="white" stroke-width="0.5" stroke-linecap="round" stroke-linejoin="round"/>
<path d="M136.896 10.5601H119.117V22.5908H136.896V10.5601Z" stroke="white" stroke-width="0.5" stroke-linecap="round" stroke-linejoin="round"/>
<path d="M94.0666 73.3248H80.2695V88.0877H94.0666V73.3248Z" fill="white" stroke="#B2B2B2" stroke-width="0.3" stroke-linecap="round" stroke-linejoin="round"/>
<path d="M82.6083 73.3248H81.3545V78.6951H82.6083V73.3248Z" fill="#B2B2B2" stroke="#B2B2B2" stroke-width="0.3" stroke-miterlimit="10"/>
<path d="M107.852 73.3248H94.0552V88.0877H107.852V73.3248Z" fill="white" stroke="#B2B2B2" stroke-width="0.3" stroke-linecap="round" stroke-linejoin="round"/>
<path d="M96.3939 73.3248H95.1401V78.6951H96.3939V73.3248Z" fill="#B2B2B2" stroke="#B2B2B2" stroke-width="0.3" stroke-miterlimit="10"/>
<path d="M94.0666 58.4659H80.2695V73.2288H94.0666V58.4659Z" fill="white" stroke="#B2B2B2" stroke-width="0.3" stroke-linecap="round" stroke-linejoin="round"/>
<path d="M82.6083 58.4659H81.3545V63.8362H82.6083V58.4659Z" fill="#B2B2B2" stroke="#B2B2B2" stroke-width="0.3" stroke-miterlimit="10"/>
<path d="M107.852 58.4659H94.0552V73.2288H107.852V58.4659Z" fill="white" stroke="#B2B2B2" stroke-width="0.3" stroke-linecap="round" stroke-linejoin="round"/>
<path d="M96.3939 58.4659H95.1401V63.8362H96.3939V58.4659Z" fill="#B2B2B2" stroke="#B2B2B2" stroke-width="0.3" stroke-miterlimit="10"/>
<path d="M109.281 89.9193H79.7417V90.624H109.281V89.9193Z" fill="white" stroke="#B2B2B2" stroke-width="0.3" stroke-linecap="round" stroke-linejoin="round"/>
<path d="M109.281 87.3619H79.7417V88.0666H109.281V87.3619Z" fill="white" stroke="#B2B2B2" stroke-width="0.3" stroke-linecap="round" stroke-linejoin="round"/>
<path d="M82.562 88.0876H80.2695V89.8771H82.562V88.0876Z" fill="white" stroke="#B2B2B2" stroke-width="0.3" stroke-linecap="round" stroke-linejoin="round"/>
<path d="M95.2783 88.0876H92.9858V89.8771H95.2783V88.0876Z" fill="white" stroke="#B2B2B2" stroke-width="0.3" stroke-linecap="round" stroke-linejoin="round"/>
<path d="M107.995 88.0876H105.702V89.8771H107.995V88.0876Z" fill="white" stroke="#B2B2B2" stroke-width="0.3" stroke-linecap="round" stroke-linejoin="round"/>
<path d="M63.9226 73.3248H50.1255V88.0877H63.9226V73.3248Z" fill="white" stroke="#B2B2B2" stroke-width="0.3" stroke-linecap="round" stroke-linejoin="round"/>
<path d="M52.4642 73.3248H51.2104V78.6951H52.4642V73.3248Z" fill="#B2B2B2" stroke="#B2B2B2" stroke-width="0.3" stroke-miterlimit="10"/>
<path d="M77.7083 73.3248H63.9111V88.0877H77.7083V73.3248Z" fill="white" stroke="#B2B2B2" stroke-width="0.3" stroke-linecap="round" stroke-linejoin="round"/>
<path d="M66.2499 73.3248H64.9961V78.6951H66.2499V73.3248Z" fill="#B2B2B2" stroke="#B2B2B2" stroke-width="0.3" stroke-miterlimit="10"/>
<path d="M63.9226 58.4659H50.1255V73.2288H63.9226V58.4659Z" fill="white" stroke="#B2B2B2" stroke-width="0.3" stroke-linecap="round" stroke-linejoin="round"/>
<path d="M52.4642 58.4659H51.2104V63.8362H52.4642V58.4659Z" fill="#B2B2B2" stroke="#B2B2B2" stroke-width="0.3" stroke-miterlimit="10"/>
<path d="M77.7083 58.4659H63.9111V73.2288H77.7083V58.4659Z" fill="white" stroke="#B2B2B2" stroke-width="0.3" stroke-linecap="round" stroke-linejoin="round"/>
<path d="M66.2499 58.4659H64.9961V63.8362H66.2499V58.4659Z" fill="#B2B2B2" stroke="#B2B2B2" stroke-width="0.3" stroke-miterlimit="10"/>
<path d="M79.1369 89.9193H49.5977V90.624H79.1369V89.9193Z" fill="white" stroke="#B2B2B2" stroke-width="0.3" stroke-linecap="round" stroke-linejoin="round"/>
<path d="M79.1369 87.3619H49.5977V88.0666H79.1369V87.3619Z" fill="white" stroke="#B2B2B2" stroke-width="0.3" stroke-linecap="round" stroke-linejoin="round"/>
<path d="M52.418 88.0876H50.1255V89.8771H52.418V88.0876Z" fill="white" stroke="#B2B2B2" stroke-width="0.3" stroke-linecap="round" stroke-linejoin="round"/>
<path d="M65.1343 88.0876H62.8418V89.8771H65.1343V88.0876Z" fill="white" stroke="#B2B2B2" stroke-width="0.3" stroke-linecap="round" stroke-linejoin="round"/>
<path d="M77.8506 88.0876H75.5581V89.8771H77.8506V88.0876Z" fill="white" stroke="#B2B2B2" stroke-width="0.3" stroke-linecap="round" stroke-linejoin="round"/>
<path d="M33.7786 73.3248H19.9814V88.0877H33.7786V73.3248Z" fill="white" stroke="#B2B2B2" stroke-width="0.3" stroke-linecap="round" stroke-linejoin="round"/>
<path d="M22.3202 73.3248H21.0664V78.6951H22.3202V73.3248Z" fill="#B2B2B2" stroke="#B2B2B2" stroke-width="0.3" stroke-miterlimit="10"/>
<path d="M47.5642 73.3248H33.7671V88.0877H47.5642V73.3248Z" fill="white" stroke="#B2B2B2" stroke-width="0.3" stroke-linecap="round" stroke-linejoin="round"/>
<path d="M36.1058 73.3248H34.8521V78.6951H36.1058V73.3248Z" fill="#B2B2B2" stroke="#B2B2B2" stroke-width="0.3" stroke-miterlimit="10"/>
<path d="M33.7786 58.4659H19.9814V73.2288H33.7786V58.4659Z" fill="white" stroke="#B2B2B2" stroke-width="0.3" stroke-linecap="round" stroke-linejoin="round"/>
<path d="M22.3202 58.4659H21.0664V63.8362H22.3202V58.4659Z" fill="#B2B2B2" stroke="#B2B2B2" stroke-width="0.3" stroke-miterlimit="10"/>
<path d="M47.5642 58.4659H33.7671V73.2288H47.5642V58.4659Z" fill="white" stroke="#B2B2B2" stroke-width="0.3" stroke-linecap="round" stroke-linejoin="round"/>
<path d="M36.1058 58.4659H34.8521V63.8362H36.1058V58.4659Z" fill="#B2B2B2" stroke="#B2B2B2" stroke-width="0.3" stroke-miterlimit="10"/>
<path d="M33.7786 43.8739H19.9814V58.6368H33.7786V43.8739Z" fill="white" stroke="#B2B2B2" stroke-width="0.3" stroke-linecap="round" stroke-linejoin="round"/>
<path d="M22.3202 43.8739H21.0664V49.2441H22.3202V43.8739Z" fill="#B2B2B2" stroke="#B2B2B2" stroke-width="0.3" stroke-miterlimit="10"/>
<path d="M47.5642 43.8739H33.7671V58.6368H47.5642V43.8739Z" fill="white" stroke="#B2B2B2" stroke-width="0.3" stroke-linecap="round" stroke-linejoin="round"/>
<path d="M36.1058 43.8739H34.8521V49.2441H36.1058V43.8739Z" fill="#B2B2B2" stroke="#B2B2B2" stroke-width="0.3" stroke-miterlimit="10"/>
<path d="M48.9928 89.9193H19.4536V90.624H48.9928V89.9193Z" fill="white" stroke="#B2B2B2" stroke-width="0.3" stroke-linecap="round" stroke-linejoin="round"/>
<path d="M48.9928 87.3619H19.4536V88.0666H48.9928V87.3619Z" fill="white" stroke="#B2B2B2" stroke-width="0.3" stroke-linecap="round" stroke-linejoin="round"/>
<path d="M22.2739 88.0876H19.9814V89.8771H22.2739V88.0876Z" fill="white" stroke="#B2B2B2" stroke-width="0.3" stroke-linecap="round" stroke-linejoin="round"/>
<path d="M34.9902 88.0876H32.6978V89.8771H34.9902V88.0876Z" fill="white" stroke="#B2B2B2" stroke-width="0.3" stroke-linecap="round" stroke-linejoin="round"/>
<path d="M47.7065 88.0876H45.4141V89.8771H47.7065V88.0876Z" fill="white" stroke="#B2B2B2" stroke-width="0.3" stroke-linecap="round" stroke-linejoin="round"/>
<path d="M128.145 5.21277H75.7134V46.2374H128.145V5.21277Z" fill="#FDFFF4" stroke="#263238" stroke-width="0.3" stroke-linecap="round" stroke-linejoin="round"/>
<path d="M128.145 5.21277H75.7134V7.06941H128.145V5.21277Z" fill="#263238" stroke="#263238" stroke-width="0.3" stroke-linecap="round" stroke-linejoin="round"/>
<path d="M123.905 6.06144C123.907 5.9668 123.881 5.87373 123.83 5.79413C123.778 5.71454 123.705 5.65201 123.618 5.61455C123.531 5.57709 123.435 5.5664 123.342 5.58383C123.249 5.60126 123.163 5.64602 123.095 5.71241C123.028 5.7788 122.982 5.86379 122.963 5.95654C122.944 6.04929 122.953 6.14557 122.989 6.23311C123.025 6.32064 123.086 6.39545 123.165 6.44798C123.244 6.5005 123.336 6.52836 123.431 6.528C123.555 6.52752 123.675 6.47846 123.763 6.39128C123.852 6.3041 123.903 6.18572 123.905 6.06144Z" fill="white" stroke="#263238" stroke-width="0.3" stroke-linecap="round" stroke-linejoin="round"/>
<path d="M125.568 6.06138C125.57 5.96715 125.544 5.87448 125.493 5.7951C125.442 5.71572 125.369 5.65322 125.282 5.61549C125.196 5.57777 125.1 5.56652 125.008 5.58318C124.915 5.59984 124.829 5.64366 124.761 5.70908C124.694 5.77451 124.647 5.85859 124.627 5.95069C124.607 6.04279 124.614 6.13876 124.649 6.22644C124.683 6.31413 124.743 6.38959 124.821 6.44326C124.898 6.49693 124.99 6.5264 125.084 6.52794C125.21 6.53 125.332 6.48205 125.422 6.39461C125.513 6.30716 125.565 6.18734 125.568 6.06138Z" fill="white" stroke="#263238" stroke-width="0.3" stroke-linecap="round" stroke-linejoin="round"/>
<path d="M127.213 6.06144C127.215 5.96688 127.189 5.8739 127.138 5.79434C127.087 5.71478 127.013 5.65226 126.926 5.61474C126.839 5.57723 126.743 5.56642 126.65 5.58369C126.557 5.60097 126.472 5.64554 126.404 5.71174C126.337 5.77793 126.29 5.86274 126.271 5.95536C126.252 6.04798 126.261 6.14421 126.297 6.23178C126.332 6.31934 126.393 6.39428 126.472 6.44704C126.55 6.4998 126.643 6.52798 126.737 6.528C126.862 6.52803 126.982 6.47918 127.071 6.39195C127.16 6.30472 127.211 6.18606 127.213 6.06144Z" fill="white" stroke="#263238" stroke-width="0.3" stroke-linecap="round" stroke-linejoin="round"/>
<path d="M79.0333 12.2131H78.7549V9.42139H79.1504L79.7955 11.4393V9.42139H80.0643V12.2131H79.7398L79.0256 9.95515L79.0333 12.2131Z" fill="#263238"/>
<path d="M81.3832 10.6579V10.9439H80.7016V11.9385H81.5387V12.2207H80.3867V9.42139H81.5387V9.70363H80.7016V10.6636L81.3832 10.6579Z" fill="#263238"/>
<path d="M82.5695 12.2131H82.1413L81.7573 9.42139H82.0607L82.3871 11.7983L82.6981 9.42523H83.0053L83.3125 11.8022L83.6274 9.42139H83.9039L83.5199 12.2131H83.109L82.8421 10.318L82.5695 12.2131Z" fill="#263238"/>
<path d="M85.7646 10.6579V10.9439H85.083V11.9385H85.922V12.2207H84.77V9.42139H85.922V9.70363H85.083V10.6636L85.7646 10.6579Z" fill="#263238"/>
<path d="M86.4845 12.2131H86.208V9.42139H86.592L87.239 11.4393V9.42139H87.5136V12.2131H87.191L86.4768 9.95515L86.4845 12.2131Z" fill="#263238"/>
<path d="M88.2431 12.2131V9.70363H87.7285V9.42139H89.0725V9.70363H88.5503V12.2131H88.2431Z" fill="#263238"/>
<path d="M89.9004 9.42139C90.3382 9.42139 90.5225 9.64411 90.5225 10.0588V10.2854C90.5225 10.5926 90.415 10.7846 90.175 10.8614C90.4304 10.9363 90.5264 11.1436 90.5264 11.4374V11.8732C90.5172 11.9875 90.5363 12.1022 90.582 12.2073H90.2672C90.2228 12.0999 90.205 11.9833 90.2153 11.8675V11.4355C90.2153 11.1206 90.0675 11.0207 89.8083 11.0207H89.5894V12.2131H89.2803V9.42139H89.9004ZM89.8198 10.7366C90.0675 10.7366 90.2153 10.6579 90.2153 10.3526V10.0876C90.2153 9.83611 90.1232 9.70363 89.8928 9.70363H89.5894V10.7366H89.8198Z" fill="#263238"/>
<path d="M91.1616 9.42139V12.2131H90.8486V9.42139H91.1616Z" fill="#263238"/>
<path d="M92.473 10.6579V10.9439H91.7914V11.9385H92.6286V12.2207H91.4766V9.42139H92.6286V9.70363H91.7914V10.6636L92.473 10.6579Z" fill="#263238"/>
<path d="M94.1263 10.0915V10.176H93.8306V10.0838C93.8306 9.8323 93.7346 9.68638 93.5119 9.68638C93.2892 9.68638 93.1913 9.8323 93.1913 10.08C93.1913 10.7078 94.1302 10.7673 94.1302 11.5526C94.1302 11.975 93.9266 12.2515 93.5004 12.2515C93.0742 12.2515 92.8726 11.975 92.8726 11.5526V11.3933H93.1644V11.568C93.1644 11.8195 93.2681 11.9673 93.4908 11.9673C93.7135 11.9673 93.8191 11.8195 93.8191 11.568C93.8191 10.9459 92.886 10.8864 92.886 10.1011C92.886 9.6691 93.078 9.40222 93.5042 9.40222C93.9305 9.40222 94.1263 9.66718 94.1263 10.0915Z" fill="#263238"/>
<path d="M96.2516 13.6876H79.2404C78.8703 13.6876 78.5703 13.9876 78.5703 14.3577V16.7673C78.5703 17.1374 78.8703 17.4374 79.2404 17.4374H96.2516C96.6217 17.4374 96.9217 17.1374 96.9217 16.7673V14.3577C96.9217 13.9876 96.6217 13.6876 96.2516 13.6876Z" fill="#56AA7A" stroke="#263238" stroke-width="0.3" stroke-linecap="round" stroke-linejoin="round"/>
<path d="M87.8266 41.0822H79.0234C78.7732 41.0822 78.5703 41.285 78.5703 41.5353V43.8796C78.5703 44.1298 78.7732 44.3327 79.0234 44.3327H87.8266C88.0769 44.3327 88.2798 44.1298 88.2798 43.8796V41.5353C88.2798 41.285 88.0769 41.0822 87.8266 41.0822Z" fill="#56AA7A" stroke="#263238" stroke-width="0.3" stroke-linecap="round" stroke-linejoin="round"/>
<path d="M99.8325 41.0822H91.0293C90.779 41.0822 90.5762 41.285 90.5762 41.5353V43.8796C90.5762 44.1298 90.779 44.3327 91.0293 44.3327H99.8325C100.083 44.3327 100.286 44.1298 100.286 43.8796V41.5353C100.286 41.285 100.083 41.0822 99.8325 41.0822Z" fill="#263238" stroke="#263238" stroke-width="0.3" stroke-linecap="round" stroke-linejoin="round"/>
<path d="M124.915 19.8835H79.2404C78.8703 19.8835 78.5703 20.1836 78.5703 20.5536V22.9632C78.5703 23.3333 78.8703 23.6333 79.2404 23.6333H124.915C125.285 23.6333 125.585 23.3333 125.585 22.9632V20.5536C125.585 20.1836 125.285 19.8835 124.915 19.8835Z" fill="#56AA7A" stroke="#263238" stroke-width="0.3" stroke-linecap="round" stroke-linejoin="round"/>
<path d="M125.585 25.3478H112.305V38.5497H125.585V25.3478Z" fill="white" stroke="#263238" stroke-width="0.3" stroke-linecap="round" stroke-linejoin="round"/>
<path d="M111.375 25.3584H78.7925V38.5603H111.375V25.3584Z" fill="white" stroke="#263238" stroke-width="0.3" stroke-linecap="round" stroke-linejoin="round"/>
<path d="M113.215 27.4905H123.978" stroke="#263238" stroke-width="0.3" stroke-linecap="round" stroke-linejoin="round"/>
<path d="M79.6982 27.1697H110.234" stroke="#263238" stroke-width="0.3" stroke-linecap="round" stroke-linejoin="round"/>
<path d="M113.301 30.3033H123.978" stroke="#263238" stroke-width="0.3" stroke-linecap="round" stroke-linejoin="round"/>
<path d="M79.6982 29.8867H110.318" stroke="#263238" stroke-width="0.3" stroke-linecap="round" stroke-linejoin="round"/>
<path d="M113.301 33.1161H123.978" stroke="#263238" stroke-width="0.3" stroke-linecap="round" stroke-linejoin="round"/>
<path d="M79.7759 33.1161H110.396" stroke="#263238" stroke-width="0.3" stroke-linecap="round" stroke-linejoin="round"/>
<path d="M113.301 35.929H123.978" stroke="#263238" stroke-width="0.3" stroke-linecap="round" stroke-linejoin="round"/>
<path d="M79.7759 35.929H110.396" stroke="#263238" stroke-width="0.3" stroke-linecap="round" stroke-linejoin="round"/>
<path d="M112.466 14.4786C112.718 14.4786 112.833 14.6303 112.833 14.8799V15.6921C112.833 15.9398 112.718 16.0914 112.466 16.0914H112.082V14.4786H112.466ZM112.466 15.9282C112.595 15.9282 112.658 15.8476 112.658 15.6998V14.8703C112.658 14.7225 112.597 14.6418 112.466 14.6418H112.274V15.9359L112.466 15.9282Z" fill="#263238"/>
<path d="M113.18 15.767L113.119 16.0914H112.952L113.261 14.4786H113.522L113.829 16.0914H113.651L113.587 15.767H113.18ZM113.203 15.6114H113.562L113.382 14.6822L113.203 15.6114Z" fill="#263238"/>
<path d="M114.205 16.0914V14.6418H113.908V14.4786H114.676V14.6418H114.38V16.0914H114.205Z" fill="#263238"/>
<path d="M115.38 15.1929V15.3599H114.987V15.9359H115.471V16.0991H114.816V14.4863H115.48V14.6495H114.996V15.2006L115.38 15.1929Z" fill="#263238"/>
<path d="M118.946 14.2098H116.412V16.7442H118.946V14.2098Z" fill="#56AA7A" stroke="#263238" stroke-width="0.3" stroke-linecap="round" stroke-linejoin="round"/>
<path d="M122.348 14.2098H119.814V16.7442H122.348V14.2098Z" fill="#56AA7A" stroke="#263238" stroke-width="0.3" stroke-linecap="round" stroke-linejoin="round"/>
<path d="M125.751 14.2098H123.216V16.7442H125.751V14.2098Z" fill="#56AA7A" stroke="#263238" stroke-width="0.3" stroke-linecap="round" stroke-linejoin="round"/>
<path d="M92.5864 47.7158H101.497L110.193 57.5366L104.254 47.7158H114.152" stroke="#263238" stroke-width="0.3" stroke-linecap="round" stroke-linejoin="round"/>
<path d="M91.0332 47.7158H91.7705" stroke="#263238" stroke-width="0.3" stroke-linecap="round" stroke-linejoin="round"/>
<path d="M113.432 87.3292C113.432 87.3292 112.523 88.7903 112.264 89.0188C112.005 89.2473 111.354 89.7331 111.095 89.9923C110.836 90.2515 111.158 90.5779 111.452 90.6086C111.746 90.6393 115.292 90.6086 115.292 90.6086C115.292 90.6086 115.676 90.5452 115.714 90.3494C115.753 90.1535 115.906 89.5699 115.682 89.0515C115.539 88.6997 115.462 88.325 115.453 87.9455L115.519 87.7843L115.453 87.4003L113.432 87.3292Z" fill="white" stroke="#263238" stroke-width="0.3" stroke-linecap="round" stroke-linejoin="round"/>
<path d="M111.452 90.6086C111.744 90.6412 115.292 90.6086 115.292 90.6086C115.292 90.6086 115.676 90.5452 115.714 90.3494C115.769 90.108 115.797 89.8615 115.799 89.614C115.263 89.7734 114.72 89.998 114.72 89.998H111.095C110.834 90.2515 111.168 90.5779 111.452 90.6086Z" fill="white" stroke="#263238" stroke-width="0.3" stroke-linecap="round" stroke-linejoin="round"/>
<path d="M114.879 89.662L114.629 90.5394" stroke="#263238" stroke-width="0.3" stroke-linecap="round" stroke-linejoin="round"/>
<path d="M113.835 89.2626C113.815 89.2627 113.794 89.2588 113.775 89.2511C113.102 88.9516 112.662 89.1551 112.645 89.1647C112.61 89.1812 112.571 89.1834 112.535 89.1708C112.499 89.1582 112.469 89.1319 112.453 89.0975C112.436 89.0634 112.433 89.024 112.446 88.9881C112.458 88.9521 112.484 88.9224 112.518 88.9055C112.541 88.894 113.094 88.629 113.894 88.9862C113.912 88.9937 113.928 89.0046 113.942 89.0184C113.955 89.0322 113.965 89.0485 113.972 89.0664C113.979 89.0843 113.983 89.1034 113.982 89.1226C113.982 89.1418 113.977 89.1607 113.969 89.1782C113.957 89.2037 113.938 89.2253 113.915 89.2403C113.891 89.2553 113.863 89.263 113.835 89.2626Z" fill="white" stroke="#263238" stroke-width="0.3" stroke-linecap="round" stroke-linejoin="round"/>
<path d="M113.96 88.896C113.939 88.8959 113.919 88.892 113.9 88.8845C113.228 88.585 112.788 88.7885 112.769 88.7981C112.735 88.812 112.697 88.8124 112.662 88.7993C112.628 88.7862 112.6 88.7605 112.583 88.7274C112.567 88.6943 112.564 88.6563 112.575 88.6209C112.585 88.5856 112.609 88.5556 112.641 88.537C112.664 88.5255 113.217 88.2605 114.019 88.6176C114.049 88.6315 114.074 88.6552 114.088 88.6848C114.103 88.7144 114.108 88.7482 114.101 88.7806C114.094 88.813 114.076 88.8421 114.05 88.8631C114.025 88.884 113.993 88.8957 113.96 88.896Z" fill="white" stroke="#263238" stroke-width="0.3" stroke-linecap="round" stroke-linejoin="round"/>
<path d="M114.084 88.512C114.064 88.5119 114.045 88.508 114.027 88.5005C113.353 88.199 112.913 88.4045 112.894 88.4141C112.86 88.428 112.821 88.4284 112.787 88.4153C112.752 88.4021 112.724 88.3765 112.708 88.3434C112.692 88.3103 112.688 88.2722 112.699 88.2369C112.71 88.2016 112.733 88.1716 112.765 88.1529C112.788 88.1414 113.341 87.8765 114.144 88.2336C114.179 88.2492 114.207 88.2781 114.221 88.3141C114.235 88.3501 114.234 88.3902 114.219 88.4256C114.207 88.4512 114.188 88.4729 114.164 88.4882C114.14 88.5035 114.112 88.5117 114.084 88.512Z" fill="white" stroke="#263238" stroke-width="0.3" stroke-linecap="round" stroke-linejoin="round"/>
<path d="M123.296 87.3292C123.296 87.3292 124.205 88.7903 124.466 89.0188C124.727 89.2473 125.374 89.7331 125.635 89.9923C125.896 90.2515 125.57 90.5779 125.276 90.6086C124.982 90.6393 121.436 90.6086 121.436 90.6086C121.436 90.6086 121.052 90.5452 121.016 90.3494C120.979 90.1535 120.824 89.5699 121.046 89.0515C121.189 88.6997 121.266 88.325 121.275 87.9455L121.209 87.7843L121.275 87.4003L123.296 87.3292Z" fill="white" stroke="#263238" stroke-width="0.3" stroke-linecap="round" stroke-linejoin="round"/>
<path d="M125.276 90.6086C124.984 90.6412 121.436 90.6086 121.436 90.6086C121.436 90.6086 121.052 90.5452 121.016 90.3494C120.959 90.1083 120.93 89.8616 120.929 89.614C121.465 89.7734 122.008 89.998 122.008 89.998H125.627C125.894 90.2515 125.568 90.5779 125.276 90.6086Z" fill="white" stroke="#263238" stroke-width="0.3" stroke-linecap="round" stroke-linejoin="round"/>
<path d="M121.849 89.662L122.1 90.5394" stroke="#263238" stroke-width="0.3" stroke-linecap="round" stroke-linejoin="round"/>
<path d="M122.893 89.2627C122.913 89.2628 122.934 89.2589 122.953 89.2512C123.626 88.9517 124.066 89.1552 124.083 89.1648C124.101 89.174 124.12 89.1796 124.14 89.1814C124.16 89.1831 124.18 89.1809 124.199 89.175C124.218 89.169 124.236 89.1593 124.251 89.1466C124.266 89.1338 124.279 89.1181 124.288 89.1005C124.297 89.0828 124.303 89.0635 124.305 89.0437C124.306 89.0239 124.304 89.0039 124.298 88.9849C124.292 88.9659 124.283 88.9483 124.27 88.933C124.257 88.9178 124.241 88.9052 124.224 88.896C124.201 88.8845 123.648 88.6195 122.845 88.9766C122.827 88.9841 122.811 88.9951 122.798 89.0089C122.785 89.0227 122.774 89.039 122.767 89.0569C122.76 89.0747 122.757 89.0938 122.757 89.113C122.758 89.1322 122.762 89.1511 122.77 89.1686C122.78 89.1943 122.796 89.2167 122.818 89.2333C122.84 89.2499 122.866 89.2601 122.893 89.2627Z" fill="white" stroke="#263238" stroke-width="0.3" stroke-linecap="round" stroke-linejoin="round"/>
<path d="M122.768 88.896C122.789 88.8959 122.809 88.892 122.828 88.8845C123.502 88.585 123.94 88.7885 123.959 88.7981C123.993 88.812 124.031 88.8124 124.066 88.7993C124.1 88.7862 124.128 88.7605 124.145 88.7274C124.161 88.6943 124.164 88.6563 124.153 88.6209C124.143 88.5856 124.119 88.5556 124.087 88.537C124.064 88.5255 123.511 88.2605 122.709 88.6176C122.679 88.6315 122.654 88.6552 122.639 88.6848C122.625 88.7144 122.62 88.7482 122.627 88.7806C122.634 88.813 122.652 88.8421 122.678 88.8631C122.703 88.884 122.735 88.8957 122.768 88.896Z" fill="white" stroke="#263238" stroke-width="0.3" stroke-linecap="round" stroke-linejoin="round"/>
<path d="M122.644 88.512C122.664 88.5119 122.683 88.508 122.701 88.5005C123.375 88.199 123.815 88.4045 123.834 88.4141C123.868 88.428 123.907 88.4284 123.941 88.4153C123.975 88.4021 124.004 88.3765 124.02 88.3434C124.036 88.3103 124.039 88.2722 124.029 88.2369C124.018 88.2016 123.995 88.1716 123.963 88.1529C123.94 88.1414 123.387 87.8765 122.584 88.2336C122.554 88.2475 122.53 88.2712 122.515 88.3008C122.5 88.3304 122.496 88.3642 122.503 88.3966C122.51 88.429 122.527 88.458 122.553 88.479C122.579 88.5 122.611 88.5116 122.644 88.512Z" fill="white" stroke="#263238" stroke-width="0.3" stroke-linecap="round" stroke-linejoin="round"/>
<path d="M123.797 86.4327C123.771 86.3347 123.742 86.2407 123.715 86.1427C123.482 85.1731 123.346 84.1826 123.31 83.1859C122.862 76.7271 122.414 70.2675 121.966 63.8074C121.981 64.0263 115.593 63.8919 115.023 63.8823C113.721 63.8631 113.804 64.2144 113.771 65.4759C113.739 66.7373 113.71 68.0525 113.683 69.3408C113.586 74.2816 113.543 79.2218 113.554 84.1613C113.574 84.5651 113.537 84.9696 113.445 85.3632C113.356 85.6723 113.199 85.9565 113.103 86.2618C112.939 86.7821 112.95 87.3418 113.134 87.8554C113.979 87.8288 114.821 87.9819 115.603 88.3047C116.083 87.3677 116.21 86.2963 116.329 85.2499L118.057 70.1127L120.276 82.8691L120.691 85.248C120.868 86.2637 121.044 87.2813 121.238 88.2951C122.058 87.9929 122.924 87.8331 123.797 87.8227C124.032 87.4119 123.928 86.9107 123.797 86.4327Z" fill="#263238" stroke="#263238" stroke-width="0.3" stroke-linecap="round" stroke-linejoin="round"/>
<path d="M120.474 64.343H115.215V64.9113H120.474V64.343Z" fill="#575757" stroke="#263238" stroke-width="0.3" stroke-linecap="round" stroke-linejoin="round"/>
<path d="M121.968 64.343H120.952V64.9113H121.968V64.343Z" fill="#575757" stroke="#263238" stroke-width="0.3" stroke-linecap="round" stroke-linejoin="round"/>
<path d="M114.737 64.343H113.931V64.9113H114.737V64.343Z" fill="#575757" stroke="#263238" stroke-width="0.3" stroke-linecap="round" stroke-linejoin="round"/>
<path d="M118.562 64.4025H117.247V64.8805H118.562V64.4025Z" fill="white" stroke="#263238" stroke-width="0.3" stroke-linecap="round" stroke-linejoin="round"/>
<path d="M112.107 53.8905C112.107 53.8905 109.684 62.3155 109.578 62.5305C109.472 62.7455 110.106 62.6361 110.701 62.7417C111.296 62.8473 112.141 62.3903 112.237 62.2137C112.333 62.0371 113.22 59.3011 113.22 59.3011L112.107 53.8905Z" fill="white" stroke="#263238" stroke-width="0.3" stroke-linecap="round" stroke-linejoin="round"/>
<path d="M112.216 56.6208L112.116 56.377" stroke="#263238" stroke-width="0.3" stroke-linecap="round" stroke-linejoin="round"/>
<path d="M113.011 58.5426L112.333 56.903" stroke="#263238" stroke-width="0.3" stroke-linecap="round" stroke-linejoin="round"/>
<path d="M112.159 61.1021L112.351 61.2403L112.159 61.1021Z" fill="white"/>
<path d="M112.159 61.1021L112.351 61.2403" stroke="#263238" stroke-width="0.3" stroke-linecap="round" stroke-linejoin="round"/>
<path d="M110.369 60.7219C110.629 60.622 110.896 60.5411 111.168 60.48C111.441 60.6028 111.699 60.7575 111.936 60.9408" fill="white"/>
<path d="M110.369 60.7219C110.629 60.622 110.896 60.5411 111.168 60.48C111.441 60.6028 111.699 60.7575 111.936 60.9408" stroke="#263238" stroke-width="0.3" stroke-linecap="round" stroke-linejoin="round"/>
<path d="M123.341 53.399C123.341 53.399 126.113 60.8064 126.184 61.079C126.271 61.3252 126.307 61.5865 126.29 61.847C126.253 62.1619 125.764 62.3731 125.658 62.3731C125.553 62.3731 124.781 61.8816 124.464 61.7415C124.147 61.6013 123.201 61.1443 123.201 61.1443L122.709 59.5642L123.341 53.399Z" fill="white" stroke="#263238" stroke-width="0.3" stroke-linecap="round" stroke-linejoin="round"/>
<path d="M123.496 55.8028L123.542 55.6223" stroke="#263238" stroke-width="0.3" stroke-linecap="round" stroke-linejoin="round"/>
<path d="M122.834 58.4082L123.422 56.0966" stroke="#263238" stroke-width="0.3" stroke-linecap="round" stroke-linejoin="round"/>
<path d="M124.533 59.7292L123.4 60.4377" stroke="#263238" stroke-width="0.3" stroke-linecap="round" stroke-linejoin="round"/>
<path d="M116.162 51.3389L116.277 49.5552H118.548L119.009 51.5405L117.485 52.8921L116.162 51.3389Z" fill="white" stroke="#263238" stroke-width="0.3" stroke-linecap="round" stroke-linejoin="round"/>
<path d="M116.074 51.7843L112.107 53.8963L113.835 63.024C113.835 63.024 113.695 63.8669 113.798 64.0416C113.871 64.1549 113.967 64.2506 114.081 64.3219H121.839C121.839 64.3219 122.365 63.8304 122.365 63.7267V63.264L123.349 53.399L119.413 51.84L116.074 51.7843Z" fill="white" stroke="#263238" stroke-width="0.3" stroke-linecap="round" stroke-linejoin="round"/>
<path d="M116.962 52.2009L117.482 53.6697L116.778 62.6093L117.88 64.3545L118.83 62.4557L117.849 53.6697L118.462 52.3526L117.575 51.3734L116.962 52.2009Z" fill="#263238" stroke="#263238" stroke-width="0.3" stroke-linecap="round" stroke-linejoin="round"/>
<path d="M116.014 51.0067L115.922 51.9859L116.747 53.3338L117.36 51.863L116.014 51.0067Z" fill="white" stroke="#263238" stroke-width="0.3" stroke-linecap="round" stroke-linejoin="round"/>
<path d="M117.911 51.8937L118.4 53.4547L119.412 51.8323L118.951 50.8838L117.911 51.8937Z" fill="white" stroke="#263238" stroke-width="0.3" stroke-linecap="round" stroke-linejoin="round"/>
<path d="M120.426 62.2464L120.286 61.1577L121.235 61.3324L120.426 62.2464Z" fill="white" stroke="#263238" stroke-width="0.3" stroke-linecap="round" stroke-linejoin="round"/>
<path d="M117.828 58.9439C117.532 58.9069 117.239 58.8479 116.951 58.7673C116.634 58.6636 116.425 58.8038 116.671 59.1187C116.916 59.4335 117.794 59.5756 117.9 59.5756C117.9 59.5756 118.074 60.4876 118.566 60.6643C118.811 60.7615 119.07 60.8204 119.334 60.839C119.468 61.0314 119.668 61.168 119.896 61.223C120.213 61.2595 120.948 61.7855 120.948 61.7855L121.3 60.9772L120.532 60.3455L119.764 59.0111L119.027 58.7654L118.391 58.5599L117.828 58.9439Z" fill="white" stroke="#263238" stroke-width="0.3" stroke-linecap="round" stroke-linejoin="round"/>
<path d="M119.795 59.9039L119.48 60.2188C119.501 60.3108 119.513 60.4047 119.514 60.4991C119.514 60.6412 119.268 60.6412 119.092 60.6412C118.906 60.6485 118.723 60.599 118.566 60.4991C118.426 60.3954 117.863 59.9039 117.863 59.9039L118.46 58.8498L117.934 59.2012C117.807 59.4396 117.654 59.6631 117.477 59.8674C117.268 60.0786 117.197 59.8329 117.197 59.8329C117.284 59.5405 117.402 59.258 117.548 58.99C117.748 58.7795 117.958 58.5802 118.18 58.3929C118.319 58.3715 118.461 58.3715 118.6 58.3929C118.938 58.4955 119.258 58.6496 119.549 58.8498C119.743 58.9903 119.891 59.1864 119.971 59.4124C119.992 59.4928 120.003 59.5752 120.006 59.6581" fill="white"/>
<path d="M119.795 59.9039L119.48 60.2188C119.501 60.3108 119.513 60.4047 119.514 60.4991C119.514 60.6412 119.268 60.6412 119.092 60.6412C118.906 60.6485 118.723 60.599 118.566 60.4991C118.426 60.3954 117.863 59.9039 117.863 59.9039L118.46 58.8498L117.934 59.2012C117.807 59.4396 117.654 59.6631 117.477 59.8674C117.268 60.0786 117.197 59.8329 117.197 59.8329C117.284 59.5405 117.402 59.258 117.548 58.99C117.748 58.7795 117.958 58.5802 118.18 58.3929C118.319 58.3715 118.461 58.3715 118.6 58.3929C118.938 58.4955 119.258 58.6496 119.549 58.8498C119.743 58.9903 119.891 59.1864 119.971 59.4124C119.992 59.4928 120.003 59.5752 120.006 59.6581" stroke="#263238" stroke-width="0.3" stroke-linecap="round" stroke-linejoin="round"/>
<path d="M118.882 60.5952C118.825 60.4627 118.812 60.3151 118.846 60.1747C119.007 59.8848 119.183 59.6035 119.374 59.3318" stroke="#263238" stroke-width="0.3" stroke-linecap="round" stroke-linejoin="round"/>
<path d="M118.566 60.4895C118.566 60.4895 118.51 60.4261 118.447 60.3378C118.383 60.2495 118.435 60.0901 118.435 59.9749C118.435 59.7637 118.951 58.9113 118.951 58.9113" stroke="#263238" stroke-width="0.3" stroke-linecap="round" stroke-linejoin="round"/>
<path d="M125.482 60.3148C125.482 60.3148 126.359 61.6492 126.325 62.0006C126.29 62.352 126.079 63.1238 125.764 63.1238C125.449 63.1238 124.036 62.9471 123.061 62.7724C122.085 62.5977 121.409 62.5267 121.409 62.5267L120.426 62.2464L121.094 60.6316L121.732 60.7641C122.037 60.6901 122.347 60.6388 122.659 60.6105C123.116 60.574 124.639 60.2092 124.639 60.2092" fill="white"/>
<path d="M125.482 60.3148C125.482 60.3148 126.359 61.6492 126.325 62.0006C126.29 62.352 126.079 63.1238 125.764 63.1238C125.449 63.1238 124.036 62.9471 123.061 62.7724C122.085 62.5977 121.409 62.5267 121.409 62.5267L120.426 62.2464L121.094 60.6316L121.732 60.7641C122.037 60.6901 122.347 60.6388 122.659 60.6105C123.116 60.574 124.639 60.2092 124.639 60.2092" stroke="#263238" stroke-width="0.3" stroke-linecap="round" stroke-linejoin="round"/>
<path d="M121.737 60.9235C121.754 61.317 121.657 61.707 121.457 62.0467" stroke="#263238" stroke-width="0.3" stroke-linecap="round" stroke-linejoin="round"/>
<path d="M110.035 61.4035C110.035 61.4035 109.438 62.8415 109.403 62.9395C109.369 63.0374 109.509 63.7075 110.07 63.5711C110.63 63.4348 113.616 63.1161 114.002 63.045L114.985 62.8703H115.753C116.104 62.8703 117.097 62.8703 117.298 62.7993L118.141 62.519C118.351 62.4479 118.808 62.1676 118.842 62.062C118.877 61.9564 118.738 61.8527 118.387 61.8873C118.036 61.9218 116.947 61.9564 116.947 61.9564C116.947 61.9564 117.93 61.5724 118.247 61.4303C118.564 61.2883 118.456 61.15 118.456 61.15C118.253 61.1514 118.051 61.1871 117.859 61.2556C117.613 61.3612 115.192 61.6761 115.192 61.6761L114.916 61.4399C114.995 61.238 115.042 61.0248 115.056 60.8083C115.056 60.5279 114.916 60.3167 114.739 60.3878C114.562 60.4588 114.493 60.8793 114.459 61.0195C114.424 61.1596 114.248 61.7203 114.248 61.7203L114.178 62.037C114.178 62.037 112.738 61.7567 112.316 61.5801C111.894 61.4035 111.018 61.1596 110.878 61.1961C110.738 61.2326 110.456 61.6185 110.386 61.7932" fill="white"/>
<path d="M110.035 61.4035C110.035 61.4035 109.438 62.8415 109.403 62.9395C109.369 63.0374 109.509 63.7075 110.07 63.5711C110.63 63.4348 113.616 63.1161 114.002 63.045L114.985 62.8703H115.753C116.104 62.8703 117.097 62.8703 117.298 62.7993L118.141 62.519C118.351 62.4479 118.808 62.1676 118.842 62.062C118.877 61.9564 118.738 61.8527 118.387 61.8873C118.036 61.9218 116.947 61.9564 116.947 61.9564C116.947 61.9564 117.93 61.5724 118.247 61.4303C118.564 61.2883 118.456 61.15 118.456 61.15C118.253 61.1514 118.051 61.1871 117.859 61.2556C117.613 61.3612 115.192 61.6761 115.192 61.6761L114.916 61.4399C114.995 61.238 115.042 61.0248 115.056 60.8083C115.056 60.5279 114.916 60.3167 114.739 60.3878C114.562 60.4588 114.493 60.8793 114.459 61.0195C114.424 61.1596 114.248 61.7203 114.248 61.7203L114.178 62.037C114.178 62.037 112.738 61.7567 112.316 61.5801C111.894 61.4035 111.018 61.1596 110.878 61.1961C110.738 61.2326 110.456 61.6185 110.386 61.7932" stroke="#263238" stroke-width="0.3" stroke-linecap="round" stroke-linejoin="round"/>
<path d="M113.17 61.9065C113.17 61.9065 112.936 62.4211 113.218 62.7494" stroke="#263238" stroke-width="0.3" stroke-linecap="round" stroke-linejoin="round"/>
<path d="M113.674 60.0575L114.741 62.229C114.76 62.2682 114.79 62.3013 114.827 62.3244C114.864 62.3475 114.907 62.3597 114.95 62.3596L118.848 62.3999C118.886 62.4003 118.924 62.3912 118.959 62.3735C118.993 62.3559 119.022 62.3301 119.044 62.2985C119.066 62.2669 119.08 62.2304 119.085 62.1922C119.089 62.154 119.084 62.1152 119.071 62.0793L118.222 59.8674C118.205 59.8233 118.175 59.7853 118.136 59.7586C118.097 59.7318 118.051 59.7176 118.003 59.7177H113.885C113.845 59.7173 113.805 59.7273 113.77 59.7466C113.735 59.766 113.705 59.7941 113.684 59.8283C113.663 59.8624 113.65 59.9014 113.649 59.9415C113.647 59.9817 113.655 60.0216 113.674 60.0575Z" fill="#56AA7A" stroke="#263238" stroke-width="0.3" stroke-linecap="round" stroke-linejoin="round"/>
<path d="M118.391 61.895C118.039 61.9295 116.951 61.9641 116.951 61.9641C116.951 61.9641 117.934 61.5801 118.251 61.438C118.567 61.2959 118.46 61.1577 118.46 61.1577C118.256 61.159 118.055 61.1947 117.863 61.2633C117.617 61.3689 115.196 61.6838 115.196 61.6838L114.916 61.4399C114.995 61.238 115.042 61.0248 115.056 60.8083C115.056 60.5279 114.916 60.3167 114.739 60.3878C114.562 60.4588 114.493 60.8793 114.459 61.0195C114.424 61.1596 114.247 61.7203 114.247 61.7203L114.178 62.037L113.806 61.9622C113.737 62.2055 113.744 62.4643 113.827 62.7033C113.865 62.8249 113.911 62.9441 113.963 63.0604H114.002L114.985 62.8857H115.753C116.104 62.8857 117.097 62.8857 117.298 62.8147L118.141 62.5343C118.351 62.4633 118.807 62.183 118.842 62.0774C118.877 61.9718 118.742 61.8604 118.391 61.895Z" fill="white" stroke="#263238" stroke-width="0.3" stroke-linecap="round" stroke-linejoin="round"/>
<path d="M118.713 62.1254C118.444 62.2589 118.165 62.3744 117.88 62.471C117.776 62.471 116.536 62.6111 116.536 62.6111" stroke="#263238" stroke-width="0.3" stroke-linecap="round" stroke-linejoin="round"/>
<path d="M113.124 87.863C113.133 87.829 113.144 87.7956 113.157 87.7632C113.144 87.7862 113.128 87.8073 113.113 87.8304L113.124 87.863Z" fill="white" stroke="#263238" stroke-width="0.3" stroke-linecap="round" stroke-linejoin="round"/>
<path d="M115.24 46.8173C115.24 46.8173 114.925 46.5869 114.81 46.9325C114.695 47.2781 114.637 47.6506 114.868 47.9098C115.098 48.169 115.413 48.6298 115.413 48.6298L115.24 46.8173Z" fill="white" stroke="#263238" stroke-width="0.3" stroke-linecap="round" stroke-linejoin="round"/>
<path d="M119.57 46.8173C119.57 46.8173 119.885 46.5869 120 46.9325C120.115 47.2781 120.173 47.6506 119.942 47.9098C119.712 48.169 119.397 48.6298 119.397 48.6298L119.57 46.8173Z" fill="white" stroke="#263238" stroke-width="0.3" stroke-linecap="round" stroke-linejoin="round"/>
<path d="M115.567 49.2979C115.567 49.2979 116.719 50.8435 116.961 50.9241C117.239 51.0163 117.75 51.1161 117.982 50.9702C118.214 50.8243 119.445 49.4534 119.48 48.8179C119.514 48.1824 119.735 45.6979 119.376 45.0701C119.017 44.4422 118.26 43.5341 116.264 44.1869C116.264 44.1869 114.359 44.7917 115.567 49.2979Z" fill="white" stroke="#263238" stroke-width="0.3" stroke-linecap="round" stroke-linejoin="round"/>
<path d="M116.895 49.1692C116.952 49.2744 117.038 49.3613 117.142 49.4197C117.246 49.4782 117.365 49.5058 117.484 49.4994C117.761 49.4994 117.924 49.173 117.924 49.173" stroke="#263238" stroke-width="0.3" stroke-linecap="round" stroke-linejoin="round"/>
<path d="M117.146 49.9008C117.146 49.9008 117.338 50.1331 117.843 49.9008" stroke="#263238" stroke-width="0.3" stroke-linecap="round" stroke-linejoin="round"/>
<path d="M115.891 48.1919C115.891 48.1919 116.506 48.4953 116.88 48.1785" stroke="#263238" stroke-width="0.3" stroke-linecap="round" stroke-linejoin="round"/>
<path d="M118.028 48.1919C118.378 48.2812 118.746 48.2766 119.093 48.1785" stroke="#263238" stroke-width="0.3" stroke-linecap="round" stroke-linejoin="round"/>
<path d="M116.938 47.8233C116.78 47.6911 116.593 47.6007 116.391 47.5605C116.19 47.5202 115.982 47.5313 115.786 47.5929" stroke="#263238" stroke-width="0.3" stroke-linecap="round" stroke-linejoin="round"/>
<path d="M117.943 47.8233C118.133 47.6972 118.352 47.6229 118.579 47.6078C118.806 47.5926 119.033 47.6371 119.237 47.7369" stroke="#263238" stroke-width="0.3" stroke-linecap="round" stroke-linejoin="round"/>
<path d="M114.25 46.2835C114.25 46.2835 115.194 47.543 116.769 47.6064C118.343 47.6697 118.988 47.3856 119.382 47.0707C119.775 46.7558 120.547 46.0953 120.547 46.0953C120.324 45.7288 120.174 45.3226 120.106 44.8992C120.011 44.2368 119.914 42.9465 118.468 42.5049C117.022 42.0633 115.382 42.6624 114.879 43.6704C114.376 44.6784 114.595 45.8745 114.25 46.2835Z" fill="white" stroke="#263238" stroke-width="0.3" stroke-linecap="round" stroke-linejoin="round"/>
<path d="M115.885 46.2585C115.885 46.2585 115.843 44.8012 116.014 44.2866C116.185 43.7721 117.128 43.3439 117.128 43.3439V42.7871" fill="white"/>
<path d="M115.885 46.2585C115.885 46.2585 115.843 44.8012 116.014 44.2866C116.185 43.7721 117.128 43.3439 117.128 43.3439V42.7871" stroke="#263238" stroke-width="0.3" stroke-linecap="round" stroke-linejoin="round"/>
<path d="M118.671 46.2585C118.671 46.2585 118.884 44.7589 118.456 44.0716C118.028 43.3842 117.729 43.3861 117.729 43.3861V42.7871" fill="white"/>
<path d="M118.671 46.2585C118.671 46.2585 118.884 44.7589 118.456 44.0716C118.028 43.3842 117.729 43.3861 117.729 43.3861V42.7871" stroke="#263238" stroke-width="0.3" stroke-linecap="round" stroke-linejoin="round"/>
<path d="M46.4853 31.7318H42.5474V88.3065H46.4853V31.7318Z" fill="#263238" stroke="#263238" stroke-width="0.5" stroke-linecap="round" stroke-linejoin="round"/>
<path d="M48.3955 43.657H45.9264C45.3418 43.657 44.7812 43.8892 44.3678 44.3026C43.9545 44.7159 43.7223 45.2766 43.7223 45.8611V47.5354C43.72 47.7022 43.7613 47.8667 43.842 48.0127C43.9227 48.1587 44.0401 48.2811 44.1825 48.368C44.325 48.4548 44.4876 48.503 44.6543 48.5078C44.8211 48.5127 44.9862 48.474 45.1335 48.3955L49.3575 46.2144V43.9219L48.3955 43.657Z" fill="#424242" stroke="#263238" stroke-width="0.5" stroke-linecap="round" stroke-linejoin="round"/>
<path d="M48.3955 74.88H45.9264C45.3418 74.88 44.7812 75.1122 44.3678 75.5256C43.9545 75.939 43.7223 76.4996 43.7223 77.0842V78.7584C43.72 78.9252 43.7613 79.0897 43.842 79.2357C43.9227 79.3817 44.0401 79.5042 44.1825 79.591C44.325 79.6778 44.4876 79.726 44.6543 79.7308C44.8211 79.7357 44.9862 79.697 45.1335 79.6186L49.3575 77.4374V75.1354L48.3955 74.88Z" fill="#424242" stroke="#263238" stroke-width="0.5" stroke-linecap="round" stroke-linejoin="round"/>
<path d="M42.8392 30.2534H41.0767V42.7737H42.8392V30.2534Z" fill="#424242" stroke="#263238" stroke-linecap="round" stroke-linejoin="round"/>
<path d="M74.0718 66.7008H60.459V72.9389H74.0718V66.7008Z" fill="#263238" stroke="#263238" stroke-width="0.3" stroke-linecap="round" stroke-linejoin="round"/>
<path d="M49.1118 77.5681L54.9851 47.2109C55.3179 45.4887 56.2214 43.9288 57.5497 42.783C58.878 41.6373 60.5536 40.9725 62.3061 40.8961L75.6808 40.3201C76.3345 40.2921 76.9737 40.5184 77.4641 40.9516C77.9546 41.3848 78.2582 41.9911 78.3112 42.6433L80.6152 71.3665" stroke="#263238" stroke-width="2.5" stroke-miterlimit="10"/>
<path d="M59.6159 78.2785L45.5615 76.2202V82.9345L60.5106 79.2634L59.6159 78.2785Z" fill="#263238" stroke="#263238" stroke-width="0.5" stroke-miterlimit="10"/>
<path d="M58.6044 63.0355L56.6403 61.9027L55.6169 62.4L53.9523 61.152L53.2956 62.2253L53.9523 62.9414L53.2956 63.2409L53.6528 64.0089C53.6528 64.0089 52.1609 65.0227 51.8038 67.7683L50.2524 67.7088V73.152L52.2243 72.2515L52.9404 72.1325C52.9404 72.1325 56.7612 68.1945 57.656 66.2841C58.5507 64.3737 58.6044 63.0355 58.6044 63.0355Z" fill="#263238" stroke="#263238" stroke-width="0.5" stroke-miterlimit="10"/>
<path d="M62.6844 57.9494L62.1084 58.2029L57.9689 57.8189C57.9689 57.8189 56.886 57.1833 56.2505 57.4349C55.8637 57.5915 55.5157 57.8306 55.231 58.1357C55.231 58.1357 55.231 59.3453 55.5497 59.4086C55.8684 59.472 56.4406 59.2819 56.4406 59.2819L56.7593 58.9632C56.7593 58.9632 60.8335 60.0461 61.4076 60.1728C61.9817 60.2995 63.6348 59.5968 63.6348 59.5968L62.6844 57.9494Z" fill="white" stroke="#263238" stroke-width="0.3" stroke-linecap="round" stroke-linejoin="round"/>
<path d="M56.2563 57.4388C55.8695 57.5954 55.5216 57.8346 55.2368 58.1396C55.2368 58.1396 55.2368 59.3492 55.5555 59.4125C55.8743 59.4759 56.4464 59.2858 56.4464 59.2858L56.7651 58.9671L57.9613 59.2839C58.1055 59.1289 58.1916 58.9288 58.2051 58.7175C58.1825 58.4171 58.1317 58.1195 58.0535 57.8285H57.9747C57.9747 57.8285 56.8899 57.1853 56.2563 57.4388Z" fill="#56AA7A" stroke="#263238" stroke-width="0.3" stroke-linecap="round" stroke-linejoin="round"/>
<path d="M56.7958 57.8113L56.4214 57.8746C56.4214 57.8746 55.8589 58.5006 55.8589 58.7175C55.8589 58.9345 56.2026 59.0612 56.3274 58.9998C56.4656 58.9086 56.5942 58.8038 56.7114 58.6868C56.8659 58.7962 57.0521 58.8515 57.2413 58.8442C57.4592 58.8402 57.6733 58.7863 57.8672 58.6868" stroke="#263238" stroke-width="0.3" stroke-miterlimit="10"/>
<path d="M65.7408 54.8295L62.2388 57.6307L63.6385 59.6045L65.7408 58.0762V54.8295Z" fill="white" stroke="#263238" stroke-width="0.3" stroke-linecap="round" stroke-linejoin="round"/>
<path d="M62.2388 57.6307L63.4484 60.1767L64.2125 59.4125L63.1296 56.8666L62.2388 57.6307Z" fill="white" stroke="#263238" stroke-width="0.3" stroke-linecap="round" stroke-linejoin="round"/>
<path d="M65.8043 52.8001L64.9135 56.8743C64.9135 56.8743 65.2975 60.2477 65.2975 60.8852C65.2975 61.5226 64.9787 62.9223 64.9787 62.9223L64.8501 63.3677C64.8501 63.3677 64.8501 65.7869 65.8696 66.0423C66.8891 66.2977 67.9067 66.5511 69.1797 66.5511C70.4527 66.5511 71.4722 65.9751 71.981 65.0881C72.4898 64.201 72.4917 62.2849 72.4917 61.586C72.4917 60.8871 71.4088 55.4093 71.2168 54.0097C71.0248 52.61 69.1797 51.5252 68.7976 51.3985C68.4155 51.2717 65.8043 52.8001 65.8043 52.8001Z" fill="white" stroke="#263238" stroke-width="0.3" stroke-linecap="round" stroke-linejoin="round"/>
<path d="M64.1436 46.9037L63.7903 47.6851C63.7903 47.6851 62.8438 48.3782 63.0626 48.5606C63.1877 48.6626 63.3057 48.773 63.4159 48.8909C63.4159 48.8909 63.0569 50.4518 63.1874 50.5901C63.3284 50.7184 63.5048 50.8011 63.6935 50.8275C63.8823 50.8539 64.0746 50.8227 64.2454 50.7379C64.3593 50.699 64.4813 50.6897 64.5999 50.7108C64.7184 50.732 64.8297 50.7829 64.9231 50.8589L65.8543 52.6253L68.719 50.8973L68.335 49.4362L69.0454 48.361L64.1436 46.9037Z" fill="white" stroke="#263238" stroke-width="0.3" stroke-linecap="round" stroke-linejoin="round"/>
<path d="M68.3312 49.4343L69.0416 48.3591L65.1114 47.2321C65.0154 47.4029 64.8464 47.7466 64.9904 47.8388C65.1382 47.9454 65.2678 48.075 65.3744 48.2228C65.3744 48.2228 65.3264 48.5895 65.5856 48.5473C65.8448 48.505 66.2422 47.9809 66.6531 48.2861C67.064 48.5914 67.0774 48.9351 66.7779 49.2058C66.5984 49.3679 66.41 49.5199 66.2134 49.6609C66.2134 49.6609 67.8109 50.8705 68.3254 50.7821L68.625 50.7303L68.3312 49.4343Z" fill="#263238" stroke="#263238" stroke-width="0.3" stroke-linecap="round" stroke-linejoin="round"/>
<path d="M63.7075 46.6119L62.6592 46.7674C62.6592 46.7674 65.1072 47.7274 65.8137 47.7178C66.5203 47.7082 69.2697 49.1405 69.2697 49.1405C69.2697 49.1405 70.4371 47.4125 69.5597 45.8765C68.6822 44.3405 67.1577 43.9373 66.0153 44.3405C64.8729 44.7437 64.2797 45.145 63.7075 46.6119Z" fill="white" stroke="#263238" stroke-width="0.3" stroke-linecap="round" stroke-linejoin="round"/>
<path d="M68.6057 50.2445L65.167 52.345L65.2956 53.4279L69.1145 51.2007L68.6057 50.2445Z" fill="white" stroke="#263238" stroke-width="0.3" stroke-linecap="round" stroke-linejoin="round"/>
<path d="M54.6033 73.8624C54.6033 73.8624 52.5738 74.9971 52.2148 75.1162C51.8557 75.2352 49.5268 75.8323 49.5901 76.2509C49.6535 76.6695 49.8282 76.7866 50.7825 77.0189C51.7367 77.2512 55.7361 77.6755 56.2737 77.616C56.8113 77.5565 56.2141 74.3328 56.2141 74.3328L54.6033 73.8624Z" fill="#263238" stroke="#263238" stroke-width="0.3" stroke-linecap="round" stroke-linejoin="round"/>
<path d="M50.7822 77.0266C51.7422 77.2647 55.7358 77.6832 56.2734 77.6237C56.4654 77.6026 56.5115 77.1764 56.4923 76.6407C53.2783 77.0976 50.8456 76.4986 49.6667 76.0916C49.6421 76.11 49.6222 76.1341 49.6089 76.1619C49.5955 76.1896 49.589 76.2201 49.5899 76.2509C49.6494 76.6676 49.828 76.7866 50.7822 77.0266Z" fill="white" stroke="#263238" stroke-width="0.3" stroke-linecap="round" stroke-linejoin="round"/>
<path d="M69.819 64.4948C69.819 64.4948 67.2538 63.36 67.0081 63.1815C66.7623 63.0029 59.3684 63.5981 58.7118 64.0762C58.0551 64.5543 53.042 73.3268 53.042 73.3268L56.2657 75.4157L61.2865 67.776C61.2865 67.776 63.195 67.7165 63.673 67.538C64.1511 67.3594 66.9562 66.8813 66.9562 66.8813C66.9562 66.8813 69.9994 67.298 70.8346 66.9408C71.6698 66.5837 70.7156 65.09 70.7156 65.09" fill="#56AA7A"/>
<path d="M69.819 64.4948C69.819 64.4948 67.2538 63.36 67.0081 63.1815C66.7623 63.0029 59.3684 63.5981 58.7118 64.0762C58.0551 64.5543 53.042 73.3268 53.042 73.3268L56.2657 75.4157L61.2865 67.776C61.2865 67.776 63.195 67.7165 63.673 67.538C64.1511 67.3594 66.9562 66.8813 66.9562 66.8813C66.9562 66.8813 69.9994 67.298 70.8346 66.9408C71.6698 66.5837 70.7156 65.09 70.7156 65.09" stroke="#263238" stroke-width="0.3" stroke-linecap="round" stroke-linejoin="round"/>
<path d="M61.1676 67.5975L59.6162 65.7466L61.3461 67.0003" stroke="#263238" stroke-width="0.3" stroke-miterlimit="10"/>
<path d="M62.6807 68.5556H74.1834V65.1764C74.1834 65.1764 73.6919 64.5773 72.657 64.9575C71.6221 65.3377 70.8579 66.7028 70.8579 66.7028C70.8579 66.7028 63.2797 65.3953 62.6807 68.5556Z" fill="#263238" stroke="#263238" stroke-width="0.3" stroke-linecap="round" stroke-linejoin="round"/>
<path d="M74.0737 66.4839H75.6001L78.2171 59.1245L77.0171 58.7981L74.0737 66.4839Z" fill="#263238" stroke="#263238" stroke-width="0.3" stroke-linecap="round" stroke-linejoin="round"/>
<path d="M77.0171 58.7981L74.8916 64.5773L73.0638 63.8285C72.8652 63.7475 72.6856 63.6261 72.5363 63.4721C72.387 63.318 72.2714 63.1347 72.1967 62.9336C72.1219 62.7325 72.0898 62.5182 72.1022 62.304C72.1146 62.0899 72.1714 61.8807 72.2689 61.6896C72.914 60.4282 73.9451 58.7251 75.1086 57.9802C77.0708 56.7264 77.1841 57.9264 77.0171 58.7981Z" fill="#263238" stroke="#263238" stroke-width="0.3" stroke-linecap="round" stroke-linejoin="round"/>
<path d="M59.0787 71.3876L58.7196 78.9965L52.1475 80.1485C53.3739 80.9615 54.2743 82.1811 54.6901 83.5926C55.1059 85.004 55.0105 86.5169 54.4207 87.865H81.7404C82.0689 87.865 82.3839 87.7345 82.6161 87.5023C82.8483 87.27 82.9788 86.955 82.9788 86.6266V70.1664C82.9793 69.886 82.8744 69.6156 82.6848 69.409C82.4952 69.2023 82.2349 69.0745 81.9555 69.0509C78.3209 68.736 65.9043 67.968 59.0787 71.3876Z" fill="#56AA7A" stroke="#263238" stroke-width="0.3" stroke-linecap="round" stroke-linejoin="round"/>
<path d="M52.2224 89.2685C54.3856 87.3193 54.5592 83.9856 52.61 81.8224C50.6609 79.6592 47.3272 79.4856 45.1639 81.4348C43.0007 83.3839 42.8272 86.7176 44.7763 88.8809C46.7255 91.0441 50.0592 91.2176 52.2224 89.2685Z" fill="#263238" stroke="#263238" stroke-linecap="round" stroke-linejoin="round"/>
<path d="M50.3381 87.1812C51.3441 86.2715 51.4222 84.7187 50.5126 83.7127C49.603 82.7067 48.0501 82.6286 47.0441 83.5382C46.0382 84.4478 45.96 86.0007 46.8696 87.0067C47.7793 88.0126 49.3321 88.0908 50.3381 87.1812Z" fill="white" stroke="#263238" stroke-linecap="round" stroke-linejoin="round"/>
<path d="M81.9994 89.8059C83.0903 88.715 83.0903 86.9462 81.9994 85.8552C80.9084 84.7642 79.1396 84.7642 78.0486 85.8552C76.9576 86.9462 76.9576 88.715 78.0486 89.8059C79.1396 90.8969 80.9084 90.8969 81.9994 89.8059Z" fill="#263238" stroke="#263238" stroke-linecap="round" stroke-linejoin="round"/>
<path d="M81.3237 87.8304C81.3237 87.5729 81.2473 87.3211 81.1042 87.107C80.9611 86.8929 80.7577 86.7261 80.5197 86.6276C80.2817 86.5291 80.0199 86.5035 79.7673 86.5538C79.5147 86.6042 79.2828 86.7284 79.1008 86.9106C78.9188 87.0929 78.795 87.325 78.745 87.5777C78.695 87.8303 78.721 88.0921 78.8199 88.3299C78.9187 88.5678 79.0858 88.7709 79.3002 88.9138C79.5145 89.0566 79.7664 89.1326 80.0239 89.1322C80.1948 89.1322 80.3639 89.0985 80.5218 89.0331C80.6796 88.9676 80.823 88.8717 80.9437 88.7508C81.0644 88.6299 81.1601 88.4864 81.2253 88.3285C81.2906 88.1705 81.324 88.0013 81.3237 87.8304Z" fill="white" stroke="#263238" stroke-linecap="round" stroke-linejoin="round"/>
<path d="M45.1488 80.6285C46.1511 79.8757 47.3669 79.4614 48.6202 79.4454C49.8736 79.4294 51.0996 79.8126 52.1207 80.5395C53.1419 81.2665 53.9053 82.2995 54.3004 83.489C54.6956 84.6786 54.702 85.963 54.3187 87.1565H54.7027C55.0822 85.8931 55.0532 84.542 54.6198 83.296C54.1865 82.05 53.3708 80.9726 52.2891 80.2174C51.2075 79.4622 49.915 79.0677 48.596 79.0901C47.277 79.1126 45.9987 79.5508 44.9434 80.3424L45.1488 80.6285Z" fill="#56AA7A" stroke="#263238" stroke-linecap="round" stroke-linejoin="round"/>
<path d="M58.7197 78.9965C58.7197 78.9965 73.1581 76.8576 74.2506 76.6925C75.3431 76.5274 78.5629 75.3696 79.7706 68.9299" stroke="#263238" stroke-width="0.3" stroke-linecap="round" stroke-linejoin="round"/>
<path d="M25.5994 26.1812H11.8022V40.944H25.5994V26.1812Z" fill="#56AA7A" stroke="#263238" stroke-width="0.5" stroke-linecap="round" stroke-linejoin="round"/>
<path opacity="0.4" d="M25.5994 26.1812H11.8022V40.944H25.5994V26.1812Z" fill="white" stroke="#263238" stroke-width="0.3" stroke-linecap="round" stroke-linejoin="round"/>
<path d="M14.141 26.1812H12.8872V31.5514H14.141V26.1812Z" fill="#263238"/>
<path d="M39.385 26.1812H25.5879V40.944H39.385V26.1812Z" fill="#56AA7A" stroke="#263238" stroke-width="0.5" stroke-linecap="round" stroke-linejoin="round"/>
<path opacity="0.4" d="M39.385 26.1812H25.5879V40.944H39.385V26.1812Z" fill="white" stroke="#263238" stroke-width="0.3" stroke-linecap="round" stroke-linejoin="round"/>
<path d="M27.9266 26.1812H26.6729V31.5514H27.9266V26.1812Z" fill="#263238"/>
<path d="M25.5994 11.3223H11.8022V26.0851H25.5994V11.3223Z" fill="#56AA7A" stroke="#263238" stroke-width="0.5" stroke-linecap="round" stroke-linejoin="round"/>
<path opacity="0.4" d="M25.5994 11.3223H11.8022V26.0851H25.5994V11.3223Z" fill="white" stroke="#263238" stroke-width="0.3" stroke-linecap="round" stroke-linejoin="round"/>
<path d="M14.141 11.3223H12.8872V16.6925H14.141V11.3223Z" fill="#263238"/>
<path d="M39.385 11.3223H25.5879V26.0851H39.385V11.3223Z" fill="#56AA7A" stroke="#263238" stroke-width="0.5" stroke-linecap="round" stroke-linejoin="round"/>
<path opacity="0.4" d="M39.385 11.3223H25.5879V26.0851H39.385V11.3223Z" fill="white" stroke="#263238" stroke-width="0.3" stroke-linecap="round" stroke-linejoin="round"/>
<path d="M27.9266 11.3223H26.6729V16.6925H27.9266V11.3223Z" fill="#263238"/>
<path d="M40.8117 42.7758H11.2725V43.4804H40.8117V42.7758Z" fill="white" stroke="#263238" stroke-linecap="round" stroke-linejoin="round"/>
<path d="M40.8117 40.2183H11.2725V40.9229H40.8117V40.2183Z" fill="white" stroke="#263238" stroke-linecap="round" stroke-linejoin="round"/>
<path d="M14.0947 40.944H11.8022V42.7334H14.0947V40.944Z" fill="white" stroke="#263238" stroke-linecap="round" stroke-linejoin="round"/>
<path d="M26.811 40.944H24.5186V42.7334H26.811V40.944Z" fill="white" stroke="#263238" stroke-linecap="round" stroke-linejoin="round"/>
<path d="M39.5254 40.944H37.2329V42.7334H39.5254V40.944Z" fill="white" stroke="#263238" stroke-linecap="round" stroke-linejoin="round"/>
<path d="M64.4029 59.7946C64.4029 59.7946 61.0294 60.9466 60.5206 61.1386C60.386 61.177 60.2603 61.2417 60.1509 61.3291C60.0415 61.4164 59.9505 61.5246 59.8832 61.6474C59.8832 61.6474 59.4378 62.7302 59.8198 62.9203C60.2019 63.1104 61.1638 62.9837 61.1638 62.9837C61.1638 62.9837 61.7398 63.1123 61.8646 62.857C61.9649 62.569 62.0293 62.2698 62.0566 61.9661C62.0566 61.9661 64.9866 61.7741 65.6221 61.7107C66.0457 61.6508 66.4445 61.4747 66.7741 61.2019L64.4029 59.7946Z" fill="white" stroke="#263238" stroke-width="0.3" stroke-linecap="round" stroke-linejoin="round"/>
<path d="M61.8569 62.8512C61.958 62.5647 62.0225 62.2667 62.0489 61.9641C61.6777 61.9299 61.3272 61.7779 61.0486 61.5302C60.8182 61.3267 60.8047 61.1462 60.8566 61.0099C60.703 61.0636 60.582 61.1059 60.5148 61.1328C60.3802 61.1712 60.2545 61.2359 60.1451 61.3233C60.0356 61.4106 59.9446 61.5188 59.8773 61.6416C59.8773 61.6416 59.4319 62.7244 59.814 62.9145C60.1961 63.1046 61.158 62.9779 61.158 62.9779C61.158 62.9779 61.7302 63.1065 61.8569 62.8512Z" fill="#56AA7A" stroke="#263238" stroke-width="0.5" stroke-linecap="round" stroke-linejoin="round"/>
<path d="M67.2002 52.9921C67.2002 52.9921 66.5013 53.8196 66.3093 54.5281C66.1173 55.2365 65.6085 57.7748 65.6085 57.7748L65.0997 58.7348L64.3989 59.8157C64.4809 60.1212 64.642 60.3996 64.8658 60.6231C65.0896 60.8466 65.3682 61.0071 65.6738 61.0887C66.7548 61.4074 67.0178 61.5361 67.2655 61.2807C67.5132 61.0253 68.6095 59.1149 68.8572 58.2241C69.1048 57.3332 70.1301 54.8506 70.1301 54.8506" fill="white"/>
<path d="M67.2002 52.9921C67.2002 52.9921 66.5013 53.8196 66.3093 54.5281C66.1173 55.2365 65.6085 57.7748 65.6085 57.7748L65.0997 58.7348L64.3989 59.8157C64.4809 60.1212 64.642 60.3996 64.8658 60.6231C65.0896 60.8466 65.3682 61.0071 65.6738 61.0887C66.7548 61.4074 67.0178 61.5361 67.2655 61.2807C67.5132 61.0253 68.6095 59.1149 68.8572 58.2241C69.1048 57.3332 70.1301 54.8506 70.1301 54.8506" stroke="#263238" stroke-width="0.3" stroke-linecap="round" stroke-linejoin="round"/>
<path d="M65.1036 58.7136L63.6387 59.6045C63.7757 60.0626 63.9914 60.4933 64.2761 60.8775C64.7215 61.4535 65.4281 61.705 65.6201 61.705H66.5129L67.5305 61.129C67.5305 61.129 66.1308 60.937 65.6854 59.977C65.2399 59.017 65.1036 58.7136 65.1036 58.7136Z" fill="white" stroke="#263238" stroke-width="0.3" stroke-linecap="round" stroke-linejoin="round"/>
<path d="M56.1543 60.0768L56.8705 61.9872L58.7789 62.8819L59.4356 61.7491L56.1543 60.0768Z" fill="#263238" stroke="#263238" stroke-width="0.5" stroke-miterlimit="10"/>
<path d="M61.4748 63.145C61.4167 63.1449 61.3594 63.1311 61.3077 63.1047L54.8124 59.666C54.7333 59.6188 54.6753 59.543 54.6505 59.4543C54.6257 59.3656 54.6359 59.2707 54.679 59.1894C54.7222 59.108 54.795 59.0463 54.8823 59.0171C54.9697 58.9879 55.0649 58.9933 55.1484 59.0323L61.6418 62.4711C61.7129 62.5081 61.7695 62.5679 61.8025 62.6409C61.8354 62.714 61.8429 62.796 61.8236 62.8738C61.8043 62.9516 61.7594 63.0206 61.6962 63.0698C61.6329 63.119 61.5549 63.1455 61.4748 63.145Z" fill="#263238"/>
<path d="M10.9443 90.624H138.404" stroke="#263238" stroke-linecap="round" stroke-linejoin="round"/>
<path d="M4.22412 90.624H9.60012" stroke="#263238" stroke-linecap="round" stroke-linejoin="round"/>
<defs>
<linearGradient id="paint0_linear_257_8585" x1="55" y1="11" x2="63" y2="23" gradientUnits="userSpaceOnUse">
<stop stop-color="white"/>
<stop offset="1" stop-color="#D7D7D7"/>
</linearGradient>
</defs>
</svg>
