<svg width="153" height="130" viewBox="0 0 153 130" fill="none" xmlns="http://www.w3.org/2000/svg">
<path d="M91.8484 10.0543V1.56409C85.3413 3.18201 79.3684 6.03301 73.5093 10.0464L91.8484 10.0543Z" fill="#92E3A9"/>
<path d="M139.314 13.1134H94.4048V68.8533H139.314V13.1134Z" fill="#92E3A9"/>
<path d="M91.8484 13.1134H69.3035C64.2651 16.8833 59.0933 20.7004 53.0575 22.8759C51.039 23.6063 48.997 24.2465 46.9392 24.8394V68.8533H91.8484V13.1134Z" fill="#92E3A9"/>
<path d="M148.197 22.0316C146.497 18.9778 144.366 16.1845 141.87 13.7378V68.8533H146.489C153.589 54.6493 155.913 36.0314 148.197 22.0316Z" fill="#92E3A9"/>
<path d="M44.3865 25.5581C41.94 26.2296 39.4738 26.8619 37.0077 27.5216C17.6829 32.6856 5.7016 50.0508 7.92036 68.8533H44.3865V25.5581Z" fill="#92E3A9"/>
<path d="M141.87 71.9124V76.503C142.438 75.7438 142.982 74.9584 143.5 74.1468C143.963 73.4203 144.411 72.6703 144.851 71.9084L141.87 71.9124Z" fill="#92E3A9"/>
<path d="M139.314 71.9124H94.4048V95.4194C98.1394 95.4665 101.843 95.7649 105.62 95.3526C118.022 94.0017 130.73 88.928 139.314 79.5739V71.9124Z" fill="#92E3A9"/>
<path d="M94.4048 10.0543H137.578C128.817 3.5276 117.456 0.283901 106.704 0.0247187C102.581 -0.0969703 98.4569 0.230904 94.4048 1.00254V10.0543Z" fill="#92E3A9"/>
<path d="M91.8484 71.9124H46.9392V105.37C54.7265 105.504 62.549 103.266 69.9318 100.76C75.7987 98.773 81.7128 96.7153 87.9096 95.7885C89.2108 95.599 90.5221 95.4863 91.8366 95.4508L91.8484 71.9124Z" fill="#92E3A9"/>
<path d="M44.3869 71.9124H8.40771C11.243 85.6569 22.1836 98.1879 35.9438 103.348C38.6582 104.362 41.4992 104.998 44.3869 105.237V71.9124Z" fill="#92E3A9"/>
<g opacity="0.7">
<path d="M91.8479 10.0543V1.56409C85.3408 3.18201 79.3679 6.03301 73.5088 10.0464L91.8479 10.0543Z" fill="white"/>
<path d="M139.314 13.1134H94.4045V68.8533H139.314V13.1134Z" fill="white"/>
<path d="M91.8481 13.1134H69.3032C64.2649 16.8833 59.093 20.7004 53.0572 22.8759C51.0388 23.6063 48.9967 24.2465 46.939 24.8394V68.8533H91.8481V13.1134Z" fill="white"/>
<path d="M148.197 22.0316C146.497 18.9778 144.366 16.1845 141.87 13.7378V68.8533H146.488C153.588 54.6493 155.913 36.0314 148.197 22.0316Z" fill="white"/>
<path d="M44.3865 25.5581C41.94 26.2296 39.4738 26.8619 37.0077 27.5216C17.6829 32.6856 5.7016 50.0508 7.92036 68.8533H44.3865V25.5581Z" fill="white"/>
<path d="M141.87 71.9124V76.503C142.438 75.7438 142.981 74.9584 143.5 74.1468C143.963 73.4203 144.411 72.6703 144.851 71.9084L141.87 71.9124Z" fill="white"/>
<path d="M139.314 71.9124H94.4045V95.4194C98.1391 95.4665 101.842 95.7649 105.62 95.3526C118.022 94.0017 130.729 88.928 139.314 79.5739V71.9124Z" fill="white"/>
<path d="M94.4045 10.0543H137.578C128.817 3.5276 117.456 0.283901 106.704 0.0247187C102.581 -0.0969703 98.4567 0.230904 94.4045 1.00254V10.0543Z" fill="white"/>
<path d="M91.8481 71.9124H46.939V105.37C54.7262 105.504 62.5488 103.266 69.9316 100.76C75.7985 98.773 81.7126 96.7153 87.9094 95.7885C89.2106 95.599 90.5219 95.4863 91.8364 95.4508L91.8481 71.9124Z" fill="white"/>
<path d="M44.3867 71.9124H8.40747C11.2428 85.6569 22.1834 98.1879 35.9436 103.348C38.658 104.362 41.499 104.998 44.3867 105.237V71.9124Z" fill="white"/>
</g>
<path d="M148.126 81.29H146.461H71.2708H69.6057V84.6201H71.2708V118.471H146.461V84.6201H148.126V81.29Z" fill="#92E3A9"/>
<path opacity="0.5" d="M148.126 81.29H146.461H71.2708H69.6057V84.6201H71.2708V118.471H146.461V84.6201H148.126V81.29Z" fill="white"/>
<path d="M73.2815 98.9773H93.7922V88.021H73.2815V98.9773ZM73.6978 88.4373H93.376V98.5611H73.6978V88.4373Z" fill="white"/>
<path d="M98.7522 98.9773H119.259V88.021H98.7522V98.9773ZM99.1685 88.4373H118.843V98.5611H99.1685V88.4373Z" fill="white"/>
<path d="M124.219 88.021V98.9773H144.726V88.021H124.219ZM144.309 98.5611H124.635V88.4373H144.309V98.5611Z" fill="white"/>
<path d="M73.2815 113.684H93.7922V102.724H73.2815V113.684ZM73.6978 103.14H93.376V113.268H73.6978V103.14Z" fill="white"/>
<path d="M98.7522 113.684H119.259V102.724H98.7522V113.684ZM99.1685 103.14H118.843V113.268H99.1685V103.14Z" fill="white"/>
<path d="M124.219 113.684H144.726V102.724H124.219V113.684ZM124.635 103.14H144.309V113.268H124.635V103.14Z" fill="white"/>
<path d="M83.7547 94.8853C85.5938 94.8853 87.0848 94.3262 87.0848 93.6365C87.0848 92.9469 85.5938 92.3878 83.7547 92.3878C81.9155 92.3878 80.4246 92.9469 80.4246 93.6365C80.4246 94.3262 81.9155 94.8853 83.7547 94.8853Z" fill="white"/>
<path d="M109.1 94.8853C110.939 94.8853 112.43 94.3262 112.43 93.6365C112.43 92.9469 110.939 92.3878 109.1 92.3878C107.261 92.3878 105.77 92.9469 105.77 93.6365C105.77 94.3262 107.261 94.8853 109.1 94.8853Z" fill="white"/>
<path d="M135.183 94.8853C137.022 94.8853 138.513 94.3262 138.513 93.6365C138.513 92.9469 137.022 92.3878 135.183 92.3878C133.344 92.3878 131.853 92.9469 131.853 93.6365C131.853 94.3262 133.344 94.8853 135.183 94.8853Z" fill="white"/>
<path d="M83.7549 107.094C81.917 107.094 80.4287 107.652 80.4287 108.343C80.4287 109.034 81.917 109.592 83.7549 109.592C85.5927 109.592 87.085 109.034 87.085 108.343C87.085 107.652 85.5966 107.094 83.7549 107.094Z" fill="white"/>
<path d="M109.1 107.094C107.262 107.094 105.774 107.652 105.774 108.343C105.774 109.034 107.262 109.592 109.1 109.592C110.938 109.592 112.43 109.034 112.43 108.343C112.43 107.652 110.942 107.094 109.1 107.094Z" fill="white"/>
<path d="M135.183 107.094C133.345 107.094 131.853 107.652 131.853 108.343C131.853 109.034 133.345 109.592 135.183 109.592C137.021 109.592 138.513 109.034 138.513 108.343C138.513 107.652 137.021 107.094 135.183 107.094Z" fill="white"/>
<path d="M40.9937 78.3841C39.4779 80.6303 37.3652 83.556 36.2381 85.9043C36.6661 84.3571 37.0863 82.8962 37.4673 81.5846C38.0445 80.4536 39.5918 77.5869 41.3943 75.6941C43.6601 73.2672 44.6301 71.7121 43.4088 71.5747C42.5645 71.4804 40.0905 74.7752 38.5393 78.0503C38.8771 76.9311 39.1441 76.0868 39.3051 75.5763C39.3797 75.3525 39.4504 75.1011 39.5211 74.838C41.1268 72.5954 42.5879 70.2528 43.8958 67.8244C46.1852 63.544 46.9235 59.507 45.3959 61.2467C43.99 62.845 41.5435 70.7893 39.6035 74.5317C39.7646 73.8877 39.9216 73.173 40.0591 72.47C40.334 71.7907 40.6953 71.0995 40.8995 70.4712C41.2175 69.5091 41.4964 68.5313 41.7202 67.5417C42.0891 65.998 42.2762 64.4164 42.2778 62.8292C42.3168 60.965 41.8089 59.1302 40.817 57.5514C40.5539 57.1587 38.9477 54.7553 38.4608 55.9806C38.398 56.1853 38.3859 56.4023 38.4254 56.6128C38.6611 58.6588 39.4033 60.5398 39.8627 62.5308C40.55 65.5114 40.0944 70.5183 39.8627 72.6468C39.7763 72.9806 39.6664 73.4007 39.5368 73.8838C39.8549 70.1727 38.2487 65.7784 36.7604 65.0127C34.9186 64.0623 36.7251 67.793 38.1466 71.0485C38.8215 72.4744 39.1383 74.0434 39.0695 75.6195C38.7789 76.6916 38.4451 77.8932 38.0995 79.1106C38.0327 79.2795 37.966 79.4444 37.9032 79.6093C38.0622 78.8147 38.1281 78.0042 38.0995 77.1942C37.9621 75.0658 35.5509 70.805 33.9487 71.4058C32.3464 72.0067 35.06 74.2568 36.5091 76.8722C37.2497 78.3065 37.5321 79.9336 37.318 81.5336C37.318 81.6278 37.2866 81.722 37.2748 81.8163C37.1099 82.37 36.945 82.908 36.784 83.4146C36.3913 84.5927 36.0575 85.7237 35.7237 86.8154C36.1338 85.2328 36.3137 83.5994 36.2577 81.9655C36.0575 78.8436 34.2314 75.8983 32.7234 75.4978C31.2155 75.0972 34.094 80.1827 35.06 83.0415C35.5853 84.7113 35.6745 86.4876 35.3192 88.2016C34.8519 89.7488 34.4121 91.2725 33.9604 92.8904C34.0881 90.7763 34.0434 88.6553 33.8269 86.5483C33.5324 83.0769 31.4707 80.8581 30.0452 80.9484C28.6197 81.0388 30.1081 83.0101 32.158 87.2316C33.24 89.4483 33.722 91.9099 33.556 94.3709C33.3714 95.0542 33.1633 95.7532 32.9905 96.4836C32.7706 97.3162 32.5978 98.2194 32.4446 99.1462C32.2365 98.3215 31.9302 97.112 31.5728 95.7768C31.1567 94.2994 30.8547 92.7923 30.6696 91.2686C30.4772 89.4975 30.0099 87.2905 28.2742 86.3677C28.1567 86.2849 28.0225 86.2289 27.881 86.2039C27.7394 86.1788 27.5942 86.1853 27.4554 86.2228C27.3167 86.2603 27.1879 86.3279 27.0783 86.4208C26.9687 86.5137 26.8809 86.6297 26.8212 86.7604C26.6582 87.1393 26.621 87.5605 26.7151 87.9621C26.9457 89.1655 27.3422 90.3312 27.8932 91.4257C27.5495 92.0786 27.3932 92.8139 27.4416 93.5502C27.4416 93.829 27.4652 94.1039 27.4848 94.3749C27.3317 94.096 27.1864 93.8368 27.0489 93.5895C26.8004 93.1735 26.4936 92.7953 26.1379 92.4663C26.2266 91.8156 26.2712 91.1596 26.2714 90.5028C26.2714 89.6389 25.2621 87.4476 24.3511 89.0734C23.9898 89.7214 24.0566 91.0016 24.0212 91.8498C23.7738 92.0815 23.6992 92.5606 23.9073 93.3185C23.7008 95.2859 23.8041 97.2736 24.2136 99.209L23.9034 98.6592C23.4572 96.388 23.1945 94.0846 23.118 91.7712C22.9688 87.9581 23.5735 84.8165 22.5368 83.6384C21.5001 82.4603 20.9149 86.6033 21.3587 91.0997C21.5695 93.1614 22.1188 95.1741 22.9845 97.057C21.9635 95.2231 20.9542 93.3538 20 91.5592C19.6073 90.5932 18.6334 87.9935 18.8729 85.3545C19.1753 82.0244 19.3952 79.303 18.1307 77.4298C16.8662 75.5567 16.6031 76.7701 17.2236 80.6735C17.6477 83.3557 18.0993 86.9371 18.8808 89.4229C18.1386 87.9974 17.4435 86.6426 16.823 85.4134C16.4696 84.1921 15.6449 81.0427 15.6449 78.4312C15.6449 75.1129 15.2876 73.3261 14.3058 74.0448C13.6225 74.5553 14.0623 78.6511 15.1619 82.099C14.6475 81.0505 14.2587 80.2455 14.0348 79.7703C13.9327 79.5543 13.8189 79.3266 13.6893 79.0831C13.3383 76.3494 12.8136 73.6409 12.1185 70.9739C10.8736 66.2614 8.65878 62.8293 8.72554 65.1383C8.78837 67.2668 12.4248 74.7438 13.5597 78.8043C13.2377 78.2231 12.8646 77.5948 12.4876 76.9861C12.2245 76.3028 12.0164 75.5527 11.7375 74.9519C11.3095 74.033 10.85 73.1258 10.3356 72.2501C9.55201 70.8666 8.60827 69.5802 7.52387 68.4174C6.27921 67.028 4.65448 66.034 2.85074 65.5585C2.38736 65.4486 -0.424374 64.7731 0.0547199 66.0298C0.146451 66.2201 0.280831 66.3867 0.44742 66.5167C2.01822 67.8519 3.84035 68.7198 5.55252 69.8625C8.08936 71.5708 11.1721 75.541 12.4444 77.261L13.0492 78.392C10.7519 75.4624 6.57747 73.3458 4.9674 73.8013C2.97248 74.3629 6.84058 75.859 10.1 77.2688C11.5671 77.8501 12.8695 78.7817 13.8935 79.9824C14.4118 80.9602 14.9891 82.0676 15.5664 83.1947C15.6331 83.3635 15.696 83.5285 15.7667 83.6895C15.3396 83.0007 14.8335 82.3641 14.2587 81.7927C12.6879 80.3319 8.03439 78.8632 7.27647 80.3947C6.51856 81.9263 10.0254 81.7181 12.8764 82.641C14.4128 83.176 15.7452 84.1749 16.6895 85.4998L16.8505 85.7394C17.1097 86.2577 17.3532 86.7604 17.5849 87.2434C18.1189 88.3665 18.6294 89.4229 19.1321 90.4518C18.3528 89.0086 17.3687 87.6859 16.2104 86.5248C13.9327 84.3806 10.5869 83.4735 9.20071 84.2196C7.81447 84.9658 13.4026 86.7094 16.0572 88.1466C17.5807 89.0079 18.8583 90.2449 19.7683 91.7398C20.483 93.1889 21.2016 94.6065 21.9752 96.0949C20.617 94.4629 19.1291 92.9435 17.5259 91.5513C14.942 89.2187 11.9182 89.0066 10.9404 90.0394C9.96254 91.0722 12.3934 91.5042 16.768 93.181C19.0698 94.0646 21.1005 95.5349 22.6585 97.4458C22.9884 98.0702 23.3261 98.7103 23.6874 99.3739C24.1196 100.171 24.5928 100.946 25.1051 101.695C24.3903 101.231 23.3379 100.556 22.1677 99.8255C20.8554 99.0308 19.6068 98.1354 18.4331 97.1473C17.0822 95.9692 15.2326 94.689 13.328 95.1838C13.1865 95.2051 13.0514 95.2571 12.9321 95.3361C12.8129 95.4151 12.7123 95.5193 12.6375 95.6412C12.5627 95.7632 12.5154 95.9 12.499 96.0421C12.4826 96.1842 12.4975 96.3282 12.5426 96.464C12.6813 96.8524 12.9416 97.1857 13.2848 97.4143C15.0755 98.8045 17.4828 99.4721 19.568 100.289C21.479 101.042 23.4376 101.667 25.431 102.162C25.9258 102.873 26.4442 103.572 26.9586 104.243L26.024 104.271C24.9166 104.302 19.9214 102.04 17.3846 101.31C14.8477 100.58 12.4758 101.962 15.1344 103.391C17.793 104.821 25.0226 104.503 25.0226 104.503L27.1078 104.452C27.5987 105.08 28.0817 105.673 28.5333 106.219H18.6294V108.968H20.5929L22.1637 118.738H35.3545L36.9253 108.975H38.8888V106.227H32.3229C32.2698 105.04 32.3013 103.851 32.4171 102.669C32.8546 102.223 33.3406 101.828 33.8662 101.491C36.7486 99.4996 41.6338 99.3347 42.9336 95.5019C43.2478 94.5751 42.8944 93.3892 41.787 93.4402C41.0016 93.4795 40.1494 94.1746 39.6546 94.7479C38.0053 96.6525 36.7643 98.6278 34.6202 100.069C34.522 100.136 33.1711 101.212 32.4996 101.879C32.5742 101.255 32.6685 100.587 32.7902 99.8687C33.3083 98.9498 33.8993 98.0739 34.5574 97.2494C36.3127 95.0739 38.9831 93.7976 40.8798 91.7202C41.461 91.084 42.2268 88.7985 40.4518 89.364C39.6664 89.6192 38.7318 90.8131 38.1152 91.3628C36.3716 92.9336 34.5809 94.6065 33.4421 96.6721C33.4892 96.4679 33.5403 96.2794 33.5874 96.0556C34.8129 94.0949 36.1916 92.2342 37.7107 90.4911C40.2319 87.6204 42.8158 85.7433 42.859 84.1764C42.9022 82.6096 39.6507 85.2367 36.89 88.8339C35.6377 90.484 34.6664 92.3297 34.0154 94.2963C34.522 92.2582 35.06 90.2044 35.5862 88.233C35.9475 87.2513 37.0196 84.6987 38.9949 82.9276C41.4885 80.701 43.507 78.8632 43.8643 76.6444C44.2217 74.4257 43.2085 75.1051 40.9937 78.3841ZM27.0489 103.643C26.6772 103.135 26.2845 102.58 25.8708 101.978C25.6236 100.952 25.4594 99.9077 25.3799 98.8556C25.3262 97.9545 25.367 97.0503 25.5017 96.1577C26.1709 96.9872 26.8827 97.7816 27.634 98.5375C27.6162 99.3239 27.5201 100.107 27.3474 100.874C27.3356 100.988 27.0843 102.696 27.0489 103.643ZM29.1852 106.227C28.6786 105.689 28.1249 105.048 27.5241 104.263C27.5392 103.64 27.6248 103.021 27.7793 102.417C28.0198 101.466 28.3648 100.544 28.8082 99.6685C29.7389 100.552 30.4222 101.141 30.4222 101.141L31.993 102.516C31.8713 103.89 31.8006 105.174 31.7574 106.219L29.1852 106.227ZM32.0127 102.276L31.3097 101.659C30.917 101.306 30.2102 99.9394 29.4405 98.3686C29.7711 97.7057 30.0622 97.0239 30.3123 96.3266C31.1448 97.8699 31.8831 99.0755 32.319 99.7156C32.2129 100.572 32.0951 101.436 32.0127 102.276Z" fill="#92E3A9"/>
<path opacity="0.5" d="M40.9937 78.3841C39.4779 80.6303 37.3652 83.556 36.2381 85.9043C36.6661 84.3571 37.0863 82.8962 37.4673 81.5846C38.0445 80.4536 39.5918 77.5869 41.3943 75.6941C43.6601 73.2672 44.6301 71.7121 43.4088 71.5747C42.5645 71.4804 40.0905 74.7752 38.5393 78.0503C38.8771 76.9311 39.1441 76.0868 39.3051 75.5763C39.3797 75.3525 39.4504 75.1011 39.5211 74.838C41.1268 72.5954 42.5879 70.2528 43.8958 67.8244C46.1852 63.544 46.9235 59.507 45.3959 61.2467C43.99 62.845 41.5435 70.7893 39.6035 74.5317C39.7646 73.8877 39.9216 73.173 40.0591 72.47C40.334 71.7907 40.6953 71.0995 40.8995 70.4712C41.2175 69.5091 41.4964 68.5313 41.7202 67.5417C42.0891 65.998 42.2762 64.4164 42.2778 62.8292C42.3168 60.965 41.8089 59.1302 40.817 57.5514C40.5539 57.1587 38.9477 54.7553 38.4608 55.9806C38.398 56.1853 38.3859 56.4023 38.4254 56.6128C38.6611 58.6588 39.4033 60.5398 39.8627 62.5308C40.55 65.5114 40.0944 70.5183 39.8627 72.6468C39.7763 72.9806 39.6664 73.4007 39.5368 73.8838C39.8549 70.1727 38.2487 65.7784 36.7604 65.0127C34.9186 64.0623 36.7251 67.793 38.1466 71.0485C38.8215 72.4744 39.1383 74.0434 39.0695 75.6195C38.7789 76.6916 38.4451 77.8932 38.0995 79.1106C38.0327 79.2795 37.966 79.4444 37.9032 79.6093C38.0622 78.8147 38.1281 78.0042 38.0995 77.1942C37.9621 75.0658 35.5509 70.805 33.9487 71.4058C32.3464 72.0067 35.06 74.2568 36.5091 76.8722C37.2497 78.3065 37.5321 79.9336 37.318 81.5336C37.318 81.6278 37.2866 81.722 37.2748 81.8163C37.1099 82.37 36.945 82.908 36.784 83.4146C36.3913 84.5927 36.0575 85.7237 35.7237 86.8154C36.1338 85.2328 36.3137 83.5994 36.2577 81.9655C36.0575 78.8436 34.2314 75.8983 32.7234 75.4978C31.2155 75.0972 34.094 80.1827 35.06 83.0415C35.5853 84.7113 35.6745 86.4876 35.3192 88.2016C34.8519 89.7488 34.4121 91.2725 33.9604 92.8904C34.0881 90.7763 34.0434 88.6553 33.8269 86.5483C33.5324 83.0769 31.4707 80.8581 30.0452 80.9484C28.6197 81.0388 30.1081 83.0101 32.158 87.2316C33.24 89.4483 33.722 91.9099 33.556 94.3709C33.3714 95.0542 33.1633 95.7532 32.9905 96.4836C32.7706 97.3162 32.5978 98.2194 32.4446 99.1462C32.2365 98.3215 31.9302 97.112 31.5728 95.7768C31.1567 94.2994 30.8547 92.7923 30.6696 91.2686C30.4772 89.4975 30.0099 87.2905 28.2742 86.3677C28.1567 86.2849 28.0225 86.2289 27.881 86.2039C27.7394 86.1788 27.5942 86.1853 27.4554 86.2228C27.3167 86.2603 27.1879 86.3279 27.0783 86.4208C26.9687 86.5137 26.8809 86.6297 26.8212 86.7604C26.6582 87.1393 26.621 87.5605 26.7151 87.9621C26.9457 89.1655 27.3422 90.3312 27.8932 91.4257C27.5495 92.0786 27.3932 92.8139 27.4416 93.5502C27.4416 93.829 27.4652 94.1039 27.4848 94.3749C27.3317 94.096 27.1864 93.8368 27.0489 93.5895C26.8004 93.1735 26.4936 92.7953 26.1379 92.4663C26.2266 91.8156 26.2712 91.1596 26.2714 90.5028C26.2714 89.6389 25.2621 87.4476 24.3511 89.0734C23.9898 89.7214 24.0566 91.0016 24.0212 91.8498C23.7738 92.0815 23.6992 92.5606 23.9073 93.3185C23.7008 95.2859 23.8041 97.2736 24.2136 99.209L23.9034 98.6592C23.4572 96.388 23.1945 94.0846 23.118 91.7712C22.9688 87.9581 23.5735 84.8165 22.5368 83.6384C21.5001 82.4603 20.9149 86.6033 21.3587 91.0997C21.5695 93.1614 22.1188 95.1741 22.9845 97.057C21.9635 95.2231 20.9542 93.3538 20 91.5592C19.6073 90.5932 18.6334 87.9935 18.8729 85.3545C19.1753 82.0244 19.3952 79.303 18.1307 77.4298C16.8662 75.5567 16.6031 76.7701 17.2236 80.6735C17.6477 83.3557 18.0993 86.9371 18.8808 89.4229C18.1386 87.9974 17.4435 86.6426 16.823 85.4134C16.4696 84.1921 15.6449 81.0427 15.6449 78.4312C15.6449 75.1129 15.2876 73.3261 14.3058 74.0448C13.6225 74.5553 14.0623 78.6511 15.1619 82.099C14.6475 81.0505 14.2587 80.2455 14.0348 79.7703C13.9327 79.5543 13.8189 79.3266 13.6893 79.0831C13.3383 76.3494 12.8136 73.6409 12.1185 70.9739C10.8736 66.2614 8.65878 62.8293 8.72554 65.1383C8.78837 67.2668 12.4248 74.7438 13.5597 78.8043C13.2377 78.2231 12.8646 77.5948 12.4876 76.9861C12.2245 76.3028 12.0164 75.5527 11.7375 74.9519C11.3095 74.033 10.85 73.1258 10.3356 72.2501C9.55201 70.8666 8.60827 69.5802 7.52387 68.4174C6.27921 67.028 4.65448 66.034 2.85074 65.5585C2.38736 65.4486 -0.424374 64.7731 0.0547199 66.0298C0.146451 66.2201 0.280831 66.3867 0.44742 66.5167C2.01822 67.8519 3.84035 68.7198 5.55252 69.8625C8.08936 71.5708 11.1721 75.541 12.4444 77.261L13.0492 78.392C10.7519 75.4624 6.57747 73.3458 4.9674 73.8013C2.97248 74.3629 6.84058 75.859 10.1 77.2688C11.5671 77.8501 12.8695 78.7817 13.8935 79.9824C14.4118 80.9602 14.9891 82.0676 15.5664 83.1947C15.6331 83.3635 15.696 83.5285 15.7667 83.6895C15.3396 83.0007 14.8335 82.3641 14.2587 81.7927C12.6879 80.3319 8.03439 78.8632 7.27647 80.3947C6.51856 81.9263 10.0254 81.7181 12.8764 82.641C14.4128 83.176 15.7452 84.1749 16.6895 85.4998L16.8505 85.7394C17.1097 86.2577 17.3532 86.7604 17.5849 87.2434C18.1189 88.3665 18.6294 89.4229 19.1321 90.4518C18.3528 89.0086 17.3687 87.6859 16.2104 86.5248C13.9327 84.3806 10.5869 83.4735 9.20071 84.2196C7.81447 84.9658 13.4026 86.7094 16.0572 88.1466C17.5807 89.0079 18.8583 90.2449 19.7683 91.7398C20.483 93.1889 21.2016 94.6065 21.9752 96.0949C20.617 94.4629 19.1291 92.9435 17.5259 91.5513C14.942 89.2187 11.9182 89.0066 10.9404 90.0394C9.96254 91.0722 12.3934 91.5042 16.768 93.181C19.0698 94.0646 21.1005 95.5349 22.6585 97.4458C22.9884 98.0702 23.3261 98.7103 23.6874 99.3739C24.1196 100.171 24.5928 100.946 25.1051 101.695C24.3903 101.231 23.3379 100.556 22.1677 99.8255C20.8554 99.0308 19.6068 98.1354 18.4331 97.1473C17.0822 95.9692 15.2326 94.689 13.328 95.1838C13.1865 95.2051 13.0514 95.2571 12.9321 95.3361C12.8129 95.4151 12.7123 95.5193 12.6375 95.6412C12.5627 95.7632 12.5154 95.9 12.499 96.0421C12.4826 96.1842 12.4975 96.3282 12.5426 96.464C12.6813 96.8524 12.9416 97.1857 13.2848 97.4143C15.0755 98.8045 17.4828 99.4721 19.568 100.289C21.479 101.042 23.4376 101.667 25.431 102.162C25.9258 102.873 26.4442 103.572 26.9586 104.243L26.024 104.271C24.9166 104.302 19.9214 102.04 17.3846 101.31C14.8477 100.58 12.4758 101.962 15.1344 103.391C17.793 104.821 25.0226 104.503 25.0226 104.503L27.1078 104.452C27.5987 105.08 28.0817 105.673 28.5333 106.219H18.6294V108.968H20.5929L22.1637 118.738H35.3545L36.9253 108.975H38.8888V106.227H32.3229C32.2698 105.04 32.3013 103.851 32.4171 102.669C32.8546 102.223 33.3406 101.828 33.8662 101.491C36.7486 99.4996 41.6338 99.3347 42.9336 95.5019C43.2478 94.5751 42.8944 93.3892 41.787 93.4402C41.0016 93.4795 40.1494 94.1746 39.6546 94.7479C38.0053 96.6525 36.7643 98.6278 34.6202 100.069C34.522 100.136 33.1711 101.212 32.4996 101.879C32.5742 101.255 32.6685 100.587 32.7902 99.8687C33.3083 98.9498 33.8993 98.0739 34.5574 97.2494C36.3127 95.0739 38.9831 93.7976 40.8798 91.7202C41.461 91.084 42.2268 88.7985 40.4518 89.364C39.6664 89.6192 38.7318 90.8131 38.1152 91.3628C36.3716 92.9336 34.5809 94.6065 33.4421 96.6721C33.4892 96.4679 33.5403 96.2794 33.5874 96.0556C34.8129 94.0949 36.1916 92.2342 37.7107 90.4911C40.2319 87.6204 42.8158 85.7433 42.859 84.1764C42.9022 82.6096 39.6507 85.2367 36.89 88.8339C35.6377 90.484 34.6664 92.3297 34.0154 94.2963C34.522 92.2582 35.06 90.2044 35.5862 88.233C35.9475 87.2513 37.0196 84.6987 38.9949 82.9276C41.4885 80.701 43.507 78.8632 43.8643 76.6444C44.2217 74.4257 43.2085 75.1051 40.9937 78.3841ZM27.0489 103.643C26.6772 103.135 26.2845 102.58 25.8708 101.978C25.6236 100.952 25.4594 99.9077 25.3799 98.8556C25.3262 97.9545 25.367 97.0503 25.5017 96.1577C26.1709 96.9872 26.8827 97.7816 27.634 98.5375C27.6162 99.3239 27.5201 100.107 27.3474 100.874C27.3356 100.988 27.0843 102.696 27.0489 103.643ZM29.1852 106.227C28.6786 105.689 28.1249 105.048 27.5241 104.263C27.5392 103.64 27.6248 103.021 27.7793 102.417C28.0198 101.466 28.3648 100.544 28.8082 99.6685C29.7389 100.552 30.4222 101.141 30.4222 101.141L31.993 102.516C31.8713 103.89 31.8006 105.174 31.7574 106.219L29.1852 106.227ZM32.0127 102.276L31.3097 101.659C30.917 101.306 30.2102 99.9394 29.4405 98.3686C29.7711 97.7057 30.0622 97.0239 30.3123 96.3266C31.1448 97.8699 31.8831 99.0755 32.319 99.7156C32.2129 100.572 32.0951 101.436 32.0127 102.276Z" fill="white"/>
<path d="M43.2048 128.673C52.3095 128.673 59.6903 127.075 59.6903 125.104C59.6903 123.132 52.3095 121.534 43.2048 121.534C34.1001 121.534 26.7192 123.132 26.7192 125.104C26.7192 127.075 34.1001 128.673 43.2048 128.673Z" fill="#92E3A9"/>
<path opacity="0.5" d="M43.2048 128.673C52.3095 128.673 59.6903 127.075 59.6903 125.104C59.6903 123.132 52.3095 121.534 43.2048 121.534C34.1001 121.534 26.7192 123.132 26.7192 125.104C26.7192 127.075 34.1001 128.673 43.2048 128.673Z" fill="white"/>
<path d="M103.021 128.673C112.125 128.673 119.506 127.075 119.506 125.104C119.506 123.132 112.125 121.534 103.021 121.534C93.916 121.534 86.5352 123.132 86.5352 125.104C86.5352 127.075 93.916 128.673 103.021 128.673Z" fill="#92E3A9"/>
<path opacity="0.5" d="M103.021 128.673C112.125 128.673 119.506 127.075 119.506 125.104C119.506 123.132 112.125 121.534 103.021 121.534C93.916 121.534 86.5352 123.132 86.5352 125.104C86.5352 127.075 93.916 128.673 103.021 128.673Z" fill="white"/>
<path d="M75.3513 59.9311C76.0155 60.3469 76.5832 60.8998 77.0163 61.5529C77.5111 62.4522 79.5846 63.0373 79.5846 63.0373H80.3503L80.6645 66.6384C79.8751 66.6641 79.0881 66.7402 78.3083 66.8662C77.8487 66.9676 77.3807 67.0268 76.9103 67.0429C76.9103 67.0429 74.4795 63.9838 74.075 63.3986C73.6705 62.8135 73.6273 61.6001 73.808 61.3723C73.9886 61.1445 75.3513 59.9311 75.3513 59.9311Z" fill="white" stroke="#263238" stroke-width="0.5" stroke-linecap="round" stroke-linejoin="round"/>
<path d="M72.1115 66.0533C72.1115 66.0533 70.7606 66.5049 71.3457 66.8662C71.6466 67 71.9816 67.037 72.3044 66.9723C72.6273 66.9076 72.9221 66.7443 73.1482 66.5049C73.372 66.1436 72.6613 65.8726 72.1115 66.0533Z" fill="white" stroke="#263238" stroke-width="0.5" stroke-linecap="round" stroke-linejoin="round"/>
<path d="M70.6272 61.9142C70.6272 61.9142 74.6327 60.473 74.8134 60.6065C74.994 60.74 75.3082 61.9574 75.3082 61.9574C75.3082 61.9574 78.0964 63.6224 78.3241 64.2547C78.5047 65.2361 78.5047 66.2421 78.3241 67.2235C78.1867 67.4513 77.4248 67.7183 77.146 67.8086C76.8649 67.8783 76.5711 67.8783 76.2899 67.8086C76.1564 67.7654 73.9926 66.2378 73.9926 66.2378C73.9926 66.2378 71.7896 66.4617 71.2948 66.4617C70.8 66.4617 70.3013 66.4185 70.3013 66.4185L70.6272 61.9142Z" fill="white" stroke="#263238" stroke-width="0.5" stroke-linecap="round" stroke-linejoin="round"/>
<path d="M75.6223 63.6107C75.6223 63.6107 77.1067 64.4235 77.4248 64.8712C77.7429 65.3189 78.0531 67.2588 78.0531 67.2588" stroke="#263238" stroke-width="0.5" stroke-linecap="round" stroke-linejoin="round"/>
<path d="M74.9941 64.4354C74.9941 64.4354 76.7495 65.3778 76.9262 65.8294C77.0943 66.4056 77.2254 66.9919 77.3189 67.5848" stroke="#263238" stroke-width="0.5" stroke-linecap="round" stroke-linejoin="round"/>
<path d="M75.8933 60.7872C75.8933 60.7872 73.9573 62.947 73.5057 63.1748C73.0541 63.4026 72.9677 63.1277 72.7203 62.947C72.4729 62.7664 74.1615 60.3395 74.1183 60.1589C74.3543 59.9847 74.6416 59.8944 74.9347 59.9022C75.2279 59.91 75.51 60.0156 75.7363 60.2021" fill="white"/>
<path d="M75.8933 60.7872C75.8933 60.7872 73.9573 62.947 73.5057 63.1748C73.0541 63.4026 72.9677 63.1277 72.7203 62.947C72.4729 62.7664 74.1615 60.3395 74.1183 60.1589C74.3543 59.9847 74.6416 59.8944 74.9347 59.9022C75.2279 59.91 75.51 60.0156 75.7363 60.2021" stroke="#263238" stroke-width="0.5" stroke-linecap="round" stroke-linejoin="round"/>
<path d="M73.0542 65.5742L72.9835 65.8177C72.8412 66.2482 72.758 66.696 72.7361 67.1489C72.8264 67.3296 73.3683 67.5102 73.549 67.2392C73.7296 66.9683 74.087 65.6213 73.9966 65.4407C73.9063 65.26 73.5529 64.4786 73.0542 65.5742Z" fill="white" stroke="#263238" stroke-width="0.5" stroke-linecap="round" stroke-linejoin="round"/>
<path d="M74.7661 65.3778C74.6247 65.5545 73.9807 67.4945 74.1378 67.734C74.2949 67.9736 74.9467 68.0521 75.1274 67.7812C75.308 67.5102 75.9364 65.8177 75.7557 65.425C75.5751 65.0323 75.4101 64.6121 74.7661 65.3778Z" fill="white" stroke="#263238" stroke-width="0.5" stroke-linecap="round" stroke-linejoin="round"/>
<path d="M75.8932 65.7823L75.8265 65.9394C75.6301 66.4067 75.0686 67.8165 75.2178 68.0796C75.367 68.3428 76.2506 68.4723 76.4312 68.0364C76.6119 67.6005 77.2441 65.9198 76.8239 65.5153C76.758 65.4369 76.6708 65.3793 76.5729 65.3494C76.4749 65.3195 76.3704 65.3187 76.272 65.3469C76.1735 65.3752 76.0854 65.4313 76.0182 65.5086C75.9509 65.5859 75.9076 65.6809 75.8932 65.7823Z" fill="white" stroke="#263238" stroke-width="0.5" stroke-linecap="round" stroke-linejoin="round"/>
<path d="M44.9127 27.9299C44.9127 27.9299 45.1483 29.379 44.8773 29.9563C44.6064 30.5336 44.2019 31.7431 44.2019 31.7431L50.1788 37.0445C50.1788 37.0445 52.0009 34.7472 52.3387 34.2956C52.6764 33.844 53.1241 33.2471 53.1241 33.2471C53.1241 33.2471 50.1867 31.3896 49.5898 30.0387C48.9928 28.6879 49.2874 26.9678 48.0189 26.6969C46.7505 26.4259 45.2858 27.121 44.9127 27.9299Z" fill="white" stroke="#263238" stroke-width="0.5" stroke-linecap="round" stroke-linejoin="round"/>
<path d="M56.2897 18.9842C56.2897 18.9842 58.7872 18.9489 58.2806 16.5534C57.7741 14.158 51.9346 13.6475 50.8547 14.7627C49.7748 15.878 49.9436 16.3335 49.9436 16.3335C49.9436 16.3335 44.9131 16.2 43.629 18.9332C42.3449 21.6664 42.9221 25.2164 43.7664 27.0699C44.6108 28.9235 46.0284 29.1277 46.7706 28.8921C47.5128 28.6564 48.0508 28.2166 48.0508 27.5412C48.0508 26.8657 48.526 25.2478 49.0993 25.6523C49.6727 26.0568 50.2774 26.1903 51.2945 25.2125C52.3116 24.2346 53.7567 23.0173 53.2187 22.0395C52.6807 21.0616 51.7658 21.0263 52.2723 20.5865C52.7789 20.1466 55.6496 19.8011 55.9166 19.5065C56.0653 19.3512 56.1909 19.1753 56.2897 18.9842Z" fill="#263238" stroke="#263238" stroke-width="0.5" stroke-linecap="round" stroke-linejoin="round"/>
<path d="M56.168 17.547C56.168 17.547 56.5215 18.2578 53.1599 19.1414C49.7984 20.0249 44.1278 20.2016 43.959 22.3262" stroke="white" stroke-width="0.5" stroke-linecap="round" stroke-linejoin="round"/>
<path d="M49.6293 21.6193C49.6293 21.6193 45.5609 22.8563 44.6734 24.2739C43.7859 25.6916 45.0308 26.9246 45.0308 26.9246" stroke="white" stroke-width="0.5" stroke-linecap="round" stroke-linejoin="round"/>
<path d="M56.2897 18.9843C56.2897 18.9843 57.2361 22.1887 57.2361 22.8327C57.2361 23.4767 56.5606 24.1129 56.863 24.8237C57.1654 25.5345 58.1785 26.9168 58.1785 27.3566C58.1785 27.7964 56.6941 28.2323 56.6941 28.2323C56.6941 28.2323 55.4454 32.9447 55.1744 33.5338C54.9034 34.1228 53.9963 34.2092 52.9124 33.9265C51.8286 33.6437 48.9658 32.1358 48.2 30.9577C47.4343 29.7796 47.9958 27.7807 47.9958 27.7807C47.9958 27.7807 46.425 27.0739 46.1069 25.5895C45.7889 24.1051 46.9513 23.1233 47.9644 23.461C48.2492 23.5453 48.5132 23.688 48.7397 23.88C48.9663 24.072 49.1502 24.3092 49.28 24.5763C49.28 24.5763 49.3821 24.9454 49.6727 24.8473C49.9633 24.7491 50.246 24.1365 50.517 24.1011C50.7879 24.0658 52.7122 23.3943 52.4805 22.6521C52.2488 21.9099 49.8455 21.8667 50.0143 21.0302C50.1832 20.1938 56.2897 18.9843 56.2897 18.9843Z" fill="white" stroke="#263238" stroke-width="0.5" stroke-linecap="round" stroke-linejoin="round"/>
<path d="M53.2854 27.5569L52.3076 28.2323" stroke="#263238" stroke-width="0.5" stroke-linecap="round" stroke-linejoin="round"/>
<path d="M52.9124 27.9968C52.9124 27.9968 53.2187 28.8057 54.4832 29.0767L52.9124 27.9968Z" fill="white"/>
<path d="M52.9124 27.9968C52.9124 27.9968 53.2187 28.8057 54.4832 29.0767" stroke="#263238" stroke-width="0.5" stroke-linecap="round" stroke-linejoin="round"/>
<path d="M52.9477 28.2324C52.9477 28.2324 52.3744 29.8032 53.0812 30.1566C53.7881 30.51 54.0944 29.0452 54.0944 29.0452L52.9477 28.2324Z" fill="black"/>
<path d="M56.7608 25.0789C56.7215 25.8997 56.5134 26.5555 56.2974 26.5437C56.0814 26.5319 55.944 25.8604 55.9872 25.0397C56.0304 24.2189 56.2346 23.567 56.4506 23.5749C56.6666 23.5828 56.804 24.2582 56.7608 25.0789Z" fill="white" stroke="#263238" stroke-width="0.5" stroke-linecap="round" stroke-linejoin="round"/>
<path d="M55.9873 24.2504H49.0994" stroke="#263238" stroke-width="0.5" stroke-linecap="round" stroke-linejoin="round"/>
<path d="M55.512 23.3393C55.5634 23.1552 55.6574 22.9857 55.7863 22.8445C55.9152 22.7033 56.0755 22.5944 56.2542 22.5264C56.8314 22.3576 56.9296 22.6639 56.9296 22.6639" fill="white"/>
<path d="M55.512 23.3393C55.5634 23.1552 55.6574 22.9857 55.7863 22.8445C55.9152 22.7033 56.0755 22.5944 56.2542 22.5264C56.8314 22.3576 56.9296 22.6639 56.9296 22.6639" stroke="#263238" stroke-width="0.5" stroke-linecap="round" stroke-linejoin="round"/>
<path d="M32.0953 80.5479L53.0262 79.9196C53.0262 79.9196 54.33 94.4102 54.0158 94.7283C53.7017 95.0464 32.9514 95.9064 32.9514 95.9064C32.9514 95.9064 31.3453 96.0203 31.1175 95.3016C30.8897 94.583 32.0953 80.5479 32.0953 80.5479Z" fill="white" stroke="#263238" stroke-width="0.5" stroke-linecap="round" stroke-linejoin="round"/>
<path d="M32.0951 80.5479C32.0951 80.5479 30.1316 94.905 30.4733 95.3134C30.8149 95.7218 32.4368 96.0163 32.9512 95.8985C33.4224 95.8121 32.0951 80.5479 32.0951 80.5479Z" fill="white" stroke="#263238" stroke-width="0.5" stroke-linecap="round" stroke-linejoin="round"/>
<path d="M38.2607 119.889C37.1101 120.591 36.5524 121.777 36.8234 122.724C37.0943 123.67 37.1807 123.761 37.9033 123.902C38.6259 124.043 41.8617 123.541 45.3646 122.956C48.8675 122.37 49.3741 122.237 49.6843 121.742C49.9945 121.247 50.5404 120.753 47.0729 120.171C43.6053 119.59 43.2912 118.954 43.2912 118.954C43.2912 118.954 40.1064 118.762 38.2607 119.889Z" fill="#92E3A9" stroke="#263238" stroke-width="0.5" stroke-linecap="round" stroke-linejoin="round"/>
<path d="M49.5902 120.823C49.3545 121.306 48.6163 122.174 46.2954 122.453C43.841 122.747 39.3996 123.191 37.0552 123.392C37.2162 123.725 37.4125 123.784 37.9034 123.894C38.6221 124.028 41.8618 123.533 45.3647 122.948C48.8676 122.363 49.3742 122.229 49.6844 121.734C49.8847 121.436 50.1556 121.137 49.5902 120.823Z" fill="#263238" stroke="#263238" stroke-width="0.5" stroke-linecap="round" stroke-linejoin="round"/>
<path d="M44.4734 121.102C44.4734 121.102 48.0745 122.814 50.0576 123.219C52.0408 123.623 52.5317 123.67 52.3078 124.299C52.084 124.927 52.0369 125.111 49.0209 125.83C46.005 126.549 42.7181 125.74 41.2769 125.469C39.8357 125.198 39.388 125.606 38.7597 125.335C38.1313 125.064 38.3081 123.713 38.3081 123.713L44.4734 121.102Z" fill="#92E3A9" stroke="#263238" stroke-width="0.5" stroke-linecap="round" stroke-linejoin="round"/>
<path d="M49.0206 125.83C51.5536 125.225 51.9895 125.002 52.1976 124.57C49.4487 125.748 45.8044 125.261 43.0241 124.943C41.2334 124.734 39.5251 124.55 38.3117 124.452C38.3053 124.626 38.3443 124.799 38.4249 124.954C38.5054 125.109 38.6247 125.24 38.7712 125.335C39.3995 125.606 39.8511 125.202 41.2884 125.469C42.7257 125.736 46.0047 126.549 49.0206 125.83Z" fill="#263238" stroke="#263238" stroke-width="0.5" stroke-linecap="round" stroke-linejoin="round"/>
<path d="M40.4245 88.0209C40.4245 88.0209 39.7922 93.1496 38.5317 95.3565C37.2711 97.5635 35.5629 99.0911 35.2919 102.288C35.0209 105.484 35.9202 118.538 36.0105 119.665C36.1009 120.792 35.6178 121.149 36.1009 121.868C36.4035 122.309 36.734 122.73 37.0905 123.128L38.5788 121.825C38.5788 121.825 39.6587 118.357 39.3878 111.74C39.1168 105.123 39.1639 100.67 40.3342 96.2558C41.5044 91.8419 41.7283 90.6756 41.1863 88.9634C40.6444 87.2512 40.4245 88.0209 40.4245 88.0209Z" fill="#263238" stroke="#263238" stroke-width="0.5" stroke-linecap="round" stroke-linejoin="round"/>
<path d="M37.5894 77.3866C37.5894 77.3866 39.0738 80.1866 39.4115 80.9209C39.7493 81.6553 40.5229 90.1729 39.9181 93.0082C39.3134 95.8435 36.9572 100.662 37.1692 104.891C37.3813 109.121 37.5619 120.332 37.5619 120.466C37.4265 121.134 37.4265 121.823 37.5619 122.492C37.7858 123.706 38.4612 124.063 38.4612 124.063C39.6072 123.529 40.796 123.093 42.0151 122.759C44.2221 122.127 44.8504 121.228 44.8504 121.228C44.6578 120.645 44.4323 120.073 44.175 119.515C43.8608 118.887 43.3228 117.898 43.4132 117.579C43.5035 117.261 44.0886 106.914 45.2588 103.493C46.4291 100.073 47.1006 96.4718 48.0941 93.3185C49.0877 90.1651 51.4556 81.7181 51.4556 79.5582V76.9036L37.4127 76.6326L37.5894 77.3866Z" fill="#263238" stroke="#263238" stroke-width="0.5" stroke-linecap="round" stroke-linejoin="round"/>
<path d="M38.7478 97.5557C38.3551 98.7613 37.9192 100.112 37.5893 101.184C36.8039 103.737 37.5893 118.07 37.5893 118.07C37.6752 119.115 37.7001 120.164 37.6639 121.212C37.5893 122.512 37.6639 123.026 37.9859 123.376" stroke="white" stroke-width="0.5" stroke-linecap="round" stroke-linejoin="round"/>
<path d="M39.7492 94.5084C39.7492 94.5084 39.4586 95.3762 39.0698 96.5661" stroke="white" stroke-width="0.5" stroke-linecap="round" stroke-linejoin="round"/>
<path d="M43.7664 30.5297C43.7664 30.5297 45.3372 31.0677 47.6934 33.1293C50.0496 35.191 52.4529 37.1467 51.9463 37.8417C51.4397 38.5368 50.4933 40.9833 50.4933 40.9833C50.4933 40.9833 49.6176 39.5304 47.0179 37.449C44.4183 35.3677 42.4233 33.4985 42.4233 33.4985C42.4233 33.4985 43.4954 30.9695 43.7664 30.5297Z" fill="white" stroke="#263238" stroke-width="0.5" stroke-linecap="round" stroke-linejoin="round"/>
<path d="M41.6735 33.8362C41.6735 33.8362 36.643 37.4137 35.783 40.8577C34.923 44.3016 34.5657 45.9903 34.6363 52.5719C34.707 59.1536 35.1076 63.3083 35.1076 63.6107C35.1076 63.9131 33.7842 76.1378 33.7842 76.2714C33.7842 76.4049 36.1404 78.5686 42.7299 78.7022C47.202 78.7307 51.6685 78.3813 56.0817 77.6576L53.2111 53.9581C53.2111 53.9581 52.0958 43.8618 50.9491 41.9729C49.8024 40.084 41.6735 33.8362 41.6735 33.8362Z" fill="#92E3A9" stroke="#263238" stroke-width="0.5" stroke-linecap="round" stroke-linejoin="round"/>
<path d="M44.5752 66.6856C44.5752 66.6856 48.7614 67.5299 51.6438 66.4814" stroke="#263238" stroke-width="0.5" stroke-linecap="round" stroke-linejoin="round"/>
<path d="M44.5752 67.9304C44.5752 67.9304 48.7614 68.7747 51.6438 67.7301" stroke="#263238" stroke-width="0.5" stroke-linecap="round" stroke-linejoin="round"/>
<path d="M69.9044 61.2388L70.9412 61.7336L70.3089 66.4146L69.2761 66.2339L69.9044 61.2388Z" fill="white" stroke="#263238" stroke-width="0.5" stroke-linecap="round" stroke-linejoin="round"/>
<path d="M46.1382 39.9937C45.549 40.1797 45.0212 40.5217 44.6106 40.9833C43.9351 41.7687 40.2909 46.2926 40.5579 48.2758C40.8249 50.2589 45.5648 57.5003 47.1356 59.7544C49.0695 62.6109 51.855 64.7848 55.0957 65.9669C59.058 67.4081 69.3664 66.6895 69.3664 66.6895L69.9122 61.1013C69.9122 61.1013 64.2888 59.3028 60.4168 58.1325C58.2632 57.4957 56.1571 56.7083 54.1139 55.7763C54.1139 55.7763 53.2146 53.5694 52.5824 53.212C51.9501 52.8546 51.8637 52.6269 51.8637 52.6269C51.8637 52.6269 50.6503 46.0099 50.018 43.8461C49.3858 41.6823 48.5336 41.1483 48.5336 41.1483" fill="#92E3A9"/>
<path d="M46.1382 39.9937C45.549 40.1797 45.0212 40.5217 44.6106 40.9833C43.9351 41.7687 40.2909 46.2926 40.5579 48.2758C40.8249 50.2589 45.5648 57.5003 47.1356 59.7544C49.0695 62.6109 51.855 64.7848 55.0957 65.9669C59.058 67.4081 69.3664 66.6895 69.3664 66.6895L69.9122 61.1013C69.9122 61.1013 64.2888 59.3028 60.4168 58.1325C58.2632 57.4957 56.1571 56.7083 54.1139 55.7763C54.1139 55.7763 53.2146 53.5694 52.5824 53.212C51.9501 52.8546 51.8637 52.6269 51.8637 52.6269C51.8637 52.6269 50.6503 46.0099 50.018 43.8461C49.3858 41.6823 48.5336 41.1483 48.5336 41.1483" stroke="#263238" stroke-width="0.5" stroke-linecap="round" stroke-linejoin="round"/>
<path d="M98.7602 118.844C97.1546 119.771 95.4854 120.583 93.7651 121.275C91.4678 122.131 90.9259 122.453 91.3775 122.94C91.8291 123.427 95.7443 123.796 97.9473 123.333C100.15 122.869 101.01 122.571 102 122.614C102.99 122.657 104.356 122.928 104.835 122.253C105.314 121.577 105.511 121.444 105.149 120.317C104.788 119.19 98.7602 118.844 98.7602 118.844Z" fill="#92E3A9" stroke="#263238" stroke-width="0.5" stroke-linecap="round" stroke-linejoin="round"/>
<path d="M97.9471 123.344C100.154 122.897 101.01 122.582 102 122.626C102.989 122.669 104.356 122.94 104.835 122.264C105.189 121.781 105.381 121.573 105.33 121.086C103.728 120.953 100.637 121.459 96.9536 122.264C95.0893 122.718 93.1563 122.817 91.2555 122.555C91.234 122.625 91.2342 122.7 91.2559 122.77C91.2776 122.84 91.3199 122.902 91.3773 122.948C91.8289 123.435 95.7441 123.796 97.9471 123.344Z" fill="#263238" stroke="#263238" stroke-width="0.5" stroke-linecap="round" stroke-linejoin="round"/>
<path d="M107.266 121.817C106.364 122.792 105.403 123.71 104.388 124.566C102.899 125.779 100.335 127.448 100.606 128.167C100.877 128.885 102.719 129.561 106.591 128.559C109.069 127.882 111.413 126.786 113.522 125.32C113.954 125.239 114.34 124.998 114.602 124.644C114.92 124.102 114.558 123.25 114.558 123.25L107.266 121.817Z" fill="#92E3A9" stroke="#263238" stroke-width="0.5" stroke-linecap="round" stroke-linejoin="round"/>
<path d="M106.59 128.567C109.068 127.89 111.412 126.794 113.522 125.327C113.954 125.247 114.34 125.006 114.601 124.652C114.773 124.237 114.773 123.771 114.601 123.356C109.002 127.593 103.763 128.461 100.99 128.587C101.721 129.089 103.519 129.353 106.59 128.567Z" fill="#263238" stroke="#263238" stroke-width="0.5" stroke-linecap="round" stroke-linejoin="round"/>
<path d="M100.543 69.3755C100.543 69.3755 98.1593 69.6936 96.4471 69.0614C94.7349 68.4291 93.117 67.9382 93.117 67.9382C93.117 67.9382 92.1706 80.2258 93.2073 85.1778C94.2441 90.1297 96.989 96.1734 97.0322 97.5557C97.0872 99.2186 97.2829 100.874 97.6173 102.504C97.9315 103.764 99.463 113.499 99.5534 114.567C99.6135 115.106 99.6135 115.65 99.5534 116.189C99.5534 116.189 98.4734 116.551 98.4734 116.865V119.158C99.364 119.626 100.299 120.004 101.266 120.285C102.931 120.78 105.271 121.184 105.271 121.184C105.472 120.277 105.621 119.36 105.719 118.436C105.719 117.807 105.326 116.142 105.326 115.239C105.326 114.336 105.554 103.537 105.554 103.537C105.554 103.537 107.757 112.765 107.757 115.824C107.757 118.883 107.714 119.877 107.714 119.877C107.714 119.877 106.724 119.563 106.724 120.238C106.724 120.913 106.677 122.531 106.677 122.531C106.677 122.531 110.188 123.431 111.853 123.925C112.845 124.225 113.895 124.287 114.916 124.106C114.916 124.106 115.815 120.686 115.725 119.563C115.634 118.439 114.511 117.489 114.511 116.861C114.511 116.232 115.096 110.02 114.24 104.616C113.384 99.2129 111.134 96.7389 111.044 94.0842C110.953 91.4296 111.436 81.8869 111.495 80.3397C111.554 78.7925 113.113 75.5684 113.341 74.1272C113.569 72.686 113.384 68.4134 113.384 68.4134C113.384 68.4134 103.292 69.8703 100.543 69.3755Z" fill="#263238" stroke="#263238" stroke-width="0.5" stroke-linecap="round" stroke-linejoin="round"/>
<path d="M96.239 75.5449L98.6698 77.1196" stroke="white" stroke-width="0.5" stroke-linecap="round" stroke-linejoin="round"/>
<path d="M105.012 102.158C105.349 103.034 105.558 103.541 105.558 103.541" stroke="white" stroke-width="0.5" stroke-linecap="round" stroke-linejoin="round"/>
<path d="M97.8608 76.7151C97.8608 76.7151 99.4788 86.2106 101.415 92.1521C102.408 95.1995 103.473 98.1212 104.274 100.238" stroke="white" stroke-width="0.5" stroke-linecap="round" stroke-linejoin="round"/>
<path d="M79.5847 62.409C79.6279 62.5425 79.8517 67.4513 79.8517 67.4513L92.7716 66.2732L92.5045 59.9271L79.5847 62.409Z" fill="#263238" stroke="#263238" stroke-width="0.5" stroke-linecap="round" stroke-linejoin="round"/>
<path d="M104.925 36.699C104.925 36.699 102 37.7318 101.415 38.4543C100.83 39.1769 97.362 51.3702 96.2232 54.9713C95.0843 58.5723 94.7388 69.4659 94.7388 69.4659C95.3683 69.6988 96.0158 69.88 96.6748 70.0078C97.3232 70.1172 97.981 70.162 98.6383 70.1413C98.6383 70.1413 102.42 57.4021 104.266 53.0392C106.111 48.6763 109.214 42.4167 110.388 39.9859C111.562 37.555 112.591 37.1034 112.457 35.9332C112.324 34.7629 111.782 34.3113 111.107 34.221C110.431 34.1307 104.925 36.699 104.925 36.699Z" fill="white" stroke="#263238" stroke-width="0.5" stroke-linecap="round" stroke-linejoin="round"/>
<path d="M105.291 36.3417C105.291 36.3417 102.365 37.3745 101.78 38.097C101.195 38.8196 97.7313 51.0129 96.6161 54.614C95.5008 58.215 95.1199 69.1086 95.1199 69.1086C95.7494 69.3415 96.3969 69.5227 97.0559 69.6505C97.7046 69.7577 98.3621 69.8024 99.0194 69.784C99.0194 69.784 102.801 57.0448 104.647 52.678C106.492 48.3112 109.599 42.0751 110.769 39.6246C111.939 37.1742 112.972 36.7461 112.838 35.5759C112.705 34.4056 112.163 33.954 111.488 33.8637C110.812 33.7734 105.291 36.3417 105.291 36.3417Z" fill="#92E3A9" stroke="#263238" stroke-width="0.5" stroke-linecap="round" stroke-linejoin="round"/>
<path d="M109.245 37.8221C107.41 40.9605 105.801 44.2255 104.431 47.5925C102.585 52.3638 101.101 56.6246 99.2077 62.9863C98.0701 66.9145 97.6889 71.0229 98.0846 75.0933C98.0846 75.0933 98.9839 76.6248 104.297 76.8055C109.61 76.9861 116.271 75.2739 116.271 75.2739C116.271 75.2739 115.367 69.8704 115.277 66.6777C115.187 63.4851 117.755 52.2735 118.835 49.3479C119.915 46.4222 122.255 43.4966 120.013 40.6613C117.771 37.826 112.406 34.6295 112.406 34.6295C112.406 34.6295 109.83 36.8325 109.245 37.8221Z" fill="#263238" stroke="#263238" stroke-width="0.5" stroke-linecap="round" stroke-linejoin="round"/>
<path d="M103.17 37.7789C103.17 37.7789 101.776 39.5343 100.515 43.2767C99.2548 47.0191 96.9143 56.9623 95.8344 61.1917C94.7545 65.421 94.2126 74.8301 94.2126 74.8301C94.2126 74.8301 93.6274 74.7869 92.414 74.7869C91.6145 74.7632 90.8301 74.5634 90.1167 74.2018C90.1167 74.2018 90.9728 64.9734 91.7385 60.6537C92.5043 56.334 94.7545 48.6331 95.159 45.6172C95.5634 42.6012 95.697 41.8394 96.2389 41.431C96.7808 41.0226 101.01 38.4622 101.866 37.8771C102.722 37.2919 103.17 37.7789 103.17 37.7789Z" fill="#263238" stroke="#263238" stroke-width="0.5" stroke-linecap="round" stroke-linejoin="round"/>
<path d="M113.793 35.619C113.793 35.619 111.228 40.7045 110.553 41.6509C110.161 42.1911 109.815 42.7624 109.516 43.3591L107.266 44.2152L108.165 45.6564C108.165 45.6564 103.622 53.7932 102.451 56.5028C101.281 59.2124 100.095 62.1302 100.095 62.1302" stroke="white" stroke-width="0.5" stroke-linecap="round" stroke-linejoin="round"/>
<path d="M95.3006 58.5331C95.2181 59.4324 95.2024 59.7897 95.2024 59.7897" stroke="white" stroke-width="0.5" stroke-linecap="round" stroke-linejoin="round"/>
<path d="M100.877 39.3536L98.3556 43.2256L98.9408 44.1249L97.5428 45.8371C97.5428 45.8371 96.0584 52.0024 95.6539 55.3325C95.5753 55.9805 95.5086 56.546 95.4575 57.0369" stroke="white" stroke-width="0.5" stroke-linecap="round" stroke-linejoin="round"/>
<path d="M101.372 37.6885L100.877 40.0722L103.441 38.364L101.372 37.6885Z" fill="white" stroke="#263238" stroke-width="0.5" stroke-linecap="round" stroke-linejoin="round"/>
<path d="M103.531 35.7997C103.484 35.9332 101.372 37.6886 101.372 37.6886L103.755 38.6782L104.25 36.7422L103.531 35.7997Z" fill="white" stroke="#263238" stroke-width="0.5" stroke-linecap="round" stroke-linejoin="round"/>
<path d="M102.675 17.8376C101.659 18.4705 100.858 19.3959 100.378 20.4922C99.5689 22.3379 98.9405 23.1037 99.1212 23.6888C99.2508 24.0846 99.3402 24.4925 99.3882 24.9062C99.3882 25.0397 97.4993 26.8422 97.4522 27.3802C97.4051 27.9182 98.6696 28.9117 98.6696 28.9117C98.6696 28.9117 98.8031 32.018 98.8031 32.289C98.8031 32.5599 98.8934 33.954 100.201 34.3114C101.091 34.5164 102.017 34.5016 102.899 34.2682L103.755 38.6782C103.755 38.6782 109.744 34.9868 110.372 34.6726C111 34.3585 111.766 33.954 111.813 33.4592C111.86 32.9644 111.452 30.2155 111.452 30.2155C111.452 30.2155 114.649 27.2899 114.594 23.8695C114.539 20.449 112.716 18.2892 109.382 17.2721C106.048 16.255 102.675 17.8376 102.675 17.8376Z" fill="white" stroke="#263238" stroke-width="0.5" stroke-linecap="round" stroke-linejoin="round"/>
<path d="M114.602 23.8694C114.558 20.449 112.713 18.2892 109.383 17.2524C106.053 16.2157 102.675 17.8376 102.675 17.8376C102.412 17.9952 102.165 18.178 101.937 18.3834C103.037 18.1871 104.847 18.0496 106.143 18.8743C108.106 20.1348 106.861 21.3954 106.186 22.0709C105.511 22.7463 105.377 23.0133 105.872 23.6417C106.367 24.27 107.313 24.27 107.085 24.8551C106.858 25.4402 106.186 26.2531 106.728 26.477C107.27 26.7008 107.761 26.206 107.989 25.5305C108.216 24.8551 109.335 24.8551 109.787 26.2531C109.951 26.7788 109.948 27.3422 109.778 27.8661C109.609 28.3899 109.281 28.8485 108.841 29.1787C108.478 29.4473 108.03 29.5744 107.58 29.5361C108.353 29.9287 109.169 30.2318 110.011 30.4393C110.5 30.4801 110.992 30.4417 111.468 30.3254C111.468 30.2547 111.468 30.2115 111.468 30.2115C111.468 30.2115 114.649 27.2898 114.602 23.8694Z" fill="#263238" stroke="#263238" stroke-width="0.5" stroke-linecap="round" stroke-linejoin="round"/>
<path d="M101.505 25.6248C101.505 25.9743 101.395 26.257 101.258 26.257C101.12 26.257 101.01 25.9743 101.01 25.6248C101.01 25.2753 101.12 24.9965 101.258 24.9965C101.395 24.9965 101.505 25.2792 101.505 25.6248Z" fill="black"/>
<path d="M100.335 23.7359C100.335 23.7359 100.515 23.1037 101.513 23.1508C102.51 23.1979 102.55 23.9166 102.55 23.9166" fill="white"/>
<path d="M100.335 23.7359C100.335 23.7359 100.515 23.1037 101.513 23.1508C102.51 23.1979 102.55 23.9166 102.55 23.9166" stroke="#263238" stroke-width="0.5" stroke-linecap="round" stroke-linejoin="round"/>
<path d="M98.6699 28.9117C98.945 29.0111 99.24 29.0426 99.5298 29.0036C99.8197 28.9647 100.096 28.8563 100.335 28.6879C101.054 28.1027 100.468 27.604 100.468 27.604" fill="white"/>
<path d="M98.6699 28.9117C98.945 29.0111 99.24 29.0426 99.5298 29.0036C99.8197 28.9647 100.096 28.8563 100.335 28.6879C101.054 28.1027 100.468 27.604 100.468 27.604" stroke="#263238" stroke-width="0.5" stroke-linecap="round" stroke-linejoin="round"/>
<path d="M98.8503 29.6303C98.8503 29.6303 101.234 28.4522 102.314 28.4169C103.394 28.3815 104.521 30.2312 104.077 31.802C103.633 33.3728 103.135 34.1582 101.603 34.7747C100.072 35.3912 98.6304 35.2695 98.3634 34.2328C98.0963 33.196 99.3059 31.7156 99.891 31.4446C100.476 31.1736 100.928 31.1304 100.837 31.6252C100.747 32.12 100.476 32.4774 101.603 32.2536C102.73 32.0297 103.359 31.7156 103.402 30.4982C103.445 29.2808 103.009 28.8331 101.831 29.0138C100.653 29.1944 98.9053 30.1369 98.9053 30.1369L98.8503 29.6303Z" fill="#263238" stroke="#263238" stroke-width="0.5" stroke-linecap="round" stroke-linejoin="round"/>
<path d="M99.793 30.5767C99.793 30.5767 101.686 30.4864 102.361 29.7206L99.793 30.5767Z" fill="white"/>
<path d="M99.793 30.5767C99.793 30.5767 101.686 30.4864 102.361 29.7206" stroke="#263238" stroke-width="0.5" stroke-linecap="round" stroke-linejoin="round"/>
<path d="M107.403 29.4969C107.406 29.8664 107.327 30.232 107.17 30.5669C107.014 30.9018 106.785 31.1976 106.5 31.4329" fill="white"/>
<path d="M107.403 29.4969C107.406 29.8664 107.327 30.232 107.17 30.5669C107.014 30.9018 106.785 31.1976 106.5 31.4329" stroke="#263238" stroke-width="0.5" stroke-linecap="round" stroke-linejoin="round"/>
<path d="M103.755 38.6782L105.063 41.6941C105.063 41.6941 110.011 38.0028 111.228 36.5615C112.446 35.1203 113.388 34.4017 112.713 33.4199C112.037 32.4382 111.048 33.2393 110.867 33.3296C110.687 33.4199 103.755 38.6782 103.755 38.6782Z" fill="white" stroke="#263238" stroke-width="0.5" stroke-linecap="round" stroke-linejoin="round"/>
<path d="M93.8671 65.2797C93.3066 63.4563 92.8568 61.6007 92.5201 59.723C92.2492 57.999 92.1274 56.2437 92.1274 56.2437C89.9531 56.0455 87.8277 55.4826 85.8403 54.5786C82.8715 53.1413 82.2393 52.6151 82.2393 52.6151C82.2393 52.6151 86.2448 65.6685 87.0577 68.4134C87.8706 71.1584 88.0473 71.7435 88.0473 71.7435C89.3319 72.3799 90.6925 72.8497 92.096 73.1415C93.2106 73.3494 94.3398 73.4689 95.4732 73.4989L93.8671 65.2797Z" fill="white" stroke="#263238" stroke-width="0.5" stroke-linecap="round" stroke-linejoin="round"/>
<path d="M98.3555 65.2797C97.4035 65.1027 96.4792 64.8004 95.6066 64.3804C94.952 64.0008 94.2376 63.7352 93.4939 63.595H93.3133L93.8513 65.2601C93.187 65.4069 92.5091 65.4833 91.8289 65.4878C90.7489 65.4878 88.4948 65.1266 88.4084 65.2601C88.3249 65.5829 88.2944 65.9171 88.3181 66.2497C88.3181 66.5678 89.936 68.5038 90.8824 69.1792C91.8288 69.8547 92.681 70.3024 93.5371 70.3024C94.3932 70.3024 98.9838 69.674 98.9838 69.674L98.3555 65.2797Z" fill="white" stroke="#263238" stroke-width="0.5" stroke-linecap="round" stroke-linejoin="round"/>
<path d="M111.452 47.726C111.452 47.726 111.676 52.7682 111.813 56.4125C111.951 60.0567 112.175 60.3748 112.175 60.3748C112.175 60.3748 102.09 64.1565 100.559 64.4707C99.0272 64.7849 97.8608 65.1461 97.8608 65.1461L98.5363 70.051C101.836 70.3294 105.159 70.025 108.354 69.1517C113.263 67.7105 120.822 66.2693 120.959 65.5977C121.097 64.9262 120.959 62.896 120.959 62.4561C120.959 62.0163 120.822 52.3284 120.822 48.0087C120.822 43.689 121.136 42.6955 120.598 41.7962C120.06 40.8969 117.311 40.4453 115.737 41.3446" fill="#263238"/>
<path d="M111.452 47.726C111.452 47.726 111.676 52.7682 111.813 56.4125C111.951 60.0567 112.175 60.3748 112.175 60.3748C112.175 60.3748 102.09 64.1565 100.559 64.4707C99.0272 64.7849 97.8608 65.1461 97.8608 65.1461L98.5363 70.051C101.836 70.3294 105.159 70.025 108.354 69.1517C113.263 67.7105 120.822 66.2693 120.959 65.5977C121.097 64.9262 120.959 62.896 120.959 62.4561C120.959 62.0163 120.822 52.3284 120.822 48.0087C120.822 43.689 121.136 42.6955 120.598 41.7962C120.06 40.8969 117.311 40.4453 115.737 41.3446" stroke="#263238" stroke-width="0.5" stroke-linecap="round" stroke-linejoin="round"/>
<path d="M103.838 63.269L112.175 60.3748L111.436 49.2653" stroke="white" stroke-width="0.5" stroke-linecap="round" stroke-linejoin="round"/>
<path d="M101.497 64.0819L102.703 63.6656" stroke="white" stroke-width="0.5" stroke-linecap="round" stroke-linejoin="round"/>
<path d="M114.327 43.6655C114.327 43.6655 117.468 39.7385 120.59 41.7845" stroke="white" stroke-width="0.5" stroke-linecap="round" stroke-linejoin="round"/>
<path d="M88.4949 65.7313C88.4949 65.7313 90.5683 67.1253 91.9624 67.3531" stroke="#263238" stroke-width="0.5" stroke-linecap="round" stroke-linejoin="round"/>
<path d="M88.8562 67.0822C89.4672 67.6199 90.1676 68.0466 90.9257 68.3427L91.8721 68.6098" stroke="#263238" stroke-width="0.5" stroke-linecap="round" stroke-linejoin="round"/>
<path d="M91.1182 69.3323C91.654 69.5286 92.2142 69.6502 92.7832 69.6936" stroke="#263238" stroke-width="0.5" stroke-linecap="round" stroke-linejoin="round"/>
<path d="M52.8926 52.4777C52.8926 52.4777 52.2721 46.1356 51.5417 41.6667C51.149 39.1966 49.6528 37.0917 48.0899 35.2067C46.7979 33.6359 44.8462 32.1987 43.7702 30.5297C43.3971 29.9563 41.4415 34.1033 41.4375 34.1072C41.0448 34.9908 45.6983 37.7907 46.3267 38.4269C47.1513 39.2516 47.8975 40.2255 48.6475 41.113C48.9892 41.5057 49.8885 43.0018 50.4029 43.1275L51.2354 43.3356L50.611 45.2088L52.8926 52.4777Z" fill="#92E3A9" stroke="#263238" stroke-width="0.5" stroke-linecap="round" stroke-linejoin="round"/>
</svg>
