<svg width="198" height="242" viewBox="0 0 198 242" fill="none" xmlns="http://www.w3.org/2000/svg">
<g filter="url(#filter0_d_22_6139)">
<g clip-path="url(#clip0_22_6139)">
<g filter="url(#filter1_d_22_6139)">
<path d="M4 108.471C4 102.111 7.76685 96.3545 13.595 93.8085L171.595 24.7874C182.165 20.17 194 27.9149 194 39.4495V221C194 229.837 186.837 237 178 237H20C11.1634 237 4 229.837 4 221V108.471Z" fill="#3DB678"/>
</g>
<g opacity="0.2" filter="url(#filter2_d_22_6139)">
<circle cx="55.1068" cy="232.752" r="125.122" transform="rotate(6.32385 55.1068 232.752)" fill="url(#paint0_linear_22_6139)"/>
<circle cx="55.1068" cy="232.752" r="124.872" transform="rotate(6.32385 55.1068 232.752)" stroke="white" stroke-width="0.5"/>
</g>
<path d="M26.616 211.44C26.3373 210.927 25.934 210.538 25.406 210.274C24.8927 209.995 24.284 209.856 23.58 209.856C22.3627 209.856 21.3873 210.259 20.654 211.066C19.9207 211.858 19.554 212.921 19.554 214.256C19.554 215.679 19.9353 216.793 20.698 217.6C21.4753 218.392 22.5387 218.788 23.888 218.788C24.812 218.788 25.5893 218.553 26.22 218.084C26.8653 217.615 27.3347 216.94 27.628 216.06H22.854V213.288H31.038V216.786C30.7593 217.725 30.2827 218.597 29.608 219.404C28.948 220.211 28.1047 220.863 27.078 221.362C26.0513 221.861 24.8927 222.11 23.602 222.11C22.0767 222.11 20.7127 221.78 19.51 221.12C18.322 220.445 17.3907 219.514 16.716 218.326C16.056 217.138 15.726 215.781 15.726 214.256C15.726 212.731 16.056 211.374 16.716 210.186C17.3907 208.983 18.322 208.052 19.51 207.392C20.698 206.717 22.0547 206.38 23.58 206.38C25.428 206.38 26.9827 206.827 28.244 207.722C29.52 208.617 30.3633 209.856 30.774 211.44H26.616ZM32.3738 215.84C32.3738 214.579 32.6085 213.471 33.0778 212.518C33.5618 211.565 34.2145 210.831 35.0358 210.318C35.8571 209.805 36.7738 209.548 37.7858 209.548C38.6511 209.548 39.4065 209.724 40.0518 210.076C40.7118 210.428 41.2178 210.89 41.5698 211.462V209.724H45.3318V222H41.5698V220.262C41.2031 220.834 40.6898 221.296 40.0298 221.648C39.3845 222 38.6291 222.176 37.7638 222.176C36.7665 222.176 35.8571 221.919 35.0358 221.406C34.2145 220.878 33.5618 220.137 33.0778 219.184C32.6085 218.216 32.3738 217.101 32.3738 215.84ZM41.5698 215.862C41.5698 214.923 41.3058 214.183 40.7778 213.64C40.2645 213.097 39.6338 212.826 38.8858 212.826C38.1378 212.826 37.4998 213.097 36.9718 213.64C36.4585 214.168 36.2018 214.901 36.2018 215.84C36.2018 216.779 36.4585 217.527 36.9718 218.084C37.4998 218.627 38.1378 218.898 38.8858 218.898C39.6338 218.898 40.2645 218.627 40.7778 218.084C41.3058 217.541 41.5698 216.801 41.5698 215.862ZM54.8955 218.81V222H52.9815C51.6175 222 50.5541 221.67 49.7915 221.01C49.0288 220.335 48.6475 219.243 48.6475 217.732V212.848H47.1515V209.724H48.6475V206.732H52.4095V209.724H54.8735V212.848H52.4095V217.776C52.4095 218.143 52.4975 218.407 52.6735 218.568C52.8495 218.729 53.1428 218.81 53.5535 218.81H54.8955ZM68.563 215.664C68.563 216.016 68.541 216.383 68.497 216.764H59.983C60.0416 217.527 60.2836 218.113 60.709 218.524C61.149 218.92 61.6843 219.118 62.315 219.118C63.2536 219.118 63.9063 218.722 64.273 217.93H68.277C68.0716 218.737 67.6976 219.463 67.155 220.108C66.627 220.753 65.9596 221.259 65.153 221.626C64.3463 221.993 63.4443 222.176 62.447 222.176C61.2443 222.176 60.1736 221.919 59.235 221.406C58.2963 220.893 57.563 220.159 57.035 219.206C56.507 218.253 56.243 217.138 56.243 215.862C56.243 214.586 56.4996 213.471 57.013 212.518C57.541 211.565 58.2743 210.831 59.213 210.318C60.1516 209.805 61.2296 209.548 62.447 209.548C63.635 209.548 64.691 209.797 65.615 210.296C66.539 210.795 67.2576 211.506 67.771 212.43C68.299 213.354 68.563 214.432 68.563 215.664ZM64.713 214.674C64.713 214.029 64.493 213.515 64.053 213.134C63.613 212.753 63.063 212.562 62.403 212.562C61.7723 212.562 61.237 212.745 60.797 213.112C60.3716 213.479 60.1076 213.999 60.005 214.674H64.713ZM78.9717 209.57V212.694H84.0097V215.598H78.9717V218.986H84.6697V222H75.2097V206.556H84.6697V209.57H78.9717ZM94.592 209.592C96.0294 209.592 97.1734 210.061 98.024 211C98.8894 211.924 99.322 213.2 99.322 214.828V222H95.582V215.334C95.582 214.513 95.3694 213.875 94.944 213.42C94.5187 212.965 93.9467 212.738 93.228 212.738C92.5094 212.738 91.9374 212.965 91.512 213.42C91.0867 213.875 90.874 214.513 90.874 215.334V222H87.112V209.724H90.874V211.352C91.2554 210.809 91.7687 210.384 92.414 210.076C93.0594 209.753 93.7854 209.592 94.592 209.592ZM108.778 218.81V222H106.864C105.5 222 104.437 221.67 103.674 221.01C102.912 220.335 102.53 219.243 102.53 217.732V212.848H101.034V209.724H102.53V206.732H106.292V209.724H108.756V212.848H106.292V217.776C106.292 218.143 106.38 218.407 106.556 218.568C106.732 218.729 107.026 218.81 107.436 218.81H108.778ZM114.636 211.77C115.076 211.095 115.626 210.567 116.286 210.186C116.946 209.79 117.679 209.592 118.486 209.592V213.574H117.452C116.513 213.574 115.809 213.779 115.34 214.19C114.87 214.586 114.636 215.29 114.636 216.302V222H110.874V209.724H114.636V211.77ZM132.824 209.724L125.124 227.83H121.076L123.892 221.582L118.898 209.724H123.1L125.938 217.402L128.754 209.724H132.824Z" fill="white"/>
<path d="M112.912 130.6H112.912C113.529 130.599 114.12 130.353 114.556 129.917C114.992 129.481 115.238 128.89 115.239 128.273V128.273V28.2268V28.2266C115.238 27.6099 114.992 27.0187 114.556 26.5826C114.12 26.1465 113.529 25.901 112.912 25.9H112.912L44.2268 25.9L44.2266 25.9C43.6099 25.901 43.0187 26.1465 42.5826 26.5826C42.1465 27.0187 41.901 27.6099 41.9 28.2266V28.2268L41.9 128.273L41.9 128.273C41.901 128.89 42.1465 129.481 42.5826 129.917C43.0187 130.353 43.6099 130.599 44.2266 130.6H44.2268H112.912ZM44.2268 26.1988L44.2268 26.1988L112.912 26.195C113.451 26.195 113.967 26.4091 114.349 26.7901C114.73 27.1711 114.944 27.6879 114.944 28.2268V128.273C114.944 128.812 114.73 129.329 114.349 129.71C113.967 130.091 113.451 130.305 112.912 130.305H44.2268C43.6879 130.305 43.1711 130.091 42.7901 129.71C42.4091 129.329 42.195 128.812 42.195 128.273V28.2269C42.196 27.6887 42.4105 27.1729 42.7914 26.7926C43.1723 26.4124 43.6886 26.1988 44.2268 26.1988Z" fill="#F0F0F0" stroke="#F0F0F0" stroke-width="0.2"/>
<path d="M99 164.473C139.691 164.473 172.678 162.547 172.678 160.171C172.678 157.796 139.691 155.87 99 155.87C58.3087 155.87 25.3218 157.796 25.3218 160.171C25.3218 162.547 58.3087 164.473 99 164.473Z" fill="#F5F5F5"/>
<path d="M122.437 41.3679H77.3008V160.171H122.437V41.3679Z" fill="#B63D6D"/>
<path opacity="0.8" d="M122.437 41.3679H77.3008V160.171H122.437V41.3679Z" fill="white"/>
<g opacity="0.4">
<path d="M123.513 56.7732C121.863 56.9328 121.145 57.176 120.473 56.2222C119.8 55.2684 117.307 55.0632 116.475 56.1082C115.643 57.1532 115.335 57.841 113.477 57.5674C111.619 57.2938 110.992 57.784 110.703 58.5554C110.414 59.3268 106.143 59.6042 107.366 60.4554L123.22 58.126C123.22 58.126 125.162 56.6136 123.513 56.7732Z" fill="white"/>
<path d="M109.259 48.4815C108.75 47.9457 107.249 47.9647 105.892 48.6373C104.535 49.3099 105.512 46.2015 102.993 47.0717C99.3788 48.3143 100.333 50.2941 98.8354 50.3207C97.3382 50.3473 92.9416 51.5177 95.2368 52.2207L108.537 50.2637C108.537 50.2637 109.772 49.0135 109.259 48.4815Z" fill="white"/>
<path d="M91.8168 69.3473C91.4558 68.9673 90.3918 68.9673 89.4266 69.4613C88.4614 69.9553 89.1644 67.7323 87.3708 68.3479C84.8058 69.2295 85.4708 70.6279 84.422 70.6545C83.3732 70.6811 80.242 71.5019 81.8684 72.0149L91.3 70.6241C91.3 70.6241 92.1816 69.7273 91.8168 69.3473Z" fill="white"/>
</g>
<path opacity="0.07" d="M117.17 136.52V141.004C117.17 141.185 117.099 141.358 116.971 141.486C116.844 141.614 116.671 141.687 116.49 141.688H115.263C115.173 141.688 115.084 141.705 115.001 141.739C114.918 141.773 114.843 141.823 114.779 141.886C114.716 141.949 114.665 142.024 114.631 142.107C114.597 142.19 114.579 142.279 114.579 142.368V143.227C114.579 143.408 114.507 143.582 114.378 143.711C114.25 143.839 114.076 143.911 113.895 143.911H109.335C109.154 143.91 108.98 143.838 108.852 143.71C108.724 143.581 108.652 143.408 108.651 143.227V136.52C108.651 136.34 108.579 136.167 108.452 136.039C108.324 135.911 108.151 135.84 107.971 135.84H107.26C107.079 135.839 106.905 135.766 106.777 135.638C106.649 135.51 106.577 135.337 106.576 135.156V127.438C106.576 127.258 106.504 127.085 106.377 126.957C106.249 126.829 106.076 126.758 105.896 126.758H104.562C104.381 126.758 104.208 126.829 104.08 126.957C103.952 127.084 103.879 127.257 103.878 127.438V132.23C103.869 132.375 103.804 132.51 103.695 132.607C103.587 132.704 103.445 132.754 103.3 132.747C103.156 132.754 103.014 132.704 102.907 132.607C102.799 132.51 102.734 132.374 102.727 132.23V117.965C102.727 117.783 102.655 117.609 102.526 117.481C102.398 117.353 102.224 117.281 102.043 117.281H100.697C100.608 117.281 100.519 117.298 100.436 117.333C100.353 117.367 100.278 117.418 100.215 117.481C100.152 117.545 100.102 117.62 100.068 117.703C100.034 117.786 100.017 117.875 100.017 117.965V132.063C100.017 132.244 99.9451 132.418 99.8169 132.546C99.6886 132.675 99.5146 132.747 99.3332 132.747H99.1698C99.08 132.747 98.991 132.729 98.908 132.695C98.8251 132.66 98.7496 132.61 98.6861 132.546C98.6226 132.483 98.5722 132.407 98.5379 132.324C98.5035 132.241 98.4858 132.152 98.4858 132.063V124.774C98.4868 124.667 98.4621 124.562 98.4136 124.466L94.359 116.35C94.311 116.255 94.2862 116.151 94.2868 116.046V105.805C94.2868 105.715 94.2691 105.626 94.2347 105.543C94.2002 105.461 94.1498 105.385 94.0862 105.322C94.0227 105.259 93.9472 105.209 93.8643 105.175C93.7813 105.141 93.6924 105.124 93.6028 105.124H89.6546C89.4739 105.124 89.3004 105.196 89.1723 105.323C89.0441 105.451 88.9716 105.624 88.9706 105.805V132.063C88.9711 132.152 88.9539 132.241 88.9199 132.324C88.886 132.407 88.8359 132.482 88.7727 132.546C88.7095 132.61 88.6344 132.66 88.5516 132.694C88.4688 132.729 88.38 132.747 88.2904 132.747H88.013C87.9234 132.747 87.8346 132.729 87.7518 132.694C87.669 132.66 87.5939 132.61 87.5307 132.546C87.4675 132.482 87.4174 132.407 87.3835 132.324C87.3495 132.241 87.3323 132.152 87.3328 132.063V122.08C87.3318 121.899 87.2594 121.725 87.1314 121.597C87.0033 121.469 86.8299 121.397 86.6488 121.396H82.7006C82.5195 121.397 82.3461 121.469 82.218 121.597C82.09 121.725 82.0176 121.899 82.0166 122.08V132.066C82.0171 132.156 81.9999 132.245 81.9659 132.328C81.932 132.411 81.8819 132.486 81.8187 132.55C81.7555 132.613 81.6804 132.664 81.5976 132.698C81.5148 132.733 81.426 132.75 81.3364 132.75H80.8006C80.6192 132.75 80.4452 132.822 80.3169 132.951C80.1887 133.079 80.1166 133.253 80.1166 133.434V135.152C80.1166 135.333 80.0451 135.506 79.9176 135.634C79.7901 135.762 79.6171 135.835 79.4364 135.836H79.2464C79.1568 135.836 79.0679 135.853 78.9849 135.887C78.902 135.921 78.8265 135.971 78.763 136.034C78.6994 136.097 78.649 136.172 78.6145 136.255C78.5801 136.338 78.5624 136.427 78.5624 136.516V150.17C78.5624 150.259 78.5801 150.348 78.6145 150.431C78.649 150.514 78.6994 150.589 78.763 150.652C78.8265 150.715 78.902 150.765 78.9849 150.799C79.0679 150.833 79.1568 150.85 79.2464 150.85H119.2C119.38 150.85 119.553 150.778 119.681 150.651C119.808 150.523 119.88 150.35 119.88 150.17V136.52C119.88 136.34 119.808 136.167 119.681 136.039C119.553 135.911 119.38 135.84 119.2 135.84H117.854C117.674 135.84 117.5 135.911 117.372 136.039C117.244 136.166 117.171 136.339 117.17 136.52Z" fill="#B63D6D"/>
<path opacity="0.07" d="M122.308 152.104H77.3008V156.086H122.308V152.104Z" fill="#B63D6D"/>
<path d="M126.762 38.0696V160.171H121.814V43.5188H82.1534V160.171H77.2096V38.0696H126.762Z" fill="#263238"/>
<path d="M124.561 38.0696V160.171H119.618V43.5188H79.957V160.171H75.0094V38.0696H124.561Z" fill="#B63D6D"/>
<path d="M86.4024 74.2823C82.5036 75.3767 75.6484 78.4965 73.4216 80.0013C71.1948 81.5061 71.3658 85.9293 71.3658 85.9293L74.0258 86.1155C74.0258 86.1155 75.3824 83.3377 76.4996 82.6081C77.6168 81.8786 87.474 79.9861 87.474 79.9861L86.4024 74.2823Z" fill="#B63D6D"/>
<path opacity="0.6" d="M71.362 85.9295L74.022 86.1157C74.022 86.1157 75.3786 83.3379 76.4958 82.6083C77.2558 82.0991 82.2908 81.0275 85.2624 80.4233C86.562 80.1611 87.4702 79.9863 87.4702 79.9863L87.189 78.4663L86.4062 74.2863C82.5074 75.3807 75.656 78.5005 73.4254 80.0053C71.1948 81.5101 71.362 85.9295 71.362 85.9295Z" fill="white"/>
<path opacity="0.2" d="M85.2624 80.4232C86.562 80.161 87.4702 79.9862 87.4702 79.9862L87.189 78.4662C86.3859 78.9378 85.7214 79.6128 85.2624 80.4232Z" fill="black"/>
<path d="M107.724 91.5307C107.724 91.5307 102.955 77.8088 103.829 70.5736C100.37 70.5385 96.9174 70.8967 93.5388 71.6415C88.5988 72.8347 86.3986 74.2825 86.3986 74.2825C86.3986 74.2825 86.8432 83.2885 93.2386 95.7829L107.724 91.5307Z" fill="#B63D6D"/>
<path opacity="0.7" d="M86.4024 74.2825C86.4024 74.2825 86.847 83.2885 93.2424 95.7829L107.728 91.5307C106.43 87.685 105.372 83.7621 104.563 79.7848C104.234 78.1431 103.99 76.4853 103.833 74.8183C103.69 73.407 103.69 71.9849 103.833 70.5736C100.373 70.5385 96.9212 70.8967 93.5426 71.6415C88.5836 72.8347 86.4024 74.2825 86.4024 74.2825Z" fill="white"/>
<path opacity="0.2" d="M104.559 79.7849C104.23 78.1431 103.986 76.4853 103.829 74.8183L103.369 74.5485C103.369 74.5485 102.78 77.0223 104.559 79.7849Z" fill="black"/>
<path d="M91.8174 159.266L88.8724 158.772L89.773 151.905L92.7256 152.403L91.8174 159.266Z" fill="#EBB376"/>
<path d="M88.519 158.38L92.1024 158.962C92.1609 158.973 92.2141 159.003 92.2534 159.048C92.2927 159.092 92.3158 159.149 92.319 159.209L92.4596 161.929C92.4621 161.987 92.4532 162.045 92.4334 162.1C92.4136 162.154 92.3832 162.204 92.344 162.247C92.3049 162.289 92.2577 162.324 92.2051 162.348C92.1526 162.373 92.0957 162.387 92.0378 162.389H91.939C90.799 162.176 89.9554 161.964 88.5 161.717C87.6032 161.568 84.8862 161.207 83.6512 160.998C82.4162 160.789 82.4542 159.52 82.9824 159.52C85.3384 159.41 87.1624 159.011 87.9984 158.483C88.1522 158.383 88.3387 158.346 88.519 158.38Z" fill="#263238"/>
<path opacity="0.2" d="M92.7218 152.407L89.773 151.909L89.3094 155.45L92.2582 155.948L92.7218 152.407Z" fill="black"/>
<path d="M88.2492 158.737C88.2637 158.736 88.2774 158.73 88.2883 158.721C88.2992 158.711 88.3068 158.698 88.31 158.684C88.3149 158.671 88.3153 158.657 88.3112 158.644C88.3071 158.631 88.2986 158.62 88.2872 158.612C88.196 158.528 87.341 157.784 86.9876 157.898C86.9486 157.909 86.9136 157.931 86.8867 157.961C86.8597 157.991 86.842 158.029 86.8356 158.069C86.8136 158.137 86.8098 158.21 86.8244 158.281C86.8391 158.352 86.8717 158.417 86.9192 158.471C87.0662 158.611 87.2565 158.697 87.4588 158.715C87.7207 158.751 87.9857 158.758 88.2492 158.737ZM88.063 158.604C87.6996 158.662 87.3277 158.581 87.0218 158.376C86.9919 158.34 86.9716 158.296 86.963 158.25C86.9544 158.203 86.9576 158.155 86.9724 158.11C86.9724 158.053 87.0104 158.031 87.0294 158.034C87.0603 158.025 87.0935 158.025 87.1244 158.034C87.4709 158.162 87.7896 158.356 88.063 158.604Z" fill="#263238"/>
<path d="M88.2644 158.76C88.2764 158.756 88.2869 158.748 88.2949 158.738C88.3029 158.728 88.3081 158.716 88.31 158.703C88.31 158.661 88.3822 157.803 88.0896 157.468C88.0555 157.426 88.0127 157.392 87.9642 157.367C87.9157 157.343 87.8626 157.33 87.8084 157.328C87.7553 157.318 87.7006 157.328 87.6539 157.355C87.6073 157.382 87.5718 157.425 87.5538 157.476C87.4398 157.776 87.9338 158.521 88.196 158.737H88.2302C88.2384 158.749 88.2505 158.757 88.2644 158.76ZM87.987 157.537C88.1471 157.837 88.2146 158.178 88.1808 158.517C87.9148 158.236 87.6222 157.681 87.6906 157.499C87.6906 157.48 87.7134 157.43 87.8046 157.445H87.8388C87.8962 157.456 87.9485 157.485 87.987 157.529V157.537Z" fill="#263238"/>
<path d="M97.5706 106.047C97.5706 106.047 108.119 119.936 113.31 122.9C118.501 125.864 120 124 120 124V117C120 117 119.462 117.044 116.802 115.87C114.142 114.695 106.124 100.149 106.124 100.149L97.5706 106.047Z" fill="#263238"/>
<path opacity="0.2" d="M97.5706 106.047C97.5706 106.047 108.119 119.936 113.31 122.9C119.5 124.5 120 124 120 124L119.5 116.5C119.5 116.5 119.462 117.044 116.802 115.87C114.142 114.695 106.124 100.149 106.124 100.149L97.5706 106.047Z" fill="black"/>
<path d="M90.9092 73.2185H95.0892C95.7979 72.4904 96.3342 71.6126 96.6586 70.6497C94.6522 69.9847 93.3298 66.1809 92.7788 64.0225L91.749 66.3025L90.533 69.0081C91.0317 69.5602 91.4028 70.2154 91.6198 70.9271C91.726 71.3373 91.7158 71.769 91.5902 72.1738C91.4647 72.5785 91.2289 72.9403 90.9092 73.2185Z" fill="#EBB376"/>
<path opacity="0.2" d="M90.552 69.0232C91.0507 69.5754 91.4218 70.2306 91.6388 70.9422C93.1588 70.3228 93.5388 68.1226 93.2652 67.3322C93.1702 67.0206 92.2354 66.6216 91.768 66.3176L90.552 69.0232Z" fill="black"/>
<path d="M87.8502 153.007L94.0404 153.44C94.8764 133.897 102.807 118.678 106.273 112.833C109.738 106.989 112.155 100.065 107.728 91.5535L93.2424 95.7829C93.5562 97.0972 93.9367 98.3946 94.3824 99.6703C95.9024 103.998 97.5592 105.952 97.5592 105.952C87.4018 128.36 87.8502 153.007 87.8502 153.007Z" fill="#263238"/>
<path opacity="0.2" d="M94.3824 99.6702C95.9024 103.998 97.5592 105.952 97.5592 105.952C98.135 104.385 98.8207 102.861 99.6112 101.392C99.5162 101.46 98.0076 102.57 97.7112 103.109C97.7036 103.113 96.1608 102.14 94.3824 99.6702Z" fill="black"/>
<path d="M87.4056 154.55L93.7592 155.618L94.941 153.311L87.5044 152.483L87.4056 154.55Z" fill="#263238"/>
<path opacity="0.3" d="M87.4056 154.55L93.7592 155.618L94.941 153.311L87.5044 152.483L87.4056 154.55Z" fill="white"/>
<path d="M92.9004 61.9476C93.459 64.8584 93.9226 66.538 92.8396 68.3696C91.2246 71.136 87.3486 70.718 85.9274 68.0314C84.6582 65.607 83.9742 61.2484 86.4936 59.3978C87.0479 58.9844 87.6989 58.7198 88.3845 58.6294C89.07 58.5391 89.7673 58.6259 90.4098 58.8816C91.0523 59.1373 91.6186 59.5534 92.0546 60.0901C92.4906 60.6268 92.7818 61.2664 92.9004 61.9476Z" fill="#EBB376"/>
<path d="M87.3914 67.8961C87.6657 67.8659 87.931 67.7799 88.1709 67.6433C88.4107 67.5067 88.6201 67.3225 88.786 67.1019C88.793 67.0864 88.7943 67.0689 88.7897 67.0525C88.785 67.0362 88.7748 67.022 88.7607 67.0124C88.7466 67.0029 88.7296 66.9986 88.7127 67.0004C88.6957 67.0022 88.68 67.0098 88.6682 67.0221C88.4798 67.2644 88.2374 67.4594 87.9603 67.5913C87.6832 67.7233 87.379 67.7886 87.0722 67.7821C87.053 67.7821 87.0347 67.7897 87.0211 67.8033C87.0076 67.8168 87 67.8352 87 67.8543C87 67.8735 87.0076 67.8918 87.0211 67.9054C87.0347 67.9189 87.053 67.9265 87.0722 67.9265C87.1791 67.9223 87.2856 67.9121 87.3914 67.8961Z" fill="#263238"/>
<path d="M88.7508 63.8552C88.8268 64.0832 88.7508 64.3074 88.5798 64.3454C88.4088 64.3834 88.2568 64.2238 88.1998 63.992C88.1428 63.7602 88.1998 63.5398 88.3708 63.5018C88.5418 63.4638 88.6824 63.6196 88.7508 63.8552Z" fill="#263238"/>
<path d="M86.1098 64.5202C86.1488 64.6084 86.1528 64.708 86.1211 64.7991C86.0893 64.8901 86.0242 64.9656 85.9388 65.0104C85.7868 65.0484 85.6158 64.8888 85.5588 64.657C85.5018 64.4252 85.5778 64.2048 85.7298 64.1668C85.8818 64.1288 86.0528 64.2998 86.1098 64.5202Z" fill="#263238"/>
<path d="M86.98 64.4252C86.8812 65.2096 86.6753 65.9767 86.3682 66.7052C86.5574 66.7794 86.7604 66.8114 86.9633 66.7989C87.1661 66.7865 87.3637 66.7298 87.5424 66.633L86.98 64.4252Z" fill="#D58745"/>
<path d="M89.0401 62.3657C89.0332 62.3908 89.0197 62.4136 89.001 62.4317C88.9822 62.4498 88.959 62.4624 88.9337 62.4683C88.7589 62.5002 88.5941 62.5725 88.4522 62.6794C88.3104 62.7862 88.1955 62.9248 88.1167 63.0839C88.1108 63.1014 88.1014 63.1174 88.089 63.131C88.0767 63.1446 88.0616 63.1555 88.0448 63.163C88.0281 63.1705 88.0099 63.1744 87.9915 63.1746C87.9731 63.1747 87.9549 63.171 87.9381 63.1637C87.9035 63.1509 87.8753 63.125 87.8597 63.0916C87.8441 63.0581 87.8422 63.0199 87.8545 62.9851C87.9482 62.782 88.0893 62.6043 88.2658 62.4668C88.4423 62.3293 88.6491 62.236 88.869 62.1947C88.9058 62.1867 88.9442 62.1933 88.9762 62.2132C89.0081 62.2331 89.031 62.2646 89.0401 62.3011C89.0451 62.3224 89.0451 62.3445 89.0401 62.3657Z" fill="#263238"/>
<path d="M84.7395 63.5884C84.7141 63.5752 84.694 63.5538 84.6825 63.5276C84.6773 63.5101 84.6756 63.4918 84.6776 63.4737C84.6796 63.4556 84.6852 63.438 84.694 63.4221C84.7029 63.4062 84.7148 63.3922 84.7291 63.3809C84.7435 63.3697 84.7599 63.3614 84.7775 63.3566C84.9937 63.2951 85.2215 63.2865 85.4417 63.3314C85.6619 63.3764 85.8681 63.4737 86.0429 63.615C86.0562 63.6278 86.0668 63.6431 86.0741 63.6601C86.0813 63.6771 86.0851 63.6953 86.0851 63.7138C86.0851 63.7323 86.0813 63.7505 86.0741 63.7675C86.0668 63.7845 86.0562 63.7998 86.0429 63.8126C86.0161 63.8377 85.9808 63.8517 85.9441 63.8517C85.9074 63.8517 85.8721 63.8377 85.8453 63.8126C85.7039 63.7045 85.5392 63.6311 85.3643 63.5981C85.1895 63.5651 85.0093 63.5735 84.8383 63.6226C84.8022 63.6239 84.767 63.6117 84.7395 63.5884Z" fill="#263238"/>
<path d="M92.8358 64.4898C92.8358 64.4898 90.153 63.7032 89.8414 60.249C88.9736 60.1518 88.0952 60.2339 87.2605 60.4901C86.4258 60.7463 85.6525 61.1713 84.9888 61.7386C84.5708 61.2827 84.2948 60.7149 84.1946 60.1046C84.0654 58.9646 85.27 58.862 85.27 58.862C85.5816 57.4294 91.5476 56.3616 93.25 57.4408C94.8384 58.4402 97.8594 64.4974 94.0974 67.7008C94.0974 67.7046 93.4932 66.9788 92.8358 64.4898Z" fill="#263238"/>
<path d="M94.998 64.7824C94.8839 65.1339 94.7017 65.4595 94.4618 65.7405C94.2218 66.0215 93.9289 66.2525 93.5996 66.4202C92.718 66.861 92.0796 66.1162 92.1708 65.1852C92.2544 64.3568 92.8092 63.1028 93.7744 63.0572C94.7396 63.0116 95.2678 63.9084 94.998 64.7824Z" fill="#EBB376"/>
<path d="M107.728 91.5306L107.23 89.965L92.547 94.392L93.2424 95.7828L107.728 91.5306Z" fill="#263238"/>
<path opacity="0.2" d="M107.728 91.5306L107.23 89.965L92.547 94.392L93.2424 95.7828L107.728 91.5306Z" fill="white"/>
<path d="M96.7726 93.157L97.2248 94.563C97.2328 94.5899 97.2354 94.6182 97.2322 94.6462C97.2291 94.6741 97.2203 94.7011 97.2065 94.7256C97.1926 94.7501 97.174 94.7715 97.1517 94.7886C97.1294 94.8058 97.1038 94.8182 97.0766 94.8252L94.7966 95.4142C94.7477 95.4269 94.6959 95.4211 94.651 95.3979C94.6062 95.3748 94.5714 95.3359 94.5534 95.2888L94.0176 93.9132C94.0076 93.8861 94.0034 93.8571 94.0051 93.8283C94.0069 93.7994 94.0146 93.7713 94.0279 93.7455C94.0411 93.7198 94.0595 93.6971 94.0819 93.6789C94.1043 93.6607 94.1303 93.6473 94.1582 93.6396L96.5256 93.0202C96.5764 93.008 96.63 93.0152 96.6757 93.0406C96.7214 93.0659 96.756 93.1074 96.7726 93.157Z" fill="white"/>
<path d="M99.7632 92.2146L100.288 94.1146L101.021 94.0158L100.428 92.0132L99.7632 92.2146Z" fill="#263238"/>
<path d="M105.634 90.4438L106.326 92.283L106.85 92.2146L106.109 90.3032L105.634 90.4438Z" fill="#263238"/>
<path d="M93.0942 94.2249L93.7402 96.0413L93.364 96.2769L92.547 94.3921L93.0942 94.2249Z" fill="#263238"/>
<path d="M94.542 74.043L93.2348 76.019C93.2348 76.019 95.6136 80.7918 100.371 79.4846C105.129 78.1774 107.158 79.2186 107.158 79.2186L108.211 80.8868L106.463 81.871C106.463 81.871 104.775 80.123 100.489 80.9856C96.2026 81.8482 92.509 78.3256 92.433 76.1254L91.1296 74.4876L92.7712 72.8232L94.542 74.043Z" fill="#B63D6D"/>
<path d="M95.6668 69.6008C95.6668 69.6008 95.207 70.9878 92.7712 72.8232C92.066 72.3831 91.5561 71.6896 91.3462 70.8852L89.602 73.0968C89.7679 74.2158 90.0311 75.3182 90.3886 76.3914L92.8396 73.3514L95.454 75.2818C95.454 75.2818 98.171 72.9486 98.114 70.4596L95.6668 69.6008Z" fill="#B63D6D"/>
<path opacity="0.6" d="M95.6668 69.6008C95.6668 69.6008 95.207 70.9878 92.7712 72.8232C92.066 72.3831 91.5561 71.6896 91.3462 70.8852L89.602 73.0968C89.7679 74.2158 90.0311 75.3182 90.3886 76.3914L92.8396 73.3514L95.454 75.2818C95.454 75.2818 98.171 72.9486 98.114 70.4596L95.6668 69.6008Z" fill="white"/>
<path d="M73.8928 85.6292C73.8928 85.6292 72.6958 84.6146 71.78 85.291L71.438 86.7882C71.438 86.7882 70.9136 88.4754 71.0124 88.7984C71.1112 89.1214 72.5134 90.5008 72.8668 90.3982C73.2202 90.2956 75.0024 89.0036 74.8884 88.5704C74.7744 88.1372 73.8206 86.7882 73.8206 86.7882L73.8928 85.6292Z" fill="#EBB376"/>
<path d="M104.012 76.4826C107.91 75.3882 114.872 72.2684 117.103 70.7826C119.333 69.2968 119.155 64.8546 119.155 64.8546L116.495 64.6722C116.495 64.6722 115.138 67.4462 114.021 68.1758C112.904 68.9054 103.221 70.585 103.221 70.585C102.431 72.8232 104.012 76.4826 104.012 76.4826Z" fill="#B63D6D"/>
<path opacity="0.6" d="M104.012 76.4826C107.91 75.3882 114.872 72.2684 117.103 70.7826C119.333 69.2968 119.155 64.8546 119.155 64.8546L116.495 64.6722C116.495 64.6722 115.138 67.4462 114.021 68.1758C112.904 68.9054 103.221 70.585 103.221 70.585C102.431 72.8232 104.012 76.4826 104.012 76.4826Z" fill="white"/>
<path d="M116.628 65.1358C116.628 65.1358 117.821 66.1542 118.737 65.474L119.082 63.9768C119.082 63.9768 119.607 62.2896 119.508 61.9666C119.409 61.6436 117.988 60.268 117.654 60.3668C117.319 60.4656 115.518 61.7652 115.628 62.1946C115.738 62.624 116.7 63.9768 116.7 63.9768L116.628 65.1358Z" fill="#EBB376"/>
</g>
</g>
<defs>
<filter id="filter0_d_22_6139" x="0.95" y="0.48" width="196.1" height="241.1" filterUnits="userSpaceOnUse" color-interpolation-filters="sRGB">
<feFlood flood-opacity="0" result="BackgroundImageFix"/>
<feColorMatrix in="SourceAlpha" type="matrix" values="0 0 0 0 0 0 0 0 0 0 0 0 0 0 0 0 0 0 127 0" result="hardAlpha"/>
<feOffset dy="1.53"/>
<feGaussianBlur stdDeviation="1.525"/>
<feComposite in2="hardAlpha" operator="out"/>
<feColorMatrix type="matrix" values="0 0 0 0 0.827451 0 0 0 0 0.854902 0 0 0 0 0.886275 0 0 0 1 0"/>
<feBlend mode="normal" in2="BackgroundImageFix" result="effect1_dropShadow_22_6139"/>
<feBlend mode="normal" in="SourceGraphic" in2="effect1_dropShadow_22_6139" result="shape"/>
</filter>
<filter id="filter1_d_22_6139" x="0.95" y="21.9119" width="196.1" height="219.668" filterUnits="userSpaceOnUse" color-interpolation-filters="sRGB">
<feFlood flood-opacity="0" result="BackgroundImageFix"/>
<feColorMatrix in="SourceAlpha" type="matrix" values="0 0 0 0 0 0 0 0 0 0 0 0 0 0 0 0 0 0 127 0" result="hardAlpha"/>
<feOffset dy="1.53"/>
<feGaussianBlur stdDeviation="1.525"/>
<feComposite in2="hardAlpha" operator="out"/>
<feColorMatrix type="matrix" values="0 0 0 0 0.827451 0 0 0 0 0.854902 0 0 0 0 0.886275 0 0 0 1 0"/>
<feBlend mode="normal" in2="BackgroundImageFix" result="effect1_dropShadow_22_6139"/>
<feBlend mode="normal" in="SourceGraphic" in2="effect1_dropShadow_22_6139" result="shape"/>
</filter>
<filter id="filter2_d_22_6139" x="-74.0258" y="102.619" width="258.265" height="258.265" filterUnits="userSpaceOnUse" color-interpolation-filters="sRGB">
<feFlood flood-opacity="0" result="BackgroundImageFix"/>
<feColorMatrix in="SourceAlpha" type="matrix" values="0 0 0 0 0 0 0 0 0 0 0 0 0 0 0 0 0 0 127 0" result="hardAlpha"/>
<feOffset dy="-1"/>
<feGaussianBlur stdDeviation="2"/>
<feComposite in2="hardAlpha" operator="out"/>
<feColorMatrix type="matrix" values="0 0 0 0 1 0 0 0 0 1 0 0 0 0 1 0 0 0 0.82 0"/>
<feBlend mode="normal" in2="BackgroundImageFix" result="effect1_dropShadow_22_6139"/>
<feBlend mode="normal" in="SourceGraphic" in2="effect1_dropShadow_22_6139" result="shape"/>
</filter>
<linearGradient id="paint0_linear_22_6139" x1="94.1057" y1="177.503" x2="-29.3909" y2="270.126" gradientUnits="userSpaceOnUse">
<stop stop-color="white"/>
<stop offset="1" stop-color="#999999"/>
</linearGradient>
<clipPath id="clip0_22_6139">
<rect x="4" y="2" width="190" height="235" rx="16" fill="white"/>
</clipPath>
</defs>
</svg>
