<svg width="198" height="242" viewBox="0 0 198 242" fill="none" xmlns="http://www.w3.org/2000/svg">
<g filter="url(#filter0_d_19_13)">
<g clip-path="url(#clip0_19_13)">
<g filter="url(#filter1_d_19_13)">
<path d="M4 108.471C4 102.111 7.76685 96.3545 13.595 93.8085L171.595 24.7874C182.165 20.17 194 27.9149 194 39.4495V221C194 229.837 186.837 237 178 237H20C11.1634 237 4 229.837 4 221V108.471Z" fill="#3DB678"/>
</g>
<g opacity="0.2" filter="url(#filter2_d_19_13)">
<circle cx="55.1067" cy="232.752" r="125.122" transform="rotate(6.32385 55.1067 232.752)" fill="url(#paint0_linear_19_13)"/>
<circle cx="55.1067" cy="232.752" r="124.872" transform="rotate(6.32385 55.1067 232.752)" stroke="white" stroke-width="0.5"/>
</g>
<path d="M26.616 211.44C26.3373 210.927 25.934 210.538 25.406 210.274C24.8927 209.995 24.284 209.856 23.58 209.856C22.3627 209.856 21.3873 210.259 20.654 211.066C19.9207 211.858 19.554 212.921 19.554 214.256C19.554 215.679 19.9353 216.793 20.698 217.6C21.4753 218.392 22.5387 218.788 23.888 218.788C24.812 218.788 25.5893 218.553 26.22 218.084C26.8653 217.615 27.3347 216.94 27.628 216.06H22.854V213.288H31.038V216.786C30.7593 217.725 30.2827 218.597 29.608 219.404C28.948 220.211 28.1047 220.863 27.078 221.362C26.0513 221.861 24.8927 222.11 23.602 222.11C22.0767 222.11 20.7127 221.78 19.51 221.12C18.322 220.445 17.3907 219.514 16.716 218.326C16.056 217.138 15.726 215.781 15.726 214.256C15.726 212.731 16.056 211.374 16.716 210.186C17.3907 208.983 18.322 208.052 19.51 207.392C20.698 206.717 22.0547 206.38 23.58 206.38C25.428 206.38 26.9827 206.827 28.244 207.722C29.52 208.617 30.3633 209.856 30.774 211.44H26.616ZM32.3738 215.84C32.3738 214.579 32.6085 213.471 33.0778 212.518C33.5618 211.565 34.2145 210.831 35.0358 210.318C35.8571 209.805 36.7738 209.548 37.7858 209.548C38.6511 209.548 39.4065 209.724 40.0518 210.076C40.7118 210.428 41.2178 210.89 41.5698 211.462V209.724H45.3318V222H41.5698V220.262C41.2031 220.834 40.6898 221.296 40.0298 221.648C39.3845 222 38.6291 222.176 37.7638 222.176C36.7665 222.176 35.8571 221.919 35.0358 221.406C34.2145 220.878 33.5618 220.137 33.0778 219.184C32.6085 218.216 32.3738 217.101 32.3738 215.84ZM41.5698 215.862C41.5698 214.923 41.3058 214.183 40.7778 213.64C40.2645 213.097 39.6338 212.826 38.8858 212.826C38.1378 212.826 37.4998 213.097 36.9718 213.64C36.4585 214.168 36.2018 214.901 36.2018 215.84C36.2018 216.779 36.4585 217.527 36.9718 218.084C37.4998 218.627 38.1378 218.898 38.8858 218.898C39.6338 218.898 40.2645 218.627 40.7778 218.084C41.3058 217.541 41.5698 216.801 41.5698 215.862ZM54.8955 218.81V222H52.9815C51.6175 222 50.5541 221.67 49.7915 221.01C49.0288 220.335 48.6475 219.243 48.6475 217.732V212.848H47.1515V209.724H48.6475V206.732H52.4095V209.724H54.8735V212.848H52.4095V217.776C52.4095 218.143 52.4975 218.407 52.6735 218.568C52.8495 218.729 53.1428 218.81 53.5535 218.81H54.8955ZM68.563 215.664C68.563 216.016 68.541 216.383 68.497 216.764H59.983C60.0416 217.527 60.2836 218.113 60.709 218.524C61.149 218.92 61.6843 219.118 62.315 219.118C63.2536 219.118 63.9063 218.722 64.273 217.93H68.277C68.0716 218.737 67.6976 219.463 67.155 220.108C66.627 220.753 65.9596 221.259 65.153 221.626C64.3463 221.993 63.4443 222.176 62.447 222.176C61.2443 222.176 60.1736 221.919 59.235 221.406C58.2963 220.893 57.563 220.159 57.035 219.206C56.507 218.253 56.243 217.138 56.243 215.862C56.243 214.586 56.4996 213.471 57.013 212.518C57.541 211.565 58.2743 210.831 59.213 210.318C60.1516 209.805 61.2296 209.548 62.447 209.548C63.635 209.548 64.691 209.797 65.615 210.296C66.539 210.795 67.2576 211.506 67.771 212.43C68.299 213.354 68.563 214.432 68.563 215.664ZM64.713 214.674C64.713 214.029 64.493 213.515 64.053 213.134C63.613 212.753 63.063 212.562 62.403 212.562C61.7723 212.562 61.237 212.745 60.797 213.112C60.3716 213.479 60.1076 213.999 60.005 214.674H64.713ZM78.9717 209.57V212.694H84.0097V215.598H78.9717V218.986H84.6697V222H75.2097V206.556H84.6697V209.57H78.9717ZM94.372 222L92.018 218.59L90.038 222H85.968L90.016 215.73L85.858 209.724H90.082L92.436 213.112L94.416 209.724H98.486L94.372 215.906L98.596 222H94.372ZM101.938 208.448C101.278 208.448 100.735 208.257 100.31 207.876C99.899 207.48 99.6936 206.996 99.6936 206.424C99.6936 205.837 99.899 205.353 100.31 204.972C100.735 204.576 101.278 204.378 101.938 204.378C102.583 204.378 103.111 204.576 103.522 204.972C103.947 205.353 104.16 205.837 104.16 206.424C104.16 206.996 103.947 207.48 103.522 207.876C103.111 208.257 102.583 208.448 101.938 208.448ZM103.808 209.724V222H100.046V209.724H103.808ZM113.376 218.81V222H111.462C110.098 222 109.035 221.67 108.272 221.01C107.509 220.335 107.128 219.243 107.128 217.732V212.848H105.632V209.724H107.128V206.732H110.89V209.724H113.354V212.848H110.89V217.776C110.89 218.143 110.978 218.407 111.154 218.568C111.33 218.729 111.623 218.81 112.034 218.81H113.376Z" fill="white"/>
<path d="M102.23 164.071C145.637 164.071 180.825 163.038 180.825 161.764C180.825 160.49 145.637 159.458 102.23 159.458C58.8229 159.458 23.6346 160.49 23.6346 161.764C23.6346 163.038 58.8229 164.071 102.23 164.071Z" fill="#F0F0F0"/>
<path d="M124.912 126.6H124.912C125.529 126.599 126.12 126.353 126.556 125.917C126.992 125.481 127.238 124.89 127.239 124.273V124.273V24.2268V24.2266C127.238 23.6099 126.992 23.0187 126.556 22.5826C126.12 22.1465 125.529 21.901 124.912 21.9H124.912L56.2268 21.9L56.2266 21.9C55.6099 21.901 55.0187 22.1465 54.5826 22.5826C54.1465 23.0187 53.901 23.6099 53.9 24.2266V24.2268L53.9 124.273L53.9 124.273C53.901 124.89 54.1465 125.481 54.5826 125.917C55.0187 126.353 55.6099 126.599 56.2266 126.6H56.2268H124.912ZM56.2268 22.1988L56.2268 22.1988L124.912 22.195C125.451 22.195 125.967 22.4091 126.349 22.7901C126.73 23.1711 126.944 23.6879 126.944 24.2268V124.273C126.944 124.812 126.73 125.329 126.349 125.71C125.967 126.091 125.451 126.305 124.912 126.305H56.2268C55.6879 126.305 55.1711 126.091 54.7901 125.71C54.4091 125.329 54.195 124.812 54.195 124.273V24.2269C54.196 23.6887 54.4105 23.1729 54.7914 22.7926C55.1723 22.4124 55.6886 22.1988 56.2268 22.1988Z" fill="#F0F0F0" stroke="#F0F0F0" stroke-width="0.2"/>
<path d="M74.2958 37.8118H86.2924C86.6072 37.8118 86.8624 37.5566 86.8624 37.2418V34.5324C86.8624 34.2176 86.6072 33.9624 86.2924 33.9624H74.2958C73.981 33.9624 73.7258 34.2176 73.7258 34.5324V37.2418C73.7258 37.5566 73.981 37.8118 74.2958 37.8118Z" fill="#F0F0F0"/>
<path d="M67.1328 42.7177H79.1294C79.4442 42.7177 79.6994 42.4625 79.6994 42.1477V39.4383C79.6994 39.1235 79.4442 38.8683 79.1294 38.8683H67.1328C66.818 38.8683 66.5628 39.1235 66.5628 39.4383V42.1477C66.5628 42.4625 66.818 42.7177 67.1328 42.7177Z" fill="#F0F0F0"/>
<path d="M136.787 93.0676H124.79C124.475 93.0676 124.22 93.3228 124.22 93.6376V96.347C124.22 96.6618 124.475 96.917 124.79 96.917H136.787C137.102 96.917 137.357 96.6618 137.357 96.347V93.6376C137.357 93.3228 137.102 93.0676 136.787 93.0676Z" fill="#F0F0F0"/>
<path d="M143.95 97.9734H131.953C131.638 97.9734 131.383 98.2286 131.383 98.5434V101.253C131.383 101.568 131.638 101.823 131.953 101.823H143.95C144.265 101.823 144.52 101.568 144.52 101.253V98.5434C144.52 98.2286 144.265 97.9734 143.95 97.9734Z" fill="#F0F0F0"/>
<path d="M122.119 47.9615H72.4832V149.71H122.119V47.9615Z" fill="#B63D6D"/>
<path opacity="0.2" d="M122.119 47.9615H72.4832V149.71H122.119V47.9615Z" fill="black"/>
<path d="M120.667 148.259V49.417H73.9386V148.259H120.667Z" fill="#B63D6D"/>
<path opacity="0.9" d="M120.667 49.4132H73.9386V149.707H120.667V49.4132Z" fill="white"/>
<path opacity="0.1" d="M120.667 49.4132H83.0016V149.707H120.667V49.4132Z" fill="black"/>
<path d="M56.5498 42.8506V149.707H72.4832V47.9616L56.5498 42.8506Z" fill="#B63D6D"/>
<path opacity="0.2" d="M56.5498 42.8506V149.707H72.4832V47.9616L56.5498 42.8506Z" fill="white"/>
<path d="M60.7184 97.6922C60.7184 99.121 60.1788 100.28 59.5176 100.28C58.8564 100.28 58.3054 99.121 58.3054 97.6922C58.3054 96.2634 58.845 95.1044 59.51 95.1044C60.175 95.1044 60.7184 96.2634 60.7184 97.6922Z" fill="#B63D6D"/>
<path d="M56.5536 42.8506H55.1096V149.707H56.5536V42.8506Z" fill="#B63D6D"/>
<path opacity="0.2" d="M56.5536 42.8506H55.1096V149.707H56.5536V42.8506Z" fill="black"/>
<path d="M94.5042 71.989L91.0348 79.057L90.0886 81.0102C89.8074 81.5928 89.5313 82.173 89.2602 82.7506C88.7358 83.8678 88.238 84.9774 87.7896 86.068C87.5692 86.6266 87.3564 87.208 87.2386 87.6222C87.1086 88.1488 87.0209 88.6851 86.9764 89.2258C86.8586 90.4228 86.8168 91.711 86.7978 92.9992C86.7978 95.5794 86.8206 98.2318 86.8814 100.854L84.2746 101.234C83.6221 98.6051 83.1235 95.9405 82.7812 93.2538C82.5993 91.8673 82.4941 90.4718 82.4658 89.0738C82.4498 88.2858 82.4981 87.4979 82.6102 86.7178C82.7545 85.9527 82.9513 85.1986 83.1992 84.4606C83.6438 83.1002 84.1188 81.8234 84.6356 80.5618C85.1524 79.3002 85.6768 78.0576 86.2316 76.834C87.3374 74.3754 88.5116 71.9814 89.7694 69.595L94.5042 71.989Z" fill="#B63D6D"/>
<path opacity="0.2" d="M90.0887 71.6812V81.0101C89.8075 81.5928 89.5313 82.1729 89.2603 82.7505L90.0887 71.6812Z" fill="black"/>
<path d="M81.6831 105.623V103.24C81.6831 103.201 81.6987 103.163 81.7265 103.135C81.7543 103.108 81.792 103.092 81.8313 103.092H83.1233V102.712H81.8313C81.6902 102.712 81.5548 102.768 81.4551 102.868C81.3553 102.968 81.2993 103.103 81.2993 103.244V105.627L81.6831 105.623Z" fill="#263238"/>
<path d="M90.6054 103.24V105.623H90.9854V103.24C90.9854 103.099 90.9294 102.964 90.8296 102.864C90.7299 102.764 90.5945 102.708 90.4534 102.708H89.1614V103.088H90.4534C90.4938 103.088 90.5324 103.104 90.5609 103.133C90.5894 103.161 90.6054 103.2 90.6054 103.24Z" fill="#263238"/>
<path d="M96.066 106.63V118.638C96.066 118.906 95.9595 119.163 95.77 119.353C95.5804 119.542 95.3233 119.649 95.0552 119.649H77.7234C77.4557 119.648 77.1992 119.541 77.0098 119.351C76.8205 119.162 76.7136 118.906 76.7126 118.638V106.63C76.7137 106.362 76.8206 106.106 77.01 105.918C77.1995 105.729 77.456 105.623 77.7234 105.623H95.0552C95.1878 105.622 95.3192 105.648 95.4418 105.698C95.5644 105.749 95.6758 105.823 95.7698 105.916C95.8637 106.01 95.9382 106.121 95.989 106.244C96.0399 106.366 96.066 106.497 96.066 106.63Z" fill="#263238"/>
<g opacity="0.5">
<path d="M96.066 106.63V118.638C96.066 118.906 95.9595 119.163 95.77 119.353C95.5804 119.542 95.3233 119.649 95.0552 119.649H77.7234C77.4557 119.648 77.1992 119.541 77.0098 119.351C76.8205 119.162 76.7136 118.906 76.7126 118.638V106.63C76.7137 106.362 76.8206 106.106 77.01 105.918C77.1995 105.729 77.456 105.623 77.7234 105.623H95.0552C95.1878 105.622 95.3192 105.648 95.4418 105.698C95.5644 105.749 95.6758 105.823 95.7698 105.916C95.8637 106.01 95.9382 106.121 95.989 106.244C96.0399 106.366 96.066 106.497 96.066 106.63Z" fill="white"/>
</g>
<path d="M93.5238 105.623H92.7562V119.649H93.5238V105.623Z" fill="#263238"/>
<path d="M80.0263 105.623H79.2587V119.649H80.0263V105.623Z" fill="#263238"/>
<path d="M89.5718 102.26H82.5912V103.54H89.5718V102.26Z" fill="#263238"/>
<path opacity="0.3" d="M89.5718 102.26H82.5912V103.54H89.5718V102.26Z" fill="white"/>
<path d="M86.9043 100.497C86.9043 100.497 88.4585 101.69 88.6371 102.169C88.8157 102.647 88.0899 103.791 87.7365 103.772C87.2387 103.742 87.8809 102.476 87.8809 102.476L84.8409 102.408C84.8409 102.408 84.2823 102.199 84.2899 101.222C84.6381 100.905 85.0562 100.673 85.5104 100.547C85.9646 100.421 86.4421 100.404 86.9043 100.497Z" fill="#EBB376"/>
<path d="M88.3255 103.358C88.3255 103.358 88.6599 104.091 88.2305 104.297C87.8011 104.502 85.2931 104.399 84.6965 104.088C84.0999 103.776 84.4229 102.913 84.8789 102.803C85.3349 102.693 87.7555 102.416 88.3255 103.358Z" fill="#EBB376"/>
<path d="M81.854 149.247L80.7178 154.525L82.8116 155.156L84.9206 150.44L81.854 149.247Z" fill="#EBB376"/>
<path d="M82.2986 154.525C82.2986 154.525 83.2486 153.385 83.6134 153.605C83.9782 153.826 83.8034 155.426 83.8034 155.426C83.8034 155.426 85.7984 156.607 86.3912 156.775C86.984 156.942 87.3944 157.386 87.2196 158.576L79.8818 156.991C79.8818 156.991 80.5012 154.354 80.6114 153.906C80.7216 153.457 81.2498 154.16 81.2498 154.16L82.2986 154.525Z" fill="#263238"/>
<path d="M99.7483 96.0469C99.4405 97.6771 99.2809 101.595 99.0795 106.162C98.9389 109.297 98.7793 112.733 98.5323 115.94C98.2245 120.048 97.7723 123.783 97.0731 126.021C94.5765 133.91 84.7307 151.588 84.7307 151.588L81.2841 150.828C81.2841 150.828 86.7713 131.881 87.3641 129.753C87.9569 127.625 89.2641 119.998 89.2641 111.737C89.2641 98.7487 89.2641 95.701 89.2641 95.701L99.7483 96.0469Z" fill="#263238"/>
<path opacity="0.2" d="M99.5697 106.919C99.2467 110.038 98.8857 113.458 98.4525 116.647C97.4759 110.532 97.1605 101.447 97.1605 101.447L99.5697 106.919Z" fill="black"/>
<path d="M80.9611 150.915L85.0043 151.789L85.5781 150.562L81.1435 149.551L80.9611 150.915Z" fill="#B63D6D"/>
<path d="M100.246 150.717V156.117L102.427 156.292L103.495 151.234L100.246 150.717Z" fill="#EBB376"/>
<path d="M101.793 155.783C101.793 155.783 102.477 154.464 102.883 154.605C103.29 154.745 103.453 156.345 103.453 156.345C103.453 156.345 105.65 157.079 106.265 157.105C106.881 157.132 107.375 157.485 107.455 158.694H99.9496C99.9496 158.694 99.999 155.984 100.014 155.521C100.029 155.057 100.687 155.635 100.687 155.635L101.793 155.783Z" fill="#263238"/>
<path d="M97.6469 96.2976C96.8033 96.86 97.2897 100.542 97.4189 102.131C97.6659 105.171 99.5697 109.658 99.8319 113.591C100.136 118.151 100.352 122.711 100.246 125.869C99.9649 133.997 100.029 152.412 100.029 152.412H103.552C103.552 152.412 107.705 134.108 108.465 125.869C109.111 119.029 108.572 99.3832 108.465 95.1272L97.6469 96.2976Z" fill="#263238"/>
<path d="M99.7216 152.538H103.86L104.16 151.219L99.6152 151.162L99.7216 152.538Z" fill="#B63D6D"/>
<path d="M106.474 59.6504C106.516 59.9012 106.417 60.1254 106.254 60.152C106.09 60.1786 105.923 59.9962 105.874 59.7454C105.824 59.4946 105.935 59.2704 106.098 59.2438C106.261 59.2172 106.429 59.3996 106.478 59.6504" fill="#263238"/>
<path d="M106.128 59.9468C106.414 60.6215 106.79 61.2543 107.246 61.8278C107.096 61.9412 106.924 62.0207 106.741 62.0608C106.558 62.1008 106.368 62.1004 106.185 62.0596L106.128 59.9468Z" fill="#D58745"/>
<path d="M105.167 58.3242C105.151 58.3216 105.136 58.316 105.122 58.3075C105.109 58.299 105.097 58.2879 105.087 58.2748C105.077 58.2613 105.069 58.2459 105.064 58.2295C105.06 58.213 105.058 58.1958 105.061 58.1788C105.063 58.1618 105.068 58.1455 105.077 58.1306C105.085 58.1158 105.097 58.1028 105.11 58.0924C105.273 57.9612 105.465 57.8713 105.67 57.8303C105.875 57.7893 106.087 57.7984 106.288 57.8568C106.321 57.8688 106.347 57.893 106.362 57.9242C106.377 57.9554 106.379 57.9912 106.368 58.024C106.356 58.0564 106.332 58.0829 106.3 58.0978C106.269 58.1127 106.233 58.1148 106.201 58.1038C106.041 58.0598 105.874 58.0545 105.712 58.0882C105.55 58.1219 105.398 58.1937 105.27 58.2976C105.256 58.3097 105.239 58.3184 105.222 58.3231C105.204 58.3277 105.185 58.3281 105.167 58.3242Z" fill="#263238"/>
<path d="M101.926 65.9546L98.7299 61.2882C98.3727 63.5682 97.4645 66.9882 96.6057 68.2992C96.6057 68.2992 97.4227 70.45 101.489 69.0782C101.489 69.0668 100.934 67.3264 101.926 65.9546Z" fill="#EBB376"/>
<path d="M96.2712 67.2846C96.2712 67.2846 96.6512 65.985 97.7038 65.6582C97.7038 65.6582 100.58 66.5018 101.629 66.4714C101.767 66.5983 101.875 66.7539 101.946 66.9273C102.017 67.1007 102.049 67.2875 102.04 67.4746C102.04 67.4746 97.415 67.6152 96.2712 67.2846Z" fill="#B63D6D"/>
<path d="M98.5513 59.2705C98.7945 62.0103 98.7945 63.6253 100.219 64.9971C102.363 67.0605 105.718 65.7153 106.299 62.9565C106.824 60.4751 106.337 56.4091 103.639 55.3907C103.041 55.1583 102.392 55.0835 101.757 55.1735C101.121 55.2635 100.519 55.5152 100.008 55.9046C99.4974 56.294 99.0953 56.808 98.8402 57.3973C98.5851 57.9867 98.4856 58.6316 98.5513 59.2705Z" fill="#EBB376"/>
<path d="M106.185 56.5458C104.73 58.575 105.783 59.2704 105.391 60.133C105 60.9956 104.232 59.0918 103.457 61.216C102.682 63.3402 99.8091 63.9102 99.8091 63.9102C99.6273 63.7341 99.4117 63.5968 99.1752 63.5066C98.9387 63.4164 98.6863 63.3754 98.4335 63.3858C92.5169 56.9524 97.9243 55.5958 97.9243 55.5958C97.9243 55.5958 98.1675 54.509 99.7901 54.0226C101.086 53.6426 101.356 53.9238 103.21 53.6426C105.064 53.3614 105.95 53.122 106.839 53.9086C107.542 54.547 106.185 56.5458 106.185 56.5458Z" fill="#263238"/>
<path d="M102.986 60.1597C103.05 60.841 103.337 61.4822 103.803 61.9837C104.418 62.6373 105.042 62.2079 105.133 61.3985C105.213 60.6651 104.992 59.4415 104.244 59.0919C103.495 58.7423 102.921 59.3389 102.986 60.1597Z" fill="#EBB376"/>
<path d="M109.879 89.8452C109.845 91.521 109.761 93.2652 109.617 95.055C109.564 95.7428 109.499 96.4382 109.427 97.145C100.607 100.25 88.4053 96.841 88.4053 96.841C88.8081 95.112 89.5263 89.9364 89.8303 86.1554C90.2103 81.4472 90.2673 77.7954 89.5491 72.6844C89.1995 70.203 89.7543 67.885 92.1255 67.5772L93.1743 67.4594C97.2777 66.9683 101.431 67.0822 105.501 67.7976C106.449 67.9926 107.306 68.495 107.939 69.2268C108.571 69.9585 108.945 70.8788 109.001 71.8446C109.355 76.4008 110.046 82.534 109.879 89.8452Z" fill="#B63D6D"/>
<path opacity="0.2" d="M96.2712 67.2847C96.2712 67.2847 96.921 68.4019 98.8932 68.4019C100.035 68.4192 101.148 68.0421 102.043 67.3341L102.72 67.3987C102.72 67.3987 100.599 69.1619 98.5398 68.8997C96.4802 68.6375 96.2598 67.2847 96.2598 67.2847" fill="black"/>
<path opacity="0.2" d="M109.879 89.8452C109.845 91.521 109.761 93.2653 109.617 95.0551C108.446 94.0443 106.759 92.3229 106.128 90.3013C105.121 87.0713 104.228 76.8188 104.228 76.8188L109.879 89.8452Z" fill="black"/>
<path d="M108.788 71.0542C109.168 73.5584 109.548 76.1006 109.898 78.6162C110.08 79.874 110.255 81.1318 110.453 82.3782C110.65 83.6246 110.852 84.8558 111.084 86.03C111.185 86.5707 111.318 87.1049 111.483 87.6298L111.608 88.0098L111.771 88.3898C111.87 88.652 111.996 88.9256 112.121 89.1992C112.619 90.2898 113.204 91.4032 113.793 92.5166C114.994 94.7358 116.229 97.0196 117.49 99.235L115.868 100.835C113.858 99.2046 112.034 96.7308 110.491 94.5876C109.731 93.516 108.971 92.4178 108.264 91.236C108.085 90.9396 107.907 90.647 107.74 90.3202L107.485 89.8414C107.401 89.6742 107.322 89.488 107.242 89.3132C106.947 88.6337 106.693 87.937 106.482 87.227C105.75 84.677 105.15 82.0908 104.684 79.4788C104.198 76.91 103.814 74.3526 103.51 71.7534L108.788 71.0542Z" fill="#B63D6D"/>
<path d="M115.868 100.831C115.868 100.831 116.248 104.855 116.97 104.912C117.164 104.912 117.24 104.487 117.145 103.426C117.145 103.426 118.186 105.744 118.478 105.995C119.884 107.215 119.812 103.658 119.269 102.229C118.796 101.163 118.199 100.157 117.49 99.2312L115.868 100.831Z" fill="#EBB376"/>
</g>
</g>
<defs>
<filter id="filter0_d_19_13" x="0.95" y="0.48" width="196.1" height="241.1" filterUnits="userSpaceOnUse" color-interpolation-filters="sRGB">
<feFlood flood-opacity="0" result="BackgroundImageFix"/>
<feColorMatrix in="SourceAlpha" type="matrix" values="0 0 0 0 0 0 0 0 0 0 0 0 0 0 0 0 0 0 127 0" result="hardAlpha"/>
<feOffset dy="1.53"/>
<feGaussianBlur stdDeviation="1.525"/>
<feComposite in2="hardAlpha" operator="out"/>
<feColorMatrix type="matrix" values="0 0 0 0 0.827451 0 0 0 0 0.854902 0 0 0 0 0.886275 0 0 0 1 0"/>
<feBlend mode="normal" in2="BackgroundImageFix" result="effect1_dropShadow_19_13"/>
<feBlend mode="normal" in="SourceGraphic" in2="effect1_dropShadow_19_13" result="shape"/>
</filter>
<filter id="filter1_d_19_13" x="0.95" y="21.9119" width="196.1" height="219.668" filterUnits="userSpaceOnUse" color-interpolation-filters="sRGB">
<feFlood flood-opacity="0" result="BackgroundImageFix"/>
<feColorMatrix in="SourceAlpha" type="matrix" values="0 0 0 0 0 0 0 0 0 0 0 0 0 0 0 0 0 0 127 0" result="hardAlpha"/>
<feOffset dy="1.53"/>
<feGaussianBlur stdDeviation="1.525"/>
<feComposite in2="hardAlpha" operator="out"/>
<feColorMatrix type="matrix" values="0 0 0 0 0.827451 0 0 0 0 0.854902 0 0 0 0 0.886275 0 0 0 1 0"/>
<feBlend mode="normal" in2="BackgroundImageFix" result="effect1_dropShadow_19_13"/>
<feBlend mode="normal" in="SourceGraphic" in2="effect1_dropShadow_19_13" result="shape"/>
</filter>
<filter id="filter2_d_19_13" x="-74.0259" y="102.619" width="258.265" height="258.265" filterUnits="userSpaceOnUse" color-interpolation-filters="sRGB">
<feFlood flood-opacity="0" result="BackgroundImageFix"/>
<feColorMatrix in="SourceAlpha" type="matrix" values="0 0 0 0 0 0 0 0 0 0 0 0 0 0 0 0 0 0 127 0" result="hardAlpha"/>
<feOffset dy="-1"/>
<feGaussianBlur stdDeviation="2"/>
<feComposite in2="hardAlpha" operator="out"/>
<feColorMatrix type="matrix" values="0 0 0 0 1 0 0 0 0 1 0 0 0 0 1 0 0 0 0.82 0"/>
<feBlend mode="normal" in2="BackgroundImageFix" result="effect1_dropShadow_19_13"/>
<feBlend mode="normal" in="SourceGraphic" in2="effect1_dropShadow_19_13" result="shape"/>
</filter>
<linearGradient id="paint0_linear_19_13" x1="94.1056" y1="177.503" x2="-29.391" y2="270.126" gradientUnits="userSpaceOnUse">
<stop stop-color="white"/>
<stop offset="1" stop-color="#999999"/>
</linearGradient>
<clipPath id="clip0_19_13">
<rect x="4" y="2" width="190" height="235" rx="16" fill="white"/>
</clipPath>
</defs>
</svg>
