<svg width="30" height="32" viewBox="0 0 30 32" fill="none" xmlns="http://www.w3.org/2000/svg">
<path d="M9.42857 30H5.71429C3.66294 30 2 28.3684 2 26.3556V13.454C2 12.39 2.47381 11.3793 3.29707 10.6869L12.5827 2.87737C13.9737 1.70754 16.0263 1.70754 17.4173 2.87737L26.703 10.6869C27.5262 11.3793 28 12.39 28 13.454V26.3556C28 28.3684 26.3371 30 24.2857 30H20.5714M9.42857 30V19.0667C9.42857 18.0602 10.2601 17.2444 11.2857 17.2444H18.7143C19.74 17.2444 20.5714 18.0602 20.5714 19.0667V30M9.42857 30H20.5714" stroke="white" stroke-width="3" stroke-linecap="round" stroke-linejoin="round"/>
</svg>
