<svg width="140" height="94" viewBox="0 0 140 94" fill="none" xmlns="http://www.w3.org/2000/svg">
<path d="M127.917 45.4227C124.335 38.9047 119.11 33.3606 112.817 29.1625C102.527 22.2949 83.0031 11.1879 68.4505 14.4572C47.7697 19.1008 1.19079 48.316 8.21319 60.8969C15.2356 73.4779 30.9865 81.4641 30.9865 81.4641H114.445C118.643 81.4078 127.678 78.1027 131.09 57.4133C131.695 53.7454 130.09 49.3763 127.917 45.4227Z" fill="#56AA7A"/>
<path opacity="0.7" d="M127.917 45.4227C124.335 38.9047 119.11 33.3606 112.817 29.1625C102.527 22.2949 83.0031 11.1879 68.4505 14.4572C47.7697 19.1008 1.19079 48.316 8.21319 60.8969C15.2356 73.4779 30.9865 81.4641 30.9865 81.4641H114.445C118.643 81.4078 127.678 78.1027 131.09 57.4133C131.695 53.7454 130.09 49.3763 127.917 45.4227Z" fill="white"/>
<path d="M20.4369 80.9237C26.7534 80.9237 31.8738 75.5682 31.8738 68.9618C31.8738 62.3555 26.7534 57 20.4369 57C14.1205 57 9 62.3555 9 68.9618C9 75.5682 14.1205 80.9237 20.4369 80.9237Z" fill="#56AA7A"/>
<path opacity="0.4" d="M20.4369 80.9237C26.7534 80.9237 31.8738 75.5682 31.8738 68.9618C31.8738 62.3555 26.7534 57 20.4369 57C14.1205 57 9 62.3555 9 68.9618C9 75.5682 14.1205 80.9237 20.4369 80.9237Z" fill="white"/>
<path d="M21.8621 75.4644L20.2367 77.2142L20.1737 73.341L21.5155 71.5305L20.1589 72.4173L20.0977 68.7797H19.9217L19.8976 70.4743L18.8541 69.8395L19.8864 71.3612L19.8308 75.4552L17.7866 74.537L19.7827 76.4065L19.4528 82.1933H20.4387L20.2719 78.1931L21.8621 75.4644Z" fill="#263238"/>
<path d="M104.26 48.7222C104.26 48.7222 114.025 49.6808 118.975 55.6902C118.975 55.6902 124.204 48.7277 133.596 48.8712C135.891 46.1224 137.352 42.783 137.81 39.2418C138.267 35.7006 137.702 32.1032 136.179 28.8686C134.657 25.634 132.241 22.8952 129.212 20.9711C126.183 19.0469 122.665 18.0167 119.069 18.0002C115.473 17.9837 111.947 18.9818 108.9 20.8781C105.853 22.7744 103.411 25.4909 101.859 28.7115C100.307 31.932 99.7083 35.524 100.133 39.0693C100.557 42.6146 101.987 45.9672 104.256 48.7369L104.26 48.7222Z" fill="#56AA7A"/>
<path opacity="0.4" d="M104.26 48.7222C104.26 48.7222 114.025 49.6808 118.975 55.6902C118.975 55.6902 124.204 48.7277 133.596 48.8712C135.891 46.1224 137.352 42.783 137.81 39.2418C138.267 35.7006 137.702 32.1032 136.179 28.8686C134.657 25.634 132.241 22.8952 129.212 20.9711C126.183 19.0469 122.665 18.0167 119.069 18.0002C115.473 17.9837 111.947 18.9818 108.9 20.8781C105.853 22.7744 103.411 25.4909 101.859 28.7115C100.307 31.932 99.7083 35.524 100.133 39.0693C100.557 42.6146 101.987 45.9672 104.256 48.7369L104.26 48.7222Z" fill="white"/>
<path d="M109.751 41.9123C114.629 43.4469 117.658 47.9475 118.449 49.2465L118.377 81.2717H119.783L119.572 53.1749C120.636 51.576 123.679 47.585 128.379 46.1609C128.379 46.1609 122.797 47.4746 119.537 51.8906L119.352 45.1636C120.154 43.8866 123.297 39.3547 128.375 37.8146C128.375 37.8146 122.537 39.1873 119.314 43.848L119.129 37.0694L119.142 37.1596C119.142 37.1596 122.439 31.2716 128.374 29.4684C128.374 29.4684 122.258 30.9073 119.096 35.8329L118.647 26.7084L118.508 39.7871C115.404 35.1025 109.748 33.7151 109.748 33.7151C114.752 35.2865 117.802 39.9711 118.499 41.1413L118.455 47.8831C115.335 43.2776 109.751 41.9123 109.751 41.9123Z" fill="#263238"/>
<path d="M125.877 80.0979C132.193 80.0979 137.314 74.7424 137.314 68.136C137.314 61.5297 132.193 56.1742 125.877 56.1742C119.56 56.1742 114.44 61.5297 114.44 68.136C114.44 74.7424 119.56 80.0979 125.877 80.0979Z" fill="#56AA7A"/>
<path opacity="0.4" d="M125.877 80.0979C132.193 80.0979 137.314 74.7424 137.314 68.136C137.314 61.5297 132.193 56.1742 125.877 56.1742C119.56 56.1742 114.44 61.5297 114.44 68.136C114.44 74.7424 119.56 80.0979 125.877 80.0979Z" fill="white"/>
<path d="M127.302 74.6386L125.677 76.3884L125.612 72.5152L126.954 70.7047L125.597 71.5915L125.538 67.9539H125.36L125.338 69.6485L124.292 69.0137L125.325 70.5354L125.271 74.6294L123.227 73.7112L125.223 75.5807L124.893 81.3675H125.877L125.712 77.3673L127.302 74.6386Z" fill="#263238"/>
<path d="M18.4912 74.5909C18.213 74.6736 17.5728 74.5777 17.5728 74.5777C17.5728 74.5777 17.7594 74.1716 17.7781 74.1472C17.9648 73.8689 18.4632 73.4347 18.8197 73.5305C18.8784 73.548 18.9329 73.5777 18.9795 73.6177C19.0261 73.6577 19.0639 73.7072 19.0903 73.7629C19.1167 73.8185 19.1312 73.8792 19.1328 73.9409C19.1344 74.0025 19.1231 74.0639 19.0997 74.1209C19.0382 74.239 18.9519 74.3422 18.8468 74.4233C18.7417 74.5045 18.6204 74.5617 18.4912 74.5909Z" fill="#263238"/>
<path d="M12.5063 74.3221C12.5063 74.3221 12.4429 73.8765 12.4429 73.8483C12.4429 73.5174 12.6295 72.8726 12.9711 72.7542C13.0299 72.7355 13.0919 72.7297 13.153 72.7369C13.2142 72.7441 13.2731 72.7642 13.326 72.796C13.3789 72.8278 13.4245 72.8705 13.4599 72.9213C13.4952 72.972 13.5195 73.0298 13.5311 73.0907C13.5447 73.2236 13.5294 73.3578 13.4862 73.4841C13.443 73.6104 13.3729 73.7257 13.281 73.822C13.0962 74.0457 12.5063 74.3221 12.5063 74.3221Z" fill="#263238"/>
<path d="M11.1382 73.1321C11.3829 73.2261 11.6403 73.2825 11.9016 73.2994C11.9595 73.3765 12.0174 73.4611 12.0883 73.5551C12.1984 73.7224 12.3216 73.9104 12.443 74.1191C12.4747 74.1755 12.5064 74.2394 12.54 74.3071C12.4635 74.2168 12.3534 74.0946 12.3534 74.0833C12.1406 73.8953 11.6067 73.6303 11.3323 73.7901C11.2861 73.8179 11.2463 73.8552 11.2154 73.8996C11.1845 73.944 11.1632 73.9945 11.153 74.0477C11.1428 74.1009 11.1438 74.1557 11.1561 74.2085C11.1683 74.2613 11.1915 74.3109 11.224 74.3541C11.3022 74.4412 11.3984 74.51 11.5058 74.5558C11.6131 74.6016 11.7291 74.6232 11.8456 74.6191C12.1073 74.5896 12.3628 74.5198 12.6035 74.4123C12.6726 74.5458 12.7416 74.6868 12.8051 74.8372C12.9167 75.1065 13.0041 75.3852 13.0664 75.6701H13.0496C12.9899 75.5779 12.863 75.3881 12.848 75.3749C12.6614 75.1549 12.163 74.841 11.8643 74.9707C11.8154 74.9934 11.7718 75.0261 11.7363 75.0669C11.7008 75.1077 11.6743 75.1555 11.6585 75.2074C11.6426 75.2592 11.6378 75.3138 11.6443 75.3676C11.6508 75.4214 11.6685 75.4732 11.6963 75.5197C11.7645 75.6146 11.8524 75.6934 11.954 75.7506C12.0556 75.8077 12.1683 75.8418 12.2843 75.8505C12.5536 75.8477 12.8209 75.8046 13.0776 75.7227C13.1381 76.0111 13.1799 76.3031 13.2027 76.5969C13.2195 76.8131 13.2288 77.0349 13.2363 77.2568C13.1971 77.191 13.0272 76.9409 13.0123 76.924C12.8256 76.7041 12.3272 76.392 12.0286 76.5198C11.9797 76.5425 11.9361 76.5753 11.9006 76.616C11.8651 76.6568 11.8386 76.7047 11.8227 76.7565C11.8069 76.8083 11.802 76.8629 11.8086 76.9167C11.8151 76.9705 11.8328 77.0223 11.8606 77.0688C11.9287 77.164 12.0165 77.2431 12.1181 77.3006C12.2197 77.358 12.3324 77.3925 12.4486 77.4015C12.7166 77.3989 12.9828 77.3558 13.2382 77.2737C13.2382 77.3752 13.2382 77.4749 13.2382 77.5764C13.2382 77.9054 13.2531 78.2363 13.2699 78.5615C13.2699 78.6743 13.2848 78.7852 13.2942 78.8961C13.2307 78.8003 13.1075 78.6273 13.1075 78.6141C12.9208 78.3942 12.4224 78.0802 12.1238 78.2099C12.0749 78.2326 12.0313 78.2654 11.9958 78.3062C11.9603 78.3469 11.9338 78.3948 11.9179 78.4466C11.9021 78.4984 11.8972 78.553 11.9038 78.6068C11.9103 78.6606 11.928 78.7125 11.9558 78.7589C12.024 78.8538 12.1119 78.9327 12.2135 78.9898C12.315 79.047 12.4278 79.0811 12.5438 79.0898C12.8028 79.0903 13.0604 79.0503 13.3072 78.9713C13.324 79.1593 13.3446 79.3473 13.3744 79.5184C13.3875 79.5955 13.3968 79.6745 13.4155 79.7478C13.4342 79.8211 13.4472 79.8963 13.464 79.9677C13.5014 80.1181 13.5368 80.2554 13.576 80.3945C13.5966 80.4641 13.6152 80.5299 13.6358 80.5975C13.5854 80.4904 13.5051 80.3212 13.4958 80.3061C13.3408 80.0599 12.8984 79.6745 12.583 79.7572C12.5308 79.7716 12.4824 79.7972 12.441 79.8324C12.3997 79.8675 12.3664 79.9112 12.3435 79.9606C12.3206 80.0099 12.3086 80.0637 12.3084 80.1182C12.3082 80.1726 12.3197 80.2265 12.3422 80.2761C12.3953 80.3821 12.4711 80.475 12.564 80.5481C12.6569 80.6212 12.7648 80.6728 12.8798 80.6991C13.1434 80.739 13.4114 80.739 13.675 80.6991C13.7235 80.8626 13.772 81.0243 13.8224 81.1728C13.8728 81.3213 13.899 81.4097 13.9382 81.5187H14.151C14.1024 81.3909 14.0539 81.2555 14.0035 81.1108C13.9531 80.966 13.9083 80.8344 13.8616 80.6878C14.1026 80.5947 14.3294 80.4681 14.5355 80.3118C14.6736 80.4003 14.8163 80.4813 14.963 80.5543C14.9126 80.7179 14.8659 80.8795 14.8248 81.0318C14.7838 81.1841 14.7371 81.3646 14.6998 81.515H14.9088C14.9387 81.3777 14.9723 81.2349 15.0115 81.0807C15.0507 80.9265 15.0843 80.7968 15.1254 80.6483C15.3847 80.7083 15.6515 80.7286 15.9168 80.7085C16.0317 80.6905 16.1413 80.6475 16.238 80.5826C16.3347 80.5177 16.4162 80.4323 16.4768 80.3325C16.5005 80.2838 16.5138 80.2306 16.5158 80.1764C16.5178 80.1222 16.5084 80.0682 16.4884 80.0178C16.4683 79.9675 16.438 79.922 16.3993 79.8842C16.3607 79.8464 16.3146 79.8172 16.264 79.7985C15.956 79.6951 15.4875 80.0486 15.3176 80.2836C15.3064 80.2986 15.1963 80.4904 15.1422 80.59C15.1664 80.4998 15.1926 80.4114 15.2187 80.3174C15.2579 80.1839 15.3027 80.0429 15.3475 79.9057C15.3718 79.8361 15.396 79.7647 15.4222 79.6933C15.4483 79.6218 15.4782 79.5541 15.5062 79.4827C15.5491 79.3812 15.5995 79.2778 15.648 79.1725C15.8866 79.2675 16.1386 79.324 16.3947 79.3398C16.5084 79.3361 16.6199 79.308 16.7219 79.2574C16.824 79.2068 16.9141 79.1349 16.9864 79.0465C17.0178 79.0019 17.0394 78.951 17.0498 78.8973C17.0603 78.8436 17.0593 78.7883 17.0469 78.735C17.0346 78.6817 17.0112 78.6316 16.9782 78.5881C16.9453 78.5446 16.9035 78.5086 16.8558 78.4825C16.5683 78.334 16.0512 78.6104 15.8478 78.8172C15.8478 78.8172 15.8011 78.8717 15.7563 78.93C15.8073 78.8297 15.8596 78.7301 15.9131 78.6311C16.0699 78.3491 16.2398 78.0671 16.4078 77.7832L16.5104 77.6065C16.7529 77.7025 17.0084 77.7608 17.2683 77.7794C17.3848 77.7788 17.4998 77.7526 17.6053 77.7026C17.7107 77.6526 17.804 77.58 17.8787 77.4899C17.9101 77.4452 17.9317 77.3944 17.9421 77.3406C17.9525 77.2869 17.9515 77.2316 17.9392 77.1783C17.9268 77.1251 17.9034 77.075 17.8705 77.0315C17.8375 76.988 17.7958 76.952 17.748 76.9259C17.4587 76.7774 16.9435 77.0537 16.7382 77.2605L16.6336 77.3903C16.7232 77.2361 16.8203 77.0801 16.8912 76.9221C17.0338 76.6525 17.1585 76.3736 17.2646 76.0874C17.5129 76.19 17.7755 76.2534 18.043 76.2754C18.1595 76.2748 18.2745 76.2486 18.3799 76.1986C18.4854 76.1486 18.5787 76.076 18.6534 75.9859C18.6847 75.9412 18.7063 75.8904 18.7168 75.8366C18.7272 75.7829 18.7262 75.7276 18.7139 75.6743C18.7015 75.6211 18.6781 75.571 18.6451 75.5275C18.6122 75.484 18.5705 75.448 18.5227 75.4219C18.2334 75.2734 17.7182 75.5516 17.5128 75.7565C17.4979 75.7716 17.3262 75.9803 17.2776 76.0573C17.3731 75.7741 17.443 75.4828 17.4867 75.1869C17.5282 74.923 17.5537 74.6568 17.5632 74.3898C17.5744 74.1416 17.5632 73.9141 17.5632 73.713C17.5632 73.6039 17.5539 73.5062 17.5483 73.4122C17.5483 73.4122 17.6883 73.0362 17.6939 73.0174C17.763 72.7354 17.7294 72.1469 17.4531 71.9759C17.4058 71.9491 17.3535 71.9327 17.2994 71.9277C17.2454 71.9228 17.1909 71.9294 17.1396 71.9472C17.0883 71.9649 17.0414 71.9934 17.0018 72.0308C16.9622 72.0681 16.9309 72.1135 16.9099 72.1639C16.8726 72.2749 16.8598 72.3929 16.8724 72.5094C16.8849 72.626 16.9226 72.7384 16.9827 72.8388C17.1342 73.0542 17.3181 73.2445 17.5278 73.4028C17.5278 73.4987 17.5278 73.6021 17.5371 73.7167C17.5371 73.916 17.5371 74.1435 17.5203 74.3898C17.5203 74.4556 17.5091 74.5251 17.5016 74.5947C17.4886 74.4763 17.468 74.3165 17.4643 74.3014C17.3952 74.0175 17.091 73.5118 16.7718 73.4893C16.7181 73.4871 16.6646 73.4962 16.6146 73.5162C16.5647 73.5361 16.5194 73.5663 16.4818 73.6049C16.4441 73.6435 16.4149 73.6897 16.3961 73.7403C16.3772 73.791 16.3691 73.8451 16.3723 73.8991C16.3902 74.0148 16.4328 74.1251 16.4973 74.2225C16.5618 74.3199 16.6465 74.402 16.7456 74.4631C16.9805 74.5836 17.2323 74.6673 17.4923 74.7113C17.4774 74.8617 17.4568 75.0177 17.427 75.1775C17.3768 75.4694 17.3013 75.7563 17.2011 76.0348H17.1824C17.1824 75.9239 17.1824 75.6926 17.1824 75.6738C17.1432 75.3862 16.9024 74.8485 16.5832 74.7902C16.53 74.7823 16.4757 74.7857 16.4238 74.8001C16.3719 74.8145 16.3236 74.8397 16.282 74.8741C16.2403 74.9084 16.2063 74.9511 16.1819 74.9995C16.1576 75.0479 16.1436 75.1008 16.1408 75.1549C16.146 75.2721 16.1764 75.3868 16.2299 75.491C16.2834 75.5952 16.3588 75.6864 16.4507 75.7584C16.6765 75.9064 16.9232 76.0192 17.1824 76.0931C17.0749 76.3665 16.9502 76.6327 16.8091 76.8902C16.7064 77.0782 16.5926 77.2662 16.4768 77.4542C16.4768 77.3771 16.4768 77.0782 16.4768 77.0537C16.4395 76.7642 16.1968 76.2284 15.8776 76.1701C15.8242 76.1603 15.7693 76.1623 15.7168 76.176C15.6642 76.1897 15.6153 76.2148 15.5733 76.2495C15.5314 76.2843 15.4975 76.3278 15.474 76.3771C15.4504 76.4263 15.4379 76.4802 15.4371 76.5349C15.4418 76.6522 15.472 76.767 15.5255 76.8713C15.5791 76.9755 15.6547 77.0667 15.747 77.1383C15.9712 77.2851 16.216 77.3972 16.4731 77.4711L16.3163 77.7268C16.1427 78.0069 15.9672 78.2908 15.803 78.5671C15.7451 78.6649 15.6928 78.7551 15.6387 78.8604C15.6387 78.7439 15.6387 78.5333 15.6387 78.5164C15.6014 78.2269 15.3587 77.6911 15.0395 77.6328C14.9861 77.6229 14.9312 77.6249 14.8787 77.6387C14.8261 77.6524 14.7771 77.6775 14.7352 77.7122C14.6933 77.7469 14.6593 77.7904 14.6358 77.8397C14.6123 77.889 14.5997 77.9428 14.599 77.9975C14.6038 78.1146 14.6339 78.2292 14.6871 78.3334C14.7402 78.4376 14.8153 78.5289 14.907 78.601C15.123 78.7445 15.3598 78.8536 15.6088 78.9243C15.5211 79.0898 15.439 79.2533 15.3643 79.4188C15.3344 79.4902 15.299 79.5617 15.2728 79.6331C15.2467 79.7045 15.2206 79.7741 15.1926 79.8437C15.144 79.9903 15.0974 80.1257 15.0544 80.261C15.032 80.3306 15.0134 80.3964 14.9928 80.4641C15.0096 80.3456 15.0339 80.1595 15.0339 80.1426C15.0339 79.8512 14.8827 79.2853 14.5766 79.1781C14.5251 79.1618 14.4707 79.1565 14.4171 79.1627C14.3634 79.1689 14.3117 79.1864 14.2652 79.214C14.2187 79.2417 14.1785 79.2789 14.1473 79.3233C14.116 79.3676 14.0944 79.4181 14.0838 79.4714C14.0782 79.4994 14.0745 79.5276 14.0726 79.556C13.9258 79.7695 13.8364 80.0175 13.8131 80.2761C13.8131 80.293 13.8243 80.5148 13.8355 80.6276C13.8056 80.5393 13.7776 80.4509 13.7496 80.3588C13.7086 80.2234 13.6694 80.0824 13.6302 79.9433C13.6134 79.8719 13.5947 79.7985 13.5779 79.7252C13.5611 79.6519 13.548 79.5767 13.5331 79.5034C13.5126 79.3925 13.4976 79.2797 13.4808 79.165C13.729 79.1109 13.9672 79.0176 14.1864 78.8886C14.2835 78.8235 14.3652 78.7377 14.4258 78.6373C14.4865 78.537 14.5245 78.4245 14.5374 78.3077C14.5402 78.2531 14.5311 78.1985 14.5108 78.1477C14.4905 78.097 14.4595 78.0513 14.4198 78.0139C14.3802 77.9765 14.3329 77.9482 14.2813 77.9311C14.2297 77.914 14.1751 77.9084 14.1211 77.9148C13.8 77.9505 13.5219 78.4675 13.464 78.7533C13.464 78.7627 13.464 78.8247 13.4491 78.898C13.4379 78.7852 13.4248 78.6743 13.4174 78.5615C13.3931 78.2381 13.38 77.9091 13.3651 77.5801L13.3539 77.3733C13.6086 77.3201 13.8535 77.2275 14.08 77.0989C14.1774 77.0334 14.2594 76.9474 14.3204 76.8467C14.3813 76.746 14.4197 76.6332 14.4328 76.5161C14.4341 76.4618 14.424 76.4078 14.4031 76.3577C14.3823 76.3076 14.3513 76.2625 14.312 76.2253C14.2728 76.188 14.2262 76.1595 14.1753 76.1416C14.1244 76.1237 14.0703 76.1168 14.0166 76.1213C13.6955 76.157 13.4174 76.6759 13.3595 76.9616C13.3595 76.971 13.3595 77.0443 13.3427 77.1271C13.3315 76.9485 13.3184 76.7699 13.2998 76.5931C13.2706 76.2899 13.2207 75.989 13.1504 75.6926C13.4119 75.6375 13.6636 75.5431 13.8971 75.4125C13.9936 75.3469 14.0747 75.2609 14.135 75.1607C14.1952 75.0604 14.2332 74.9481 14.2462 74.8316C14.2477 74.7774 14.2378 74.7235 14.2172 74.6734C14.1966 74.6233 14.1657 74.5781 14.1266 74.5409C14.0875 74.5036 14.041 74.4751 13.9902 74.4571C13.9394 74.4392 13.8854 74.4323 13.8318 74.4368C13.5088 74.4725 13.2307 74.9914 13.1728 75.2771C13.1728 75.2978 13.1448 75.5629 13.1411 75.6531C13.1411 75.6531 13.1411 75.6531 13.1411 75.6437C13.0662 75.3539 12.9656 75.0714 12.8406 74.7996C12.7303 74.5567 12.6056 74.3206 12.4672 74.0927C12.3422 73.8803 12.2134 73.6923 12.0939 73.5287C12.0304 73.4385 11.9726 73.3595 11.9166 73.2843C11.9166 73.2843 11.8326 72.8989 11.8232 72.8745C11.7262 72.6 11.3752 72.1225 11.0504 72.1413C10.9967 72.1447 10.9444 72.1595 10.8967 72.1847C10.8491 72.2099 10.8072 72.2449 10.7739 72.2875C10.7406 72.3301 10.7166 72.3792 10.7035 72.4318C10.6903 72.4844 10.6884 72.5391 10.6976 72.5925C10.7261 72.71 10.7805 72.8195 10.8567 72.9129C10.933 73.0064 11.0292 73.0813 11.1382 73.1321Z" fill="#263238"/>
<path d="M123.226 77.5425C123.051 77.5694 122.873 77.5694 122.698 77.5425C122.698 77.5425 122.808 77.3093 122.817 77.2962C122.918 77.1364 123.209 76.8863 123.415 76.9409C123.447 76.9514 123.476 76.9684 123.502 76.9906C123.527 77.0129 123.548 77.0401 123.563 77.0706C123.577 77.1011 123.586 77.1343 123.588 77.1682C123.59 77.2021 123.585 77.236 123.573 77.268C123.539 77.3364 123.49 77.3964 123.43 77.4438C123.37 77.4912 123.3 77.5249 123.226 77.5425Z" fill="#263238"/>
<path d="M119.795 77.3884C119.795 77.3884 119.758 77.1327 119.758 77.1176C119.758 76.9296 119.86 76.5536 120.062 76.4897C120.095 76.4793 120.13 76.4759 120.165 76.4799C120.199 76.4838 120.233 76.495 120.263 76.5127C120.293 76.5304 120.319 76.5542 120.339 76.5826C120.36 76.6111 120.374 76.6434 120.381 76.6777C120.389 76.7539 120.38 76.831 120.356 76.9034C120.331 76.9758 120.29 77.0419 120.238 77.097C120.105 77.2157 119.956 77.314 119.795 77.3884Z" fill="#263238"/>
<path d="M119.007 76.7041C119.148 76.7572 119.296 76.7895 119.446 76.8C119.478 76.8432 119.513 76.8921 119.549 76.9466C119.612 77.0425 119.683 77.1515 119.752 77.2737L119.808 77.3771L119.698 77.2493C119.575 77.1365 119.274 76.9898 119.112 77.082C119.085 77.0978 119.063 77.1192 119.045 77.1447C119.027 77.1701 119.015 77.1991 119.009 77.2297C119.003 77.2602 119.004 77.2917 119.011 77.322C119.018 77.3522 119.032 77.3807 119.05 77.4053C119.095 77.4553 119.15 77.4949 119.212 77.5212C119.274 77.5475 119.34 77.5599 119.407 77.5576C119.556 77.5397 119.702 77.4991 119.84 77.4373C119.883 77.5167 119.921 77.5983 119.956 77.6817C120.024 77.8374 120.079 77.9991 120.118 78.1648H120.107C120.073 78.1122 119.999 78.0031 119.991 77.9937C119.883 77.8678 119.599 77.6892 119.431 77.7625C119.403 77.7755 119.378 77.7943 119.357 77.8178C119.337 77.8412 119.322 77.8688 119.313 77.8986C119.303 77.9284 119.301 77.9598 119.304 77.9908C119.308 78.0218 119.318 78.0516 119.334 78.0784C119.374 78.1325 119.424 78.1774 119.483 78.2098C119.541 78.2423 119.606 78.2616 119.672 78.2664C119.827 78.2652 119.98 78.2404 120.127 78.193C120.162 78.358 120.185 78.525 120.198 78.6931C120.21 78.8191 120.215 78.945 120.219 79.0691L120.09 78.8811C119.98 78.7533 119.696 78.5747 119.53 78.648C119.502 78.661 119.477 78.6798 119.456 78.7033C119.436 78.7267 119.421 78.7542 119.412 78.7841C119.402 78.8139 119.4 78.8453 119.403 78.8763C119.407 78.9072 119.417 78.9371 119.433 78.9638C119.472 79.018 119.523 79.0629 119.581 79.0953C119.64 79.1278 119.704 79.1471 119.771 79.1518C119.924 79.1509 120.077 79.1262 120.223 79.0785V79.2533C120.223 79.4413 120.232 79.6293 120.241 79.8173C120.241 79.8831 120.241 79.9471 120.254 80.0053C120.219 79.9508 120.15 79.8512 120.144 79.8437C120.034 79.7177 119.75 79.5372 119.584 79.6124C119.556 79.6252 119.531 79.6438 119.511 79.6672C119.49 79.6905 119.475 79.7179 119.466 79.7477C119.457 79.7774 119.454 79.8087 119.458 79.8395C119.462 79.8704 119.473 79.9 119.489 79.9264C119.528 79.9808 119.579 80.0259 119.637 80.0584C119.696 80.0909 119.76 80.11 119.827 80.1144C119.975 80.1155 120.123 80.0927 120.264 80.0467C120.264 80.1539 120.284 80.2573 120.301 80.3607C120.31 80.4058 120.316 80.4509 120.325 80.4923L120.353 80.6182C120.376 80.7047 120.396 80.7837 120.419 80.8626C120.43 80.904 120.441 80.9416 120.452 80.9792C120.424 80.9171 120.378 80.8213 120.372 80.8119C120.282 80.6709 120.029 80.4509 119.849 80.4979C119.82 80.5064 119.792 80.5212 119.768 80.5412C119.744 80.5612 119.725 80.5861 119.712 80.6141C119.698 80.6421 119.69 80.6727 119.689 80.7039C119.688 80.735 119.694 80.7661 119.706 80.795C119.736 80.855 119.779 80.9075 119.832 80.9487C119.885 80.99 119.946 81.019 120.012 81.0337C120.163 81.0561 120.316 81.0561 120.467 81.0337C120.495 81.1277 120.523 81.2217 120.551 81.3063C120.579 81.3909 120.596 81.4417 120.618 81.4943H120.74C120.714 81.421 120.684 81.3439 120.656 81.2612C120.628 81.1785 120.602 81.1014 120.574 81.0168C120.712 80.9642 120.843 80.8927 120.962 80.8043C121.041 80.855 121.123 80.9014 121.206 80.9435C121.178 81.0375 121.15 81.1315 121.128 81.2161C121.106 81.3007 121.076 81.4041 121.055 81.4943H121.175C121.191 81.4154 121.212 81.3345 121.234 81.2443C121.257 81.154 121.275 81.0826 121.3 80.9961C121.448 81.031 121.601 81.043 121.753 81.0318C121.819 81.021 121.882 80.9959 121.938 80.9582C121.993 80.9206 122.04 80.8713 122.074 80.8137C122.088 80.7859 122.096 80.7554 122.097 80.7243C122.098 80.6932 122.093 80.6622 122.082 80.6333C122.07 80.6044 122.053 80.5783 122.031 80.5565C122.008 80.5348 121.982 80.5181 121.953 80.5073C121.776 80.449 121.507 80.6502 121.41 80.7855C121.41 80.7949 121.339 80.904 121.309 80.9623C121.324 80.9096 121.337 80.8589 121.354 80.8062C121.371 80.7536 121.401 80.6483 121.427 80.5693C121.44 80.528 121.455 80.4885 121.47 80.4472C121.485 80.4058 121.501 80.3682 121.518 80.3268C121.535 80.2855 121.57 80.2084 121.6 80.1482C121.735 80.2026 121.877 80.235 122.022 80.2441C122.089 80.2436 122.155 80.2285 122.216 80.2C122.276 80.1714 122.33 80.1301 122.373 80.0787C122.39 80.0529 122.402 80.0238 122.408 79.9932C122.413 79.9626 122.412 79.9312 122.405 79.9009C122.398 79.8707 122.385 79.8423 122.366 79.8175C122.347 79.7928 122.324 79.7722 122.297 79.7572C122.132 79.6726 121.835 79.8305 121.718 79.9452L121.666 80.0091C121.695 79.9527 121.725 79.8944 121.757 79.838C121.847 79.6764 121.944 79.5147 122.041 79.353L122.099 79.2496C122.238 79.3054 122.384 79.339 122.534 79.3492C122.601 79.3491 122.667 79.3342 122.727 79.3056C122.788 79.277 122.842 79.2355 122.885 79.1838C122.902 79.1582 122.914 79.1292 122.92 79.0986C122.925 79.0681 122.925 79.0367 122.918 79.0065C122.91 78.9762 122.897 78.9478 122.879 78.923C122.86 78.8982 122.837 78.8775 122.81 78.8623C122.644 78.7777 122.347 78.9356 122.229 79.0503L122.17 79.1255C122.222 79.0353 122.27 78.9469 122.317 78.8567C122.399 78.7019 122.47 78.5417 122.53 78.3773C122.672 78.435 122.823 78.4705 122.976 78.4825C123.043 78.4821 123.108 78.4671 123.169 78.4385C123.229 78.41 123.282 78.3685 123.325 78.3171C123.343 78.2917 123.355 78.2627 123.361 78.232C123.367 78.2014 123.367 78.1698 123.36 78.1394C123.353 78.109 123.339 78.0804 123.321 78.0556C123.302 78.0308 123.278 78.0104 123.25 77.9956C123.086 77.9091 122.789 78.0689 122.672 78.1836C122.672 78.1836 122.569 78.3115 122.537 78.3547C122.591 78.1925 122.631 78.0258 122.657 77.8565C122.68 77.7052 122.695 77.5527 122.702 77.3997C122.702 77.2568 122.702 77.1271 122.702 77.0105C122.702 76.9485 122.702 76.8921 122.702 76.8394C122.702 76.8394 122.784 76.627 122.786 76.6138C122.825 76.4503 122.806 76.1137 122.647 76.016C122.621 76.0007 122.591 75.9913 122.56 75.9882C122.529 75.9852 122.498 75.9887 122.469 75.9984C122.44 76.0081 122.413 76.0239 122.39 76.0448C122.367 76.0656 122.348 76.091 122.336 76.1194C122.314 76.1832 122.307 76.2509 122.315 76.3178C122.322 76.3847 122.344 76.4492 122.379 76.5067C122.466 76.6299 122.571 76.7389 122.69 76.83C122.69 76.8852 122.69 76.9478 122.69 77.018C122.69 77.1327 122.69 77.2624 122.69 77.4034L122.679 77.52C122.679 77.4542 122.661 77.3621 122.659 77.3527C122.618 77.191 122.446 76.8996 122.261 76.8864C122.23 76.885 122.199 76.8902 122.17 76.9017C122.141 76.9132 122.115 76.9307 122.094 76.9531C122.072 76.9755 122.055 77.0022 122.044 77.0315C122.034 77.0608 122.029 77.0921 122.031 77.1233C122.042 77.1896 122.067 77.2528 122.104 77.3086C122.141 77.3644 122.189 77.4115 122.246 77.4467C122.381 77.5158 122.525 77.564 122.674 77.5895C122.664 77.676 122.653 77.7644 122.636 77.8565C122.608 78.0243 122.565 78.1892 122.507 78.3491H122.496C122.496 78.2852 122.496 78.1611 122.496 78.1423C122.474 77.9768 122.336 77.6685 122.153 77.6365C122.122 77.6318 122.091 77.6335 122.061 77.6417C122.031 77.6498 122.004 77.6642 121.98 77.6839C121.956 77.7036 121.936 77.7281 121.922 77.7559C121.908 77.7837 121.9 77.8141 121.899 77.8452C121.903 77.9131 121.922 77.9791 121.955 78.0388C121.987 78.0985 122.032 78.1505 122.086 78.1912C122.216 78.2741 122.357 78.3374 122.506 78.3792C122.444 78.536 122.372 78.6886 122.291 78.836C122.231 78.9469 122.168 79.0541 122.104 79.1631C122.104 79.1199 122.104 78.945 122.104 78.9337C122.084 78.7664 121.944 78.46 121.761 78.4262C121.73 78.4217 121.699 78.4236 121.67 78.4319C121.64 78.4402 121.613 78.4546 121.589 78.4743C121.565 78.4939 121.546 78.5184 121.532 78.546C121.518 78.5737 121.51 78.6039 121.509 78.6348C121.512 78.7029 121.531 78.7692 121.563 78.8291C121.596 78.8889 121.641 78.9408 121.695 78.9807C121.824 79.0641 121.964 79.1275 122.112 79.1687L122.022 79.3154C121.921 79.4771 121.821 79.6369 121.727 79.7985C121.694 79.8531 121.664 79.9095 121.634 79.9659C121.634 79.9001 121.634 79.7779 121.634 79.7685C121.611 79.603 121.473 79.2947 121.29 79.2609C121.26 79.2564 121.229 79.2584 121.199 79.2668C121.169 79.2752 121.141 79.2897 121.117 79.3096C121.093 79.3294 121.074 79.354 121.06 79.3819C121.046 79.4098 121.038 79.4403 121.037 79.4714C121.041 79.5393 121.06 79.6053 121.092 79.665C121.124 79.7247 121.169 79.7767 121.223 79.8173C121.347 79.9001 121.483 79.9634 121.626 80.0053C121.576 80.0993 121.527 80.1933 121.486 80.2873C121.467 80.3277 121.449 80.3691 121.434 80.4114C121.417 80.4528 121.402 80.4923 121.387 80.5317C121.359 80.6163 121.331 80.6934 121.307 80.7724C121.296 80.8119 121.285 80.8495 121.272 80.8871C121.283 80.8194 121.296 80.7141 121.296 80.6991C121.296 80.5336 121.208 80.2084 121.033 80.1463C121.003 80.137 120.972 80.1341 120.942 80.1376C120.911 80.1411 120.881 80.1511 120.855 80.1669C120.828 80.1826 120.805 80.2039 120.787 80.2292C120.77 80.2544 120.757 80.2832 120.751 80.3137C120.749 80.3299 120.749 80.3463 120.751 80.3625C120.668 80.4844 120.618 80.6255 120.605 80.7724C120.605 80.7837 120.605 80.9096 120.618 80.9754C120.603 80.9247 120.587 80.8739 120.57 80.8194L120.503 80.5825L120.471 80.4565C120.46 80.4133 120.454 80.372 120.445 80.3287C120.435 80.2855 120.426 80.2009 120.417 80.1407C120.559 80.1108 120.696 80.0588 120.822 79.9865C120.877 79.9488 120.923 79.8996 120.958 79.8421C120.992 79.7847 121.014 79.7205 121.022 79.6538C121.022 79.6227 121.017 79.5918 121.005 79.563C120.993 79.5343 120.976 79.5083 120.953 79.4869C120.931 79.4654 120.904 79.449 120.875 79.4385C120.846 79.4281 120.815 79.4239 120.785 79.4263C120.598 79.447 120.439 79.744 120.411 79.9076C120.411 79.9076 120.411 79.949 120.411 79.9903C120.411 79.9264 120.398 79.8625 120.393 79.8023C120.379 79.6143 120.372 79.4263 120.363 79.2383V79.1199C120.509 79.0898 120.649 79.0365 120.779 78.962C120.834 78.9246 120.881 78.8754 120.916 78.8179C120.95 78.7604 120.972 78.696 120.979 78.6292C120.98 78.5982 120.974 78.5673 120.962 78.5387C120.95 78.51 120.933 78.4842 120.91 78.4629C120.888 78.4416 120.861 78.4253 120.832 78.415C120.803 78.4048 120.772 78.4009 120.742 78.4036C120.555 78.4243 120.396 78.7213 120.368 78.8849C120.368 78.8849 120.368 78.9337 120.368 78.9807C120.368 78.8773 120.353 78.7758 120.344 78.6743C120.326 78.5003 120.298 78.3276 120.258 78.1573C120.373 78.1246 120.483 78.0785 120.587 78.0201C120.642 77.9825 120.689 77.9334 120.724 77.8759C120.758 77.8185 120.781 77.7541 120.788 77.6873C120.789 77.6562 120.783 77.6253 120.771 77.5967C120.759 77.568 120.741 77.5422 120.719 77.5209C120.696 77.4996 120.669 77.4834 120.64 77.4732C120.611 77.463 120.58 77.4591 120.549 77.4617C120.363 77.4824 120.204 77.7794 120.176 77.943C120.176 77.9543 120.159 78.1084 120.157 78.163C120.114 77.997 120.056 77.8353 119.984 77.6798C119.921 77.5409 119.85 77.4059 119.771 77.2756C119.698 77.1534 119.625 77.0443 119.558 76.9503L119.457 76.8112C119.457 76.8112 119.409 76.5913 119.403 76.5762C119.347 76.4202 119.146 76.1495 118.961 76.1551C118.93 76.1573 118.9 76.166 118.873 76.1805C118.845 76.1951 118.821 76.2152 118.802 76.2396C118.783 76.264 118.769 76.2922 118.761 76.3223C118.754 76.3524 118.752 76.3838 118.757 76.4145C118.776 76.4779 118.808 76.5365 118.851 76.5864C118.895 76.6364 118.948 76.6765 119.007 76.7041Z" fill="#263238"/>
<path d="M129.208 74.3484C128.923 74.4349 128.258 74.3352 128.258 74.3352C128.258 74.3352 128.456 73.9141 128.471 73.8897C128.658 73.6002 129.18 73.1508 129.55 73.2505C129.611 73.2688 129.667 73.2997 129.715 73.3412C129.763 73.3827 129.802 73.4338 129.829 73.4914C129.856 73.5489 129.871 73.6116 129.873 73.6753C129.875 73.7391 129.863 73.8025 129.839 73.8615C129.776 73.9844 129.687 74.0918 129.578 74.176C129.469 74.2601 129.343 74.319 129.208 74.3484Z" fill="#263238"/>
<path d="M123.013 74.0721C123.013 74.0721 122.948 73.6115 122.948 73.5814C122.948 73.2374 123.134 72.5718 123.495 72.4534C123.555 72.4345 123.619 72.4287 123.682 72.4364C123.745 72.444 123.806 72.4649 123.86 72.4977C123.915 72.5305 123.961 72.5745 123.998 72.6268C124.034 72.6791 124.059 72.7385 124.071 72.8012C124.084 72.9378 124.068 73.0756 124.024 73.2054C123.979 73.3351 123.908 73.4537 123.814 73.5532C123.627 73.7825 123.013 74.0721 123.013 74.0721Z" fill="#263238"/>
<path d="M121.6 72.8312C121.853 72.9291 122.119 72.9868 122.39 73.0023L122.576 73.2674C122.69 73.4403 122.819 73.6434 122.95 73.8596C122.983 73.9179 123.017 73.9837 123.05 74.0476C122.972 73.9555 122.864 73.8276 122.851 73.8163C122.63 73.6114 122.085 73.3482 121.794 73.5137C121.746 73.5424 121.705 73.5811 121.673 73.6271C121.64 73.6731 121.618 73.7255 121.608 73.7807C121.597 73.8359 121.598 73.8928 121.611 73.9475C121.624 74.0023 121.648 74.0537 121.682 74.0983C121.763 74.1882 121.863 74.2592 121.974 74.3063C122.085 74.3534 122.205 74.3754 122.326 74.3709C122.597 74.3411 122.861 74.2688 123.11 74.1566C123.181 74.2957 123.252 74.4405 123.319 74.5965C123.44 74.8778 123.537 75.1691 123.608 75.467H123.592L123.383 75.1605C123.185 74.9331 122.673 74.6097 122.363 74.7432C122.313 74.7667 122.269 74.8004 122.232 74.8423C122.196 74.8842 122.169 74.9333 122.152 74.9864C122.136 75.0396 122.131 75.0955 122.137 75.1508C122.144 75.206 122.162 75.2593 122.19 75.3072C122.26 75.4055 122.351 75.4873 122.456 75.5467C122.562 75.6061 122.678 75.6418 122.798 75.6512C123.077 75.6484 123.354 75.6034 123.62 75.5177C123.682 75.816 123.725 76.1181 123.748 76.422C123.767 76.6476 123.776 76.8751 123.784 77.1045C123.743 77.0368 123.567 76.7792 123.552 76.7623C123.355 76.5348 122.843 76.2096 122.533 76.3431C122.483 76.3668 122.439 76.4007 122.403 76.4426C122.367 76.4845 122.34 76.5336 122.323 76.5866C122.307 76.6396 122.302 76.6955 122.308 76.7507C122.314 76.8058 122.332 76.8591 122.36 76.9071C122.43 77.0052 122.521 77.0866 122.626 77.1457C122.732 77.2048 122.848 77.2401 122.968 77.2492C123.246 77.2468 123.521 77.2025 123.786 77.1176C123.786 77.2229 123.786 77.3263 123.786 77.4316C123.786 77.7719 123.801 78.114 123.818 78.4505C123.818 78.5671 123.834 78.6837 123.844 78.7983C123.778 78.6987 123.657 78.5182 123.644 78.5051C123.446 78.2776 122.935 77.9523 122.625 78.0858C122.575 78.1095 122.53 78.1434 122.494 78.1853C122.458 78.2273 122.431 78.2763 122.415 78.3293C122.398 78.3824 122.393 78.4383 122.399 78.4934C122.406 78.5486 122.423 78.6019 122.451 78.6498C122.522 78.7479 122.613 78.8294 122.718 78.8884C122.823 78.9475 122.94 78.9829 123.06 78.992C123.328 78.9925 123.594 78.9512 123.849 78.8698C123.868 79.0578 123.888 79.2458 123.918 79.4338C123.933 79.5127 123.943 79.5955 123.961 79.6707L124.012 79.9C124.051 80.0542 124.088 80.1971 124.129 80.3399C124.148 80.4114 124.168 80.4791 124.189 80.5505C124.139 80.4396 124.055 80.2647 124.043 80.2497C123.885 79.994 123.426 79.5955 123.11 79.6857C123.057 79.7013 123.007 79.7281 122.964 79.7643C122.922 79.8005 122.887 79.8453 122.863 79.8958C122.838 79.9463 122.825 80.0014 122.823 80.0576C122.821 80.1137 122.831 80.1695 122.852 80.2215C122.908 80.3295 122.985 80.4241 123.08 80.4988C123.176 80.5735 123.286 80.6264 123.403 80.6539C123.676 80.6959 123.953 80.6959 124.226 80.6539C124.277 80.825 124.327 80.9923 124.378 81.1465C124.428 81.3006 124.46 81.3909 124.499 81.5037H124.719C124.671 81.3721 124.618 81.2311 124.566 81.0807C124.514 80.9303 124.469 80.7949 124.419 80.6426C124.667 80.5502 124.902 80.4236 125.117 80.2666C125.26 80.358 125.407 80.4415 125.559 80.5167C125.509 80.6859 125.46 80.8532 125.417 81.0111C125.374 81.169 125.326 81.3551 125.287 81.5112H125.503C125.535 81.3702 125.568 81.2217 125.609 81.0619C125.651 80.9021 125.684 80.7686 125.727 80.6144C125.996 80.6763 126.272 80.6972 126.547 80.6765C126.666 80.6567 126.779 80.6114 126.879 80.5436C126.979 80.4758 127.064 80.3871 127.127 80.2835C127.151 80.233 127.165 80.1778 127.167 80.1217C127.168 80.0655 127.159 80.0096 127.138 79.9576C127.117 79.9055 127.085 79.8584 127.045 79.8194C127.005 79.7803 126.957 79.7502 126.905 79.7308C126.588 79.6237 126.102 79.9884 125.925 80.2328C125.914 80.2478 125.8 80.4471 125.738 80.5505C125.764 80.4565 125.791 80.3625 125.819 80.2685C125.86 80.1294 125.906 79.9827 125.951 79.8417L126.03 79.6218C126.054 79.5466 126.087 79.4789 126.115 79.4056C126.16 79.2984 126.212 79.1913 126.263 79.0841C126.507 79.1804 126.765 79.2387 127.026 79.2571C127.147 79.2562 127.266 79.2288 127.375 79.1768C127.484 79.1249 127.58 79.0496 127.657 78.9563C127.689 78.9103 127.711 78.8581 127.722 78.803C127.733 78.7478 127.731 78.6911 127.719 78.6364C127.706 78.5818 127.682 78.5304 127.648 78.4857C127.615 78.4411 127.572 78.4041 127.523 78.3772C127.224 78.2231 126.69 78.5088 126.479 78.7231C126.479 78.7231 126.431 78.7795 126.384 78.8397C126.438 78.7363 126.491 78.6329 126.548 78.5295C126.711 78.2381 126.884 77.9467 127.058 77.6534C127.095 77.5914 127.129 77.5293 127.166 77.4654C127.416 77.567 127.68 77.6303 127.948 77.6534C128.069 77.6527 128.189 77.6254 128.298 77.5734C128.407 77.5214 128.504 77.4461 128.581 77.3526C128.613 77.3066 128.635 77.2543 128.645 77.1993C128.656 77.1442 128.655 77.0876 128.642 77.033C128.629 76.9784 128.605 76.9271 128.572 76.8824C128.538 76.8378 128.496 76.8007 128.447 76.7736C128.148 76.6194 127.614 76.9052 127.402 77.1195L127.293 77.253C127.385 77.0932 127.48 76.9315 127.56 76.7679C127.703 76.4889 127.828 76.2006 127.934 75.905C128.191 76.0082 128.463 76.0716 128.74 76.093C128.86 76.0921 128.979 76.0647 129.088 76.0128C129.197 75.9608 129.294 75.8856 129.371 75.7922C129.403 75.7463 129.425 75.694 129.436 75.6389C129.446 75.5838 129.445 75.5271 129.432 75.4724C129.42 75.4177 129.396 75.3664 129.362 75.3217C129.328 75.277 129.285 75.24 129.236 75.2132C128.938 75.059 128.404 75.3448 128.191 75.5591C128.176 75.5741 128.004 75.7903 127.947 75.8712C127.947 75.8675 127.947 75.8636 127.947 75.8599C128.046 75.5669 128.119 75.2655 128.165 74.9594C128.207 74.686 128.233 74.4105 128.243 74.1341C128.256 73.8784 128.243 73.6434 128.243 73.4347C128.243 73.3219 128.234 73.2185 128.228 73.1226C128.228 73.1226 128.374 72.7466 128.38 72.7165C128.451 72.4233 128.415 71.8141 128.129 71.6393C128.081 71.6117 128.027 71.5947 127.972 71.5893C127.917 71.5839 127.861 71.5902 127.808 71.608C127.755 71.6257 127.707 71.6543 127.666 71.6921C127.625 71.7299 127.592 71.776 127.569 71.8273C127.531 71.942 127.517 72.0639 127.53 72.1844C127.543 72.3048 127.582 72.421 127.644 72.5248C127.799 72.7474 127.988 72.9441 128.204 73.1076C128.204 73.2091 128.204 73.3144 128.214 73.4328C128.214 73.6415 128.214 73.8746 128.195 74.1303C128.195 74.198 128.184 74.2713 128.178 74.3409C128.163 74.2205 128.141 74.0532 128.137 74.0382C128.066 73.7449 127.764 73.2223 127.422 73.1978C127.366 73.1956 127.311 73.2052 127.259 73.2259C127.207 73.2465 127.161 73.2779 127.121 73.3179C127.082 73.3579 127.052 73.4057 127.033 73.4582C127.013 73.5107 127.004 73.5667 127.008 73.6227C127.026 73.7428 127.07 73.8574 127.137 73.9587C127.204 74.06 127.291 74.1454 127.394 74.2093C127.637 74.3331 127.898 74.4193 128.167 74.4649C128.15 74.621 128.13 74.7827 128.1 74.9481C128.048 75.2505 127.969 75.5475 127.864 75.8355H127.846C127.846 75.7227 127.846 75.4839 127.846 75.4595C127.807 75.1605 127.555 74.6059 127.226 74.5458C127.171 74.5373 127.115 74.5405 127.061 74.5553C127.008 74.57 126.957 74.596 126.914 74.6314C126.871 74.6668 126.836 74.711 126.811 74.761C126.786 74.811 126.771 74.8658 126.769 74.9218C126.774 75.0428 126.805 75.1613 126.86 75.269C126.916 75.3768 126.993 75.4712 127.088 75.5459C127.322 75.6986 127.577 75.8152 127.846 75.8919C127.734 76.175 127.604 76.4507 127.458 76.7172C127.351 76.9052 127.233 77.112 127.114 77.3075C127.114 77.2267 127.114 76.9127 127.114 76.8901C127.075 76.5912 126.825 76.0366 126.494 75.9765C126.439 75.968 126.383 75.9712 126.329 75.986C126.276 76.0007 126.226 76.0266 126.183 76.0621C126.14 76.0975 126.104 76.1417 126.079 76.1917C126.054 76.2417 126.04 76.2965 126.037 76.3525C126.042 76.4736 126.073 76.5921 126.128 76.6999C126.184 76.8077 126.261 76.9021 126.356 76.9766C126.586 77.1287 126.838 77.2447 127.103 77.3207C127.049 77.409 126.995 77.4993 126.939 77.5876C126.752 77.8771 126.578 78.1648 126.408 78.4562C126.349 78.5577 126.295 78.6592 126.239 78.7589C126.239 78.6404 126.239 78.4223 126.239 78.4035C126.199 78.1046 125.949 77.55 125.619 77.4899C125.564 77.4811 125.508 77.4841 125.454 77.4987C125.4 77.5133 125.35 77.5393 125.307 77.5747C125.263 77.6102 125.228 77.6545 125.203 77.7047C125.178 77.7549 125.164 77.8098 125.162 77.8659C125.167 77.9872 125.198 78.1061 125.253 78.2141C125.308 78.3222 125.386 78.417 125.481 78.4919C125.704 78.6402 125.949 78.7531 126.207 78.8265C126.117 78.9957 126.031 79.1668 125.955 79.3379C125.923 79.4131 125.886 79.4864 125.86 79.5597C125.834 79.6331 125.806 79.7064 125.778 79.7778C125.725 79.9282 125.677 80.0692 125.634 80.2102C125.61 80.2817 125.591 80.3493 125.568 80.4189C125.587 80.2986 125.613 80.1049 125.613 80.088C125.613 79.7853 125.455 79.1988 125.137 79.0897C125.084 79.0728 125.028 79.0673 124.973 79.0737C124.917 79.0801 124.864 79.0981 124.816 79.1267C124.768 79.1553 124.727 79.1937 124.695 79.2395C124.663 79.2853 124.64 79.3374 124.63 79.3924C124.622 79.4213 124.618 79.451 124.618 79.4808C124.47 79.6998 124.38 79.9536 124.357 80.2177C124.357 80.2384 124.37 80.4678 124.381 80.5843C124.351 80.4922 124.322 80.3963 124.294 80.3042C124.251 80.1651 124.21 80.0185 124.168 79.8756C124.152 79.8004 124.133 79.7252 124.114 79.6481C124.096 79.571 124.084 79.4958 124.068 79.4187C124.047 79.3059 124.03 79.1875 124.015 79.0691C124.272 79.014 124.518 78.9196 124.745 78.7889C124.845 78.7214 124.929 78.6327 124.992 78.5292C125.054 78.4256 125.094 78.3096 125.107 78.1892C125.109 78.133 125.099 78.0772 125.077 78.0253C125.056 77.9734 125.024 77.9265 124.983 77.8879C124.943 77.8492 124.895 77.8196 124.842 77.8009C124.79 77.7822 124.734 77.7749 124.678 77.7794C124.344 77.817 124.056 78.3528 123.997 78.6498C123.997 78.6592 123.997 78.7231 123.982 78.7983C123.969 78.6818 123.958 78.5671 123.948 78.4505C123.924 78.1159 123.909 77.7756 123.894 77.4335L123.883 77.221C124.145 77.1652 124.397 77.0688 124.63 76.9353C124.73 76.8679 124.814 76.7793 124.876 76.6757C124.939 76.5721 124.978 76.456 124.992 76.3355C124.993 76.2794 124.983 76.2237 124.962 76.1718C124.94 76.12 124.908 76.0733 124.868 76.0348C124.827 75.9963 124.779 75.9668 124.726 75.9483C124.674 75.9299 124.618 75.9228 124.562 75.9276C124.228 75.9633 123.941 76.4916 123.881 76.7961C123.881 76.8055 123.881 76.8826 123.864 76.9672C123.853 76.7792 123.84 76.5912 123.819 76.4145C123.789 76.1012 123.738 75.7903 123.666 75.4839C123.938 75.4268 124.199 75.3285 124.441 75.1925C124.541 75.1249 124.625 75.0363 124.688 74.9327C124.75 74.8292 124.789 74.7132 124.803 74.5928C124.805 74.5366 124.794 74.4807 124.773 74.4288C124.752 74.3769 124.72 74.3301 124.679 74.2915C124.639 74.2528 124.591 74.2232 124.538 74.2045C124.485 74.1858 124.429 74.1784 124.374 74.1829C124.04 74.2205 123.752 74.7563 123.692 75.0534C123.692 75.0741 123.664 75.3485 123.659 75.4482C123.659 75.4482 123.659 75.4482 123.659 75.4369C123.582 75.137 123.478 74.8449 123.347 74.5646C123.233 74.3133 123.104 74.0691 122.961 73.8333C122.832 73.6133 122.699 73.4197 122.587 73.2486C122.522 73.1565 122.462 73.0737 122.401 72.9967C122.401 72.9967 122.313 72.5962 122.304 72.5718C122.201 72.2879 121.839 71.801 121.503 71.8198C121.447 71.8224 121.392 71.8371 121.342 71.8627C121.292 71.8883 121.247 71.9243 121.212 71.9684C121.177 72.0124 121.151 72.0635 121.137 72.1183C121.123 72.173 121.12 72.2302 121.13 72.286C121.162 72.4065 121.222 72.518 121.303 72.6124C121.385 72.7067 121.486 72.7815 121.6 72.8312Z" fill="#263238"/>
<path d="M130.969 81.4229H8.08252V81.6109H130.969V81.4229Z" fill="#263238"/>
<path d="M71.4561 23.6673H34.1115C34.094 23.6673 34.0769 23.6624 34.062 23.6531C34.0472 23.6438 34.0352 23.6305 34.0275 23.6146C34.0201 23.5986 34.0172 23.5808 34.0192 23.5632C34.0211 23.5456 34.0279 23.5289 34.0387 23.515L34.8003 22.5562C35.2838 21.949 36.0379 22.1802 36.7025 22.3945C37.1617 22.5374 37.5947 22.6746 37.8803 22.5299C38.2313 22.3531 38.5075 21.8963 38.8267 21.368C39.1683 20.804 39.5566 20.1611 40.1483 19.6647C40.7961 19.1195 41.9683 19.7512 43.1014 20.3622C44.0851 20.8924 45.1043 21.4414 45.6979 21.1857C46.2579 20.9469 46.4185 20.5747 46.6126 20.1442C46.8683 19.5802 47.1577 18.9409 48.3691 18.4973C49.3305 18.1438 50.2993 18.5725 51.1523 18.9522C52.2219 19.426 53.1478 19.8358 53.8478 18.7266C54.1815 18.1642 54.4645 17.5728 54.6934 16.9594C55.3561 15.3295 55.9833 13.7879 58.6806 13.5021C62.2273 13.1261 66.5579 19.6403 66.9406 20.2287C67.4767 20.3426 68.033 20.3148 68.5553 20.1479C69.1246 20.0013 69.6622 19.864 70.5526 20.4243C72.1169 21.4094 71.5513 23.577 71.5457 23.5996C71.54 23.6191 71.5282 23.6363 71.5121 23.6485C71.4959 23.6607 71.4762 23.6673 71.4561 23.6673ZM34.3094 23.4793H71.3814C71.4598 23.1145 71.7547 21.3981 70.4481 20.5841C69.6249 20.0671 69.1713 20.1817 68.5945 20.3303C68.0315 20.5073 67.4323 20.5326 66.8566 20.4036C66.8326 20.398 66.8119 20.3832 66.7987 20.3622C66.7539 20.2927 62.2179 13.316 58.6937 13.6882C56.1083 13.9627 55.5017 15.4535 54.8595 17.0309C54.6273 17.655 54.3392 18.2565 53.999 18.8282C53.2131 20.0727 52.1734 19.6121 51.0721 19.1233C50.2097 18.7473 49.3193 18.3469 48.427 18.674C47.2883 19.0895 47.0289 19.6647 46.7769 20.2212C46.5753 20.6687 46.3849 21.0898 45.7651 21.3492C45.0894 21.6425 44.0851 21.0973 43.0081 20.5202C41.931 19.943 40.8147 19.3376 40.2622 19.8001C39.7097 20.2626 39.3158 20.9055 38.9817 21.4583C38.6475 22.011 38.3582 22.4904 37.9587 22.6915C37.6059 22.8683 37.1374 22.7216 36.6409 22.5656C36.0025 22.3663 35.3435 22.1576 34.9403 22.6652L34.3094 23.4793Z" fill="#263238"/>
<path d="M101.933 19.7626H83.2775C83.26 19.7625 83.2429 19.7574 83.2281 19.748C83.2133 19.7386 83.2014 19.7252 83.1938 19.7093C83.1862 19.6935 83.1832 19.6758 83.1851 19.6582C83.1871 19.6407 83.1938 19.6241 83.2047 19.6103L83.578 19.1309C83.8393 18.8019 84.25 18.9316 84.5785 19.035C84.7988 19.1046 85.006 19.1685 85.1385 19.1046C85.3009 19.0237 85.4372 18.8 85.5921 18.5406C85.7657 18.2148 85.9929 17.9211 86.2641 17.672C86.6113 17.3806 87.1844 17.6889 87.7911 18.016C88.2727 18.2755 88.7711 18.5443 89.0473 18.424C89.1508 18.3776 89.243 18.3092 89.3178 18.2235C89.3925 18.1379 89.448 18.0369 89.4804 17.9277C89.5541 17.7249 89.6743 17.5425 89.8313 17.3955C89.9884 17.2484 90.1777 17.1409 90.3839 17.0817C90.8823 16.8937 91.3751 17.1174 91.81 17.3092C92.4036 17.5724 92.7844 17.7096 93.098 17.2152C93.2632 16.9417 93.4043 16.6542 93.5199 16.356C93.8559 15.5288 94.1751 14.7467 95.5489 14.6001C97.3223 14.4121 99.4577 17.5818 99.7079 17.9653C99.9632 18.0167 100.227 18.0012 100.475 17.9202C100.646 17.8579 100.83 17.8385 101.01 17.8637C101.19 17.889 101.361 17.958 101.509 18.0649C102.321 18.5744 102.03 19.6911 102.026 19.7024C102.019 19.7211 102.006 19.7371 101.989 19.7479C101.973 19.7588 101.953 19.7639 101.933 19.7626ZM83.4716 19.5746H101.856C101.901 19.3414 101.993 18.5838 101.407 18.2153C101.28 18.1224 101.133 18.0626 100.978 18.0412C100.823 18.0199 100.665 18.0377 100.518 18.0931C100.23 18.1854 99.9224 18.1984 99.6276 18.1307C99.6039 18.1258 99.5831 18.1116 99.5697 18.0912C99.5473 18.0555 97.41 14.7712 95.7001 14.7712C95.6554 14.7683 95.6105 14.7683 95.5657 14.7712C94.302 14.9046 94.0183 15.6021 93.6879 16.4105C93.5714 16.7247 93.4265 17.0274 93.2548 17.3148C92.8404 17.9709 92.2785 17.7228 91.7335 17.4821C91.3116 17.2941 90.8767 17.1061 90.4473 17.2584C90.2646 17.3106 90.0968 17.4061 89.9582 17.5369C89.8195 17.6678 89.7139 17.8301 89.6503 18.0104C89.609 18.1426 89.5405 18.2646 89.4491 18.3683C89.3577 18.472 89.2456 18.555 89.1201 18.612C88.7617 18.7662 88.2484 18.4898 87.7033 18.1965C87.1583 17.9032 86.6356 17.6212 86.3836 17.8318C86.1303 18.0671 85.9172 18.3428 85.7527 18.6477C85.5828 18.9297 85.4353 19.1741 85.2225 19.2813C85.0097 19.3884 84.7876 19.302 84.53 19.2211C84.1567 19.1046 83.9009 19.0331 83.7311 19.255L83.4716 19.5746Z" fill="#263238"/>
<path d="M112.868 29.8544H93.621C93.6032 29.8547 93.5857 29.8497 93.5707 29.84C93.5558 29.8303 93.544 29.8163 93.537 29.7999C93.5291 29.784 93.5259 29.7661 93.5279 29.7484C93.5299 29.7307 93.5369 29.714 93.5482 29.7002L93.9402 29.2058C94.209 28.8693 94.6122 28.9952 94.9687 29.108C95.1964 29.1795 95.4111 29.2472 95.5436 29.1814C95.7116 29.0968 95.8516 28.8655 96.0122 28.5986C96.1913 28.2653 96.4248 27.9647 96.7028 27.7093C97.0612 27.4085 97.6511 27.7281 98.2764 28.0646C98.773 28.3316 99.29 28.6098 99.5738 28.4858C99.6808 28.4376 99.7764 28.3669 99.854 28.2783C99.9316 28.1898 99.9895 28.0855 100.024 27.9725C100.1 27.7631 100.224 27.5748 100.386 27.4231C100.548 27.2715 100.744 27.1608 100.957 27.1002C101.47 26.9122 101.978 27.1378 102.426 27.3352C103.042 27.6078 103.436 27.7488 103.759 27.2374C103.929 26.9494 104.073 26.6468 104.19 26.3332C104.537 25.4796 104.866 24.6731 106.283 24.5227C108.11 24.3253 110.316 27.604 110.576 27.9951C110.841 28.0473 111.114 28.0318 111.371 27.95C111.547 27.885 111.736 27.8645 111.922 27.8904C112.107 27.9163 112.283 27.9878 112.435 28.0985C113.27 28.623 112.969 29.7736 112.967 29.7905C112.96 29.8109 112.947 29.8285 112.929 29.8401C112.911 29.8517 112.889 29.8568 112.868 29.8544ZM93.8151 29.6664H112.793C112.838 29.4276 112.935 28.6399 112.329 28.2564C112.198 28.1604 112.045 28.0988 111.884 28.0771C111.723 28.0555 111.56 28.0744 111.408 28.1323C111.111 28.2256 110.795 28.2386 110.492 28.1699C110.48 28.1675 110.469 28.1625 110.459 28.1554C110.449 28.1483 110.44 28.1391 110.434 28.1286C110.41 28.0928 108.082 24.5208 106.299 24.7107C104.993 24.848 104.7 25.5699 104.36 26.4027C104.239 26.7289 104.089 27.0435 103.912 27.3427C103.486 28.0176 102.908 27.762 102.348 27.5138C101.911 27.3258 101.459 27.1209 101.019 27.2826C100.83 27.336 100.657 27.434 100.513 27.5683C100.37 27.7027 100.26 27.8696 100.193 28.0552C100.15 28.1893 100.078 28.3127 99.9846 28.4176C99.8908 28.5224 99.7763 28.6065 99.6484 28.6644C99.2751 28.8242 98.7487 28.5384 98.1868 28.2357C97.625 27.933 97.0836 27.6398 96.8223 27.8597C96.5606 28.102 96.3411 28.3867 96.1727 28.702C95.986 28.9934 95.8442 29.2453 95.6258 29.3543C95.4074 29.4634 95.1778 29.3769 94.9146 29.2942C94.5282 29.172 94.2612 29.1062 94.0858 29.3299L93.8151 29.6664Z" fill="#263238"/>
<path d="M71.4561 23.6673H34.1115C34.094 23.6673 34.0769 23.6624 34.062 23.6531C34.0472 23.6438 34.0352 23.6305 34.0275 23.6146C34.0201 23.5986 34.0172 23.5808 34.0192 23.5632C34.0211 23.5456 34.0279 23.5289 34.0387 23.515L34.8003 22.5562C35.2838 21.949 36.0379 22.1802 36.7025 22.3945C37.1617 22.5374 37.5947 22.6746 37.8803 22.5299C38.2313 22.3531 38.5075 21.8963 38.8267 21.368C39.1683 20.804 39.5566 20.1611 40.1483 19.6647C40.7961 19.1195 41.9683 19.7512 43.1014 20.3622C44.0851 20.8924 45.1043 21.4414 45.6979 21.1857C46.2579 20.9469 46.4185 20.5747 46.6126 20.1442C46.8683 19.5802 47.1577 18.9409 48.3691 18.4973C49.3305 18.1438 50.2993 18.5725 51.1523 18.9522C52.2219 19.426 53.1478 19.8358 53.8478 18.7266C54.1815 18.1642 54.4645 17.5728 54.6934 16.9594C55.3561 15.3295 55.9833 13.7879 58.6806 13.5021C62.2273 13.1261 66.5579 19.6403 66.9406 20.2287C67.4767 20.3426 68.033 20.3148 68.5553 20.1479C69.1246 20.0013 69.6622 19.864 70.5526 20.4243C72.1169 21.4094 71.5513 23.577 71.5457 23.5996C71.54 23.6191 71.5282 23.6363 71.5121 23.6485C71.4959 23.6607 71.4762 23.6673 71.4561 23.6673ZM34.3094 23.4793H71.3814C71.4598 23.1145 71.7547 21.3981 70.4481 20.5841C69.6249 20.0671 69.1713 20.1817 68.5945 20.3303C68.0315 20.5073 67.4323 20.5326 66.8566 20.4036C66.8326 20.398 66.8119 20.3832 66.7987 20.3622C66.7539 20.2927 62.2179 13.316 58.6937 13.6882C56.1083 13.9627 55.5017 15.4535 54.8595 17.0309C54.6273 17.655 54.3392 18.2565 53.999 18.8282C53.2131 20.0727 52.1734 19.6121 51.0721 19.1233C50.2097 18.7473 49.3193 18.3469 48.427 18.674C47.2883 19.0895 47.0289 19.6647 46.7769 20.2212C46.5753 20.6687 46.3849 21.0898 45.7651 21.3492C45.0894 21.6425 44.0851 21.0973 43.0081 20.5202C41.931 19.943 40.8147 19.3376 40.2622 19.8001C39.7097 20.2626 39.3158 20.9055 38.9817 21.4583C38.6475 22.011 38.3582 22.4904 37.9587 22.6915C37.6059 22.8683 37.1374 22.7216 36.6409 22.5656C36.0025 22.3663 35.3435 22.1576 34.9403 22.6652L34.3094 23.4793Z" fill="#263238"/>
<path d="M101.933 19.7626H83.2775C83.26 19.7625 83.2429 19.7574 83.2281 19.748C83.2133 19.7386 83.2014 19.7252 83.1938 19.7093C83.1862 19.6935 83.1832 19.6758 83.1851 19.6582C83.1871 19.6407 83.1938 19.6241 83.2047 19.6103L83.578 19.1309C83.8393 18.8019 84.25 18.9316 84.5785 19.035C84.7988 19.1046 85.006 19.1685 85.1385 19.1046C85.3009 19.0237 85.4372 18.8 85.5921 18.5406C85.7657 18.2148 85.9929 17.9211 86.2641 17.672C86.6113 17.3806 87.1844 17.6889 87.7911 18.016C88.2727 18.2755 88.7711 18.5443 89.0473 18.424C89.1508 18.3776 89.243 18.3092 89.3178 18.2235C89.3925 18.1379 89.448 18.0369 89.4804 17.9277C89.5541 17.7249 89.6743 17.5425 89.8313 17.3955C89.9884 17.2484 90.1777 17.1409 90.3839 17.0817C90.8823 16.8937 91.3751 17.1174 91.81 17.3092C92.4036 17.5724 92.7844 17.7096 93.098 17.2152C93.2632 16.9417 93.4043 16.6542 93.5199 16.356C93.8559 15.5288 94.1751 14.7467 95.5489 14.6001C97.3223 14.4121 99.4577 17.5818 99.7079 17.9653C99.9632 18.0167 100.227 18.0012 100.475 17.9202C100.646 17.8579 100.83 17.8385 101.01 17.8637C101.19 17.889 101.361 17.958 101.509 18.0649C102.321 18.5744 102.03 19.6911 102.026 19.7024C102.019 19.7211 102.006 19.7371 101.989 19.7479C101.973 19.7588 101.953 19.7639 101.933 19.7626ZM83.4716 19.5746H101.856C101.901 19.3414 101.993 18.5838 101.407 18.2153C101.28 18.1224 101.133 18.0626 100.978 18.0412C100.823 18.0199 100.665 18.0377 100.518 18.0931C100.23 18.1854 99.9224 18.1984 99.6276 18.1307C99.6039 18.1258 99.5831 18.1116 99.5697 18.0912C99.5473 18.0555 97.41 14.7712 95.7001 14.7712C95.6554 14.7683 95.6105 14.7683 95.5657 14.7712C94.302 14.9046 94.0183 15.6021 93.6879 16.4105C93.5714 16.7247 93.4265 17.0274 93.2548 17.3148C92.8404 17.9709 92.2785 17.7228 91.7335 17.4821C91.3116 17.2941 90.8767 17.1061 90.4473 17.2584C90.2646 17.3106 90.0968 17.4061 89.9582 17.5369C89.8195 17.6678 89.7139 17.8301 89.6503 18.0104C89.609 18.1426 89.5405 18.2646 89.4491 18.3683C89.3577 18.472 89.2456 18.555 89.1201 18.612C88.7617 18.7662 88.2484 18.4898 87.7033 18.1965C87.1583 17.9032 86.6356 17.6212 86.3836 17.8318C86.1303 18.0671 85.9172 18.3428 85.7527 18.6477C85.5828 18.9297 85.4353 19.1741 85.2225 19.2813C85.0097 19.3884 84.7876 19.302 84.53 19.2211C84.1567 19.1046 83.9009 19.0331 83.7311 19.255L83.4716 19.5746Z" fill="#263238"/>
<path d="M112.868 29.8544H93.621C93.6032 29.8547 93.5857 29.8497 93.5707 29.84C93.5558 29.8303 93.544 29.8163 93.537 29.7999C93.5291 29.784 93.5259 29.7661 93.5279 29.7484C93.5299 29.7307 93.5369 29.714 93.5482 29.7002L93.9402 29.2058C94.209 28.8693 94.6122 28.9952 94.9687 29.108C95.1964 29.1795 95.4111 29.2472 95.5436 29.1814C95.7116 29.0968 95.8516 28.8655 96.0122 28.5986C96.1913 28.2653 96.4248 27.9647 96.7028 27.7093C97.0612 27.4085 97.6511 27.7281 98.2764 28.0646C98.773 28.3316 99.29 28.6098 99.5738 28.4858C99.6808 28.4376 99.7764 28.3669 99.854 28.2783C99.9316 28.1898 99.9895 28.0855 100.024 27.9725C100.1 27.7631 100.224 27.5748 100.386 27.4231C100.548 27.2715 100.744 27.1608 100.957 27.1002C101.47 26.9122 101.978 27.1378 102.426 27.3352C103.042 27.6078 103.436 27.7488 103.759 27.2374C103.929 26.9494 104.073 26.6468 104.19 26.3332C104.537 25.4796 104.866 24.6731 106.283 24.5227C108.11 24.3253 110.316 27.604 110.576 27.9951C110.841 28.0473 111.114 28.0318 111.371 27.95C111.547 27.885 111.736 27.8645 111.922 27.8904C112.107 27.9163 112.283 27.9878 112.435 28.0985C113.27 28.623 112.969 29.7736 112.967 29.7905C112.96 29.8109 112.947 29.8285 112.929 29.8401C112.911 29.8517 112.889 29.8568 112.868 29.8544ZM93.8151 29.6664H112.793C112.838 29.4276 112.935 28.6399 112.329 28.2564C112.198 28.1604 112.045 28.0988 111.884 28.0771C111.723 28.0555 111.56 28.0744 111.408 28.1323C111.111 28.2256 110.795 28.2386 110.492 28.1699C110.48 28.1675 110.469 28.1625 110.459 28.1554C110.449 28.1483 110.44 28.1391 110.434 28.1286C110.41 28.0928 108.082 24.5208 106.299 24.7107C104.993 24.848 104.7 25.5699 104.36 26.4027C104.239 26.7289 104.089 27.0435 103.912 27.3427C103.486 28.0176 102.908 27.762 102.348 27.5138C101.911 27.3258 101.459 27.1209 101.019 27.2826C100.83 27.336 100.657 27.434 100.513 27.5683C100.37 27.7027 100.26 27.8696 100.193 28.0552C100.15 28.1893 100.078 28.3127 99.9846 28.4176C99.8908 28.5224 99.7763 28.6065 99.6484 28.6644C99.2751 28.8242 98.7487 28.5384 98.1868 28.2357C97.625 27.933 97.0836 27.6398 96.8223 27.8597C96.5606 28.102 96.3411 28.3867 96.1727 28.702C95.986 28.9934 95.8442 29.2453 95.6258 29.3543C95.4074 29.4634 95.1778 29.3769 94.9146 29.2942C94.5282 29.172 94.2612 29.1062 94.0858 29.3299L93.8151 29.6664Z" fill="#263238"/>
<path d="M109.997 74.7676V62.7186H50.2954V74.7676H75.0399C75.0605 78.4712 77.6141 81.4641 80.7613 81.4641H83.8525C86.2661 81.4641 88.3325 79.7026 89.1706 77.2097H102.667V75.576H89.5346C89.5626 75.3127 89.5775 75.0439 89.5794 74.7713L109.997 74.7676Z" fill="#263238"/>
<path d="M83.8581 81.5581H80.7669C77.6085 81.5581 75.0176 78.5633 74.9523 74.8616H50.2021V62.6246H110.09V74.8616H89.6728C89.6728 75.0665 89.656 75.2733 89.6374 75.4782H102.766V77.3037H89.2435C88.3456 79.9 86.24 81.5581 83.8581 81.5581ZM50.3888 74.6736H75.1371V74.7676C75.1576 78.4091 77.6832 81.3701 80.7651 81.3701H83.8563C86.1747 81.3701 88.228 79.7251 89.083 77.1796L89.1035 77.1157H102.573V75.6662H89.4301L89.4413 75.5628C89.4693 75.2977 89.4843 75.0308 89.4862 74.7676V74.6736H109.904V62.8126H50.3888V74.6736Z" fill="#263238"/>
<path d="M42.3081 74.7206C42.3081 70.9963 39.7452 67.9771 36.5849 67.9771H33.4937C30.3334 67.9771 27.7705 70.9963 27.7705 74.7206C27.7705 78.4449 30.3334 81.4642 33.4937 81.4642H36.5868C39.0004 81.4642 41.0668 79.7026 41.9049 77.2097H55.4009V75.576H42.2614C42.2923 75.2919 42.3079 75.0064 42.3081 74.7206Z" fill="#263238"/>
<path d="M36.5868 81.5582H33.4938C30.2868 81.5582 27.6772 78.4919 27.6772 74.7206C27.6772 70.9493 30.2906 67.8831 33.4938 67.8831H36.5868C39.7938 67.8831 42.4034 70.9493 42.4034 74.7206C42.4034 74.965 42.3903 75.2188 42.366 75.4726H55.4943V77.2981H41.9703C41.0668 79.9 38.965 81.5582 36.5868 81.5582ZM33.4956 68.0711C30.3914 68.0711 27.8658 71.0546 27.8658 74.7206C27.8658 78.3866 30.3914 81.3702 33.4956 81.3702H36.5868C38.9052 81.3702 40.9586 79.7252 41.8135 77.1797L41.8359 77.1157H55.3039V75.6663H42.157L42.1682 75.5629C42.199 75.2832 42.2146 75.002 42.2148 74.7206C42.2148 71.0546 39.6892 68.0711 36.585 68.0711H33.4956Z" fill="#263238"/>
<path d="M64.357 74.7206C64.357 72.3387 63.308 70.2462 61.725 69.0449V67.9771H58.6338C55.4736 67.9771 52.9106 70.9963 52.9106 74.7206C52.9106 78.4449 55.4736 81.4642 58.6338 81.4642H61.725V80.3963C63.308 79.195 64.357 77.1026 64.357 74.7206Z" fill="#263238"/>
<path d="M61.8184 81.5582H58.6339C55.427 81.5582 52.8174 78.4919 52.8174 74.7206C52.8174 70.9493 55.4307 67.8831 58.6339 67.8831H61.8184V68.996C63.4667 70.265 64.4504 72.4007 64.4504 74.7169C64.4504 77.033 63.4667 79.1687 61.8184 80.4377V81.5582ZM58.6339 68.0711C55.5296 68.0711 53.0134 71.064 53.0134 74.7206C53.0134 78.3772 55.539 81.3702 58.6432 81.3702H61.6411V80.3493L61.6766 80.3211C63.3024 79.0897 64.2731 76.9954 64.2731 74.7206C64.2731 72.4458 63.3024 70.3515 61.6766 69.1201L61.6411 69.0919V68.0711H58.6339Z" fill="#263238"/>
<path d="M61.7252 81.4642C64.886 81.4642 67.4483 78.445 67.4483 74.7206C67.4483 70.9963 64.886 67.9771 61.7252 67.9771C58.5643 67.9771 56.002 70.9963 56.002 74.7206C56.002 78.445 58.5643 81.4642 61.7252 81.4642Z" fill="white"/>
<path d="M61.7252 81.5582C58.5164 81.5582 55.9087 78.4919 55.9087 74.7206C55.9087 70.9493 58.522 67.8831 61.7252 67.8831C64.9284 67.8831 67.5418 70.9493 67.5418 74.7206C67.5418 78.4919 64.9322 81.5582 61.7252 81.5582ZM61.7252 68.0711C58.6191 68.0711 56.0954 71.0546 56.0954 74.7206C56.0954 78.3866 58.6191 81.3702 61.7252 81.3702C64.8314 81.3702 67.3551 78.3885 67.3551 74.7206C67.3551 71.0527 64.8295 68.0711 61.7252 68.0711Z" fill="#263238"/>
<path d="M61.7252 79.242C63.8437 79.242 65.5612 77.2177 65.5612 74.7206C65.5612 72.2235 63.8437 70.1992 61.7252 70.1992C59.6066 70.1992 57.8892 72.2235 57.8892 74.7206C57.8892 77.2177 59.6066 79.242 61.7252 79.242Z" fill="#263238"/>
<path d="M61.7252 79.336C59.558 79.336 57.7939 77.268 57.7939 74.7206C57.7939 72.1732 59.558 70.1052 61.7252 70.1052C63.8924 70.1052 65.6545 72.1732 65.6545 74.7206C65.6545 77.268 63.8905 79.336 61.7252 79.336ZM61.7252 70.2932C59.6606 70.2932 57.9806 72.2804 57.9806 74.7206C57.9806 77.1609 59.6606 79.148 61.7252 79.148C63.7897 79.148 65.4678 77.1609 65.4678 74.7206C65.4678 72.2804 63.7878 70.2932 61.7252 70.2932Z" fill="#263238"/>
<path d="M61.725 78.661C63.5714 78.661 65.0682 76.8968 65.0682 74.7205C65.0682 72.5442 63.5714 70.78 61.725 70.78C59.8786 70.78 58.3818 72.5442 58.3818 74.7205C58.3818 76.8968 59.8786 78.661 61.725 78.661Z" fill="#BABABA"/>
<path d="M61.725 78.7551C59.8285 78.7551 58.2866 76.9446 58.2866 74.7206C58.2866 72.4966 59.8285 70.688 61.725 70.688C63.6216 70.688 65.1616 72.4984 65.1616 74.7225C65.1616 76.9465 63.6197 78.7551 61.725 78.7551ZM61.725 70.8741C59.933 70.8741 58.4733 72.6 58.4733 74.7206C58.4733 76.8412 59.933 78.5671 61.725 78.5671C63.517 78.5671 64.9749 76.8412 64.9749 74.7206C64.9749 72.6 63.517 70.876 61.725 70.876V70.8741Z" fill="#263238"/>
<path d="M104.475 74.7206C104.475 72.3387 103.426 70.2462 101.843 69.0449V67.9771H98.7466C95.5845 67.9771 93.0234 70.9963 93.0234 74.7206C93.0234 78.4449 95.5845 81.4642 98.7466 81.4642H101.838V80.3963C103.426 79.195 104.475 77.1026 104.475 74.7206Z" fill="#263238"/>
<path d="M101.937 81.5582H98.7467C95.5398 81.5582 92.9302 78.4919 92.9302 74.7206C92.9302 70.9493 95.5435 67.8831 98.7467 67.8831H101.931V68.996C103.58 70.265 104.563 72.4007 104.563 74.7169C104.563 77.033 103.58 79.1687 101.931 80.4377L101.937 81.5582ZM98.7467 68.0711C95.6424 68.0711 93.1168 71.0546 93.1168 74.7206C93.1168 78.3866 95.648 81.3702 98.7467 81.3702H101.745V80.3493L101.78 80.3211C103.406 79.0897 104.377 76.9954 104.377 74.7206C104.377 72.4458 103.406 70.3515 101.78 69.1201L101.745 69.0919V68.0711H98.7467Z" fill="#263238"/>
<path d="M101.843 81.4642C105.004 81.4642 107.567 78.445 107.567 74.7206C107.567 70.9963 105.004 67.9771 101.843 67.9771C98.6825 67.9771 96.1201 70.9963 96.1201 74.7206C96.1201 78.445 98.6825 81.4642 101.843 81.4642Z" fill="white"/>
<path d="M101.843 81.5582C98.6345 81.5582 96.0249 78.4919 96.0249 74.7206C96.0249 70.9493 98.6382 67.8831 101.843 67.8831C105.048 67.8831 107.66 70.9493 107.66 74.7206C107.66 78.4919 105.05 81.5582 101.843 81.5582ZM101.843 68.0711C98.7372 68.0711 96.2116 71.0546 96.2116 74.7206C96.2116 78.3866 98.7372 81.3702 101.843 81.3702C104.949 81.3702 107.473 78.3885 107.473 74.7206C107.473 71.0527 104.948 68.0711 101.843 68.0711Z" fill="#263238"/>
<path d="M101.843 79.242C103.962 79.242 105.679 77.2177 105.679 74.7206C105.679 72.2235 103.962 70.1992 101.843 70.1992C99.7248 70.1992 98.0073 72.2235 98.0073 74.7206C98.0073 77.2177 99.7248 79.242 101.843 79.242Z" fill="#263238"/>
<path d="M101.843 79.336C99.6761 79.336 97.9121 77.268 97.9121 74.7206C97.9121 72.1732 99.6798 70.1052 101.843 70.1052C104.007 70.1052 105.763 72.1732 105.763 74.7206C105.763 77.268 104.009 79.336 101.843 79.336ZM101.843 70.2932C99.7788 70.2932 98.0988 72.2804 98.0988 74.7206C98.0988 77.1609 99.7788 79.148 101.843 79.148C103.908 79.148 105.577 77.1609 105.577 74.7206C105.577 72.2804 103.906 70.2932 101.843 70.2932Z" fill="#263238"/>
<path d="M101.843 78.661C103.69 78.661 105.186 76.8968 105.186 74.7205C105.186 72.5442 103.69 70.78 101.843 70.78C99.9968 70.78 98.5 72.5442 98.5 74.7205C98.5 76.8968 99.9968 78.661 101.843 78.661Z" fill="#BABABA"/>
<path d="M101.843 78.7551C99.9467 78.7551 98.4048 76.9446 98.4048 74.7206C98.4048 72.4966 99.9467 70.688 101.843 70.688C103.74 70.688 105.28 72.4966 105.28 74.7206C105.28 76.9446 103.738 78.7551 101.843 78.7551ZM101.843 70.8741C100.049 70.8741 98.5915 72.6 98.5915 74.7206C98.5915 76.8412 100.049 78.5671 101.843 78.5671C103.637 78.5671 105.093 76.8412 105.093 74.7206C105.093 72.6 103.635 70.876 101.843 70.876V70.8741Z" fill="#263238"/>
<path d="M53.3864 72.5529L54.5064 68.1594C54.6901 67.4433 55.1047 66.8091 55.6852 66.3561C56.2656 65.9032 56.9791 65.6573 57.7133 65.6571H63.8621C64.5303 65.657 65.1828 65.8607 65.7339 66.2412C66.285 66.6217 66.7088 67.1613 66.9496 67.789L69.6264 74.7544H85.3195V58.1371L83.184 55.1159H34.4341C33.7439 55.1104 33.0572 55.2151 32.3995 55.4261C31.7107 55.6517 30.9509 56.0409 30.4917 56.7008C29.4931 58.1427 29.4931 58.8628 29.4931 58.8628C29.4931 58.8628 23.6467 59.2952 22.2131 60.16C20.7795 61.0248 21.7837 61.7448 22.4987 63.6173C23.2136 65.4898 23.4992 66.2117 23.4992 67.5089C23.4992 68.8061 22.6424 72.5529 22.6424 72.5529H53.3864Z" fill="#56AA7A"/>
<path d="M85.4112 74.8485H69.5613L66.864 67.8229C66.627 67.2154 66.2144 66.6934 65.6796 66.3247C65.1448 65.956 64.5123 65.7575 63.8642 65.7549H57.7154C57.002 65.7547 56.3087 65.9934 55.7447 66.4334C55.1807 66.8735 54.778 67.4899 54.6 68.1857L53.4576 72.6507H22.5269L22.553 72.5361C22.553 72.4985 23.408 68.7761 23.408 67.5127C23.408 66.2493 23.1317 65.5331 22.4597 63.7753L22.413 63.6549C22.2476 63.2369 22.0607 62.8277 21.853 62.4292C21.3546 61.4309 21.0242 60.771 22.1629 60.0829C23.5218 59.2614 28.6682 58.8365 29.4018 58.7782C29.4317 58.5432 29.5885 57.8382 30.4117 56.6501C30.8112 56.0767 31.4682 55.6367 32.3661 55.3341C33.0336 55.1205 33.7303 55.0145 34.4306 55.0201H83.2309L85.4112 58.1052V74.8485ZM69.6901 74.6605H85.2245V58.1672L83.1338 55.21H34.4344C33.7538 55.2051 33.0766 55.3079 32.4277 55.5145C31.5709 55.7984 30.9437 56.2158 30.561 56.7553C29.596 58.1447 29.5773 58.8553 29.5773 58.8628V58.9493H29.4914C29.4336 58.9493 23.6525 59.3892 22.2562 60.2333C21.2669 60.8312 21.5096 61.3012 22.0173 62.3333C22.2249 62.7377 22.4118 63.1524 22.5773 63.576L22.6221 63.6963C23.3034 65.4785 23.5834 66.2155 23.5834 67.5014C23.5834 68.6821 22.8965 71.801 22.749 72.4515H53.3138L54.4189 68.1275C54.6076 67.3914 55.0338 66.7394 55.6305 66.2738C56.2272 65.8083 56.9606 65.5557 57.7154 65.5556H63.8642C64.5505 65.5581 65.2201 65.7685 65.7861 66.1595C66.352 66.5504 66.7881 67.1038 67.0376 67.7477L69.6901 74.6605Z" fill="#263238"/>
<path d="M85.3179 58.1371V74.7732H92.0845L92.6203 72.5529L93.7403 68.1594C93.9236 67.4435 94.3379 66.8093 94.918 66.3563C95.4982 65.9034 96.2113 65.6574 96.9453 65.6571H103.105C103.773 65.6575 104.426 65.8614 104.977 66.2418C105.528 66.6223 105.952 67.1616 106.193 67.789L108.718 74.7732H115.978C116.465 74.7727 116.932 74.5776 117.276 74.2308C117.62 73.884 117.814 73.4138 117.815 72.9233L116.458 59.784C116.458 59.3497 116.286 58.9332 115.981 58.6261C115.676 58.319 115.263 58.1465 114.832 58.1465L85.3179 58.1371Z" fill="#56AA7A"/>
<path d="M115.972 74.8672H108.64L106.092 67.821C105.855 67.2136 105.442 66.6918 104.907 66.3231C104.373 65.9545 103.74 65.7558 103.092 65.753H96.9323C96.2191 65.7529 95.5261 65.9916 94.9625 66.4317C94.3988 66.8718 93.9964 67.4882 93.8187 68.1838L92.6987 72.5774L92.1387 74.8691H85.2246V58.0431H114.832C115.288 58.0436 115.725 58.2262 116.047 58.5508C116.369 58.8754 116.551 59.3155 116.551 59.7746L117.902 72.912C117.903 73.168 117.854 73.4217 117.757 73.6585C117.661 73.8953 117.519 74.1107 117.339 74.2922C117.16 74.4738 116.947 74.618 116.713 74.7167C116.478 74.8153 116.227 74.8665 115.972 74.8672ZM108.778 74.6792H115.972C116.435 74.6787 116.878 74.4936 117.205 74.1644C117.531 73.8352 117.715 73.3888 117.716 72.9233L116.364 59.784C116.365 59.5806 116.326 59.3791 116.249 59.191C116.173 59.0029 116.06 58.8318 115.918 58.6876C115.775 58.5434 115.606 58.4288 115.42 58.3505C115.234 58.2722 115.034 58.2316 114.832 58.2311H85.4113V74.6792H92.0118L92.5307 72.5304L93.6507 68.1349C93.8388 67.3989 94.2646 66.7467 94.861 66.2811C95.4575 65.8155 96.1908 65.5629 96.9454 65.5631H103.105C103.792 65.5659 104.461 65.7764 105.027 66.1673C105.593 66.5582 106.029 67.1114 106.279 67.7552L108.778 74.6792Z" fill="#263238"/>
<path d="M44.5554 64.5836H44.085H27.5743L27.5482 64.5328C27.5482 64.5328 27.2701 63.9858 26.9882 63.2695C26.669 62.4648 27.3373 61.4553 27.5575 61.1225C27.8431 60.692 29.3589 58.8853 29.4242 58.8101L29.5661 58.9304C29.5493 58.9492 27.9925 60.8104 27.7125 61.2278C27.5053 61.5399 26.8781 62.4874 27.1618 63.1999C27.3933 63.7808 27.6173 64.2471 27.6919 64.3956H44.0887H44.3668C44.3363 64.2074 44.2731 64.026 44.1802 63.8598C44.0978 63.7095 44.0231 63.5552 43.9562 63.3973C43.8237 63.0852 43.6949 62.8108 43.5829 62.5701C43.0733 61.4872 42.8175 60.942 43.7994 60.0923C44.253 59.6975 45.2927 59.3628 46.9167 59.0996C48.2945 58.8778 49.6878 58.7685 51.0831 58.7725H62.3746L61.3685 55.4957L61.5551 55.4412L62.6341 58.9605H51.0775C49.6923 58.9571 48.3091 59.0652 46.941 59.2839C45.3823 59.5396 44.337 59.8686 43.9151 60.2352C43.0415 60.9872 43.2487 61.4308 43.7453 62.4912C43.8591 62.7337 43.9898 63.01 44.1186 63.3259C44.1826 63.4783 44.2549 63.627 44.3351 63.7714C44.4621 63.9918 44.5362 64.239 44.5517 64.4934L44.5554 64.5836Z" fill="#263238"/>
<path d="M46.6817 65.6233C47.3858 65.6233 47.9566 64.689 47.9566 63.5365C47.9566 62.384 47.3858 61.4497 46.6817 61.4497C45.9775 61.4497 45.4067 62.384 45.4067 63.5365C45.4067 64.689 45.9775 65.6233 46.6817 65.6233Z" fill="white"/>
<path d="M46.6817 65.7172C45.9351 65.7172 45.3135 64.7396 45.3135 63.5364C45.3135 62.3332 45.9276 61.3556 46.6817 61.3556C47.4359 61.3556 48.05 62.3332 48.05 63.5364C48.05 64.7396 47.4359 65.7172 46.6817 65.7172ZM46.6817 61.5436C46.0303 61.5436 45.5001 62.4366 45.5001 63.5364C45.5001 64.6362 46.0303 65.5292 46.6817 65.5292C47.3332 65.5292 47.8633 64.6343 47.8633 63.5364C47.8633 62.4385 47.3332 61.5436 46.6817 61.5436Z" fill="#263238"/>
<path d="M47.6222 66.5652C47.4527 66.5695 47.286 66.5216 47.1443 66.4279L47.2526 66.2738C47.3745 66.3399 47.5108 66.3746 47.6493 66.3746C47.7877 66.3746 47.924 66.3399 48.0459 66.2738C48.3931 66.1046 48.6059 65.7474 48.6209 65.2698C48.675 64.108 47.4001 61.2673 47.0398 61.0605C46.6795 60.8537 44.8166 60.9101 44.5142 61.2147C44.3387 61.3914 44.8875 62.5307 45.4849 63.482L45.3281 63.5835C45.0145 63.0872 44.0214 61.4459 44.3835 61.0812C44.7457 60.7165 46.6889 60.6413 47.1331 60.8932C47.5774 61.1451 48.8617 64.108 48.8131 65.2736C48.7777 66.0256 48.3726 66.3227 48.1337 66.4392C47.9749 66.5199 47.8 66.563 47.6222 66.5652Z" fill="#263238"/>
<path d="M24.5113 65.6233C25.2154 65.6233 25.7862 64.689 25.7862 63.5365C25.7862 62.384 25.2154 61.4497 24.5113 61.4497C23.8071 61.4497 23.2363 62.384 23.2363 63.5365C23.2363 64.689 23.8071 65.6233 24.5113 65.6233Z" fill="white"/>
<path d="M24.5113 65.7172C23.7647 65.7172 23.1431 64.7396 23.1431 63.5364C23.1431 62.3332 23.7572 61.3556 24.5113 61.3556C25.2655 61.3556 25.8796 62.3332 25.8796 63.5364C25.8796 64.7396 25.2655 65.7172 24.5113 65.7172ZM24.5113 61.5436C23.8599 61.5436 23.3297 62.4366 23.3297 63.5364C23.3297 64.6362 23.8599 65.5292 24.5113 65.5292C25.1628 65.5292 25.6929 64.6343 25.6929 63.5364C25.6929 62.4385 25.1628 61.5436 24.5113 61.5436Z" fill="#263238"/>
<path d="M25.4518 66.5652C25.2823 66.5695 25.1156 66.5216 24.9739 66.4279L25.0822 66.2738C25.2042 66.3394 25.3405 66.3738 25.4789 66.3738C25.6172 66.3738 25.7535 66.3394 25.8755 66.2738C26.2227 66.1046 26.4355 65.7474 26.4505 65.2698C26.5046 64.108 25.2297 61.2673 24.8694 61.0605C24.5091 60.8537 22.6462 60.912 22.3438 61.2147C22.1683 61.3914 22.7171 62.5307 23.3145 63.482L23.1577 63.5835C22.8441 63.0872 21.851 61.4459 22.2131 61.0812C22.5753 60.7165 24.5185 60.6413 24.9627 60.8932C25.407 61.1451 26.6913 64.108 26.6427 65.2736C26.6073 66.0256 26.2022 66.3227 25.9633 66.4392C25.8045 66.5199 25.6296 66.563 25.4518 66.5652Z" fill="#263238"/>
<path d="M31.0219 70.8723H34.3091L33.5494 65.8997H30.2622L31.0219 70.8723Z" fill="#263238"/>
<path d="M34.4196 70.9662H30.942L30.1543 65.7999H33.63L34.4196 70.9662ZM31.1026 70.7782H34.2012L33.4695 65.9879H30.3727L31.1026 70.7782Z" fill="#263238"/>
<path d="M37.4044 65.8997H34.1172L34.8769 70.8723H38.1641L37.4044 65.8997Z" fill="#263238"/>
<path d="M38.2666 70.9662H34.7964L34.0068 65.7999H37.4844L38.2666 70.9662ZM34.9514 70.7782H38.0482L37.3332 65.9879H34.2346L34.9514 70.7782Z" fill="#263238"/>
<path d="M29.6969 65.8997H28.6795C28.4315 65.9001 28.1907 65.9833 27.9948 66.1364C27.7988 66.2895 27.6589 66.5038 27.5969 66.7457L26.9062 69.4679C26.8645 69.6341 26.861 69.8076 26.8958 69.9754C26.9307 70.1431 27.0031 70.3007 27.1074 70.436C27.2118 70.5714 27.3454 70.6811 27.4981 70.7566C27.6509 70.8322 27.8187 70.8718 27.9889 70.8723H30.4566L29.6969 65.8997Z" fill="#263238"/>
<path d="M30.5649 70.9663H27.9889C27.8043 70.9663 27.6222 70.9238 27.4565 70.8422C27.2907 70.7605 27.1457 70.6418 27.0324 70.4951C26.9191 70.3483 26.8407 70.1775 26.8029 69.9956C26.7652 69.8137 26.7692 69.6255 26.8147 69.4453L27.5073 66.7231C27.5737 66.4607 27.7249 66.2281 27.9372 66.062C28.1495 65.8958 28.4107 65.8056 28.6795 65.8057H29.7771L30.5649 70.9663ZM28.6795 65.988C28.4521 65.9881 28.2312 66.0644 28.0517 66.205C27.8722 66.3457 27.7444 66.5425 27.6883 66.7645L26.9958 69.4867C26.9571 69.639 26.9534 69.7983 26.9852 69.9522C27.017 70.1062 27.0834 70.2508 27.1793 70.3749C27.2751 70.499 27.3979 70.5994 27.5383 70.6683C27.6786 70.7373 27.8327 70.773 27.9889 70.7726H30.3465L29.6166 65.988H28.6795Z" fill="#263238"/>
<path d="M41.2569 65.8997H37.9697L38.7295 70.8723H42.0167L41.2569 65.8997Z" fill="#263238"/>
<path d="M42.1248 70.9662H38.6491L37.8613 65.7999H41.3371L42.1248 70.9662ZM38.8096 70.7782H41.9083L41.1765 65.9879H38.0797L38.8096 70.7782Z" fill="#263238"/>
<path d="M45.7335 69.3852L44.8114 66.6611C44.7357 66.4393 44.5933 66.2468 44.4039 66.1103C44.2146 65.9738 43.9877 65.9002 43.7548 65.8997H41.8247L42.5844 70.876H44.6732C44.8512 70.876 45.0267 70.8332 45.185 70.7513C45.3433 70.6694 45.4799 70.5506 45.5836 70.4049C45.6872 70.2591 45.7549 70.0906 45.7809 69.9133C45.807 69.7359 45.7908 69.5549 45.7335 69.3852Z" fill="#263238"/>
<path d="M44.673 70.9662H42.504L41.7144 65.7999H43.7528C44.0051 65.8001 44.2512 65.8797 44.4563 66.0277C44.6615 66.1757 44.8156 66.3846 44.897 66.6252L45.8192 69.3475C45.8816 69.5311 45.8996 69.727 45.8716 69.919C45.8437 70.111 45.7706 70.2935 45.6585 70.4513C45.5464 70.609 45.3985 70.7376 45.227 70.8262C45.0556 70.9148 44.8657 70.9608 44.673 70.9605V70.9662ZM42.6645 70.7782H44.673C44.8358 70.7783 44.9962 70.7393 45.141 70.6644C45.2858 70.5895 45.4107 70.4809 45.5055 70.3476C45.6002 70.2143 45.662 70.0602 45.6857 69.898C45.7094 69.7358 45.6944 69.5703 45.6418 69.4152L44.7216 66.6929C44.6526 66.4892 44.5222 66.3122 44.3485 66.1868C44.1748 66.0614 43.9665 65.9938 43.7528 65.9936H41.9328L42.6645 70.7782Z" fill="#263238"/>
<path d="M54.042 72.8425C53.9542 72.1469 53.215 71.5998 52.8286 71.3573H22.5214C22.1369 71.5998 21.4014 72.1469 21.3081 72.8425C21.1886 73.7825 21.5508 74.5965 22.2732 75.0007H53.0732C53.8012 74.5965 54.1633 73.7863 54.042 72.8425Z" fill="#BABABA"/>
<path d="M53.1029 75.0947H22.2487L22.2263 75.0834C21.4685 74.6585 21.0914 73.8163 21.2165 72.8274C21.3079 72.1055 22.0434 71.5452 22.4727 71.2764L22.4951 71.2614H52.8565L52.8789 71.2764C53.3082 71.5452 54.0437 72.1055 54.1351 72.8274C54.2602 73.8144 53.8831 74.6566 53.1253 75.0834L53.1029 75.0947ZM22.3029 74.9067H53.0543C53.7301 74.5175 54.0642 73.7524 53.9503 72.8537C53.8701 72.2202 53.2037 71.7088 52.8023 71.4512H22.5493C22.1442 71.7088 21.4815 72.2202 21.4013 72.8537C21.2799 73.7524 21.6215 74.5175 22.2973 74.9067H22.3029Z" fill="#263238"/>
<path d="M84.3286 58.6823H65.1299V58.8703H84.3286V58.6823Z" fill="#263238"/>
<path d="M83.1824 55.116L80.6045 45.5599C80.3546 44.6325 79.8814 43.7814 79.2269 43.0821C78.4699 42.275 77.4449 41.7759 76.3466 41.6796L73.9405 41.4728C64.5325 41.1231 56.5114 41.5518 50.9562 42.3301C50.8285 42.378 50.7069 42.4411 50.5941 42.5181C49.6512 43.0882 48.9275 43.9628 48.5408 44.9997L44.7402 55.0295L83.1824 55.116Z" fill="#56AA7A"/>
<path d="M83.3035 55.2099H83.1821L44.5981 55.1122L48.4453 44.9602C48.8415 43.9037 49.5801 43.0127 50.5416 42.4316C50.6631 42.3522 50.7942 42.289 50.9317 42.2436C57.1645 41.36 65.3331 41.0592 73.9384 41.3788L76.3464 41.5875C77.4689 41.6835 78.517 42.1929 79.2901 43.0181C79.9552 43.7288 80.4366 44.5933 80.692 45.5355L83.3035 55.2099ZM44.8688 54.9261L83.0589 55.0219L80.5147 45.5843C80.2693 44.6694 79.8031 43.8299 79.1576 43.1403C78.416 42.3481 77.4105 41.8588 76.3333 41.7661L73.9197 41.5668C65.3331 41.2472 57.172 41.5517 50.9597 42.4222C50.8459 42.4676 50.7366 42.5236 50.6331 42.5895C49.7065 43.1517 48.996 44.0131 48.6171 45.0335L44.8688 54.9261Z" fill="#263238"/>
<path d="M46.2148 52.749L49.4666 44.3679C49.7316 43.6874 50.3103 43.2512 50.9487 43.2512L53.8644 43.0632C55.7349 42.9366 57.6114 42.9266 59.4831 43.0331L63.4666 43.2587C64.6444 43.2587 65.7066 44.1198 66.1079 45.417L68.0436 51.5758C68.1904 52.0337 68.216 52.5222 68.1177 52.9931C68.0195 53.4639 67.8009 53.9008 67.4836 54.2605C67.2743 54.4972 67.0104 54.6786 66.7152 54.7887C66.4201 54.8988 66.1026 54.9343 65.7906 54.8922C63.6458 54.5744 58.3631 53.8676 54.3348 54.0029C52.0166 54.0825 49.7053 54.3023 47.4132 54.6609C46.521 54.7963 45.8378 53.7209 46.2148 52.749Z" fill="#263238"/>
<path d="M66.0686 55.0013C65.9743 55.0009 65.8801 54.994 65.7867 54.9806C63.6923 54.6685 58.3835 53.956 54.3478 54.0914C52.0346 54.1716 49.7283 54.3907 47.4411 54.7475C47.2365 54.7778 47.0275 54.7519 46.8362 54.6725C46.645 54.5931 46.4786 54.4631 46.3547 54.2963C46.1831 54.0756 46.0722 53.8133 46.0332 53.5358C45.9942 53.2582 46.0285 52.9752 46.1326 52.7152L49.3918 44.3361C49.6699 43.6217 50.2859 43.1592 50.9598 43.1592L53.8699 42.9712C55.7442 42.8455 57.6243 42.8355 59.4998 42.9411L63.4814 43.1667C64.691 43.1667 65.7867 44.0616 66.2048 45.3907L68.1331 51.5421C68.2887 52.0139 68.3188 52.5185 68.2206 53.0056C68.1223 53.4928 67.8991 53.9456 67.5731 54.3189C67.3828 54.5312 67.1509 54.7015 66.8919 54.819C66.6329 54.9365 66.3526 54.9985 66.0686 55.0013ZM55.4024 53.8865C59.2758 53.8865 63.8939 54.5087 65.8147 54.7945C66.112 54.834 66.4144 54.7997 66.6955 54.6945C66.9766 54.5893 67.2279 54.4164 67.4275 54.191C67.7338 53.8436 67.9443 53.4214 68.038 52.9665C68.1317 52.5116 68.1053 52.0399 67.9614 51.5985L66.0256 45.4396C65.6318 44.1875 64.607 43.3472 63.4739 43.3472L59.4848 43.1216C57.6193 43.0163 55.7491 43.0263 53.8848 43.1517L50.971 43.3397C50.6585 43.3527 50.3572 43.4609 50.107 43.6498C49.8567 43.8388 49.6692 44.0997 49.5691 44.3981L46.3099 52.7754C46.2188 53.0047 46.1882 53.2538 46.2209 53.4985C46.2536 53.7433 46.3486 53.9753 46.4966 54.1722C46.601 54.3119 46.7409 54.4206 46.9016 54.4868C47.0622 54.553 47.2377 54.5742 47.4094 54.5482C49.7053 54.1904 52.0203 53.9707 54.3422 53.8902C54.6931 53.8921 55.0422 53.8865 55.4024 53.8865Z" fill="#263238"/>
<path d="M66.1153 45.4114C65.7868 44.3661 65.0364 43.6028 64.1386 43.3434L49.5562 54.3583C50.9244 54.1966 52.5559 54.0537 54.346 53.9936C56.2568 53.954 58.1683 54.0243 60.0711 54.2041L67.1644 48.7521L66.1153 45.4114Z" fill="white"/>
<path d="M49.2241 54.4955L64.1201 43.24L64.1649 43.2532C65.1076 43.522 65.8692 44.3172 66.2033 45.3794L67.2729 48.7785L67.2206 48.818L60.1068 54.3038H60.0713C58.1717 54.1228 56.2633 54.0524 54.3556 54.0932C52.782 54.1459 51.1822 54.2681 49.575 54.458L49.2241 54.4955ZM64.1575 43.4505L49.8887 54.2286C51.382 54.0632 52.8753 53.9522 54.3425 53.9033C56.2452 53.8617 58.1487 53.9314 60.0433 54.112L67.0545 48.7127L66.026 45.4396C65.7161 44.4545 65.0199 43.7137 64.1575 43.4505Z" fill="#263238"/>
<path d="M47.3218 49.9064L56.3434 42.9598C55.5183 42.9699 54.6945 43.0025 53.8719 43.0576L51.5964 43.2099L49.1828 45.12L47.3218 49.9064Z" fill="white"/>
<path d="M47.1128 50.196L49.1064 45.0692L51.5611 43.1272L53.8664 42.973C54.6691 42.9185 55.5035 42.8865 56.3416 42.8752H56.6235L47.1128 50.196ZM49.2613 45.1764L47.5291 49.632L56.0616 43.052C55.3149 43.067 54.5888 43.0971 53.8776 43.146L51.6376 43.2964L49.2613 45.1764Z" fill="#263238"/>
<path d="M77.5524 43.4016H70.5244C70.1842 43.4018 69.8487 43.4817 69.5445 43.635C69.2402 43.7884 68.9756 44.011 68.7716 44.2852C68.5628 44.565 68.4232 44.8908 68.3645 45.2358C68.3057 45.5807 68.3295 45.9348 68.4337 46.2686L70.5244 53.0159C70.6791 53.5114 70.9865 53.9444 71.4021 54.252C71.8176 54.5596 72.3196 54.7259 72.8353 54.7267H80.5017C80.6591 54.7266 80.8142 54.6896 80.9549 54.6187C81.0956 54.5478 81.218 54.4449 81.3125 54.3182C81.407 54.1915 81.471 54.0444 81.4994 53.8886C81.5278 53.7327 81.5198 53.5724 81.4761 53.4201L78.8889 44.4187C78.8056 44.1262 78.6303 43.8689 78.3892 43.6855C78.1482 43.5021 77.8545 43.4024 77.5524 43.4016Z" fill="#263238"/>
<path d="M80.5017 54.8151H72.8353C72.2992 54.8169 71.7768 54.6453 71.3449 54.3254C70.9131 54.0055 70.5946 53.5544 70.4366 53.0385L68.3441 46.2968C68.2373 45.9522 68.2124 45.5872 68.2715 45.2312C68.3305 44.8752 68.4718 44.5381 68.684 44.2472C68.8962 43.9563 69.1733 43.7197 69.493 43.5565C69.8127 43.3933 70.166 43.308 70.5244 43.3076H77.5524C77.8737 43.309 78.1861 43.4147 78.443 43.6092C78.6999 43.8036 78.8877 44.0763 78.9785 44.3867L81.5732 53.3919C81.6205 53.5581 81.629 53.733 81.5978 53.903C81.5667 54.0729 81.4968 54.2333 81.3937 54.3714C81.2905 54.5096 81.157 54.6217 81.0035 54.699C80.85 54.7763 80.6808 54.8167 80.5092 54.817L80.5017 54.8151ZM70.5244 43.4956C70.1944 43.4955 69.869 43.5738 69.5746 43.724C69.2802 43.8743 69.0251 44.0923 68.83 44.3603C68.635 44.6284 68.5053 44.939 68.4517 45.267C68.3981 45.5949 68.422 45.931 68.5214 46.2479L70.614 52.9896C70.7604 53.4673 71.0553 53.885 71.4552 54.1812C71.8551 54.4774 72.3389 54.6363 72.8353 54.6346H80.5017C80.6445 54.6344 80.7854 54.6008 80.9131 54.5365C81.0409 54.4721 81.152 54.3787 81.2378 54.2637C81.3236 54.1487 81.3817 54.0151 81.4075 53.8737C81.4333 53.7322 81.4261 53.5866 81.3865 53.4483L78.7974 44.4469C78.7174 44.1765 78.5532 43.9391 78.329 43.7699C78.1048 43.6006 77.8325 43.5084 77.5524 43.5069L70.5244 43.4956Z" fill="#263238"/>
<path d="M79.6452 47.045L71.0044 53.877C71.2318 54.1415 71.513 54.3537 71.8289 54.4994C72.1449 54.645 72.4882 54.7206 72.8356 54.7211H74.1591L80.4535 49.8726L79.6452 47.045Z" fill="white"/>
<path d="M74.1904 54.8151H72.8352C72.4744 54.8149 72.1178 54.7365 71.7896 54.5854C71.4614 54.4342 71.1693 54.2138 70.9331 53.939L70.8696 53.8638L79.6952 46.8853L80.5651 49.9083L74.1904 54.8151ZM71.1403 53.8883C71.3576 54.1216 71.6202 54.3076 71.9117 54.4347C72.2032 54.5618 72.5176 54.6273 72.8352 54.6271H74.1288L80.3504 49.8369L79.5926 47.2049L71.1403 53.8883Z" fill="#263238"/>
<path d="M117.557 69.6879H116.142C116.142 69.6879 116.189 73.7374 115.022 74.7545H117.695C117.695 74.7545 118.554 74.5796 118.983 73.5268V73.5174C119.148 73.0849 119.171 72.6101 119.047 72.1638L118.459 69.9078C118.459 69.8783 118.454 69.8489 118.444 69.8213C118.433 69.7938 118.417 69.7686 118.397 69.7473C118.376 69.726 118.352 69.7089 118.325 69.6971C118.298 69.6853 118.269 69.679 118.24 69.6785L117.557 69.6879Z" fill="#BABABA"/>
<path d="M115.018 74.8484H114.768L114.955 74.6829C116.075 73.7053 116.045 69.7272 116.045 69.6877V69.5938H118.238C118.32 69.5947 118.399 69.6278 118.457 69.6861C118.515 69.7444 118.548 69.8232 118.55 69.9058L119.136 72.1393C119.264 72.6058 119.24 73.1014 119.067 73.553C118.621 74.6491 117.744 74.839 117.706 74.8465L115.018 74.8484ZM115.24 74.6604H117.68C117.772 74.6378 118.507 74.4385 118.893 73.491C119.054 73.075 119.076 72.618 118.957 72.1882L118.365 69.9322V69.9171C118.366 69.9001 118.363 69.8831 118.357 69.8673C118.351 69.8514 118.342 69.837 118.33 69.825C118.318 69.8128 118.304 69.803 118.289 69.7962C118.273 69.7894 118.257 69.7858 118.24 69.7855H116.235C116.235 70.3834 116.187 73.523 115.24 74.6604Z" fill="#263238"/>
<path d="M84.3044 73.288H69.694V73.1978C69.694 73.1019 69.2143 63.4537 68.8615 61.3218C68.5199 59.2538 67.3962 58.9981 67.3831 58.9962L67.3178 58.9831V58.9135L66.978 55.4073H67.0826C67.0994 55.4073 68.8335 55.3979 69.3954 54.7211C69.9572 54.0443 69.8527 53.6063 69.8527 53.6025C69.7519 53.3243 67.3178 46.5375 67.3178 45.2158C67.3178 43.8547 68.6244 43.1215 68.6767 43.0914L68.7663 43.2569C68.7532 43.2569 67.5044 43.9675 67.5044 45.2158C67.5044 46.5055 70.0058 53.4784 70.0319 53.548C70.0319 53.5781 70.157 54.0932 69.5372 54.8414C68.9978 55.4919 67.581 55.5821 67.1852 55.5934L67.497 58.8308C67.7658 58.9191 68.7327 59.3628 69.0519 61.2898C69.3879 63.3221 69.834 72.113 69.8844 73.1H84.129V60.0058L83.177 57.9622C83.177 57.9453 82.8186 56.1894 82.2548 55.7363L82.3724 55.5897C82.9698 56.0691 83.3226 57.7441 83.358 57.9133L84.3156 59.9813L84.3044 73.288Z" fill="#263238"/>
<path d="M82.8986 57.9434H79.561C79.4663 57.9434 79.3754 57.9057 79.3083 57.8384C79.2411 57.7711 79.2031 57.6798 79.2026 57.5843C79.2026 57.4886 79.2404 57.3968 79.3076 57.3291C79.3748 57.2614 79.466 57.2234 79.561 57.2234H82.8986C82.993 57.2244 83.0832 57.2628 83.1497 57.3304C83.2161 57.398 83.2533 57.4893 83.2533 57.5843C83.2528 57.6791 83.2154 57.7699 83.149 57.8371C83.0826 57.9042 82.9927 57.9424 82.8986 57.9434Z" fill="white"/>
<path d="M82.8984 58.0374H79.5608C79.4992 58.0414 79.4374 58.0326 79.3793 58.0116C79.3211 57.9906 79.2679 57.9578 79.2228 57.9153C79.1778 57.8727 79.1418 57.8213 79.1173 57.7642C79.0927 57.7071 79.0801 57.6456 79.0801 57.5834C79.0801 57.5212 79.0927 57.4596 79.1173 57.4025C79.1418 57.3455 79.1778 57.2941 79.2228 57.2515C79.2679 57.2089 79.3211 57.1762 79.3793 57.1551C79.4374 57.1341 79.4992 57.1254 79.5608 57.1294H82.8984C82.9601 57.1254 83.0219 57.1341 83.08 57.1551C83.1381 57.1762 83.1914 57.2089 83.2364 57.2515C83.2815 57.2941 83.3174 57.3455 83.342 57.4025C83.3665 57.4596 83.3792 57.5212 83.3792 57.5834C83.3792 57.6456 83.3665 57.7071 83.342 57.7642C83.3174 57.8213 83.2815 57.8727 83.2364 57.9153C83.1914 57.9578 83.1381 57.9906 83.08 58.0116C83.0219 58.0326 82.9601 58.0414 82.8984 58.0374ZM79.5608 57.3174C79.5243 57.3143 79.4875 57.3188 79.4528 57.3308C79.4181 57.3428 79.3862 57.3618 79.3592 57.3869C79.3322 57.4119 79.3106 57.4422 79.2959 57.4761C79.2812 57.5099 79.2735 57.5464 79.2735 57.5834C79.2735 57.6203 79.2812 57.6569 79.2959 57.6907C79.3106 57.7245 79.3322 57.7549 79.3592 57.7799C79.3862 57.8049 79.4181 57.824 79.4528 57.836C79.4875 57.8479 79.5243 57.8525 79.5608 57.8494H82.8984C82.935 57.8525 82.9718 57.8479 83.0065 57.836C83.0412 57.824 83.0731 57.8049 83.1001 57.7799C83.1271 57.7549 83.1486 57.7245 83.1634 57.6907C83.1781 57.6569 83.1857 57.6203 83.1857 57.5834C83.1857 57.5464 83.1781 57.5099 83.1634 57.4761C83.1486 57.4422 83.1271 57.4119 83.1001 57.3869C83.0731 57.3618 83.0412 57.3428 83.0065 57.3308C82.9718 57.3188 82.935 57.3143 82.8984 57.3174H79.5608Z" fill="#263238"/>
<path d="M67.6573 63.1134H58.5107L57.4149 63.4499C57.3803 63.46 57.3499 63.4811 57.3283 63.5101C57.3066 63.5391 57.2949 63.5744 57.2949 63.6107C57.2949 63.6469 57.3066 63.6822 57.3283 63.7112C57.3499 63.7402 57.3803 63.7613 57.4149 63.7714L58.5051 64.0684H67.6517C67.7465 64.0679 67.8371 64.0297 67.9039 63.9621C67.9708 63.8944 68.0083 63.8029 68.0083 63.7075V63.4725C68.0083 63.3782 67.9715 63.2877 67.9058 63.2206C67.8402 63.1534 67.7509 63.1149 67.6573 63.1134Z" fill="white"/>
<path d="M67.6571 64.1625H58.488L57.3979 63.8654C57.3436 63.8503 57.2957 63.8176 57.2616 63.7725C57.2275 63.7273 57.209 63.6721 57.209 63.6154C57.209 63.5586 57.2275 63.5035 57.2616 63.4583C57.2957 63.4131 57.3436 63.3805 57.3979 63.3653L58.5179 63.0232H67.6645C67.7236 63.0232 67.7821 63.0349 67.8367 63.0577C67.8913 63.0804 67.9409 63.1138 67.9826 63.1559C68.0244 63.198 68.0576 63.2479 68.0802 63.3029C68.1028 63.3579 68.1144 63.4168 68.1144 63.4763V63.7113C68.1139 63.7712 68.1017 63.8304 68.0784 63.8855C68.0552 63.9407 68.0213 63.9906 67.9788 64.0326C67.9363 64.0745 67.886 64.1075 67.8308 64.1298C67.7756 64.1521 67.7166 64.1632 67.6571 64.1625ZM58.5253 63.9745H67.6571C67.7271 63.974 67.794 63.9456 67.8433 63.8956C67.8926 63.8456 67.9203 63.778 67.9203 63.7075V63.4725C67.9203 63.4022 67.8925 63.3348 67.8432 63.2851C67.7938 63.2354 67.7269 63.2074 67.6571 63.2074H58.5272L57.4445 63.5402C57.4291 63.5441 57.4155 63.5535 57.4063 63.5666C57.3971 63.5797 57.3928 63.5956 57.3941 63.6116C57.3937 63.6275 57.3986 63.643 57.4081 63.6557C57.4176 63.6683 57.4311 63.6773 57.4464 63.6812L58.5253 63.9745Z" fill="#263238"/>
<path d="M30.0664 59.4268H37.9829C37.9829 59.4268 37.4379 60.1487 37.1205 60.1487H35.8493L35.28 60.8668C35.1604 61.0174 35.0087 61.139 34.8362 61.2226C34.6636 61.3062 34.4747 61.3498 34.2832 61.35H32.9467C32.6989 61.3496 32.4565 61.2765 32.2493 61.1396C32.0421 61.0027 31.8791 60.808 31.78 60.5792L31.5579 60.0678H31.1211C30.9396 60.0688 30.7604 60.0266 30.5982 59.9446C30.4361 59.8626 30.2954 59.7431 30.1877 59.596L30.0664 59.4268Z" fill="white"/>
<path d="M34.2812 61.4441H32.9446C32.6786 61.4437 32.4185 61.3653 32.196 61.2184C31.9735 61.0715 31.7984 60.8624 31.6921 60.6169L31.4942 60.16H31.1209C30.9257 60.1596 30.7333 60.1134 30.5589 60.025C30.3846 59.9365 30.2331 59.8083 30.1166 59.6505L29.8833 59.3309H38.1732L38.0593 59.4832C38.0014 59.5603 37.4769 60.2352 37.126 60.2352H35.8996L35.3564 60.9195C35.2282 61.0832 35.0648 61.2154 34.8786 61.3062C34.6924 61.3971 34.4881 61.4442 34.2812 61.4441ZM30.251 59.5208L30.266 59.5415C30.365 59.6754 30.4936 59.7842 30.6417 59.8593C30.7898 59.9344 30.9532 59.9736 31.119 59.9739H31.6174L31.8638 60.5379C31.9554 60.75 32.1064 60.9306 32.2984 61.0575C32.4904 61.1844 32.715 61.2521 32.9446 61.2523H34.2812C34.4587 61.2527 34.634 61.2126 34.794 61.1351C34.954 61.0577 35.0946 60.9447 35.2052 60.8049L35.8044 60.0529H37.1204C37.2828 60.0529 37.5777 59.7671 37.7886 59.5189L30.251 59.5208Z" fill="#263238"/>
<path d="M32.1269 59.9719H35.0315C35.0315 59.9719 34.8317 60.7239 34.4304 60.88C34.0291 61.036 32.6291 60.88 32.6291 60.88C32.465 60.7963 32.3295 60.6651 32.2401 60.5033C32.1506 60.3415 32.1112 60.1565 32.1269 59.9719Z" fill="#263238"/>
<path d="M33.7865 61.0473C33.262 61.0473 32.6665 60.9853 32.6273 60.9815L32.5993 60.9721C32.4178 60.8804 32.2676 60.7363 32.1678 60.5581C32.068 60.3799 32.0233 60.1759 32.0393 59.972V59.8855H35.151L35.1212 60.0039C35.1212 60.0359 34.9028 60.8086 34.4622 60.9759C34.2417 61.0331 34.014 61.0572 33.7865 61.0473ZM32.6665 60.7954C33.0641 60.8368 34.102 60.9157 34.41 60.7954C34.6545 60.7033 34.8337 60.3104 34.9177 60.0697H32.2185C32.2202 60.219 32.2617 60.365 32.3385 60.4927C32.4153 60.6203 32.5247 60.7248 32.6553 60.7954H32.6665Z" fill="#263238"/>
<path d="M49.1342 74.072C43.0937 74.5382 39.4929 73.132 30.0849 73.132C25.1942 73.132 22.7526 73.696 21.5337 74.2468C21.7046 74.5653 21.9641 74.8267 22.2804 74.9988H53.0804C53.3416 74.8508 53.5645 74.643 53.7312 74.3922C53.8979 74.1414 54.0036 73.8546 54.0398 73.555C52.8638 73.7204 51.2697 73.9009 49.1342 74.072Z" fill="white"/>
<path d="M53.1027 75.0947H22.2485L22.2261 75.0834C21.8975 74.8995 21.6285 74.6241 21.4515 74.2901L21.4048 74.1998L21.4963 74.1603C22.6387 73.6471 25.056 73.0323 30.0829 73.0323C33.6085 73.0383 37.1309 73.2448 40.6333 73.6509C43.5266 73.9498 46.0261 74.2149 49.1248 73.9686C50.9915 73.8238 52.6434 73.6527 54.0229 73.4591L54.1461 73.4422L54.1293 73.5663C54.0909 73.8802 53.9799 74.1807 53.8051 74.4436C53.6304 74.7064 53.3968 74.9243 53.1232 75.0797L53.1027 75.0947ZM22.3027 74.9067H53.0541C53.2792 74.7756 53.4735 74.597 53.6237 74.3831C53.7738 74.1693 53.8763 73.9253 53.924 73.6678C52.5669 73.8558 50.9579 74.0175 49.1416 74.1585C46.0243 74.401 43.5192 74.1415 40.6165 73.8407C37.1202 73.4365 33.6041 73.2306 30.0848 73.2241C25.2315 73.2241 22.8291 73.7881 21.6661 74.2901C21.8205 74.5466 22.0378 74.759 22.2971 74.9067H22.3027Z" fill="#263238"/>
<path d="M65.0681 74.7205C65.0681 74.6171 65.0681 74.5156 65.0551 74.416C63.9911 74.0193 62.6284 73.805 61.7249 74.7205C60.9428 75.5082 59.7108 75.9275 58.6113 76.1512C59.0967 77.6176 60.3063 78.661 61.7249 78.661C63.5711 78.661 65.0681 76.8919 65.0681 74.7205Z" fill="#263238"/>
<path d="M61.7252 78.755C60.2972 78.755 59.0409 77.7436 58.5238 76.1794L58.4902 76.0798L58.5929 76.0591C59.9817 75.7752 61.0196 75.3071 61.658 74.6548C62.4196 73.8877 63.6049 73.7749 65.087 74.3276L65.143 74.3483V74.4085C65.143 74.5119 65.1561 74.6153 65.1561 74.7206C65.1617 76.9446 63.6198 78.755 61.7252 78.755ZM58.7385 76.2208C59.25 77.6496 60.4185 78.567 61.7252 78.567C63.5172 78.567 64.975 76.8412 64.975 74.7206C64.975 74.6397 64.975 74.5608 64.9657 74.4837C63.9876 74.1284 62.6641 73.9065 61.7924 74.7864C61.1353 75.4462 60.1068 75.9294 58.7348 76.2208H58.7385Z" fill="#263238"/>
<path d="M105.17 75.1003C103.843 74.2355 101.907 74.2581 100.705 75.4763C100.203 75.9993 99.5311 76.3224 98.812 76.3862C99.344 77.7323 100.492 78.6686 101.843 78.6686C103.579 78.661 105.007 77.0988 105.17 75.1003Z" fill="#263238"/>
<path d="M101.843 78.755C100.51 78.755 99.2877 77.8357 98.7259 76.4125L98.6792 76.296L98.8043 76.2847C99.5014 76.223 100.153 75.9099 100.639 75.403C101.797 74.2374 103.766 74.0738 105.22 75.027L105.267 75.0589V75.1135C105.093 77.1871 103.622 78.755 101.843 78.755ZM98.9461 76.4577C99.5061 77.7436 100.626 78.567 101.843 78.567C103.508 78.567 104.89 77.1006 105.071 75.1492C103.695 74.2806 101.854 74.4423 100.777 75.5365C100.289 76.0447 99.6429 76.3697 98.9461 76.4577Z" fill="#263238"/>
</svg>
