<svg width="140" height="94" viewBox="0 0 140 94" fill="none" xmlns="http://www.w3.org/2000/svg">
<path d="M127.917 45.4227C124.335 38.9047 119.11 33.3606 112.818 29.1625C102.527 22.2949 83.0033 11.1879 68.4508 14.4572C47.77 19.1008 1.19103 48.316 8.21343 60.8969C15.2358 73.4779 30.9868 81.4641 30.9868 81.4641H114.445C118.644 81.4078 127.678 78.1027 131.09 57.4133C131.695 53.7454 130.09 49.3763 127.917 45.4227Z" fill="#56AA7A"/>
<path opacity="0.7" d="M127.917 45.4227C124.335 38.9047 119.11 33.3606 112.818 29.1625C102.527 22.2949 83.0033 11.1879 68.4508 14.4572C47.77 19.1008 1.19103 48.316 8.21343 60.8969C15.2358 73.4779 30.9868 81.4641 30.9868 81.4641H114.445C118.644 81.4078 127.678 78.1027 131.09 57.4133C131.695 53.7454 130.09 49.3763 127.917 45.4227Z" fill="white"/>
<path d="M20.4372 80.9237C26.7536 80.9237 31.8741 75.5682 31.8741 68.9618C31.8741 62.3555 26.7536 57 20.4372 57C14.1207 57 9.00024 62.3555 9.00024 68.9618C9.00024 75.5682 14.1207 80.9237 20.4372 80.9237Z" fill="#56AA7A"/>
<path opacity="0.4" d="M20.4372 80.9237C26.7536 80.9237 31.8741 75.5682 31.8741 68.9618C31.8741 62.3555 26.7536 57 20.4372 57C14.1207 57 9.00024 62.3555 9.00024 68.9618C9.00024 75.5682 14.1207 80.9237 20.4372 80.9237Z" fill="white"/>
<path d="M21.8623 75.4644L20.237 77.2142L20.174 73.341L21.5158 71.5305L20.1591 72.4173L20.098 68.7797H19.9219L19.8978 70.4743L18.8544 69.8395L19.8867 71.3612L19.8311 75.4552L17.7869 74.537L19.7829 76.4065L19.453 82.1933H20.439L20.2722 78.1931L21.8623 75.4644Z" fill="#263238"/>
<path d="M104.26 48.7222C104.26 48.7222 114.025 49.6808 118.976 55.6902C118.976 55.6902 124.204 48.7277 133.597 48.8712C135.891 46.1224 137.353 42.783 137.81 39.2418C138.267 35.7006 137.702 32.1032 136.18 28.8686C134.658 25.634 132.241 22.8952 129.212 20.9711C126.183 19.0469 122.666 18.0167 119.07 18.0002C115.474 17.9837 111.947 18.9818 108.9 20.8781C105.853 22.7744 103.411 25.4909 101.859 28.7115C100.307 31.932 99.7085 35.524 100.133 39.0693C100.557 42.6146 101.987 45.9672 104.256 48.7369L104.26 48.7222Z" fill="#56AA7A"/>
<path opacity="0.4" d="M104.26 48.7222C104.26 48.7222 114.025 49.6808 118.976 55.6902C118.976 55.6902 124.204 48.7277 133.597 48.8712C135.891 46.1224 137.353 42.783 137.81 39.2418C138.267 35.7006 137.702 32.1032 136.18 28.8686C134.658 25.634 132.241 22.8952 129.212 20.9711C126.183 19.0469 122.666 18.0167 119.07 18.0002C115.474 17.9837 111.947 18.9818 108.9 20.8781C105.853 22.7744 103.411 25.4909 101.859 28.7115C100.307 31.932 99.7085 35.524 100.133 39.0693C100.557 42.6146 101.987 45.9672 104.256 48.7369L104.26 48.7222Z" fill="white"/>
<path d="M109.752 41.9123C114.629 43.4469 117.658 47.9475 118.449 49.2465L118.377 81.2717H119.784L119.572 53.1749C120.636 51.576 123.679 47.585 128.379 46.1609C128.379 46.1609 122.797 47.4746 119.537 51.8906L119.352 45.1636C120.154 43.8866 123.298 39.3547 128.376 37.8146C128.376 37.8146 122.538 39.1873 119.315 43.848L119.129 37.0694L119.142 37.1596C119.142 37.1596 122.439 31.2716 128.374 29.4684C128.374 29.4684 122.258 30.9073 119.096 35.8329L118.648 26.7084L118.509 39.7871C115.404 35.1025 109.748 33.7151 109.748 33.7151C114.752 35.2865 117.802 39.9711 118.499 41.1413L118.455 47.8831C115.336 43.2776 109.752 41.9123 109.752 41.9123Z" fill="#263238"/>
<path d="M125.877 80.0979C132.194 80.0979 137.314 74.7424 137.314 68.136C137.314 61.5297 132.194 56.1742 125.877 56.1742C119.561 56.1742 114.44 61.5297 114.44 68.136C114.44 74.7424 119.561 80.0979 125.877 80.0979Z" fill="#56AA7A"/>
<path opacity="0.4" d="M125.877 80.0979C132.194 80.0979 137.314 74.7424 137.314 68.136C137.314 61.5297 132.194 56.1742 125.877 56.1742C119.561 56.1742 114.44 61.5297 114.44 68.136C114.44 74.7424 119.561 80.0979 125.877 80.0979Z" fill="white"/>
<path d="M127.302 74.6386L125.677 76.3884L125.612 72.5152L126.954 70.7047L125.597 71.5915L125.538 67.9539H125.36L125.338 69.6485L124.292 69.0137L125.325 70.5354L125.271 74.6294L123.227 73.7112L125.223 75.5807L124.893 81.3675H125.877L125.712 77.3673L127.302 74.6386Z" fill="#263238"/>
<path d="M18.4912 74.5909C18.213 74.6736 17.5728 74.5778 17.5728 74.5778C17.5728 74.5778 17.7594 74.1717 17.7781 74.1472C17.9648 73.869 18.4632 73.4347 18.8197 73.5306C18.8784 73.548 18.9329 73.5777 18.9795 73.6178C19.0261 73.6578 19.0639 73.7073 19.0903 73.7629C19.1167 73.8186 19.1312 73.8792 19.1328 73.9409C19.1344 74.0026 19.1231 74.0639 19.0997 74.1209C19.0382 74.239 18.9519 74.3422 18.8468 74.4234C18.7417 74.5046 18.6204 74.5617 18.4912 74.5909Z" fill="#263238"/>
<path d="M12.5066 74.3221C12.5066 74.3221 12.4431 73.8765 12.4431 73.8483C12.4431 73.5174 12.6298 72.8726 12.9714 72.7542C13.0301 72.7355 13.0921 72.7297 13.1533 72.7369C13.2144 72.7441 13.2734 72.7642 13.3263 72.796C13.3791 72.8278 13.4248 72.8705 13.4601 72.9213C13.4955 72.972 13.5197 73.0298 13.5314 73.0907C13.5449 73.2236 13.5296 73.3578 13.4864 73.4841C13.4432 73.6104 13.3732 73.7257 13.2812 73.822C13.0964 74.0457 12.5066 74.3221 12.5066 74.3221Z" fill="#263238"/>
<path d="M11.1384 73.132C11.3831 73.226 11.6405 73.2824 11.9019 73.2993C11.9598 73.3764 12.0176 73.461 12.0886 73.555C12.1987 73.7223 12.3219 73.9103 12.4432 74.119C12.475 74.1754 12.5067 74.2393 12.5403 74.307C12.4638 74.2168 12.3536 74.0946 12.3536 74.0833C12.1408 73.8953 11.607 73.6302 11.3326 73.79C11.2864 73.8178 11.2465 73.8552 11.2156 73.8995C11.1847 73.9439 11.1634 73.9944 11.1532 74.0476C11.143 74.1009 11.1441 74.1557 11.1563 74.2085C11.1685 74.2612 11.1917 74.3108 11.2243 74.354C11.3025 74.4411 11.3986 74.5099 11.506 74.5557C11.6134 74.6015 11.7294 74.6231 11.8459 74.6191C12.1075 74.5895 12.3631 74.5198 12.6038 74.4123C12.6728 74.5458 12.7419 74.6868 12.8054 74.8372C12.9169 75.1064 13.0044 75.3851 13.0667 75.67H13.0499C12.9902 75.5779 12.8632 75.388 12.8483 75.3748C12.6616 75.1549 12.1632 74.8409 11.8646 74.9706C11.8156 74.9933 11.772 75.0261 11.7366 75.0669C11.7011 75.1076 11.6746 75.1555 11.6587 75.2073C11.6428 75.2591 11.638 75.3137 11.6445 75.3675C11.6511 75.4213 11.6688 75.4732 11.6966 75.5196C11.7647 75.6146 11.8527 75.6934 11.9542 75.7505C12.0558 75.8077 12.1685 75.8418 12.2846 75.8505C12.5538 75.8476 12.8212 75.8046 13.0779 75.7226C13.1384 76.011 13.1801 76.303 13.203 76.5968C13.2198 76.813 13.2291 77.0349 13.2366 77.2567C13.1974 77.1909 13.0275 76.9409 13.0126 76.924C12.8259 76.704 12.3275 76.3919 12.0288 76.5198C11.9799 76.5424 11.9363 76.5752 11.9008 76.616C11.8654 76.6568 11.8388 76.7046 11.823 76.7564C11.8071 76.8082 11.8023 76.8628 11.8088 76.9166C11.8153 76.9705 11.8331 77.0223 11.8608 77.0687C11.9289 77.1639 12.0168 77.243 12.1183 77.3005C12.2199 77.358 12.3327 77.3924 12.4488 77.4015C12.7169 77.3988 12.983 77.3558 13.2384 77.2736C13.2384 77.3752 13.2384 77.4748 13.2384 77.5763C13.2384 77.9053 13.2534 78.2362 13.2702 78.5614C13.2702 78.6742 13.2851 78.7852 13.2944 78.8961C13.231 78.8002 13.1078 78.6272 13.1078 78.6141C12.9211 78.3941 12.4227 78.0802 12.124 78.2099C12.0751 78.2325 12.0315 78.2653 11.996 78.3061C11.9606 78.3469 11.934 78.3947 11.9182 78.4465C11.9023 78.4984 11.8975 78.5529 11.904 78.6068C11.9105 78.6606 11.9283 78.7124 11.956 78.7588C12.0242 78.8538 12.1121 78.9326 12.2137 78.9897C12.3153 79.0469 12.428 79.081 12.544 79.0897C12.8031 79.0902 13.0606 79.0503 13.3075 78.9713C13.3243 79.1593 13.3448 79.3473 13.3747 79.5184C13.3878 79.5954 13.3971 79.6744 13.4158 79.7477C13.4344 79.821 13.4475 79.8962 13.4643 79.9677C13.5016 80.1181 13.5371 80.2553 13.5763 80.3944C13.5968 80.464 13.6155 80.5298 13.636 80.5975C13.5856 80.4903 13.5054 80.3211 13.496 80.3061C13.3411 80.0598 12.8987 79.6744 12.5832 79.7571C12.5311 79.7715 12.4826 79.7972 12.4413 79.8323C12.3999 79.8674 12.3667 79.9112 12.3438 79.9605C12.3209 80.0099 12.3089 80.0636 12.3087 80.1181C12.3084 80.1726 12.3199 80.2265 12.3424 80.276C12.3956 80.382 12.4713 80.4749 12.5643 80.548C12.6572 80.6212 12.765 80.6727 12.88 80.699C13.1436 80.7389 13.4116 80.7389 13.6752 80.699C13.7238 80.8626 13.7723 81.0242 13.8227 81.1728C13.8731 81.3213 13.8992 81.4096 13.9384 81.5187H14.1512C14.1027 81.3908 14.0542 81.2555 14.0038 81.1107C13.9534 80.966 13.9086 80.8344 13.8619 80.6877C14.1028 80.5946 14.3296 80.4681 14.5358 80.3117C14.6738 80.4002 14.8165 80.4812 14.9632 80.5542C14.9128 80.7178 14.8662 80.8795 14.8251 81.0318C14.784 81.184 14.7374 81.3645 14.7 81.5149H14.9091C14.939 81.3777 14.9726 81.2348 15.0118 81.0806C15.051 80.9265 15.0846 80.7968 15.1256 80.6482C15.3849 80.7083 15.6518 80.7286 15.9171 80.7084C16.0319 80.6904 16.1415 80.6475 16.2382 80.5825C16.3349 80.5176 16.4164 80.4323 16.4771 80.3324C16.5008 80.2837 16.514 80.2305 16.516 80.1763C16.518 80.1221 16.5087 80.0681 16.4886 80.0178C16.4686 79.9674 16.4382 79.9219 16.3996 79.8841C16.3609 79.8464 16.3148 79.8172 16.2643 79.7985C15.9563 79.6951 15.4878 80.0485 15.3179 80.2835C15.3067 80.2986 15.1966 80.4903 15.1424 80.59C15.1667 80.4997 15.1928 80.4114 15.219 80.3174C15.2582 80.1839 15.303 80.0429 15.3478 79.9056C15.372 79.8361 15.3963 79.7646 15.4224 79.6932C15.4486 79.6218 15.4784 79.5541 15.5064 79.4826C15.5494 79.3811 15.5998 79.2777 15.6483 79.1724C15.8869 79.2674 16.1389 79.3239 16.395 79.3398C16.5086 79.336 16.6202 79.3079 16.7222 79.2573C16.8242 79.2068 16.9144 79.1349 16.9867 79.0465C17.0181 79.0018 17.0397 78.9509 17.0501 78.8972C17.0605 78.8435 17.0595 78.7882 17.0472 78.7349C17.0348 78.6816 17.0114 78.6316 16.9785 78.5881C16.9455 78.5446 16.9038 78.5086 16.856 78.4825C16.5686 78.334 16.0515 78.6103 15.848 78.8171C15.848 78.8171 15.8014 78.8716 15.7566 78.9299C15.8076 78.8297 15.8598 78.73 15.9134 78.631C16.0702 78.349 16.24 78.067 16.408 77.7831L16.5107 77.6064C16.7531 77.7024 17.0087 77.7607 17.2686 77.7794C17.3851 77.7787 17.5001 77.7525 17.6055 77.7025C17.7109 77.6525 17.8043 77.5799 17.879 77.4898C17.9103 77.4452 17.9319 77.3943 17.9424 77.3406C17.9528 77.2869 17.9518 77.2316 17.9394 77.1783C17.9271 77.125 17.9037 77.0749 17.8707 77.0314C17.8378 76.9879 17.7961 76.9519 17.7483 76.9258C17.459 76.7773 16.9438 77.0537 16.7384 77.2605L16.6339 77.3902C16.7235 77.236 16.8206 77.08 16.8915 76.9221C17.034 76.6524 17.1587 76.3736 17.2648 76.0874C17.5132 76.1899 17.7757 76.2533 18.0432 76.2754C18.1598 76.2747 18.2747 76.2485 18.3802 76.1985C18.4856 76.1485 18.5789 76.0759 18.6536 75.9858C18.685 75.9412 18.7066 75.8903 18.717 75.8366C18.7274 75.7829 18.7265 75.7276 18.7141 75.6743C18.7018 75.621 18.6783 75.5709 18.6454 75.5274C18.6124 75.4839 18.5707 75.4479 18.523 75.4218C18.2336 75.2733 17.7184 75.5516 17.5131 75.7565C17.4982 75.7715 17.3264 75.9802 17.2779 76.0573C17.3733 75.774 17.4433 75.4827 17.487 75.1868C17.5284 74.9229 17.554 74.6567 17.5635 74.3897C17.5747 74.1416 17.5635 73.9141 17.5635 73.7129C17.5635 73.6039 17.5542 73.5061 17.5486 73.4121C17.5486 73.4121 17.6886 73.0361 17.6942 73.0173C17.7632 72.7353 17.7296 72.1469 17.4534 71.9758C17.4061 71.949 17.3537 71.9326 17.2997 71.9277C17.2456 71.9227 17.1912 71.9294 17.1399 71.9471C17.0886 71.9649 17.0416 71.9933 17.002 72.0307C16.9624 72.068 16.9311 72.1134 16.9102 72.1638C16.8728 72.2749 16.86 72.3928 16.8726 72.5094C16.8852 72.6259 16.9228 72.7383 16.983 72.8387C17.1344 73.0541 17.3183 73.2444 17.528 73.4027C17.528 73.4986 17.528 73.602 17.5374 73.7167C17.5374 73.916 17.5374 74.1434 17.5206 74.3897C17.5206 74.4555 17.5094 74.5251 17.5019 74.5946C17.4888 74.4762 17.4683 74.3164 17.4646 74.3014C17.3955 74.0175 17.0912 73.5118 16.772 73.4892C16.7183 73.487 16.6648 73.4962 16.6148 73.5161C16.5649 73.536 16.5196 73.5662 16.482 73.6049C16.4444 73.6435 16.4152 73.6896 16.3963 73.7403C16.3775 73.7909 16.3694 73.845 16.3726 73.899C16.3904 74.0147 16.4331 74.1251 16.4975 74.2225C16.562 74.3199 16.6468 74.402 16.7459 74.463C16.9808 74.5836 17.2326 74.6673 17.4926 74.7112C17.4776 74.8616 17.4571 75.0176 17.4272 75.1774C17.3771 75.4693 17.3015 75.7562 17.2014 76.0347H17.1827C17.1827 75.9238 17.1827 75.6926 17.1827 75.6738C17.1435 75.3861 16.9027 74.8484 16.5835 74.7902C16.5302 74.7822 16.4759 74.7856 16.4241 74.8C16.3722 74.8145 16.3239 74.8397 16.2822 74.874C16.2406 74.9083 16.2065 74.9511 16.1822 74.9994C16.1579 75.0478 16.1439 75.1008 16.1411 75.1549C16.1463 75.2721 16.1767 75.3867 16.2302 75.4909C16.2837 75.5951 16.359 75.6864 16.451 75.7584C16.6768 75.9063 16.9235 76.0192 17.1827 76.093C17.0751 76.3664 16.9504 76.6326 16.8094 76.8901C16.7067 77.0781 16.5928 77.2661 16.4771 77.4541C16.4771 77.377 16.4771 77.0781 16.4771 77.0537C16.4398 76.7642 16.1971 76.2284 15.8779 76.1701C15.8245 76.1602 15.7696 76.1622 15.717 76.176C15.6645 76.1897 15.6155 76.2148 15.5736 76.2495C15.5316 76.2842 15.4977 76.3277 15.4742 76.377C15.4507 76.4263 15.4381 76.4801 15.4374 76.5348C15.4421 76.6521 15.4722 76.7669 15.5258 76.8712C15.5793 76.9755 15.6549 77.0666 15.7472 77.1383C15.9715 77.285 16.2162 77.3972 16.4734 77.471L16.3166 77.7267C16.143 78.0068 15.9675 78.2907 15.8032 78.5671C15.7454 78.6648 15.6931 78.7551 15.639 78.8604C15.639 78.7438 15.639 78.5332 15.639 78.5163C15.6016 78.2268 15.359 77.691 15.0398 77.6327C14.9864 77.6229 14.9315 77.6249 14.8789 77.6386C14.8263 77.6523 14.7774 77.6774 14.7354 77.7121C14.6935 77.7468 14.6596 77.7904 14.6361 77.8396C14.6125 77.8889 14.6 77.9428 14.5992 77.9974C14.6041 78.1145 14.6341 78.2291 14.6873 78.3333C14.7405 78.4375 14.8155 78.5288 14.9072 78.6009C15.1233 78.7444 15.36 78.8535 15.6091 78.9243C15.5214 79.0897 15.4392 79.2533 15.3646 79.4187C15.3347 79.4902 15.2992 79.5616 15.2731 79.633C15.247 79.7045 15.2208 79.774 15.1928 79.8436C15.1443 79.9902 15.0976 80.1256 15.0547 80.261C15.0323 80.3305 15.0136 80.3963 14.9931 80.464C15.0099 80.3456 15.0342 80.1594 15.0342 80.1425C15.0342 79.8511 14.883 79.2852 14.5768 79.1781C14.5253 79.1617 14.471 79.1565 14.4173 79.1626C14.3637 79.1688 14.3119 79.1863 14.2654 79.214C14.219 79.2417 14.1788 79.2789 14.1475 79.3232C14.1163 79.3676 14.0946 79.418 14.084 79.4714C14.0785 79.4993 14.0747 79.5276 14.0728 79.556C13.9261 79.7694 13.8367 80.0175 13.8134 80.276C13.8134 80.2929 13.8246 80.5148 13.8358 80.6276C13.8059 80.5392 13.7779 80.4508 13.7499 80.3587C13.7088 80.2234 13.6696 80.0824 13.6304 79.9432C13.6136 79.8718 13.595 79.7985 13.5782 79.7252C13.5614 79.6518 13.5483 79.5766 13.5334 79.5033C13.5128 79.3924 13.4979 79.2796 13.4811 79.1649C13.7293 79.1108 13.9674 79.0175 14.1867 78.8886C14.2837 78.8234 14.3655 78.7376 14.4261 78.6373C14.4867 78.5369 14.5248 78.4244 14.5376 78.3076C14.5404 78.253 14.5314 78.1984 14.5111 78.1477C14.4908 78.0969 14.4597 78.0512 14.4201 78.0138C14.3805 77.9764 14.3332 77.9482 14.2816 77.931C14.23 77.9139 14.1753 77.9084 14.1214 77.9147C13.8003 77.9504 13.5222 78.4674 13.4643 78.7532C13.4643 78.7626 13.4643 78.8246 13.4494 78.898C13.4382 78.7852 13.4251 78.6742 13.4176 78.5614C13.3934 78.2381 13.3803 77.9091 13.3654 77.5801L13.3542 77.3733C13.6088 77.32 13.8537 77.2274 14.0803 77.0988C14.1777 77.0334 14.2597 76.9473 14.3206 76.8466C14.3815 76.746 14.4199 76.6331 14.4331 76.516C14.4343 76.4617 14.4242 76.4078 14.4034 76.3577C14.3826 76.3076 14.3515 76.2624 14.3123 76.2252C14.273 76.188 14.2264 76.1595 14.1755 76.1416C14.1246 76.1236 14.0706 76.1167 14.0168 76.1212C13.6958 76.1569 13.4176 76.6758 13.3598 76.9616C13.3598 76.971 13.3598 77.0443 13.343 77.127C13.3318 76.9484 13.3187 76.7698 13.3 76.5931C13.2709 76.2898 13.221 75.9889 13.1507 75.6926C13.4121 75.6374 13.6638 75.543 13.8974 75.4124C13.9938 75.3468 14.075 75.2609 14.1352 75.1606C14.1955 75.0603 14.2334 74.948 14.2464 74.8315C14.2479 74.7773 14.238 74.7234 14.2174 74.6733C14.1968 74.6232 14.166 74.5781 14.1269 74.5408C14.0878 74.5035 14.0413 74.475 13.9905 74.4571C13.9397 74.4391 13.8857 74.4322 13.832 74.4367C13.5091 74.4724 13.231 74.9913 13.1731 75.2771C13.1731 75.2978 13.1451 75.5628 13.1414 75.6531C13.1414 75.6531 13.1414 75.6531 13.1414 75.6437C13.0664 75.3538 12.9658 75.0713 12.8408 74.7996C12.7305 74.5566 12.6059 74.3206 12.4675 74.0927C12.3424 73.8802 12.2136 73.6922 12.0942 73.5287C12.0307 73.4384 11.9728 73.3595 11.9168 73.2843C11.9168 73.2843 11.8328 72.8989 11.8235 72.8744C11.7264 72.6 11.3755 72.1224 11.0507 72.1412C10.997 72.1447 10.9446 72.1594 10.8969 72.1846C10.8493 72.2098 10.8075 72.2449 10.7742 72.2874C10.7409 72.33 10.7169 72.3792 10.7037 72.4317C10.6906 72.4843 10.6886 72.5391 10.6979 72.5924C10.7263 72.7099 10.7807 72.8195 10.857 72.9129C10.9333 73.0063 11.0295 73.0812 11.1384 73.132Z" fill="#263238"/>
<path d="M123.226 77.5425C123.051 77.5694 122.873 77.5694 122.698 77.5425C122.698 77.5425 122.808 77.3094 122.817 77.2962C122.918 77.1364 123.209 76.8864 123.415 76.9409C123.447 76.9515 123.476 76.9684 123.502 76.9907C123.527 77.013 123.548 77.0402 123.563 77.0707C123.578 77.1012 123.586 77.1344 123.588 77.1683C123.59 77.2022 123.585 77.2361 123.573 77.268C123.539 77.3364 123.49 77.3964 123.43 77.4439C123.37 77.4913 123.3 77.5249 123.226 77.5425Z" fill="#263238"/>
<path d="M119.795 77.3884C119.795 77.3884 119.758 77.1327 119.758 77.1176C119.758 76.9296 119.86 76.5536 120.062 76.4897C120.095 76.4793 120.13 76.4759 120.165 76.4799C120.199 76.4838 120.233 76.495 120.263 76.5127C120.293 76.5304 120.319 76.5542 120.339 76.5826C120.36 76.6111 120.374 76.6434 120.381 76.6777C120.389 76.7539 120.38 76.831 120.356 76.9034C120.331 76.9758 120.29 77.0419 120.238 77.097C120.105 77.2157 119.956 77.314 119.795 77.3884Z" fill="#263238"/>
<path d="M119.007 76.704C119.148 76.7572 119.296 76.7895 119.446 76.7999C119.478 76.8431 119.513 76.892 119.549 76.9465C119.612 77.0424 119.683 77.1514 119.752 77.2736L119.808 77.377L119.698 77.2492C119.575 77.1364 119.274 76.9898 119.112 77.0819C119.085 77.0978 119.063 77.1191 119.045 77.1446C119.027 77.1701 119.015 77.199 119.009 77.2296C119.003 77.2602 119.004 77.2916 119.011 77.3219C119.018 77.3522 119.032 77.3806 119.05 77.4053C119.095 77.4553 119.15 77.4948 119.212 77.5211C119.274 77.5474 119.34 77.5598 119.407 77.5575C119.556 77.5396 119.702 77.4991 119.84 77.4372C119.883 77.5167 119.921 77.5982 119.956 77.6816C120.024 77.8374 120.079 77.9991 120.118 78.1648H120.107C120.073 78.1121 119.999 78.0031 119.991 77.9937C119.883 77.8677 119.599 77.6891 119.431 77.7625C119.403 77.7755 119.378 77.7943 119.357 77.8177C119.337 77.8412 119.322 77.8687 119.313 77.8985C119.303 77.9283 119.301 77.9597 119.304 77.9907C119.308 78.0217 119.318 78.0515 119.334 78.0783C119.374 78.1324 119.424 78.1773 119.483 78.2098C119.541 78.2422 119.606 78.2615 119.672 78.2663C119.827 78.2651 119.98 78.2404 120.127 78.193C120.162 78.3579 120.185 78.525 120.198 78.693C120.21 78.819 120.215 78.945 120.219 79.069L120.09 78.881C119.98 78.7532 119.696 78.5746 119.53 78.6479C119.502 78.6609 119.477 78.6798 119.456 78.7032C119.436 78.7267 119.421 78.7542 119.412 78.784C119.402 78.8138 119.4 78.8452 119.403 78.8762C119.407 78.9072 119.417 78.937 119.433 78.9638C119.472 79.0179 119.523 79.0628 119.581 79.0953C119.64 79.1277 119.704 79.147 119.771 79.1518C119.924 79.1508 120.077 79.1261 120.223 79.0785V79.2533C120.223 79.4413 120.232 79.6293 120.241 79.8173C120.241 79.8831 120.241 79.947 120.254 80.0053C120.219 79.9508 120.15 79.8511 120.144 79.8436C120.034 79.7177 119.75 79.5372 119.584 79.6124C119.556 79.6251 119.531 79.6438 119.511 79.6671C119.49 79.6904 119.475 79.7179 119.466 79.7476C119.457 79.7773 119.454 79.8087 119.458 79.8395C119.462 79.8703 119.473 79.8999 119.489 79.9263C119.528 79.9808 119.579 80.0258 119.637 80.0583C119.696 80.0908 119.76 80.11 119.827 80.1143C119.975 80.1155 120.123 80.0926 120.264 80.0466C120.264 80.1538 120.284 80.2572 120.301 80.3606C120.31 80.4057 120.316 80.4508 120.325 80.4922L120.353 80.6182C120.376 80.7047 120.396 80.7836 120.419 80.8626C120.43 80.9039 120.441 80.9415 120.452 80.9791C120.424 80.9171 120.378 80.8212 120.372 80.8118C120.282 80.6708 120.029 80.4508 119.849 80.4978C119.82 80.5064 119.792 80.5211 119.768 80.5412C119.744 80.5612 119.725 80.586 119.712 80.614C119.698 80.6421 119.69 80.6727 119.689 80.7038C119.688 80.735 119.694 80.766 119.706 80.7949C119.736 80.8549 119.779 80.9074 119.832 80.9487C119.885 80.9899 119.946 81.0189 120.012 81.0336C120.163 81.056 120.316 81.056 120.467 81.0336C120.495 81.1276 120.523 81.2217 120.551 81.3063C120.579 81.3909 120.596 81.4416 120.618 81.4943H120.74C120.714 81.4209 120.684 81.3438 120.656 81.2611C120.628 81.1784 120.602 81.1013 120.574 81.0167C120.712 80.9641 120.843 80.8926 120.962 80.8043C121.041 80.8549 121.123 80.9014 121.206 80.9434C121.178 81.0374 121.15 81.1314 121.128 81.216C121.106 81.3006 121.076 81.404 121.055 81.4943H121.175C121.191 81.4153 121.212 81.3344 121.234 81.2442C121.257 81.154 121.275 81.0825 121.3 80.996C121.448 81.0309 121.601 81.043 121.753 81.0318C121.819 81.0209 121.882 80.9958 121.938 80.9582C121.993 80.9205 122.04 80.8712 122.074 80.8137C122.088 80.7858 122.096 80.7553 122.097 80.7242C122.098 80.6931 122.093 80.6621 122.082 80.6332C122.07 80.6043 122.053 80.5782 122.031 80.5565C122.008 80.5348 121.982 80.518 121.953 80.5073C121.776 80.449 121.507 80.6501 121.41 80.7855C121.41 80.7949 121.339 80.9039 121.309 80.9622C121.324 80.9096 121.337 80.8588 121.354 80.8062C121.371 80.7535 121.401 80.6482 121.427 80.5693C121.44 80.5279 121.455 80.4884 121.47 80.4471C121.485 80.4057 121.501 80.3681 121.518 80.3268C121.535 80.2854 121.57 80.2083 121.6 80.1482C121.735 80.2025 121.877 80.2349 122.022 80.244C122.089 80.2435 122.155 80.2285 122.216 80.1999C122.276 80.1714 122.33 80.13 122.373 80.0786C122.39 80.0529 122.402 80.0238 122.408 79.9931C122.413 79.9625 122.412 79.9311 122.405 79.9009C122.398 79.8706 122.385 79.8422 122.366 79.8174C122.347 79.7927 122.324 79.7722 122.297 79.7571C122.132 79.6725 121.835 79.8304 121.718 79.9451L121.666 80.009C121.695 79.9526 121.725 79.8944 121.757 79.838C121.847 79.6763 121.944 79.5146 122.041 79.3529L122.099 79.2495C122.238 79.3053 122.384 79.3389 122.534 79.3492C122.601 79.349 122.667 79.3341 122.727 79.3056C122.788 79.277 122.842 79.2354 122.885 79.1837C122.902 79.1581 122.914 79.1291 122.92 79.0986C122.925 79.068 122.925 79.0367 122.918 79.0064C122.91 78.9762 122.897 78.9477 122.879 78.9229C122.86 78.8981 122.837 78.8774 122.81 78.8623C122.644 78.7777 122.347 78.9356 122.229 79.0503L122.17 79.1255C122.222 79.0352 122.27 78.9469 122.317 78.8566C122.399 78.7019 122.47 78.5417 122.53 78.3772C122.672 78.4349 122.823 78.4704 122.976 78.4825C123.043 78.4821 123.108 78.467 123.169 78.4385C123.229 78.4099 123.282 78.3685 123.325 78.317C123.343 78.2916 123.355 78.2626 123.361 78.232C123.367 78.2013 123.367 78.1697 123.36 78.1393C123.353 78.1089 123.339 78.0804 123.321 78.0556C123.302 78.0308 123.278 78.0103 123.25 77.9956C123.086 77.9091 122.789 78.0689 122.672 78.1836C122.672 78.1836 122.569 78.3114 122.537 78.3546C122.591 78.1924 122.631 78.0257 122.657 77.8565C122.68 77.7051 122.695 77.5526 122.702 77.3996C122.702 77.2567 122.702 77.127 122.702 77.0105C122.702 76.9484 122.702 76.892 122.702 76.8394C122.702 76.8394 122.784 76.6269 122.786 76.6138C122.825 76.4502 122.806 76.1137 122.647 76.0159C122.621 76.0007 122.591 75.9912 122.56 75.9882C122.529 75.9852 122.498 75.9886 122.469 75.9983C122.44 76.0081 122.413 76.0239 122.39 76.0447C122.367 76.0655 122.348 76.0909 122.336 76.1193C122.314 76.1831 122.307 76.2509 122.315 76.3177C122.322 76.3846 122.344 76.4491 122.379 76.5066C122.466 76.6298 122.571 76.7389 122.69 76.83C122.69 76.8851 122.69 76.9478 122.69 77.018C122.69 77.1327 122.69 77.2624 122.69 77.4034L122.679 77.5199C122.679 77.4541 122.661 77.362 122.659 77.3526C122.618 77.1909 122.446 76.8995 122.261 76.8864C122.23 76.885 122.199 76.8902 122.17 76.9017C122.141 76.9132 122.115 76.9307 122.094 76.953C122.072 76.9754 122.055 77.0021 122.044 77.0314C122.034 77.0608 122.029 77.0921 122.031 77.1233C122.042 77.1895 122.067 77.2527 122.104 77.3086C122.141 77.3644 122.189 77.4115 122.246 77.4466C122.381 77.5157 122.525 77.5639 122.674 77.5895C122.664 77.676 122.653 77.7643 122.636 77.8565C122.608 78.0243 122.565 78.1892 122.507 78.349H122.496C122.496 78.2851 122.496 78.161 122.496 78.1422C122.474 77.9768 122.336 77.6684 122.153 77.6365C122.122 77.6317 122.091 77.6334 122.061 77.6416C122.031 77.6498 122.004 77.6641 121.98 77.6838C121.956 77.7035 121.936 77.7281 121.922 77.7558C121.908 77.7836 121.9 77.8141 121.899 77.8452C121.903 77.913 121.922 77.979 121.955 78.0388C121.987 78.0985 122.032 78.1505 122.086 78.1911C122.216 78.274 122.357 78.3374 122.506 78.3791C122.444 78.5359 122.372 78.6885 122.291 78.8359C122.231 78.9468 122.168 79.054 122.104 79.163C122.104 79.1198 122.104 78.945 122.104 78.9337C122.084 78.7664 121.944 78.4599 121.761 78.4261C121.73 78.4216 121.699 78.4236 121.67 78.4318C121.64 78.4401 121.613 78.4546 121.589 78.4742C121.565 78.4939 121.546 78.5183 121.532 78.546C121.518 78.5736 121.51 78.6039 121.509 78.6348C121.512 78.7028 121.531 78.7692 121.563 78.829C121.596 78.8889 121.641 78.9407 121.695 78.9807C121.824 79.0641 121.964 79.1274 122.112 79.1687L122.022 79.3153C121.921 79.477 121.821 79.6368 121.727 79.7985C121.694 79.853 121.664 79.9094 121.634 79.9658C121.634 79.9 121.634 79.7778 121.634 79.7684C121.611 79.603 121.473 79.2947 121.29 79.2608C121.26 79.2563 121.229 79.2583 121.199 79.2667C121.169 79.2751 121.141 79.2897 121.117 79.3095C121.093 79.3293 121.074 79.354 121.06 79.3818C121.046 79.4097 121.038 79.4402 121.037 79.4714C121.041 79.5392 121.06 79.6052 121.092 79.665C121.124 79.7247 121.169 79.7767 121.223 79.8173C121.347 79.9 121.483 79.9634 121.626 80.0053C121.576 80.0993 121.527 80.1933 121.486 80.2873C121.467 80.3276 121.449 80.369 121.434 80.4114C121.417 80.4527 121.402 80.4922 121.387 80.5317C121.359 80.6163 121.331 80.6934 121.307 80.7723C121.296 80.8118 121.285 80.8494 121.272 80.887C121.283 80.8193 121.296 80.714 121.296 80.699C121.296 80.5336 121.208 80.2083 121.033 80.1463C121.003 80.137 120.972 80.134 120.942 80.1375C120.911 80.1411 120.881 80.151 120.855 80.1668C120.828 80.1826 120.805 80.2038 120.787 80.2291C120.77 80.2544 120.757 80.2832 120.751 80.3136C120.749 80.3299 120.749 80.3462 120.751 80.3625C120.668 80.4843 120.618 80.6254 120.605 80.7723C120.605 80.7836 120.605 80.9096 120.618 80.9754C120.603 80.9246 120.587 80.8739 120.57 80.8193L120.503 80.5824L120.471 80.4565C120.46 80.4132 120.454 80.3719 120.445 80.3286C120.435 80.2854 120.426 80.2008 120.417 80.1406C120.559 80.1107 120.696 80.0587 120.822 79.9865C120.877 79.9488 120.923 79.8995 120.958 79.8421C120.992 79.7847 121.014 79.7204 121.022 79.6537C121.022 79.6226 121.017 79.5917 121.005 79.563C120.993 79.5342 120.976 79.5083 120.953 79.4868C120.931 79.4654 120.904 79.4489 120.875 79.4385C120.846 79.428 120.815 79.4239 120.785 79.4263C120.598 79.4469 120.439 79.744 120.411 79.9075C120.411 79.9075 120.411 79.9489 120.411 79.9903C120.411 79.9263 120.398 79.8624 120.393 79.8023C120.379 79.6143 120.372 79.4263 120.363 79.2383V79.1198C120.509 79.0898 120.649 79.0365 120.779 78.9619C120.834 78.9245 120.881 78.8754 120.916 78.8179C120.95 78.7604 120.972 78.6959 120.979 78.6291C120.98 78.5981 120.974 78.5673 120.962 78.5386C120.95 78.5099 120.933 78.4841 120.91 78.4628C120.888 78.4415 120.861 78.4252 120.832 78.415C120.803 78.4048 120.772 78.4009 120.742 78.4035C120.555 78.4242 120.396 78.7213 120.368 78.8848C120.368 78.8848 120.368 78.9337 120.368 78.9807C120.368 78.8773 120.353 78.7758 120.344 78.6743C120.326 78.5003 120.298 78.3276 120.258 78.1573C120.373 78.1245 120.483 78.0784 120.587 78.02C120.642 77.9825 120.689 77.9333 120.724 77.8759C120.758 77.8184 120.781 77.7541 120.788 77.6873C120.789 77.6562 120.783 77.6253 120.771 77.5966C120.759 77.5679 120.741 77.5421 120.719 77.5208C120.696 77.4996 120.669 77.4833 120.64 77.4731C120.611 77.4629 120.58 77.459 120.549 77.4616C120.363 77.4823 120.204 77.7794 120.176 77.9429C120.176 77.9542 120.159 78.1084 120.157 78.1629C120.114 77.9969 120.056 77.8352 119.984 77.6797C119.921 77.5408 119.85 77.4059 119.771 77.2755C119.698 77.1533 119.625 77.0443 119.558 76.9503L119.457 76.8112C119.457 76.8112 119.409 76.5912 119.403 76.5762C119.347 76.4201 119.146 76.1494 118.961 76.155C118.93 76.1572 118.9 76.1659 118.873 76.1805C118.845 76.195 118.821 76.2151 118.802 76.2395C118.783 76.264 118.769 76.2921 118.761 76.3222C118.754 76.3524 118.752 76.3838 118.757 76.4145C118.776 76.4779 118.808 76.5365 118.851 76.5864C118.895 76.6363 118.948 76.6764 119.007 76.704Z" fill="#263238"/>
<path d="M129.209 74.3484C128.923 74.4349 128.259 74.3352 128.259 74.3352C128.259 74.3352 128.457 73.9141 128.472 73.8897C128.658 73.6002 129.181 73.1508 129.551 73.2505C129.611 73.2688 129.667 73.2997 129.715 73.3412C129.763 73.3827 129.802 73.4338 129.83 73.4914C129.857 73.5489 129.872 73.6116 129.874 73.6753C129.875 73.7391 129.864 73.8025 129.84 73.8615C129.777 73.9844 129.687 74.0918 129.578 74.176C129.469 74.2601 129.343 74.319 129.209 74.3484Z" fill="#263238"/>
<path d="M123.013 74.072C123.013 74.072 122.948 73.6114 122.948 73.5813C122.948 73.2373 123.135 72.5718 123.495 72.4533C123.556 72.4345 123.619 72.4287 123.682 72.4363C123.745 72.4439 123.806 72.4648 123.86 72.4977C123.915 72.5305 123.962 72.5744 123.998 72.6267C124.035 72.679 124.06 72.7384 124.072 72.8011C124.085 72.9377 124.068 73.0756 124.024 73.2053C123.98 73.335 123.908 73.4536 123.814 73.5531C123.627 73.7825 123.013 74.072 123.013 74.072Z" fill="#263238"/>
<path d="M121.6 72.8312C121.853 72.9291 122.12 72.9868 122.39 73.0023L122.577 73.2674C122.691 73.4403 122.819 73.6434 122.95 73.8596C122.984 73.9179 123.017 73.9837 123.051 74.0476C122.972 73.9555 122.864 73.8276 122.851 73.8163C122.631 73.6114 122.086 73.3482 121.795 73.5137C121.747 73.5424 121.705 73.5811 121.673 73.6271C121.641 73.6731 121.619 73.7255 121.608 73.7807C121.598 73.8359 121.599 73.8928 121.612 73.9475C121.624 74.0023 121.649 74.0537 121.683 74.0983C121.764 74.1882 121.863 74.2592 121.975 74.3063C122.086 74.3534 122.206 74.3754 122.327 74.3709C122.597 74.3411 122.862 74.2688 123.111 74.1566C123.181 74.2957 123.252 74.4405 123.32 74.5965C123.441 74.8778 123.537 75.1691 123.609 75.467H123.592L123.383 75.1605C123.185 74.9331 122.674 74.6097 122.364 74.7432C122.314 74.7667 122.269 74.8004 122.233 74.8423C122.197 74.8842 122.169 74.9333 122.153 74.9864C122.137 75.0396 122.132 75.0955 122.138 75.1508C122.144 75.206 122.162 75.2593 122.19 75.3072C122.261 75.4055 122.352 75.4873 122.457 75.5467C122.562 75.6061 122.679 75.6418 122.799 75.6512C123.078 75.6484 123.355 75.6034 123.62 75.5177C123.683 75.816 123.726 76.1181 123.749 76.422C123.768 76.6476 123.777 76.8751 123.784 77.1045C123.743 77.0368 123.568 76.7792 123.553 76.7623C123.355 76.5348 122.844 76.2096 122.534 76.3431C122.484 76.3668 122.439 76.4007 122.403 76.4426C122.367 76.4845 122.34 76.5336 122.324 76.5866C122.307 76.6396 122.302 76.6955 122.308 76.7507C122.315 76.8058 122.332 76.8591 122.36 76.9071C122.431 77.0052 122.522 77.0866 122.627 77.1457C122.732 77.2048 122.849 77.2401 122.969 77.2492C123.246 77.2468 123.522 77.2025 123.786 77.1176C123.786 77.2229 123.786 77.3263 123.786 77.4316C123.786 77.7719 123.801 78.114 123.818 78.4505C123.818 78.5671 123.835 78.6837 123.844 78.7983C123.779 78.6987 123.657 78.5182 123.644 78.5051C123.447 78.2776 122.935 77.9523 122.625 78.0858C122.575 78.1095 122.531 78.1434 122.495 78.1853C122.459 78.2273 122.432 78.2763 122.415 78.3293C122.399 78.3824 122.394 78.4383 122.4 78.4934C122.406 78.5486 122.424 78.6019 122.452 78.6498C122.522 78.7479 122.613 78.8294 122.718 78.8884C122.823 78.9475 122.94 78.9829 123.06 78.992C123.328 78.9925 123.594 78.9512 123.85 78.8698C123.868 79.0578 123.889 79.2458 123.919 79.4338C123.934 79.5127 123.943 79.5955 123.962 79.6707L124.012 79.9C124.051 80.0542 124.089 80.1971 124.13 80.3399C124.148 80.4114 124.169 80.4791 124.189 80.5505C124.139 80.4396 124.055 80.2647 124.044 80.2497C123.885 79.994 123.426 79.5955 123.111 79.6857C123.057 79.7013 123.007 79.7281 122.965 79.7643C122.922 79.8005 122.888 79.8453 122.863 79.8958C122.839 79.9463 122.825 80.0014 122.824 80.0576C122.822 80.1137 122.832 80.1695 122.853 80.2215C122.908 80.3295 122.986 80.4241 123.081 80.4988C123.176 80.5735 123.286 80.6264 123.404 80.6539C123.676 80.6959 123.954 80.6959 124.227 80.6539C124.277 80.825 124.328 80.9923 124.378 81.1465C124.428 81.3006 124.46 81.3909 124.499 81.5037H124.72C124.671 81.3721 124.619 81.2311 124.567 81.0807C124.514 80.9303 124.469 80.7949 124.419 80.6426C124.668 80.5502 124.903 80.4236 125.117 80.2666C125.26 80.358 125.408 80.4415 125.56 80.5167C125.509 80.6859 125.461 80.8532 125.418 81.0111C125.375 81.169 125.326 81.3551 125.287 81.5112H125.504C125.535 81.3702 125.569 81.2217 125.61 81.0619C125.651 80.9021 125.685 80.7686 125.728 80.6144C125.996 80.6763 126.272 80.6972 126.547 80.6765C126.666 80.6567 126.78 80.6114 126.88 80.5436C126.98 80.4758 127.064 80.3871 127.128 80.2835C127.152 80.233 127.165 80.1778 127.167 80.1217C127.169 80.0655 127.159 80.0096 127.138 79.9576C127.117 79.9055 127.086 79.8584 127.046 79.8194C127.006 79.7803 126.958 79.7502 126.905 79.7308C126.588 79.6237 126.103 79.9884 125.925 80.2328C125.914 80.2478 125.8 80.4471 125.739 80.5505C125.765 80.4565 125.791 80.3625 125.819 80.2685C125.86 80.1294 125.907 79.9827 125.952 79.8417L126.03 79.6218C126.054 79.5466 126.088 79.4789 126.116 79.4056C126.161 79.2984 126.213 79.1913 126.263 79.0841C126.508 79.1804 126.765 79.2387 127.027 79.2571C127.147 79.2562 127.266 79.2288 127.375 79.1768C127.484 79.1249 127.581 79.0496 127.658 78.9563C127.69 78.9103 127.712 78.8581 127.722 78.803C127.733 78.7478 127.732 78.6911 127.719 78.6364C127.707 78.5818 127.683 78.5304 127.649 78.4857C127.615 78.4411 127.572 78.4041 127.523 78.3772C127.225 78.2231 126.691 78.5088 126.48 78.7231C126.48 78.7231 126.431 78.7795 126.385 78.8397C126.439 78.7363 126.491 78.6329 126.549 78.5295C126.711 78.2381 126.885 77.9467 127.059 77.6534C127.096 77.5914 127.129 77.5293 127.167 77.4654C127.417 77.567 127.68 77.6303 127.949 77.6534C128.07 77.6527 128.189 77.6254 128.298 77.5734C128.408 77.5214 128.504 77.4461 128.582 77.3526C128.613 77.3066 128.635 77.2543 128.646 77.1993C128.656 77.1442 128.655 77.0876 128.642 77.033C128.63 76.9784 128.606 76.9271 128.572 76.8824C128.539 76.8378 128.496 76.8007 128.447 76.7736C128.149 76.6194 127.615 76.9052 127.402 77.1195L127.294 77.253C127.385 77.0932 127.48 76.9315 127.561 76.7679C127.704 76.4889 127.829 76.2006 127.934 75.905C128.192 76.0082 128.464 76.0716 128.74 76.093C128.861 76.0921 128.98 76.0647 129.089 76.0128C129.198 75.9608 129.294 75.8856 129.371 75.7922C129.403 75.7463 129.425 75.694 129.436 75.6389C129.447 75.5838 129.446 75.5271 129.433 75.4724C129.42 75.4177 129.396 75.3664 129.362 75.3217C129.329 75.277 129.286 75.24 129.237 75.2132C128.938 75.059 128.404 75.3448 128.192 75.5591C128.177 75.5741 128.005 75.7903 127.947 75.8712C127.948 75.8675 127.948 75.8636 127.947 75.8599C128.046 75.5669 128.119 75.2655 128.165 74.9594C128.207 74.686 128.234 74.4105 128.244 74.1341C128.257 73.8784 128.244 73.6434 128.244 73.4347C128.244 73.3219 128.235 73.2185 128.229 73.1226C128.229 73.1226 128.375 72.7466 128.38 72.7165C128.451 72.4233 128.416 71.8141 128.13 71.6393C128.082 71.6117 128.028 71.5947 127.973 71.5893C127.917 71.5839 127.861 71.5902 127.809 71.608C127.756 71.6257 127.707 71.6543 127.666 71.6921C127.625 71.7299 127.592 71.776 127.57 71.8273C127.531 71.942 127.518 72.0639 127.531 72.1844C127.544 72.3048 127.582 72.421 127.645 72.5248C127.8 72.7474 127.989 72.9441 128.205 73.1076C128.205 73.2091 128.205 73.3144 128.214 73.4328C128.214 73.6415 128.214 73.8746 128.195 74.1303C128.195 74.198 128.184 74.2713 128.179 74.3409C128.164 74.2205 128.141 74.0532 128.137 74.0382C128.067 73.7449 127.764 73.2223 127.423 73.1978C127.367 73.1956 127.311 73.2052 127.26 73.2259C127.208 73.2465 127.161 73.2779 127.122 73.3179C127.083 73.3579 127.053 73.4057 127.033 73.4582C127.013 73.5107 127.005 73.5667 127.008 73.6227C127.027 73.7428 127.071 73.8574 127.137 73.9587C127.204 74.06 127.292 74.1454 127.395 74.2093C127.638 74.3331 127.898 74.4193 128.167 74.4649C128.151 74.621 128.13 74.7827 128.1 74.9481C128.049 75.2505 127.97 75.5475 127.865 75.8355H127.846C127.846 75.7227 127.846 75.4839 127.846 75.4595C127.807 75.1605 127.555 74.6059 127.227 74.5458C127.172 74.5373 127.115 74.5405 127.062 74.5553C127.008 74.57 126.958 74.596 126.915 74.6314C126.872 74.6668 126.837 74.711 126.811 74.761C126.786 74.811 126.772 74.8658 126.769 74.9218C126.775 75.0428 126.806 75.1613 126.861 75.269C126.916 75.3768 126.994 75.4712 127.088 75.5459C127.323 75.6986 127.578 75.8152 127.846 75.8919C127.734 76.175 127.605 76.4507 127.458 76.7172C127.352 76.9052 127.234 77.112 127.115 77.3075C127.115 77.2267 127.115 76.9127 127.115 76.8901C127.075 76.5912 126.825 76.0366 126.495 75.9765C126.44 75.968 126.384 75.9712 126.33 75.986C126.276 76.0007 126.226 76.0266 126.183 76.0621C126.14 76.0975 126.105 76.1417 126.08 76.1917C126.055 76.2417 126.04 76.2965 126.037 76.3525C126.043 76.4736 126.074 76.5921 126.129 76.6999C126.184 76.8077 126.262 76.9021 126.357 76.9766C126.587 77.1287 126.839 77.2447 127.103 77.3207C127.049 77.409 126.995 77.4993 126.939 77.5876C126.752 77.8771 126.579 78.1648 126.409 78.4562C126.349 78.5577 126.295 78.6592 126.239 78.7589C126.239 78.6404 126.239 78.4223 126.239 78.4035C126.2 78.1046 125.95 77.55 125.619 77.4899C125.564 77.4811 125.508 77.4841 125.454 77.4987C125.4 77.5133 125.35 77.5393 125.307 77.5747C125.264 77.6102 125.229 77.6545 125.204 77.7047C125.179 77.7549 125.164 77.8098 125.162 77.8659C125.167 77.9872 125.198 78.1061 125.253 78.2141C125.308 78.3222 125.386 78.417 125.481 78.4919C125.705 78.6402 125.95 78.7531 126.207 78.8265C126.118 78.9957 126.032 79.1668 125.955 79.3379C125.924 79.4131 125.886 79.4864 125.86 79.5597C125.834 79.6331 125.806 79.7064 125.778 79.7778C125.726 79.9282 125.677 80.0692 125.634 80.2102C125.61 80.2817 125.591 80.3493 125.569 80.4189C125.588 80.2986 125.614 80.1049 125.614 80.088C125.614 79.7853 125.455 79.1988 125.138 79.0897C125.085 79.0728 125.029 79.0673 124.973 79.0737C124.918 79.0801 124.865 79.0981 124.817 79.1267C124.769 79.1553 124.727 79.1937 124.695 79.2395C124.663 79.2853 124.641 79.3374 124.63 79.3924C124.622 79.4213 124.619 79.451 124.619 79.4808C124.47 79.6998 124.38 79.9536 124.357 80.2177C124.357 80.2384 124.371 80.4678 124.382 80.5843C124.352 80.4922 124.322 80.3963 124.294 80.3042C124.251 80.1651 124.21 80.0185 124.169 79.8756C124.152 79.8004 124.133 79.7252 124.115 79.6481C124.096 79.571 124.085 79.4958 124.068 79.4187C124.048 79.3059 124.031 79.1875 124.016 79.0691C124.272 79.014 124.518 78.9196 124.746 78.7889C124.846 78.7214 124.93 78.6327 124.992 78.5292C125.055 78.4256 125.094 78.3096 125.108 78.1892C125.109 78.133 125.099 78.0772 125.078 78.0253C125.056 77.9734 125.024 77.9265 124.984 77.8879C124.943 77.8492 124.895 77.8196 124.843 77.8009C124.79 77.7822 124.734 77.7749 124.679 77.7794C124.344 77.817 124.057 78.3528 123.997 78.6498C123.997 78.6592 123.997 78.7231 123.982 78.7983C123.969 78.6818 123.958 78.5671 123.949 78.4505C123.924 78.1159 123.909 77.7756 123.895 77.4335L123.883 77.221C124.145 77.1652 124.397 77.0688 124.63 76.9353C124.73 76.8679 124.814 76.7793 124.877 76.6757C124.939 76.5721 124.979 76.456 124.992 76.3355C124.994 76.2794 124.983 76.2237 124.962 76.1718C124.941 76.12 124.909 76.0733 124.868 76.0348C124.828 75.9963 124.779 75.9668 124.727 75.9483C124.674 75.9299 124.618 75.9228 124.563 75.9276C124.229 75.9633 123.941 76.4916 123.881 76.7961C123.881 76.8055 123.881 76.8826 123.865 76.9672C123.853 76.7792 123.84 76.5912 123.82 76.4145C123.789 76.1012 123.738 75.7903 123.667 75.4839C123.938 75.4268 124.199 75.3285 124.441 75.1925C124.541 75.1249 124.625 75.0363 124.688 74.9327C124.751 74.8292 124.79 74.7132 124.804 74.5928C124.805 74.5366 124.795 74.4807 124.773 74.4288C124.752 74.3769 124.72 74.3301 124.68 74.2915C124.639 74.2528 124.591 74.2232 124.538 74.2045C124.486 74.1858 124.43 74.1784 124.374 74.1829C124.04 74.2205 123.753 74.7563 123.693 75.0534C123.693 75.0741 123.665 75.3485 123.659 75.4482C123.659 75.4482 123.659 75.4482 123.659 75.4369C123.583 75.137 123.478 74.8449 123.348 74.5646C123.233 74.3133 123.104 74.0691 122.961 73.8333C122.832 73.6133 122.7 73.4197 122.588 73.2486C122.523 73.1565 122.463 73.0737 122.401 72.9967C122.401 72.9967 122.313 72.5962 122.304 72.5718C122.201 72.2879 121.839 71.801 121.503 71.8198C121.447 71.8224 121.392 71.8371 121.342 71.8627C121.292 71.8883 121.248 71.9243 121.213 71.9684C121.177 72.0124 121.152 72.0635 121.137 72.1183C121.123 72.173 121.121 72.2302 121.13 72.286C121.163 72.4065 121.222 72.518 121.304 72.6124C121.385 72.7067 121.487 72.7815 121.6 72.8312Z" fill="#263238"/>
<path d="M130.969 81.4228H8.08276V81.6108H130.969V81.4228Z" fill="#263238"/>
<path d="M71.4561 23.6673H34.1115C34.094 23.6674 34.0769 23.6624 34.062 23.6531C34.0472 23.6438 34.0352 23.6305 34.0275 23.6147C34.0201 23.5987 34.0172 23.5809 34.0192 23.5633C34.0211 23.5457 34.0279 23.529 34.0387 23.5151L34.8003 22.5563C35.2838 21.949 36.0379 22.1803 36.7025 22.3946C37.1617 22.5375 37.5947 22.6747 37.8803 22.5299C38.2313 22.3532 38.5075 21.8964 38.8267 21.3681C39.1683 20.8041 39.5566 20.1611 40.1483 19.6648C40.7961 19.1196 41.9683 19.7513 43.1014 20.3623C44.0851 20.8925 45.1043 21.4414 45.6979 21.1857C46.2579 20.947 46.4185 20.5747 46.6126 20.1442C46.8683 19.5802 47.1577 18.941 48.3691 18.4973C49.3305 18.1439 50.2993 18.5725 51.1523 18.9523C52.2219 19.4261 53.1478 19.8359 53.8478 18.7267C54.1815 18.1643 54.4645 17.5728 54.6934 16.9595C55.3561 15.3295 55.9833 13.7879 58.6806 13.5022C62.2273 13.1262 66.5579 19.6404 66.9406 20.2288C67.4767 20.3427 68.033 20.3149 68.5553 20.148C69.1246 20.0013 69.6622 19.8641 70.5526 20.4243C72.1169 21.4095 71.5513 23.5771 71.5457 23.5997C71.54 23.6192 71.5282 23.6363 71.5121 23.6485C71.4959 23.6607 71.4762 23.6673 71.4561 23.6673ZM34.3094 23.4793H71.3814C71.4598 23.1146 71.7547 21.3982 70.4481 20.5841C69.6249 20.0671 69.1713 20.1818 68.5945 20.3303C68.0315 20.5074 67.4323 20.5326 66.8566 20.4037C66.8326 20.3981 66.8119 20.3832 66.7987 20.3623C66.7539 20.2927 62.2179 13.3161 58.6937 13.6883C56.1083 13.9628 55.5017 15.4536 54.8595 17.0309C54.6273 17.655 54.3392 18.2566 53.999 18.8282C53.2131 20.0728 52.1734 19.6122 51.0721 19.1234C50.2097 18.7474 49.3193 18.3469 48.427 18.6741C47.2883 19.0895 47.0289 19.6648 46.7769 20.2213C46.5753 20.6687 46.3849 21.0899 45.7651 21.3493C45.0894 21.6426 44.0851 21.0974 43.0081 20.5202C41.931 19.9431 40.8147 19.3377 40.2622 19.8002C39.7097 20.2627 39.3158 20.9056 38.9817 21.4583C38.6475 22.0111 38.3582 22.4904 37.9587 22.6916C37.6059 22.8683 37.1374 22.7217 36.6409 22.5657C36.0025 22.3664 35.3435 22.1577 34.9403 22.6653L34.3094 23.4793Z" fill="#263238"/>
<path d="M101.933 19.7626H83.2777C83.2602 19.7625 83.2431 19.7574 83.2283 19.748C83.2135 19.7386 83.2016 19.7252 83.1941 19.7093C83.1865 19.6935 83.1835 19.6758 83.1854 19.6582C83.1873 19.6407 83.1941 19.6241 83.2049 19.6103L83.5783 19.1309C83.8396 18.8019 84.2503 18.9316 84.5788 19.035C84.7991 19.1046 85.0063 19.1685 85.1388 19.1046C85.3012 19.0237 85.4375 18.8 85.5924 18.5406C85.7659 18.2148 85.9931 17.9211 86.2644 17.672C86.6116 17.3806 87.1847 17.6889 87.7913 18.016C88.2729 18.2755 88.7713 18.5443 89.0476 18.424C89.151 18.3776 89.2433 18.3092 89.318 18.2235C89.3927 18.1379 89.4482 18.0369 89.4807 17.9277C89.5543 17.7249 89.6746 17.5425 89.8316 17.3955C89.9886 17.2484 90.1779 17.1409 90.3841 17.0817C90.8825 16.8937 91.3753 17.1174 91.8103 17.3092C92.4039 17.5724 92.7847 17.7096 93.0983 17.2152C93.2634 16.9417 93.4046 16.6542 93.5201 16.356C93.8561 15.5288 94.1753 14.7467 95.5492 14.6001C97.3225 14.4121 99.458 17.5818 99.7081 17.9653C99.9635 18.0167 100.228 18.0012 100.475 17.9202C100.646 17.8579 100.83 17.8385 101.01 17.8637C101.19 17.889 101.362 17.958 101.509 18.0649C102.321 18.5744 102.03 19.6911 102.027 19.7024C102.019 19.7211 102.006 19.7371 101.99 19.7479C101.973 19.7588 101.953 19.7639 101.933 19.7626ZM83.4719 19.5746H101.857C101.901 19.3414 101.993 18.5838 101.407 18.2153C101.28 18.1224 101.133 18.0626 100.978 18.0412C100.823 18.0199 100.665 18.0377 100.518 18.0931C100.23 18.1854 99.9227 18.1984 99.6278 18.1307C99.6041 18.1258 99.5833 18.1116 99.57 18.0912C99.5476 18.0555 97.4103 14.7712 95.7004 14.7712C95.6556 14.7683 95.6107 14.7683 95.566 14.7712C94.3023 14.9046 94.0185 15.6021 93.6881 16.4105C93.5717 16.7247 93.4267 17.0274 93.2551 17.3148C92.8407 17.9709 92.2788 17.7228 91.7337 17.4821C91.3119 17.2941 90.8769 17.1061 90.4476 17.2584C90.2648 17.3106 90.0971 17.4061 89.9584 17.5369C89.8198 17.6678 89.7142 17.8301 89.6505 18.0104C89.6093 18.1426 89.5407 18.2646 89.4493 18.3683C89.358 18.472 89.2459 18.555 89.1204 18.612C88.762 18.7662 88.2487 18.4898 87.7036 18.1965C87.1585 17.9032 86.6359 17.6212 86.3839 17.8318C86.1306 18.0671 85.9174 18.3428 85.7529 18.6477C85.5831 18.9297 85.4356 19.1741 85.2228 19.2813C85.01 19.3884 84.7879 19.302 84.5303 19.2211C84.1569 19.1046 83.9012 19.0331 83.7313 19.255L83.4719 19.5746Z" fill="#263238"/>
<path d="M112.868 29.8544H93.621C93.6032 29.8547 93.5857 29.8497 93.5707 29.84C93.5558 29.8303 93.544 29.8163 93.537 29.7999C93.5291 29.784 93.5259 29.7661 93.5279 29.7484C93.5299 29.7307 93.5369 29.714 93.5482 29.7002L93.9402 29.2058C94.209 28.8693 94.6122 28.9952 94.9687 29.108C95.1964 29.1795 95.4111 29.2472 95.5436 29.1814C95.7116 29.0968 95.8516 28.8655 96.0122 28.5986C96.1913 28.2653 96.4248 27.9647 96.7028 27.7093C97.0612 27.4085 97.6511 27.7281 98.2764 28.0646C98.773 28.3316 99.29 28.6098 99.5738 28.4858C99.6808 28.4376 99.7764 28.3669 99.854 28.2783C99.9316 28.1898 99.9895 28.0855 100.024 27.9725C100.1 27.7631 100.224 27.5748 100.386 27.4231C100.548 27.2715 100.744 27.1608 100.957 27.1002C101.47 26.9122 101.978 27.1378 102.426 27.3352C103.042 27.6078 103.436 27.7488 103.759 27.2374C103.929 26.9494 104.073 26.6468 104.19 26.3332C104.537 25.4796 104.866 24.6731 106.283 24.5227C108.11 24.3253 110.316 27.604 110.576 27.9951C110.841 28.0473 111.114 28.0318 111.371 27.95C111.547 27.885 111.736 27.8645 111.922 27.8904C112.107 27.9163 112.283 27.9878 112.435 28.0985C113.27 28.623 112.969 29.7736 112.967 29.7905C112.96 29.8109 112.947 29.8285 112.929 29.8401C112.911 29.8517 112.889 29.8568 112.868 29.8544ZM93.8151 29.6664H112.793C112.838 29.4276 112.935 28.6399 112.329 28.2564C112.198 28.1604 112.045 28.0988 111.884 28.0771C111.723 28.0555 111.56 28.0744 111.408 28.1323C111.111 28.2256 110.795 28.2386 110.492 28.1699C110.48 28.1675 110.469 28.1625 110.459 28.1554C110.449 28.1483 110.44 28.1391 110.434 28.1286C110.41 28.0928 108.082 24.5208 106.299 24.7107C104.993 24.848 104.7 25.5699 104.36 26.4027C104.239 26.7289 104.089 27.0435 103.912 27.3427C103.486 28.0176 102.908 27.762 102.348 27.5138C101.911 27.3258 101.459 27.1209 101.019 27.2826C100.83 27.336 100.657 27.434 100.513 27.5683C100.37 27.7027 100.26 27.8696 100.193 28.0552C100.15 28.1893 100.078 28.3127 99.9846 28.4176C99.8908 28.5224 99.7763 28.6065 99.6484 28.6644C99.2751 28.8242 98.7487 28.5384 98.1868 28.2357C97.625 27.933 97.0836 27.6398 96.8223 27.8597C96.5606 28.102 96.3411 28.3867 96.1727 28.702C95.986 28.9934 95.8442 29.2453 95.6258 29.3543C95.4074 29.4634 95.1778 29.3769 94.9146 29.2942C94.5282 29.172 94.2612 29.1062 94.0858 29.3299L93.8151 29.6664Z" fill="#263238"/>
<path d="M71.4561 23.6673H34.1115C34.094 23.6673 34.0769 23.6624 34.062 23.6531C34.0472 23.6438 34.0352 23.6305 34.0275 23.6146C34.0201 23.5986 34.0172 23.5808 34.0192 23.5632C34.0211 23.5456 34.0279 23.5289 34.0387 23.515L34.8003 22.5562C35.2838 21.949 36.0379 22.1802 36.7025 22.3945C37.1617 22.5374 37.5947 22.6746 37.8803 22.5299C38.2313 22.3531 38.5075 21.8963 38.8267 21.368C39.1683 20.804 39.5566 20.1611 40.1483 19.6647C40.7961 19.1195 41.9683 19.7512 43.1014 20.3622C44.0851 20.8924 45.1043 21.4414 45.6979 21.1857C46.2579 20.9469 46.4185 20.5747 46.6126 20.1442C46.8683 19.5802 47.1577 18.9409 48.3691 18.4973C49.3305 18.1438 50.2993 18.5725 51.1523 18.9522C52.2219 19.426 53.1478 19.8358 53.8478 18.7266C54.1815 18.1642 54.4645 17.5728 54.6934 16.9594C55.3561 15.3295 55.9833 13.7879 58.6806 13.5021C62.2273 13.1261 66.5579 19.6403 66.9406 20.2287C67.4767 20.3426 68.033 20.3148 68.5553 20.1479C69.1246 20.0013 69.6622 19.864 70.5526 20.4243C72.1169 21.4094 71.5513 23.577 71.5457 23.5996C71.54 23.6191 71.5282 23.6363 71.5121 23.6485C71.4959 23.6607 71.4762 23.6673 71.4561 23.6673ZM34.3094 23.4793H71.3814C71.4598 23.1145 71.7547 21.3981 70.4481 20.5841C69.6249 20.0671 69.1713 20.1817 68.5945 20.3303C68.0315 20.5073 67.4323 20.5326 66.8566 20.4036C66.8326 20.398 66.8119 20.3832 66.7987 20.3622C66.7539 20.2927 62.2179 13.316 58.6937 13.6882C56.1083 13.9627 55.5017 15.4535 54.8595 17.0309C54.6273 17.655 54.3392 18.2565 53.999 18.8282C53.2131 20.0727 52.1734 19.6121 51.0721 19.1233C50.2097 18.7473 49.3193 18.3469 48.427 18.674C47.2883 19.0895 47.0289 19.6647 46.7769 20.2212C46.5753 20.6687 46.3849 21.0898 45.7651 21.3492C45.0894 21.6425 44.0851 21.0973 43.0081 20.5202C41.931 19.943 40.8147 19.3376 40.2622 19.8001C39.7097 20.2626 39.3158 20.9055 38.9817 21.4583C38.6475 22.011 38.3582 22.4904 37.9587 22.6915C37.6059 22.8683 37.1374 22.7216 36.6409 22.5656C36.0025 22.3663 35.3435 22.1576 34.9403 22.6652L34.3094 23.4793Z" fill="#263238"/>
<path d="M101.933 19.7625H83.2777C83.2602 19.7624 83.2431 19.7574 83.2283 19.748C83.2135 19.7386 83.2016 19.7252 83.1941 19.7093C83.1865 19.6934 83.1835 19.6757 83.1854 19.6582C83.1873 19.6407 83.1941 19.624 83.2049 19.6102L83.5783 19.1308C83.8396 18.8018 84.2503 18.9315 84.5788 19.0349C84.7991 19.1045 85.0063 19.1684 85.1388 19.1045C85.3012 19.0237 85.4375 18.7999 85.5924 18.5405C85.7659 18.2147 85.9931 17.921 86.2644 17.6719C86.6116 17.3805 87.1847 17.6889 87.7913 18.016C88.2729 18.2754 88.7713 18.5443 89.0476 18.4239C89.151 18.3775 89.2433 18.3091 89.318 18.2235C89.3927 18.1378 89.4482 18.0369 89.4807 17.9276C89.5543 17.7248 89.6746 17.5424 89.8316 17.3954C89.9886 17.2484 90.1779 17.1408 90.3841 17.0816C90.8825 16.8936 91.3753 17.1173 91.8103 17.3091C92.4039 17.5723 92.7847 17.7095 93.0983 17.2151C93.2634 16.9416 93.4046 16.6541 93.5201 16.3559C93.8561 15.5287 94.1753 14.7467 95.5492 14.6C97.3225 14.412 99.458 17.5817 99.7081 17.9652C99.9635 18.0166 100.228 18.0011 100.475 17.9201C100.646 17.8578 100.83 17.8385 101.01 17.8637C101.19 17.8889 101.362 17.958 101.509 18.0649C102.321 18.5743 102.03 19.6911 102.027 19.7023C102.019 19.7211 102.006 19.737 101.99 19.7479C101.973 19.7587 101.953 19.7638 101.933 19.7625ZM83.4719 19.5745H101.857C101.901 19.3414 101.993 18.5837 101.407 18.2153C101.28 18.1223 101.133 18.0625 100.978 18.0412C100.823 18.0198 100.665 18.0377 100.518 18.0931C100.23 18.1854 99.9227 18.1983 99.6278 18.1307C99.6041 18.1257 99.5833 18.1115 99.57 18.0912C99.5476 18.0555 97.4103 14.7711 95.7004 14.7711C95.6556 14.7683 95.6107 14.7683 95.566 14.7711C94.3023 14.9046 94.0185 15.6021 93.6881 16.4105C93.5717 16.7247 93.4267 17.0274 93.2551 17.3147C92.8407 17.9709 92.2788 17.7227 91.7337 17.4821C91.3119 17.2941 90.8769 17.1061 90.4476 17.2583C90.2648 17.3106 90.0971 17.4061 89.9584 17.5369C89.8198 17.6677 89.7142 17.83 89.6505 18.0103C89.6093 18.1426 89.5407 18.2645 89.4493 18.3682C89.358 18.4719 89.2459 18.555 89.1204 18.6119C88.762 18.7661 88.2487 18.4897 87.7036 18.1965C87.1585 17.9032 86.6359 17.6212 86.3839 17.8317C86.1306 18.067 85.9174 18.3427 85.7529 18.6477C85.5831 18.9297 85.4356 19.1741 85.2228 19.2812C85.01 19.3884 84.7879 19.3019 84.5303 19.2211C84.1569 19.1045 83.9012 19.0331 83.7313 19.2549L83.4719 19.5745Z" fill="#263238"/>
<path d="M112.868 29.8543H93.621C93.6032 29.8547 93.5857 29.8497 93.5707 29.84C93.5558 29.8303 93.544 29.8163 93.537 29.7998C93.5291 29.7839 93.5259 29.766 93.5279 29.7483C93.5299 29.7306 93.5369 29.7139 93.5482 29.7002L93.9402 29.2057C94.209 28.8692 94.6122 28.9952 94.9687 29.108C95.1964 29.1794 95.4111 29.2471 95.5436 29.1813C95.7116 29.0967 95.8516 28.8655 96.0122 28.5985C96.1913 28.2652 96.4248 27.9646 96.7028 27.7093C97.0612 27.4085 97.6511 27.7281 98.2764 28.0646C98.773 28.3315 99.29 28.6098 99.5738 28.4857C99.6808 28.4376 99.7764 28.3668 99.854 28.2783C99.9316 28.1897 99.9895 28.0854 100.024 27.9725C100.1 27.763 100.224 27.5747 100.386 27.4231C100.548 27.2714 100.744 27.1607 100.957 27.1001C101.47 26.9121 101.978 27.1377 102.426 27.3351C103.042 27.6077 103.436 27.7487 103.759 27.2374C103.929 26.9493 104.073 26.6467 104.19 26.3331C104.537 25.4796 104.866 24.6731 106.283 24.5227C108.11 24.3253 110.316 27.604 110.576 27.995C110.841 28.0472 111.114 28.0317 111.371 27.9499C111.547 27.8849 111.736 27.8645 111.922 27.8904C112.107 27.9163 112.283 27.9877 112.435 28.0984C113.27 28.6229 112.969 29.7735 112.967 29.7904C112.96 29.8109 112.947 29.8284 112.929 29.84C112.911 29.8517 112.889 29.8567 112.868 29.8543ZM93.8151 29.6663H112.793C112.838 29.4276 112.935 28.6399 112.329 28.2563C112.198 28.1603 112.045 28.0987 111.884 28.0771C111.723 28.0554 111.56 28.0744 111.408 28.1323C111.111 28.2255 110.795 28.2385 110.492 28.1699C110.48 28.1674 110.469 28.1625 110.459 28.1553C110.449 28.1482 110.44 28.1391 110.434 28.1285C110.41 28.0928 108.082 24.5208 106.299 24.7107C104.993 24.8479 104.7 25.5698 104.36 26.4027C104.239 26.7289 104.089 27.0435 103.912 27.3427C103.486 28.0176 102.908 27.7619 102.348 27.5137C101.911 27.3257 101.459 27.1208 101.019 27.2825C100.83 27.3359 100.657 27.4339 100.513 27.5683C100.37 27.7027 100.26 27.8696 100.193 28.0552C100.15 28.1892 100.078 28.3126 99.9846 28.4175C99.8908 28.5224 99.7763 28.6064 99.6484 28.6643C99.2751 28.8241 98.7487 28.5383 98.1868 28.2357C97.625 27.933 97.0836 27.6397 96.8223 27.8597C96.5606 28.1019 96.3411 28.3866 96.1727 28.7019C95.986 28.9933 95.8442 29.2452 95.6258 29.3543C95.4074 29.4633 95.1778 29.3768 94.9146 29.2941C94.5282 29.1719 94.2612 29.1061 94.0858 29.3298L93.8151 29.6663Z" fill="#263238"/>
<path d="M109.997 74.7676V62.7186H50.2954V74.7676H75.0399C75.0605 78.4712 77.6141 81.4641 80.7613 81.4641H83.8525C86.2661 81.4641 88.3325 79.7026 89.1706 77.2097H102.667V75.576H89.5346C89.5626 75.3127 89.5775 75.0439 89.5794 74.7713L109.997 74.7676Z" fill="#263238"/>
<path d="M83.8581 81.5581H80.7669C77.6085 81.5581 75.0176 78.5633 74.9523 74.8616H50.2021V62.6246H110.09V74.8616H89.6728C89.6728 75.0665 89.656 75.2733 89.6374 75.4782H102.766V77.3037H89.2435C88.3456 79.9 86.24 81.5581 83.8581 81.5581ZM50.3888 74.6736H75.1371V74.7676C75.1576 78.4091 77.6832 81.3701 80.7651 81.3701H83.8563C86.1747 81.3701 88.228 79.7251 89.083 77.1796L89.1035 77.1157H102.573V75.6662H89.4301L89.4413 75.5628C89.4693 75.2977 89.4843 75.0308 89.4862 74.7676V74.6736H109.904V62.8126H50.3888V74.6736Z" fill="#263238"/>
<path d="M42.3079 74.7206C42.3079 70.9963 39.7449 67.977 36.5847 67.977H33.4935C30.3332 67.977 27.7703 70.9963 27.7703 74.7206C27.7703 78.4448 30.3332 81.4641 33.4935 81.4641H36.5865C39.0001 81.4641 41.0665 79.7026 41.9047 77.2097H55.4007V75.576H42.2612C42.2921 75.2919 42.3077 75.0063 42.3079 74.7206Z" fill="#263238"/>
<path d="M36.5866 81.5581H33.4935C30.2866 81.5581 27.677 78.4918 27.677 74.7206C27.677 70.9493 30.2903 67.883 33.4935 67.883H36.5866C39.7935 67.883 42.4031 70.9493 42.4031 74.7206C42.4031 74.965 42.3901 75.2188 42.3658 75.4726H55.4941V77.298H41.9701C41.0666 79.9 38.9647 81.5581 36.5866 81.5581ZM33.4954 68.071C30.3911 68.071 27.8655 71.0546 27.8655 74.7206C27.8655 78.3866 30.3911 81.3701 33.4954 81.3701H36.5866C38.905 81.3701 40.9583 79.7251 41.8133 77.1796L41.8357 77.1157H55.3037V75.6662H42.1567L42.1679 75.5628C42.1988 75.2831 42.2144 75.002 42.2146 74.7206C42.2146 71.0546 39.689 68.071 36.5847 68.071H33.4954Z" fill="#263238"/>
<path d="M64.357 74.7206C64.357 72.3386 63.308 70.2462 61.725 69.0448V67.977H58.6338C55.4736 67.977 52.9106 70.9963 52.9106 74.7206C52.9106 78.4448 55.4736 81.4641 58.6338 81.4641H61.725V80.3963C63.308 79.195 64.357 77.1025 64.357 74.7206Z" fill="#263238"/>
<path d="M61.8184 81.5581H58.6339C55.427 81.5581 52.8174 78.4918 52.8174 74.7206C52.8174 70.9493 55.4307 67.883 58.6339 67.883H61.8184V68.996C63.4667 70.265 64.4504 72.4006 64.4504 74.7168C64.4504 77.033 63.4667 79.1686 61.8184 80.4376V81.5581ZM58.6339 68.071C55.5296 68.071 53.0134 71.064 53.0134 74.7206C53.0134 78.3772 55.539 81.3701 58.6432 81.3701H61.6411V80.3493L61.6766 80.3211C63.3024 79.0897 64.2731 76.9954 64.2731 74.7206C64.2731 72.4458 63.3024 70.3514 61.6766 69.12L61.6411 69.0918V68.071H58.6339Z" fill="#263238"/>
<path d="M61.7249 81.4641C64.8857 81.4641 67.4481 78.4449 67.4481 74.7206C67.4481 70.9962 64.8857 67.977 61.7249 67.977C58.5641 67.977 56.0017 70.9962 56.0017 74.7206C56.0017 78.4449 58.5641 81.4641 61.7249 81.4641Z" fill="white"/>
<path d="M61.725 81.5581C58.5162 81.5581 55.9084 78.4918 55.9084 74.7206C55.9084 70.9493 58.5218 67.883 61.725 67.883C64.9282 67.883 67.5415 70.9493 67.5415 74.7206C67.5415 78.4918 64.9319 81.5581 61.725 81.5581ZM61.725 68.071C58.6188 68.071 56.0951 71.0546 56.0951 74.7206C56.0951 78.3866 58.6188 81.3701 61.725 81.3701C64.8311 81.3701 67.3548 78.3884 67.3548 74.7206C67.3548 71.0527 64.8292 68.071 61.725 68.071Z" fill="#263238"/>
<path d="M61.7249 79.242C63.8435 79.242 65.5609 77.2177 65.5609 74.7206C65.5609 72.2235 63.8435 70.1992 61.7249 70.1992C59.6064 70.1992 57.8889 72.2235 57.8889 74.7206C57.8889 77.2177 59.6064 79.242 61.7249 79.242Z" fill="#263238"/>
<path d="M61.7249 79.336C59.5577 79.336 57.7937 77.268 57.7937 74.7206C57.7937 72.1732 59.5577 70.1052 61.7249 70.1052C63.8921 70.1052 65.6542 72.1732 65.6542 74.7206C65.6542 77.268 63.8902 79.336 61.7249 79.336ZM61.7249 70.2932C59.6604 70.2932 57.9804 72.2803 57.9804 74.7206C57.9804 77.1608 59.6604 79.148 61.7249 79.148C63.7894 79.148 65.4676 77.1608 65.4676 74.7206C65.4676 72.2803 63.7876 70.2932 61.7249 70.2932Z" fill="#263238"/>
<path d="M61.725 78.6611C63.5714 78.6611 65.0682 76.8968 65.0682 74.7206C65.0682 72.5443 63.5714 70.7801 61.725 70.7801C59.8786 70.7801 58.3818 72.5443 58.3818 74.7206C58.3818 76.8968 59.8786 78.6611 61.725 78.6611Z" fill="#BABABA"/>
<path d="M61.725 78.7551C59.8285 78.7551 58.2866 76.9446 58.2866 74.7206C58.2866 72.4966 59.8285 70.688 61.725 70.688C63.6216 70.688 65.1616 72.4984 65.1616 74.7225C65.1616 76.9465 63.6197 78.7551 61.725 78.7551ZM61.725 70.8741C59.933 70.8741 58.4733 72.6 58.4733 74.7206C58.4733 76.8412 59.933 78.5671 61.725 78.5671C63.517 78.5671 64.9749 76.8412 64.9749 74.7206C64.9749 72.6 63.517 70.876 61.725 70.876V70.8741Z" fill="#263238"/>
<path d="M104.475 74.7206C104.475 72.3386 103.426 70.2462 101.843 69.0448V67.977H98.7466C95.5845 67.977 93.0234 70.9963 93.0234 74.7206C93.0234 78.4448 95.5845 81.4641 98.7466 81.4641H101.838V80.3963C103.426 79.195 104.475 77.1025 104.475 74.7206Z" fill="#263238"/>
<path d="M101.937 81.5581H98.7467C95.5398 81.5581 92.9302 78.4918 92.9302 74.7206C92.9302 70.9493 95.5435 67.883 98.7467 67.883H101.931V68.996C103.58 70.265 104.563 72.4006 104.563 74.7168C104.563 77.033 103.58 79.1686 101.931 80.4376L101.937 81.5581ZM98.7467 68.071C95.6424 68.071 93.1168 71.0546 93.1168 74.7206C93.1168 78.3866 95.648 81.3701 98.7467 81.3701H101.745V80.3493L101.78 80.3211C103.406 79.0897 104.377 76.9954 104.377 74.7206C104.377 72.4458 103.406 70.3514 101.78 69.12L101.745 69.0918V68.071H98.7467Z" fill="#263238"/>
<path d="M101.843 81.4641C105.004 81.4641 107.567 78.4449 107.567 74.7206C107.567 70.9962 105.004 67.977 101.843 67.977C98.6825 67.977 96.1201 70.9962 96.1201 74.7206C96.1201 78.4449 98.6825 81.4641 101.843 81.4641Z" fill="white"/>
<path d="M101.843 81.5581C98.6345 81.5581 96.0249 78.4918 96.0249 74.7206C96.0249 70.9493 98.6382 67.883 101.843 67.883C105.048 67.883 107.66 70.9493 107.66 74.7206C107.66 78.4918 105.05 81.5581 101.843 81.5581ZM101.843 68.071C98.7372 68.071 96.2116 71.0546 96.2116 74.7206C96.2116 78.3866 98.7372 81.3701 101.843 81.3701C104.949 81.3701 107.473 78.3884 107.473 74.7206C107.473 71.0527 104.948 68.071 101.843 68.071Z" fill="#263238"/>
<path d="M101.843 79.242C103.962 79.242 105.679 77.2177 105.679 74.7206C105.679 72.2235 103.962 70.1992 101.843 70.1992C99.7248 70.1992 98.0073 72.2235 98.0073 74.7206C98.0073 77.2177 99.7248 79.242 101.843 79.242Z" fill="#263238"/>
<path d="M101.843 79.336C99.6761 79.336 97.9121 77.268 97.9121 74.7206C97.9121 72.1732 99.6798 70.1052 101.843 70.1052C104.007 70.1052 105.763 72.1732 105.763 74.7206C105.763 77.268 104.009 79.336 101.843 79.336ZM101.843 70.2932C99.7788 70.2932 98.0988 72.2803 98.0988 74.7206C98.0988 77.1608 99.7788 79.148 101.843 79.148C103.908 79.148 105.577 77.1608 105.577 74.7206C105.577 72.2803 103.906 70.2932 101.843 70.2932Z" fill="#263238"/>
<path d="M101.843 78.6611C103.69 78.6611 105.187 76.8968 105.187 74.7206C105.187 72.5443 103.69 70.7801 101.843 70.7801C99.9971 70.7801 98.5002 72.5443 98.5002 74.7206C98.5002 76.8968 99.9971 78.6611 101.843 78.6611Z" fill="#BABABA"/>
<path d="M101.843 78.7551C99.9469 78.7551 98.405 76.9446 98.405 74.7206C98.405 72.4966 99.9469 70.688 101.843 70.688C103.74 70.688 105.28 72.4966 105.28 74.7206C105.28 76.9446 103.738 78.7551 101.843 78.7551ZM101.843 70.8741C100.05 70.8741 98.5917 72.6 98.5917 74.7206C98.5917 76.8412 100.05 78.5671 101.843 78.5671C103.637 78.5671 105.093 76.8412 105.093 74.7206C105.093 72.6 103.635 70.876 101.843 70.876V70.8741Z" fill="#263238"/>
<path d="M53.3867 72.5529L54.5066 68.1594C54.6903 67.4433 55.105 66.8091 55.6854 66.3561C56.2659 65.9032 56.9793 65.6573 57.7136 65.6571H63.8624C64.5305 65.657 65.1831 65.8607 65.7341 66.2412C66.2852 66.6217 66.709 67.1613 66.9499 67.789L69.6267 74.7544H85.3197V58.1371L83.1842 55.1159H34.4344C33.7442 55.1104 33.0574 55.2151 32.3997 55.4261C31.7109 55.6517 30.9512 56.0409 30.492 56.7008C29.4933 58.1427 29.4933 58.8628 29.4933 58.8628C29.4933 58.8628 23.6469 59.2952 22.2133 60.16C20.7797 61.0248 21.784 61.7448 22.4989 63.6173C23.2139 65.4898 23.4995 66.2117 23.4995 67.5089C23.4995 68.8061 22.6427 72.5529 22.6427 72.5529H53.3867Z" fill="#56AA7A"/>
<path d="M85.4112 74.8484H69.5613L66.864 67.8228C66.627 67.2153 66.2144 66.6934 65.6796 66.3247C65.1448 65.956 64.5123 65.7575 63.8642 65.7548H57.7154C57.002 65.7546 56.3087 65.9933 55.7447 66.4334C55.1807 66.8734 54.778 67.4899 54.6 68.1857L53.4576 72.6507H22.5269L22.553 72.536C22.553 72.4984 23.408 68.776 23.408 67.5126C23.408 66.2493 23.1317 65.533 22.4597 63.7752L22.413 63.6549C22.2476 63.2368 22.0607 62.8277 21.853 62.4291C21.3546 61.4308 21.0242 60.771 22.1629 60.0829C23.5218 59.2613 28.6682 58.8364 29.4018 58.7782C29.4317 58.5432 29.5885 57.8382 30.4117 56.65C30.8112 56.0766 31.4682 55.6367 32.3661 55.334C33.0336 55.1204 33.7303 55.0145 34.4306 55.02H83.2309L85.4112 58.1051V74.8484ZM69.6901 74.6604H85.2245V58.1672L83.1338 55.2099H34.4344C33.7538 55.2051 33.0766 55.3078 32.4277 55.5145C31.5709 55.7984 30.9437 56.2157 30.561 56.7553C29.596 58.1446 29.5773 58.8552 29.5773 58.8628V58.9492H29.4914C29.4336 58.9492 23.6525 59.3892 22.2562 60.2333C21.2669 60.8311 21.5096 61.3011 22.0173 62.3332C22.2249 62.7376 22.4118 63.1524 22.5773 63.5759L22.6221 63.6962C23.3034 65.4785 23.5834 66.2154 23.5834 67.5014C23.5834 68.682 22.8965 71.8009 22.749 72.4514H53.3138L54.4189 68.1274C54.6076 67.3913 55.0338 66.7393 55.6305 66.2738C56.2272 65.8082 56.9606 65.5556 57.7154 65.5556H63.8642C64.5505 65.5581 65.2201 65.7685 65.7861 66.1594C66.352 66.5504 66.7881 67.1038 67.0376 67.7476L69.6901 74.6604Z" fill="#263238"/>
<path d="M85.3179 58.1371V74.7732H92.0845L92.6203 72.5529L93.7403 68.1594C93.9236 67.4435 94.3379 66.8093 94.918 66.3563C95.4982 65.9034 96.2113 65.6574 96.9453 65.6571H103.105C103.773 65.6575 104.426 65.8614 104.977 66.2418C105.528 66.6223 105.952 67.1616 106.193 67.789L108.718 74.7732H115.978C116.465 74.7727 116.932 74.5776 117.276 74.2308C117.62 73.884 117.814 73.4138 117.815 72.9233L116.458 59.784C116.458 59.3497 116.286 58.9332 115.981 58.6261C115.676 58.319 115.263 58.1465 114.832 58.1465L85.3179 58.1371Z" fill="#56AA7A"/>
<path d="M115.972 74.8672H108.64L106.092 67.821C105.855 67.2136 105.442 66.6918 104.907 66.3231C104.372 65.9545 103.74 65.7558 103.092 65.753H96.9321C96.2189 65.7529 95.5259 65.9916 94.9622 66.4317C94.3985 66.8718 93.9962 67.4882 93.8185 68.1838L92.6985 72.5774L92.1385 74.8691H85.2244V58.0431H114.832C115.287 58.0436 115.724 58.2262 116.047 58.5508C116.369 58.8754 116.55 59.3155 116.551 59.7746L117.902 72.912C117.903 73.168 117.854 73.4217 117.757 73.6585C117.66 73.8953 117.518 74.1107 117.339 74.2922C117.16 74.4738 116.947 74.618 116.712 74.7167C116.478 74.8153 116.226 74.8665 115.972 74.8672ZM108.778 74.6792H115.972C116.434 74.6787 116.878 74.4936 117.204 74.1644C117.531 73.8352 117.715 73.3888 117.716 72.9233L116.364 59.784C116.365 59.5806 116.326 59.3791 116.249 59.191C116.172 59.0029 116.06 58.8318 115.917 58.6876C115.775 58.5434 115.606 58.4288 115.42 58.3505C115.233 58.2722 115.033 58.2316 114.832 58.2311H85.411V74.6792H92.0116L92.5305 72.5304L93.6505 68.1349C93.8385 67.3989 94.2643 66.7467 94.8608 66.2811C95.4572 65.8155 96.1905 65.5629 96.9452 65.5631H103.105C103.791 65.5659 104.461 65.7764 105.027 66.1673C105.593 66.5582 106.029 67.1114 106.278 67.7552L108.778 74.6792Z" fill="#263238"/>
<path d="M44.5554 64.5836H44.085H27.5743L27.5482 64.5328C27.5482 64.5328 27.2701 63.9858 26.9882 63.2695C26.669 62.4648 27.3373 61.4553 27.5575 61.1225C27.8431 60.692 29.3589 58.8853 29.4242 58.8101L29.5661 58.9304C29.5493 58.9492 27.9925 60.8104 27.7125 61.2278C27.5053 61.5399 26.8781 62.4874 27.1618 63.1999C27.3933 63.7808 27.6173 64.2471 27.6919 64.3956H44.0887H44.3668C44.3363 64.2074 44.2731 64.026 44.1802 63.8598C44.0978 63.7095 44.0231 63.5552 43.9562 63.3973C43.8237 63.0852 43.6949 62.8108 43.5829 62.5701C43.0733 61.4872 42.8175 60.942 43.7994 60.0923C44.253 59.6975 45.2927 59.3628 46.9167 59.0996C48.2945 58.8778 49.6878 58.7685 51.0831 58.7725H62.3746L61.3685 55.4957L61.5551 55.4412L62.6341 58.9605H51.0775C49.6923 58.9571 48.3091 59.0652 46.941 59.2839C45.3823 59.5396 44.337 59.8686 43.9151 60.2352C43.0415 60.9872 43.2487 61.4308 43.7453 62.4912C43.8591 62.7337 43.9898 63.01 44.1186 63.3259C44.1826 63.4783 44.2549 63.627 44.3351 63.7714C44.4621 63.9918 44.5362 64.239 44.5517 64.4934L44.5554 64.5836Z" fill="#263238"/>
<path d="M46.6814 65.6232C47.3856 65.6232 47.9564 64.689 47.9564 63.5364C47.9564 62.3839 47.3856 61.4496 46.6814 61.4496C45.9773 61.4496 45.4065 62.3839 45.4065 63.5364C45.4065 64.689 45.9773 65.6232 46.6814 65.6232Z" fill="white"/>
<path d="M46.6815 65.7173C45.9348 65.7173 45.3132 64.7397 45.3132 63.5365C45.3132 62.3333 45.9274 61.3557 46.6815 61.3557C47.4356 61.3557 48.0498 62.3333 48.0498 63.5365C48.0498 64.7397 47.4356 65.7173 46.6815 65.7173ZM46.6815 61.5437C46.03 61.5437 45.4999 62.4367 45.4999 63.5365C45.4999 64.6363 46.03 65.5293 46.6815 65.5293C47.333 65.5293 47.8631 64.6344 47.8631 63.5365C47.8631 62.4385 47.333 61.5437 46.6815 61.5437Z" fill="#263238"/>
<path d="M47.6224 66.5651C47.453 66.5694 47.2863 66.5215 47.1446 66.4279L47.2528 66.2737C47.3747 66.3399 47.511 66.3745 47.6495 66.3745C47.788 66.3745 47.9243 66.3399 48.0462 66.2737C48.3934 66.1045 48.6062 65.7473 48.6211 65.2698C48.6752 64.1079 47.4003 61.2673 47.04 61.0605C46.6798 60.8537 44.8168 60.9101 44.5144 61.2146C44.339 61.3913 44.8878 62.5306 45.4851 63.4819L45.3283 63.5834C45.0147 63.0871 44.0216 61.4459 44.3838 61.0811C44.7459 60.7164 46.6891 60.6412 47.1334 60.8931C47.5776 61.1451 48.8619 64.108 48.8134 65.2736C48.7779 66.0256 48.3728 66.3226 48.1339 66.4391C47.9752 66.5198 47.8002 66.5629 47.6224 66.5651Z" fill="#263238"/>
<path d="M24.5113 65.6232C25.2154 65.6232 25.7862 64.689 25.7862 63.5364C25.7862 62.3839 25.2154 61.4496 24.5113 61.4496C23.8071 61.4496 23.2363 62.3839 23.2363 63.5364C23.2363 64.689 23.8071 65.6232 24.5113 65.6232Z" fill="white"/>
<path d="M24.5111 65.7173C23.7644 65.7173 23.1428 64.7397 23.1428 63.5365C23.1428 62.3333 23.757 61.3557 24.5111 61.3557C25.2652 61.3557 25.8794 62.3333 25.8794 63.5365C25.8794 64.7397 25.2652 65.7173 24.5111 65.7173ZM24.5111 61.5437C23.8596 61.5437 23.3295 62.4367 23.3295 63.5365C23.3295 64.6363 23.8596 65.5293 24.5111 65.5293C25.1626 65.5293 25.6927 64.6344 25.6927 63.5365C25.6927 62.4385 25.1626 61.5437 24.5111 61.5437Z" fill="#263238"/>
<path d="M25.452 66.5651C25.2826 66.5694 25.1159 66.5215 24.9742 66.4279L25.0824 66.2737C25.2045 66.3394 25.3407 66.3737 25.4791 66.3737C25.6175 66.3737 25.7537 66.3394 25.8758 66.2737C26.223 66.1045 26.4358 65.7473 26.4507 65.2698C26.5048 64.1079 25.2299 61.2673 24.8696 61.0605C24.5094 60.8537 22.6464 60.9119 22.344 61.2146C22.1686 61.3913 22.7174 62.5306 23.3147 63.4819L23.1579 63.5834C22.8443 63.0871 21.8512 61.4459 22.2134 61.0811C22.5755 60.7164 24.5187 60.6412 24.963 60.8931C25.4072 61.1451 26.6915 64.108 26.643 65.2736C26.6075 66.0256 26.2024 66.3226 25.9635 66.4391C25.8048 66.5198 25.6298 66.5629 25.452 66.5651Z" fill="#263238"/>
<path d="M31.0222 70.8722H34.3094L33.5497 65.8996H30.2625L31.0222 70.8722Z" fill="#263238"/>
<path d="M34.4194 70.9662H30.9418L30.1541 65.8H33.6298L34.4194 70.9662ZM31.1023 70.7782H34.201L33.4693 65.988H30.3725L31.1023 70.7782Z" fill="#263238"/>
<path d="M37.4041 65.8996H34.1169L34.8767 70.8722H38.1639L37.4041 65.8996Z" fill="#263238"/>
<path d="M38.2666 70.9662H34.7964L34.0068 65.8H37.4844L38.2666 70.9662ZM34.9514 70.7782H38.0482L37.3332 65.988H34.2346L34.9514 70.7782Z" fill="#263238"/>
<path d="M29.6966 65.8996H28.6793C28.4313 65.9 28.1904 65.9833 27.9945 66.1364C27.7986 66.2895 27.6586 66.5038 27.5966 66.7456L26.906 69.4678C26.8643 69.634 26.8607 69.8076 26.8956 69.9753C26.9305 70.1431 27.0028 70.3006 27.1072 70.436C27.2115 70.5714 27.3452 70.681 27.4979 70.7566C27.6506 70.8322 27.8185 70.8717 27.9886 70.8722H30.4564L29.6966 65.8996Z" fill="#263238"/>
<path d="M30.5646 70.9662H27.9886C27.8041 70.9662 27.622 70.9238 27.4562 70.8421C27.2905 70.7604 27.1454 70.6417 27.0322 70.495C26.9189 70.3483 26.8404 70.1774 26.8027 69.9955C26.765 69.8136 26.769 69.6254 26.8145 69.4453L27.507 66.723C27.5734 66.4607 27.7247 66.228 27.937 66.0619C28.1493 65.8958 28.4104 65.8056 28.6793 65.8056H29.7769L30.5646 70.9662ZM28.6793 65.988C28.4519 65.988 28.231 66.0644 28.0515 66.205C27.872 66.3456 27.7441 66.5424 27.6881 66.7644L26.9956 69.4866C26.9568 69.639 26.9532 69.7982 26.985 69.9522C27.0168 70.1061 27.0832 70.2507 27.179 70.3748C27.2749 70.499 27.3977 70.5993 27.538 70.6683C27.6784 70.7372 27.8325 70.7729 27.9886 70.7726H30.3462L29.6164 65.988H28.6793Z" fill="#263238"/>
<path d="M41.2569 65.8996H37.9697L38.7295 70.8722H42.0167L41.2569 65.8996Z" fill="#263238"/>
<path d="M42.125 70.9662H38.6493L37.8616 65.8H41.3373L42.125 70.9662ZM38.8098 70.7782H41.9085L41.1768 65.988H38.08L38.8098 70.7782Z" fill="#263238"/>
<path d="M45.7333 69.3851L44.8111 66.661C44.7355 66.4392 44.593 66.2467 44.4037 66.1102C44.2143 65.9738 43.9874 65.9002 43.7546 65.8996H41.8245L42.5842 70.876H44.673C44.851 70.8759 45.0264 70.8332 45.1847 70.7512C45.343 70.6693 45.4797 70.5505 45.5833 70.4048C45.687 70.2591 45.7546 70.0905 45.7807 69.9132C45.8068 69.7359 45.7905 69.5549 45.7333 69.3851Z" fill="#263238"/>
<path d="M44.673 70.9662H42.504L41.7144 65.8H43.7528C44.0051 65.8001 44.2512 65.8798 44.4563 66.0278C44.6615 66.1758 44.8156 66.3847 44.897 66.6253L45.8192 69.3475C45.8816 69.5311 45.8996 69.727 45.8716 69.919C45.8437 70.111 45.7706 70.2935 45.6585 70.4513C45.5464 70.6091 45.3985 70.7377 45.227 70.8262C45.0556 70.9148 44.8657 70.9609 44.673 70.9606V70.9662ZM42.6645 70.7782H44.673C44.8358 70.7783 44.9962 70.7393 45.141 70.6644C45.2858 70.5896 45.4107 70.481 45.5055 70.3477C45.6002 70.2144 45.662 70.0603 45.6857 69.8981C45.7094 69.7359 45.6944 69.5704 45.6418 69.4152L44.7216 66.693C44.6526 66.4892 44.5222 66.3123 44.3485 66.1869C44.1748 66.0615 43.9665 65.9939 43.7528 65.9936H41.9328L42.6645 70.7782Z" fill="#263238"/>
<path d="M54.0417 72.8424C53.954 72.1468 53.2148 71.5998 52.8284 71.3572H22.5212C22.1367 71.5998 21.4012 72.1468 21.3079 72.8424C21.1884 73.7824 21.5505 74.5965 22.2729 75.0007H53.0729C53.8009 74.5965 54.1631 73.7862 54.0417 72.8424Z" fill="#BABABA"/>
<path d="M53.1029 75.0947H22.2487L22.2263 75.0834C21.4685 74.6585 21.0914 73.8163 21.2165 72.8274C21.3079 72.1055 22.0434 71.5452 22.4727 71.2764L22.4951 71.2614H52.8565L52.8789 71.2764C53.3082 71.5452 54.0437 72.1055 54.1351 72.8274C54.2602 73.8144 53.8831 74.6566 53.1253 75.0834L53.1029 75.0947ZM22.3029 74.9067H53.0543C53.7301 74.5175 54.0642 73.7524 53.9503 72.8537C53.8701 72.2202 53.2037 71.7088 52.8023 71.4512H22.5493C22.1442 71.7088 21.4815 72.2202 21.4013 72.8537C21.2799 73.7524 21.6215 74.5175 22.2973 74.9067H22.3029Z" fill="#263238"/>
<path d="M84.3286 58.6823H65.1299V58.8703H84.3286V58.6823Z" fill="#263238"/>
<path d="M83.1824 55.1159L80.6045 45.5599C80.3546 44.6324 79.8814 43.7813 79.2269 43.082C78.4699 42.2749 77.4449 41.7758 76.3466 41.6795L73.9405 41.4728C64.5325 41.1231 56.5114 41.5517 50.9562 42.33C50.8285 42.3779 50.7069 42.441 50.5941 42.518C49.6512 43.0881 48.9275 43.9627 48.5408 44.9996L44.7402 55.0294L83.1824 55.1159Z" fill="#56AA7A"/>
<path d="M83.3037 55.2099H83.1824L44.5984 55.1122L48.4456 44.9602C48.8418 43.9037 49.5804 43.0127 50.5419 42.4316C50.6633 42.3522 50.7944 42.289 50.932 42.2436C57.1648 41.36 65.3333 41.0592 73.9387 41.3788L76.3467 41.5875C77.4692 41.6835 78.5172 42.1929 79.2904 43.0181C79.9555 43.7288 80.4369 44.5933 80.6923 45.5355L83.3037 55.2099ZM44.8691 54.9261L83.0592 55.0219L80.5149 45.5843C80.2696 44.6694 79.8034 43.8299 79.1579 43.1403C78.4162 42.3481 77.4108 41.8588 76.3336 41.7661L73.92 41.5668C65.3333 41.2472 57.1723 41.5517 50.96 42.4222C50.8462 42.4676 50.7368 42.5236 50.6333 42.5895C49.7068 43.1517 48.9963 44.0131 48.6173 45.0335L44.8691 54.9261Z" fill="#263238"/>
<path d="M46.2148 52.749L49.4666 44.368C49.7316 43.6874 50.3103 43.2513 50.9487 43.2513L53.8644 43.0633C55.7349 42.9367 57.6114 42.9266 59.4831 43.0332L63.4666 43.2588C64.6444 43.2588 65.7066 44.1198 66.1079 45.417L68.0436 51.5759C68.1904 52.0338 68.216 52.5223 68.1177 52.9931C68.0195 53.464 67.8009 53.9009 67.4836 54.2605C67.2743 54.4972 67.0104 54.6786 66.7152 54.7887C66.4201 54.8989 66.1026 54.9344 65.7906 54.8922C63.6458 54.5745 58.3631 53.8676 54.3348 54.003C52.0166 54.0826 49.7053 54.3023 47.4132 54.661C46.521 54.7963 45.8378 53.721 46.2148 52.749Z" fill="#263238"/>
<path d="M66.0688 55.0012C65.9745 55.0008 65.8803 54.9939 65.7869 54.9806C63.6925 54.6685 58.3837 53.956 54.348 54.0913C52.0349 54.1715 49.7286 54.3906 47.4413 54.7474C47.2367 54.7778 47.0277 54.7519 46.8365 54.6725C46.6452 54.593 46.4789 54.463 46.355 54.2962C46.1833 54.0756 46.0724 53.8132 46.0335 53.5357C45.9945 53.2581 46.0287 52.9751 46.1328 52.7152L49.392 44.336C49.6702 43.6216 50.2861 43.1591 50.96 43.1591L53.8701 42.9711C55.7444 42.8455 57.6245 42.8354 59.5 42.941L63.4816 43.1666C64.6912 43.1666 65.787 44.0615 66.2051 45.3907L68.1333 51.542C68.2889 52.0138 68.3191 52.5184 68.2208 53.0056C68.1226 53.4928 67.8993 53.9455 67.5733 54.3188C67.3831 54.5312 67.1511 54.7015 66.8921 54.8189C66.6332 54.9364 66.3528 54.9985 66.0688 55.0012ZM55.4027 53.8864C59.276 53.8864 63.8941 54.5087 65.8149 54.7944C66.1123 54.8339 66.4146 54.7996 66.6958 54.6944C66.9769 54.5892 67.2282 54.4164 67.4277 54.191C67.7341 53.8436 67.9446 53.4214 68.0382 52.9665C68.1319 52.5116 68.1055 52.0399 67.9616 51.5984L66.0259 45.4396C65.632 44.1875 64.6072 43.3471 63.4742 43.3471L59.4851 43.1215C57.6196 43.0162 55.7494 43.0263 53.8851 43.1516L50.9712 43.3396C50.6587 43.3527 50.3575 43.4608 50.1072 43.6498C49.857 43.8387 49.6694 44.0996 49.5693 44.398L46.3101 52.7753C46.2191 53.0046 46.1884 53.2537 46.2211 53.4985C46.2538 53.7432 46.3488 53.9753 46.4968 54.1722C46.6012 54.3119 46.7411 54.4206 46.9018 54.4867C47.0625 54.5529 47.2379 54.5742 47.4096 54.5482C49.7055 54.1903 52.0206 53.9706 54.3424 53.8902C54.6933 53.892 55.0424 53.8864 55.4027 53.8864Z" fill="#263238"/>
<path d="M66.1153 45.4114C65.7868 44.3661 65.0364 43.6028 64.1386 43.3434L49.5562 54.3583C50.9244 54.1966 52.5559 54.0537 54.346 53.9936C56.2568 53.954 58.1683 54.0243 60.0711 54.2041L67.1644 48.7521L66.1153 45.4114Z" fill="white"/>
<path d="M49.2239 54.4955L64.1199 43.24L64.1647 43.2532C65.1073 43.522 65.8689 44.3172 66.2031 45.3794L67.2727 48.7785L67.2204 48.818L60.1065 54.3038H60.0711C58.1714 54.1228 56.263 54.0524 54.3553 54.0932C52.7817 54.1459 51.182 54.2681 49.5748 54.458L49.2239 54.4955ZM64.1572 43.4505L49.8884 54.2286C51.3817 54.0632 52.8751 53.9522 54.3423 53.9033C56.2449 53.8617 58.1484 53.9314 60.0431 54.112L67.0543 48.7127L66.0257 45.4396C65.7159 44.4545 65.0196 43.7137 64.1572 43.4505Z" fill="#263238"/>
<path d="M47.3218 49.9064L56.3434 42.9598C55.5183 42.9699 54.6945 43.0025 53.8719 43.0576L51.5964 43.2099L49.1828 45.12L47.3218 49.9064Z" fill="white"/>
<path d="M47.1128 50.196L49.1064 45.0692L51.5611 43.1272L53.8664 42.973C54.6691 42.9185 55.5035 42.8865 56.3416 42.8752H56.6235L47.1128 50.196ZM49.2613 45.1764L47.5291 49.632L56.0616 43.052C55.3149 43.067 54.5888 43.0971 53.8776 43.146L51.6376 43.2964L49.2613 45.1764Z" fill="#263238"/>
<path d="M77.5524 43.4017H70.5244C70.1842 43.4018 69.8487 43.4817 69.5445 43.6351C69.2402 43.7885 68.9756 44.0111 68.7716 44.2853C68.5628 44.565 68.4232 44.8909 68.3645 45.2358C68.3057 45.5808 68.3295 45.9348 68.4337 46.2687L70.5244 53.016C70.6791 53.5115 70.9865 53.9444 71.4021 54.252C71.8176 54.5597 72.3196 54.7259 72.8353 54.7268H80.5017C80.6591 54.7266 80.8142 54.6896 80.9549 54.6187C81.0956 54.5478 81.218 54.445 81.3125 54.3183C81.407 54.1916 81.471 54.0445 81.4994 53.8886C81.5278 53.7328 81.5198 53.5724 81.4761 53.4202L78.8889 44.4188C78.8056 44.1263 78.6303 43.869 78.3892 43.6856C78.1482 43.5021 77.8545 43.4025 77.5524 43.4017Z" fill="#263238"/>
<path d="M80.5017 54.8152H72.8353C72.2992 54.817 71.7768 54.6453 71.3449 54.3255C70.9131 54.0056 70.5946 53.5545 70.4366 53.0386L68.3441 46.2969C68.2373 45.9523 68.2124 45.5873 68.2715 45.2313C68.3305 44.8752 68.4718 44.5382 68.684 44.2472C68.8962 43.9563 69.1733 43.7197 69.493 43.5565C69.8127 43.3933 70.166 43.3081 70.5244 43.3077H77.5524C77.8737 43.3091 78.1861 43.4148 78.443 43.6092C78.6999 43.8036 78.8877 44.0763 78.9785 44.3868L81.5732 53.392C81.6205 53.5581 81.629 53.733 81.5978 53.903C81.5667 54.073 81.4968 54.2333 81.3937 54.3715C81.2905 54.5096 81.157 54.6218 81.0035 54.6991C80.85 54.7764 80.6808 54.8168 80.5092 54.817L80.5017 54.8152ZM70.5244 43.4957C70.1944 43.4956 69.869 43.5738 69.5746 43.7241C69.2802 43.8743 69.0251 44.0923 68.83 44.3604C68.635 44.6285 68.5053 44.9391 68.4517 45.267C68.3981 45.595 68.422 45.9311 68.5214 46.248L70.614 52.9897C70.7604 53.4674 71.0553 53.8851 71.4552 54.1813C71.8551 54.4774 72.3389 54.6364 72.8353 54.6347H80.5017C80.6445 54.6345 80.7854 54.6009 80.9131 54.5365C81.0409 54.4722 81.152 54.3788 81.2378 54.2638C81.3236 54.1487 81.3817 54.0152 81.4075 53.8737C81.4333 53.7322 81.4261 53.5866 81.3865 53.4484L78.7974 44.447C78.7174 44.1765 78.5532 43.9392 78.329 43.77C78.1048 43.6007 77.8325 43.5085 77.5524 43.507L70.5244 43.4957Z" fill="#263238"/>
<path d="M79.645 47.0451L71.0042 53.877C71.2316 54.1415 71.5128 54.3538 71.8287 54.4994C72.1446 54.6451 72.4879 54.7207 72.8353 54.7211H74.1588L80.4532 49.8726L79.645 47.0451Z" fill="white"/>
<path d="M74.1907 54.8152H72.8355C72.4746 54.8149 72.118 54.7366 71.7898 54.5854C71.4616 54.4343 71.1695 54.2138 70.9333 53.9391L70.8699 53.8639L79.6955 46.8853L80.5653 49.9084L74.1907 54.8152ZM71.1405 53.8883C71.3579 54.1217 71.6204 54.3077 71.9119 54.4347C72.2035 54.5618 72.5178 54.6273 72.8355 54.6272H74.1291L80.3507 49.8369L79.5928 47.2049L71.1405 53.8883Z" fill="#263238"/>
<path d="M117.557 69.6878H116.142C116.142 69.6878 116.189 73.7373 115.022 74.7544H117.695C117.695 74.7544 118.554 74.5796 118.983 73.5268V73.5174C119.148 73.0848 119.171 72.6101 119.047 72.1638L118.459 69.9078C118.459 69.8782 118.454 69.8488 118.444 69.8213C118.433 69.7937 118.417 69.7686 118.397 69.7472C118.376 69.7259 118.352 69.7089 118.325 69.697C118.298 69.6852 118.269 69.6789 118.24 69.6784L117.557 69.6878Z" fill="#BABABA"/>
<path d="M115.018 74.8484H114.768L114.955 74.683C116.075 73.7054 116.045 69.7273 116.045 69.6878V69.5938H118.238C118.32 69.5948 118.399 69.6279 118.457 69.6862C118.515 69.7444 118.549 69.8233 118.55 69.9059L119.136 72.1393C119.264 72.6058 119.24 73.1015 119.067 73.5531C118.621 74.6491 117.744 74.839 117.706 74.8465L115.018 74.8484ZM115.241 74.6604H117.68C117.772 74.6379 118.507 74.4386 118.894 73.4911C119.054 73.075 119.076 72.618 118.957 72.1882L118.365 69.9322V69.9172C118.366 69.9002 118.363 69.8832 118.357 69.8673C118.351 69.8515 118.342 69.8371 118.33 69.8251C118.318 69.8128 118.304 69.8031 118.289 69.7963C118.274 69.7895 118.257 69.7859 118.24 69.7856H116.236C116.236 70.3834 116.187 73.523 115.241 74.6604Z" fill="#263238"/>
<path d="M84.3042 73.288H69.6938V73.1978C69.6938 73.1019 69.214 63.4537 68.8612 61.3218C68.5196 59.2538 67.3959 58.9981 67.3829 58.9962L67.3175 58.9831V58.9135L66.9778 55.4073H67.0823C67.0991 55.4073 68.8333 55.3979 69.3951 54.7211C69.957 54.0443 69.8524 53.6063 69.8524 53.6025C69.7516 53.3243 67.3175 46.5375 67.3175 45.2158C67.3175 43.8547 68.6242 43.1215 68.6765 43.0914L68.7661 43.2569C68.753 43.2569 67.5042 43.9675 67.5042 45.2158C67.5042 46.5055 70.0055 53.4784 70.0317 53.548C70.0317 53.5781 70.1567 54.0932 69.537 54.8414C68.9975 55.4919 67.5807 55.5821 67.185 55.5934L67.4967 58.8308C67.7655 58.9191 68.7325 59.3628 69.0517 61.2898C69.3877 63.3221 69.8338 72.113 69.8842 73.1H84.1287V60.0058L83.1767 57.9622C83.1767 57.9453 82.8183 56.1894 82.2546 55.7363L82.3722 55.5897C82.9695 56.0691 83.3223 57.7441 83.3578 57.9133L84.3154 59.9813L84.3042 73.288Z" fill="#263238"/>
<path d="M82.8986 57.9434H79.561C79.4663 57.9434 79.3754 57.9057 79.3083 57.8384C79.2411 57.7711 79.2031 57.6798 79.2026 57.5843C79.2026 57.4886 79.2404 57.3968 79.3076 57.3291C79.3748 57.2614 79.466 57.2234 79.561 57.2234H82.8986C82.993 57.2244 83.0832 57.2628 83.1497 57.3304C83.2161 57.398 83.2533 57.4893 83.2533 57.5843C83.2528 57.6791 83.2154 57.7699 83.149 57.8371C83.0826 57.9042 82.9927 57.9424 82.8986 57.9434Z" fill="white"/>
<path d="M82.8987 58.0375H79.5611C79.4994 58.0415 79.4376 58.0327 79.3795 58.0117C79.3214 57.9907 79.2681 57.9579 79.2231 57.9153C79.178 57.8728 79.1421 57.8214 79.1175 57.7643C79.093 57.7072 79.0803 57.6456 79.0803 57.5834C79.0803 57.5212 79.093 57.4597 79.1175 57.4026C79.1421 57.3455 79.178 57.2941 79.2231 57.2516C79.2681 57.209 79.3214 57.1762 79.3795 57.1552C79.4376 57.1342 79.4994 57.1254 79.5611 57.1294H82.8987C82.9603 57.1254 83.0221 57.1342 83.0803 57.1552C83.1384 57.1762 83.1916 57.209 83.2367 57.2516C83.2817 57.2941 83.3177 57.3455 83.3422 57.4026C83.3668 57.4597 83.3794 57.5212 83.3794 57.5834C83.3794 57.6456 83.3668 57.7072 83.3422 57.7643C83.3177 57.8214 83.2817 57.8728 83.2367 57.9153C83.1916 57.9579 83.1384 57.9907 83.0803 58.0117C83.0221 58.0327 82.9603 58.0415 82.8987 58.0375ZM79.5611 57.3174C79.5245 57.3143 79.4877 57.3189 79.453 57.3309C79.4183 57.3428 79.3865 57.3619 79.3595 57.3869C79.3324 57.4119 79.3109 57.4423 79.2961 57.4761C79.2814 57.51 79.2738 57.5465 79.2738 57.5834C79.2738 57.6204 79.2814 57.6569 79.2961 57.6908C79.3109 57.7246 79.3324 57.755 79.3595 57.78C79.3865 57.805 79.4183 57.8241 79.453 57.836C79.4877 57.848 79.5245 57.8526 79.5611 57.8495H82.8987C82.9352 57.8526 82.972 57.848 83.0067 57.836C83.0414 57.8241 83.0733 57.805 83.1003 57.78C83.1273 57.755 83.1489 57.7246 83.1636 57.6908C83.1784 57.6569 83.186 57.6204 83.186 57.5834C83.186 57.5465 83.1784 57.51 83.1636 57.4761C83.1489 57.4423 83.1273 57.4119 83.1003 57.3869C83.0733 57.3619 83.0414 57.3428 83.0067 57.3309C82.972 57.3189 82.9352 57.3143 82.8987 57.3174H79.5611Z" fill="#263238"/>
<path d="M67.6573 63.1135H58.5107L57.4149 63.45C57.3803 63.4601 57.3499 63.4812 57.3283 63.5102C57.3066 63.5392 57.2949 63.5745 57.2949 63.6107C57.2949 63.647 57.3066 63.6823 57.3283 63.7113C57.3499 63.7403 57.3803 63.7614 57.4149 63.7715L58.5051 64.0685H67.6517C67.7465 64.068 67.8371 64.0298 67.9039 63.9621C67.9708 63.8945 68.0083 63.803 68.0083 63.7075V63.4725C68.0083 63.3783 67.9715 63.2878 67.9058 63.2206C67.8402 63.1534 67.7509 63.1149 67.6573 63.1135Z" fill="white"/>
<path d="M67.6573 64.1625H58.4882L57.3981 63.8654C57.3438 63.8503 57.2959 63.8176 57.2618 63.7725C57.2277 63.7273 57.2092 63.6721 57.2092 63.6154C57.2092 63.5586 57.2277 63.5035 57.2618 63.4583C57.2959 63.4131 57.3438 63.3805 57.3981 63.3653L58.5181 63.0232H67.6648C67.7239 63.0232 67.7824 63.0349 67.8369 63.0577C67.8915 63.0804 67.9411 63.1138 67.9829 63.1559C68.0247 63.198 68.0578 63.2479 68.0804 63.3029C68.103 63.3579 68.1147 63.4168 68.1147 63.4763V63.7113C68.1142 63.7712 68.1019 63.8304 68.0787 63.8855C68.0554 63.9407 68.0215 63.9906 67.979 64.0326C67.9366 64.0745 67.8863 64.1075 67.8311 64.1298C67.7758 64.1521 67.7168 64.1632 67.6573 64.1625ZM58.5256 63.9745H67.6573C67.7273 63.974 67.7942 63.9456 67.8435 63.8956C67.8928 63.8456 67.9205 63.778 67.9205 63.7075V63.4725C67.9205 63.4022 67.8928 63.3348 67.8434 63.2851C67.7941 63.2354 67.7271 63.2074 67.6573 63.2074H58.5275L57.4448 63.5402C57.4293 63.5441 57.4158 63.5535 57.4066 63.5666C57.3973 63.5797 57.393 63.5956 57.3944 63.6116C57.3939 63.6275 57.3988 63.643 57.4083 63.6557C57.4179 63.6683 57.4314 63.6773 57.4467 63.6812L58.5256 63.9745Z" fill="#263238"/>
<path d="M30.0664 59.4268H37.9829C37.9829 59.4268 37.4379 60.1487 37.1205 60.1487H35.8493L35.28 60.8668C35.1604 61.0174 35.0087 61.139 34.8362 61.2226C34.6636 61.3062 34.4747 61.3498 34.2832 61.35H32.9467C32.6989 61.3496 32.4565 61.2765 32.2493 61.1396C32.0421 61.0027 31.8791 60.808 31.78 60.5792L31.5579 60.0678H31.1211C30.9396 60.0688 30.7604 60.0266 30.5982 59.9446C30.4361 59.8626 30.2954 59.7431 30.1877 59.596L30.0664 59.4268Z" fill="white"/>
<path d="M34.2812 61.444H32.9446C32.6786 61.4437 32.4185 61.3652 32.196 61.2183C31.9735 61.0714 31.7984 60.8624 31.6921 60.6168L31.4942 60.16H31.1209C30.9257 60.1596 30.7333 60.1133 30.5589 60.0249C30.3846 59.9364 30.2331 59.8082 30.1166 59.6505L29.8833 59.3309H38.1732L38.0593 59.4832C38.0014 59.5602 37.4769 60.2352 37.126 60.2352H35.8996L35.3564 60.9195C35.2282 61.0831 35.0648 61.2153 34.8786 61.3062C34.6924 61.397 34.4881 61.4441 34.2812 61.444ZM30.251 59.5208L30.266 59.5414C30.365 59.6754 30.4936 59.7842 30.6417 59.8592C30.7898 59.9343 30.9532 59.9735 31.119 59.9738H31.6174L31.8638 60.5378C31.9554 60.7499 32.1064 60.9305 32.2984 61.0574C32.4904 61.1843 32.715 61.252 32.9446 61.2522H34.2812C34.4587 61.2526 34.634 61.2126 34.794 61.1351C34.954 61.0576 35.0946 60.9447 35.2052 60.8048L35.8044 60.0528H37.1204C37.2828 60.0528 37.5777 59.767 37.7886 59.5189L30.251 59.5208Z" fill="#263238"/>
<path d="M32.1272 59.972H35.0317C35.0317 59.972 34.832 60.724 34.4306 60.88C34.0293 61.0361 32.6293 60.88 32.6293 60.88C32.4652 60.7963 32.3298 60.6652 32.2403 60.5034C32.1508 60.3416 32.1114 60.1565 32.1272 59.972Z" fill="#263238"/>
<path d="M33.7865 61.0473C33.262 61.0473 32.6665 60.9853 32.6273 60.9815L32.5993 60.9721C32.4178 60.8804 32.2676 60.7363 32.1678 60.5581C32.068 60.3799 32.0233 60.1759 32.0393 59.972V59.8855H35.151L35.1212 60.0039C35.1212 60.0359 34.9028 60.8086 34.4622 60.9759C34.2417 61.0331 34.014 61.0572 33.7865 61.0473ZM32.6665 60.7954C33.0641 60.8368 34.102 60.9157 34.41 60.7954C34.6545 60.7033 34.8337 60.3104 34.9177 60.0697H32.2185C32.2202 60.219 32.2617 60.365 32.3385 60.4927C32.4153 60.6203 32.5247 60.7248 32.6553 60.7954H32.6665Z" fill="#263238"/>
<path d="M49.1342 74.072C43.0937 74.5382 39.4929 73.132 30.0849 73.132C25.1942 73.132 22.7526 73.696 21.5337 74.2468C21.7046 74.5653 21.9641 74.8267 22.2804 74.9988H53.0804C53.3416 74.8508 53.5645 74.643 53.7312 74.3922C53.8979 74.1414 54.0036 73.8546 54.0398 73.555C52.8638 73.7204 51.2697 73.9009 49.1342 74.072Z" fill="white"/>
<path d="M53.1029 75.0947H22.2488L22.2264 75.0834C21.8978 74.8995 21.6288 74.6241 21.4517 74.2901L21.405 74.1998L21.4965 74.1603C22.6389 73.6471 25.0562 73.0323 30.0832 73.0323C33.6087 73.0383 37.1311 73.2448 40.6336 73.6509C43.5269 73.9498 46.0264 74.2149 49.125 73.9686C50.9917 73.8238 52.6437 73.6527 54.0232 73.4591L54.1464 73.4422L54.1296 73.5663C54.0912 73.8802 53.9801 74.1807 53.8054 74.4436C53.6306 74.7064 53.397 74.9243 53.1234 75.0797L53.1029 75.0947ZM22.3029 74.9067H53.0544C53.2795 74.7756 53.4738 74.597 53.6239 74.3831C53.7741 74.1693 53.8765 73.9253 53.9242 73.6678C52.5672 73.8558 50.9581 74.0175 49.1418 74.1585C46.0245 74.401 43.5194 74.1415 40.6168 73.8407C37.1204 73.4365 33.6043 73.2306 30.085 73.2241C25.2317 73.2241 22.8293 73.7881 21.6664 74.2901C21.8208 74.5466 22.038 74.759 22.2973 74.9067H22.3029Z" fill="#263238"/>
<path d="M65.0681 74.7206C65.0681 74.6172 65.0681 74.5157 65.0551 74.416C63.9911 74.0193 62.6284 73.805 61.7249 74.7206C60.9428 75.5083 59.7108 75.9275 58.6113 76.1513C59.0967 77.6177 60.3063 78.6611 61.7249 78.6611C63.5711 78.6611 65.0681 76.892 65.0681 74.7206Z" fill="#263238"/>
<path d="M61.7249 78.755C60.2969 78.755 59.0407 77.7436 58.5236 76.1794L58.49 76.0798L58.5927 76.0591C59.9815 75.7752 61.0193 75.3071 61.6577 74.6548C62.4193 73.8877 63.6047 73.7749 65.0868 74.3276L65.1428 74.3483V74.4085C65.1428 74.5119 65.1559 74.6153 65.1559 74.7206C65.1615 76.9446 63.6196 78.755 61.7249 78.755ZM58.7383 76.2208C59.2497 77.6496 60.4183 78.567 61.7249 78.567C63.5169 78.567 64.9748 76.8412 64.9748 74.7206C64.9748 74.6397 64.9748 74.5608 64.9655 74.4837C63.9873 74.1284 62.6639 73.9065 61.7921 74.7864C61.1351 75.4462 60.1065 75.9294 58.7345 76.2208H58.7383Z" fill="#263238"/>
<path d="M105.17 75.1003C103.843 74.2355 101.907 74.2581 100.705 75.4763C100.203 75.9993 99.5311 76.3224 98.812 76.3862C99.344 77.7323 100.492 78.6686 101.843 78.6686C103.579 78.661 105.007 77.0988 105.17 75.1003Z" fill="#263238"/>
<path d="M101.843 78.755C100.511 78.755 99.288 77.8357 98.7261 76.4125L98.6794 76.296L98.8045 76.2847C99.5016 76.223 100.153 75.9099 100.639 75.403C101.797 74.2374 103.766 74.0738 105.22 75.027L105.267 75.0589V75.1135C105.093 77.1871 103.622 78.755 101.843 78.755ZM98.9464 76.4577C99.5064 77.7436 100.626 78.567 101.843 78.567C103.509 78.567 104.89 77.1006 105.071 75.1492C103.695 74.2806 101.855 74.4423 100.778 75.5365C100.289 76.0447 99.6432 76.3697 98.9464 76.4577Z" fill="#263238"/>
</svg>
