<svg width="194" height="169" viewBox="0 0 194 169" fill="none" xmlns="http://www.w3.org/2000/svg">
<path d="M72.9156 166.183C84.6878 173.786 106.807 164.55 115.223 155.877C142.585 127.665 190.985 80.0211 181.622 30.3596C177.633 9.25291 156.591 2.78492 148.139 1.44559C127.787 -1.77616 106.995 0.845337 86.8071 4.81841C65.7249 8.96708 43.5238 15.1451 27.2232 29.8941C21.0492 35.4842 15.5408 42.0624 12.5722 49.931C9.57502 57.9221 8.89719 66.738 10.1753 75.1537C12.2659 88.7226 19.0892 101.177 27.4641 112.055C35.839 122.933 45.8064 132.471 55.2307 142.439C61.421 148.944 63.0013 159.781 72.9156 166.183Z" fill="#67B18A"/>
<path opacity="0.7" d="M72.9156 166.183C84.6878 173.786 106.807 164.55 115.223 155.877C142.585 127.665 190.985 80.0211 181.622 30.3596C177.633 9.25291 156.591 2.78492 148.139 1.44559C127.787 -1.77616 106.995 0.845337 86.8071 4.81841C65.7249 8.96708 43.5238 15.1451 27.2232 29.8941C21.0492 35.4842 15.5408 42.0624 12.5722 49.931C9.57502 57.9221 8.89719 66.738 10.1753 75.1537C12.2659 88.7226 19.0892 101.177 27.4641 112.055C35.839 122.933 45.8064 132.471 55.2307 142.439C61.421 148.944 63.0013 159.781 72.9156 166.183Z" fill="white"/>
<path d="M30.5391 54.7454L28.9385 54.6066C28.8031 54.1165 28.6084 53.6448 28.3586 53.2019L29.8776 51.3971L27.6563 49.1758M29.8776 61.3645L28.3586 59.5597C28.6084 59.1154 28.8031 58.6423 28.9385 58.1509L31.2905 57.9508V54.8108M25.8433 62.0668L27.644 63.5817L29.1549 62.0709M16.3945 58.1509C16.5316 58.6417 16.7262 59.1146 16.9743 59.5597L15.4594 61.3645L17.6766 63.5817L19.4815 62.0668C19.9266 62.3149 20.3995 62.5095 20.8902 62.6467L21.0903 64.9987H24.2304L24.4346 62.6467M16.3781 50.4906L15.4594 51.4134L16.9743 53.2183C16.7263 53.662 16.5316 54.1335 16.3945 54.6229L14.0425 54.8271V57.9672L15.4594 58.106M25.8433 50.6948C25.3978 50.4474 24.9251 50.2528 24.4346 50.1149L24.2304 47.7629H21.0903L20.8902 50.1149C20.3995 50.2521 19.9266 50.4467 19.4815 50.6948L17.6766 49.1758L16.9702 49.8822M20.1552 53.7287C20.5831 53.3241 21.1025 53.0291 21.6692 52.8687C22.2358 52.7084 22.8328 52.6875 23.4092 52.8078C23.9857 52.9282 24.5244 53.1862 24.9796 53.5598C25.4347 53.9335 25.7927 54.4117 26.023 54.9537M21.4006 59.8047C20.7006 59.5459 20.0967 59.0787 19.6703 58.4662C19.244 57.8536 19.0156 57.1251 19.016 56.3788M26.3088 56.3788C26.3088 57.3458 25.9246 58.2733 25.2408 58.9572C24.557 59.641 23.6295 60.0252 22.6624 60.0252" stroke="#263238" stroke-linecap="round" stroke-linejoin="round"/>
<path d="M172.231 13.8223L169.691 13.6018C169.474 12.8231 169.164 12.0732 168.768 11.3682L171.177 8.50985L167.653 4.98594M171.177 24.3246L168.768 21.4663C169.164 20.7612 169.474 20.0113 169.691 19.2327L173.419 18.9101V13.9243M164.795 25.4352L167.653 27.8444L170.05 25.4475M160.095 30.0739H162.214L162.537 26.3458M149.773 7.04394L148.311 8.50577L150.72 11.3641C150.317 12.0701 149.999 12.8212 149.773 13.6018L146.044 13.9243M164.766 7.39102C164.059 6.9978 163.308 6.68812 162.529 6.46819L162.206 2.74011H157.237L156.914 6.46819C156.133 6.68679 155.381 6.99653 154.673 7.39102L151.814 4.98186L150.695 6.10069M155.746 12.2257C156.423 11.5809 157.246 11.1098 158.144 10.8526C159.043 10.5954 159.99 10.5598 160.905 10.7489C161.82 10.9379 162.676 11.346 163.399 11.9382C164.122 12.5303 164.691 13.2889 165.056 14.1489M165.514 16.3988C165.514 17.9338 164.904 19.4059 163.819 20.4917C162.734 21.5774 161.263 22.1879 159.728 22.189" stroke="#263238" stroke-linecap="round" stroke-linejoin="round"/>
<g opacity="0.3">
<path d="M151.083 130.524C150.956 130.28 150.783 130.064 150.573 129.888C150.362 129.713 150.119 129.58 149.858 129.499L124.133 121.369C123.863 121.285 123.579 121.257 123.298 121.287C123.017 121.317 122.745 121.405 122.499 121.544L121.274 121.165C121.301 121.01 121.269 120.851 121.184 120.72C121.098 120.589 120.966 120.494 120.814 120.456C120.662 120.418 120.502 120.438 120.364 120.514C120.227 120.589 120.123 120.714 120.074 120.862L119.931 121.303L98.5425 114.541C98.5089 114.533 98.4739 114.533 98.4404 114.541L97.0684 114.819C97.0323 114.826 96.9987 114.842 96.9713 114.867C96.944 114.891 96.9239 114.923 96.9132 114.958C96.9028 114.992 96.9015 115.029 96.9094 115.064C96.9172 115.099 96.934 115.131 96.9581 115.158L97.9218 116.175C97.9467 116.2 97.9776 116.218 98.0116 116.228L119.4 122.99L119.261 123.431C119.236 123.509 119.227 123.59 119.234 123.672C119.241 123.753 119.264 123.832 119.302 123.904C119.378 124.05 119.509 124.16 119.666 124.211C119.743 124.236 119.825 124.245 119.906 124.238C119.988 124.231 120.067 124.208 120.139 124.17C120.262 124.108 120.361 124.006 120.417 123.88L121.642 124.26C121.763 124.519 121.937 124.749 122.152 124.938C122.367 125.126 122.619 125.268 122.891 125.354L148.616 133.484C148.878 133.567 149.153 133.597 149.427 133.574C149.7 133.55 149.967 133.473 150.21 133.346C150.454 133.219 150.67 133.046 150.846 132.835C151.022 132.625 151.156 132.382 151.238 132.12C151.319 131.857 151.347 131.58 151.32 131.306C151.294 131.032 151.213 130.766 151.083 130.524Z" fill="black"/>
<path d="M66.5093 125.86L65.2149 125.452C65.2244 125.403 65.216 125.353 65.1912 125.31C65.1664 125.268 65.127 125.235 65.0801 125.219L63.3406 124.68C63.2886 124.665 63.2327 124.67 63.1846 124.695C63.1366 124.721 63.1003 124.763 63.0834 124.815L62.6138 126.338C62.5985 126.39 62.604 126.445 62.6292 126.492C62.6544 126.54 62.6973 126.575 62.7485 126.591L64.488 127.13H64.5493C64.5884 127.13 64.6266 127.118 64.6591 127.096C64.6917 127.074 64.7174 127.044 64.733 127.008L66.0274 127.416C66.1746 127.463 66.2974 127.566 66.3692 127.703C66.441 127.84 66.4561 127.999 66.4113 128.147L62.7363 139.968C62.7252 140.006 62.7251 140.047 62.7359 140.085C62.7467 140.123 62.7681 140.158 62.7975 140.185L62.43 141.377C62.41 141.427 62.41 141.482 62.43 141.532C62.4562 141.578 62.4983 141.613 62.5484 141.63L63.4876 141.92C63.5064 141.924 63.526 141.924 63.5448 141.92C63.5884 141.92 63.631 141.907 63.6663 141.881C63.7016 141.855 63.7277 141.819 63.7408 141.777L64.1124 140.581C64.1351 140.587 64.159 140.587 64.1818 140.581C64.2055 140.569 64.2266 140.552 64.2434 140.532C64.2603 140.512 64.2727 140.488 64.2798 140.462L67.9548 128.621C68.1261 128.059 68.0686 127.453 67.7948 126.933C67.521 126.414 67.053 126.024 66.4929 125.848L66.5093 125.86Z" fill="black"/>
<path d="M54.8268 134.672C54.8557 134.637 54.8703 134.592 54.8676 134.546C54.8677 134.519 54.8619 134.492 54.8506 134.467C54.8393 134.442 54.8228 134.42 54.8023 134.403L53.4507 133.178C53.431 133.16 53.4078 133.145 53.3826 133.136C53.3573 133.127 53.3305 133.123 53.3037 133.125C53.249 133.129 53.1979 133.154 53.1608 133.194L52.095 134.374C52.0759 134.393 52.0607 134.416 52.0503 134.441C52.04 134.466 52.0346 134.492 52.0346 134.519C52.0346 134.546 52.04 134.573 52.0503 134.598C52.0607 134.623 52.0759 134.645 52.095 134.664L53.4425 135.889C53.4814 135.922 53.5304 135.941 53.5813 135.942C53.6287 135.941 53.6739 135.922 53.7079 135.889L54.7124 136.796C54.8278 136.901 54.8968 137.048 54.9043 137.204C54.9098 137.355 54.8555 137.501 54.7533 137.612L46.46 146.796C46.4333 146.825 46.416 146.862 46.4101 146.901C46.4043 146.94 46.4103 146.98 46.4274 147.016L45.6107 147.943C45.5916 147.962 45.5764 147.985 45.566 148.01C45.5556 148.034 45.5503 148.061 45.5503 148.088C45.5503 148.115 45.5556 148.142 45.566 148.167C45.5764 148.191 45.5916 148.214 45.6107 148.233L46.3375 148.886C46.3744 148.92 46.4224 148.939 46.4723 148.939C46.5013 148.94 46.53 148.934 46.5567 148.923C46.5835 148.912 46.6075 148.895 46.6274 148.874L47.4441 147.947C47.4657 147.951 47.4878 147.951 47.5094 147.947C47.5629 147.943 47.6127 147.918 47.6483 147.878L55.9415 138.694C56.3347 138.257 56.5388 137.683 56.5089 137.095C56.4791 136.508 56.2178 135.957 55.7823 135.562L54.8268 134.672Z" fill="black"/>
<path d="M123.006 139.18L119.376 140.152L118.294 139.066L118.702 137.588L122.332 136.62C122.364 136.611 122.394 136.593 122.418 136.57C122.442 136.546 122.46 136.517 122.471 136.485C122.483 136.454 122.486 136.421 122.481 136.388C122.476 136.355 122.463 136.324 122.442 136.297C121.993 135.711 121.396 135.254 120.712 134.974C120.028 134.694 119.282 134.6 118.55 134.702C117.818 134.804 117.127 135.099 116.546 135.555C115.965 136.012 115.515 136.615 115.244 137.302L80.5352 146.583C79.985 146.192 79.3427 145.949 78.6709 145.879C77.999 145.808 77.3204 145.913 76.7011 146.183C76.0817 146.453 75.5427 146.878 75.1362 147.417C74.7298 147.957 74.4699 148.592 74.3817 149.262C74.3773 149.295 74.3811 149.329 74.3927 149.36C74.4044 149.391 74.4236 149.419 74.4486 149.442C74.4736 149.464 74.5036 149.479 74.5361 149.487C74.5686 149.495 74.6025 149.495 74.6348 149.487L78.0158 148.58L79.0162 149.581L78.6487 150.944L75.2677 151.851C75.2354 151.86 75.2057 151.877 75.1814 151.9C75.1571 151.923 75.1389 151.952 75.1284 151.984C75.1179 152.016 75.1154 152.05 75.1212 152.083C75.127 152.116 75.1409 152.147 75.1616 152.173C75.5265 152.649 75.9958 153.033 76.5332 153.298C77.0706 153.563 77.6617 153.701 78.2608 153.701C78.6053 153.701 78.9485 153.658 79.2816 153.57C79.839 153.421 80.3564 153.15 80.7969 152.777C81.2373 152.404 81.59 151.939 81.8296 151.414L116.513 142.133C116.672 142.258 116.838 142.372 117.012 142.476C117.607 142.819 118.278 143.01 118.966 143.033C119.653 143.055 120.335 142.908 120.952 142.605C121.569 142.301 122.102 141.851 122.503 141.293C122.905 140.735 123.163 140.086 123.255 139.405C123.259 139.372 123.256 139.338 123.244 139.307C123.233 139.276 123.214 139.248 123.19 139.225C123.165 139.204 123.135 139.189 123.103 139.181C123.071 139.173 123.038 139.173 123.006 139.18Z" fill="black"/>
</g>
<path d="M126.432 122.741L126.024 124.035L98.0813 115.199L97.1177 114.186L98.4897 113.908L126.432 122.741Z" fill="#999999" stroke="#263238" stroke-linecap="round" stroke-linejoin="round"/>
<path d="M122.52 120.94L121.034 120.47L121.071 120.348C121.104 120.242 121.094 120.128 121.043 120.029C120.993 119.931 120.905 119.857 120.799 119.823C120.693 119.79 120.579 119.799 120.48 119.85C120.382 119.901 120.308 119.989 120.274 120.095L119.458 122.659C119.424 122.767 119.435 122.885 119.488 122.985C119.541 123.085 119.631 123.16 119.739 123.194C119.848 123.228 119.965 123.217 120.065 123.164C120.166 123.111 120.241 123.021 120.274 122.912L120.311 122.79L121.797 123.259C121.902 123.511 122.061 123.738 122.262 123.922C122.462 124.107 122.701 124.246 122.961 124.329L148.686 132.455C149.163 132.606 149.679 132.561 150.123 132.33C150.566 132.1 150.9 131.702 151.05 131.226C151.201 130.749 151.156 130.233 150.925 129.789C150.695 129.346 150.298 129.012 149.821 128.862L124.096 120.732C123.834 120.649 123.557 120.625 123.285 120.661C123.013 120.697 122.752 120.792 122.52 120.94Z" fill="#67B18A" stroke="#263238" stroke-linecap="round" stroke-linejoin="round"/>
<path d="M122.52 120.94L121.997 122.594" stroke="#263238" stroke-linecap="round" stroke-linejoin="round"/>
<path d="M120.299 122.79L120.772 121.295" stroke="#263238" stroke-linecap="round" stroke-linejoin="round"/>
<path d="M63.1176 139.097L62.6445 140.627L63.5808 140.916L64.0538 139.387L63.1176 139.097Z" fill="#999999" stroke="#263238" stroke-linecap="round" stroke-linejoin="round"/>
<path d="M64.1202 139.58L62.9482 139.217L66.6232 127.375C66.6844 127.176 66.6637 126.96 66.5657 126.775C66.4676 126.591 66.3004 126.452 66.1006 126.391L63.4709 125.575L63.8343 124.407L66.464 125.223C66.7166 125.302 66.9513 125.429 67.1547 125.598C67.3581 125.767 67.5262 125.974 67.6495 126.208C67.7727 126.442 67.8487 126.698 67.873 126.961C67.8972 127.225 67.8694 127.49 67.7911 127.743L64.1202 139.58Z" fill="#999999" stroke="#263238" stroke-linecap="round" stroke-linejoin="round"/>
<path d="M63.2773 124.073L62.8066 125.595L64.5464 126.133L65.0171 124.612L63.2773 124.073Z" fill="#999999" stroke="#263238" stroke-linecap="round" stroke-linejoin="round"/>
<path d="M46.8364 146.081L45.7637 147.269L46.491 147.926L47.5637 146.738L46.8364 146.081Z" fill="#999999" stroke="#263238" stroke-linecap="round" stroke-linejoin="round"/>
<path d="M47.5458 146.943L46.6353 146.126L54.9285 136.939C54.998 136.862 55.0516 136.773 55.0864 136.675C55.1211 136.578 55.1362 136.475 55.1309 136.371C55.1256 136.268 55.1 136.167 55.0554 136.074C55.0108 135.98 54.9483 135.897 54.8713 135.828L52.8297 133.982L53.6463 133.072L55.688 134.917C55.8866 135.095 56.048 135.309 56.163 135.549C56.278 135.79 56.3443 136.05 56.358 136.316C56.3716 136.582 56.3324 136.848 56.2427 137.098C56.1529 137.349 56.0143 137.579 55.835 137.776L47.5458 146.943Z" fill="#999999" stroke="#263238" stroke-linecap="round" stroke-linejoin="round"/>
<path d="M53.3124 132.52L52.2451 133.702L53.5968 134.922L54.664 133.74L53.3124 132.52Z" fill="#999999" stroke="#263238" stroke-linecap="round" stroke-linejoin="round"/>
<path d="M116.687 136.315L79.1309 146.364L80.3172 150.798L117.873 140.749L116.687 136.315Z" fill="#67B18A" stroke="#263238" stroke-linecap="round" stroke-linejoin="round"/>
<path d="M77.3095 145.375C76.6007 145.564 75.9638 145.959 75.4791 146.51C74.9944 147.061 74.6836 147.743 74.5859 148.47L78.0813 147.535L79.245 148.703L78.8367 150.295L75.3414 151.23C75.7515 151.763 76.2987 152.175 76.9245 152.422C77.5504 152.668 78.2314 152.74 78.8949 152.63C79.5585 152.52 80.1797 152.232 80.6923 151.796C81.2049 151.36 81.5896 150.794 81.8055 150.157C82.0214 149.52 82.0604 148.836 81.9182 148.179C81.776 147.521 81.458 146.915 80.9982 146.424C80.5384 145.933 79.9539 145.576 79.3072 145.391C78.6604 145.207 77.9756 145.201 77.3259 145.375H77.3095Z" fill="#67B18A" stroke="#263238" stroke-linecap="round" stroke-linejoin="round"/>
<path d="M120.139 141.879C120.899 141.676 121.582 141.252 122.102 140.661C122.621 140.071 122.954 139.339 123.059 138.559L119.314 139.56L118.069 138.31L118.526 136.608L122.267 135.603C121.827 135.032 121.241 134.592 120.57 134.328C119.9 134.064 119.17 133.987 118.46 134.105C117.749 134.223 117.084 134.532 116.535 134.999C115.985 135.465 115.573 136.072 115.342 136.755C115.111 137.437 115.069 138.169 115.221 138.873C115.373 139.578 115.714 140.227 116.206 140.753C116.698 141.279 117.324 141.662 118.017 141.86C118.71 142.058 119.443 142.065 120.139 141.879Z" fill="#67B18A" stroke="#263238" stroke-linecap="round" stroke-linejoin="round"/>
<path d="M111.319 141.055L86.6968 147.645C86.5818 147.676 86.4617 147.685 86.3434 147.669C86.2251 147.654 86.1111 147.616 86.0078 147.556C85.9045 147.496 85.8141 147.417 85.7417 147.322C85.6693 147.227 85.6164 147.119 85.5861 147.004C85.525 146.772 85.5581 146.526 85.6783 146.318C85.7984 146.111 85.9958 145.96 86.2272 145.897L110.854 139.307C111.085 139.246 111.332 139.279 111.539 139.399C111.747 139.519 111.898 139.716 111.96 139.948C112.021 140.18 111.988 140.426 111.868 140.634C111.748 140.841 111.551 140.992 111.319 141.055Z" fill="#999999" stroke="#263238" stroke-linecap="round" stroke-linejoin="round"/>
<path d="M133.246 15.8108H138.832C138.941 15.8108 139.045 15.8538 139.121 15.9304C139.198 16.007 139.241 16.1108 139.241 16.2191V18.5752H132.846V16.215C132.847 16.1089 132.89 16.0072 132.964 15.9318C133.039 15.8563 133.14 15.8129 133.246 15.8108Z" fill="#BFBFBF" stroke="#263238" stroke-linecap="round" stroke-linejoin="round"/>
<path d="M140.853 15.8108H146.439C146.548 15.8108 146.652 15.8538 146.728 15.9304C146.805 16.007 146.848 16.1108 146.848 16.2191V18.5752H140.449V16.215C140.45 16.1082 140.493 16.006 140.569 15.9304C140.644 15.8548 140.747 15.8119 140.853 15.8108Z" fill="#BFBFBF" stroke="#263238" stroke-linecap="round" stroke-linejoin="round"/>
<path d="M45.2993 15.8108H57.488C57.5963 15.8108 57.7002 15.8538 57.7767 15.9304C57.8533 16.007 57.8963 16.1108 57.8963 16.2191V18.5752H44.895V16.215C44.8961 16.1082 44.939 16.006 45.0146 15.9304C45.0902 15.8548 45.1924 15.8119 45.2993 15.8108Z" fill="#BFBFBF" stroke="#263238" stroke-linecap="round" stroke-linejoin="round"/>
<path d="M158.469 98.4982V24.9208C158.469 20.2368 154.672 16.4397 149.988 16.4397L41.8898 16.4397C37.2058 16.4397 33.4087 20.2368 33.4087 24.9208V98.4982C33.4087 103.182 37.2058 106.979 41.8898 106.979L149.988 106.979C154.672 106.979 158.469 103.182 158.469 98.4982Z" fill="#BFBFBF" stroke="#263238" stroke-linecap="round" stroke-linejoin="round"/>
<path d="M150.265 17.391H41.6203C37.6129 17.391 34.3643 20.6396 34.3643 24.6471V98.7758C34.3643 102.783 37.6129 106.032 41.6203 106.032H150.265C154.273 106.032 157.521 102.783 157.521 98.7758V24.6471C157.521 20.6396 154.273 17.391 150.265 17.391Z" fill="#263238"/>
<path d="M36.1853 58.4039C36.1853 58.4847 36.1614 58.5636 36.1165 58.6308C36.0716 58.6979 36.0079 58.7503 35.9332 58.7812C35.8586 58.8121 35.7765 58.8202 35.6973 58.8044C35.6181 58.7887 35.5454 58.7498 35.4883 58.6927C35.4311 58.6356 35.3923 58.5628 35.3765 58.4836C35.3607 58.4044 35.3688 58.3223 35.3997 58.2477C35.4306 58.1731 35.483 58.1093 35.5501 58.0644C35.6173 58.0195 35.6962 57.9956 35.777 57.9956C35.8853 57.9956 35.9891 58.0386 36.0657 58.1152C36.1423 58.1918 36.1853 58.2956 36.1853 58.4039Z" fill="white" stroke="#263238" stroke-linecap="round" stroke-linejoin="round"/>
<path d="M36.5699 62.2096C36.5699 62.3711 36.522 62.529 36.4322 62.6633C36.3425 62.7976 36.2149 62.9023 36.0657 62.9641C35.9165 63.0259 35.7523 63.0421 35.5939 63.0106C35.4355 62.9791 35.2899 62.9013 35.1757 62.7871C35.0615 62.6729 34.9837 62.5274 34.9522 62.3689C34.9207 62.2105 34.9369 62.0463 34.9987 61.8971C35.0605 61.7479 35.1652 61.6203 35.2995 61.5306C35.4338 61.4408 35.5917 61.3929 35.7532 61.3929C35.9698 61.3929 36.1775 61.479 36.3307 61.6321C36.4838 61.7853 36.5699 61.993 36.5699 62.2096Z" fill="white" stroke="#263238" stroke-linecap="round" stroke-linejoin="round"/>
<path d="M36.3529 64.8516C36.3537 64.9672 36.3201 65.0805 36.2565 65.1771C36.1928 65.2736 36.1019 65.3491 35.9953 65.3939C35.8886 65.4388 35.7711 65.4509 35.6576 65.4288C35.544 65.4068 35.4396 65.3515 35.3575 65.27C35.2755 65.1885 35.2194 65.0844 35.1966 64.9711C35.1737 64.8577 35.185 64.7401 35.2291 64.6331C35.2732 64.5262 35.348 64.4348 35.4441 64.3704C35.5402 64.3061 35.6533 64.2717 35.769 64.2717C35.9231 64.2717 36.071 64.3327 36.1804 64.4413C36.2898 64.5499 36.3518 64.6974 36.3529 64.8516Z" fill="white" stroke="#263238" stroke-linecap="round" stroke-linejoin="round"/>
<path d="M154.667 99.5967V23.8264C154.667 21.8487 153.064 20.2454 151.086 20.2454L40.7957 20.2454C38.8179 20.2454 37.2147 21.8487 37.2147 23.8264V99.5967C37.2147 101.574 38.8179 103.178 40.7957 103.178H151.086C153.064 103.178 154.667 101.574 154.667 99.5967Z" fill="white" stroke="#263238" stroke-linecap="round" stroke-linejoin="round"/>
<path opacity="0.3" d="M154.667 99.5967V23.8264C154.667 21.8487 153.064 20.2454 151.086 20.2454L40.7957 20.2454C38.8179 20.2454 37.2147 21.8487 37.2147 23.8264V99.5967C37.2147 101.574 38.8179 103.178 40.7957 103.178H151.086C153.064 103.178 154.667 101.574 154.667 99.5967Z" fill="#67B18A"/>
<path d="M69.1339 37.9057H46.5695C46.4612 37.9057 46.3573 37.8626 46.2807 37.7861C46.2042 37.7095 46.1611 37.6056 46.1611 37.4973C46.1611 37.389 46.2042 37.2852 46.2807 37.2086C46.3573 37.132 46.4612 37.089 46.5695 37.089H69.1339C69.2422 37.089 69.3461 37.132 69.4227 37.2086C69.4992 37.2852 69.5423 37.389 69.5423 37.4973C69.5423 37.6056 69.4992 37.7095 69.4227 37.7861C69.3461 37.8626 69.2422 37.9057 69.1339 37.9057Z" fill="#263238"/>
<path d="M62.523 42.8097H46.5695C46.4612 42.8097 46.3573 42.7667 46.2807 42.6901C46.2042 42.6135 46.1611 42.5097 46.1611 42.4014C46.1611 42.2931 46.2042 42.1892 46.2807 42.1126C46.3573 42.0361 46.4612 41.993 46.5695 41.993H62.523C62.6313 41.993 62.7352 42.0361 62.8118 42.1126C62.8883 42.1892 62.9314 42.2931 62.9314 42.4014C62.9314 42.5097 62.8883 42.6135 62.8118 42.6901C62.7352 42.7667 62.6313 42.8097 62.523 42.8097Z" fill="#263238"/>
<path d="M72.4414 47.7139H46.5695C46.4612 47.7139 46.3573 47.6709 46.2807 47.5943C46.2042 47.5177 46.1611 47.4138 46.1611 47.3055C46.1611 47.1973 46.2042 47.0934 46.2807 47.0168C46.3573 46.9402 46.4612 46.8972 46.5695 46.8972H72.4414C72.5497 46.8972 72.6536 46.9402 72.7302 47.0168C72.8067 47.0934 72.8498 47.1973 72.8498 47.3055C72.8498 47.4138 72.8067 47.5177 72.7302 47.5943C72.6536 47.6709 72.5497 47.7139 72.4414 47.7139Z" fill="#263238"/>
<path d="M69.1339 52.6179H46.5695C46.4612 52.6179 46.3573 52.5749 46.2807 52.4983C46.2042 52.4218 46.1611 52.3179 46.1611 52.2096C46.1611 52.1013 46.2042 51.9974 46.2807 51.9209C46.3573 51.8443 46.4612 51.8013 46.5695 51.8013H69.1339C69.2422 51.8013 69.3461 51.8443 69.4227 51.9209C69.4992 51.9974 69.5423 52.1013 69.5423 52.2096C69.5423 52.3179 69.4992 52.4218 69.4227 52.4983C69.3461 52.5749 69.2422 52.6179 69.1339 52.6179Z" fill="#263238"/>
<path d="M62.523 57.522H46.5695C46.4612 57.522 46.3573 57.479 46.2807 57.4024C46.2042 57.3258 46.1611 57.222 46.1611 57.1137C46.1611 57.0054 46.2042 56.9015 46.2807 56.8249C46.3573 56.7483 46.4612 56.7053 46.5695 56.7053H62.523C62.6313 56.7053 62.7352 56.7483 62.8118 56.8249C62.8883 56.9015 62.9314 57.0054 62.9314 57.1137C62.9314 57.222 62.8883 57.3258 62.8118 57.4024C62.7352 57.479 62.6313 57.522 62.523 57.522Z" fill="#263238"/>
<path opacity="0.2" d="M75.9777 38.5344H80.4122C80.8091 38.5344 81.1309 38.2127 81.1309 37.8158V37.1706C81.1309 36.7737 80.8091 36.4519 80.4122 36.4519H75.9777C75.5808 36.4519 75.259 36.7737 75.259 37.1706V37.8158C75.259 38.2127 75.5808 38.5344 75.9777 38.5344Z" fill="black"/>
<path d="M75.9732 38.5344H76.8756C77.2725 38.5344 77.5942 38.2127 77.5942 37.8158V37.1706C77.5942 36.7737 77.2725 36.4519 76.8756 36.4519H75.9732C75.5762 36.4519 75.2545 36.7737 75.2545 37.1706V37.8158C75.2545 38.2127 75.5762 38.5344 75.9732 38.5344Z" fill="#67B18A" stroke="#263238" stroke-linecap="round" stroke-linejoin="round"/>
<path opacity="0.2" d="M80.4124 41.3562H75.9779C75.581 41.3562 75.2593 41.678 75.2593 42.0749V42.72C75.2593 43.1169 75.581 43.4387 75.9779 43.4387H80.4124C80.8093 43.4387 81.1311 43.1169 81.1311 42.72V42.0749C81.1311 41.678 80.8093 41.3562 80.4124 41.3562Z" fill="black"/>
<path d="M80.416 41.3562H79.5136C79.1167 41.3562 78.7949 41.678 78.7949 42.0749V42.72C78.7949 43.1169 79.1167 43.4387 79.5136 43.4387H80.416C80.8129 43.4387 81.1347 43.1169 81.1347 42.72V42.0749C81.1347 41.678 80.8129 41.3562 80.416 41.3562Z" fill="#999999" stroke="#263238" stroke-linecap="round" stroke-linejoin="round"/>
<path opacity="0.2" d="M80.4124 46.2601H75.9779C75.581 46.2601 75.2593 46.5819 75.2593 46.9788V47.624C75.2593 48.0209 75.581 48.3426 75.9779 48.3426H80.4124C80.8093 48.3426 81.1311 48.0209 81.1311 47.624V46.9788C81.1311 46.5819 80.8093 46.2601 80.4124 46.2601Z" fill="black"/>
<path d="M80.416 46.2601H79.5136C79.1167 46.2601 78.7949 46.5819 78.7949 46.9788V47.624C78.7949 48.0209 79.1167 48.3426 79.5136 48.3426H80.416C80.8129 48.3426 81.1347 48.0209 81.1347 47.624V46.9788C81.1347 46.5819 80.8129 46.2601 80.416 46.2601Z" fill="#999999" stroke="#263238" stroke-linecap="round" stroke-linejoin="round"/>
<path opacity="0.2" d="M75.9777 53.2427H80.4122C80.8091 53.2427 81.1309 52.9209 81.1309 52.524V51.8788C81.1309 51.4819 80.8091 51.1602 80.4122 51.1602H75.9777C75.5808 51.1602 75.259 51.4819 75.259 51.8788V52.524C75.259 52.9209 75.5808 53.2427 75.9777 53.2427Z" fill="black"/>
<path d="M75.9732 53.2427H76.8756C77.2725 53.2427 77.5942 52.9209 77.5942 52.524V51.8788C77.5942 51.4819 77.2725 51.1602 76.8756 51.1602H75.9732C75.5762 51.1602 75.2545 51.4819 75.2545 51.8788V52.524C75.2545 52.9209 75.5762 53.2427 75.9732 53.2427Z" fill="#67B18A" stroke="#263238" stroke-linecap="round" stroke-linejoin="round"/>
<path opacity="0.2" d="M80.4124 56.0684H75.9779C75.581 56.0684 75.2593 56.3901 75.2593 56.787V57.4322C75.2593 57.8291 75.581 58.1509 75.9779 58.1509H80.4124C80.8093 58.1509 81.1311 57.8291 81.1311 57.4322V56.787C81.1311 56.3901 80.8093 56.0684 80.4124 56.0684Z" fill="black"/>
<path d="M80.416 56.0684H79.5136C79.1167 56.0684 78.7949 56.3901 78.7949 56.787V57.4322C78.7949 57.8291 79.1167 58.1509 79.5136 58.1509H80.416C80.8129 58.1509 81.1347 57.8291 81.1347 57.4322V56.787C81.1347 56.3901 80.8129 56.0684 80.416 56.0684Z" fill="#999999" stroke="#263238" stroke-linecap="round" stroke-linejoin="round"/>
<path d="M112.417 42.8097H91.837C91.7287 42.8097 91.6249 42.7667 91.5483 42.6901C91.4717 42.6135 91.4287 42.5097 91.4287 42.4014C91.4287 42.2931 91.4717 42.1892 91.5483 42.1126C91.6249 42.0361 91.7287 41.993 91.837 41.993H112.417C112.525 41.993 112.629 42.0361 112.706 42.1126C112.782 42.1892 112.825 42.2931 112.825 42.4014C112.825 42.5097 112.782 42.6135 112.706 42.6901C112.629 42.7667 112.525 42.8097 112.417 42.8097Z" fill="#263238"/>
<path d="M109.114 37.9057H91.837C91.7287 37.9057 91.6249 37.8626 91.5483 37.7861C91.4717 37.7095 91.4287 37.6056 91.4287 37.4973C91.4287 37.389 91.4717 37.2852 91.5483 37.2086C91.6249 37.132 91.7287 37.089 91.837 37.089H109.114C109.222 37.089 109.326 37.132 109.402 37.2086C109.479 37.2852 109.522 37.389 109.522 37.4973C109.522 37.6056 109.479 37.7095 109.402 37.7861C109.326 37.8626 109.222 37.9057 109.114 37.9057Z" fill="#263238"/>
<path d="M112.417 57.522H91.837C91.7287 57.522 91.6249 57.479 91.5483 57.4024C91.4717 57.3258 91.4287 57.222 91.4287 57.1137C91.4287 57.0054 91.4717 56.9015 91.5483 56.8249C91.6249 56.7483 91.7287 56.7053 91.837 56.7053H112.417C112.525 56.7053 112.629 56.7483 112.706 56.8249C112.782 56.9015 112.825 57.0054 112.825 57.1137C112.825 57.222 112.782 57.3258 112.706 57.4024C112.629 57.479 112.525 57.522 112.417 57.522Z" fill="#263238"/>
<path d="M105.806 52.6179H91.837C91.7287 52.6179 91.6249 52.5749 91.5483 52.4983C91.4717 52.4218 91.4287 52.3179 91.4287 52.2096C91.4287 52.1013 91.4717 51.9974 91.5483 51.9209C91.6249 51.8443 91.7287 51.8013 91.837 51.8013H105.806C105.914 51.8013 106.018 51.8443 106.095 51.9209C106.171 51.9974 106.214 52.1013 106.214 52.2096C106.214 52.3179 106.171 52.4218 106.095 52.4983C106.018 52.5749 105.914 52.6179 105.806 52.6179Z" fill="#263238"/>
<path d="M102.499 47.7139H91.837C91.7287 47.7139 91.6249 47.6709 91.5483 47.5943C91.4717 47.5177 91.4287 47.4138 91.4287 47.3055C91.4287 47.1973 91.4717 47.0934 91.5483 47.0168C91.6249 46.9402 91.7287 46.8972 91.837 46.8972H102.499C102.607 46.8972 102.711 46.9402 102.787 47.0168C102.864 47.0934 102.907 47.1973 102.907 47.3055C102.907 47.4138 102.864 47.5177 102.787 47.5943C102.711 47.6709 102.607 47.7139 102.499 47.7139Z" fill="#263238"/>
<path d="M119.792 36.7623H118.338V38.216H119.792V36.7623Z" fill="#999999" stroke="#263238" stroke-linecap="round" stroke-linejoin="round"/>
<path d="M121.952 36.7623H120.498V38.216H121.952V36.7623Z" fill="#999999" stroke="#263238" stroke-linecap="round" stroke-linejoin="round"/>
<path d="M124.112 36.7623H122.658V38.216H124.112V36.7623Z" fill="#999999" stroke="#263238" stroke-linecap="round" stroke-linejoin="round"/>
<path d="M126.276 36.7623H124.822V38.216H126.276V36.7623Z" fill="#999999" stroke="#263238" stroke-linecap="round" stroke-linejoin="round"/>
<path d="M128.436 36.7623H126.982V38.216H128.436V36.7623Z" fill="#999999" stroke="#263238" stroke-linecap="round" stroke-linejoin="round"/>
<path d="M130.596 36.7623H129.143V38.216H130.596V36.7623Z" fill="#999999" stroke="#263238" stroke-linecap="round" stroke-linejoin="round"/>
<path d="M132.756 36.7623H131.302V38.216H132.756V36.7623Z" fill="#999999" stroke="#263238" stroke-linecap="round" stroke-linejoin="round"/>
<path d="M134.92 36.7623H133.467V38.216H134.92V36.7623Z" fill="#999999" stroke="#263238" stroke-linecap="round" stroke-linejoin="round"/>
<path d="M137.08 36.7623H135.626V38.216H137.08V36.7623Z" fill="#67B18A" stroke="#263238" stroke-linecap="round" stroke-linejoin="round"/>
<path d="M139.241 36.7623H137.787V38.216H139.241V36.7623Z" fill="#67B18A" stroke="#263238" stroke-linecap="round" stroke-linejoin="round"/>
<path opacity="0.2" d="M141.4 36.7623H139.947V38.216H141.4V36.7623Z" fill="#263238"/>
<path opacity="0.2" d="M143.565 36.7623H142.111V38.216H143.565V36.7623Z" fill="#263238"/>
<path opacity="0.2" d="M145.725 36.7623H144.271V38.216H145.725V36.7623Z" fill="#263238"/>
<path d="M119.792 41.6665H118.338V43.1202H119.792V41.6665Z" fill="#999999" stroke="#263238" stroke-linecap="round" stroke-linejoin="round"/>
<path d="M121.952 41.6665H120.498V43.1202H121.952V41.6665Z" fill="#999999" stroke="#263238" stroke-linecap="round" stroke-linejoin="round"/>
<path d="M124.112 41.6665H122.658V43.1202H124.112V41.6665Z" fill="#999999" stroke="#263238" stroke-linecap="round" stroke-linejoin="round"/>
<path d="M126.276 41.6665H124.822V43.1202H126.276V41.6665Z" fill="#999999" stroke="#263238" stroke-linecap="round" stroke-linejoin="round"/>
<path d="M128.436 41.6665H126.982V43.1202H128.436V41.6665Z" fill="#999999" stroke="#263238" stroke-linecap="round" stroke-linejoin="round"/>
<path d="M130.596 41.6665H129.143V43.1202H130.596V41.6665Z" fill="#999999" stroke="#263238" stroke-linecap="round" stroke-linejoin="round"/>
<path d="M132.756 41.6665H131.302V43.1202H132.756V41.6665Z" fill="#999999" stroke="#263238" stroke-linecap="round" stroke-linejoin="round"/>
<path opacity="0.2" d="M134.92 41.6665H133.467V43.1202H134.92V41.6665Z" fill="#263238"/>
<path opacity="0.2" d="M137.08 41.6665H135.626V43.1202H137.08V41.6665Z" fill="#263238"/>
<path opacity="0.2" d="M139.241 41.6665H137.787V43.1202H139.241V41.6665Z" fill="#263238"/>
<path opacity="0.2" d="M141.4 41.6665H139.947V43.1202H141.4V41.6665Z" fill="#263238"/>
<path opacity="0.2" d="M143.565 41.6665H142.111V43.1202H143.565V41.6665Z" fill="#263238"/>
<path opacity="0.2" d="M145.725 41.6665H144.271V43.1202H145.725V41.6665Z" fill="#263238"/>
<path d="M119.792 56.3787H118.338V57.8323H119.792V56.3787Z" fill="#999999" stroke="#263238" stroke-linecap="round" stroke-linejoin="round"/>
<path d="M121.952 56.3787H120.498V57.8323H121.952V56.3787Z" fill="#999999" stroke="#263238" stroke-linecap="round" stroke-linejoin="round"/>
<path d="M124.112 56.3787H122.658V57.8323H124.112V56.3787Z" fill="#999999" stroke="#263238" stroke-linecap="round" stroke-linejoin="round"/>
<path opacity="0.2" d="M126.276 56.3787H124.822V57.8323H126.276V56.3787Z" fill="#263238"/>
<path opacity="0.2" d="M128.436 56.3787H126.982V57.8323H128.436V56.3787Z" fill="#263238"/>
<path opacity="0.2" d="M130.596 56.3787H129.143V57.8323H130.596V56.3787Z" fill="#263238"/>
<path opacity="0.2" d="M132.756 56.3787H131.302V57.8323H132.756V56.3787Z" fill="#263238"/>
<path opacity="0.2" d="M134.92 56.3787H133.467V57.8323H134.92V56.3787Z" fill="#263238"/>
<path opacity="0.2" d="M137.08 56.3787H135.626V57.8323H137.08V56.3787Z" fill="#263238"/>
<path opacity="0.2" d="M139.241 56.3787H137.787V57.8323H139.241V56.3787Z" fill="#263238"/>
<path opacity="0.2" d="M141.4 56.3787H139.947V57.8323H141.4V56.3787Z" fill="#263238"/>
<path opacity="0.2" d="M143.565 56.3787H142.111V57.8323H143.565V56.3787Z" fill="#263238"/>
<path opacity="0.2" d="M145.725 56.3787H144.271V57.8323H145.725V56.3787Z" fill="#263238"/>
<path d="M119.792 51.4746H118.338V52.9283H119.792V51.4746Z" fill="#999999" stroke="#263238" stroke-linecap="round" stroke-linejoin="round"/>
<path d="M121.952 51.4746H120.498V52.9283H121.952V51.4746Z" fill="#999999" stroke="#263238" stroke-linecap="round" stroke-linejoin="round"/>
<path d="M124.112 51.4746H122.658V52.9283H124.112V51.4746Z" fill="#999999" stroke="#263238" stroke-linecap="round" stroke-linejoin="round"/>
<path d="M126.276 51.4746H124.822V52.9283H126.276V51.4746Z" fill="#999999" stroke="#263238" stroke-linecap="round" stroke-linejoin="round"/>
<path d="M128.436 51.4746H126.982V52.9283H128.436V51.4746Z" fill="#999999" stroke="#263238" stroke-linecap="round" stroke-linejoin="round"/>
<path d="M130.596 51.4746H129.143V52.9283H130.596V51.4746Z" fill="#999999" stroke="#263238" stroke-linecap="round" stroke-linejoin="round"/>
<path d="M132.756 51.4746H131.302V52.9283H132.756V51.4746Z" fill="#999999" stroke="#263238" stroke-linecap="round" stroke-linejoin="round"/>
<path d="M134.92 51.4746H133.467V52.9283H134.92V51.4746Z" fill="#999999" stroke="#263238" stroke-linecap="round" stroke-linejoin="round"/>
<path d="M137.08 51.4746H135.626V52.9283H137.08V51.4746Z" fill="#67B18A" stroke="#263238" stroke-linecap="round" stroke-linejoin="round"/>
<path d="M139.241 51.4746H137.787V52.9283H139.241V51.4746Z" fill="#67B18A" stroke="#263238" stroke-linecap="round" stroke-linejoin="round"/>
<path d="M141.4 51.4746H139.947V52.9283H141.4V51.4746Z" fill="#67B18A" stroke="#263238" stroke-linecap="round" stroke-linejoin="round"/>
<path d="M143.565 51.4746H142.111V52.9283H143.565V51.4746Z" fill="#67B18A" stroke="#263238" stroke-linecap="round" stroke-linejoin="round"/>
<path opacity="0.2" d="M145.725 51.4746H144.271V52.9283H145.725V51.4746Z" fill="#263238"/>
<path d="M119.792 46.5704H118.338V48.0241H119.792V46.5704Z" fill="#999999" stroke="#263238" stroke-linecap="round" stroke-linejoin="round"/>
<path d="M121.952 46.5704H120.498V48.0241H121.952V46.5704Z" fill="#999999" stroke="#263238" stroke-linecap="round" stroke-linejoin="round"/>
<path d="M124.112 46.5704H122.658V48.0241H124.112V46.5704Z" fill="#999999" stroke="#263238" stroke-linecap="round" stroke-linejoin="round"/>
<path d="M126.276 46.5704H124.822V48.0241H126.276V46.5704Z" fill="#999999" stroke="#263238" stroke-linecap="round" stroke-linejoin="round"/>
<path d="M128.436 46.5704H126.982V48.0241H128.436V46.5704Z" fill="#999999" stroke="#263238" stroke-linecap="round" stroke-linejoin="round"/>
<path opacity="0.2" d="M130.596 46.5704H129.143V48.0241H130.596V46.5704Z" fill="#263238"/>
<path opacity="0.2" d="M132.756 46.5704H131.302V48.0241H132.756V46.5704Z" fill="#263238"/>
<path opacity="0.2" d="M134.92 46.5704H133.467V48.0241H134.92V46.5704Z" fill="#263238"/>
<path opacity="0.2" d="M137.08 46.5704H135.626V48.0241H137.08V46.5704Z" fill="#263238"/>
<path opacity="0.2" d="M139.241 46.5704H137.787V48.0241H139.241V46.5704Z" fill="#263238"/>
<path opacity="0.2" d="M141.4 46.5704H139.947V48.0241H141.4V46.5704Z" fill="#263238"/>
<path opacity="0.2" d="M143.565 46.5704H142.111V48.0241H143.565V46.5704Z" fill="#263238"/>
<path opacity="0.2" d="M145.725 46.5704H144.271V48.0241H145.725V46.5704Z" fill="#263238"/>
<path opacity="0.4" d="M66.2431 39.0205H46.3655C46.3102 39.0205 46.2573 38.9985 46.2182 38.9595C46.1792 38.9204 46.1572 38.8675 46.1572 38.8122C46.1572 38.7851 46.1626 38.7582 46.1731 38.7332C46.1837 38.7081 46.1991 38.6854 46.2185 38.6664C46.2379 38.6474 46.2608 38.6324 46.2861 38.6224C46.3113 38.6124 46.3383 38.6075 46.3655 38.6081H66.2431C66.2703 38.6075 66.2973 38.6124 66.3225 38.6224C66.3477 38.6324 66.3707 38.6474 66.3901 38.6664C66.4095 38.6854 66.4249 38.7081 66.4354 38.7332C66.446 38.7582 66.4514 38.7851 66.4514 38.8122C66.4514 38.8675 66.4294 38.9204 66.3904 38.9595C66.3513 38.9985 66.2983 39.0205 66.2431 39.0205Z" fill="#263238"/>
<path opacity="0.4" d="M67.5661 43.9244H46.3655C46.3102 43.9244 46.2573 43.9025 46.2182 43.8634C46.1792 43.8244 46.1572 43.7714 46.1572 43.7162C46.1572 43.689 46.1626 43.6621 46.1731 43.6371C46.1837 43.612 46.1991 43.5893 46.2185 43.5703C46.2379 43.5513 46.2608 43.5364 46.2861 43.5264C46.3113 43.5163 46.3383 43.5115 46.3655 43.512H67.5661C67.5933 43.5115 67.6203 43.5163 67.6455 43.5264C67.6707 43.5364 67.6937 43.5513 67.7131 43.5703C67.7325 43.5893 67.7479 43.612 67.7584 43.6371C67.769 43.6621 67.7744 43.689 67.7744 43.7162C67.7744 43.7714 67.7524 43.8244 67.7134 43.8634C67.6743 43.9025 67.6213 43.9244 67.5661 43.9244Z" fill="#263238"/>
<path opacity="0.4" d="M54.3402 48.8286H46.3655C46.3102 48.8286 46.2573 48.8067 46.2182 48.7676C46.1792 48.7285 46.1572 48.6756 46.1572 48.6203C46.1572 48.5932 46.1626 48.5663 46.1731 48.5413C46.1837 48.5162 46.1991 48.4935 46.2185 48.4745C46.2379 48.4555 46.2608 48.4406 46.2861 48.4305C46.3113 48.4205 46.3383 48.4156 46.3655 48.4162H54.3402C54.3674 48.4156 54.3944 48.4205 54.4196 48.4305C54.4448 48.4406 54.4678 48.4555 54.4872 48.4745C54.5066 48.4935 54.522 48.5162 54.5325 48.5413C54.5431 48.5663 54.5485 48.5932 54.5485 48.6203C54.5485 48.6756 54.5265 48.7285 54.4875 48.7676C54.4484 48.8067 54.3954 48.8286 54.3402 48.8286Z" fill="#263238"/>
<path opacity="0.4" d="M60.9511 53.7327H46.3655C46.3102 53.7327 46.2573 53.7107 46.2182 53.6717C46.1792 53.6326 46.1572 53.5796 46.1572 53.5244C46.1572 53.4972 46.1626 53.4704 46.1731 53.4453C46.1837 53.4203 46.1991 53.3976 46.2185 53.3786C46.2379 53.3596 46.2608 53.3446 46.2861 53.3346C46.3113 53.3246 46.3383 53.3197 46.3655 53.3202H60.9511C60.9783 53.3197 61.0053 53.3246 61.0305 53.3346C61.0557 53.3446 61.0787 53.3596 61.0981 53.3786C61.1175 53.3976 61.1329 53.4203 61.1434 53.4453C61.154 53.4704 61.1594 53.4972 61.1594 53.5244C61.1594 53.5796 61.1374 53.6326 61.0984 53.6717C61.0593 53.7107 61.0064 53.7327 60.9511 53.7327Z" fill="#263238"/>
<path opacity="0.4" d="M60.9511 58.6571H46.3655C46.3102 58.6571 46.2573 58.6351 46.2182 58.5961C46.1792 58.557 46.1572 58.5041 46.1572 58.4488C46.1572 58.4217 46.1626 58.3948 46.1731 58.3698C46.1837 58.3447 46.1991 58.322 46.2185 58.303C46.2379 58.284 46.2608 58.269 46.2861 58.259C46.3113 58.249 46.3383 58.2441 46.3655 58.2447H60.9511C60.9783 58.2441 61.0053 58.249 61.0305 58.259C61.0557 58.269 61.0787 58.284 61.0981 58.303C61.1175 58.322 61.1329 58.3447 61.1434 58.3698C61.154 58.3948 61.1594 58.4217 61.1594 58.4488C61.1594 58.5041 61.1374 58.557 61.0984 58.5961C61.0593 58.6351 61.0064 58.6571 60.9511 58.6571Z" fill="#263238"/>
<path opacity="0.4" d="M107.542 39.0205H91.6168C91.5896 39.0205 91.5628 39.0151 91.5377 39.0046C91.5127 38.9941 91.49 38.9787 91.471 38.9593C91.452 38.9399 91.437 38.9169 91.427 38.8916C91.417 38.8664 91.4121 38.8394 91.4126 38.8122C91.4126 38.7581 91.4341 38.7062 91.4724 38.6679C91.5107 38.6296 91.5627 38.6081 91.6168 38.6081H107.542C107.569 38.6075 107.596 38.6124 107.621 38.6224C107.646 38.6324 107.669 38.6474 107.689 38.6664C107.708 38.6854 107.724 38.7081 107.734 38.7332C107.745 38.7582 107.75 38.7851 107.75 38.8122C107.75 38.8675 107.728 38.9204 107.689 38.9595C107.65 38.9985 107.597 39.0205 107.542 39.0205Z" fill="#263238"/>
<path opacity="0.4" d="M100.931 43.9246H91.629C91.6019 43.9246 91.575 43.9192 91.5499 43.9087C91.5249 43.8982 91.5022 43.8828 91.4832 43.8634C91.4642 43.844 91.4492 43.821 91.4392 43.7958C91.4292 43.7705 91.4243 43.7435 91.4248 43.7164C91.4248 43.6622 91.4464 43.6103 91.4846 43.572C91.5229 43.5337 91.5749 43.5122 91.629 43.5122H100.931C100.985 43.5122 101.037 43.5337 101.075 43.572C101.113 43.6103 101.135 43.6622 101.135 43.7164C101.136 43.7435 101.131 43.7705 101.121 43.7958C101.111 43.821 101.096 43.844 101.077 43.8634C101.058 43.8828 101.035 43.8982 101.01 43.9087C100.985 43.9192 100.958 43.9246 100.931 43.9246Z" fill="#263238"/>
<path opacity="0.4" d="M100.931 48.8286H91.629C91.6019 48.8286 91.575 48.8231 91.5499 48.8126C91.5249 48.8021 91.5022 48.7867 91.4832 48.7673C91.4642 48.7479 91.4492 48.7249 91.4392 48.6997C91.4292 48.6744 91.4243 48.6475 91.4248 48.6203C91.4248 48.5662 91.4464 48.5142 91.4846 48.4759C91.5229 48.4377 91.5749 48.4161 91.629 48.4161H100.931C100.985 48.4161 101.037 48.4377 101.075 48.4759C101.113 48.5142 101.135 48.5662 101.135 48.6203C101.136 48.6475 101.131 48.6744 101.121 48.6997C101.111 48.7249 101.096 48.7479 101.077 48.7673C101.058 48.7867 101.035 48.8021 101.01 48.8126C100.985 48.8231 100.958 48.8286 100.931 48.8286Z" fill="#263238"/>
<path opacity="0.4" d="M110.849 53.7326H91.629C91.6019 53.7326 91.575 53.7272 91.5499 53.7167C91.5249 53.7062 91.5022 53.6908 91.4832 53.6714C91.4642 53.652 91.4492 53.629 91.4392 53.6037C91.4292 53.5785 91.4243 53.5515 91.4248 53.5244C91.4248 53.4702 91.4464 53.4183 91.4846 53.38C91.5229 53.3417 91.5749 53.3202 91.629 53.3202H110.849C110.903 53.3202 110.955 53.3417 110.994 53.38C111.032 53.4183 111.053 53.4702 111.053 53.5244C111.054 53.5515 111.049 53.5785 111.039 53.6037C111.029 53.629 111.014 53.652 110.995 53.6714C110.976 53.6908 110.953 53.7062 110.928 53.7167C110.903 53.7272 110.876 53.7326 110.849 53.7326Z" fill="#263238"/>
<path opacity="0.4" d="M110.849 58.657H91.629C91.6019 58.657 91.575 58.6516 91.5499 58.6411C91.5249 58.6306 91.5022 58.6152 91.4832 58.5958C91.4642 58.5764 91.4492 58.5534 91.4392 58.5282C91.4292 58.5029 91.4243 58.4759 91.4248 58.4488C91.4248 58.3946 91.4464 58.3427 91.4846 58.3044C91.5229 58.2661 91.5749 58.2446 91.629 58.2446H110.849C110.903 58.2446 110.955 58.2661 110.994 58.3044C111.032 58.3427 111.053 58.3946 111.053 58.4488C111.054 58.4759 111.049 58.5029 111.039 58.5282C111.029 58.5534 111.014 58.5764 110.995 58.5958C110.976 58.6152 110.953 58.6306 110.928 58.6411C110.903 58.6516 110.876 58.657 110.849 58.657Z" fill="#263238"/>
<path d="M91.8229 87.6893C96.8755 84.0237 98 76.9561 94.3344 71.9034C90.6688 66.8508 83.6012 65.7263 78.5486 69.3919C73.4959 73.0575 72.3715 80.1251 76.0371 85.1777C79.7026 90.2304 86.7702 91.3548 91.8229 87.6893Z" fill="#999999" stroke="#263238" stroke-linecap="round" stroke-linejoin="round"/>
<path d="M87.2599 72.1322C87.1409 72.093 87.0424 72.0082 86.9857 71.8965C86.9291 71.7848 86.919 71.6552 86.9577 71.536L87.6315 69.4413C87.6707 69.3223 87.7555 69.2238 87.8672 69.1671C87.9789 69.1105 88.1085 69.1004 88.2277 69.1391C88.2867 69.1576 88.3415 69.1878 88.3888 69.2277C88.4361 69.2676 88.4749 69.3166 88.5031 69.3717C88.5312 69.4269 88.5481 69.4871 88.5527 69.5488C88.5572 69.6105 88.5495 69.6725 88.5298 69.7312L87.8561 71.826C87.8168 71.945 87.7322 72.0439 87.6207 72.1012C87.5092 72.1585 87.3796 72.1696 87.2599 72.1322Z" fill="#67B18A" stroke="#263238" stroke-linecap="round" stroke-linejoin="round"/>
<g opacity="0.4">
<path d="M85.1851 91.7321C92.467 91.7321 98.3701 85.8289 98.3701 78.547C98.3701 71.2651 92.467 65.3619 85.1851 65.3619C77.9032 65.3619 72 71.2651 72 78.547C72 85.8289 77.9032 91.7321 85.1851 91.7321Z" stroke="#263238" stroke-width="3" stroke-miterlimit="10" stroke-dasharray="0.98 14.63"/>
</g>
<path d="M59.2398 94.9988H48.5783C48.47 94.9988 48.3661 94.9558 48.2895 94.8792C48.2129 94.8026 48.1699 94.6988 48.1699 94.5905C48.1699 94.4822 48.2129 94.3783 48.2895 94.3017C48.3661 94.2252 48.47 94.1821 48.5783 94.1821H59.2398C59.3481 94.1821 59.452 94.2252 59.5286 94.3017C59.6051 94.3783 59.6482 94.4822 59.6482 94.5905C59.6482 94.6441 59.6376 94.6972 59.6171 94.7467C59.5966 94.7963 59.5665 94.8413 59.5286 94.8792C59.4906 94.9171 59.4456 94.9472 59.3961 94.9677C59.3465 94.9882 59.2934 94.9988 59.2398 94.9988Z" fill="#263238"/>
<path opacity="0.4" d="M58.5622 96.1175H49.2604C49.2332 96.1176 49.2063 96.1121 49.1813 96.1016C49.1562 96.0911 49.1335 96.0757 49.1145 96.0563C49.0955 96.0369 49.0806 96.0139 49.0705 95.9887C49.0605 95.9634 49.0557 95.9365 49.0562 95.9093C49.0557 95.8822 49.0605 95.8552 49.0705 95.8299C49.0806 95.8047 49.0955 95.7817 49.1145 95.7623C49.1335 95.7429 49.1562 95.7275 49.1813 95.717C49.2063 95.7065 49.2332 95.701 49.2604 95.701H58.5622C58.5893 95.701 58.6162 95.7065 58.6413 95.717C58.6663 95.7275 58.689 95.7429 58.708 95.7623C58.727 95.7817 58.742 95.8047 58.752 95.8299C58.762 95.8552 58.7669 95.8822 58.7663 95.9093C58.7669 95.9365 58.762 95.9634 58.752 95.9887C58.742 96.0139 58.727 96.0369 58.708 96.0563C58.689 96.0757 58.6663 96.0911 58.6413 96.1016C58.6162 96.1121 58.5893 96.1176 58.5622 96.1175Z" fill="#263238"/>
<path d="M90.5183 94.9988H79.8527C79.7444 94.9988 79.6405 94.9558 79.5639 94.8792C79.4874 94.8026 79.4443 94.6988 79.4443 94.5905C79.4443 94.4822 79.4874 94.3783 79.5639 94.3017C79.6405 94.2252 79.7444 94.1821 79.8527 94.1821H90.5183C90.6266 94.1821 90.7305 94.2252 90.8071 94.3017C90.8836 94.3783 90.9267 94.4822 90.9267 94.5905C90.9267 94.6988 90.8836 94.8026 90.8071 94.8792C90.7305 94.9558 90.6266 94.9988 90.5183 94.9988Z" fill="#263238"/>
<path opacity="0.4" d="M89.8366 96.1175H80.5348C80.5076 96.1176 80.4807 96.1121 80.4557 96.1016C80.4306 96.0911 80.408 96.0757 80.3889 96.0563C80.3699 96.0369 80.355 96.0139 80.345 95.9887C80.3349 95.9634 80.3301 95.9365 80.3306 95.9093C80.3301 95.8822 80.3349 95.8552 80.345 95.8299C80.355 95.8047 80.3699 95.7817 80.3889 95.7623C80.408 95.7429 80.4306 95.7275 80.4557 95.717C80.4807 95.7065 80.5076 95.701 80.5348 95.701H89.8366C89.8638 95.701 89.8906 95.7065 89.9157 95.717C89.9407 95.7275 89.9634 95.7429 89.9824 95.7623C90.0014 95.7817 90.0164 95.8047 90.0264 95.8299C90.0364 95.8552 90.0413 95.8822 90.0408 95.9093C90.0413 95.9365 90.0364 95.9634 90.0264 95.9887C90.0164 96.0139 90.0014 96.0369 89.9824 96.0563C89.9634 96.0757 89.9407 96.0911 89.9157 96.1016C89.8906 96.1121 89.8638 96.1176 89.8366 96.1175Z" fill="#263238"/>
<path opacity="0.5" d="M149.837 64.0922H108.954C108.224 64.0922 107.631 64.6845 107.631 65.4152V95.1826C107.631 95.9133 108.224 96.5056 108.954 96.5056H149.837C150.567 96.5056 151.16 95.9133 151.16 95.1826V65.4152C151.16 64.6845 150.567 64.0922 149.837 64.0922Z" fill="#67B18A"/>
<path d="M146.778 69.1636H129.837C129.417 69.1636 129.077 69.5036 129.077 69.9231V71.0542C129.077 71.4736 129.417 71.8137 129.837 71.8137H146.778C147.198 71.8137 147.538 71.4736 147.538 71.0542V69.9231C147.538 69.5036 147.198 69.1636 146.778 69.1636Z" fill="#999999" stroke="#263238" stroke-linecap="round" stroke-linejoin="round"/>
<path d="M145.639 69.9802L146.272 70.997L146.905 69.9802H145.639Z" fill="#67B18A"/>
<path d="M137.207 70.9071H130.514C130.406 70.9071 130.302 70.8641 130.226 70.7875C130.149 70.7109 130.106 70.6071 130.106 70.4988C130.106 70.3905 130.149 70.2866 130.226 70.2101C130.302 70.1335 130.406 70.0905 130.514 70.0905H137.207C137.315 70.0905 137.419 70.1335 137.496 70.2101C137.572 70.2866 137.615 70.3905 137.615 70.4988C137.615 70.6071 137.572 70.7109 137.496 70.7875C137.419 70.8641 137.315 70.9071 137.207 70.9071Z" fill="#263238"/>
<path d="M146.778 88.7799H129.837C129.417 88.7799 129.077 89.12 129.077 89.5394V90.6705C129.077 91.0899 129.417 91.43 129.837 91.43H146.778C147.198 91.43 147.538 91.0899 147.538 90.6705V89.5394C147.538 89.12 147.198 88.7799 146.778 88.7799Z" fill="#999999" stroke="#263238" stroke-linecap="round" stroke-linejoin="round"/>
<path d="M145.639 89.5966L146.272 90.6133L146.905 89.5966H145.639Z" fill="#67B18A"/>
<path d="M137.207 90.5071H130.514C130.406 90.5071 130.302 90.4641 130.226 90.3875C130.149 90.3109 130.106 90.2071 130.106 90.0988C130.106 89.9905 130.149 89.8866 130.226 89.81C130.302 89.7335 130.406 89.6904 130.514 89.6904H137.207C137.315 89.6904 137.419 89.7335 137.496 89.81C137.572 89.8866 137.615 89.9905 137.615 90.0988C137.615 90.2071 137.572 90.3109 137.496 90.3875C137.419 90.4641 137.315 90.5071 137.207 90.5071Z" fill="#263238"/>
<path d="M146.778 74.0676H129.837C129.417 74.0676 129.077 74.4077 129.077 74.8271V75.9582C129.077 76.3777 129.417 76.7177 129.837 76.7177H146.778C147.198 76.7177 147.538 76.3777 147.538 75.9582V74.8271C147.538 74.4077 147.198 74.0676 146.778 74.0676Z" fill="#999999" stroke="#263238" stroke-linecap="round" stroke-linejoin="round"/>
<path d="M145.639 74.8843L146.272 75.901L146.905 74.8843H145.639Z" fill="#67B18A"/>
<path d="M139.191 75.8071H130.514C130.406 75.8071 130.302 75.7641 130.226 75.6875C130.149 75.611 130.106 75.5071 130.106 75.3988C130.106 75.2905 130.149 75.1867 130.226 75.1101C130.302 75.0335 130.406 74.9905 130.514 74.9905H139.191C139.3 74.9905 139.404 75.0335 139.48 75.1101C139.557 75.1867 139.6 75.2905 139.6 75.3988C139.6 75.5071 139.557 75.611 139.48 75.6875C139.404 75.7641 139.3 75.8071 139.191 75.8071Z" fill="#263238"/>
<path d="M146.778 78.9717H129.837C129.417 78.9717 129.077 79.3117 129.077 79.7312V80.8623C129.077 81.2817 129.417 81.6218 129.837 81.6218H146.778C147.198 81.6218 147.538 81.2817 147.538 80.8623V79.7312C147.538 79.3117 147.198 78.9717 146.778 78.9717Z" fill="#999999" stroke="#263238" stroke-linecap="round" stroke-linejoin="round"/>
<path d="M145.639 79.7885L146.272 80.8093L146.905 79.7885H145.639Z" fill="#67B18A"/>
<path d="M137.207 80.7072H130.514C130.406 80.7072 130.302 80.6641 130.226 80.5876C130.149 80.511 130.106 80.4071 130.106 80.2988C130.106 80.1905 130.149 80.0867 130.226 80.0101C130.302 79.9335 130.406 79.8905 130.514 79.8905H137.207C137.315 79.8905 137.419 79.9335 137.496 80.0101C137.572 80.0867 137.615 80.1905 137.615 80.2988C137.615 80.4071 137.572 80.511 137.496 80.5876C137.419 80.6641 137.315 80.7072 137.207 80.7072Z" fill="#263238"/>
<path d="M146.778 83.8757H129.837C129.417 83.8757 129.077 84.2158 129.077 84.6352V85.7663C129.077 86.1858 129.417 86.5258 129.837 86.5258H146.778C147.198 86.5258 147.538 86.1858 147.538 85.7663V84.6352C147.538 84.2158 147.198 83.8757 146.778 83.8757Z" fill="#999999" stroke="#263238" stroke-linecap="round" stroke-linejoin="round"/>
<path d="M145.639 84.6924L146.272 85.7091L146.905 84.6924H145.639Z" fill="#67B18A"/>
<path d="M139.191 85.6071H130.514C130.406 85.6071 130.302 85.564 130.226 85.4875C130.149 85.4109 130.106 85.307 130.106 85.1987C130.106 85.0904 130.149 84.9866 130.226 84.91C130.302 84.8334 130.406 84.7904 130.514 84.7904H139.191C139.3 84.7904 139.404 84.8334 139.48 84.91C139.557 84.9866 139.6 85.0904 139.6 85.1987C139.6 85.307 139.557 85.4109 139.48 85.4875C139.404 85.564 139.3 85.6071 139.191 85.6071Z" fill="#263238"/>
<path d="M124.974 70.9071H111.666C111.558 70.9071 111.454 70.8641 111.377 70.7875C111.301 70.7109 111.258 70.6071 111.258 70.4988C111.258 70.3905 111.301 70.2866 111.377 70.2101C111.454 70.1335 111.558 70.0905 111.666 70.0905H124.974C125.082 70.0905 125.186 70.1335 125.262 70.2101C125.339 70.2866 125.382 70.3905 125.382 70.4988C125.382 70.6071 125.339 70.7109 125.262 70.7875C125.186 70.8641 125.082 70.9071 124.974 70.9071Z" fill="#263238"/>
<path d="M121.005 75.8071H111.666C111.558 75.8071 111.454 75.7641 111.377 75.6875C111.301 75.611 111.258 75.5071 111.258 75.3988C111.258 75.2905 111.301 75.1867 111.377 75.1101C111.454 75.0335 111.558 74.9905 111.666 74.9905H121.005C121.113 74.9905 121.217 75.0335 121.293 75.1101C121.37 75.1867 121.413 75.2905 121.413 75.3988C121.413 75.5071 121.37 75.611 121.293 75.6875C121.217 75.7641 121.113 75.8071 121.005 75.8071Z" fill="#263238"/>
<path d="M122.328 80.7072H111.666C111.558 80.7072 111.454 80.6641 111.377 80.5876C111.301 80.511 111.258 80.4071 111.258 80.2988C111.258 80.1905 111.301 80.0867 111.377 80.0101C111.454 79.9335 111.558 79.8905 111.666 79.8905H122.328C122.436 79.8905 122.54 79.9335 122.616 80.0101C122.693 80.0867 122.736 80.1905 122.736 80.2988C122.736 80.4071 122.693 80.511 122.616 80.5876C122.54 80.6641 122.436 80.7072 122.328 80.7072Z" fill="#263238"/>
<path d="M119.02 85.6071H111.67C111.562 85.6071 111.458 85.564 111.381 85.4875C111.305 85.4109 111.262 85.307 111.262 85.1987C111.262 85.0904 111.305 84.9866 111.381 84.91C111.458 84.8334 111.562 84.7904 111.67 84.7904H119.02C119.128 84.7904 119.232 84.8334 119.309 84.91C119.385 84.9866 119.428 85.0904 119.428 85.1987C119.428 85.307 119.385 85.4109 119.309 85.4875C119.232 85.564 119.128 85.6071 119.02 85.6071Z" fill="#263238"/>
<path d="M121.005 90.5071H111.666C111.558 90.5071 111.454 90.4641 111.377 90.3875C111.301 90.3109 111.258 90.2071 111.258 90.0988C111.258 89.9905 111.301 89.8866 111.377 89.81C111.454 89.7335 111.558 89.6904 111.666 89.6904H121.005C121.113 89.6904 121.217 89.7335 121.293 89.81C121.37 89.8866 121.413 89.9905 121.413 90.0988C121.413 90.2071 121.37 90.3109 121.293 90.3875C121.217 90.4641 121.113 90.5071 121.005 90.5071Z" fill="#263238"/>
<path d="M65.1076 80.1286C65.9785 73.9474 61.6737 68.2305 55.4925 67.3596C49.3112 66.4887 43.5943 70.7935 42.7234 76.9748C41.8525 83.156 46.1574 88.8729 52.3386 89.7438C58.5198 90.6147 64.2367 86.3099 65.1076 80.1286Z" fill="#999999" stroke="#263238" stroke-linecap="round" stroke-linejoin="round"/>
<path d="M60.665 78.2857C60.6623 78.2237 60.6719 78.1617 60.6932 78.1034C60.7146 78.0452 60.7473 77.9917 60.7894 77.9461C60.8316 77.9006 60.8823 77.8638 60.9388 77.838C60.9952 77.8122 61.0562 77.7978 61.1183 77.7957L63.3151 77.7099C63.3771 77.7072 63.439 77.7168 63.4973 77.7381C63.5556 77.7595 63.6091 77.7922 63.6546 77.8343C63.7002 77.8765 63.737 77.9272 63.7628 77.9837C63.7886 78.0401 63.803 78.1011 63.8051 78.1632C63.8078 78.2252 63.7982 78.2871 63.7769 78.3454C63.7555 78.4037 63.7228 78.4572 63.6807 78.5027C63.6385 78.5483 63.5878 78.5851 63.5313 78.6109C63.4749 78.6367 63.4139 78.6511 63.3518 78.6532L61.155 78.7389C61.093 78.7417 61.0311 78.7321 60.9728 78.7107C60.9145 78.6894 60.861 78.6567 60.8155 78.6145C60.7699 78.5724 60.7331 78.5216 60.7073 78.4652C60.6815 78.4087 60.6671 78.3477 60.665 78.2857Z" fill="#67B18A" stroke="#263238" stroke-linecap="round" stroke-linejoin="round"/>
<g opacity="0.4">
<path d="M53.9111 91.7321C61.1931 91.7321 67.0962 85.8289 67.0962 78.547C67.0962 71.2651 61.1931 65.3619 53.9111 65.3619C46.6292 65.3619 40.7261 71.2651 40.7261 78.547C40.7261 85.8289 46.6292 91.7321 53.9111 91.7321Z" stroke="#263238" stroke-width="3" stroke-miterlimit="10" stroke-dasharray="0.98 14.63"/>
</g>
<path d="M97.2474 101.005L95.9408 100.499L94.6382 101.005" stroke="#263238" stroke-linecap="round" stroke-linejoin="round"/>
<path d="M97.2474 101.998L95.9408 101.491L94.6382 101.998" stroke="#263238" stroke-linecap="round" stroke-linejoin="round"/>
<path d="M149.935 23.9612H41.9511C41.2745 23.9612 40.7261 24.5096 40.7261 25.1862V29.882C40.7261 30.5586 41.2745 31.107 41.9511 31.107H149.935C150.611 31.107 151.16 30.5586 151.16 29.882V25.1862C151.16 24.5096 150.611 23.9612 149.935 23.9612Z" fill="#67B18A" stroke="#263238" stroke-linecap="round" stroke-linejoin="round"/>
<path d="M90.0895 27.9382V27.1215L89.4811 27.0685C89.4453 26.9418 89.3946 26.8198 89.33 26.705L89.7384 26.2395L89.1667 25.6679L88.7012 26.0762C88.5868 26.011 88.4647 25.9602 88.3378 25.9251L88.2847 25.3208H87.468L87.4191 25.9251C87.2919 25.9595 87.1697 26.0103 87.0556 26.0762L86.5901 25.6679L86.0185 26.2395L86.4268 26.705C86.3653 26.8207 86.316 26.9425 86.2798 27.0685L85.6714 27.1215V27.9382L86.2798 27.9913C86.316 28.1172 86.3653 28.239 86.4268 28.3547L86.0185 28.8161L86.5901 29.3919L87.0556 28.9835C87.1699 29.0482 87.292 29.0976 87.4191 29.1305L87.468 29.739H88.2847L88.3378 29.1305C88.4646 29.0969 88.5867 29.0475 88.7012 28.9835L89.1667 29.3919L89.7384 28.8161L89.33 28.3547C89.3946 28.24 89.4453 28.118 89.4811 27.9913L90.0895 27.9382ZM87.8641 28.4731C87.6774 28.4731 87.4949 28.4177 87.3397 28.3139C87.1845 28.21 87.0636 28.0625 86.9923 27.8899C86.921 27.7173 86.9026 27.5274 86.9393 27.3444C86.976 27.1613 87.0663 26.9932 87.1986 26.8615C87.3309 26.7297 87.4994 26.6402 87.6826 26.6043C87.8659 26.5683 88.0557 26.5876 88.2279 26.6596C88.4002 26.7316 88.5473 26.8532 88.6504 27.0088C88.7536 27.1645 88.8082 27.3472 88.8074 27.534C88.8074 27.6576 88.783 27.7801 88.7355 27.8943C88.688 28.0085 88.6185 28.1122 88.5309 28.1995C88.4432 28.2868 88.3392 28.3559 88.2248 28.4028C88.1104 28.4498 87.9878 28.4737 87.8641 28.4731Z" fill="#263238"/>
<path d="M92.0412 25.5822C92.6211 25.5822 92.9151 25.9292 92.9151 26.5336V26.6561H92.3556V26.4968C92.3556 26.2273 92.2454 26.1252 92.0576 26.1252C91.8697 26.1252 91.7595 26.2273 91.7595 26.4968C91.7595 26.7663 91.8779 26.9787 92.2658 27.3135C92.764 27.7504 92.9232 28.0648 92.9232 28.4976C92.9447 28.6221 92.9371 28.7498 92.901 28.8707C92.8648 28.9917 92.8011 29.1026 92.7149 29.1948C92.6286 29.287 92.5221 29.358 92.4038 29.4021C92.2855 29.4462 92.1586 29.4623 92.0331 29.4491C91.4491 29.4491 91.147 29.102 91.147 28.4976V28.2649H91.7105V28.5344C91.7105 28.808 91.8289 28.9019 92.0167 28.9019C92.2046 28.9019 92.3271 28.808 92.3271 28.5344C92.3271 28.2608 92.2086 28.0526 91.8166 27.7177C91.3185 27.2767 91.1633 26.9664 91.1633 26.5295C91.1633 25.9415 91.4614 25.5822 92.0412 25.5822Z" fill="#263238"/>
<path d="M93.8582 27.236H94.6749V27.775H93.8582V28.8856H94.8872V29.4287H93.2539V25.6394H94.8872V26.1784H93.8582V27.236Z" fill="#263238"/>
<path d="M95.0791 25.6394H96.9207V26.1784H96.3V29.4451H95.7039V26.1784H95.0791V25.6394Z" fill="#263238"/>
<path d="M97.0068 25.6394H98.8484V26.1784H98.2237V29.4451H97.6316V26.1784H97.0068V25.6394Z" fill="#263238"/>
<path d="M99.106 25.6394H99.7021V29.4287H99.106V25.6394Z" fill="#263238"/>
<path d="M100.678 26.6847V29.4287H100.143V25.6394H100.89L101.491 27.9057V25.6394H102.021V29.4287H101.413L100.678 26.6847Z" fill="#263238"/>
<path d="M103.34 27.3177H104.157V28.5182C104.178 28.6426 104.171 28.7703 104.134 28.8913C104.098 29.0123 104.035 29.1232 103.948 29.2154C103.862 29.3076 103.756 29.3786 103.637 29.4227C103.519 29.4668 103.392 29.4829 103.266 29.4696C102.683 29.4696 102.38 29.1226 102.38 28.5182V26.546C102.38 25.9417 102.683 25.5946 103.266 25.5946C103.392 25.5814 103.519 25.5974 103.637 25.6416C103.756 25.6857 103.862 25.7566 103.948 25.8488C104.035 25.941 104.098 26.0519 104.134 26.1729C104.171 26.2939 104.178 26.4216 104.157 26.546V26.9176H103.63V26.5092C103.63 26.2397 103.511 26.1377 103.32 26.1377C103.128 26.1377 103.013 26.2397 103.013 26.5092V28.5509C103.013 28.8245 103.132 28.9184 103.32 28.9184C103.507 28.9184 103.63 28.8245 103.63 28.5509V27.8527H103.36L103.34 27.3177Z" fill="#263238"/>
<path d="M105.357 25.5822C105.937 25.5822 106.235 25.9292 106.235 26.5336V26.6561H105.671V26.4968C105.671 26.2273 105.561 26.1252 105.373 26.1252C105.185 26.1252 105.075 26.2273 105.075 26.4968C105.075 26.7663 105.194 26.9787 105.586 27.3135C105.782 27.4437 105.944 27.6193 106.057 27.8255C106.171 28.0316 106.233 28.2622 106.239 28.4976C106.239 29.102 105.937 29.4491 105.353 29.4491C105.227 29.4623 105.1 29.4462 104.982 29.4021C104.864 29.358 104.757 29.287 104.671 29.1948C104.585 29.1026 104.521 28.9917 104.485 28.8707C104.449 28.7498 104.441 28.6221 104.463 28.4976V28.2649H105.026V28.5344C105.026 28.808 105.145 28.9019 105.336 28.9019C105.528 28.9019 105.643 28.808 105.643 28.5344C105.643 28.2608 105.524 28.0526 105.136 27.7177C104.638 27.2767 104.479 26.9664 104.479 26.5295C104.479 25.9415 104.777 25.5822 105.357 25.5822Z" fill="#263238"/>
<g opacity="0.4">
<path d="M88.2932 20.2454L37.2148 71.3155V23.8264C37.2148 22.8767 37.5921 21.9658 38.2637 21.2942C38.9353 20.6227 39.8462 20.2454 40.7959 20.2454H88.2932Z" fill="white"/>
<path d="M105.178 20.2454L37.2148 88.2083V85.4765L102.446 20.2454H105.178Z" fill="white"/>
<path d="M132.867 20.2454L49.9345 103.178H49.0811L132.009 20.2454H132.867Z" fill="white"/>
</g>
<path opacity="0.3" d="M141.406 38.3999C138.547 38.2162 137.788 43.1243 137.788 48.0284C137.788 52.9325 139.421 56.1011 139.948 57.8284C140.475 59.5556 140.45 65.2927 139.605 67.5957C138.76 69.8987 135.178 77.1466 132.847 81.3769C130.515 85.6073 133.786 98.4657 135.628 101.736C137.469 105.007 147.232 108.086 149.38 111.945C151.528 115.803 150.552 116.914 152.52 119.785C154.489 122.655 163.807 132.713 168.943 150.732L173.398 89.5762L156.518 71.4136L141.406 38.3999Z" fill="black" fill-opacity="0.7"/>
<path d="M168.302 153.419L168.229 153.509L168.572 153.366C168.47 153.39 168.376 153.411 168.302 153.419ZM192.994 122.929C192.68 122.41 192.382 121.908 192.096 121.422C186.265 111.483 185.228 107.22 184.534 104.354C184.273 103.05 183.851 101.784 183.276 100.585L182.937 99.9315C181.972 98.2296 181.232 96.4096 180.736 94.517C180.385 93.0103 180.879 89.3393 181.357 85.7909C181.7 83.2307 182.026 80.8174 181.994 79.4454V78.9595C181.912 75.3662 181.741 67.8937 180.993 65.799C180.275 63.7859 179.552 63.4674 178.237 62.8957L177.829 62.7079C177.335 62.4874 176.502 62.026 175.538 61.4829C173.374 60.2865 170.675 58.7879 169.291 58.5592C167.994 58.3731 166.676 58.3965 165.387 58.6286C163.705 57.2648 160.842 55.4845 159.972 55.4273C159.103 55.3701 156.926 55.9867 156.563 56.0888C156.078 55.6866 155.555 55.3311 155.003 55.0271C153.758 54.4636 151.659 54.5371 151.279 54.5576C149.846 52.2137 148.421 49.8699 147.829 48.8409C146.738 47.0034 143.745 40.319 142.863 38.3222C142.708 37.9711 142.618 37.7628 142.61 37.7506C142.599 37.7261 142.581 37.7059 142.557 37.6934C142.528 37.6934 139.915 36.7624 138.821 39.1879C137.726 41.6134 139.041 47.2076 140.434 49.2411C141.107 50.2251 142.904 54.2064 144.725 58.3224C144.595 58.4408 144.223 58.7634 143.713 59.1921C142.247 60.4171 139.629 62.4915 138.184 62.961C136.587 63.4755 136.73 71.5932 136.84 78.1184C136.881 80.5193 136.918 82.61 136.84 83.835C136.779 84.9988 137.755 86.4034 139.25 87.9183H139.27C141.135 89.7073 143.095 91.3948 145.142 92.9735C148.894 95.9829 152.774 99.0985 153.174 101.283C153.525 103.472 154.51 105.511 156.008 107.147C158.012 109.213 165.195 140.606 167.441 150.475C167.849 152.308 168.106 153.394 168.119 153.427L168.319 153.386C169.752 151.61 192.99 123.035 192.974 123.031C192.986 123.017 192.994 123.001 192.998 122.983C193.002 122.965 193 122.946 192.994 122.929ZM144.329 67.4241C144.615 67.1465 146.542 65.2232 146.91 63.3122C148.217 66.2604 149.025 68.0325 149.225 68.2122C149.425 68.3919 149.388 69.331 149.356 70.2294C149.298 71.0164 149.298 71.8066 149.356 72.5936C149.013 72.8794 146.816 74.77 146.338 76.3299L144.578 74.1371L144.329 67.4241Z" fill="white"/>
<path opacity="0.4" d="M150.707 70.3193C151.312 67.7509 148.257 65.1865 144.697 58.3265C144.566 58.445 144.194 58.7675 143.684 59.1963C144.223 60.654 144.615 62.3404 143.872 62.9448C142.459 64.0963 141.908 64.133 141.973 65.3948C142.038 66.6565 143.676 75.5704 142.986 77.6448C142.296 79.7191 147.069 80.2908 147.812 80.7032C148.555 81.1156 147.779 77.4733 149.592 75.942C151.405 74.4108 150.033 73.1817 150.707 70.3193ZM146.354 76.3422L144.594 74.1494L144.329 67.4242C144.615 67.1465 146.542 65.2233 146.91 63.3123C148.216 66.2604 149.025 68.0326 149.225 68.2123C149.425 68.3919 149.388 69.3311 149.356 70.2294C149.298 71.0165 149.298 71.8066 149.356 72.5937C149.029 72.8918 146.832 74.7823 146.354 76.3422Z" fill="#67B18A"/>
<path opacity="0.4" d="M167.425 150.508C165.179 140.638 157.996 109.246 155.991 107.179C154.494 105.544 153.509 103.505 153.158 101.316C152.749 99.1271 148.878 96.0075 145.126 93.0062C143.079 91.4275 141.119 89.7401 139.254 87.951C142.929 91.0176 151.99 97.3427 153.635 97.3958C155.342 97.4448 155.485 104.301 158.25 106.097C160.896 107.808 171.594 137.992 167.425 150.508Z" fill="#67B18A"/>
<path opacity="0.4" d="M192.096 121.418C187.09 120.058 182.598 109.854 182.345 107.363C182.047 104.439 182.1 102.202 178.625 98.29C175.15 94.3782 177.228 92.2589 177.228 92.2589C177.506 93.5697 179.858 95.6236 179.858 95.6236C178.911 92.6795 179.993 81.9853 180.438 79.9885C180.846 78.2327 181.001 67.3996 178.805 63.8145C176.236 62.2097 176.477 64.9292 174.464 64.7904C173.374 64.7128 171.561 63.4837 169.874 63.451C168.315 63.4306 168.302 65.554 163.909 63.5123C161.7 62.4833 160.642 65.6315 158.098 64.329C154.264 62.3322 151.687 55.0884 149.176 52.9406C148 51.9238 145.33 47.424 144.811 44.6555C144.403 42.5117 141.573 44.5044 140.229 42.2055C139.127 40.3067 139.727 37.5709 142.839 38.359C143.729 40.3557 146.714 47.0401 147.804 48.8776C148.412 49.9066 149.821 52.2505 151.254 54.5943C151.634 54.5739 153.733 54.5004 154.978 55.0639C155.531 55.3678 156.053 55.7233 156.538 56.1256C156.902 56.0235 159.07 55.3987 159.948 55.464C160.826 55.5294 163.68 57.3015 165.362 58.6654C166.651 58.4333 167.969 58.4098 169.266 58.596C170.65 58.8246 173.349 60.3232 175.513 61.5196C176.477 62.0586 177.31 62.52 177.804 62.7446L178.213 62.9325C179.527 63.5041 180.254 63.8226 180.969 65.8357C181.716 67.9304 181.888 75.4029 181.969 78.9963V79.4822C182.002 80.8542 181.675 83.2674 181.332 85.8277C180.854 89.3761 180.36 93.047 180.712 94.5537C181.208 96.4463 181.947 98.2664 182.912 99.9682L183.251 100.622C183.826 101.82 184.249 103.087 184.509 104.39C185.228 107.216 186.265 111.479 192.096 121.418Z" fill="#67B18A"/>
<path d="M157.914 62.7895C156.704 62.37 155.653 61.5871 154.905 60.5478C153.704 58.841 149.016 51.0826 147.718 48.894C146.419 46.7053 142.495 37.7873 142.495 37.7873C142.495 37.7873 139.951 36.8563 138.886 39.2287C137.82 41.6011 139.029 47.0565 140.49 49.188C141.952 51.3195 148.735 67.616 149.294 68.1509C149.854 68.6859 148.886 72.9529 149.988 74.0228" stroke="#263238" stroke-linecap="round" stroke-linejoin="round"/>
<path d="M149.478 72.6467C149.478 72.6467 146.758 74.8803 146.399 76.5545L144.5 74.1861L144.227 67.3833C144.227 67.3833 146.677 65.0762 146.86 62.9611" stroke="#263238" stroke-linecap="round" stroke-linejoin="round"/>
<path d="M144.824 58.3468C144.824 58.3468 140.303 62.377 138.188 63.059C136.073 63.7409 137.155 79.3433 136.922 83.8472C136.69 88.3511 152.406 96.6566 153.256 101.299C153.604 103.47 154.582 105.491 156.069 107.11C158.482 109.597 168.197 153.419 168.197 153.419" stroke="#263238" stroke-linecap="round" stroke-linejoin="round"/>
<path d="M151.202 54.6597C151.202 54.6597 153.603 54.5127 154.938 55.1129C156.273 55.7132 161.614 60.5805 162.913 61.5156C164.211 62.4507 166.179 62.8468 166.543 63.8268" stroke="#263238" stroke-linecap="round" stroke-linejoin="round"/>
<path d="M156.518 56.2073C156.518 56.2073 159.009 55.4641 159.94 55.5335C160.871 55.6029 164.354 57.7916 165.902 59.2085C167.085 60.3227 168.46 61.2136 169.96 61.8382" stroke="#263238" stroke-linecap="round" stroke-linejoin="round"/>
<path d="M165.338 58.7348C166.629 58.4955 167.95 58.4693 169.25 58.6572C171.242 58.9839 176.191 62.0831 177.763 62.7936C179.336 63.5041 180.107 63.6511 180.887 65.8316C181.667 68.0121 181.818 76.2074 181.896 79.4455C181.973 82.6835 180.022 91.9078 180.642 94.5538C181.263 97.1998 182.463 99.2292 183.186 100.646C185.314 104.819 183.345 107.073 192.909 123.002" stroke="#263238" stroke-linecap="round" stroke-linejoin="round"/>
<path d="M168.384 64.7578C170.172 66.7709 169.388 70.1192 168.984 71.087C168.58 72.0547 169.339 76.2075 169.466 78.4084" stroke="#263238" stroke-linecap="round" stroke-linejoin="round"/>
<path d="M155.464 64.913C159.078 65.4315 159.936 68.0367 159.956 69.6782" stroke="#263238" stroke-linecap="round" stroke-linejoin="round"/>
<path d="M171.312 63.1489C172.398 63.202 174.967 65.2314 175.171 68.0693" stroke="#263238" stroke-linecap="round" stroke-linejoin="round"/>
<path d="M144.227 67.3832C144.227 67.3832 143.876 65.7785 143.357 65.558" stroke="#263238" stroke-linecap="round" stroke-linejoin="round"/>
<path d="M144.5 74.174C144.657 75.1112 144.88 76.0363 145.166 76.9424C145.529 77.9224 144.88 79.3067 144.88 79.3067" stroke="#263238" stroke-linecap="round" stroke-linejoin="round"/>
<path d="M146.399 76.5543C146.289 78.106 147.783 79.9639 148.167 79.7189" stroke="#263238" stroke-linecap="round" stroke-linejoin="round"/>
<path opacity="0.3" d="M61.2822 71.3889C63.4423 72.471 61.3598 83.8267 57.8522 86.8321L54.5488 99.764L57.8522 113.909L66.0638 108.76C66.0638 108.76 66.8805 103.721 69.8736 101.998C72.8666 100.274 72.8748 103.002 72.8748 103.002C72.8748 103.002 69.6735 110.956 69.8736 113.909C70.0736 116.861 64.5285 122.328 61.9151 126.273C59.3018 130.217 52.793 128.817 46.2474 133.068C39.7018 137.318 20.5225 157.568 20.5225 157.568L32.8133 107.351L61.2822 71.3889Z" fill="black" fill-opacity="0.7"/>
<path d="M64.9818 104.354C64.3777 105.106 63.8317 105.903 63.3484 106.738C63.0789 107.179 62.8258 107.641 62.5767 108.114C62.4623 108.323 62.3521 108.523 62.2459 108.747L62.2051 108.829C62.0826 109.07 61.9642 109.311 61.8417 109.556C61.8284 109.589 61.8134 109.622 61.7967 109.654C61.6906 109.866 61.5926 110.062 61.4946 110.291C61.3966 110.519 61.2659 110.785 61.1598 111.03L60.8698 111.687C60.5881 112.324 60.3227 112.961 60.0532 113.574C59.7837 114.186 59.5836 114.733 59.3672 115.272C59.3427 115.325 59.3223 115.379 59.3018 115.432C59.2447 115.566 59.1916 115.701 59.1426 115.84C58.8853 116.489 58.6485 117.085 58.4321 117.604C58.4179 117.646 58.4001 117.687 58.379 117.726C58.379 117.759 58.3463 117.796 58.3259 117.829C57.8712 118.545 57.2649 119.153 56.5497 119.609C56.4068 119.711 56.2598 119.813 56.1046 119.911C55.6963 120.193 55.2103 120.47 54.7122 120.752L54.3324 120.956C54.0262 121.124 53.7159 121.287 53.3933 121.446C49.7183 123.317 45.1858 124.999 44.0302 126.248C42.4989 127.914 42.2335 129.274 40.3552 131.234C39.817 131.796 39.2413 132.322 38.632 132.806C36.2596 134.729 30.7471 144.987 27.3457 151.589C25.6511 154.877 24.4874 157.261 24.4874 157.261L1.02051 146.236C1.02051 146.236 13.3399 129.135 13.9606 126.228C14.5812 123.321 16.3657 120.36 16.3657 120.36C16.3657 120.36 16.0594 113.802 16.5045 109.196C16.9496 104.59 18.0562 96.8443 18.5788 93.7491C19.1015 90.654 22.1354 85.8112 23.5891 82.1239C25.0427 78.4367 25.8798 75.1047 27.1661 72.8384C28.4523 70.5722 29.7018 66.5583 30.4572 66.1336C31.2126 65.7089 32.013 66.3786 32.8337 67.5505C33.6545 68.7224 31.674 75.5334 31.674 75.5334C33.1114 73.1651 34.0138 68.2733 34.5324 67.0034C35.051 65.7334 36.0514 59.8371 36.0514 59.8371C36.5802 59.4948 37.1607 59.2398 37.7705 59.0817C38.3071 58.931 38.8771 58.9481 39.4038 59.1307C40.882 59.7105 41.6659 62.9527 41.2699 66.7053C40.8738 70.4579 38.7627 78.5143 38.7627 78.5143L44.8877 69.2124C46.0719 67.4076 48.1135 60.3149 48.4769 59.8575C48.7424 59.5227 50.4002 58.6979 51.6946 59.5023C52.2699 59.8906 52.6905 60.4687 52.8829 61.1356C53.9568 64.2675 50.8412 71.3072 50.4329 72.6873C50.0858 73.8143 47.3826 78.4612 46.4108 80.1231L46.1004 80.658C46.3781 80.2497 48.3259 77.5179 49.7754 77.081C51.3434 76.6114 54.4509 74.5983 56.4435 73.3856C58.4362 72.1728 58.526 67.9507 61.2863 71.3439C62.4542 72.7813 61.7763 75.3374 60.7514 77.6608C59.7265 79.9842 54.8224 84.1615 54.8224 84.1615C54.6346 84.6882 54.1732 85.9092 53.5974 87.3955C53.577 87.4567 53.5525 87.5139 53.528 87.5752C53.43 87.8447 53.3238 88.1223 53.2136 88.3918C53.0707 88.7675 52.9196 89.1554 52.7685 89.5433C52.6869 89.7475 52.6093 89.9517 52.5317 90.1599C52.4541 90.3682 52.3438 90.6376 52.2499 90.8745C52.205 90.997 52.156 91.1154 52.1111 91.2338C52.1111 91.2665 52.0866 91.3032 52.0703 91.3318C51.9927 91.536 51.911 91.7402 51.8334 91.9361L51.6987 92.2791C51.5354 92.6875 51.372 93.0958 51.2209 93.4837C51.2022 93.5222 51.1858 93.5617 51.1719 93.6021C51.1311 93.6961 51.0903 93.7982 51.0535 93.8921C50.9719 94.0922 50.8943 94.3004 50.8167 94.4678C50.7391 94.6352 50.6697 94.8231 50.6044 94.9905C50.294 95.7255 50.0531 96.2645 49.9306 96.4727C49.3018 97.5344 51.3516 108.686 52.9849 107.294C54.6183 105.901 58.8894 98.9962 58.8894 98.9962C59.4897 95.0068 61.7478 91.8422 64.7776 90.5274C65.0335 90.4156 65.2952 90.3175 65.5616 90.2334C69.0038 89.1513 69.3713 91.8014 69.3713 91.8014C65.1533 101.675 67.8605 100.883 64.9818 104.354Z" fill="white"/>
<path opacity="0.4" d="M38.7752 78.5266L32.936 87.4487C33.4301 84.182 36.3293 77.1995 36.3293 77.1995C36.7376 74.5249 40.2615 62.0463 39.0814 60.0822C38.7045 59.68 38.2611 59.3457 37.7707 59.094C38.3074 58.9433 38.8773 58.9604 39.404 59.143C40.8822 59.7229 41.6662 62.965 41.2701 66.7176C40.874 70.4702 38.7752 78.5266 38.7752 78.5266Z" fill="#67B18A"/>
<path opacity="0.4" d="M32.813 67.5629C32.8416 67.5996 32.9151 67.6976 33.0212 67.8528C32.982 67.6746 32.9329 67.4988 32.8742 67.326L32.813 67.5629Z" fill="#67B18A"/>
<path opacity="0.4" d="M26.4551 87.3423C26.4551 87.3423 30.6609 80.1843 32.4208 73.9694C33.0742 71.6705 33.3886 69.4982 33.0374 67.873C32.9981 67.6949 32.9491 67.519 32.8904 67.3463L32.8169 67.5668C32.5351 67.1397 32.1973 66.7524 31.8124 66.4153C32.1391 67.4769 32.3187 69.4288 30.7507 72.0829C28.2967 76.2398 27.823 82.0218 26.4551 87.3423Z" fill="#67B18A"/>
<path opacity="0.4" d="M53.2419 109.164C55.5572 107.289 57.4355 101.965 59.8814 99.2575C59.8814 99.2575 59.8038 94.4229 64.7814 90.5846C61.7393 91.8994 59.4935 95.0762 58.8933 99.0534C58.8933 99.0534 54.618 105.958 52.9888 107.351C51.3595 108.743 49.3138 97.5915 49.9344 96.5299C50.0569 96.3216 50.2978 95.7826 50.6082 95.0435C50.6776 94.8802 50.747 94.7046 50.8246 94.525C50.9022 94.3453 50.9757 94.1452 51.0573 93.9492C51.0982 93.8553 51.1349 93.7532 51.1758 93.6593C51.1896 93.6188 51.206 93.5793 51.2248 93.5409C51.3759 93.157 51.5351 92.7528 51.7025 92.3363C51.7474 92.222 51.7923 92.1076 51.8413 91.9933C51.9148 91.7932 51.9965 91.585 52.0782 91.389C52.0782 91.3563 52.0782 91.3236 52.1149 91.2869C52.1598 91.1726 52.2088 91.0541 52.2538 90.9316C52.3477 90.6948 52.4375 90.458 52.5355 90.2171L52.7723 89.6005C52.9234 89.2126 53.0745 88.8246 53.2174 88.449C53.3236 88.1672 53.4298 87.8896 53.5359 87.6323C53.5563 87.5711 53.5808 87.5098 53.6013 87.4526C53.3808 87.8814 49.3015 95.7663 47.7539 97.4405C46.2064 99.1146 47.611 110.948 50.796 109.96C50.7919 109.952 51.5188 110.556 53.2419 109.164Z" fill="#67B18A"/>
<path opacity="0.4" d="M16.4841 109.209C16.039 113.815 16.3453 120.372 16.3453 120.372C16.3453 120.372 14.5568 123.329 13.9402 126.24C13.7728 127.024 12.756 128.837 11.3677 131.067C11.7229 130.589 15.5245 125.473 16.039 123.464C16.578 121.352 17.3375 120.94 19.2199 118.686C21.1023 116.432 22.8092 117.212 22.8092 117.212C22.8092 117.212 21.7148 123.831 24.4997 120.07C27.2845 116.31 28.9627 111.463 29.6242 93.2632C29.6242 93.2632 28.3992 95.2355 27.1742 101.736C25.9492 108.237 23.8708 109.744 23.8708 109.744C22.6906 105.124 22.0507 100.383 21.9639 95.6152C21.9639 95.6152 20.4327 103.182 19.9631 106.693C19.4935 110.205 19.3832 102.316 19.1464 97.3915C18.9177 92.7732 19.3138 91.1521 20.6817 88.2856C19.6977 90.2987 18.8402 92.2383 18.5788 93.7614C18.0357 96.8566 16.9292 104.603 16.4841 109.209Z" fill="#67B18A"/>
<path opacity="0.4" d="M40.3386 131.234C39.8004 131.796 39.2247 132.322 38.6154 132.806C36.243 134.729 30.7305 144.987 27.3291 151.59C28.011 148.694 29.236 144.619 31.294 140.997C34.9772 134.517 38.6113 132.81 40.3386 131.234Z" fill="#67B18A"/>
<path opacity="0.4" d="M50.437 72.7118C50.0899 73.8388 47.3867 78.4856 46.4149 80.1475C45.1899 81.5685 41.8375 88.5347 41.0167 89.5392C40.196 90.5437 38.6239 90.6294 39.3221 89.0859C40.4614 86.5665 43.9159 77.9384 45.7003 76.2643C47.4847 74.5901 50.2287 67.5096 51.617 63.5284C52.3153 61.5153 52.103 60.2617 51.715 59.4736C52.2904 59.8619 52.7109 60.4401 52.9033 61.107C53.965 64.292 50.8657 71.3153 50.437 72.7118Z" fill="#67B18A"/>
<path opacity="0.4" d="M56.4393 73.4223C54.4548 74.6473 51.3597 76.6359 49.7876 77.0973C49.9999 77.0565 52.797 76.5379 53.8056 78.2529C54.8509 80.0455 54.8183 84.1941 54.8183 84.1941C54.8183 84.1941 59.7182 80.0169 60.7472 77.6935C61.7762 75.3701 62.45 72.8139 61.2822 71.3725C58.5218 67.9874 58.4361 72.2137 56.4393 73.4223Z" fill="#67B18A"/>
<path d="M24.4669 157.274C24.4669 157.274 35.0835 135.685 38.6197 132.806C42.1559 129.928 42.1109 128.315 44.0219 126.248C45.9329 124.182 57.0559 120.94 58.4279 117.6C59.7999 114.26 62.1029 107.833 64.9857 104.358C67.8686 100.883 65.1532 101.675 69.3753 91.8587C69.3753 91.8587 68.9997 89.2086 65.5615 90.2907C62.1233 91.3728 59.5304 94.7293 58.8893 99.0576C58.8893 99.0576 54.6141 105.958 52.9808 107.351C51.3474 108.743 49.3058 97.5917 49.9305 96.53C50.5553 95.4683 54.1813 85.9542 54.8305 84.2106C54.8305 84.2106 59.7305 80.0293 60.7554 77.71C61.7803 75.3906 62.4622 72.81 61.2944 71.389C58.5341 67.9875 58.4361 72.2056 56.4516 73.4306C54.4671 74.6556 51.3556 76.6565 49.7835 77.126C48.2114 77.5956 46.0554 80.748 46.0554 80.748C46.0554 80.748 50.0081 74.0921 50.4368 72.712C50.8656 71.3318 53.9608 64.2921 52.8868 61.1602C51.8129 58.0283 48.8484 59.4044 48.485 59.8617C48.1216 60.3191 46.0799 67.4077 44.8917 69.2126L38.7667 78.5266C38.7667 78.5266 40.8778 70.4784 41.2739 66.7217C41.6699 62.9651 40.8655 59.7229 39.4078 59.139C37.95 58.5551 36.0472 59.8495 36.0472 59.8495C36.0472 59.8495 35.0631 65.7417 34.5241 67.0116C33.9851 68.2816 33.0827 73.1775 31.6658 75.5458C31.6658 75.5458 33.6462 68.7307 32.8255 67.5588C32.0047 66.3869 31.1921 65.7213 30.453 66.146C29.714 66.5706 28.44 70.5805 27.1578 72.8508C25.8756 75.1211 25.0304 78.449 23.5808 82.1363C22.1312 85.8235 19.1055 90.6623 18.5624 93.7738C18.0193 96.8853 16.9291 104.619 16.484 109.225C16.0389 113.831 16.3451 120.389 16.3451 120.389C16.3451 120.389 14.5566 123.345 13.9401 126.257C13.3235 129.168 1 146.265 1 146.265" stroke="#263238" stroke-linecap="round" stroke-linejoin="round"/>
<path d="M38.775 78.5265C37.5908 80.0128 33.8464 86.6401 32.9358 87.4486C32.4644 87.9073 31.8726 88.2231 31.229 88.3591" stroke="#263238" stroke-linecap="round" stroke-linejoin="round"/>
<path d="M31.6538 75.5457C31.6538 75.5457 31.4006 77.032 29.3141 81.4787C27.2275 85.9255 26.3006 87.7834 25.5737 88.6981" stroke="#263238" stroke-linecap="round" stroke-linejoin="round"/>
<path d="M46.0552 80.7479C44.3076 83.3123 42.5109 87.6896 41.5881 88.886C40.6652 90.0824 40.0977 90.2417 40.0977 90.2417" stroke="#263238" stroke-linecap="round" stroke-linejoin="round"/>
<path d="M42.6175 87.1138C41.9171 87.3913 41.2989 87.8423 40.8208 88.4245" stroke="#263238" stroke-linecap="round" stroke-linejoin="round"/>
<path d="M52.997 107.351C52.997 107.351 51.429 110.96 49.1587 110.013" stroke="#263238" stroke-linecap="round" stroke-linejoin="round"/>
<path d="M49.9303 96.5299C49.9303 96.5299 48.0806 100.83 48.5583 103.002" stroke="#263238" stroke-linecap="round" stroke-linejoin="round"/>
<path d="M31.1064 91.3564C31.1064 91.3564 29.2567 91.8832 29.5262 95.0314C29.7957 98.1797 28.4604 110.14 28.4604 110.14" stroke="#263238" stroke-linecap="round" stroke-linejoin="round"/>
<path d="M23.3846 92.4424C22.0126 94.827 21.9351 94.8924 22.1351 98.3305C22.3352 101.769 21.9351 109.984 21.9351 109.984" stroke="#263238" stroke-linecap="round" stroke-linejoin="round"/>
<path d="M16.3447 120.373C16.3447 120.373 17.9576 118.568 17.5697 116.616" stroke="#263238" stroke-linecap="round" stroke-linejoin="round"/>
<path d="M38.6197 132.806C38.6197 132.806 34.9855 135.754 32.707 139.552" stroke="#263238" stroke-linecap="round" stroke-linejoin="round"/>
</svg>
