<svg width="98" height="98" viewBox="0 0 98 98" fill="none" xmlns="http://www.w3.org/2000/svg">
<g clip-path="url(#clip0_417_26268)">
<path d="M57.1868 9.44132C48.504 9.34724 39.8153 11.6718 32.0635 15.5879C24.3117 19.504 17.5517 25.676 13.8061 33.516C10.0606 41.356 9.58234 50.8875 13.3828 58.6961C14.8077 61.6224 16.9598 64.3997 20.0017 65.5561C23.8923 67.034 28.2043 65.5718 32.3615 65.417C37.9965 65.2092 43.4296 67.4416 48.4335 70.0484C53.4373 72.6552 58.2668 75.705 63.6587 77.3534C69.0507 79.0017 75.2698 79.0644 79.9561 75.9304C84.3799 72.9728 86.726 67.6161 87.2865 62.3241C87.8471 57.0321 86.8553 51.7146 85.8695 46.4853C84.8346 41.0228 79.8366 9.68436 57.1868 9.44132Z" fill="#56AA7A"/>
<g opacity="0.7">
<path d="M57.1868 9.44132C48.504 9.34724 39.8153 11.6718 32.0635 15.5879C24.3117 19.504 17.5517 25.676 13.8061 33.516C10.0606 41.356 9.58234 50.8875 13.3828 58.6961C14.8077 61.6224 16.9598 64.3997 20.0017 65.5561C23.8923 67.034 28.2043 65.5718 32.3615 65.417C37.9965 65.2092 43.4296 67.4416 48.4335 70.0484C53.4373 72.6552 58.2668 75.705 63.6587 77.3534C69.0507 79.0017 75.2698 79.0644 79.9561 75.9304C84.3799 72.9728 86.726 67.6161 87.2865 62.3241C87.8471 57.0321 86.8553 51.7146 85.8695 46.4853C84.8346 41.0228 79.8366 9.68436 57.1868 9.44132Z" fill="white"/>
</g>
<path d="M49.3529 88.3098C64.9406 88.3098 77.5769 87.1006 77.5769 85.6089C77.5769 84.1172 64.9406 82.908 49.3529 82.908C33.7652 82.908 21.1289 84.1172 21.1289 85.6089C21.1289 87.1006 33.7652 88.3098 49.3529 88.3098Z" fill="#56AA7A"/>
<path opacity="0.5" d="M49.3529 88.3098C64.9406 88.3098 77.5769 87.1006 77.5769 85.6089C77.5769 84.1172 64.9406 82.908 49.3529 82.908C33.7652 82.908 21.1289 84.1172 21.1289 85.6089C21.1289 87.1006 33.7652 88.3098 49.3529 88.3098Z" fill="white"/>
<path d="M70.8366 33.2298C70.9326 34.0256 70.5484 35.1898 69.7252 35.1016C69.5907 35.0848 69.459 35.0505 69.3332 34.9997C69.4136 34.4117 69.0588 33.7473 69.3528 33.2357C69.5116 32.9496 69.9154 32.4184 70.229 32.3714C70.6562 32.3028 70.7817 32.7928 70.8366 33.2298Z" fill="#56AA7A"/>
<path d="M69.9289 35.7504C69.6545 36.3384 69.2782 36.8186 68.3942 36.7951C68.1962 36.787 68.0041 36.7261 67.8376 36.6187C67.7549 36.5687 67.6839 36.5015 67.6295 36.4217C67.575 36.3419 67.5384 36.2513 67.522 36.1561C67.5134 36.0312 67.5422 35.9065 67.6046 35.798C67.6671 35.6894 67.7605 35.6019 67.8728 35.5466C68.0996 35.4354 68.3475 35.3739 68.6 35.3663C68.8693 35.3493 69.1395 35.3771 69.3997 35.4486C69.5922 35.5177 69.7713 35.6199 69.9289 35.7504Z" fill="#56AA7A"/>
<path d="M67.9749 33.616C68.9019 34.6763 69.9231 35.621 70.8463 36.6422" stroke="#56AA7A" stroke-width="0.3" stroke-miterlimit="10"/>
<path d="M73.7921 36.4795C73.8206 36.9304 73.703 37.3785 73.4569 37.7574C73.2198 38.1102 72.8689 38.32 72.4769 38.2239C72.3493 38.1864 72.2258 38.1358 72.1085 38.073C72.1659 37.7692 72.1731 37.458 72.13 37.1518C72.078 36.8554 72.1183 36.5503 72.2457 36.2776C72.4103 35.9934 72.8023 35.4446 73.1433 35.4368C73.5981 35.427 73.7666 36.0032 73.7921 36.4795Z" fill="#56AA7A"/>
<path d="M72.577 38.8923C72.4111 39.1581 72.1848 39.381 71.9165 39.543C71.6039 39.7035 71.2468 39.7559 70.9012 39.692C70.7217 39.6687 70.5521 39.5961 70.4112 39.4822C70.3426 39.4338 70.2871 39.369 70.2498 39.2937C70.2125 39.2184 70.1946 39.135 70.1976 39.051C70.2132 38.9293 70.2603 38.8138 70.3342 38.7158C70.4081 38.6179 70.5062 38.5409 70.619 38.4924C70.8449 38.3945 71.0903 38.3496 71.3364 38.3611C71.6005 38.3621 71.8618 38.4161 72.1047 38.5199C72.2827 38.6154 72.4426 38.7415 72.577 38.8923Z" fill="#56AA7A"/>
<path d="M70.8462 36.652C71.3146 37.1557 71.7439 37.6908 72.1633 38.2318C72.5828 38.7727 72.9591 39.349 73.3099 39.9389" stroke="#56AA7A" stroke-width="0.3" stroke-miterlimit="10"/>
<path d="M76.2324 40.3231C76.1129 41.1816 75.37 42.1263 74.6135 41.7911C74.4927 41.7344 74.38 41.6619 74.2783 41.5755C74.3436 41.4369 74.3891 41.2897 74.4136 41.1384C74.439 40.9875 74.4528 40.8307 74.4704 40.6759C74.4782 40.3745 74.5788 40.0829 74.7585 39.8409C74.9761 39.594 75.4602 39.1334 75.8032 39.1882C76.2442 39.2666 76.2952 39.8605 76.2324 40.3231Z" fill="#56AA7A"/>
<path d="M74.5959 42.4673C74.1353 42.9436 73.6257 43.2513 72.8064 42.9593C72.4555 42.8436 72.14 42.5242 72.2184 42.1753C72.254 42.0581 72.3205 41.9526 72.4108 41.8698C72.5011 41.7871 72.612 41.7301 72.7319 41.7049C72.9751 41.6492 73.2277 41.6492 73.4708 41.7049C73.7288 41.7611 73.974 41.8648 74.1941 42.0106C74.3561 42.1356 74.4926 42.2906 74.5959 42.4673Z" fill="#56AA7A"/>
<path d="M73.3042 39.9291C74.0107 41.1099 74.6285 42.3416 75.1525 43.6139" stroke="#56AA7A" stroke-width="0.3" stroke-miterlimit="10"/>
<path d="M78.008 44.5096C77.8808 44.9538 77.6038 45.3402 77.224 45.6033C76.8712 45.8405 76.4694 45.8973 76.1402 45.6562C76.0345 45.5754 75.9385 45.4826 75.854 45.3799C76.024 45.1192 76.1406 44.8274 76.197 44.5214C76.2419 44.2253 76.3791 43.951 76.589 43.7374C76.836 43.5257 77.3887 43.1494 77.714 43.2396C77.8124 43.2719 77.8986 43.3335 77.961 43.4162C78.0233 43.4989 78.0589 43.5986 78.0629 43.7021C78.1041 43.9721 78.0853 44.2478 78.008 44.5096Z" fill="#56AA7A"/>
<path d="M75.9795 46.3109C75.4228 46.6676 74.8505 46.8185 74.1273 46.4011C73.8215 46.2266 73.5804 45.9032 73.7353 45.6171C73.8016 45.5191 73.8886 45.4369 73.9902 45.3762C74.0919 45.3156 74.2055 45.2781 74.3233 45.2662C74.5651 45.2398 74.8096 45.2742 75.0347 45.3662C75.2783 45.4585 75.4994 45.6014 75.6835 45.7856C75.8152 45.9399 75.9157 46.1183 75.9795 46.3109Z" fill="#56AA7A"/>
<path d="M75.1582 43.6139L75.5502 44.5724C75.671 44.8884 75.7737 45.211 75.8579 45.5386C76.032 46.1988 76.161 46.87 76.244 47.5476" stroke="#56AA7A" stroke-width="0.3" stroke-miterlimit="10"/>
<path d="M78.7058 49.196C78.456 49.5812 78.086 49.8733 77.6533 50.0271C77.2456 50.1584 76.8497 50.0996 76.5949 49.7781C76.5166 49.6711 76.4508 49.5553 76.3989 49.4332C76.885 49.0765 77.0457 48.3219 77.5867 48.0612C77.8866 47.9279 78.5255 47.7084 78.8078 47.9102C79.1841 48.1984 78.9704 48.804 78.7058 49.196Z" fill="#56AA7A"/>
<path d="M76.2441 50.372C75.9467 50.4696 75.6304 50.4958 75.3209 50.4484C74.9835 50.3766 74.6763 50.2028 74.4409 49.9506C74.1939 49.7036 74.0489 49.3293 74.2782 49.0706C74.3665 48.987 74.4741 48.9265 74.5914 48.8947C74.7087 48.8629 74.8321 48.8607 74.9505 48.8883C75.1904 48.9431 75.4144 49.0524 75.6051 49.2078C75.8116 49.3677 75.9836 49.5677 76.1108 49.7958C76.1931 49.9771 76.2384 50.173 76.2441 50.372Z" fill="#56AA7A"/>
<path d="M76.244 47.5476C76.4238 48.8995 76.39 50.2713 76.144 51.6127" stroke="#56AA7A" stroke-width="0.3" stroke-miterlimit="10"/>
<path d="M77.8513 54.096C77.6562 54.2399 77.4382 54.3499 77.2065 54.4214C76.9864 54.4882 76.7555 54.5121 76.5263 54.4919C76.3303 54.4867 76.1412 54.4184 75.987 54.2974C75.8327 54.1763 75.7215 54.0088 75.6698 53.8196C75.6438 53.6905 75.6293 53.5593 75.6267 53.4276C75.9236 53.334 76.1979 53.1798 76.4323 52.9749C76.6576 52.7696 76.9348 52.6299 77.2339 52.5711C77.5612 52.5437 78.2433 52.5319 78.4373 52.8357C78.7039 53.2336 78.2629 53.7785 77.8513 54.096Z" fill="#56AA7A"/>
<path d="M75.1152 54.1862C74.793 54.1447 74.488 54.0167 74.2326 53.8159C73.9773 53.6151 73.781 53.3488 73.6648 53.0455C73.5256 52.7417 73.5217 52.4104 73.8118 52.2869C73.9262 52.2519 74.0469 52.2423 74.1654 52.2589C74.284 52.2755 74.3974 52.3178 74.4978 52.383C74.7022 52.5138 74.8728 52.6911 74.9956 52.9004C75.1284 53.1184 75.2102 53.3637 75.2347 53.6178C75.2382 53.8138 75.1973 54.0081 75.1152 54.1862Z" fill="#56AA7A"/>
<path d="M76.1364 51.6127C76.0051 52.2747 75.7993 52.9197 75.5229 53.5354C75.2424 54.1442 74.8746 54.7087 74.4312 55.2112" stroke="#56AA7A" stroke-width="0.3" stroke-miterlimit="10"/>
<path d="M74.9093 58.0728C74.4739 58.1322 74.0305 58.0684 73.6294 57.8886C73.2374 57.7063 72.9846 57.3986 73.0199 56.989C73.0337 56.8545 73.066 56.7226 73.1159 56.597C73.7039 56.6714 74.3644 56.299 74.8799 56.5872C75.0682 56.6922 75.2489 56.81 75.4209 56.94C75.5083 56.998 75.5832 57.073 75.6411 57.1606C75.699 57.2481 75.7388 57.3464 75.758 57.4496C75.8364 57.869 75.3523 58.016 74.9093 58.0728Z" fill="#56AA7A"/>
<path d="M72.3711 57.1909C71.7831 56.9086 71.3264 56.5166 71.3264 55.6581C71.3264 55.2955 71.5401 54.8643 71.9281 54.8075C72.0533 54.7962 72.1791 54.8226 72.2891 54.8834C72.3992 54.9442 72.4885 55.0365 72.5455 55.1485C72.6605 55.3726 72.7273 55.6183 72.7415 55.8698C72.7648 56.1377 72.7416 56.4076 72.6729 56.6675C72.6055 56.8591 72.5032 57.0366 72.3711 57.1909Z" fill="#56AA7A"/>
<path d="M74.4311 55.2112C74.3272 55.3406 74.1998 55.4523 74.0861 55.5738L73.7117 55.9384L72.9728 56.6773C72.7278 56.9204 72.4848 57.1634 72.2339 57.3966C72.1085 57.5123 71.983 57.6279 71.8537 57.7396C71.7243 57.8514 71.593 57.9592 71.4617 58.0807" stroke="#56AA7A" stroke-width="0.3" stroke-miterlimit="10"/>
<path d="M72.1281 60.8051C71.933 60.8284 71.7362 60.8343 71.5401 60.8227C71.3273 60.8098 71.1165 60.775 70.9109 60.7188C70.5189 60.6091 70.1661 60.3817 70.1269 59.9721C70.1179 59.8373 70.1284 59.702 70.1583 59.5703C70.7659 59.5507 71.3637 59.1528 71.8948 59.4409C72.1829 59.5879 72.7141 59.9858 72.7964 60.2778C72.8256 60.3528 72.8256 60.4361 72.7964 60.5111C72.768 60.5767 72.7173 60.6301 72.6533 60.662C72.4869 60.7372 72.3096 60.7855 72.1281 60.8051Z" fill="#56AA7A"/>
<path d="M69.5351 60.3269C69.2223 60.2977 68.9207 60.1949 68.6551 60.027C68.4062 59.8467 68.2239 59.5585 68.1769 59.047C68.1337 58.6217 68.3729 58.0337 68.7962 57.8906C68.9191 57.8494 69.0525 57.8521 69.1737 57.8982C69.2948 57.9443 69.3962 58.0309 69.4607 58.1434C69.5886 58.3707 69.6699 58.6213 69.6998 58.8804C69.7414 59.1574 69.7493 59.4384 69.7233 59.7173C69.6883 59.928 69.625 60.1331 69.5351 60.3269Z" fill="#56AA7A"/>
<path d="M71.4598 58.0807C70.3888 59.0362 69.5456 60.2197 68.9922 61.544" stroke="#56AA7A" stroke-width="0.3" stroke-miterlimit="10"/>
<path d="M70.7561 63.7176C70.4108 63.9347 70.0268 64.0831 69.6252 64.1547C69.2097 64.2194 68.8118 64.1665 68.5982 63.8117C68.53 63.6946 68.4822 63.5666 68.457 63.4334C68.9921 63.1571 69.3724 62.5456 69.9721 62.575C70.2955 62.575 70.9521 62.7102 71.1481 62.9434C71.4088 63.2453 71.0736 63.504 70.7561 63.7176Z" fill="#56AA7A"/>
<path d="M68.208 64.386C67.5769 64.5644 66.9595 64.6839 66.4303 63.8078C66.3191 63.599 66.2606 63.3662 66.2598 63.1297C66.2589 62.8964 66.3441 62.671 66.4989 62.4966C66.5943 62.4075 66.7174 62.3539 66.8476 62.3446C66.9778 62.3353 67.1072 62.371 67.2143 62.4456C67.4241 62.5974 67.6025 62.7884 67.7396 63.0081C67.8955 63.2418 68.0231 63.4931 68.1198 63.7569C68.153 63.8585 68.1734 63.9638 68.1806 64.0705C68.208 64.1763 68.208 64.288 68.208 64.386Z" fill="#56AA7A"/>
<path d="M68.9921 61.544C68.4299 62.8626 68.172 64.2908 68.2375 65.7227" stroke="#56AA7A" stroke-width="0.3" stroke-miterlimit="10"/>
<path d="M84.8681 55.272C84.6921 55.4466 84.4846 55.5863 84.2566 55.6836C84.0462 55.7777 83.8187 55.827 83.5882 55.8286C83.3919 55.8439 83.196 55.7948 83.0301 55.6887C82.8642 55.5826 82.7374 55.4253 82.669 55.2406C82.6262 55.1137 82.5986 54.9821 82.5867 54.8486C82.8722 54.7199 83.1269 54.5314 83.3334 54.2959C83.5314 54.0574 83.7852 53.8716 84.0724 53.755C84.3918 53.6726 85.0622 53.5237 85.3032 53.8196C85.3755 53.9269 85.4182 54.0513 85.4272 54.1803C85.4361 54.3093 85.4109 54.4384 85.3542 54.5546C85.2445 54.8253 85.0788 55.0698 84.8681 55.272Z" fill="#56AA7A"/>
<path d="M82.1417 55.6758C81.8155 55.6704 81.4971 55.5747 81.222 55.3993C80.9469 55.2239 80.7259 54.9756 80.5835 54.682C80.4286 54.3959 80.364 54.0784 80.6423 53.947C80.8658 53.864 81.113 53.8725 81.3302 53.9706C81.5499 54.0684 81.7413 54.2201 81.8869 54.4116C82.0476 54.6103 82.1579 54.845 82.2083 55.0956C82.2286 55.2915 82.2059 55.4895 82.1417 55.6758Z" fill="#56AA7A"/>
<path d="M82.8139 53.0102C82.7894 54.3652 82.357 55.6814 81.5732 56.7871" stroke="#56AA7A" stroke-width="0.3" stroke-miterlimit="10"/>
<path d="M82.1907 59.733C81.7364 59.8435 81.2577 59.7907 80.8383 59.584C80.46 59.388 80.2268 59.0568 80.2816 58.6471C80.3058 58.5133 80.3425 58.382 80.3914 58.2551C80.9794 58.3551 81.6419 57.9141 82.2123 58.0866C82.5239 58.1905 83.157 58.4472 83.2138 58.802C83.3 59.292 82.6846 59.6154 82.1907 59.733Z" fill="#56AA7A"/>
<path d="M79.6251 58.8C79.3483 58.6529 79.1099 58.4427 78.9293 58.1865C78.7499 57.8922 78.6632 57.5508 78.6804 57.2065C78.6782 57.0392 78.7201 56.8743 78.8019 56.7283C78.8363 56.663 78.8875 56.6081 78.9502 56.5692C79.0129 56.5302 79.0848 56.5087 79.1586 56.5068C79.2788 56.5153 79.3954 56.5513 79.4995 56.6122C79.6035 56.673 79.6921 56.757 79.7584 56.8576C79.8938 57.0603 79.9798 57.2919 80.0092 57.5338C80.0451 57.7912 80.025 58.0533 79.9504 58.3022C79.876 58.488 79.7654 58.6573 79.6251 58.8Z" fill="#56AA7A"/>
<path d="M81.5733 56.7871C81.1902 57.3494 80.7465 57.868 80.2503 58.3335C79.748 58.7985 79.2078 59.2207 78.6353 59.5958" stroke="#56AA7A" stroke-width="0.3" stroke-miterlimit="10"/>
<path d="M78.2571 62.5417C77.8081 62.4869 77.3884 62.2898 77.0595 61.9791C76.7557 61.6793 76.6127 61.3029 76.7832 60.9286C76.8413 60.8075 76.9143 60.6943 77.0007 60.5915C77.5417 60.86 78.2885 60.6659 78.7549 61.0423C79.0078 61.25 79.488 61.7243 79.4311 62.0693C79.3527 62.524 78.7314 62.6005 78.2571 62.5417Z" fill="#56AA7A"/>
<path d="M76.1029 60.9031C75.6325 60.4425 75.3405 59.9231 75.6267 59.1097C75.7501 58.7686 76.048 58.4492 76.391 58.5334C76.507 58.5719 76.6112 58.6395 76.6936 58.7297C76.7759 58.82 76.8337 58.9299 76.8614 59.0489C76.9174 59.2901 76.9174 59.5408 76.8614 59.782C76.8086 60.0415 76.7061 60.2884 76.5596 60.5091C76.4324 60.6669 76.2777 60.8004 76.1029 60.9031Z" fill="#56AA7A"/>
<path d="M78.6353 59.5958C77.4708 60.3386 76.2335 60.9605 74.9426 61.4519" stroke="#56AA7A" stroke-width="0.3" stroke-miterlimit="10"/>
<path d="M74.1802 64.2645C73.7709 64.1316 73.4047 63.8913 73.1199 63.5687C72.8455 63.2512 72.7044 62.8729 72.9004 62.5064C72.9679 62.3898 73.051 62.283 73.1473 62.1888C73.6648 62.5005 74.4096 62.4319 74.7957 62.8905C75.0034 63.1414 75.3739 63.702 75.2739 64.0234C75.1406 64.4507 74.5938 64.3919 74.1802 64.2645Z" fill="#56AA7A"/>
<path d="M72.2125 62.4574C71.7499 61.9929 71.3932 61.4891 71.8205 60.6365C72.0047 60.2779 72.4301 59.9505 72.8005 60.0623C72.9183 60.1046 73.0209 60.1807 73.0955 60.2811C73.1701 60.3816 73.2134 60.5018 73.2199 60.6267C73.2333 60.8785 73.1911 61.13 73.0965 61.3637C73.0017 61.6203 72.866 61.8599 72.6947 62.0732C72.5537 62.2243 72.3913 62.3537 72.2125 62.4574Z" fill="#56AA7A"/>
<path d="M74.9426 61.4519C73.6569 61.9634 72.3045 62.3907 71.0481 63.0865" stroke="#56AA7A" stroke-width="0.3" stroke-miterlimit="10"/>
<path d="M71.1481 65.8658C70.7559 65.8147 70.3738 65.7037 70.0153 65.5365C69.6468 65.3601 69.3254 65.0975 69.3489 64.682C69.3617 64.5465 69.3968 64.414 69.4528 64.29C69.7574 64.3125 70.0634 64.3125 70.3681 64.29C70.656 64.2639 70.9435 64.3449 71.1756 64.5173C71.4265 64.7231 71.8596 65.2249 71.8773 65.5287C71.9106 65.9187 71.5147 65.8991 71.1481 65.8658Z" fill="#56AA7A"/>
<path d="M68.7099 64.9623C68.4002 64.9053 68.1081 64.7764 67.8573 64.5859C67.6319 64.3899 67.4829 64.0469 67.5457 63.4962C67.5927 63.0297 67.9847 62.4397 68.4492 62.3692C68.5795 62.3465 68.7136 62.372 68.8264 62.4409C68.9393 62.5098 69.0233 62.6173 69.0627 62.7435C69.1375 62.9977 69.1621 63.264 69.1352 63.5275C69.1173 63.8145 69.07 64.0989 68.9941 64.3762C68.9189 64.5805 68.8237 64.7768 68.7099 64.9623Z" fill="#56AA7A"/>
<path d="M71.0482 63.0865C70.4118 63.4308 69.826 63.8615 69.3077 64.3664C68.7741 64.8777 68.3593 65.5 68.0925 66.1892" stroke="#56AA7A" stroke-width="0.3" stroke-miterlimit="10"/>
<path d="M63.7276 86.6947C63.6629 86.7104 61.405 86.7104 61.3383 86.6947C59.6821 86.3302 53.8002 84.3976 59.102 78.1393H65.8894C71.1873 84.3957 65.3857 86.3302 63.7276 86.6947Z" fill="white" stroke="#263238" stroke-width="0.3" stroke-miterlimit="10"/>
<path d="M65.8875 78.1805C65.8875 78.2824 65.7346 78.3765 65.4661 78.4608C64.8781 78.2785 63.7648 78.157 62.4751 78.157C61.1854 78.157 60.0663 78.2785 59.4861 78.4608C59.2176 78.3785 59.0647 78.2824 59.0647 78.1805C59.0647 77.8591 60.5915 77.5925 62.4751 77.5925C64.3587 77.5925 65.8875 77.8591 65.8875 78.1805Z" fill="white" stroke="#263238" stroke-width="0.3" stroke-miterlimit="10"/>
<path d="M65.4641 78.4608C64.8761 78.6411 63.7628 78.7626 62.4731 78.7626C61.1835 78.7626 60.0643 78.6411 59.4841 78.4608C60.0721 78.2785 61.1854 78.157 62.4731 78.157C63.7609 78.157 64.8859 78.2785 65.4641 78.4608Z" fill="#263238" stroke="#263238" stroke-width="0.3" stroke-miterlimit="10"/>
<path d="M65.0898 79.9523C65.327 79.9033 65.5622 79.8484 65.7915 79.7877L65.0898 79.9523Z" fill="white"/>
<path d="M65.0898 79.9523C65.327 79.9033 65.5622 79.8484 65.7915 79.7877" stroke="#263238" stroke-width="0.3" stroke-miterlimit="10"/>
<path d="M59.2351 79.6877C60.8541 80.2757 62.7533 80.3326 64.5134 80.0562L59.2351 79.6877Z" fill="white"/>
<path d="M59.2351 79.6877C60.8541 80.2757 62.7533 80.3326 64.5134 80.0562" stroke="#263238" stroke-width="0.3" stroke-miterlimit="10"/>
<path d="M67.4241 68.5628C66.6499 68.6275 65.5778 68.1414 65.6111 67.3868C65.6208 67.2665 65.6458 67.1479 65.6856 67.034C66.2462 67.1653 66.8361 66.8556 67.3653 67.1124C67.6554 67.2574 68.2297 67.6024 68.2885 67.9277C68.359 68.3609 67.8455 68.5275 67.4241 68.5628Z" fill="#56AA7A"/>
<path d="M65.0134 67.5161C64.445 67.2104 63.9864 66.8184 63.9766 65.9834C63.9766 65.6326 64.149 65.2602 64.4803 65.2641C64.6011 65.2756 64.7175 65.3158 64.8197 65.3812C64.922 65.4467 65.0072 65.5355 65.0683 65.6404C65.1929 65.8463 65.273 66.076 65.3035 66.3147C65.341 66.5591 65.3323 66.8084 65.278 67.0497C65.2205 67.2207 65.1307 67.379 65.0134 67.5161Z" fill="#56AA7A"/>
<path d="M66.8047 65.8148C66.0207 66.7008 65.1093 67.4828 64.2332 68.3256" stroke="#56AA7A" stroke-width="0.3" stroke-miterlimit="10"/>
<path d="M64.9682 70.952C64.5712 70.9587 64.1769 70.884 63.8099 70.7325C63.4433 70.5718 63.1023 70.3287 63.069 69.9485C63.0603 69.8266 63.0716 69.7042 63.1023 69.5859C63.6707 69.6427 64.2313 69.337 64.7467 69.6251C65.029 69.7799 65.566 70.168 65.6464 70.464C65.7503 70.8599 65.3406 70.9403 64.9682 70.952Z" fill="#56AA7A"/>
<path d="M62.5026 70.2072C62.1946 70.1488 61.9022 70.0266 61.6442 69.8485C61.4011 69.6525 61.2326 69.3722 61.213 68.8685C61.1934 68.4491 61.3972 67.9748 61.7833 67.9003C61.9073 67.8859 62.0327 67.9081 62.1441 67.9642C62.2556 68.0203 62.3482 68.1078 62.4105 68.2158C62.536 68.4286 62.6191 68.6635 62.6555 68.9077C62.7022 69.1604 62.7128 69.4184 62.6869 69.6741C62.6513 69.8597 62.5892 70.0392 62.5026 70.2072Z" fill="#56AA7A"/>
<path d="M64.2332 68.3256C63.7896 68.7479 63.3701 69.1948 62.9768 69.6643C62.7764 69.9047 62.593 70.1588 62.428 70.4248C62.3496 70.562 62.2653 70.6933 62.1948 70.8344L61.9988 71.2578" stroke="#56AA7A" stroke-width="0.3" stroke-miterlimit="10"/>
<path d="M63.8039 73.2609C63.4523 73.4436 63.0692 73.558 62.675 73.598C62.2692 73.6372 61.8616 73.5627 61.6558 73.2433C61.593 73.1391 61.5461 73.0261 61.5166 72.9081C61.7706 72.7853 62.011 72.6361 62.234 72.4632C62.4527 72.2992 62.7213 72.2155 62.9944 72.226C63.312 72.2476 63.9607 72.4024 64.1704 72.6082C64.3116 72.7474 64.3018 72.863 64.2136 72.9669C64.0975 73.0907 63.9583 73.1905 63.8039 73.2609Z" fill="#56AA7A"/>
<path d="M61.2639 73.7195C60.6269 73.8332 60.0115 73.8822 59.4999 73.1198C59.2902 72.7964 59.2431 72.2593 59.5626 72.0006C59.6639 71.9263 59.7857 71.8851 59.9113 71.8826C60.0369 71.8802 60.1602 71.9166 60.2643 71.9869C60.4734 72.1238 60.6543 72.2994 60.7974 72.5043C60.9539 72.7084 61.0825 72.9326 61.1796 73.1707C61.2351 73.3484 61.2635 73.5334 61.2639 73.7195Z" fill="#56AA7A"/>
<path d="M61.991 71.2578C61.7481 71.8289 61.5635 72.4232 61.4403 73.0315C61.3151 73.6342 61.2365 74.2455 61.2051 74.8602" stroke="#56AA7A" stroke-width="0.3" stroke-miterlimit="10"/>
<path d="M63.5491 76.2675C63.2686 76.5568 62.9289 76.7821 62.5534 76.928C62.1614 77.0731 61.7694 77.0986 61.4754 76.8457C61.3864 76.7626 61.311 76.666 61.252 76.5596C61.7086 76.2126 61.8948 75.5952 62.4711 75.4541C62.7827 75.3738 63.4393 75.2914 63.702 75.4443C64.043 75.6403 63.8058 75.9853 63.5491 76.2675Z" fill="#56AA7A"/>
<path d="M61.2147 77.4043C60.6365 77.6709 60.0387 77.8551 59.3665 77.273C59.0783 77.028 58.9059 76.5537 59.1273 76.246C59.2095 76.1526 59.3166 76.0846 59.436 76.0499C59.5554 76.0152 59.6822 76.0152 59.8016 76.05C60.0389 76.1172 60.2616 76.2283 60.4582 76.3773C60.6656 76.525 60.8493 76.7034 61.0031 76.9065C61.1022 77.0588 61.1738 77.2273 61.2147 77.4043Z" fill="#56AA7A"/>
<path d="M61.2051 74.8603C61.1391 76.0852 61.2141 77.3137 61.4285 78.5215" stroke="#56AA7A" stroke-width="0.3" stroke-miterlimit="10"/>
<path d="M68.5492 74.6446C67.775 74.8838 66.6147 74.6152 66.5363 73.8352C66.5273 73.7092 66.5352 73.5827 66.5598 73.4588C67.1478 73.4726 67.6907 73.0276 68.267 73.1707C68.5806 73.255 69.2156 73.4804 69.3254 73.7979C69.4685 74.2272 68.9726 74.5231 68.5492 74.6446Z" fill="#56AA7A"/>
<path d="M65.9542 74.088C65.3348 73.892 64.8154 73.5863 64.6782 72.7454C64.6194 72.3907 64.7351 71.9791 65.0702 71.9124C65.1905 71.9004 65.3119 71.9179 65.4239 71.9633C65.5359 72.0088 65.6351 72.0807 65.7131 72.1731C65.8726 72.3587 65.9884 72.5777 66.0522 72.814C66.128 73.0566 66.158 73.3112 66.1404 73.5647C66.1108 73.749 66.0477 73.9264 65.9542 74.088Z" fill="#56AA7A"/>
<path d="M67.4907 71.9751C66.8576 73.0551 66.0501 74.0449 65.2817 75.0719" stroke="#56AA7A" stroke-width="0.3" stroke-miterlimit="10"/>
<path d="M66.3148 77.6748C65.913 77.7634 65.496 77.756 65.0976 77.6533C64.6958 77.5455 64.3548 77.3279 64.2862 76.9398C64.2666 76.8145 64.2666 76.6869 64.2862 76.5615C64.8742 76.5361 65.4073 76.1166 65.9679 76.3126C66.2736 76.4185 66.8714 76.7046 66.9851 77.0045C67.1321 77.3965 66.6989 77.5788 66.3148 77.6748Z" fill="#56AA7A"/>
<path d="M63.7275 77.2632C63.0885 77.1456 62.5025 76.9614 62.3241 76.0441C62.2886 75.8414 62.3082 75.6329 62.381 75.4404C62.4129 75.3486 62.4646 75.2649 62.5323 75.1951C62.6 75.1254 62.6821 75.0713 62.773 75.0367C62.8938 75.0067 63.0206 75.0124 63.1382 75.0531C63.2558 75.0938 63.3591 75.1677 63.4355 75.266C63.591 75.4612 63.7039 75.6869 63.7667 75.9285C63.8424 76.1795 63.8794 76.4405 63.8765 76.7027C63.8566 76.8962 63.8064 77.0854 63.7275 77.2632Z" fill="#56AA7A"/>
<path d="M65.2819 75.068C64.4764 76.0874 63.7844 77.1915 63.218 78.3608" stroke="#56AA7A" stroke-width="0.3" stroke-miterlimit="10"/>
<path d="M81.9144 52.6299C81.8289 52.1706 81.9184 51.6959 82.1652 51.2991C82.1946 51.2619 82.6278 50.7346 82.7748 50.7483C83.1011 50.9117 83.3628 51.1803 83.5176 51.5108C83.7011 51.8563 83.7782 52.2485 83.7391 52.6378C83.694 53.0023 83.3314 53.6981 82.8414 53.7275C82.3514 53.7569 81.979 52.9651 81.9144 52.6299Z" fill="#56AA7A"/>
<path d="M45.8787 -2.15601C45.3551 -0.662479 44.6361 0.755156 43.7404 2.05995C42.8584 3.36864 41.8557 4.5918 40.7455 5.71339L40.6201 5.8408C40.8612 5.35621 41.0694 4.85593 41.2433 4.34335C41.4883 3.53975 41.5021 2.74399 40.722 2.38335C39.7616 1.92863 38.6973 2.78515 39.0893 4.09639C39.3385 4.86944 39.7748 5.56897 40.3594 6.13283C39.4205 7.04055 38.4283 7.8914 37.388 8.68083C37.6163 8.21378 37.8127 7.73182 37.976 7.23827C38.2191 6.43075 38.2308 5.62519 37.4527 5.26847C36.4962 4.80199 35.4378 5.66047 35.8298 6.96975C36.0674 7.71544 36.4808 8.39305 37.0352 8.94543C35.8455 9.85879 34.6303 10.7486 33.4759 11.7169C33.7057 11.2431 33.9022 10.7539 34.0639 10.2528C34.3069 9.44523 34.3206 8.63968 33.5445 8.28099C32.586 7.83019 31.5198 8.68671 31.9118 9.99403C32.1546 10.7497 32.5754 11.436 33.1387 11.9952C32.635 12.4382 32.1352 12.8792 31.6491 13.33C31.2944 13.6749 30.9475 14.0218 30.6103 14.3825C30.7479 14.0792 30.8664 13.7676 30.9651 13.4495C31.2081 12.644 31.2258 11.8502 30.4457 11.4895C29.4853 11.0348 28.421 11.8815 28.813 13.2026C29.0417 13.9186 29.432 14.5725 29.9537 15.1136C29.0043 16.2053 28.1634 17.3868 27.443 18.6416C27.508 18.2903 27.5525 17.9356 27.5763 17.5792C27.6174 16.7364 27.443 15.9642 26.5963 15.7937C25.5555 15.5859 24.7284 16.6757 25.4203 17.8517C25.8196 18.4964 26.3622 19.0403 27.0059 19.4412C26.3082 20.7897 25.7437 22.2031 25.3203 23.6611C25.2854 23.3631 25.2337 23.0674 25.1655 22.7752C24.9695 21.9579 24.5775 21.264 23.717 21.3424C22.6625 21.4385 22.1784 22.7144 23.18 23.6454C23.7154 24.1261 24.3506 24.4822 25.04 24.6882C24.7602 25.8186 24.5475 26.9646 24.403 28.1201C24.3815 28.3024 24.3638 28.4847 24.3442 28.667C24.3066 28.7027 24.2718 28.7414 24.2403 28.7826L24.0737 28.3396C23.7503 27.5556 23.2603 26.9363 22.4254 27.148C21.3944 27.4047 21.1122 28.7395 22.247 29.5C22.8237 29.8762 23.4737 30.1254 24.1541 30.231C24.1639 30.2622 24.1792 30.2914 24.1992 30.3173C24.1443 31.181 24.1208 32.048 24.1286 32.9182C24.1286 33.567 24.1561 34.2138 24.1913 34.8645C23.2878 34.9311 22.7213 35.9621 23.4211 36.993C23.7153 37.4221 24.0805 37.7979 24.501 38.1044C24.6617 39.3156 24.8682 40.5197 25.1204 41.7166C24.9847 41.6076 24.8229 41.5359 24.651 41.5088C24.4791 41.4816 24.303 41.4999 24.1404 41.5618C23.5837 41.7578 23.3564 42.2321 23.3093 42.8025C23.1287 43.028 23.041 43.3141 23.0643 43.6022C22.5881 43.0142 22.149 42.387 21.7159 41.7598C22.2743 41.2622 22.7234 40.6542 23.0349 39.9742C23.6229 38.6551 22.7801 37.6104 21.808 37.9515C21.024 38.2259 20.8946 39.053 20.9887 39.9428C21.024 40.2757 21.079 40.6062 21.1533 40.9326C20.9965 40.6974 20.8397 40.4642 20.6869 40.227C20.2949 39.639 19.9479 39.0099 19.5775 38.4042C19.4839 38.2566 19.3982 38.1042 19.3207 37.9476C19.9617 37.5652 20.5163 37.0539 20.9495 36.4462C21.7688 35.2702 21.1455 34.0726 20.1165 34.2294C19.2874 34.3529 19.013 35.1506 18.9405 36.0326C18.9095 36.4166 18.9029 36.8022 18.9209 37.1871L18.574 36.5207C17.8324 35.0131 17.1984 33.4549 16.6767 31.8578C17.4087 31.5382 18.0612 31.061 18.5877 30.4604C19.5285 29.3647 19.0169 28.1201 17.9781 28.1613C17.1432 28.2024 16.7904 28.9708 16.6257 29.839C16.5455 30.3032 16.4944 30.7719 16.4729 31.2424C16.1841 30.3277 15.9273 29.4007 15.7026 28.4612C15.5517 27.8732 15.4439 27.2852 15.3243 26.6972C16.1218 26.4813 16.8593 26.0857 17.4803 25.5408C18.5524 24.5764 18.2055 23.275 17.1804 23.1888C16.3474 23.1202 15.9064 23.8316 15.6124 24.6744C15.4543 25.2068 15.3279 25.748 15.2341 26.2954C15.1205 25.6113 14.9989 24.9234 14.9205 24.2374C14.7253 22.8156 14.6277 21.3821 14.6285 19.9469C14.5846 21.3862 14.6383 22.8269 14.7892 24.2589C14.8441 24.9175 14.9382 25.5721 15.0244 26.2307C14.8116 25.7998 14.5707 25.3834 14.3031 24.9841C13.819 24.2942 13.2055 23.7885 12.4313 24.1707C11.4827 24.6431 11.4925 26.0112 12.7626 26.5129C13.52 26.781 14.3313 26.8603 15.1263 26.7442C15.2224 27.3322 15.3223 27.9202 15.4458 28.4925C15.6366 29.4072 15.8587 30.3218 16.1122 31.2365C15.8863 30.8997 15.6409 30.5764 15.3772 30.2683C14.8088 29.647 14.1326 29.2197 13.4172 29.7077C12.5333 30.2957 12.7234 31.652 14.0542 31.997C14.8019 32.1702 15.5797 32.1668 16.3259 31.9872C16.8012 33.6079 17.3907 35.1929 18.0899 36.7304L18.3113 37.191C18.1259 36.9816 17.9296 36.7821 17.7233 36.5932C17.0981 36.0326 16.3847 35.6818 15.7183 36.2326C14.9009 36.9088 15.2263 38.2357 16.5787 38.4376C17.3263 38.5355 18.0863 38.4591 18.7994 38.2141C18.8778 38.3729 18.9562 38.5277 19.0444 38.6786C19.4011 39.3039 19.7363 39.9546 20.1145 40.5681C20.2204 40.7445 20.3321 40.9189 20.4419 41.0953C20.2674 40.9631 20.0862 40.8401 19.8989 40.7268C19.1796 40.2917 18.4113 40.08 17.8586 40.7268C17.1824 41.5481 17.7488 42.7907 19.1169 42.7319C19.8201 42.6966 20.5071 42.5079 21.1298 42.1792C21.5689 42.8593 22.0236 43.5277 22.5018 44.1902C22.6848 44.4384 22.8696 44.6854 23.0565 44.931C22.7915 44.7186 22.514 44.5222 22.2255 44.343C21.5061 43.9079 20.7378 43.6962 20.1851 44.343C19.5089 45.1623 20.0753 46.4069 21.4454 46.3481C22.2257 46.3007 22.9836 46.0683 23.6563 45.67C23.9052 45.9698 24.16 46.2678 24.4226 46.5598C23.9581 47.185 24.1913 48.1631 25.2576 48.5394C25.7755 48.7115 26.3192 48.7924 26.8648 48.7785C26.9334 48.8256 27 48.8706 27.0725 48.9138L27.1059 48.9373C27.9343 51.3285 28.8803 53.6739 29.9439 55.9737C30.613 57.4241 31.3231 58.8536 32.0745 60.2622C32.8349 61.6734 33.6131 63.0532 34.497 64.4272L35.8083 63.5432C34.9537 62.2712 34.1442 60.909 33.3739 59.5487C32.6037 58.1885 31.8804 56.791 31.1925 55.3837C30.2811 53.5041 29.4402 51.5931 28.6856 49.6448C28.7973 49.6625 28.8973 49.6899 29.0188 49.6978C29.1605 49.7138 29.3038 49.7091 29.4441 49.684L29.207 48.655L29.1795 48.6668H29.0894C29.0325 48.6668 28.9561 48.6452 28.8934 48.6394C28.7445 48.6095 28.5983 48.5676 28.4563 48.5139L28.2877 48.4473C28.8821 48.1944 29.4244 47.8336 29.8871 47.383C30.9181 46.3697 30.5123 45.0878 29.4833 45.0506C28.6484 45.0212 28.2309 45.7542 27.9918 46.6049C27.9251 46.846 27.8722 47.0968 27.8271 47.3438C27.7429 47.1223 27.6645 46.9146 27.6037 46.6911C27.392 46.0482 27.1901 45.4021 26.9981 44.7527C27.6429 44.495 28.2314 44.1142 28.7307 43.6316C29.7577 42.6182 29.354 41.3364 28.3269 41.2972C27.49 41.2678 27.0745 42.0008 26.8354 42.8515C26.7665 43.1 26.7102 43.3519 26.6668 43.6061C26.5375 43.1298 26.4101 42.6555 26.2905 42.1792C26.2043 41.8244 26.1219 41.4677 26.0455 41.113C25.9867 40.6034 25.9436 40.0918 25.9103 39.5783C25.8965 39.296 25.8828 39.0158 25.875 38.7316C26.5081 38.8838 27.1634 38.9203 27.8095 38.8394C29.2403 38.6434 29.6852 37.3772 28.8816 36.7284C28.2329 36.2012 27.4606 36.5422 26.757 37.0812C26.4453 37.3299 26.1482 37.5962 25.8671 37.879C25.8683 36.6705 25.964 35.4641 26.1533 34.2706C26.271 33.5703 26.4261 32.8768 26.6178 32.193C27.2946 32.3745 28.0001 32.423 28.6954 32.3361C30.1262 32.1401 30.5692 30.8739 29.7675 30.2252C29.1188 29.7097 28.3426 30.0292 27.6429 30.578C27.3939 30.7725 27.1557 30.9806 26.9295 31.2012C27.1605 30.5296 27.4375 29.8748 27.7585 29.2412C28.4067 27.966 29.2461 26.7973 30.2477 25.776C30.835 26.2424 31.5133 26.5809 32.2391 26.7697C33.6366 27.1225 34.5205 26.1092 34.0227 25.2017C33.6111 24.4726 32.7683 24.498 31.9137 24.7313C31.5916 24.8254 31.2749 24.9373 30.9651 25.0664H30.9886C32.0977 24.0624 33.3075 23.1757 34.5989 22.4204C35.1148 23.0077 35.7521 23.4758 36.4668 23.7924C37.7937 24.3608 38.8286 23.5024 38.4739 22.5322C38.1799 21.7482 37.3469 21.6384 36.4707 21.7482C36.127 21.7945 35.7861 21.86 35.4496 21.9442C36.8216 21.1739 38.2289 20.4291 39.5773 19.5922L39.6087 19.5804C40.2754 20.0761 41.0473 20.4115 41.8647 20.5604C43.2876 20.8074 44.0814 19.7294 43.5248 18.8728C43.0622 18.1751 42.2214 18.2652 41.3884 18.569C41.1551 18.6553 40.9258 18.765 40.7043 18.8611C41.5995 18.2521 42.463 17.5979 43.2915 16.9011L43.3719 16.9736L43.3856 16.9383C44.0556 17.4424 44.8342 17.7827 45.6592 17.932C47.0841 18.179 47.874 17.101 47.3193 16.2445C46.8548 15.5467 46.0179 15.6369 45.1829 15.9387C44.5958 16.1782 44.0226 16.4504 43.466 16.7541C43.7639 16.4973 44.054 16.2366 44.348 15.9701C45.676 14.7399 46.9287 13.4308 48.0994 12.0501C46.7226 13.6023 45.235 15.0526 43.6483 16.3895C43.8523 15.9717 44.0284 15.5409 44.1755 15.0998C44.4185 14.2923 44.4303 13.4868 43.6541 13.1398C42.6937 12.6851 41.6295 13.5318 42.0215 14.8529C42.2531 15.5778 42.6503 16.2388 43.1818 16.7835C42.1455 17.6136 41.056 18.375 39.9203 19.063L39.8106 19.1296C40.0299 18.6803 40.2185 18.2167 40.3751 17.7419C40.6161 16.9344 40.6338 16.1406 39.8537 15.7819C38.8933 15.3292 37.829 16.1857 38.223 17.495C38.4497 18.2114 38.8395 18.8655 39.3617 19.406C37.9897 20.2056 36.5707 20.9054 35.1517 21.656L34.94 21.7678C35.2044 21.4417 35.446 21.0979 35.6632 20.7388C36.0866 20.0096 36.2885 19.2394 35.6142 18.7004C34.7871 18.0379 33.5601 18.618 33.6287 19.9881C33.685 20.7408 33.9137 21.4704 34.2971 22.1206C32.982 22.8332 31.7428 23.6777 30.5986 24.6411L30.5613 24.6764C30.7066 24.4052 30.8375 24.1265 30.9533 23.8414C31.2552 23.0574 31.3316 22.2636 30.579 21.8383C30.4453 21.7609 30.2976 21.7106 30.1445 21.6903C29.9913 21.67 29.8357 21.6801 29.6865 21.72C29.5372 21.7598 29.3973 21.8287 29.2746 21.9227C29.152 22.0166 29.0491 22.1338 28.9718 22.2676C28.929 22.3437 28.8935 22.4238 28.8659 22.5067C28.7616 22.3646 28.6235 22.2508 28.4641 22.1754C27.7095 21.8089 27.0333 22.3107 26.4689 22.9928C26.3217 23.1707 26.1843 23.3565 26.0573 23.5494C26.4332 22.2109 26.9332 20.9103 27.5508 19.6647C28.2416 19.9103 28.9751 20.013 29.7068 19.9665C31.1454 19.8607 31.6668 18.62 30.9083 17.9281C30.2909 17.3597 29.4971 17.6518 28.764 18.1457C28.5203 18.3109 28.2854 18.4889 28.0604 18.6788C28.7108 17.5221 29.468 16.4289 30.3222 15.4134C30.9574 15.8583 31.6817 16.1599 32.4449 16.2974C33.8698 16.5444 34.6597 15.4664 34.1031 14.6098C33.6425 13.9121 32.8036 14.0022 31.9667 14.308C31.5756 14.4571 31.194 14.6299 30.824 14.8254C31.1846 14.4334 31.5453 14.0414 31.9216 13.6494C32.4129 13.1634 32.9225 12.6903 33.4504 12.2304C34.0788 12.6619 34.7916 12.9552 35.5417 13.0908C36.9666 13.3339 37.7585 12.2578 37.1999 11.4013C36.7393 10.7036 35.9004 10.7937 35.0654 11.0975C34.8694 11.1681 34.6771 11.2486 34.4892 11.3386C35.3927 10.5879 36.3218 9.86271 37.2469 9.12575C37.9006 9.59987 38.6519 9.92196 39.446 10.0685C40.8709 10.3135 41.6608 9.23551 41.1061 8.37899C40.6436 7.6832 39.8047 7.77336 38.9697 8.0752C38.6464 8.19911 38.3298 8.33976 38.0211 8.49659C38.4131 8.18103 38.7933 7.85959 39.1559 7.53031C39.4539 7.27159 39.7322 6.98544 40.0164 6.70123C40.181 6.54836 40.3417 6.38764 40.4966 6.22495C41.1538 6.69878 41.9084 7.02017 42.7055 7.16575C44.1304 7.40879 44.934 6.32883 44.3676 5.47427C43.9031 4.77651 43.0642 4.86667 42.2312 5.17243C41.7723 5.35042 41.3252 5.55729 40.8925 5.7918C41.9652 4.65276 42.9316 3.41805 43.7796 2.10307C44.6642 0.782232 45.37 -0.649901 45.8787 -2.15601ZM26.3493 46.5069C26.2079 46.3471 26.0293 46.2246 25.8293 46.1501C25.6294 46.0756 25.4142 46.0514 25.2027 46.0796C24.8911 45.764 24.5931 45.4367 24.3011 45.0996L24.4971 44.9036C24.9001 44.9994 25.3138 45.0429 25.728 45.033L25.7495 45.0937L25.9455 45.0388C26.0651 45.5308 26.2003 46.0208 26.3493 46.5069ZM25.3791 34.1216C25.3085 34.498 25.2517 34.8782 25.2007 35.2584L25.138 35.2016C25.0714 34.4352 25.0302 33.6669 25.0067 32.8966C24.993 32.3596 24.993 31.8206 25.0067 31.2816C25.2851 31.5298 25.5893 31.7473 25.9142 31.9304C25.6952 32.65 25.5179 33.3816 25.383 34.1216H25.3791ZM26.4218 30.4937C26.4218 30.3506 26.4336 30.2114 26.4336 30.0684C26.4336 29.9978 26.4336 29.9272 26.4336 29.8567C26.549 29.8173 26.661 29.7688 26.7687 29.7116C26.6453 29.9704 26.5335 30.231 26.4277 30.4956L26.4218 30.4937ZM27.9055 24.4451C28.3273 24.3052 28.6843 24.0178 28.911 23.6356C29.0931 24.2635 29.399 24.8486 29.8107 25.3565C29.0895 26.0672 28.4432 26.8501 27.882 27.6928C27.818 27.5725 27.7303 27.4664 27.6242 27.3809C27.5181 27.2953 27.3958 27.2321 27.2646 27.195C26.4649 26.95 25.8809 27.5478 25.4085 28.3142L25.3909 28.3514L25.3379 28.3416C25.2838 28.3367 25.2294 28.3367 25.1753 28.3416C25.1753 28.2965 25.1753 28.2514 25.189 28.2103C25.3141 27.0527 25.5104 25.9039 25.777 24.7705C26.5019 24.8073 27.2267 24.6966 27.9075 24.4451H27.9055Z" fill="#56AA7A"/>
<g opacity="0.7">
<path opacity="0.4" d="M45.8787 -2.15601C45.3551 -0.662479 44.6361 0.755156 43.7404 2.05995C42.8584 3.36864 41.8557 4.5918 40.7455 5.71339L40.6201 5.8408C40.8612 5.35621 41.0694 4.85593 41.2433 4.34335C41.4883 3.53975 41.5021 2.74399 40.722 2.38335C39.7616 1.92863 38.6973 2.78515 39.0893 4.09639C39.3385 4.86944 39.7748 5.56897 40.3594 6.13283C39.4205 7.04055 38.4283 7.8914 37.388 8.68083C37.6163 8.21378 37.8127 7.73182 37.976 7.23827C38.2191 6.43075 38.2308 5.62519 37.4527 5.26847C36.4962 4.80199 35.4378 5.66047 35.8298 6.96975C36.0674 7.71544 36.4808 8.39305 37.0352 8.94543C35.8455 9.85879 34.6303 10.7486 33.4759 11.7169C33.7057 11.2431 33.9022 10.7539 34.0639 10.2528C34.3069 9.44523 34.3206 8.63968 33.5445 8.28099C32.586 7.83019 31.5198 8.68671 31.9118 9.99403C32.1546 10.7497 32.5754 11.436 33.1387 11.9952C32.635 12.4382 32.1352 12.8792 31.6491 13.33C31.2944 13.6749 30.9475 14.0218 30.6103 14.3825C30.7479 14.0792 30.8664 13.7676 30.9651 13.4495C31.2081 12.644 31.2258 11.8502 30.4457 11.4895C29.4853 11.0348 28.421 11.8815 28.813 13.2026C29.0417 13.9186 29.432 14.5725 29.9537 15.1136C29.0043 16.2053 28.1634 17.3868 27.443 18.6416C27.508 18.2903 27.5525 17.9356 27.5763 17.5792C27.6174 16.7364 27.443 15.9642 26.5963 15.7937C25.5555 15.5859 24.7284 16.6757 25.4203 17.8517C25.8196 18.4964 26.3622 19.0403 27.0059 19.4412C26.3082 20.7897 25.7437 22.2031 25.3203 23.6611C25.2854 23.3631 25.2337 23.0674 25.1655 22.7752C24.9695 21.9579 24.5775 21.264 23.717 21.3424C22.6625 21.4385 22.1784 22.7144 23.18 23.6454C23.7154 24.1261 24.3506 24.4822 25.04 24.6882C24.7602 25.8186 24.5475 26.9646 24.403 28.1201C24.3815 28.3024 24.3638 28.4847 24.3442 28.667C24.3066 28.7027 24.2718 28.7414 24.2403 28.7826L24.0737 28.3396C23.7503 27.5556 23.2603 26.9363 22.4254 27.148C21.3944 27.4047 21.1122 28.7395 22.247 29.5C22.8237 29.8762 23.4737 30.1254 24.1541 30.231C24.1639 30.2622 24.1792 30.2914 24.1992 30.3173C24.1443 31.181 24.1208 32.048 24.1286 32.9182C24.1286 33.567 24.1561 34.2138 24.1913 34.8645C23.2878 34.9311 22.7213 35.9621 23.4211 36.993C23.7153 37.4221 24.0805 37.7979 24.501 38.1044C24.6617 39.3156 24.8682 40.5197 25.1204 41.7166C24.9847 41.6076 24.8229 41.5359 24.651 41.5088C24.4791 41.4816 24.303 41.4999 24.1404 41.5618C23.5837 41.7578 23.3564 42.2321 23.3093 42.8025C23.1287 43.028 23.041 43.3141 23.0643 43.6022C22.5881 43.0142 22.149 42.387 21.7159 41.7598C22.2743 41.2622 22.7234 40.6542 23.0349 39.9742C23.6229 38.6551 22.7801 37.6104 21.808 37.9515C21.024 38.2259 20.8946 39.053 20.9887 39.9428C21.024 40.2757 21.079 40.6062 21.1533 40.9326C20.9965 40.6974 20.8397 40.4642 20.6869 40.227C20.2949 39.639 19.9479 39.0099 19.5775 38.4042C19.4839 38.2566 19.3982 38.1042 19.3207 37.9476C19.9617 37.5652 20.5163 37.0539 20.9495 36.4462C21.7688 35.2702 21.1455 34.0726 20.1165 34.2294C19.2874 34.3529 19.013 35.1506 18.9405 36.0326C18.9095 36.4166 18.9029 36.8022 18.9209 37.1871L18.574 36.5207C17.8324 35.0131 17.1984 33.4549 16.6767 31.8578C17.4087 31.5382 18.0612 31.061 18.5877 30.4604C19.5285 29.3647 19.0169 28.1201 17.9781 28.1613C17.1432 28.2024 16.7904 28.9708 16.6257 29.839C16.5455 30.3032 16.4944 30.7719 16.4729 31.2424C16.1841 30.3277 15.9273 29.4007 15.7026 28.4612C15.5517 27.8732 15.4439 27.2852 15.3243 26.6972C16.1218 26.4813 16.8593 26.0857 17.4803 25.5408C18.5524 24.5764 18.2055 23.275 17.1804 23.1888C16.3474 23.1202 15.9064 23.8316 15.6124 24.6744C15.4543 25.2068 15.3279 25.748 15.2341 26.2954C15.1205 25.6113 14.9989 24.9234 14.9205 24.2374C14.7253 22.8156 14.6277 21.3821 14.6285 19.9469C14.5846 21.3862 14.6383 22.8269 14.7892 24.2589C14.8441 24.9175 14.9382 25.5721 15.0244 26.2307C14.8116 25.7998 14.5707 25.3834 14.3031 24.9841C13.819 24.2942 13.2055 23.7885 12.4313 24.1707C11.4827 24.6431 11.4925 26.0112 12.7626 26.5129C13.52 26.781 14.3313 26.8603 15.1263 26.7442C15.2224 27.3322 15.3223 27.9202 15.4458 28.4925C15.6366 29.4072 15.8587 30.3218 16.1122 31.2365C15.8863 30.8997 15.6409 30.5764 15.3772 30.2683C14.8088 29.647 14.1326 29.2197 13.4172 29.7077C12.5333 30.2957 12.7234 31.652 14.0542 31.997C14.8019 32.1702 15.5797 32.1668 16.3259 31.9872C16.8012 33.6079 17.3907 35.1929 18.0899 36.7304L18.3113 37.191C18.1259 36.9816 17.9296 36.7821 17.7233 36.5932C17.0981 36.0326 16.3847 35.6818 15.7183 36.2326C14.9009 36.9088 15.2263 38.2357 16.5787 38.4376C17.3263 38.5355 18.0863 38.4591 18.7994 38.2141C18.8778 38.3729 18.9562 38.5277 19.0444 38.6786C19.4011 39.3039 19.7363 39.9546 20.1145 40.5681C20.2204 40.7445 20.3321 40.9189 20.4419 41.0953C20.2674 40.9631 20.0862 40.8401 19.8989 40.7268C19.1796 40.2917 18.4113 40.08 17.8586 40.7268C17.1824 41.5481 17.7488 42.7907 19.1169 42.7319C19.8201 42.6966 20.5071 42.5079 21.1298 42.1792C21.5689 42.8593 22.0236 43.5277 22.5018 44.1902C22.6848 44.4384 22.8696 44.6854 23.0565 44.931C22.7915 44.7186 22.514 44.5222 22.2255 44.343C21.5061 43.9079 20.7378 43.6962 20.1851 44.343C19.5089 45.1623 20.0753 46.4069 21.4454 46.3481C22.2257 46.3007 22.9836 46.0683 23.6563 45.67C23.9052 45.9698 24.16 46.2678 24.4226 46.5598C23.9581 47.185 24.1913 48.1631 25.2576 48.5394C25.7755 48.7115 26.3192 48.7924 26.8648 48.7785C26.9334 48.8256 27 48.8706 27.0725 48.9138L27.1059 48.9373C27.9343 51.3285 28.8803 53.6739 29.9439 55.9737C30.613 57.4241 31.3231 58.8536 32.0745 60.2622C32.8349 61.6734 33.6131 63.0532 34.497 64.4272L35.8083 63.5432C34.9537 62.2712 34.1442 60.909 33.3739 59.5487C32.6037 58.1885 31.8804 56.791 31.1925 55.3837C30.2811 53.5041 29.4402 51.5931 28.6856 49.6448C28.7973 49.6625 28.8973 49.6899 29.0188 49.6978C29.1605 49.7138 29.3038 49.7091 29.4441 49.684L29.207 48.655L29.1795 48.6668H29.0894C29.0325 48.6668 28.9561 48.6452 28.8934 48.6394C28.7445 48.6095 28.5983 48.5676 28.4563 48.5139L28.2877 48.4473C28.8821 48.1944 29.4244 47.8336 29.8871 47.383C30.9181 46.3697 30.5123 45.0878 29.4833 45.0506C28.6484 45.0212 28.2309 45.7542 27.9918 46.6049C27.9251 46.846 27.8722 47.0968 27.8271 47.3438C27.7429 47.1223 27.6645 46.9146 27.6037 46.6911C27.392 46.0482 27.1901 45.4021 26.9981 44.7527C27.6429 44.495 28.2314 44.1142 28.7307 43.6316C29.7577 42.6182 29.354 41.3364 28.3269 41.2972C27.49 41.2678 27.0745 42.0008 26.8354 42.8515C26.7665 43.1 26.7102 43.3519 26.6668 43.6061C26.5375 43.1298 26.4101 42.6555 26.2905 42.1792C26.2043 41.8244 26.1219 41.4677 26.0455 41.113C25.9867 40.6034 25.9436 40.0918 25.9103 39.5783C25.8965 39.296 25.8828 39.0158 25.875 38.7316C26.5081 38.8838 27.1634 38.9203 27.8095 38.8394C29.2403 38.6434 29.6852 37.3772 28.8816 36.7284C28.2329 36.2012 27.4606 36.5422 26.757 37.0812C26.4453 37.3299 26.1482 37.5962 25.8671 37.879C25.8683 36.6705 25.964 35.4641 26.1533 34.2706C26.271 33.5703 26.4261 32.8768 26.6178 32.193C27.2946 32.3745 28.0001 32.423 28.6954 32.3361C30.1262 32.1401 30.5692 30.8739 29.7675 30.2252C29.1188 29.7097 28.3426 30.0292 27.6429 30.578C27.3939 30.7725 27.1557 30.9806 26.9295 31.2012C27.1605 30.5296 27.4375 29.8748 27.7585 29.2412C28.4067 27.966 29.2461 26.7973 30.2477 25.776C30.835 26.2424 31.5133 26.5809 32.2391 26.7697C33.6366 27.1225 34.5205 26.1092 34.0227 25.2017C33.6111 24.4726 32.7683 24.498 31.9137 24.7313C31.5916 24.8254 31.2749 24.9373 30.9651 25.0664H30.9886C32.0977 24.0624 33.3075 23.1757 34.5989 22.4204C35.1148 23.0077 35.7521 23.4758 36.4668 23.7924C37.7937 24.3608 38.8286 23.5024 38.4739 22.5322C38.1799 21.7482 37.3469 21.6384 36.4707 21.7482C36.127 21.7945 35.7861 21.86 35.4496 21.9442C36.8216 21.1739 38.2289 20.4291 39.5773 19.5922L39.6087 19.5804C40.2754 20.0761 41.0473 20.4115 41.8647 20.5604C43.2876 20.8074 44.0814 19.7294 43.5248 18.8728C43.0622 18.1751 42.2214 18.2652 41.3884 18.569C41.1551 18.6553 40.9258 18.765 40.7043 18.8611C41.5995 18.2521 42.463 17.5979 43.2915 16.9011L43.3719 16.9736L43.3856 16.9383C44.0556 17.4424 44.8342 17.7827 45.6592 17.932C47.0841 18.179 47.874 17.101 47.3193 16.2445C46.8548 15.5467 46.0179 15.6369 45.1829 15.9387C44.5958 16.1782 44.0226 16.4504 43.466 16.7541C43.7639 16.4973 44.054 16.2366 44.348 15.9701C45.676 14.7399 46.9287 13.4308 48.0994 12.0501C46.7226 13.6023 45.235 15.0526 43.6483 16.3895C43.8523 15.9717 44.0284 15.5409 44.1755 15.0998C44.4185 14.2923 44.4303 13.4868 43.6541 13.1398C42.6937 12.6851 41.6295 13.5318 42.0215 14.8529C42.2531 15.5778 42.6503 16.2388 43.1818 16.7835C42.1455 17.6136 41.056 18.375 39.9203 19.063L39.8106 19.1296C40.0299 18.6803 40.2185 18.2167 40.3751 17.7419C40.6161 16.9344 40.6338 16.1406 39.8537 15.7819C38.8933 15.3292 37.829 16.1857 38.223 17.495C38.4497 18.2114 38.8395 18.8655 39.3617 19.406C37.9897 20.2056 36.5707 20.9054 35.1517 21.656L34.94 21.7678C35.2044 21.4417 35.446 21.0979 35.6632 20.7388C36.0866 20.0096 36.2885 19.2394 35.6142 18.7004C34.7871 18.0379 33.5601 18.618 33.6287 19.9881C33.685 20.7408 33.9137 21.4704 34.2971 22.1206C32.982 22.8332 31.7428 23.6777 30.5986 24.6411L30.5613 24.6764C30.7066 24.4052 30.8375 24.1265 30.9533 23.8414C31.2552 23.0574 31.3316 22.2636 30.579 21.8383C30.4453 21.7609 30.2976 21.7106 30.1445 21.6903C29.9913 21.67 29.8357 21.6801 29.6865 21.72C29.5372 21.7598 29.3973 21.8287 29.2746 21.9227C29.152 22.0166 29.0491 22.1338 28.9718 22.2676C28.929 22.3437 28.8935 22.4238 28.8659 22.5067C28.7616 22.3646 28.6235 22.2508 28.4641 22.1754C27.7095 21.8089 27.0333 22.3107 26.4689 22.9928C26.3217 23.1707 26.1843 23.3565 26.0573 23.5494C26.4332 22.2109 26.9332 20.9103 27.5508 19.6647C28.2416 19.9103 28.9751 20.013 29.7068 19.9665C31.1454 19.8607 31.6668 18.62 30.9083 17.9281C30.2909 17.3597 29.4971 17.6518 28.764 18.1457C28.5203 18.3109 28.2854 18.4889 28.0604 18.6788C28.7108 17.5221 29.468 16.4289 30.3222 15.4134C30.9574 15.8583 31.6817 16.1599 32.4449 16.2974C33.8698 16.5444 34.6597 15.4664 34.1031 14.6098C33.6425 13.9121 32.8036 14.0022 31.9667 14.308C31.5756 14.4571 31.194 14.6299 30.824 14.8254C31.1846 14.4334 31.5453 14.0414 31.9216 13.6494C32.4129 13.1634 32.9225 12.6903 33.4504 12.2304C34.0788 12.6619 34.7916 12.9552 35.5417 13.0908C36.9666 13.3339 37.7585 12.2578 37.1999 11.4013C36.7393 10.7036 35.9004 10.7937 35.0654 11.0975C34.8694 11.1681 34.6771 11.2486 34.4892 11.3386C35.3927 10.5879 36.3218 9.86271 37.2469 9.12575C37.9006 9.59987 38.6519 9.92196 39.446 10.0685C40.8709 10.3135 41.6608 9.23551 41.1061 8.37899C40.6436 7.6832 39.8047 7.77336 38.9697 8.0752C38.6464 8.19911 38.3298 8.33976 38.0211 8.49659C38.4131 8.18103 38.7933 7.85959 39.1559 7.53031C39.4539 7.27159 39.7322 6.98544 40.0164 6.70123C40.181 6.54836 40.3417 6.38764 40.4966 6.22495C41.1538 6.69878 41.9084 7.02017 42.7055 7.16575C44.1304 7.40879 44.934 6.32883 44.3676 5.47427C43.9031 4.77651 43.0642 4.86667 42.2312 5.17243C41.7723 5.35042 41.3252 5.55729 40.8925 5.7918C41.9652 4.65276 42.9316 3.41805 43.7796 2.10307C44.6642 0.782232 45.37 -0.649901 45.8787 -2.15601ZM26.3493 46.5069C26.2079 46.3471 26.0293 46.2246 25.8293 46.1501C25.6294 46.0756 25.4142 46.0514 25.2027 46.0796C24.8911 45.764 24.5931 45.4367 24.3011 45.0996L24.4971 44.9036C24.9001 44.9994 25.3138 45.0429 25.728 45.033L25.7495 45.0937L25.9455 45.0388C26.0651 45.5308 26.2003 46.0208 26.3493 46.5069ZM25.3791 34.1216C25.3085 34.498 25.2517 34.8782 25.2007 35.2584L25.138 35.2016C25.0714 34.4352 25.0302 33.6669 25.0067 32.8966C24.993 32.3596 24.993 31.8206 25.0067 31.2816C25.2851 31.5298 25.5893 31.7473 25.9142 31.9304C25.6952 32.65 25.5179 33.3816 25.383 34.1216H25.3791ZM26.4218 30.4937C26.4218 30.3506 26.4336 30.2114 26.4336 30.0684C26.4336 29.9978 26.4336 29.9272 26.4336 29.8567C26.549 29.8173 26.661 29.7688 26.7687 29.7116C26.6453 29.9704 26.5335 30.231 26.4277 30.4956L26.4218 30.4937ZM27.9055 24.4451C28.3273 24.3052 28.6843 24.0178 28.911 23.6356C29.0931 24.2635 29.399 24.8486 29.8107 25.3565C29.0895 26.0672 28.4432 26.8501 27.882 27.6928C27.818 27.5725 27.7303 27.4664 27.6242 27.3809C27.5181 27.2953 27.3958 27.2321 27.2646 27.195C26.4649 26.95 25.8809 27.5478 25.4085 28.3142L25.3909 28.3514L25.3379 28.3416C25.2838 28.3367 25.2294 28.3367 25.1753 28.3416C25.1753 28.2965 25.1753 28.2514 25.189 28.2103C25.3141 27.0527 25.5104 25.9039 25.777 24.7705C26.5019 24.8073 27.2267 24.6966 27.9075 24.4451H27.9055Z" fill="white"/>
</g>
<path d="M69.9621 17.5636H32.3301V67.5847H69.9621V17.5636Z" fill="white"/>
<path d="M69.9719 67.6827H32.3399C32.314 67.6827 32.289 67.6724 32.2706 67.654C32.2523 67.6357 32.2419 67.6107 32.2419 67.5847V17.5636C32.2419 17.5376 32.2523 17.5127 32.2706 17.4943C32.289 17.4759 32.314 17.4656 32.3399 17.4656H69.9719C69.9979 17.4656 70.0229 17.4759 70.0412 17.4943C70.0596 17.5127 70.0699 17.5376 70.0699 17.5636V67.5847C70.0699 67.6107 70.0596 67.6357 70.0412 67.654C70.0229 67.6724 69.9979 67.6827 69.9719 67.6827ZM32.4379 67.4867H69.8739V17.6616H32.4379V67.4867Z" fill="#263238"/>
<path d="M65.0953 43.3376H36.4519V44.5136H65.0953V43.3376Z" fill="#263238"/>
<path d="M65.0955 28.5258H41.7617V29.7018H65.0955V28.5258Z" fill="#263238"/>
<path d="M65.0953 35.9327H36.4519V37.1087H65.0953V35.9327Z" fill="#263238"/>
<path d="M57.7358 58.1473C57.3712 58.5393 56.9988 58.9313 56.6186 59.3233H36.4561V58.1473H57.7358Z" fill="#263238"/>
<path d="M63.3629 50.7425C63.1121 51.1345 62.8553 51.5265 62.5887 51.9185H36.4561V50.7425H63.3629Z" fill="#263238"/>
<path d="M46.5814 66.2343C46.5814 66.2343 44.9075 67.0477 40.2192 67.4867H32.4282" stroke="#263238" stroke-width="0.3" stroke-linecap="round" stroke-linejoin="round"/>
<path d="M36.8716 23.0163C36.6075 23.0246 36.3445 22.9798 36.0981 22.8845C35.8518 22.7892 35.627 22.6454 35.4373 22.4616C35.2476 22.2777 35.0968 22.0577 34.9937 21.8144C34.8907 21.5712 34.8376 21.3097 34.8376 21.0455C34.8376 20.7814 34.8907 20.5199 34.9937 20.2766C35.0968 20.0334 35.2476 19.8133 35.4373 19.6295C35.627 19.4456 35.8518 19.3018 36.0981 19.2065C36.3445 19.1112 36.6075 19.0664 36.8716 19.0747C36.9495 19.0747 37.0243 19.1057 37.0795 19.1609C37.1346 19.216 37.1656 19.2908 37.1656 19.3687C37.1656 19.4467 37.1346 19.5215 37.0795 19.5766C37.0243 19.6318 36.9495 19.6627 36.8716 19.6627C36.5974 19.6604 36.3287 19.7396 36.0996 19.8902C35.8705 20.0408 35.6913 20.2561 35.5848 20.5088C35.4782 20.7614 35.4492 21.04 35.5012 21.3092C35.5533 21.5784 35.6841 21.826 35.8772 22.0207C36.0702 22.2154 36.3168 22.3484 36.5855 22.4027C36.8542 22.4571 37.1331 22.4304 37.3866 22.326C37.6401 22.2216 37.8569 22.0443 38.0095 21.8165C38.1621 21.5887 38.2436 21.3207 38.2436 21.0465C38.2436 20.9685 38.2745 20.8937 38.3297 20.8386C38.3848 20.7835 38.4596 20.7525 38.5376 20.7525C38.6155 20.7525 38.6903 20.7835 38.7455 20.8386C38.8006 20.8937 38.8316 20.9685 38.8316 21.0465C38.8311 21.5671 38.6247 22.0663 38.2575 22.4353C37.8903 22.8044 37.3921 23.0132 36.8716 23.0163Z" fill="#263238"/>
<path d="M36.8245 22.2029C35.0233 22.2029 34.9253 18.3103 34.9233 17.5303V17.5067C34.9233 16.7227 35.0155 12.8027 36.8245 12.8027C38.6336 12.8027 38.7591 17.0246 38.7689 17.5067L37.2009 17.5361C37.1977 16.629 37.0657 15.7269 36.8089 14.8568C36.5781 15.718 36.4699 16.6075 36.4874 17.4989V17.5224C36.47 18.4185 36.5823 19.3123 36.8206 20.1763C36.8383 20.1194 36.8559 20.0567 36.8755 19.9803L36.999 19.5549L38.0927 19.8744C38.1469 19.8902 38.1975 19.9165 38.2415 19.9518C38.2855 19.9872 38.3222 20.0308 38.3493 20.0804C38.3764 20.1299 38.3935 20.1843 38.3996 20.2404C38.4057 20.2966 38.4006 20.3534 38.3847 20.4075C38.0672 21.5973 37.5399 22.2029 36.8245 22.2029Z" fill="#BFBFBF" stroke="#263238" stroke-width="0.3" stroke-linecap="round" stroke-linejoin="round"/>
<path d="M38.5472 21.3405C38.4692 21.3405 38.3944 21.3095 38.3393 21.2544C38.2841 21.1993 38.2532 21.1245 38.2532 21.0465C38.2532 20.6815 38.109 20.3313 37.852 20.0722C37.5951 19.813 37.2461 19.6658 36.8812 19.6627C36.8032 19.6627 36.7284 19.6318 36.6733 19.5766C36.6181 19.5215 36.5872 19.4467 36.5872 19.3687C36.5872 19.2908 36.6181 19.216 36.6733 19.1608C36.7284 19.1057 36.8032 19.0747 36.8812 19.0747C37.4019 19.0784 37.9001 19.2876 38.2672 19.657C38.6344 20.0263 38.8407 20.5257 38.8412 21.0465C38.8412 21.1245 38.8102 21.1993 38.755 21.2544C38.6999 21.3095 38.6251 21.3405 38.5472 21.3405Z" fill="#263238"/>
<path d="M46.1618 23.0163C45.6499 23.0002 45.1643 22.7854 44.8079 22.4176C44.4515 22.0498 44.2522 21.5577 44.2522 21.0455C44.2522 20.5333 44.4515 20.0413 44.8079 19.6734C45.1643 19.3056 45.6499 19.0909 46.1618 19.0747C46.2398 19.0747 46.3146 19.1057 46.3697 19.1608C46.4248 19.216 46.4558 19.2908 46.4558 19.3687C46.4558 19.4467 46.4248 19.5215 46.3697 19.5766C46.3146 19.6318 46.2398 19.6627 46.1618 19.6627C45.8881 19.6627 45.6206 19.7439 45.393 19.8959C45.1655 20.048 44.9881 20.2641 44.8834 20.517C44.7786 20.7698 44.7512 21.048 44.8046 21.3165C44.858 21.5849 44.9898 21.8314 45.1833 22.025C45.3769 22.2185 45.6234 22.3503 45.8918 22.4037C46.1603 22.4571 46.4385 22.4297 46.6913 22.3249C46.9442 22.2202 47.1603 22.0428 47.3124 21.8153C47.4644 21.5877 47.5456 21.3202 47.5456 21.0465C47.5456 20.9685 47.5765 20.8937 47.6317 20.8386C47.6868 20.7835 47.7616 20.7525 47.8396 20.7525C47.9175 20.7525 47.9923 20.7835 48.0474 20.8386C48.1026 20.8937 48.1336 20.9685 48.1336 21.0465C48.1325 21.5689 47.9244 22.0697 47.5548 22.4389C47.1852 22.8081 46.6842 23.0158 46.1618 23.0163Z" fill="#263238"/>
<path d="M46.1168 22.2029C44.3155 22.2029 44.2156 18.3103 44.2156 17.5303V17.5067C44.2156 16.7227 44.3057 12.8027 46.1168 12.8027C47.9278 12.8027 48.0513 17.0246 48.0611 17.5067L46.4931 17.5361C46.4901 16.629 46.3581 15.7268 46.1011 14.8568C45.8712 15.7182 45.7637 16.6076 45.7816 17.4989V17.5224C45.7643 18.4223 45.8765 19.3201 46.1148 20.188C46.1344 20.1312 46.1521 20.0685 46.1717 19.992L46.2951 19.5667L47.3888 19.8862C47.443 19.9019 47.4936 19.9282 47.5377 19.9636C47.5817 19.9989 47.6183 20.0426 47.6455 20.0921C47.6726 20.1417 47.6897 20.196 47.6958 20.2522C47.7018 20.3083 47.6968 20.3651 47.6809 20.4193C47.3594 21.5973 46.8322 22.2029 46.1168 22.2029Z" fill="#BFBFBF" stroke="#263238" stroke-width="0.3" stroke-linecap="round" stroke-linejoin="round"/>
<path d="M47.8397 21.3405C47.7617 21.3405 47.6869 21.3095 47.6318 21.2544C47.5767 21.1993 47.5457 21.1245 47.5457 21.0465C47.5452 20.6797 47.3992 20.328 47.1398 20.0686C46.8804 19.8092 46.5288 19.6633 46.1619 19.6627C46.0839 19.6627 46.0092 19.6318 45.954 19.5766C45.8989 19.5215 45.8679 19.4467 45.8679 19.3687C45.8679 19.2908 45.8989 19.216 45.954 19.1608C46.0092 19.1057 46.0839 19.0747 46.1619 19.0747C46.6847 19.0753 47.1859 19.2832 47.5556 19.6528C47.9253 20.0225 48.1332 20.5237 48.1337 21.0465C48.1337 21.1245 48.1027 21.1993 48.0476 21.2544C47.9924 21.3095 47.9177 21.3405 47.8397 21.3405Z" fill="#263238"/>
<path d="M55.4543 23.0163C54.9424 23.0002 54.4568 22.7854 54.1004 22.4176C53.744 22.0498 53.5447 21.5577 53.5447 21.0455C53.5447 20.5333 53.744 20.0413 54.1004 19.6734C54.4568 19.3056 54.9424 19.0909 55.4543 19.0747C55.5323 19.0747 55.607 19.1057 55.6622 19.1608C55.7173 19.216 55.7483 19.2908 55.7483 19.3687C55.7483 19.4467 55.7173 19.5215 55.6622 19.5766C55.607 19.6318 55.5323 19.6627 55.4543 19.6627C55.1806 19.6627 54.9131 19.7439 54.6855 19.8959C54.4579 20.048 54.2806 20.2641 54.1759 20.517C54.0711 20.7698 54.0437 21.048 54.0971 21.3165C54.1505 21.5849 54.2823 21.8314 54.4758 22.025C54.6693 22.2185 54.9159 22.3503 55.1843 22.4037C55.4527 22.4571 55.731 22.4297 55.9838 22.3249C56.2367 22.2202 56.4528 22.0428 56.6048 21.8153C56.7569 21.5877 56.838 21.3202 56.838 21.0465C56.838 20.9685 56.869 20.8937 56.9242 20.8386C56.9793 20.7835 57.0541 20.7525 57.132 20.7525C57.21 20.7525 57.2848 20.7835 57.3399 20.8386C57.3951 20.8937 57.426 20.9685 57.426 21.0465C57.425 21.5689 57.2169 22.0697 56.8473 22.4389C56.4777 22.8081 55.9767 23.0158 55.4543 23.0163Z" fill="#263238"/>
<path d="M55.4071 22.2029C53.6058 22.2029 53.5078 18.3103 53.5059 17.5303V17.5067C53.5059 16.7227 53.598 12.8027 55.4071 12.8027C57.2161 12.8027 57.3435 17.0246 57.3514 17.5067L55.7834 17.5361C55.7802 16.629 55.6482 15.7269 55.3914 14.8568C55.1619 15.7208 55.0557 16.613 55.0758 17.5067V17.5303C55.0584 18.4263 55.1707 19.3202 55.409 20.1841C55.4267 20.1273 55.4463 20.0645 55.4639 19.9881L55.5893 19.5628L56.6811 19.8823C56.7353 19.898 56.7859 19.9243 56.8299 19.9597C56.8739 19.995 56.9106 20.0387 56.9377 20.0882C56.9648 20.1377 56.9819 20.1921 56.988 20.2483C56.9941 20.3044 56.989 20.3612 56.9731 20.4154C56.6438 21.5973 56.1244 22.2029 55.4071 22.2029Z" fill="#BFBFBF" stroke="#263238" stroke-width="0.3" stroke-linecap="round" stroke-linejoin="round"/>
<path d="M57.1319 21.3405C57.0539 21.3405 56.9792 21.3095 56.924 21.2544C56.8689 21.1993 56.8379 21.1245 56.8379 21.0465C56.8374 20.6797 56.6914 20.328 56.4321 20.0686C56.1727 19.8092 55.821 19.6633 55.4542 19.6627C55.3762 19.6627 55.3014 19.6318 55.2463 19.5766C55.1911 19.5215 55.1602 19.4467 55.1602 19.3687C55.1602 19.2908 55.1911 19.216 55.2463 19.1608C55.3014 19.1057 55.3762 19.0747 55.4542 19.0747C55.9773 19.0747 56.479 19.2824 56.8491 19.6521C57.2192 20.0219 57.4274 20.5234 57.4279 21.0465C57.4274 21.1247 57.3959 21.1994 57.3405 21.2545C57.2851 21.3096 57.2101 21.3405 57.1319 21.3405Z" fill="#263238"/>
<path d="M64.7466 23.0163C64.4825 23.0246 64.2195 22.9798 63.9731 22.8845C63.7268 22.7892 63.502 22.6454 63.3123 22.4616C63.1226 22.2777 62.9718 22.0577 62.8687 21.8144C62.7657 21.5712 62.7126 21.3097 62.7126 21.0455C62.7126 20.7814 62.7657 20.5199 62.8687 20.2766C62.9718 20.0334 63.1226 19.8133 63.3123 19.6295C63.502 19.4456 63.7268 19.3018 63.9731 19.2065C64.2195 19.1112 64.4825 19.0664 64.7466 19.0747C64.8245 19.0747 64.8993 19.1057 64.9545 19.1609C65.0096 19.216 65.0406 19.2908 65.0406 19.3687C65.0406 19.4467 65.0096 19.5215 64.9545 19.5766C64.8993 19.6318 64.8245 19.6627 64.7466 19.6627C64.4728 19.6624 64.2051 19.7432 63.9773 19.895C63.7494 20.0468 63.5718 20.2628 63.4667 20.5156C63.3617 20.7684 63.334 21.0467 63.3872 21.3153C63.4404 21.5838 63.572 21.8306 63.7654 22.0243C63.9589 22.218 64.2054 22.35 64.4739 22.4035C64.7424 22.4571 65.0207 22.4298 65.2737 22.3251C65.5267 22.2204 65.7429 22.0431 65.895 21.8155C66.0472 21.5879 66.1284 21.3203 66.1284 21.0465C66.1284 20.9685 66.1593 20.8937 66.2145 20.8386C66.2696 20.7835 66.3444 20.7525 66.4224 20.7525C66.5003 20.7525 66.5751 20.7835 66.6303 20.8386C66.6854 20.8937 66.7164 20.9685 66.7164 21.0465C66.7158 21.5688 66.5082 22.0695 66.1389 22.4388C65.7696 22.8081 65.2688 23.0158 64.7466 23.0163Z" fill="#263238"/>
<path d="M64.6995 22.2029C62.8983 22.2029 62.8003 18.3103 62.7983 17.5303V17.5067C62.7983 16.7227 62.8905 12.8027 64.6995 12.8027C66.5086 12.8027 66.6399 17.0324 66.6399 17.5146L65.0719 17.544C65.0678 16.6369 64.9358 15.7349 64.6799 14.8647C64.4481 15.7257 64.3399 16.6153 64.3585 17.5067V17.5303C64.3439 18.4278 64.458 19.3229 64.6976 20.188C64.7172 20.1312 64.7348 20.0685 64.7544 19.992L64.8779 19.5667L65.9716 19.8862C66.0258 19.9019 66.0764 19.9282 66.1204 19.9636C66.1645 19.9989 66.2011 20.0426 66.2282 20.0921C66.2554 20.1417 66.2724 20.196 66.2785 20.2522C66.2846 20.3083 66.2795 20.3651 66.2636 20.4193C65.9422 21.5973 65.4149 22.2029 64.6995 22.2029Z" fill="#BFBFBF" stroke="#263238" stroke-width="0.3" stroke-linecap="round" stroke-linejoin="round"/>
<path d="M66.4224 21.3405C66.3445 21.3405 66.2697 21.3095 66.2145 21.2544C66.1594 21.1993 66.1284 21.1245 66.1284 21.0465C66.1284 20.6798 65.9829 20.3282 65.7238 20.0687C65.4648 19.8093 65.1133 19.6633 64.7466 19.6627C64.6687 19.6627 64.5939 19.6318 64.5387 19.5766C64.4836 19.5215 64.4526 19.4467 64.4526 19.3687C64.4526 19.2908 64.4836 19.216 64.5387 19.1608C64.5939 19.1057 64.6687 19.0747 64.7466 19.0747C65.2691 19.0758 65.7698 19.2839 66.139 19.6535C66.5083 20.0231 66.7159 20.5241 66.7164 21.0465C66.7164 21.1245 66.6855 21.1993 66.6303 21.2544C66.5752 21.3095 66.5004 21.3405 66.4224 21.3405Z" fill="#263238"/>
<path d="M13.5239 42.1772L29.4136 39.004L34.9624 65.6443L18.0731 69.2664L13.5239 42.1772Z" stroke="#263238" stroke-width="0.3" stroke-linecap="round" stroke-linejoin="round"/>
<path d="M17.4341 65.466L34.2901 62.4142" stroke="#263238" stroke-width="0.3" stroke-linecap="round" stroke-linejoin="round"/>
<path d="M32.2929 60.1485L24.2432 61.6341" stroke="#263238" stroke-width="0.3" stroke-linecap="round" stroke-linejoin="round"/>
<path d="M31.0993 58.8118L28.7473 59.1587" stroke="#263238" stroke-width="0.3" stroke-linecap="round" stroke-linejoin="round"/>
<path d="M31.4579 56.0913L19.4431 58.3453" stroke="#263238" stroke-width="0.3" stroke-linecap="round" stroke-linejoin="round"/>
<path d="M15.6016 54.5527L32.0479 51.6499" stroke="#263238" stroke-width="0.3" stroke-linecap="round" stroke-linejoin="round" stroke-dasharray="1 2"/>
<path d="M33.0768 64.7819L23.0867 66.8752" stroke="#263238" stroke-width="0.3" stroke-linecap="round" stroke-linejoin="round"/>
<path d="M32.7789 63.9391L28.0828 64.7819" stroke="#263238" stroke-width="0.3" stroke-linecap="round" stroke-linejoin="round"/>
<path d="M30.2389 49.8938L22.001 51.5265" stroke="#263238" stroke-width="0.3" stroke-linecap="round" stroke-linejoin="round"/>
<path d="M29.5881 48.0651L26.9636 48.5806" stroke="#263238" stroke-width="0.3" stroke-linecap="round" stroke-linejoin="round"/>
<path d="M29.4332 46.795L17.4341 49.1078" stroke="#263238" stroke-width="0.3" stroke-linecap="round" stroke-linejoin="round"/>
<path d="M28.3434 40.6132L25.1035 41.2835" stroke="#263238" stroke-width="0.3" stroke-linecap="round" stroke-linejoin="round"/>
<path d="M17.4341 42.9162L14.6392 43.4591" stroke="#263238" stroke-width="0.3" stroke-linecap="round" stroke-linejoin="round"/>
<path d="M15.6565 44.9996C15.7148 44.8009 15.8149 44.617 15.9501 44.4601C16.0853 44.3033 16.2525 44.1771 16.4405 44.0902" stroke="#263238" stroke-width="0.3" stroke-linecap="round" stroke-linejoin="round"/>
<path d="M16.899 46.795C16.552 46.7539 16.2312 46.5897 15.9949 46.3322C15.7586 46.0747 15.6225 45.7409 15.6113 45.3916" stroke="#263238" stroke-width="0.3" stroke-linecap="round" stroke-linejoin="round"/>
<path d="M17.9888 46.4618C17.7899 46.6408 17.5423 46.7568 17.2773 46.795" stroke="#263238" stroke-width="0.3" stroke-linecap="round" stroke-linejoin="round"/>
<path d="M17.0361 43.9569C17.2885 43.9652 17.5344 44.0386 17.7499 44.1702C17.9655 44.3017 18.1433 44.4868 18.266 44.7074C18.3888 44.9281 18.4523 45.1767 18.4504 45.4292C18.4485 45.6817 18.3813 45.9294 18.2553 46.1482" stroke="#263238" stroke-width="0.3" stroke-linecap="round" stroke-linejoin="round"/>
<path d="M19.8939 44.3254C19.6332 44.2431 19.3745 44.149 19.1099 44.0902" stroke="#263238" stroke-width="0.3" stroke-linecap="round" stroke-linejoin="round"/>
<path d="M22.1165 44.5136C21.895 45.0408 20.6563 44.5606 20.2957 44.4508" stroke="#263238" stroke-width="0.3" stroke-linecap="round" stroke-linejoin="round"/>
<path d="M19.9958 43.1141L22.3126 43.659C22.2753 43.8138 22.2459 43.9706 22.2165 44.1255" stroke="#263238" stroke-width="0.3" stroke-linecap="round" stroke-linejoin="round"/>
<path d="M18.8494 43.659C19.0963 43.071 18.9983 42.875 19.6138 43.0181" stroke="#263238" stroke-width="0.3" stroke-linecap="round" stroke-linejoin="round"/>
</g>
<defs>
<clipPath id="clip0_417_26268">
<rect width="98" height="98" fill="white"/>
</clipPath>
</defs>
</svg>
