<svg width="89" height="89" viewBox="0 0 89 89" fill="none" xmlns="http://www.w3.org/2000/svg">
<path d="M51.7978 3.16133C51.7978 3.16133 38.0028 0.653306 26.4078 10.1229C14.8129 19.5925 10.7456 35.3028 7.11976 47.9461C3.4939 60.5895 8.6292 72.0082 19.2896 75.8565C29.95 79.7049 35.2829 70.5966 48.9266 67.9694C62.5703 65.3421 66.5753 66.7002 76.6946 57.1007C86.8139 47.5011 85.8776 28.8788 74.6975 16.8121C63.5173 4.74553 51.7978 3.16133 51.7978 3.16133Z" fill="#56AA7A"/>
<path opacity="0.7" d="M51.7978 3.16133C51.7978 3.16133 38.0028 0.653306 26.4078 10.1229C14.8129 19.5925 10.7456 35.3028 7.11976 47.9461C3.4939 60.5895 8.6292 72.0082 19.2896 75.8565C29.95 79.7049 35.2829 70.5966 48.9266 67.9694C62.5703 65.3421 66.5753 66.7002 76.6946 57.1007C86.8139 47.5011 85.8776 28.8788 74.6975 16.8121C63.5173 4.74553 51.7978 3.16133 51.7978 3.16133Z" fill="white"/>
<path d="M85.6178 81.9815H3.57045C3.54684 81.9815 3.5242 81.9721 3.50751 81.9554C3.49082 81.9387 3.48145 81.9161 3.48145 81.8925C3.48145 81.8689 3.49082 81.8462 3.50751 81.8295C3.5242 81.8128 3.54684 81.8035 3.57045 81.8035H85.6178C85.6414 81.8035 85.664 81.8128 85.6807 81.8295C85.6974 81.8462 85.7068 81.8689 85.7068 81.8925C85.7068 81.9161 85.6974 81.9387 85.6807 81.9554C85.664 81.9721 85.6414 81.9815 85.6178 81.9815Z" fill="#263238"/>
<path d="M61.7464 9.27917H29.3984V69.2047H61.7464V9.27917Z" fill="white"/>
<path d="M61.7465 69.2935H29.3986C29.375 69.2935 29.3523 69.2842 29.3356 69.2675C29.3189 69.2508 29.3096 69.2281 29.3096 69.2045V9.27906C29.3096 9.25546 29.3189 9.23282 29.3356 9.21613C29.3523 9.19944 29.375 9.19006 29.3986 9.19006H61.7465C61.7701 9.19006 61.7928 9.19944 61.8094 9.21613C61.8261 9.23282 61.8355 9.25546 61.8355 9.27906V69.2045C61.8355 69.2281 61.8261 69.2508 61.8094 69.2675C61.7928 69.2842 61.7701 69.2935 61.7465 69.2935ZM29.4876 69.1155H61.6575V9.36806H29.4876V69.1155Z" fill="#263238"/>
<path d="M41.7498 14.4073H36.9207C36.5923 14.4073 36.3262 14.6735 36.3262 15.0019V15.9755C36.3262 16.3039 36.5923 16.57 36.9207 16.57H41.7498C42.0782 16.57 42.3444 16.3039 42.3444 15.9755V15.0019C42.3444 14.6735 42.0782 14.4073 41.7498 14.4073Z" fill="#56AA7A"/>
<path d="M41.75 16.6608H36.9226C36.741 16.6604 36.567 16.588 36.4385 16.4596C36.3101 16.3312 36.2378 16.1571 36.2373 15.9755V15.0037C36.2378 14.8221 36.3101 14.648 36.4385 14.5196C36.567 14.3912 36.741 14.3188 36.9226 14.3184H41.75C41.9316 14.3188 42.1056 14.3912 42.234 14.5196C42.3624 14.648 42.4348 14.8221 42.4353 15.0037V15.9755C42.4348 16.1571 42.3624 16.3312 42.234 16.4596C42.1056 16.588 41.9316 16.6604 41.75 16.6608ZM36.9226 14.4964C36.7882 14.4968 36.6594 14.5504 36.5644 14.6455C36.4694 14.7405 36.4158 14.8693 36.4153 15.0037V15.9755C36.4158 16.1099 36.4694 16.2387 36.5644 16.3337C36.6594 16.4288 36.7882 16.4824 36.9226 16.4828H41.75C41.8844 16.4824 42.0131 16.4288 42.1082 16.3337C42.2032 16.2387 42.2568 16.1099 42.2573 15.9755V15.0037C42.2568 14.8693 42.2032 14.7405 42.1082 14.6455C42.0131 14.5504 41.8844 14.4968 41.75 14.4964H36.9226Z" fill="#263238"/>
<path d="M59.904 49.6193H31.424C31.4004 49.6193 31.3777 49.6099 31.361 49.5932C31.3443 49.5765 31.335 49.5539 31.335 49.5303C31.335 49.5067 31.3443 49.484 31.361 49.4673C31.3777 49.4507 31.4004 49.4413 31.424 49.4413H59.904C59.9276 49.4413 59.9502 49.4507 59.9669 49.4673C59.9836 49.484 59.993 49.5067 59.993 49.5303C59.993 49.5539 59.9836 49.5765 59.9669 49.5932C59.9502 49.6099 59.9276 49.6193 59.904 49.6193Z" fill="#263238"/>
<path d="M48.5208 14.4073H43.6917C43.3633 14.4073 43.0972 14.6735 43.0972 15.0019V15.9755C43.0972 16.3039 43.3633 16.57 43.6917 16.57H48.5208C48.8492 16.57 49.1153 16.3039 49.1153 15.9755V15.0019C49.1153 14.6735 48.8492 14.4073 48.5208 14.4073Z" fill="#56AA7A"/>
<path d="M48.521 16.6608H43.6936C43.512 16.6604 43.338 16.588 43.2095 16.4596C43.0811 16.3312 43.0088 16.1571 43.0083 15.9755V15.0037C43.0088 14.8221 43.0811 14.648 43.2095 14.5196C43.338 14.3912 43.512 14.3188 43.6936 14.3184H48.521C48.7024 14.3188 48.8763 14.3912 49.0044 14.5197C49.1325 14.6482 49.2045 14.8222 49.2045 15.0037V15.9755C49.2045 16.157 49.1325 16.331 49.0044 16.4595C48.8763 16.588 48.7024 16.6604 48.521 16.6608ZM43.6936 14.4964C43.5592 14.4968 43.4304 14.5504 43.3354 14.6455C43.2404 14.7405 43.1868 14.8693 43.1863 15.0037V15.9755C43.1868 16.1099 43.2404 16.2387 43.3354 16.3337C43.4304 16.4288 43.5592 16.4824 43.6936 16.4828H48.521C48.6552 16.4824 48.7838 16.4287 48.8785 16.3336C48.9733 16.2385 49.0265 16.1098 49.0265 15.9755V15.0037C49.0265 14.8694 48.9733 14.7407 48.8785 14.6456C48.7838 14.5505 48.6552 14.4968 48.521 14.4964H43.6936Z" fill="#263238"/>
<path d="M55.2923 14.4073H50.4632C50.1348 14.4073 49.8687 14.6735 49.8687 15.0019V15.9755C49.8687 16.3039 50.1348 16.57 50.4632 16.57H55.2923C55.6207 16.57 55.8868 16.3039 55.8868 15.9755V15.0019C55.8868 14.6735 55.6207 14.4073 55.2923 14.4073Z" fill="#56AA7A"/>
<path d="M55.292 16.6608H50.4646C50.283 16.6604 50.109 16.588 49.9805 16.4596C49.8521 16.3312 49.7798 16.1571 49.7793 15.9755V15.0037C49.7798 14.8221 49.8521 14.648 49.9805 14.5196C50.109 14.3912 50.283 14.3188 50.4646 14.3184H55.292C55.4734 14.3188 55.6472 14.3912 55.7754 14.5197C55.9035 14.6482 55.9755 14.8222 55.9755 15.0037V15.9755C55.9755 16.157 55.9035 16.331 55.7754 16.4595C55.6472 16.588 55.4734 16.6604 55.292 16.6608ZM50.4646 14.4964C50.3302 14.4968 50.2014 14.5504 50.1064 14.6455C50.0114 14.7405 49.9578 14.8693 49.9573 15.0037V15.9755C49.9578 16.1099 50.0114 16.2387 50.1064 16.3337C50.2014 16.4288 50.3302 16.4824 50.4646 16.4828H55.292C55.4262 16.4824 55.5548 16.4287 55.6495 16.3336C55.7443 16.2385 55.7975 16.1098 55.7975 15.9755V15.0037C55.7975 14.8694 55.7443 14.7407 55.6495 14.6456C55.5548 14.5505 55.4262 14.4968 55.292 14.4964H50.4646Z" fill="#263238"/>
<path d="M61.7464 9.27917H29.3984V13.6829H61.7464V9.27917Z" fill="#56AA7A"/>
<path d="M61.7465 13.7718H29.3986C29.375 13.7718 29.3523 13.7624 29.3356 13.7457C29.3189 13.729 29.3096 13.7064 29.3096 13.6828V9.27906C29.3096 9.25546 29.3189 9.23282 29.3356 9.21613C29.3523 9.19944 29.375 9.19006 29.3986 9.19006H61.7465C61.7701 9.19006 61.7928 9.19944 61.8094 9.21613C61.8261 9.23282 61.8355 9.25546 61.8355 9.27906V13.6828C61.8355 13.7064 61.8261 13.729 61.8094 13.7457C61.7928 13.7624 61.7701 13.7718 61.7465 13.7718ZM29.4876 13.5938H61.6575V9.36806H29.4876V13.5938Z" fill="#263238"/>
<path d="M57.6879 12.2517C57.6882 12.1416 57.6558 12.0338 57.5948 11.9421C57.5337 11.8504 57.4468 11.779 57.345 11.7368C57.2433 11.6947 57.1313 11.6838 57.0233 11.7054C56.9153 11.7271 56.8162 11.7804 56.7385 11.8585C56.6609 11.9366 56.6083 12.0361 56.5873 12.1442C56.5663 12.2524 56.578 12.3643 56.6208 12.4658C56.6636 12.5672 56.7356 12.6537 56.8277 12.7142C56.9197 12.7746 57.0277 12.8063 57.1378 12.8053C57.2839 12.8039 57.4235 12.745 57.5265 12.6414C57.6294 12.5378 57.6874 12.3978 57.6879 12.2517Z" fill="white"/>
<path d="M57.138 12.8943C57.0105 12.8943 56.8858 12.8565 56.7798 12.7856C56.6738 12.7147 56.5912 12.614 56.5425 12.4961C56.4938 12.3783 56.4812 12.2486 56.5062 12.1236C56.5312 11.9985 56.5927 11.8837 56.683 11.7937C56.7733 11.7036 56.8883 11.6424 57.0134 11.6178C57.1385 11.5931 57.2681 11.6061 57.3858 11.6552C57.5035 11.7042 57.6041 11.7871 57.6746 11.8933C57.7452 11.9995 57.7827 12.1242 57.7824 12.2517C57.7819 12.4223 57.7138 12.5858 57.593 12.7062C57.4722 12.8267 57.3086 12.8943 57.138 12.8943ZM57.138 11.7854C57.0458 11.7854 56.9556 11.8127 56.8789 11.864C56.8022 11.9152 56.7424 11.988 56.7071 12.0733C56.6719 12.1585 56.6626 12.2522 56.6806 12.3427C56.6986 12.4332 56.743 12.5163 56.8082 12.5815C56.8735 12.6467 56.9566 12.6911 57.047 12.7091C57.1375 12.7271 57.2313 12.7179 57.3165 12.6826C57.4017 12.6473 57.4745 12.5875 57.5258 12.5108C57.577 12.4341 57.6044 12.344 57.6044 12.2517C57.6039 12.1282 57.5546 12.0098 57.4673 11.9225C57.3799 11.8351 57.2616 11.7858 57.138 11.7854Z" fill="#263238"/>
<path d="M59.1923 12.2517C59.1926 12.1417 59.1603 12.0341 59.0994 11.9425C59.0385 11.8509 58.9518 11.7794 58.8503 11.7372C58.7487 11.6949 58.6369 11.6838 58.529 11.7052C58.4211 11.7265 58.322 11.7795 58.2442 11.8572C58.1664 11.935 58.1135 12.0341 58.0921 12.142C58.0708 12.2499 58.0819 12.3617 58.1242 12.4633C58.1664 12.5648 58.2379 12.6516 58.3295 12.7124C58.4211 12.7733 58.5287 12.8056 58.6387 12.8053C58.7854 12.8048 58.9259 12.7464 59.0296 12.6426C59.1333 12.5389 59.1918 12.3984 59.1923 12.2517Z" fill="white"/>
<path d="M58.6386 12.8942C58.5107 12.896 58.3852 12.8597 58.278 12.7899C58.1709 12.7201 58.0869 12.62 58.0368 12.5023C57.9867 12.3846 57.9728 12.2547 57.9968 12.1291C58.0208 12.0034 58.0816 11.8878 58.1715 11.7969C58.2615 11.7059 58.3764 11.6438 58.5018 11.6184C58.6271 11.593 58.7572 11.6055 58.8754 11.6543C58.9937 11.7031 59.0947 11.7859 59.1657 11.8923C59.2367 11.9987 59.2744 12.1238 59.2741 12.2517C59.2736 12.4207 59.2067 12.5828 59.0879 12.703C58.969 12.8232 58.8076 12.8919 58.6386 12.8942ZM58.6386 11.7853C58.546 11.7835 58.455 11.8094 58.3771 11.8595C58.2993 11.9097 58.2381 11.9819 58.2015 12.0669C58.1648 12.152 58.1543 12.246 58.1712 12.3371C58.1882 12.4281 58.2319 12.512 58.2968 12.5782C58.3616 12.6443 58.4447 12.6896 58.5354 12.7083C58.6261 12.727 58.7203 12.7183 58.8061 12.6833C58.8918 12.6483 58.9652 12.5885 59.0168 12.5117C59.0685 12.4348 59.0961 12.3443 59.0961 12.2517C59.0961 12.1295 59.0482 12.0122 58.9626 11.925C58.8771 11.8378 58.7607 11.7876 58.6386 11.7853Z" fill="#263238"/>
<path d="M60.6981 12.2517C60.6985 12.1418 60.6662 12.0343 60.6054 11.9427C60.5446 11.8511 60.458 11.7797 60.3565 11.7374C60.2551 11.6951 60.1434 11.6838 60.0355 11.705C59.9277 11.7263 59.8285 11.779 59.7507 11.8566C59.6728 11.9342 59.6198 12.0332 59.5982 12.1409C59.5766 12.2487 59.5875 12.3605 59.6295 12.4621C59.6715 12.5636 59.7427 12.6505 59.834 12.7116C59.9254 12.7727 60.0328 12.8053 60.1428 12.8053C60.2897 12.8053 60.4307 12.747 60.5348 12.6433C60.6389 12.5395 60.6976 12.3987 60.6981 12.2517Z" fill="white"/>
<path d="M60.1424 12.8943C60.0149 12.8943 59.8902 12.8565 59.7842 12.7856C59.6782 12.7147 59.5956 12.614 59.5469 12.4961C59.4982 12.3783 59.4856 12.2486 59.5106 12.1236C59.5356 11.9985 59.5971 11.8837 59.6874 11.7937C59.7777 11.7036 59.8927 11.6424 60.0178 11.6178C60.1429 11.5931 60.2725 11.6061 60.3902 11.6552C60.5079 11.7042 60.6084 11.7871 60.679 11.8933C60.7496 11.9995 60.7871 12.1242 60.7868 12.2517C60.7868 12.3363 60.7701 12.42 60.7377 12.498C60.7053 12.5761 60.6578 12.647 60.5979 12.7067C60.5381 12.7664 60.467 12.8137 60.3889 12.8459C60.3107 12.8781 60.2269 12.8945 60.1424 12.8943ZM60.1424 11.7854C60.0502 11.7854 59.96 11.8127 59.8833 11.864C59.8066 11.9152 59.7468 11.988 59.7115 12.0733C59.6762 12.1585 59.667 12.2522 59.685 12.3427C59.703 12.4332 59.7474 12.5163 59.8126 12.5815C59.8779 12.6467 59.961 12.6911 60.0514 12.7091C60.1419 12.7271 60.2357 12.7179 60.3209 12.6826C60.4061 12.6473 60.4789 12.5875 60.5302 12.5108C60.5814 12.4341 60.6088 12.344 60.6088 12.2517C60.6088 12.1905 60.5967 12.1298 60.5733 12.0733C60.5498 12.0167 60.5155 11.9653 60.4722 11.922C60.4289 11.8787 60.3775 11.8443 60.3209 11.8209C60.2643 11.7974 60.2037 11.7854 60.1424 11.7854Z" fill="#263238"/>
<path d="M61.7464 64.4875H29.3984V69.2028H61.7464V64.4875Z" fill="#56AA7A"/>
<path d="M61.7465 69.2936H29.3986C29.375 69.2936 29.3523 69.2842 29.3356 69.2675C29.3189 69.2508 29.3096 69.2282 29.3096 69.2046V64.4876C29.3096 64.464 29.3189 64.4413 29.3356 64.4246C29.3523 64.4079 29.375 64.3986 29.3986 64.3986H61.7465C61.7701 64.3986 61.7928 64.4079 61.8094 64.4246C61.8261 64.4413 61.8355 64.464 61.8355 64.4876V69.2046C61.8355 69.2282 61.8261 69.2508 61.8094 69.2675C61.7928 69.2842 61.7701 69.2936 61.7465 69.2936ZM29.4876 69.1156H61.6575V64.5766H29.4876V69.1156Z" fill="#263238"/>
<path opacity="0.04" d="M51.9101 9.27917L29.3984 48.5513V62.6026L59.9646 9.27917H51.9101Z" fill="black"/>
<path opacity="0.04" d="M61.7464 33.8235L61.2106 33.4373L41.7534 67.8091L42.2839 69.2046H61.7464V33.8235Z" fill="black"/>
<path d="M62.7165 21.0698C62.8227 21.0698 62.9246 21.0276 62.9997 20.9525C63.0748 20.8774 63.117 20.7756 63.117 20.6693V16.6732C63.117 16.6207 63.1066 16.5687 63.0865 16.5202C63.0663 16.4718 63.0368 16.4277 62.9996 16.3907C62.9624 16.3536 62.9182 16.3243 62.8696 16.3044C62.8211 16.2844 62.769 16.2743 62.7165 16.2745C62.6916 16.2728 62.6666 16.2728 62.6418 16.2745V8.79852C62.6399 8.11665 62.3677 7.46335 61.8849 6.98185C61.402 6.50036 60.748 6.22998 60.0661 6.22998H31.6733C30.9902 6.22998 30.3351 6.50134 29.852 6.98437C29.369 7.4674 29.0977 8.12253 29.0977 8.80564V69.1174C29.0974 69.4558 29.1639 69.7909 29.2932 70.1036C29.4225 70.4163 29.6122 70.7004 29.8514 70.9398C30.0906 71.1792 30.3746 71.369 30.6872 71.4986C30.9999 71.6281 31.3349 71.6948 31.6733 71.6948H60.0661C60.4045 71.6948 60.7396 71.6281 61.0522 71.4986C61.3648 71.369 61.6488 71.1792 61.888 70.9398C62.1272 70.7004 62.3169 70.4163 62.4462 70.1036C62.5755 69.7909 62.642 69.4558 62.6418 69.1174V32.428C62.6666 32.4298 62.6916 32.4298 62.7165 32.428C62.8227 32.428 62.9246 32.3858 62.9997 32.3107C63.0748 32.2356 63.117 32.1337 63.117 32.0275V28.0403C63.117 27.9341 63.0748 27.8322 62.9997 27.7571C62.9246 27.682 62.8227 27.6398 62.7165 27.6398C62.6916 27.6381 62.6666 27.6381 62.6418 27.6398V26.7374C62.6666 26.74 62.6917 26.74 62.7165 26.7374C62.769 26.7376 62.8211 26.7275 62.8696 26.7075C62.9182 26.6876 62.9624 26.6583 62.9996 26.6212C63.0368 26.5842 63.0663 26.5401 63.0865 26.4916C63.1066 26.4431 63.117 26.3911 63.117 26.3386V22.3568C63.117 22.2506 63.0748 22.1487 62.9997 22.0736C62.9246 21.9985 62.8227 21.9563 62.7165 21.9563C62.6914 21.9566 62.6663 21.9596 62.6418 21.9652V21.0609C62.6663 21.0665 62.6914 21.0695 62.7165 21.0698ZM61.1501 67.818H30.5893V10.68H61.1501V67.818Z" fill="#263238"/>
<path d="M50.3524 50.8492H41.5859V63.1633H50.3524V50.8492Z" fill="white"/>
<path d="M50.3526 63.2523H41.5861C41.5625 63.2523 41.5398 63.2429 41.5231 63.2262C41.5064 63.2095 41.4971 63.1869 41.4971 63.1633V50.8493C41.4975 50.8258 41.507 50.8034 41.5236 50.7868C41.5402 50.7702 41.5626 50.7607 41.5861 50.7603H50.3526C50.3762 50.7603 50.3988 50.7696 50.4155 50.7863C50.4322 50.803 50.4416 50.8256 50.4416 50.8493V63.1633C50.4416 63.1869 50.4322 63.2095 50.4155 63.2262C50.3988 63.2429 50.3762 63.2523 50.3526 63.2523ZM41.6751 63.0743H50.2636V50.9383H41.6751V63.0743Z" fill="#263238"/>
<path d="M50.3524 54.3648L49.0904 52.8838L46.3759 57.6061L44.5852 56.4669L41.5859 63.1633H50.3524V54.3648Z" fill="#56AA7A"/>
<path d="M50.3526 63.2523H41.5861C41.5713 63.2526 41.5566 63.249 41.5436 63.242C41.5305 63.235 41.5194 63.2248 41.5114 63.2123C41.5034 63.1998 41.4987 63.1855 41.4977 63.1707C41.4968 63.1559 41.4996 63.1411 41.506 63.1277L44.4999 56.426C44.5054 56.4147 44.5131 56.4046 44.5226 56.3963C44.5321 56.3881 44.5431 56.3818 44.5551 56.378C44.5674 56.3737 44.5806 56.3722 44.5935 56.3737C44.6065 56.3753 44.6189 56.3798 44.6299 56.3869L46.3422 57.478L49.0122 52.8358C49.0191 52.8231 49.0291 52.8124 49.0412 52.8046C49.0534 52.7968 49.0673 52.7922 49.0817 52.7913C49.0956 52.7902 49.1096 52.7924 49.1226 52.7976C49.1356 52.8029 49.1471 52.8111 49.1564 52.8215L50.4184 54.3043C50.4325 54.3199 50.4401 54.3402 50.4398 54.3612V63.1598C50.4403 63.1716 50.4384 63.1834 50.4342 63.1945C50.4301 63.2056 50.4238 63.2158 50.4156 63.2244C50.4075 63.233 50.3978 63.2399 50.3869 63.2447C50.3761 63.2495 50.3644 63.2521 50.3526 63.2523ZM41.7249 63.0743H50.2689V54.3986L49.1048 53.044L46.4579 57.6507C46.445 57.6716 46.4247 57.6868 46.401 57.6934C46.3892 57.6962 46.3769 57.6965 46.365 57.6943C46.353 57.6922 46.3417 57.6876 46.3316 57.6809L44.6245 56.604L41.7249 63.0743Z" fill="#263238"/>
<path d="M44.6387 53.1543C44.639 53.3372 44.5851 53.5161 44.4837 53.6683C44.3823 53.8205 44.2381 53.9391 44.0692 54.0093C43.9003 54.0794 43.7144 54.0979 43.535 54.0623C43.3557 54.0267 43.1909 53.9387 43.0616 53.8094C42.9323 53.6801 42.8443 53.5153 42.8087 53.3359C42.7731 53.1565 42.7915 52.9706 42.8617 52.8018C42.9318 52.6329 43.0505 52.4886 43.2027 52.3873C43.3549 52.2859 43.5337 52.2319 43.7166 52.2323C43.961 52.2328 44.1953 52.3301 44.3681 52.5029C44.5409 52.6757 44.6382 52.9099 44.6387 53.1543Z" fill="#56AA7A"/>
<path d="M43.7167 54.1671C43.5164 54.1675 43.3204 54.1084 43.1536 53.9973C42.9868 53.8862 42.8567 53.7282 42.7798 53.5431C42.7028 53.3581 42.6825 53.1544 42.7214 52.9578C42.7603 52.7612 42.8566 52.5806 42.9982 52.4388C43.1397 52.2969 43.3202 52.2003 43.5167 52.1611C43.7132 52.1218 43.917 52.1418 44.1021 52.2184C44.2873 52.295 44.4456 52.4248 44.557 52.5914C44.6683 52.758 44.7278 52.9539 44.7278 53.1543C44.7278 53.4226 44.6213 53.6799 44.4318 53.8698C44.2422 54.0597 43.9851 54.1666 43.7167 54.1671ZM43.7167 52.3213C43.5515 52.3209 43.3898 52.3696 43.2523 52.4612C43.1147 52.5528 43.0074 52.6832 42.944 52.8358C42.8806 52.9884 42.8639 53.1564 42.8961 53.3185C42.9283 53.4806 43.0078 53.6295 43.1247 53.7464C43.2415 53.8632 43.3904 53.9428 43.5525 53.9749C43.7146 54.0071 43.8826 53.9904 44.0353 53.927C44.1879 53.8636 44.3182 53.7563 44.4098 53.6188C44.5014 53.4812 44.5501 53.3196 44.5498 53.1543C44.5493 52.9335 44.4614 52.7219 44.3053 52.5658C44.1492 52.4096 43.9375 52.3217 43.7167 52.3213Z" fill="#263238"/>
<path d="M59.9628 50.8492H51.1963V63.1633H59.9628V50.8492Z" fill="white"/>
<path d="M59.9629 63.2523H51.1964C51.1728 63.2523 51.1502 63.2429 51.1335 63.2262C51.1168 63.2095 51.1074 63.1869 51.1074 63.1633V50.8493C51.1074 50.8256 51.1168 50.803 51.1335 50.7863C51.1502 50.7696 51.1728 50.7603 51.1964 50.7603H59.9629C59.9864 50.7607 60.0088 50.7702 60.0254 50.7868C60.0419 50.8034 60.0515 50.8258 60.0519 50.8493V63.1633C60.0519 63.1869 60.0425 63.2095 60.0259 63.2262C60.0092 63.2429 59.9865 63.2523 59.9629 63.2523ZM51.2854 63.0743H59.8739V50.9383H51.2854V63.0743Z" fill="#263238"/>
<path d="M59.9628 54.3648L58.699 52.8838L55.9845 57.6061L54.1938 56.4669L51.1963 63.1633H59.9628V54.3648Z" fill="#56AA7A"/>
<path d="M59.9628 63.2523H51.1963C51.1813 63.2526 51.1666 63.249 51.1534 63.2418C51.1403 63.2346 51.1293 63.2241 51.1215 63.2113C51.1145 63.1985 51.1108 63.1841 51.1108 63.1695C51.1108 63.1549 51.1145 63.1405 51.1215 63.1277L54.1119 56.426C54.1175 56.4144 54.1254 56.4041 54.1352 56.3958C54.1451 56.3876 54.1565 56.3815 54.1689 56.3779C54.1809 56.3736 54.1938 56.3722 54.2064 56.3737C54.2191 56.3753 54.2312 56.3798 54.2419 56.3868L55.9542 57.478L58.6242 52.8357C58.6313 52.8233 58.6414 52.8127 58.6535 52.805C58.6656 52.7972 58.6793 52.7925 58.6936 52.7912C58.7078 52.7903 58.7221 52.7925 58.7353 52.7977C58.7486 52.803 58.7605 52.8111 58.7702 52.8215L60.0322 54.3042C60.0454 54.3203 60.0529 54.3404 60.0536 54.3612V63.1597C60.0541 63.1719 60.0521 63.184 60.0477 63.1953C60.0433 63.2066 60.0367 63.217 60.0282 63.2256C60.0197 63.2343 60.0095 63.2411 59.9982 63.2457C59.987 63.2503 59.9749 63.2525 59.9628 63.2523ZM51.3333 63.0743H59.8773V54.3986L58.7132 53.044L56.0699 57.6506C56.0637 57.6612 56.0555 57.6704 56.0457 57.6777C56.0359 57.685 56.0248 57.6903 56.013 57.6933C56.0014 57.6962 55.9895 57.6965 55.9778 57.6944C55.9661 57.6922 55.9551 57.6876 55.9453 57.6809L54.233 56.604L51.3333 63.0743Z" fill="#263238"/>
<path d="M54.249 53.1543C54.2494 53.3371 54.1955 53.5159 54.0942 53.6681C53.9929 53.8202 53.8487 53.9389 53.6799 54.0091C53.5112 54.0793 53.3254 54.0979 53.1461 54.0624C52.9667 54.027 52.802 53.9391 52.6726 53.81C52.5432 53.6809 52.455 53.5163 52.4192 53.337C52.3835 53.1578 52.4016 52.9719 52.4715 52.803C52.5414 52.6341 52.6598 52.4897 52.8118 52.3881C52.9637 52.2865 53.1424 52.2323 53.3252 52.2323C53.5697 52.2328 53.8042 52.33 53.9773 52.5028C54.1504 52.6755 54.2481 52.9098 54.249 53.1543Z" fill="#56AA7A"/>
<path d="M53.3253 54.1671C53.125 54.1671 52.9292 54.1077 52.7626 53.9964C52.5961 53.8851 52.4663 53.727 52.3896 53.5419C52.3129 53.3568 52.2929 53.1532 52.332 52.9567C52.371 52.7602 52.4675 52.5798 52.6091 52.4381C52.7508 52.2965 52.9313 52.2 53.1277 52.1609C53.3242 52.1219 53.5278 52.1419 53.7129 52.2186C53.898 52.2952 54.0562 52.425 54.1675 52.5916C54.2787 52.7582 54.3381 52.954 54.3381 53.1543C54.3381 53.4229 54.2314 53.6805 54.0415 53.8705C53.8515 54.0604 53.5939 54.1671 53.3253 54.1671ZM53.3253 52.3213C53.1601 52.3213 52.9987 52.3703 52.8613 52.4621C52.724 52.5539 52.617 52.6844 52.5539 52.837C52.4907 52.9897 52.4743 53.1576 52.5067 53.3196C52.539 53.4816 52.6187 53.6303 52.7356 53.747C52.8526 53.8637 53.0015 53.9431 53.1635 53.9751C53.3256 54.0071 53.4935 53.9903 53.646 53.9268C53.7985 53.8634 53.9288 53.7561 54.0203 53.6186C54.1118 53.4811 54.1605 53.3195 54.1601 53.1543C54.1597 52.9332 54.0715 52.7213 53.915 52.5651C53.7585 52.409 53.5464 52.3213 53.3253 52.3213Z" fill="#263238"/>
<path d="M40.744 50.8492H31.9775V63.1633H40.744V50.8492Z" fill="white"/>
<path d="M40.7442 63.2523H31.9777C31.9541 63.2523 31.9314 63.2429 31.9147 63.2262C31.898 63.2095 31.8887 63.1869 31.8887 63.1633V50.8493C31.8891 50.8258 31.8987 50.8034 31.9152 50.7868C31.9318 50.7702 31.9542 50.7607 31.9777 50.7603H40.7442C40.7678 50.7603 40.7904 50.7696 40.8071 50.7863C40.8238 50.803 40.8332 50.8256 40.8332 50.8493V63.1633C40.8332 63.1869 40.8238 63.2095 40.8071 63.2262C40.7904 63.2429 40.7678 63.2523 40.7442 63.2523ZM32.0667 63.0743H40.6552V50.9383H32.0667V63.0743Z" fill="#263238"/>
<path d="M36.3509 53.9429C36.0655 53.9422 35.7828 53.9978 35.5189 54.1065C35.2551 54.2152 35.0152 54.375 34.8132 54.5765C34.6111 54.7781 34.4508 55.0175 34.3415 55.2811C34.2321 55.5447 34.1758 55.8273 34.1758 56.1127C34.1758 57.316 36.3509 59.63 36.3509 59.63C36.3509 59.63 38.5208 57.316 38.5208 56.1091C38.5198 55.5343 38.2908 54.9833 37.884 54.5771C37.4772 54.171 36.9258 53.9429 36.3509 53.9429ZM36.3509 56.9689C36.1823 56.9689 36.0175 56.9189 35.8773 56.8252C35.737 56.7315 35.6278 56.5983 35.5632 56.4425C35.4987 56.2867 35.4818 56.1153 35.5147 55.9499C35.5476 55.7845 35.6288 55.6326 35.748 55.5134C35.8673 55.3941 36.0192 55.3129 36.1846 55.28C36.35 55.2471 36.5214 55.264 36.6772 55.3285C36.833 55.3931 36.9662 55.5024 37.0599 55.6426C37.1536 55.7828 37.2036 55.9476 37.2036 56.1163C37.2017 56.341 37.111 56.5558 36.9512 56.7139C36.7915 56.872 36.5757 56.9605 36.3509 56.96V56.9689Z" fill="#56AA7A"/>
<path d="M36.3511 59.7225C36.339 59.7226 36.3271 59.7201 36.316 59.7152C36.305 59.7103 36.2951 59.7031 36.287 59.6941C36.1962 59.5979 34.0923 57.332 34.0923 56.1127C34.0923 55.5136 34.3303 54.9391 34.7539 54.5155C35.1775 54.0919 35.752 53.8539 36.3511 53.8539C36.9502 53.8539 37.5247 54.0919 37.9483 54.5155C38.3719 54.9391 38.6099 55.5136 38.6099 56.1127C38.6099 57.332 36.506 59.5979 36.417 59.6941C36.4084 59.703 36.3982 59.7101 36.3869 59.7149C36.3756 59.7198 36.3634 59.7224 36.3511 59.7225ZM36.3511 54.0265C35.7994 54.027 35.2704 54.2464 34.8803 54.6365C34.4901 55.0266 34.2708 55.5556 34.2703 56.1074C34.2703 57.1415 35.9915 59.0995 36.3511 59.4894C36.7071 59.0924 38.4319 57.1344 38.4319 56.1074C38.43 55.5566 38.21 55.0289 37.8201 54.64C37.4301 54.251 36.9019 54.0323 36.3511 54.0319V54.0265ZM36.3511 57.0525C36.1649 57.0525 35.9828 56.9973 35.828 56.8939C35.6731 56.7904 35.5524 56.6433 35.4812 56.4713C35.4099 56.2992 35.3912 56.1099 35.4276 55.9272C35.4639 55.7446 35.5536 55.5768 35.6853 55.4451C35.817 55.3134 35.9847 55.2237 36.1674 55.1874C36.3501 55.1511 36.5394 55.1697 36.7114 55.241C36.8835 55.3123 37.0306 55.4329 37.134 55.5878C37.2375 55.7426 37.2927 55.9247 37.2927 56.1109C37.293 56.2347 37.2688 56.3574 37.2216 56.4718C37.1743 56.5863 37.105 56.6903 37.0176 56.7779C36.9301 56.8655 36.8262 56.935 36.7119 56.9825C36.5975 57.0299 36.4749 57.0543 36.3511 57.0543V57.0525ZM36.3511 55.3473C36.2001 55.3473 36.0524 55.3921 35.9269 55.476C35.8013 55.5599 35.7034 55.6792 35.6456 55.8187C35.5878 55.9582 35.5727 56.1118 35.6022 56.2599C35.6316 56.408 35.7043 56.5441 35.8111 56.6509C35.9179 56.7577 36.054 56.8304 36.2021 56.8599C36.3503 56.8893 36.5038 56.8742 36.6433 56.8164C36.7829 56.7586 36.9021 56.6607 36.986 56.5352C37.0699 56.4096 37.1147 56.262 37.1147 56.1109C37.1119 55.9103 37.0302 55.7188 36.8873 55.5779C36.7444 55.437 36.5518 55.358 36.3511 55.358V55.3473Z" fill="#263238"/>
<path d="M40.6552 57.6132H39.3807C39.3571 57.6132 39.3345 57.6038 39.3178 57.5871C39.3011 57.5704 39.2917 57.5478 39.2917 57.5242V52.4548H34.2775C34.2539 52.4548 34.2312 52.4454 34.2145 52.4287C34.1979 52.412 34.1885 52.3894 34.1885 52.3658V50.9791C34.1889 50.9557 34.1985 50.9333 34.215 50.9167C34.2316 50.9001 34.254 50.8906 34.2775 50.8901C34.3011 50.8901 34.3237 50.8995 34.3404 50.9162C34.3571 50.9329 34.3665 50.9555 34.3665 50.9791V52.2768H39.3807C39.4042 52.2772 39.4266 52.2867 39.4432 52.3033C39.4598 52.3199 39.4693 52.3423 39.4697 52.3658V57.4352H40.6552C40.6788 57.4352 40.7015 57.4446 40.7181 57.4613C40.7348 57.478 40.7442 57.5006 40.7442 57.5242C40.7442 57.5478 40.7348 57.5704 40.7181 57.5871C40.7015 57.6038 40.6788 57.6132 40.6552 57.6132Z" fill="#263238"/>
<path d="M32.0594 55.002C32.0379 55.0019 32.0172 54.9943 32.0007 54.9806C31.9918 54.9731 31.9845 54.9639 31.9792 54.9535C31.9739 54.9431 31.9708 54.9318 31.9699 54.9202C31.9691 54.9086 31.9706 54.8969 31.9744 54.8859C31.9781 54.8749 31.984 54.8647 31.9918 54.856L34.2114 52.3035C34.2273 52.2869 34.249 52.2772 34.2719 52.2762C34.2948 52.2752 34.3172 52.2832 34.3344 52.2983C34.3516 52.3135 34.3623 52.3347 34.3643 52.3575C34.3663 52.3804 34.3593 52.4031 34.3449 52.421L32.1271 54.9717C32.1185 54.9811 32.108 54.9887 32.0964 54.9939C32.0848 54.9991 32.0722 55.0018 32.0594 55.002Z" fill="#263238"/>
<path d="M37.2731 63.158C37.2495 63.158 37.2268 63.1486 37.2102 63.1319C37.1935 63.1152 37.1841 63.0926 37.1841 63.069V60.1302C37.1841 60.1066 37.1935 60.084 37.2102 60.0673C37.2268 60.0506 37.2495 60.0412 37.2731 60.0412H39.2916V57.5243C39.2916 57.5007 39.301 57.4781 39.3177 57.4614C39.3344 57.4447 39.357 57.4353 39.3806 57.4353C39.4042 57.4353 39.4268 57.4447 39.4435 57.4614C39.4602 57.4781 39.4696 57.5007 39.4696 57.5243V60.1302C39.4696 60.1538 39.4602 60.1765 39.4435 60.1932C39.4268 60.2098 39.4042 60.2192 39.3806 60.2192H37.3621V63.0672C37.3623 63.0791 37.3602 63.0908 37.3558 63.1018C37.3515 63.1128 37.3449 63.1229 37.3367 63.1313C37.3284 63.1398 37.3185 63.1465 37.3076 63.1511C37.2966 63.1556 37.2849 63.158 37.2731 63.158Z" fill="#263238"/>
<path d="M40.7105 61.3833H33.5567C33.5331 61.3833 33.5104 61.3739 33.4937 61.3573C33.4771 61.3406 33.4677 61.3179 33.4677 61.2943V59.5535H32.1149C32.0913 59.5535 32.0686 59.5441 32.0519 59.5274C32.0353 59.5107 32.0259 59.4881 32.0259 59.4645C32.0259 59.4409 32.0353 59.4182 32.0519 59.4016C32.0686 59.3849 32.0913 59.3755 32.1149 59.3755H33.5567C33.5803 59.3755 33.6029 59.3849 33.6196 59.4016C33.6363 59.4182 33.6457 59.4409 33.6457 59.4645V61.2053H40.7105C40.7341 61.2053 40.7567 61.2147 40.7734 61.2314C40.7901 61.2481 40.7995 61.2707 40.7995 61.2943C40.7995 61.3179 40.7901 61.3406 40.7734 61.3573C40.7567 61.3739 40.7341 61.3833 40.7105 61.3833Z" fill="#263238"/>
<path d="M34.8327 63.158C34.809 63.158 34.7864 63.1486 34.7697 63.1319C34.753 63.1152 34.7437 63.0926 34.7437 63.069V61.3495C34.7437 61.3259 34.753 61.3033 34.7697 61.2866C34.7864 61.2699 34.809 61.2605 34.8327 61.2605C34.8563 61.2605 34.8789 61.2699 34.8956 61.2866C34.9123 61.3033 34.9217 61.3259 34.9217 61.3495V63.069C34.9217 63.0926 34.9123 63.1152 34.8956 63.1319C34.8789 63.1486 34.8563 63.158 34.8327 63.158Z" fill="#263238"/>
<path d="M37.5774 54.2579C37.5658 54.2578 37.5542 54.2554 37.5435 54.2508C37.5328 54.2463 37.5232 54.2396 37.5151 54.2312C37.5068 54.2229 37.5001 54.2131 37.4956 54.2022C37.4911 54.1914 37.4888 54.1798 37.4888 54.168C37.4888 54.1563 37.4911 54.1446 37.4956 54.1338C37.5001 54.1229 37.5068 54.1131 37.5151 54.1048L39.2951 52.3248V50.9791C39.2951 50.9555 39.3045 50.9329 39.3212 50.9162C39.3379 50.8995 39.3605 50.8901 39.3841 50.8901C39.4076 50.8906 39.4299 50.9001 39.4465 50.9167C39.4631 50.9333 39.4726 50.9557 39.4731 50.9791V52.3658C39.4727 52.3897 39.4631 52.4126 39.4464 52.4298L37.6433 54.2312C37.6349 54.2402 37.6247 54.2473 37.6133 54.2519C37.6019 54.2565 37.5897 54.2586 37.5774 54.2579Z" fill="#263238"/>
<path d="M34.5001 57.3356H32.0597C32.0361 57.3356 32.0135 57.3262 31.9968 57.3095C31.9801 57.2928 31.9707 57.2702 31.9707 57.2466C31.9707 57.223 31.9801 57.2004 31.9968 57.1837C32.0135 57.167 32.0361 57.1576 32.0597 57.1576H34.5001C34.5237 57.1576 34.5463 57.167 34.563 57.1837C34.5797 57.2004 34.5891 57.223 34.5891 57.2466C34.5891 57.2702 34.5797 57.2928 34.563 57.3095C34.5463 57.3262 34.5237 57.3356 34.5001 57.3356Z" fill="#263238"/>
<path d="M57.6505 29.5675H34.1812V45.4576H57.6505V29.5675Z" fill="white"/>
<path d="M57.6488 45.5466H34.1759C34.1523 45.5466 34.1297 45.5372 34.113 45.5205C34.0963 45.5038 34.0869 45.4812 34.0869 45.4576V29.5675C34.0869 29.5439 34.0963 29.5213 34.113 29.5046C34.1297 29.4879 34.1523 29.4785 34.1759 29.4785H57.6488C57.6724 29.4785 57.695 29.4879 57.7117 29.5046C57.7284 29.5213 57.7378 29.5439 57.7378 29.5675V45.4576C57.7378 45.4812 57.7284 45.5038 57.7117 45.5205C57.695 45.5372 57.6724 45.5466 57.6488 45.5466ZM34.2703 45.3686H57.5598V29.6565H34.2703V45.3686Z" fill="#263238"/>
<path d="M57.6505 42.339H34.1812V45.4593H57.6505V42.339Z" fill="#56AA7A"/>
<path d="M57.6488 45.5466H34.1759C34.1523 45.5466 34.1297 45.5372 34.113 45.5205C34.0963 45.5038 34.0869 45.4812 34.0869 45.4576V42.339C34.0869 42.3154 34.0963 42.2928 34.113 42.2761C34.1297 42.2594 34.1523 42.25 34.1759 42.25H57.6488C57.6724 42.25 57.695 42.2594 57.7117 42.2761C57.7284 42.2928 57.7378 42.3154 57.7378 42.339V45.4576C57.7378 45.4812 57.7284 45.5038 57.7117 45.5205C57.695 45.5372 57.6724 45.5466 57.6488 45.5466ZM34.2703 45.3686H57.5598V42.428H34.2703V45.3686Z" fill="#263238"/>
<path d="M57.4031 30.0267H49.4785V39.0193H57.4031V30.0267Z" fill="white"/>
<path d="M57.4032 39.1101H49.484C49.4606 39.1096 49.4382 39.1001 49.4216 39.0835C49.405 39.0669 49.3955 39.0445 49.395 39.0211V30.0267C49.3955 30.0033 49.405 29.9809 49.4216 29.9643C49.4382 29.9477 49.4606 29.9382 49.484 29.9377H57.4086C57.4322 29.9377 57.4548 29.9471 57.4715 29.9638C57.4882 29.9805 57.4976 30.0031 57.4976 30.0267V39.0211C57.4976 39.0332 57.4951 39.0453 57.4903 39.0564C57.4855 39.0676 57.4785 39.0776 57.4697 39.086C57.4608 39.0943 57.4504 39.1008 57.4389 39.1049C57.4275 39.1091 57.4154 39.1108 57.4032 39.1101ZM49.5712 38.9321H57.316V30.1157H49.5677L49.5712 38.9321Z" fill="#263238"/>
<path d="M42.3601 30.0267H34.4355V39.0193H42.3601V30.0267Z" fill="white"/>
<path d="M42.3638 39.1101H34.4357C34.4121 39.1101 34.3894 39.1007 34.3727 39.084C34.3561 39.0673 34.3467 39.0447 34.3467 39.0211V30.0267C34.3467 30.0031 34.3561 29.9805 34.3727 29.9638C34.3894 29.9471 34.4121 29.9377 34.4357 29.9377H42.3638C42.3873 29.9382 42.4096 29.9477 42.4262 29.9643C42.4428 29.9809 42.4523 30.0033 42.4528 30.0267V39.0211C42.4523 39.0445 42.4428 39.0669 42.4262 39.0835C42.4096 39.1001 42.3873 39.1096 42.3638 39.1101ZM34.5318 38.9321H42.2784V30.1157H34.5318V38.9321Z" fill="#263238"/>
<path d="M57.4031 34.2347L49.4785 37.0026V30.0267H57.4031V34.2347Z" fill="#263238"/>
<path d="M49.484 37.0916C49.4723 37.0918 49.4606 37.0897 49.4497 37.0853C49.4388 37.0809 49.4289 37.0743 49.4206 37.066C49.4123 37.0577 49.4057 37.0478 49.4013 37.0369C49.3969 37.026 49.3948 37.0143 49.395 37.0026V30.0267C49.3955 30.0033 49.405 29.9809 49.4216 29.9643C49.4382 29.9477 49.4606 29.9382 49.484 29.9377H57.4086C57.4322 29.9377 57.4548 29.9471 57.4715 29.9638C57.4882 29.9805 57.4976 30.0031 57.4976 30.0267V34.2347C57.4976 34.253 57.4919 34.2708 57.4814 34.2858C57.4709 34.3007 57.4561 34.3121 57.4389 34.3183L49.5143 37.0862C49.5046 37.0897 49.4944 37.0915 49.484 37.0916ZM49.573 30.1157V36.8797L57.316 34.1759V30.1157H49.573Z" fill="#263238"/>
<path d="M42.3583 34.2347L34.4355 37.5241V30.0267H42.3583V34.2347Z" fill="#263238"/>
<path d="M34.4357 37.6131C34.4181 37.613 34.4008 37.6081 34.3858 37.5989C34.3737 37.5905 34.3639 37.5793 34.357 37.5663C34.3502 37.5533 34.3467 37.5388 34.3467 37.5241V30.0267C34.3467 30.0031 34.3561 29.9805 34.3727 29.9638C34.3894 29.9471 34.4121 29.9377 34.4357 29.9377H42.3638C42.3873 29.9382 42.4096 29.9477 42.4262 29.9643C42.4428 29.9809 42.4523 30.0033 42.4528 30.0267V34.2347C42.4525 34.2522 42.4471 34.2692 42.4373 34.2838C42.4275 34.2983 42.4137 34.3097 42.3976 34.3165L34.4731 37.606C34.4614 37.6115 34.4485 37.6139 34.4357 37.6131ZM34.5247 30.1157V37.3906L42.2712 34.1759V30.1157H34.5247Z" fill="#263238"/>
<path d="M49.1545 29.5675H42.6753V45.4576H49.1545V29.5675Z" fill="#56AA7A"/>
<path d="M49.1546 45.5466H42.6754C42.6518 45.5466 42.6292 45.5372 42.6125 45.5205C42.5958 45.5038 42.5864 45.4812 42.5864 45.4576V29.5675C42.5869 29.5441 42.5964 29.5217 42.613 29.5051C42.6296 29.4885 42.652 29.479 42.6754 29.4785H49.1546C49.1781 29.479 49.2005 29.4885 49.2171 29.5051C49.2336 29.5217 49.2432 29.5441 49.2436 29.5675V45.4576C49.2436 45.4812 49.2342 45.5038 49.2176 45.5205C49.2009 45.5372 49.1782 45.5466 49.1546 45.5466ZM42.7644 45.3686H49.0656V29.6565H42.7644V45.3686Z" fill="#263238"/>
<path d="M43.042 38.2468H48.7878V44.8559H43.042V38.2468ZM43.042 30.1674V36.7801H48.7878V30.1674H43.042Z" fill="white"/>
<path d="M48.788 44.9485H43.0421C43.0187 44.948 42.9963 44.9385 42.9797 44.9219C42.9631 44.9053 42.9536 44.883 42.9531 44.8595V38.2468C42.9531 38.2232 42.9625 38.2005 42.9792 38.1839C42.9959 38.1672 43.0185 38.1578 43.0421 38.1578H48.788C48.8116 38.1578 48.8342 38.1672 48.8509 38.1839C48.8676 38.2005 48.877 38.2232 48.877 38.2468V44.8559C48.8772 44.8679 48.8751 44.8797 48.8707 44.8908C48.8664 44.9019 48.8599 44.9121 48.8516 44.9206C48.8434 44.9292 48.8335 44.9361 48.8226 44.9409C48.8116 44.9457 48.7999 44.9483 48.788 44.9485ZM43.1311 44.7705H48.699V38.3358H43.1311V44.7705ZM48.788 36.8691H43.0421C43.0185 36.8691 42.9959 36.8597 42.9792 36.843C42.9625 36.8263 42.9531 36.8037 42.9531 36.7801V30.1674C42.9536 30.1439 42.9631 30.1215 42.9797 30.1049C42.9963 30.0883 43.0187 30.0788 43.0421 30.0784H48.788C48.8114 30.0788 48.8338 30.0883 48.8504 30.1049C48.867 30.1215 48.8765 30.1439 48.877 30.1674V36.7801C48.877 36.7918 48.8747 36.8033 48.8702 36.8141C48.8657 36.8249 48.8592 36.8347 48.8509 36.843C48.8426 36.8513 48.8328 36.8578 48.822 36.8623C48.8112 36.8668 48.7997 36.8691 48.788 36.8691ZM43.1311 36.6911H48.699V30.2599H43.1311V36.6911Z" fill="#263238"/>
<path d="M48.7877 44.1048V43.2896L44.7524 44.8595H46.8137L48.7877 44.1048Z" fill="#263238"/>
<path d="M43.042 34.8594L48.7878 32.3514V30.1674H43.042V34.8594Z" fill="#263238"/>
<path d="M46.479 36.78L48.7877 35.8972V35.1674L44.6367 36.78H46.479Z" fill="#263238"/>
<path d="M43.042 43.8841L48.7878 41.5274V38.2468H43.042V43.8841Z" fill="#263238"/>
<path d="M33.8535 29.8826C33.8535 29.911 33.8535 29.9413 33.8535 29.9716C33.8662 30.3188 34.013 30.6476 34.2632 30.8888C34.5133 31.13 34.8473 31.2648 35.1947 31.2648C35.5422 31.2648 35.8762 31.13 36.1263 30.8888C36.3765 30.6476 36.5233 30.3188 36.536 29.9716C36.536 29.9413 36.536 29.911 36.536 29.8826H33.8535Z" fill="white"/>
<path d="M35.1906 31.401C34.8129 31.401 34.4507 31.2509 34.1837 30.9839C33.9166 30.7168 33.7666 30.3546 33.7666 29.977C33.7666 29.9503 33.7666 29.9253 33.7666 29.9004V29.8826C33.768 29.8599 33.7779 29.8387 33.7945 29.8231C33.811 29.8075 33.8329 29.7989 33.8556 29.799H36.5256C36.5483 29.7989 36.5702 29.8075 36.5867 29.8231C36.6033 29.8387 36.6132 29.8599 36.6146 29.8826V29.9004C36.6146 29.9253 36.6146 29.9503 36.6146 29.977C36.6146 30.3546 36.4646 30.7168 36.1975 30.9839C35.9305 31.2509 35.5683 31.401 35.1906 31.401ZM33.9446 29.977C33.9446 30.3091 34.0765 30.6276 34.3114 30.8624C34.5462 31.0972 34.8647 31.2292 35.1968 31.2292C35.5289 31.2292 35.8475 31.0972 36.0823 30.8624C36.3171 30.6276 36.4491 30.3091 36.4491 29.977H33.9446Z" fill="#263238"/>
<path d="M36.3813 29.8826C36.3813 29.911 36.3813 29.9413 36.3813 29.9716C36.3813 30.327 36.5226 30.668 36.7739 30.9193C37.0253 31.1707 37.3662 31.3119 37.7217 31.3119C38.0772 31.3119 38.4181 31.1707 38.6695 30.9193C38.9208 30.668 39.062 30.327 39.062 29.9716C39.062 29.9413 39.062 29.911 39.062 29.8826H36.3813Z" fill="#56AA7A"/>
<path d="M37.7179 31.401C37.3403 31.401 36.9781 31.2509 36.711 30.9839C36.444 30.7168 36.2939 30.3546 36.2939 29.977C36.2939 29.9503 36.2939 29.9236 36.2939 29.8986C36.2956 29.8742 36.3055 29.8511 36.322 29.833C36.3385 29.8149 36.3606 29.8029 36.3847 29.799H39.0547C39.0771 29.7989 39.0988 29.8073 39.1153 29.8225C39.1318 29.8376 39.1419 29.8585 39.1437 29.8808C39.1437 29.9235 39.1437 29.9503 39.1437 29.977C39.1437 30.1641 39.1068 30.3494 39.0352 30.5223C38.9635 30.6952 38.8584 30.8522 38.726 30.9845C38.5936 31.1168 38.4364 31.2216 38.2634 31.2931C38.0905 31.3645 37.9051 31.4012 37.7179 31.401ZM36.4719 29.977C36.4719 30.3088 36.6038 30.6271 36.8385 30.8618C37.0731 31.0965 37.3914 31.2283 37.7233 31.2283C38.0552 31.2283 38.3734 31.0965 38.6081 30.8618C38.8428 30.6271 38.9746 30.3088 38.9746 29.977H36.4719Z" fill="#263238"/>
<path d="M39.0688 29.8826C39.0688 29.911 39.0688 29.9413 39.0688 29.9716C39.0688 30.327 39.2101 30.668 39.4614 30.9193C39.7128 31.1707 40.0537 31.3119 40.4092 31.3119C40.7647 31.3119 41.1056 31.1707 41.357 30.9193C41.6083 30.668 41.7495 30.327 41.7495 29.9716C41.7495 29.9413 41.7495 29.911 41.7495 29.8826H39.0688Z" fill="white"/>
<path d="M40.4059 31.401C40.0283 31.401 39.6661 31.2509 39.399 30.9839C39.132 30.7168 38.9819 30.3546 38.9819 29.977C38.9819 29.9503 38.9819 29.9236 38.9819 29.8969C38.9833 29.8728 38.9929 29.8499 39.0091 29.8321C39.0253 29.8143 39.0471 29.8026 39.0709 29.799H41.7409C41.7634 29.7989 41.785 29.8073 41.8015 29.8225C41.818 29.8376 41.8281 29.8585 41.8299 29.8808C41.8299 29.9235 41.8299 29.9503 41.8299 29.977C41.8299 30.3546 41.6799 30.7168 41.4129 30.9839C41.1458 31.2509 40.7836 31.401 40.4059 31.401ZM39.1599 29.977C39.1599 30.3088 39.2918 30.6271 39.5264 30.8618C39.7611 31.0965 40.0794 31.2283 40.4113 31.2283C40.7431 31.2283 41.0614 31.0965 41.2961 30.8618C41.5308 30.6271 41.6626 30.3088 41.6626 29.977H39.1599Z" fill="#263238"/>
<path d="M41.7568 29.8826C41.7568 29.911 41.7568 29.9413 41.7568 29.9716C41.7568 30.327 41.8981 30.668 42.1494 30.9193C42.4008 31.1707 42.7417 31.3119 43.0972 31.3119C43.4527 31.3119 43.7936 31.1707 44.0449 30.9193C44.2963 30.668 44.4375 30.327 44.4375 29.9716C44.4375 29.9413 44.4375 29.911 44.4375 29.8826H41.7568Z" fill="#56AA7A"/>
<path d="M43.0934 31.401C42.7158 31.401 42.3536 31.2509 42.0865 30.9839C41.8195 30.7168 41.6694 30.3546 41.6694 29.977C41.6694 29.9503 41.6694 29.9253 41.6694 29.9004V29.8826C41.6708 29.8599 41.6808 29.8387 41.6973 29.8231C41.7139 29.8075 41.7357 29.7989 41.7584 29.799H44.4284C44.4511 29.7989 44.473 29.8075 44.4896 29.8231C44.5061 29.8387 44.5161 29.8599 44.5174 29.8826V29.9004C44.5174 29.9253 44.5174 29.9503 44.5174 29.977C44.5174 30.3546 44.3674 30.7168 44.1004 30.9839C43.8333 31.2509 43.4711 31.401 43.0934 31.401ZM41.8474 29.977C41.8474 30.3088 41.9793 30.6271 42.2139 30.8618C42.4486 31.0965 42.7669 31.2283 43.0988 31.2283C43.4306 31.2283 43.7489 31.0965 43.9836 30.8618C44.2183 30.6271 44.3501 30.3088 44.3501 29.977H41.8474Z" fill="#263238"/>
<path d="M44.4448 29.8826C44.4448 29.911 44.4448 29.9413 44.4448 29.9716C44.4448 30.327 44.586 30.668 44.8374 30.9193C45.0888 31.1707 45.4297 31.3119 45.7852 31.3119C46.1406 31.3119 46.4816 31.1707 46.7329 30.9193C46.9843 30.668 47.1255 30.327 47.1255 29.9716C47.1255 29.9413 47.1255 29.911 47.1255 29.8826H44.4448Z" fill="white"/>
<path d="M45.7814 31.401C45.4038 31.401 45.0416 31.2509 44.7745 30.9839C44.5075 30.7168 44.3574 30.3546 44.3574 29.977C44.3574 29.9503 44.3574 29.9253 44.3574 29.9004V29.8826C44.3588 29.8599 44.3688 29.8387 44.3853 29.8231C44.4019 29.8075 44.4237 29.7989 44.4464 29.799H47.1164C47.1391 29.7989 47.161 29.8075 47.1775 29.8231C47.1941 29.8387 47.2041 29.8599 47.2054 29.8826V29.9004C47.2054 29.9253 47.2054 29.9503 47.2054 29.977C47.2054 30.3546 47.0554 30.7168 46.7883 30.9839C46.5213 31.2509 46.1591 31.401 45.7814 31.401ZM44.5354 29.977C44.5354 30.3088 44.6673 30.6271 44.9019 30.8618C45.1366 31.0965 45.4549 31.2283 45.7868 31.2283C46.1186 31.2283 46.4369 31.0965 46.6716 30.8618C46.9063 30.6271 47.0381 30.3088 47.0381 29.977H44.5354Z" fill="#263238"/>
<path d="M47.1699 29.8826C47.1699 29.911 47.1699 29.9413 47.1699 29.9716C47.1699 30.327 47.3111 30.668 47.5625 30.9193C47.8139 31.1707 48.1548 31.3119 48.5103 31.3119C48.8657 31.3119 49.2067 31.1707 49.458 30.9193C49.7094 30.668 49.8506 30.327 49.8506 29.9716C49.8506 29.9413 49.8506 29.911 49.8506 29.8826H47.1699Z" fill="#56AA7A"/>
<path d="M48.5011 31.401C48.1235 31.401 47.7613 31.2509 47.4942 30.9839C47.2272 30.7168 47.0771 30.3546 47.0771 29.977C47.0771 29.9503 47.0771 29.9236 47.0771 29.8969C47.0785 29.8728 47.0881 29.8499 47.1043 29.8321C47.1205 29.8143 47.1423 29.8026 47.1661 29.799H49.8361C49.8589 29.7989 49.8807 29.8075 49.8973 29.8231C49.9138 29.8387 49.9238 29.8599 49.9251 29.8826C49.9251 29.9236 49.9251 29.9503 49.9251 29.977C49.9251 30.3546 49.7751 30.7168 49.5081 30.9839C49.241 31.2509 48.8788 31.401 48.5011 31.401ZM47.2551 29.977C47.2551 30.3088 47.387 30.6271 47.6217 30.8618C47.8563 31.0965 48.1746 31.2283 48.5065 31.2283C48.8384 31.2283 49.1566 31.0965 49.3913 30.8618C49.626 30.6271 49.7578 30.3088 49.7578 29.977H47.2551Z" fill="#263238"/>
<path d="M49.8521 29.8826C49.8521 29.911 49.8521 29.9413 49.8521 29.9716C49.8521 30.327 49.9933 30.668 50.2446 30.9193C50.496 31.1707 50.8369 31.3119 51.1924 31.3119C51.5479 31.3119 51.8888 31.1707 52.1402 30.9193C52.3915 30.668 52.5327 30.327 52.5327 29.9716C52.5327 29.9413 52.5327 29.911 52.5327 29.8826H49.8521Z" fill="white"/>
<path d="M51.1891 31.401C50.8115 31.401 50.4493 31.2509 50.1822 30.9839C49.9152 30.7168 49.7651 30.3546 49.7651 29.977C49.7651 29.9503 49.7651 29.9253 49.7651 29.9004V29.8826C49.7665 29.8599 49.7765 29.8387 49.793 29.8231C49.8096 29.8075 49.8314 29.7989 49.8541 29.799H52.5241C52.5468 29.7989 52.5687 29.8075 52.5853 29.8231C52.6018 29.8387 52.6118 29.8599 52.6131 29.8826V29.9004C52.6131 29.9253 52.6131 29.9503 52.6131 29.977C52.6131 30.3546 52.4631 30.7168 52.1961 30.9839C51.929 31.2509 51.5668 31.401 51.1891 31.401ZM49.9431 29.977C49.9431 30.3088 50.075 30.6271 50.3096 30.8618C50.5443 31.0965 50.8626 31.2283 51.1945 31.2283C51.5264 31.2283 51.8446 31.0965 52.0793 30.8618C52.314 30.6271 52.4458 30.3088 52.4458 29.977H49.9431Z" fill="#263238"/>
<path d="M52.6685 29.8826C52.6685 29.911 52.6685 29.9413 52.6685 29.9716C52.6685 30.327 52.8097 30.668 53.061 30.9193C53.3124 31.1707 53.6533 31.3119 54.0088 31.3119C54.3643 31.3119 54.7052 31.1707 54.9566 30.9193C55.2079 30.668 55.3491 30.327 55.3491 29.9716C55.3491 29.9413 55.3491 29.911 55.3491 29.8826H52.6685Z" fill="#56AA7A"/>
<path d="M54.0051 31.401C53.6274 31.401 53.2652 31.2509 52.9981 30.9839C52.7311 30.7168 52.5811 30.3546 52.5811 29.977C52.5811 29.9503 52.5811 29.9253 52.5811 29.9004V29.8826C52.5824 29.8599 52.5924 29.8387 52.6089 29.8231C52.6255 29.8075 52.6473 29.7989 52.6701 29.799H55.3401C55.3628 29.7989 55.3846 29.8075 55.4012 29.8231C55.4177 29.8387 55.4277 29.8599 55.4291 29.8826V29.9004C55.4291 29.9253 55.4291 29.9503 55.4291 29.977C55.4291 30.3546 55.279 30.7168 55.012 30.9839C54.7449 31.2509 54.3827 31.401 54.0051 31.401ZM52.7591 29.977C52.7591 30.3088 52.8909 30.6271 53.1256 30.8618C53.3602 31.0965 53.6785 31.2283 54.0104 31.2283C54.3423 31.2283 54.6606 31.0965 54.8952 30.8618C55.1299 30.6271 55.2617 30.3088 55.2617 29.977H52.7591Z" fill="#263238"/>
<path d="M55.3579 29.8826C55.3579 29.911 55.3579 29.9413 55.3579 29.9716C55.3579 30.327 55.4991 30.668 55.7505 30.9193C56.0018 31.1707 56.3428 31.3119 56.6982 31.3119C57.0537 31.3119 57.3947 31.1707 57.646 30.9193C57.8974 30.668 58.0386 30.327 58.0386 29.9716C58.0386 29.9413 58.0386 29.911 58.0386 29.8826H55.3579Z" fill="white"/>
<path d="M56.693 31.401C56.3154 31.401 55.9532 31.2509 55.6861 30.9839C55.4191 30.7168 55.269 30.3546 55.269 29.977C55.269 29.9503 55.269 29.9253 55.269 29.9004V29.8826C55.2704 29.8599 55.2804 29.8387 55.2969 29.8231C55.3135 29.8075 55.3353 29.7989 55.358 29.799H58.028C58.0508 29.7989 58.0726 29.8075 58.0892 29.8231C58.1057 29.8387 58.1157 29.8599 58.117 29.8826C58.117 29.9236 58.117 29.9503 58.117 29.977C58.117 30.3546 57.967 30.7168 57.7 30.9839C57.4329 31.2509 57.0707 31.401 56.693 31.401ZM55.447 29.977C55.447 30.3088 55.5789 30.6271 55.8136 30.8618C56.0482 31.0965 56.3665 31.2283 56.6984 31.2283C57.0303 31.2283 57.3485 31.0965 57.5832 30.8618C57.8179 30.6271 57.9497 30.3088 57.9497 29.977H55.447Z" fill="#263238"/>
<path d="M48.9498 37.6025C48.9498 37.5247 48.9268 37.4486 48.8835 37.3839C48.8403 37.3192 48.7789 37.2688 48.707 37.2391C48.6351 37.2093 48.556 37.2015 48.4797 37.2167C48.4034 37.2318 48.3333 37.2693 48.2783 37.3243C48.2233 37.3793 48.1858 37.4494 48.1706 37.5257C48.1555 37.6021 48.1633 37.6811 48.193 37.753C48.2228 37.8249 48.2732 37.8863 48.3379 37.9296C48.4026 37.9728 48.4787 37.9959 48.5565 37.9959C48.6082 37.9961 48.6595 37.9861 48.7073 37.9664C48.7551 37.9467 48.7986 37.9178 48.8352 37.8812C48.8717 37.8446 48.9007 37.8011 48.9204 37.7533C48.9401 37.7055 48.9501 37.6542 48.9498 37.6025Z" fill="white"/>
<path d="M48.5527 38.092C48.4573 38.092 48.364 38.0637 48.2847 38.0107C48.2054 37.9577 48.1435 37.8823 48.107 37.7942C48.0705 37.706 48.061 37.609 48.0796 37.5155C48.0982 37.4219 48.1441 37.3359 48.2116 37.2685C48.2791 37.201 48.365 37.1551 48.4586 37.1365C48.5522 37.1179 48.6491 37.1274 48.7373 37.1639C48.8254 37.2004 48.9008 37.2623 48.9538 37.3416C49.0068 37.4209 49.0351 37.5142 49.0351 37.6096C49.0351 37.7375 48.9842 37.8602 48.8938 37.9507C48.8033 38.0411 48.6806 38.092 48.5527 38.092ZM48.5527 37.307C48.4924 37.307 48.4335 37.3249 48.3834 37.3584C48.3333 37.3919 48.2943 37.4396 48.2713 37.4953C48.2483 37.551 48.2424 37.6123 48.2543 37.6714C48.2662 37.7305 48.2954 37.7847 48.3381 37.8272C48.3808 37.8697 48.4352 37.8986 48.4944 37.9101C48.5536 37.9216 48.6148 37.9154 48.6704 37.8921C48.726 37.8687 48.7734 37.8295 48.8066 37.7792C48.8399 37.7289 48.8574 37.6699 48.8571 37.6096C48.8578 37.5692 48.8504 37.529 48.8355 37.4915C48.8205 37.4539 48.7982 37.4197 48.7698 37.3909C48.7415 37.3621 48.7077 37.3392 48.6704 37.3235C48.6331 37.3079 48.5931 37.2999 48.5527 37.2999V37.307Z" fill="#263238"/>
<path d="M48.5528 37.7022C48.6079 37.7022 48.6525 37.6575 48.6525 37.6025C48.6525 37.5474 48.6079 37.5028 48.5528 37.5028C48.4978 37.5028 48.4531 37.5474 48.4531 37.6025C48.4531 37.6575 48.4978 37.7022 48.5528 37.7022Z" fill="white"/>
<path d="M48.5528 37.7929C48.5151 37.7929 48.4783 37.7817 48.447 37.7608C48.4156 37.7399 48.3912 37.7101 48.3768 37.6753C48.3624 37.6405 48.3586 37.6022 48.366 37.5653C48.3733 37.5283 48.3915 37.4944 48.4181 37.4678C48.4447 37.4411 48.4787 37.423 48.5156 37.4156C48.5526 37.4083 48.5908 37.4121 48.6257 37.4265C48.6605 37.4409 48.6902 37.4653 48.7111 37.4966C48.7321 37.528 48.7432 37.5648 48.7432 37.6024C48.7432 37.653 48.7232 37.7014 48.6874 37.7371C48.6517 37.7728 48.6033 37.7929 48.5528 37.7929ZM48.5528 37.5918V37.6149L48.5652 37.6024C48.5648 37.5995 48.5633 37.5967 48.561 37.5948C48.5587 37.5928 48.5558 37.5917 48.5528 37.5918Z" fill="#263238"/>
<path d="M55.6995 25.5162L36.2814 25.6213L33.8535 29.9057H58.0669L55.6995 25.5162Z" fill="white"/>
<path d="M58.0665 29.9947H33.8585C33.8429 29.995 33.8275 29.991 33.814 29.9832C33.8006 29.9753 33.7895 29.9639 33.782 29.9502C33.7742 29.937 33.77 29.922 33.77 29.9066C33.77 29.8913 33.7742 29.8762 33.782 29.863L36.2081 25.5768C36.2162 25.5635 36.2274 25.5525 36.2407 25.5448C36.2541 25.537 36.2692 25.5327 36.2847 25.5323L55.7045 25.4272C55.7204 25.4274 55.7361 25.4317 55.7498 25.4399C55.7636 25.448 55.775 25.4596 55.7828 25.4735L58.1502 29.863C58.1576 29.8766 58.1614 29.8919 58.1611 29.9073C58.1608 29.9228 58.1565 29.9379 58.1486 29.9512C58.1407 29.9645 58.1295 29.9755 58.116 29.9831C58.1026 29.9908 58.0873 29.9948 58.0719 29.9947H58.0665ZM34.0063 29.8167H57.917L55.6457 25.6052L36.3327 25.7103L34.0063 29.8167Z" fill="#263238"/>
<path d="M53.5207 25.527L36.2814 25.6213L33.8535 29.9058H55.3363L53.5207 25.527Z" fill="#56AA7A"/>
<path d="M55.3365 29.9947H33.8536C33.838 29.9949 33.8227 29.9909 33.8092 29.9831C33.7957 29.9753 33.7846 29.9639 33.7771 29.9502C33.7693 29.937 33.7651 29.9219 33.7651 29.9066C33.7651 29.8912 33.7693 29.8761 33.7771 29.8629L36.2032 25.5767C36.2113 25.5635 36.2225 25.5525 36.2358 25.5447C36.2492 25.5369 36.2643 25.5326 36.2798 25.5322L53.5209 25.4379C53.5384 25.438 53.5556 25.4432 53.5702 25.4531C53.5847 25.4629 53.5961 25.4768 53.6027 25.493L55.4183 29.8718C55.4254 29.8847 55.429 29.8991 55.429 29.9137C55.429 29.9283 55.4254 29.9427 55.4183 29.9555C55.4093 29.9686 55.397 29.9792 55.3826 29.9861C55.3683 29.9929 55.3523 29.9959 55.3365 29.9947ZM34.0067 29.8167H55.203L53.4621 25.6159L36.3332 25.7102L34.0067 29.8167Z" fill="#263238"/>
<path d="M51.3224 25.5394L36.2814 25.6213L33.8535 29.9058H52.5827L51.3224 25.5394Z" fill="white"/>
<path d="M52.5828 29.9947H33.8536C33.838 29.995 33.8227 29.991 33.8092 29.9831C33.7957 29.9753 33.7846 29.9639 33.7771 29.9502C33.7693 29.937 33.7651 29.922 33.7651 29.9066C33.7651 29.8913 33.7693 29.8762 33.7771 29.863L36.2032 25.5768C36.2113 25.5635 36.2225 25.5525 36.2358 25.5448C36.2492 25.537 36.2643 25.5327 36.2798 25.5323L51.3208 25.4504C51.3404 25.4497 51.3597 25.4556 51.3755 25.4673C51.3914 25.4789 51.4028 25.4955 51.408 25.5145L52.6682 29.8808C52.6727 29.894 52.6738 29.9081 52.6713 29.9218C52.6688 29.9355 52.6628 29.9483 52.654 29.9591C52.6459 29.9704 52.6352 29.9795 52.6228 29.9857C52.6104 29.9919 52.5967 29.995 52.5828 29.9947ZM34.0067 29.8167H52.4653L51.2638 25.6319L36.3421 25.7138L34.0067 29.8167Z" fill="#263238"/>
<path d="M49.1704 25.55L36.2814 25.6213L33.8535 29.9057H49.8949L49.1704 25.55Z" fill="#56AA7A"/>
<path d="M49.895 29.9947H33.8536C33.838 29.995 33.8227 29.991 33.8092 29.9832C33.7957 29.9753 33.7846 29.9639 33.7771 29.9502C33.7693 29.937 33.7651 29.922 33.7651 29.9066C33.7651 29.8913 33.7693 29.8762 33.7771 29.863L36.2032 25.5768C36.2113 25.5635 36.2225 25.5525 36.2358 25.5448C36.2492 25.537 36.2643 25.5327 36.2798 25.5323L49.1705 25.4611C49.1918 25.4611 49.2123 25.4687 49.2286 25.4823C49.2448 25.496 49.2558 25.5149 49.2595 25.5358L49.9822 29.8915C49.9844 29.9043 49.9838 29.9175 49.9804 29.9301C49.977 29.9427 49.971 29.9544 49.9626 29.9645C49.9542 29.9741 49.9438 29.9817 49.9321 29.987C49.9204 29.9922 49.9078 29.9948 49.895 29.9947ZM34.0067 29.8167H49.79L49.0958 25.6408L36.3332 25.7103L34.0067 29.8167Z" fill="#263238"/>
<path d="M46.9561 25.5625L36.2814 25.6212L33.8535 29.9057H47.1288L46.9561 25.5625Z" fill="white"/>
<path d="M47.1289 29.9947H33.8536C33.838 29.995 33.8227 29.991 33.8092 29.9831C33.7957 29.9753 33.7846 29.9639 33.7771 29.9502C33.7693 29.937 33.7651 29.9219 33.7651 29.9066C33.7651 29.8913 33.7693 29.8762 33.7771 29.863L36.2032 25.5768C36.2113 25.5635 36.2225 25.5525 36.2358 25.5448C36.2492 25.537 36.2643 25.5327 36.2798 25.5323L46.9598 25.4735C46.9828 25.4735 47.0049 25.4824 47.0215 25.4983C47.0381 25.5142 47.0479 25.536 47.0488 25.559L47.2268 29.9022C47.2277 29.9143 47.2259 29.9265 47.2216 29.9378C47.2173 29.9492 47.2106 29.9595 47.2019 29.968C47.1927 29.9779 47.1813 29.9855 47.1686 29.9901C47.1559 29.9948 47.1423 29.9963 47.1289 29.9947ZM34.0067 29.8167H47.0363L46.8708 25.6515L36.3332 25.7103L34.0067 29.8167Z" fill="#263238"/>
<path d="M44.7756 25.575L36.2814 25.6212L33.8535 29.9057H44.4107L44.7756 25.575Z" fill="#56AA7A"/>
<path d="M44.4108 29.9947H33.8536C33.838 29.995 33.8227 29.991 33.8092 29.9831C33.7957 29.9753 33.7846 29.9639 33.7771 29.9502C33.7693 29.937 33.7651 29.9219 33.7651 29.9066C33.7651 29.8912 33.7693 29.8762 33.7771 29.863L36.2032 25.5767C36.2113 25.5635 36.2225 25.5525 36.2358 25.5447C36.2492 25.537 36.2643 25.5327 36.2798 25.5322L44.7757 25.486C44.788 25.4859 44.8002 25.4884 44.8115 25.4934C44.8228 25.4983 44.833 25.5055 44.8413 25.5145C44.8497 25.5235 44.8561 25.5342 44.8601 25.5458C44.8641 25.5575 44.8657 25.5698 44.8647 25.5821L44.4998 29.9128C44.498 29.9352 44.4879 29.956 44.4714 29.9712C44.4549 29.9864 44.4332 29.9948 44.4108 29.9947ZM34.0067 29.8167H44.3307L44.6867 25.664L36.3403 25.7102L34.0067 29.8167Z" fill="#263238"/>
<path d="M42.6449 25.5857L36.2814 25.6213L33.8535 29.9058H41.7585L42.6449 25.5857Z" fill="white"/>
<path d="M41.7586 29.9948H33.8536C33.838 29.995 33.8227 29.991 33.8092 29.9832C33.7957 29.9754 33.7846 29.964 33.7771 29.9503C33.7693 29.9371 33.7651 29.922 33.7651 29.9067C33.7651 29.8913 33.7693 29.8762 33.7771 29.863L36.2032 25.5768C36.2113 25.5636 36.2225 25.5526 36.2358 25.5448C36.2492 25.537 36.2643 25.5327 36.2798 25.5323L42.6451 25.4967C42.6717 25.4986 42.6966 25.5107 42.7145 25.5305C42.7229 25.5405 42.7289 25.5522 42.732 25.5649C42.7351 25.5776 42.7352 25.5908 42.7323 25.6035L41.8423 29.9236C41.8383 29.9431 41.8279 29.9607 41.8128 29.9736C41.7976 29.9865 41.7785 29.994 41.7586 29.9948ZM34.0067 29.8168H41.6856L42.5418 25.6765L36.3385 25.7103L34.0067 29.8168Z" fill="#263238"/>
<path d="M40.4929 25.5981L36.2814 25.6213L33.8535 29.9057H39.0814L40.4929 25.5981Z" fill="#56AA7A"/>
<path d="M39.0815 29.9948H33.8536C33.838 29.995 33.8227 29.991 33.8092 29.9832C33.7957 29.9753 33.7846 29.964 33.7771 29.9503C33.7693 29.9371 33.7651 29.922 33.7651 29.9066C33.7651 29.8913 33.7693 29.8762 33.7771 29.863L36.2032 25.5768C36.2113 25.5636 36.2225 25.5526 36.2358 25.5448C36.2492 25.537 36.2643 25.5327 36.2798 25.5323L40.493 25.5092C40.5071 25.5094 40.5209 25.5127 40.5335 25.5189C40.5461 25.525 40.5572 25.5339 40.566 25.5448C40.574 25.5563 40.5793 25.5695 40.5815 25.5834C40.5836 25.5972 40.5826 25.6114 40.5785 25.6249L39.1598 29.9342C39.154 29.9508 39.1435 29.9654 39.1296 29.9761C39.1157 29.9869 39.099 29.9933 39.0815 29.9948ZM34.0067 29.8168H39.0174L40.3702 25.6872L36.3332 25.7103L34.0067 29.8168Z" fill="#263238"/>
<path d="M38.3516 25.6088L36.2814 25.6212L33.8535 29.9057H36.4221L38.3516 25.6088Z" fill="white"/>
<path d="M36.4204 29.9947H33.8536C33.838 29.995 33.8227 29.991 33.8092 29.9831C33.7957 29.9753 33.7846 29.9639 33.7771 29.9502C33.7693 29.937 33.7651 29.9219 33.7651 29.9066C33.7651 29.8912 33.7693 29.8762 33.7771 29.863L36.2032 25.5767C36.2113 25.5635 36.2225 25.5525 36.2358 25.5447C36.2492 25.537 36.2643 25.5327 36.2798 25.5322L38.3499 25.5198C38.365 25.5196 38.3798 25.5232 38.3931 25.5303C38.4063 25.5374 38.4176 25.5478 38.4257 25.5604C38.4339 25.573 38.4388 25.5875 38.4398 25.6025C38.4409 25.6175 38.4381 25.6325 38.4318 25.6462L36.5023 29.9431C36.4951 29.9587 36.4835 29.9718 36.469 29.981C36.4544 29.9902 36.4376 29.9949 36.4204 29.9947ZM34.0067 29.8167H36.3634L38.2129 25.6996L36.3332 25.7102L34.0067 29.8167Z" fill="#263238"/>
<path d="M72.5469 57.1012L72.1929 57.1382L74.233 76.6796L74.587 76.6427L72.5469 57.1012Z" fill="#263238"/>
<path d="M73.282 71.8314L73.0234 72.0762L73.9485 73.0534L74.2071 72.8087L73.282 71.8314Z" fill="#263238"/>
<path d="M73.4359 72.2395C73.4337 72.09 73.3997 71.9427 73.3362 71.8074C73.2727 71.672 73.1811 71.5517 73.0675 71.4545C72.829 71.2427 71.5812 70.7176 71.4655 71.1573C71.3338 71.6361 72.6118 72.5759 73.4359 72.2395Z" fill="#56AA7A"/>
<path d="M73.046 72.4016C72.5629 72.3751 72.1035 72.1834 71.7448 71.8587C71.4565 71.6024 71.3212 71.3389 71.3764 71.1342C71.3903 71.0821 71.4183 71.0349 71.4572 70.9975C71.4961 70.9602 71.5445 70.9342 71.5971 70.9224C72.0083 70.7996 72.9143 71.2001 73.1261 71.3888C73.2502 71.4943 73.35 71.6255 73.4185 71.7733C73.4871 71.9211 73.5227 72.082 73.523 72.2449V72.3001L73.4714 72.3215C73.3363 72.3761 73.1917 72.4034 73.046 72.4016ZM71.7822 71.0755C71.7366 71.0749 71.6911 71.0803 71.6469 71.0915C71.5739 71.1146 71.5561 71.1502 71.5472 71.1805C71.5134 71.3104 71.6362 71.5258 71.8641 71.7252C72.2557 72.0705 72.8787 72.3286 73.345 72.1773C73.3221 71.9232 73.2008 71.6881 73.0068 71.5223C72.6418 71.2744 72.2211 71.1209 71.7822 71.0755Z" fill="#263238"/>
<path d="M72.4456 71.4501L72.3984 71.5258L73.5892 72.2682L73.6363 72.1926L72.4456 71.4501Z" fill="#263238"/>
<path d="M73.5149 74.0546L73.2563 74.2993L74.1815 75.2766L74.44 75.0318L73.5149 74.0546Z" fill="#263238"/>
<path d="M73.6674 74.4628C73.6656 74.3132 73.6318 74.1657 73.5683 74.0303C73.5047 73.8949 73.4129 73.7747 73.2989 73.6778C73.0622 73.466 71.8126 72.9409 71.6969 73.3805C71.5652 73.8594 72.8432 74.7974 73.6674 74.4628Z" fill="#56AA7A"/>
<path d="M73.2774 74.623C72.796 74.5987 72.3374 74.4102 71.978 74.089C71.6879 73.8327 71.5526 73.5692 71.6078 73.3645C71.6222 73.3125 71.6502 73.2652 71.689 73.2276C71.7279 73.1901 71.776 73.1636 71.8285 73.1509C72.2397 73.0281 73.1457 73.4286 73.3575 73.6191C73.4815 73.7249 73.5812 73.8561 73.65 74.0038C73.7188 74.1515 73.755 74.3123 73.7563 74.4752V74.5304L73.7046 74.5518C73.5681 74.6026 73.4231 74.6268 73.2774 74.623ZM72.0154 73.2987C71.9698 73.2978 71.9243 73.3032 71.8801 73.3147C71.8072 73.336 71.7876 73.3734 71.7805 73.4037C71.7449 73.5336 71.8695 73.7472 72.0955 73.9484C72.4871 74.2937 73.1119 74.55 73.5765 74.4005C73.5547 74.1459 73.4339 73.9101 73.2401 73.7437C72.8745 73.4972 72.4539 73.3444 72.0154 73.2987Z" fill="#263238"/>
<path d="M72.6795 73.6706L72.6323 73.7462L73.8231 74.4887L73.8702 74.413L72.6795 73.6706Z" fill="#263238"/>
<path d="M72.7165 66.4075L72.458 66.6522L73.3831 67.6295L73.6417 67.3847L72.7165 66.4075Z" fill="#263238"/>
<path d="M72.8695 66.8159C72.8673 66.6664 72.8333 66.5191 72.7698 66.3838C72.7063 66.2484 72.6147 66.1282 72.5011 66.0309C72.2626 65.8191 71.0148 65.294 70.8991 65.7337C70.7674 66.2161 72.0454 67.1523 72.8695 66.8159Z" fill="#56AA7A"/>
<path d="M72.4801 66.9779C71.9981 66.9538 71.5388 66.7654 71.1789 66.4439C70.8905 66.1876 70.7553 65.9241 70.8104 65.7194C70.8244 65.6673 70.8524 65.6201 70.8913 65.5827C70.9302 65.5454 70.9785 65.5194 71.0312 65.5076C71.4423 65.3848 72.3484 65.7853 72.5602 65.974C72.6843 66.0795 72.7841 66.2107 72.8526 66.3585C72.9211 66.5063 72.9568 66.6672 72.9571 66.8301V66.8853L72.9055 66.9067C72.7698 66.9583 72.6252 66.9825 72.4801 66.9779ZM71.2163 65.6518C71.1706 65.6508 71.1249 65.6568 71.081 65.6696C71.0579 65.6733 71.0362 65.6834 71.0186 65.6989C71.001 65.7143 70.9881 65.7344 70.9813 65.7568C70.9475 65.8885 71.0703 66.1021 71.2982 66.3015C71.6898 66.6468 72.3128 66.9049 72.7791 66.7536C72.7559 66.4996 72.6346 66.2646 72.4409 66.0986C72.0757 65.8511 71.655 65.6977 71.2163 65.6518Z" fill="#263238"/>
<path d="M71.7014 66.0303L71.6543 66.1058L72.8432 66.8467L72.8903 66.7712L71.7014 66.0303Z" fill="#263238"/>
<path d="M72.9495 68.6306L72.6909 68.8754L73.616 69.8526L73.8746 69.6079L72.9495 68.6306Z" fill="#263238"/>
<path d="M73.101 69.0391C73.0992 68.8895 73.0654 68.742 73.0019 68.6066C72.9383 68.4712 72.8465 68.351 72.7325 68.2541C72.4958 68.0423 71.2462 67.5172 71.1305 67.9568C70.9988 68.4357 72.2768 69.3755 73.101 69.0391Z" fill="#56AA7A"/>
<path d="M72.7115 69.1993C72.2301 69.175 71.7715 68.9865 71.4121 68.6653C71.122 68.4089 70.9867 68.1455 71.0419 67.9408C71.0563 67.8887 71.0843 67.8415 71.1231 67.8039C71.1619 67.7664 71.2101 67.7399 71.2626 67.7272C71.6756 67.6044 72.5798 68.0049 72.7916 68.1953C72.9155 68.3012 73.0153 68.4324 73.0841 68.5801C73.1528 68.7278 73.1891 68.8886 73.1903 69.0515V69.1067L73.1387 69.1281C73.0024 69.1797 72.8572 69.2039 72.7115 69.1993ZM71.4495 67.8749C71.4039 67.8741 71.3584 67.8795 71.3142 67.891C71.2413 67.9123 71.2217 67.9497 71.2145 67.98C71.1789 68.1099 71.3035 68.3235 71.5296 68.5246C71.9212 68.87 72.546 69.1263 73.0106 68.9768C72.9888 68.7222 72.868 68.4864 72.6741 68.3199C72.3086 68.0735 71.888 67.9207 71.4495 67.8749Z" fill="#263238"/>
<path d="M71.9348 68.255L71.8877 68.3306L73.0767 69.0712L73.1238 68.9957L71.9348 68.255Z" fill="#263238"/>
<path d="M72.3401 62.7964L72.0815 63.0411L73.0067 64.0184L73.2652 63.7737L72.3401 62.7964Z" fill="#263238"/>
<path d="M72.4926 63.2061C72.4908 63.0565 72.457 62.909 72.3935 62.7736C72.3299 62.6382 72.2381 62.518 72.1241 62.4211C71.8874 62.2093 70.6378 61.6842 70.5221 62.1238C70.3904 62.6026 71.6684 63.546 72.4926 63.2061Z" fill="#56AA7A"/>
<path d="M72.1026 63.3681C71.6212 63.3438 71.1626 63.1553 70.8032 62.8341C70.5131 62.5777 70.3778 62.3143 70.433 62.1096C70.4474 62.0575 70.4754 62.0103 70.5142 61.9727C70.5531 61.9351 70.6012 61.9087 70.6537 61.896C71.0667 61.775 71.9709 62.1737 72.1827 62.3641C72.3066 62.47 72.4062 62.6013 72.475 62.749C72.5438 62.8967 72.5801 63.0574 72.5815 63.2203V63.2755L72.5298 63.2969C72.3935 63.3485 72.2483 63.3727 72.1026 63.3681ZM70.8442 62.042C70.7986 62.0411 70.7531 62.0465 70.7089 62.058C70.6359 62.0793 70.6163 62.1167 70.6092 62.147C70.5736 62.2769 70.6982 62.4905 70.9243 62.6917C71.3159 63.037 71.9407 63.2933 72.4052 63.1438C72.3831 62.8893 72.2623 62.6536 72.0688 62.487C71.7034 62.2402 71.2828 62.0873 70.8442 62.042Z" fill="#263238"/>
<path d="M71.3254 62.4213L71.2783 62.4968L72.4674 63.2375L72.5144 63.162L71.3254 62.4213Z" fill="#263238"/>
<path d="M71.9626 59.1708L71.7041 59.4155L72.6292 60.3928L72.8877 60.148L71.9626 59.1708Z" fill="#263238"/>
<path d="M72.1134 59.5802C72.1117 59.4308 72.0781 59.2835 72.0149 59.1481C71.9517 59.0127 71.8602 58.8924 71.7467 58.7952C71.5082 58.5834 70.2604 58.0583 70.1447 58.498C70.013 58.9768 71.291 59.9166 72.1134 59.5802Z" fill="#56AA7A"/>
<path d="M71.7341 59.7404C71.2522 59.7157 70.7932 59.5273 70.4329 59.2064C70.1428 58.9501 70.0093 58.6866 70.0645 58.4819C70.0785 58.4297 70.1064 58.3822 70.1453 58.3446C70.1842 58.307 70.2325 58.2807 70.2852 58.2683C70.6963 58.1455 71.6024 58.546 71.8142 58.7365C71.9384 58.8419 72.0382 58.9731 72.1068 59.1209C72.1753 59.2688 72.2109 59.4297 72.2111 59.5927V59.6478L72.1595 59.6692C72.0238 59.7209 71.8792 59.7451 71.7341 59.7404ZM70.4703 58.4161C70.4247 58.4154 70.3792 58.4208 70.335 58.4321C70.3117 58.4359 70.2899 58.4463 70.2722 58.4621C70.2546 58.4779 70.2418 58.4983 70.2353 58.5211C70.1997 58.651 70.3243 58.8646 70.5504 59.0658C70.9438 59.4111 71.5668 59.6674 72.0331 59.5179C72.0099 59.2634 71.8887 59.0278 71.6949 58.8611C71.3269 58.6129 70.9031 58.46 70.4614 58.4161H70.4703Z" fill="#263238"/>
<path d="M71.1053 58.7751L71.0581 58.8507L72.2488 59.5932L72.296 59.5175L71.1053 58.7751Z" fill="#263238"/>
<path d="M74.4741 70.3649L73.771 71.5123L74.0745 71.6983L74.7777 70.551L74.4741 70.3649Z" fill="#263238"/>
<path d="M74.4039 70.8066C74.3751 70.6599 74.378 70.5087 74.4124 70.3632C74.4468 70.2177 74.5119 70.0812 74.6032 69.9629C74.7812 69.7066 75.9044 68.9341 76.1109 69.3399C76.3441 69.776 75.2939 70.965 74.4039 70.8066Z" fill="#56AA7A"/>
<path d="M74.5821 70.9099C74.5224 70.9094 74.4628 70.9041 74.4041 70.8938L74.3489 70.8832L74.3346 70.8298C74.3015 70.6702 74.3033 70.5053 74.3398 70.3464C74.3764 70.1876 74.4469 70.0385 74.5465 69.9095C74.7156 69.6817 75.513 69.0996 75.9473 69.137C76.0014 69.1382 76.0541 69.1541 76.0999 69.1829C76.1457 69.2118 76.1827 69.2525 76.2072 69.3007C76.3033 69.4876 76.225 69.7742 75.9954 70.0839C75.675 70.5022 75.1161 70.9099 74.5821 70.9099ZM74.4895 70.7319C74.9772 70.7835 75.5326 70.4026 75.8459 69.9843C76.0239 69.7404 76.1022 69.5072 76.0417 69.3862C76.0307 69.3652 76.014 69.3479 75.9935 69.3362C75.973 69.3245 75.9495 69.319 75.926 69.3203C75.57 69.2918 74.8313 69.8205 74.68 70.0216C74.5273 70.223 74.4584 70.4755 74.4877 70.7265L74.4895 70.7319Z" fill="#263238"/>
<path d="M75.451 69.7569L74.3809 70.7806L74.4424 70.845L75.5125 69.8212L75.451 69.7569Z" fill="#263238"/>
<path d="M73.8643 64.5192L73.1621 65.665L73.4656 65.851L74.1678 64.7052L73.8643 64.5192Z" fill="#263238"/>
<path d="M73.8007 64.9575C73.7721 64.8108 73.7751 64.6596 73.8094 64.5141C73.8438 64.3687 73.9088 64.2322 74.0001 64.1138C74.1888 63.8575 75.3013 63.0867 75.5077 63.4926C75.7338 63.934 74.6765 65.1159 73.8007 64.9575Z" fill="#56AA7A"/>
<path d="M73.9697 65.0608C73.91 65.0612 73.8504 65.0559 73.7917 65.0448L73.7365 65.0359L73.7223 64.9807C73.6892 64.8214 73.691 64.6568 73.7275 64.4983C73.7641 64.3397 73.8346 64.191 73.9341 64.0622C74.1032 63.8326 74.9024 63.2523 75.335 63.2879C75.3891 63.2892 75.4418 63.3051 75.4876 63.3339C75.5333 63.3627 75.5704 63.4035 75.5949 63.4517C75.691 63.6404 75.6127 63.9252 75.383 64.2367C75.0644 64.655 74.5126 65.0608 73.9697 65.0608ZM73.8772 64.8828C74.3649 64.9327 74.9202 64.5535 75.2335 64.1334C75.4115 63.8914 75.4898 63.6564 75.4293 63.5354C75.4179 63.5148 75.4011 63.4978 75.3807 63.4862C75.3603 63.4746 75.3371 63.4688 75.3136 63.4695C74.9701 63.4428 74.2189 63.9697 74.0676 64.1708C73.9125 64.3725 73.8417 64.6264 73.87 64.8793L73.8772 64.8828Z" fill="#263238"/>
<path d="M74.8411 63.9102L73.771 64.934L73.8325 64.9983L74.9027 63.9745L74.8411 63.9102Z" fill="#263238"/>
<path d="M73.5953 61.9494L72.8931 63.0952L73.1966 63.2812L73.8988 62.1354L73.5953 61.9494Z" fill="#263238"/>
<path d="M73.5339 62.3872C73.5046 62.2406 73.5072 62.0895 73.5412 61.9439C73.5753 61.7984 73.6402 61.6618 73.7315 61.5435C73.9201 61.2871 75.0326 60.5164 75.2409 60.9222C75.4723 61.3637 74.4043 62.5456 73.5339 62.3872Z" fill="#56AA7A"/>
<path d="M73.7011 62.4923C73.6413 62.4922 73.5817 62.4862 73.5231 62.4745L73.4679 62.4656L73.4519 62.4104C73.42 62.2509 73.4225 62.0865 73.4593 61.928C73.4962 61.7696 73.5665 61.6209 73.6655 61.4919C73.8328 61.2623 74.6391 60.6838 75.0645 60.7176C75.1186 60.7188 75.1714 60.7347 75.2171 60.7636C75.2629 60.7924 75.3 60.8331 75.3244 60.8814C75.4206 61.0701 75.344 61.3566 75.1126 61.6664C74.7958 62.0847 74.244 62.4923 73.7011 62.4923ZM73.6085 62.3143C74.0927 62.3641 74.6516 61.985 74.9649 61.5649C75.1429 61.3228 75.223 61.0879 75.1607 60.9668C75.1494 60.9462 75.1326 60.929 75.1122 60.9174C75.0918 60.9058 75.0685 60.9001 75.045 60.901C74.6997 60.8725 73.9503 61.4011 73.799 61.6023C73.647 61.8046 73.5788 62.0577 73.6085 62.3089V62.3143Z" fill="#263238"/>
<path d="M74.5736 61.3398L73.5034 62.3635L73.5649 62.4278L74.6351 61.4041L74.5736 61.3398Z" fill="#263238"/>
<path d="M73.2007 58.1817L72.4985 59.3275L72.8021 59.5135L73.5043 58.3677L73.2007 58.1817Z" fill="#263238"/>
<path d="M73.1403 58.619C73.1111 58.4724 73.1136 58.3213 73.1477 58.1757C73.1818 58.0302 73.2466 57.8936 73.3379 57.7753C73.5266 57.519 74.6409 56.7482 74.8473 57.1541C75.0716 57.5955 74.0143 58.7792 73.1403 58.619Z" fill="#56AA7A"/>
<path d="M73.3076 58.7239C73.2479 58.7238 73.1883 58.7179 73.1296 58.7061L73.0745 58.6972L73.0602 58.6438C73.0271 58.4842 73.0289 58.3194 73.0654 58.1605C73.102 58.0017 73.1725 57.8526 73.272 57.7236C73.4394 57.494 74.2404 56.9137 74.6711 56.9511C74.7251 56.9519 74.7777 56.9675 74.8235 56.996C74.8693 57.0246 74.9065 57.065 74.931 57.113C75.0271 57.3017 74.9506 57.5883 74.7192 57.898C74.4041 58.3163 73.8505 58.7239 73.3076 58.7239ZM73.2151 58.5459C73.701 58.5976 74.2599 58.2166 74.5714 57.7966C74.7494 57.5545 74.8295 57.3195 74.7672 57.1985C74.756 57.1778 74.7392 57.1607 74.7188 57.1491C74.6983 57.1374 74.675 57.1317 74.6515 57.1326C74.3098 57.1006 73.5568 57.6328 73.4055 57.8339C73.2536 58.0363 73.1854 58.2893 73.2151 58.5406V58.5459Z" fill="#263238"/>
<path d="M74.18 57.5715L73.1099 58.5952L73.1714 58.6595L74.2415 57.6358L74.18 57.5715Z" fill="#263238"/>
<path d="M72.3501 57.0116C72.3214 56.8652 72.3243 56.7143 72.3587 56.5691C72.3931 56.4239 72.4581 56.2877 72.5495 56.1697C72.7382 55.9134 73.8507 55.1409 74.0571 55.5467C74.2832 55.9881 73.2259 57.1718 72.3501 57.0116Z" fill="#56AA7A"/>
<path d="M72.5191 57.1167C72.4594 57.1162 72.3999 57.1109 72.3411 57.1007L72.2877 57.09L72.2716 57.0366C72.2385 56.877 72.2403 56.7121 72.2769 56.5533C72.3134 56.3944 72.3839 56.2454 72.4835 56.1163C72.6526 55.8867 73.45 55.3046 73.8843 55.3438C73.9383 55.3447 73.9909 55.3602 74.0367 55.3888C74.0825 55.4173 74.1197 55.4577 74.1442 55.5058C74.2403 55.6945 74.162 55.981 73.9324 56.2908C73.6138 56.7091 73.062 57.1167 72.5191 57.1167ZM72.4265 56.9387C72.9125 56.9903 73.4696 56.6094 73.7829 56.1911C73.9609 55.9472 74.0392 55.7123 73.9787 55.593C73.9678 55.5721 73.951 55.5547 73.9305 55.543C73.91 55.5314 73.8865 55.5258 73.863 55.5271C73.5159 55.4987 72.7683 56.0273 72.617 56.2267C72.465 56.429 72.3968 56.6821 72.4265 56.9333V56.9387Z" fill="#263238"/>
<path d="M73.391 55.9637L72.3208 56.9874L72.3823 57.0517L73.4525 56.028L73.391 55.9637Z" fill="#263238"/>
<path d="M72.4121 57.0562C72.2635 57.0699 72.1136 57.0516 71.9727 57.0025C71.8317 56.9534 71.703 56.8746 71.5951 56.7714C71.3601 56.556 70.7051 55.3687 71.1341 55.205C71.5969 55.0288 72.6631 56.2036 72.4121 57.0562Z" fill="#56AA7A"/>
<path d="M72.3179 57.1522C72.0267 57.1489 71.7472 57.0365 71.5347 56.8371C71.3247 56.6449 70.8334 55.7852 70.9135 55.3633C70.9207 55.3099 70.942 55.2593 70.9751 55.2167C71.0083 55.1742 71.0521 55.1412 71.1022 55.1212C71.2998 55.0465 71.5757 55.1533 71.8605 55.4149C72.2877 55.8083 72.6686 56.4989 72.4977 57.081L72.4817 57.1344L72.4265 57.1451C72.3905 57.1497 72.3543 57.1521 72.3179 57.1522ZM71.2357 55.2761C71.212 55.2756 71.1884 55.2798 71.1663 55.2885C71.1442 55.2973 71.1252 55.3122 71.1113 55.3314C71.0974 55.3507 71.0893 55.3734 71.088 55.3971C71.0239 55.7371 71.4707 56.5381 71.654 56.7054C71.8393 56.882 72.087 56.978 72.3429 56.9724C72.4443 56.4954 72.1239 55.9044 71.7394 55.5484C71.6071 55.4034 71.4295 55.3075 71.2357 55.2761Z" fill="#263238"/>
<path d="M71.5436 55.8509L71.4731 55.9053L72.3786 57.0772L72.449 57.0228L71.5436 55.8509Z" fill="#263238"/>
<path d="M77.5743 59.796L75.541 79.3381L75.8951 79.375L77.9284 59.8328L77.5743 59.796Z" fill="#263238"/>
<path d="M75.6154 74.3884L75.312 74.5747L76.0161 75.7215L76.3195 75.5352L75.6154 74.3884Z" fill="#263238"/>
<path d="M75.6788 74.8258C75.7075 74.6794 75.7045 74.5285 75.6701 74.3833C75.6358 74.2381 75.5707 74.1019 75.4794 73.9839C75.2907 73.7276 74.1764 72.9551 73.97 73.3609C73.7457 73.8041 74.803 74.986 75.6788 74.8258Z" fill="#56AA7A"/>
<path d="M75.5096 74.938C74.9756 74.938 74.4149 74.5304 74.1034 74.1121C73.872 73.8024 73.7955 73.5176 73.8916 73.3289C73.9161 73.2807 73.9531 73.2399 73.9989 73.2111C74.0447 73.1823 74.0974 73.1664 74.1515 73.1651C74.5787 73.1295 75.3832 73.708 75.5523 73.9377C75.6519 74.0667 75.7224 74.2158 75.759 74.3746C75.7955 74.5335 75.7973 74.6983 75.7642 74.8579L75.7499 74.9113L75.6947 74.922C75.6336 74.9326 75.5717 74.938 75.5096 74.938ZM74.1924 73.336H74.1657C74.1421 73.3347 74.1187 73.3402 74.0982 73.3519C74.0777 73.3636 74.0609 73.3809 74.05 73.4019C73.9895 73.5229 74.066 73.7579 74.2458 74C74.5591 74.4183 75.1162 74.7992 75.6022 74.7476C75.6332 74.494 75.5636 74.2383 75.4082 74.0356C75.264 73.8415 74.5484 73.336 74.1924 73.336Z" fill="#263238"/>
<path d="M75.6482 74.8579L74.6372 73.8878L74.6977 73.8237L75.7088 74.7938L75.6482 74.8579Z" fill="#263238"/>
<path d="M76.1759 68.9702L75.8726 69.1565L76.5757 70.3017L76.8791 70.1155L76.1759 68.9702Z" fill="#263238"/>
<path d="M76.2409 69.4023C76.27 69.2558 76.2673 69.1048 76.2329 68.9596C76.1985 68.8143 76.1332 68.6781 76.0415 68.5603C75.8546 68.304 74.7403 67.5315 74.5338 67.9373C74.3078 68.3805 75.3669 69.5625 76.2409 69.4023Z" fill="#56AA7A"/>
<path d="M76.0718 69.5072C75.5378 69.5072 74.9771 69.0996 74.6656 68.6831C74.436 68.3716 74.3577 68.0868 74.4538 67.8981C74.4783 67.8499 74.5153 67.8092 74.5611 67.7803C74.6069 67.7515 74.6596 67.7356 74.7137 67.7344C75.1409 67.6988 75.9454 68.2773 76.1145 68.5069C76.2131 68.6351 76.283 68.7829 76.3196 68.9405C76.3561 69.098 76.3584 69.2615 76.3264 69.42L76.3121 69.4734L76.2569 69.4841C76.196 69.4972 76.1341 69.5049 76.0718 69.5072ZM74.7564 67.9052H74.7279C74.7044 67.9042 74.681 67.9098 74.6605 67.9214C74.6401 67.9331 74.6233 67.9503 74.6122 67.9711C74.5517 68.0921 74.6282 68.3271 74.8098 68.5692C75.1213 68.9875 75.6802 69.3702 76.1662 69.3168C76.1963 69.063 76.1261 68.8075 75.9704 68.6048C75.828 68.4179 75.116 67.9106 74.76 67.9106L74.7564 67.9052Z" fill="#263238"/>
<path d="M76.2107 69.4342L75.1997 68.4641L75.2602 68.4L76.2713 69.3701L76.2107 69.4342Z" fill="#263238"/>
<path d="M75.9493 71.1807L75.646 71.3671L76.3503 72.5137L76.6537 72.3274L75.9493 71.1807Z" fill="#263238"/>
<path d="M76.0062 71.6255C76.0354 71.4789 76.0329 71.3277 75.9988 71.1822C75.9647 71.0367 75.8999 70.9001 75.8086 70.7817C75.6199 70.5254 74.5056 69.7547 74.2991 70.1605C74.0784 70.602 75.1357 71.7857 76.0062 71.6255Z" fill="#56AA7A"/>
<path d="M75.8423 71.7341C75.2994 71.7341 74.7476 71.3282 74.4361 70.9099C74.2047 70.6002 74.1282 70.3136 74.2225 70.1249C74.2478 70.0775 74.2851 70.0376 74.3307 70.0091C74.3764 69.9807 74.4287 69.9648 74.4824 69.963C74.9132 69.9309 75.7159 70.5059 75.8833 70.7355C75.9828 70.8642 76.0534 71.0129 76.0902 71.1714C76.1271 71.3299 76.1294 71.4945 76.0969 71.654L76.0808 71.7091L76.0256 71.718C75.9651 71.7286 75.9038 71.734 75.8423 71.7341ZM74.5251 70.1321H74.4984C74.4219 70.1321 74.3952 70.1694 74.3827 70.1979C74.3204 70.3172 74.397 70.5539 74.5785 70.7942C74.8918 71.2143 75.4489 71.597 75.9349 71.5436C75.965 71.2901 75.8954 71.0348 75.7409 70.8316C75.5967 70.6394 74.8811 70.1321 74.5251 70.1321Z" fill="#263238"/>
<path d="M75.9793 71.6575L74.9683 70.6874L75.0306 70.6233L76.0416 71.5934L75.9793 71.6575Z" fill="#263238"/>
<path d="M76.5548 65.3539L76.2515 65.5402L76.9556 66.6869L77.259 66.5007L76.5548 65.3539Z" fill="#263238"/>
<path d="M76.6167 65.7923C76.6455 65.6456 76.6426 65.4944 76.6082 65.3489C76.5738 65.2034 76.5088 65.067 76.4174 64.9486C76.2287 64.6923 75.1144 63.9216 74.9079 64.3274C74.6837 64.7688 75.741 65.9525 76.6167 65.7923Z" fill="#56AA7A"/>
<path d="M76.4473 65.8956C75.9044 65.8956 75.3526 65.4897 75.0411 65.0714C74.8097 64.7617 74.7332 64.4751 74.8275 64.2865C74.8525 64.2388 74.8897 64.1986 74.9354 64.1702C74.9811 64.1417 75.0336 64.1259 75.0874 64.1245C75.5146 64.0907 76.3191 64.6674 76.4882 64.8952C76.5878 65.0243 76.6584 65.1733 76.6953 65.3321C76.7321 65.4909 76.7344 65.6557 76.7018 65.8155L76.6858 65.8689L76.6306 65.8796C76.5701 65.8902 76.5088 65.8955 76.4473 65.8956ZM75.1301 64.2936H75.1016C75.0781 64.2926 75.0548 64.2984 75.0346 64.3104C75.0143 64.3224 74.9981 64.3401 74.9877 64.3612C74.9254 64.4805 75.0037 64.7172 75.1835 64.9575C75.4968 65.3776 76.0539 65.7603 76.5399 65.7051C76.5701 65.4516 76.5006 65.1962 76.3458 64.9931C76.2017 64.8062 75.4861 64.3007 75.1301 64.3007V64.2936Z" fill="#263238"/>
<path d="M76.5848 65.8245L75.5737 64.8544L75.636 64.7903L76.6471 65.7604L76.5848 65.8245Z" fill="#263238"/>
<path d="M76.9284 61.7346L76.625 61.9209L77.3282 63.0661L77.6316 62.8799L76.9284 61.7346Z" fill="#263238"/>
<path d="M76.9922 62.1665C77.021 62.0198 77.0181 61.8686 76.9837 61.7231C76.9493 61.5776 76.8842 61.4411 76.7929 61.3228C76.6042 61.0664 75.4917 60.2957 75.2834 60.7015C75.0591 61.143 76.1165 62.3249 76.9922 62.1665Z" fill="#56AA7A"/>
<path d="M76.8233 62.2698C76.2893 62.2698 75.7286 61.864 75.4171 61.4457C75.1875 61.136 75.1091 60.8494 75.2053 60.6607C75.2298 60.6127 75.267 60.5722 75.3127 60.5437C75.3585 60.5151 75.4112 60.4996 75.4651 60.4987C75.8959 60.4685 76.6969 61.0416 76.866 61.2694C76.9656 61.3985 77.0361 61.5476 77.0726 61.7064C77.1092 61.8652 77.111 62.0301 77.0778 62.1897L77.0636 62.2431L77.0084 62.2538C76.9473 62.2645 76.8853 62.2699 76.8233 62.2698ZM75.5079 60.6678H75.4723C75.4488 60.6669 75.4255 60.6726 75.405 60.6843C75.3846 60.6959 75.3678 60.713 75.3566 60.7337C75.296 60.8547 75.3726 61.0897 75.5541 61.3318C75.8656 61.7518 76.4246 62.1328 76.9105 62.0794C76.9401 61.8256 76.8699 61.5703 76.7147 61.3674C76.5776 61.1805 75.8621 60.6749 75.5079 60.6749V60.6678Z" fill="#263238"/>
<path d="M76.9617 62.1986L75.9507 61.2285L76.0112 61.1644L77.0222 62.1327L76.9617 62.1986Z" fill="#263238"/>
<path d="M77.0807 73.2128L76.1558 74.1902L76.4143 74.4349L77.3393 73.4575L77.0807 73.2128Z" fill="#263238"/>
<path d="M76.9297 73.6244C76.9315 73.4753 76.9651 73.3283 77.0284 73.1932C77.0916 73.0581 77.183 72.9381 77.2964 72.8412C77.5331 72.6294 78.7827 72.1025 78.8984 72.5422C79.0319 73.021 77.752 73.9608 76.9297 73.6244Z" fill="#56AA7A"/>
<path d="M77.3177 73.7863C77.1734 73.7874 77.0302 73.7608 76.8959 73.708L76.8442 73.6866V73.6314C76.8444 73.4682 76.88 73.307 76.9485 73.1589C77.0171 73.0108 77.1169 72.8793 77.2412 72.7735C77.453 72.5848 78.3572 72.1843 78.7702 72.3053C78.8227 72.318 78.8709 72.3445 78.9097 72.3821C78.9485 72.4196 78.9765 72.4669 78.9909 72.5189C79.0461 72.7236 78.9108 72.9871 78.6225 73.2434C78.2628 73.5689 77.8021 73.7606 77.3177 73.7863ZM77.0187 73.5638C77.485 73.7133 78.108 73.4552 78.4996 73.1099C78.7275 72.9088 78.8556 72.6952 78.8147 72.5652C78.8147 72.535 78.788 72.4976 78.715 72.4762C78.3839 72.3783 77.542 72.7414 77.3551 72.907C77.162 73.074 77.0414 73.3095 77.0187 73.5638Z" fill="#263238"/>
<path d="M78.1658 72.8039L76.9067 73.5836L76.9536 73.6593L78.2127 72.8795L78.1658 72.8039Z" fill="#263238"/>
<path d="M77.6891 67.365L76.7642 68.3424L77.0227 68.5871L77.9477 67.6097L77.6891 67.365Z" fill="#263238"/>
<path d="M77.5371 67.7753C77.5389 67.6262 77.5725 67.4791 77.6358 67.3441C77.699 67.209 77.7904 67.089 77.9038 66.9921C78.1405 66.7803 79.3901 66.2534 79.5058 66.6931C79.6375 67.1719 78.3595 68.1117 77.5371 67.7753Z" fill="#56AA7A"/>
<path d="M77.9251 67.9373C77.7808 67.9383 77.6376 67.9117 77.5033 67.8589L77.4517 67.8376V67.7806C77.4521 67.6177 77.4878 67.4568 77.5563 67.309C77.6249 67.1613 77.7246 67.03 77.8486 66.9244C78.0604 66.7358 78.9647 66.3335 79.3776 66.4581C79.4301 66.4702 79.4783 66.4963 79.5171 66.5336C79.556 66.5709 79.584 66.618 79.5983 66.6699C79.6535 66.8746 79.5182 67.138 79.2299 67.3944C78.8702 67.7198 78.4095 67.9116 77.9251 67.9373ZM77.6261 67.7148C78.0925 67.8643 78.7155 67.6062 79.1071 67.2609C79.3349 67.0615 79.4631 66.8461 79.4221 66.7162C79.4221 66.6859 79.3954 66.6503 79.3224 66.6272C78.9914 66.5293 78.1494 66.8924 77.9625 67.0579C77.7694 67.225 77.6488 67.4605 77.6261 67.7148Z" fill="#263238"/>
<path d="M78.7723 66.9545L77.5132 67.7343L77.56 67.8099L78.8191 67.0302L78.7723 66.9545Z" fill="#263238"/>
<path d="M77.9547 64.7938L77.0298 65.7712L77.2884 66.0159L78.2133 65.0385L77.9547 64.7938Z" fill="#263238"/>
<path d="M77.8022 65.205C77.804 65.0557 77.8378 64.9085 77.9014 64.7734C77.965 64.6383 78.0568 64.5184 78.1707 64.4218C78.4074 64.21 79.657 63.6831 79.7727 64.1228C79.9044 64.6016 78.6264 65.5414 77.8022 65.205Z" fill="#56AA7A"/>
<path d="M78.1917 65.3669C78.0474 65.368 77.9042 65.3414 77.7699 65.2886L77.7183 65.2673V65.2121C77.7185 65.0489 77.754 64.8877 77.8226 64.7395C77.8911 64.5914 77.9909 64.4599 78.1152 64.3541C78.327 64.1654 79.2313 63.7632 79.6442 63.8878C79.6967 63.8999 79.7449 63.926 79.7837 63.9633C79.8226 64.0006 79.8506 64.0477 79.8649 64.0996C79.9201 64.3043 79.7848 64.5677 79.4947 64.824C79.1359 65.1498 78.6757 65.3416 78.1917 65.3669ZM77.8927 65.148C78.3591 65.2975 78.9821 65.0394 79.3737 64.6941C79.6015 64.493 79.7297 64.2794 79.6887 64.1494C79.6887 64.1192 79.662 64.0836 79.589 64.0604C79.258 63.9625 78.4142 64.3256 78.2291 64.4912C78.036 64.6582 77.9154 64.8937 77.8927 65.148Z" fill="#263238"/>
<path d="M79.0379 64.3848L77.7788 65.1646L77.8257 65.2402L79.0847 64.4605L79.0379 64.3848Z" fill="#263238"/>
<path d="M78.3461 61.0271L77.4224 62.0032L77.6809 62.2479L78.6047 61.2717L78.3461 61.0271Z" fill="#263238"/>
<path d="M78.1938 61.4367C78.1956 61.2874 78.2294 61.1402 78.293 61.0051C78.3566 60.8699 78.4484 60.7501 78.5623 60.6535C78.799 60.4417 80.0468 59.9148 80.1643 60.3544C80.296 60.8333 79.018 61.766 78.1938 61.4367Z" fill="#56AA7A"/>
<path d="M78.5819 61.5987C78.4375 61.5998 78.2943 61.5732 78.16 61.5204L78.1084 61.499V61.4439C78.1095 61.2811 78.1456 61.1204 78.214 60.9727C78.2825 60.825 78.3818 60.6937 78.5053 60.5877C78.7172 60.3972 79.6232 59.9967 80.0344 60.1195C80.087 60.1313 80.1354 60.1573 80.1743 60.1947C80.2132 60.232 80.2411 60.2793 80.2551 60.3314C80.3103 60.5361 80.1768 60.7995 79.8866 61.0558C79.5271 61.3816 79.0663 61.5733 78.5819 61.5987ZM78.2846 61.3762C78.751 61.5257 79.374 61.2694 79.7656 60.9223C79.9916 60.7212 80.1216 60.5076 80.0806 60.3776C80.0717 60.3474 80.0539 60.3118 79.981 60.2886C79.6481 60.1907 78.8062 60.5539 78.621 60.7194C78.4272 60.8858 78.3064 61.1217 78.2846 61.3762Z" fill="#263238"/>
<path d="M79.4304 60.6155L78.1714 61.3953L78.2182 61.4709L79.4773 60.6912L79.4304 60.6155Z" fill="#263238"/>
<path d="M77.7524 59.703C77.7542 59.5534 77.788 59.406 77.8516 59.2705C77.9151 59.1351 78.007 59.0149 78.1209 58.918C78.3576 58.7062 79.6054 58.1793 79.7229 58.619C79.8546 59.096 78.5766 60.0376 77.7524 59.703Z" fill="#56AA7A"/>
<path d="M78.1419 59.8632C77.9975 59.8652 77.8542 59.8386 77.7201 59.7849L77.6685 59.7636V59.7084C77.6693 59.5455 77.7051 59.3848 77.7736 59.237C77.8421 59.0893 77.9416 58.958 78.0654 58.8522C78.2772 58.6617 79.1832 58.2612 79.5944 58.3841C79.647 58.3959 79.6954 58.4218 79.7343 58.4592C79.7732 58.4965 79.8012 58.5438 79.8151 58.5959C79.8703 58.8006 79.7368 59.064 79.4467 59.3203C79.087 59.6458 78.6263 59.8375 78.1419 59.8632ZM77.8447 59.6407C78.3093 59.7903 78.934 59.5339 79.3256 59.1868C79.5517 58.9875 79.6816 58.7739 79.6407 58.6422C79.634 58.6197 79.621 58.5996 79.6034 58.5842C79.5858 58.5688 79.5641 58.5586 79.541 58.5549C79.2082 58.4553 78.3662 58.8184 78.1811 58.9839C77.9861 59.1497 77.8646 59.3858 77.8429 59.6407H77.8447Z" fill="#263238"/>
<path d="M77.7753 59.7403L77.729 59.6638L78.9875 58.8842L79.0337 58.9589L77.7753 59.7403Z" fill="#263238"/>
<path d="M77.8037 59.7582C77.6555 59.7412 77.5126 59.6926 77.3848 59.6155C77.2571 59.5384 77.1474 59.4347 77.0633 59.3114C76.8764 59.0533 76.4848 57.7557 76.9333 57.6845C77.4299 57.6062 78.2238 58.975 77.8037 59.7582Z" fill="#56AA7A"/>
<path d="M77.8556 59.849H77.8004C77.6384 59.8319 77.482 59.7797 77.3422 59.6961C77.2023 59.6125 77.0823 59.4994 76.9905 59.3648C76.8232 59.1334 76.5206 58.1918 76.6862 57.7949C76.7037 57.744 76.7346 57.6988 76.7756 57.664C76.8166 57.6293 76.8663 57.6062 76.9194 57.5973C77.1294 57.5652 77.3768 57.7255 77.6011 58.0405C77.9375 58.514 78.1707 59.2669 77.8823 59.8027L77.8556 59.849ZM76.9745 57.7699H76.9478C76.9247 57.7739 76.9032 57.7844 76.8859 57.8001C76.8685 57.8159 76.856 57.8363 76.8499 57.8589C76.7164 58.1793 76.9888 59.0551 77.1347 59.2562C77.2792 59.4672 77.5012 59.6125 77.7524 59.6603C77.95 59.2135 77.7524 58.5656 77.4569 58.1402C77.2931 57.9124 77.108 57.7699 76.9745 57.7699Z" fill="#263238"/>
<path d="M77.1993 58.4128L77.1191 58.4515L77.7637 59.7849L77.8438 59.7461L77.1993 58.4128Z" fill="#263238"/>
<path d="M75.6001 51.8531H75.2441V76.5667H75.6001V51.8531Z" fill="#263238"/>
<path d="M74.6064 71.3057L74.3252 71.5228L75.145 72.5845L75.4262 72.3673L74.6064 71.3057Z" fill="#263238"/>
<path d="M74.8738 72.1043C74.8875 71.9557 74.8691 71.8059 74.82 71.6649C74.7709 71.524 74.6921 71.3952 74.589 71.2873C74.3754 71.0523 73.1864 70.3973 73.0226 70.8245C72.8464 71.2873 74.0194 72.3535 74.8738 72.1043Z" fill="#56AA7A"/>
<path d="M74.5997 72.2324C74.0924 72.2324 73.5602 71.9066 73.2327 71.5506C72.971 71.2658 72.8642 70.9899 72.9407 70.7924C72.96 70.7421 72.9925 70.698 73.0348 70.6648C73.0771 70.6316 73.1277 70.6104 73.181 70.6037C73.6047 70.5236 74.4626 71.0166 74.6549 71.2267C74.7671 71.3442 74.8525 71.4846 74.9053 71.6382C74.9582 71.7918 74.9772 71.955 74.961 72.1167L74.9521 72.1719L74.8987 72.1861C74.8018 72.2156 74.7011 72.2312 74.5997 72.2324ZM73.2878 70.7728C73.2635 70.7708 73.2391 70.7708 73.2149 70.7728C73.1912 70.7742 73.1684 70.7822 73.1492 70.7961C73.1299 70.81 73.115 70.8291 73.1063 70.8511C73.0582 70.9775 73.1597 71.2071 73.3644 71.4243C73.7204 71.8105 74.3113 72.1363 74.7884 72.0295C74.792 71.7739 74.6963 71.527 74.5214 71.3406C74.3665 71.1751 73.6563 70.7728 73.2878 70.7728Z" fill="#263238"/>
<path d="M73.7934 71.2038L73.7388 71.274L74.8445 72.1342L74.8991 72.0639L73.7934 71.2038Z" fill="#263238"/>
<path d="M74.7645 67.0394L74.4819 67.256L75.3006 68.324L75.5831 68.1074L74.7645 67.0394Z" fill="#263238"/>
<path d="M74.8738 67.4621C74.8876 67.3134 74.8693 67.1636 74.8202 67.0226C74.771 66.8817 74.6922 66.7529 74.589 66.6451C74.3754 66.4083 73.1864 65.7551 73.0226 66.1823C72.8464 66.6433 74.0194 67.7095 74.8738 67.4621Z" fill="#56AA7A"/>
<path d="M74.5997 67.5883C74.0924 67.5883 73.5602 67.2626 73.2327 66.9066C72.971 66.6218 72.8642 66.3459 72.9407 66.1483C72.9596 66.0979 72.992 66.0536 73.0344 66.0203C73.0768 65.987 73.1275 65.966 73.181 65.9596C73.6029 65.8795 74.4626 66.3726 74.6549 66.5826C74.7671 66.7001 74.8527 66.8404 74.9055 66.9941C74.9584 67.1477 74.9773 67.311 74.961 67.4726L74.9521 67.5278L74.8987 67.5438C74.8017 67.5728 74.701 67.5878 74.5997 67.5883ZM73.2878 66.127C73.2636 66.1249 73.2391 66.1249 73.2149 66.127C73.1401 66.1412 73.117 66.175 73.1063 66.2053C73.0582 66.3317 73.1597 66.5613 73.3644 66.7784C73.7204 67.1647 74.3113 67.4904 74.7884 67.3819C74.7919 67.1269 74.6962 66.8805 74.5214 66.6948C74.3665 66.531 73.6563 66.127 73.2878 66.127Z" fill="#263238"/>
<path d="M73.7959 66.5662L73.7412 66.6365L74.8468 67.4968L74.9014 67.4266L73.7959 66.5662Z" fill="#263238"/>
<path d="M74.7659 61.5854L74.4834 61.802L75.302 62.87L75.5846 62.6535L74.7659 61.5854Z" fill="#263238"/>
<path d="M74.8738 62.0081C74.8875 61.8592 74.8692 61.7091 74.82 61.5678C74.7709 61.4266 74.6922 61.2975 74.589 61.1893C74.3754 60.9543 73.1864 60.2993 73.0226 60.7265C72.8464 61.1893 74.0194 62.2573 74.8738 62.0081Z" fill="#56AA7A"/>
<path d="M74.5997 62.1345C74.0924 62.1345 73.5602 61.8105 73.2327 61.4545C72.971 61.1697 72.8642 60.892 72.9407 60.6945C72.9603 60.6444 72.9929 60.6005 73.0352 60.5673C73.0774 60.5342 73.1278 60.5129 73.181 60.5058C73.6029 60.4257 74.4626 60.9187 74.6549 61.1306C74.7672 61.2479 74.8528 61.3883 74.9057 61.5419C74.9585 61.6956 74.9774 61.8589 74.961 62.0206L74.9521 62.0757L74.8987 62.0918C74.8016 62.1201 74.7009 62.1345 74.5997 62.1345ZM73.2878 60.6749C73.2636 60.672 73.2391 60.672 73.2149 60.6749C73.1913 60.6757 73.1684 60.6833 73.1491 60.6969C73.1298 60.7105 73.1149 60.7295 73.1063 60.7514C73.0582 60.8778 73.1597 61.1074 73.3644 61.3264C73.7204 61.7108 74.3113 62.0384 74.7884 61.9298C74.7919 61.6748 74.6962 61.4284 74.5214 61.2427C74.3665 61.0772 73.6563 60.6749 73.2878 60.6749Z" fill="#263238"/>
<path d="M73.7954 61.1138L73.7407 61.1841L74.8463 62.0444L74.9009 61.9742L73.7954 61.1138Z" fill="#263238"/>
<path d="M74.5864 57.6273L74.3052 57.8445L75.125 58.9062L75.4062 58.689L74.5864 57.6273Z" fill="#263238"/>
<path d="M74.8738 58.384C74.8875 58.2351 74.8692 58.085 74.82 57.9438C74.7709 57.8026 74.6922 57.6735 74.589 57.5652C74.3754 57.3303 73.1864 56.6752 73.0226 57.1024C72.8464 57.5599 74.0194 58.6261 74.8738 58.384Z" fill="#56AA7A"/>
<path d="M74.5997 58.5051C74.0924 58.5051 73.5602 58.1793 73.2327 57.8233C72.971 57.5385 72.8642 57.2626 72.9407 57.065C72.96 57.0148 72.9925 56.9707 73.0348 56.9375C73.0771 56.9042 73.1277 56.8831 73.181 56.8764C73.6047 56.7945 74.4626 57.2893 74.6549 57.4994C74.7671 57.6169 74.8525 57.7572 74.9053 57.9109C74.9582 58.0645 74.9772 58.2277 74.961 58.3894L74.9521 58.4445L74.8987 58.4606C74.8017 58.4895 74.701 58.5045 74.5997 58.5051ZM73.2878 57.0455C73.2635 57.0435 73.2391 57.0435 73.2149 57.0455C73.1912 57.0468 73.1684 57.0549 73.1492 57.0688C73.1299 57.0827 73.115 57.1018 73.1063 57.1238C73.0582 57.2502 73.1597 57.4798 73.3644 57.6987C73.7204 58.0832 74.3113 58.4107 74.7884 58.3021C74.7923 58.0471 74.6965 57.8006 74.5214 57.6151C74.3665 57.4477 73.6563 57.0455 73.2878 57.0455Z" fill="#263238"/>
<path d="M73.7954 57.4829L73.7407 57.5531L74.8463 58.4134L74.9009 58.3432L73.7954 57.4829Z" fill="#263238"/>
<path d="M74.7659 54.3096L74.4834 54.5261L75.302 55.5942L75.5846 55.3776L74.7659 54.3096Z" fill="#263238"/>
<path d="M74.8738 54.7315C74.8875 54.5829 74.8691 54.433 74.82 54.2921C74.7709 54.1512 74.6921 54.0224 74.589 53.9145C74.3754 53.6777 73.1864 53.0245 73.0226 53.4517C72.8464 53.9145 74.0194 54.9807 74.8738 54.7315Z" fill="#56AA7A"/>
<path d="M74.5997 54.8596C74.0924 54.8596 73.5602 54.5339 73.2327 54.1779C72.971 53.8931 72.8642 53.6172 72.9407 53.4196C72.96 53.3693 72.9925 53.3252 73.0348 53.292C73.0771 53.2588 73.1277 53.2377 73.181 53.2309C73.6082 53.1526 74.4626 53.6439 74.6549 53.8539C74.7671 53.9714 74.8525 54.1118 74.9053 54.2654C74.9582 54.419 74.9772 54.5823 74.961 54.7439L74.9521 54.7991L74.8987 54.8133C74.8018 54.8429 74.7011 54.8585 74.5997 54.8596ZM73.2878 53.4C73.2635 53.398 73.2391 53.398 73.2149 53.4C73.1912 53.4014 73.1684 53.4095 73.1492 53.4233C73.1299 53.4372 73.115 53.4563 73.1063 53.4783C73.0582 53.6047 73.1597 53.8343 73.3644 54.0515C73.7204 54.4378 74.3113 54.7635 74.7884 54.6567C74.792 54.4011 74.6963 54.1542 74.5214 53.9678C74.3665 53.8023 73.6563 53.4 73.2878 53.4Z" fill="#263238"/>
<path d="M73.7924 53.8314L73.7378 53.9016L74.8435 54.7618L74.8981 54.6915L73.7924 53.8314Z" fill="#263238"/>
<path d="M76.1007 73.09L75.2822 74.1582L75.5648 74.3747L76.3833 73.3066L76.1007 73.09Z" fill="#263238"/>
<path d="M75.9937 73.5229C75.9799 73.3742 75.9983 73.2244 76.0474 73.0834C76.0965 72.9425 76.1753 72.8137 76.2785 72.7058C76.4921 72.4691 77.6794 71.8158 77.8431 72.243C78.0211 72.7058 76.8481 73.7721 75.9937 73.5229Z" fill="#56AA7A"/>
<path d="M76.2679 73.6493C76.1668 73.6499 76.0661 73.6361 75.9688 73.6083L75.9154 73.5923L75.9065 73.5371C75.8903 73.3755 75.9092 73.2122 75.9621 73.0586C76.0149 72.9049 76.1004 72.7646 76.2127 72.6471C76.4049 72.4371 77.2611 71.9351 77.6847 72.0241C77.7384 72.0306 77.7894 72.0516 77.832 72.0848C77.8747 72.1181 77.9075 72.1623 77.9268 72.2128C78.0034 72.4104 77.8966 72.6863 77.6349 72.9711C77.3074 73.3253 76.7734 73.6493 76.2679 73.6493ZM76.0774 73.4517C76.5544 73.5532 77.1454 73.2328 77.5014 72.8483C77.7061 72.6258 77.8076 72.4015 77.7595 72.2751C77.7504 72.2533 77.7354 72.2345 77.7163 72.2207C77.6971 72.2068 77.6745 72.1986 77.6509 72.1968C77.3127 72.1345 76.51 72.5813 76.3426 72.7646C76.1685 72.9506 76.0734 73.1969 76.0774 73.4517Z" fill="#263238"/>
<path d="M76.0202 73.5585L75.9668 73.4873L77.138 72.5813L77.1914 72.6507L76.0202 73.5585Z" fill="#263238"/>
<path d="M76.1007 65.7029L75.2822 66.7711L75.5648 66.9876L76.3833 65.9195L76.1007 65.7029Z" fill="#263238"/>
<path d="M75.9936 66.1359C75.98 65.9873 75.9984 65.8375 76.0475 65.6965C76.0966 65.5556 76.1754 65.4268 76.2784 65.3189C76.492 65.0821 77.6793 64.4289 77.843 64.8561C78.021 65.326 76.848 66.394 75.9936 66.1359Z" fill="#56AA7A"/>
<path d="M76.2678 66.2641C76.1666 66.2641 76.0659 66.2497 75.9688 66.2214L75.9154 66.2072L75.9065 66.152C75.8903 65.9903 75.9093 65.8271 75.9622 65.6735C76.015 65.5199 76.1004 65.3795 76.2126 65.262C76.4049 65.052 77.2628 64.5607 77.6847 64.639C77.7384 64.6454 77.7893 64.6664 77.832 64.6997C77.8746 64.7329 77.9074 64.7772 77.9268 64.8277C78.0033 65.0253 77.8965 65.3011 77.6348 65.5859C77.3073 65.9384 76.7733 66.2641 76.2678 66.2641ZM76.0773 66.0666C76.5544 66.1662 77.1453 65.8458 77.5013 65.4614C77.706 65.2389 77.8075 65.0146 77.7594 64.8882C77.7503 64.8664 77.7353 64.8475 77.7162 64.8337C77.697 64.8199 77.6744 64.8116 77.6509 64.8099C77.3109 64.7458 76.5099 65.1944 76.3426 65.3777C76.1683 65.5643 76.0732 65.8113 76.0773 66.0666Z" fill="#263238"/>
<path d="M76.0202 66.1716L75.9668 66.1021L77.138 65.1943L77.1914 65.2655L76.0202 66.1716Z" fill="#263238"/>
<path d="M76.0981 62.0596L75.2808 63.1263L75.5633 63.3429L76.3807 62.2761L76.0981 62.0596Z" fill="#263238"/>
<path d="M75.9937 62.4905C75.9799 62.3419 75.9983 62.192 76.0474 62.0511C76.0965 61.9101 76.1753 61.7814 76.2785 61.6735C76.4921 61.4368 77.6794 60.7835 77.8431 61.2107C78.0211 61.6735 76.8481 62.7397 75.9937 62.4905Z" fill="#56AA7A"/>
<path d="M76.2679 62.6168C76.1668 62.6174 76.0661 62.6036 75.9688 62.5759L75.9154 62.5598L75.9065 62.5047C75.8903 62.343 75.9092 62.1797 75.9621 62.0261C76.0149 61.8725 76.1004 61.7321 76.2127 61.6147C76.4049 61.4046 77.2647 60.9027 77.6847 60.9917C77.7385 60.9979 77.7895 61.0188 77.8322 61.0521C77.8749 61.0854 77.9076 61.1297 77.9268 61.1803C78.0034 61.3779 77.8966 61.6538 77.6349 61.9386C77.3074 62.3 76.7734 62.6168 76.2679 62.6168ZM76.0774 62.4192C76.5544 62.5225 77.1454 62.2003 77.5014 61.8158C77.7061 61.5933 77.8076 61.369 77.7595 61.2426C77.7507 61.2206 77.7359 61.2015 77.7166 61.1877C77.6974 61.1738 77.6746 61.1657 77.6509 61.1643C77.3127 61.102 76.51 61.5488 76.3426 61.7321C76.1685 61.9181 76.0734 62.1645 76.0774 62.4192Z" fill="#263238"/>
<path d="M76.0202 62.526L75.9668 62.4566L77.138 61.5488L77.1914 61.62L76.0202 62.526Z" fill="#263238"/>
<path d="M76.0997 57.239L75.2812 58.3071L75.5638 58.5237L76.3823 57.4555L76.0997 57.239Z" fill="#263238"/>
<path d="M75.9936 57.6721C75.98 57.5232 75.9983 57.3731 76.0474 57.2318C76.0966 57.0906 76.1753 56.9615 76.2784 56.8533C76.492 56.6183 77.6793 55.9633 77.8431 56.3922C78.0211 56.8533 76.848 57.9213 75.9936 57.6721Z" fill="#56AA7A"/>
<path d="M76.2679 57.7984C76.1668 57.799 76.0661 57.7852 75.9689 57.7574L75.9155 57.7414L75.9066 57.6862C75.8902 57.5246 75.9091 57.3613 75.962 57.2076C76.0148 57.054 76.1004 56.9136 76.2128 56.7962C76.405 56.5844 77.263 56.0931 77.6848 56.1715C77.7387 56.1783 77.7896 56.1996 77.8323 56.2331C77.8749 56.2667 77.9076 56.3112 77.9269 56.3619C78.0034 56.5595 77.8966 56.8354 77.635 57.1202C77.3075 57.4744 76.7735 57.7984 76.2679 57.7984ZM76.0775 57.6008C76.5545 57.7023 77.1455 57.3819 77.5015 56.9974C77.7062 56.7749 77.8076 56.5488 77.7596 56.4242C77.7508 56.4022 77.7359 56.3831 77.7167 56.3692C77.6975 56.3554 77.6747 56.3473 77.651 56.3459C77.311 56.2818 76.51 56.7304 76.3427 56.9137C76.1686 57.0997 76.0735 57.3461 76.0775 57.6008Z" fill="#263238"/>
<path d="M76.0202 57.7076L75.9668 57.6364L77.138 56.7303L77.1914 56.7998L76.0202 57.7076Z" fill="#263238"/>
<path d="M76.1012 53.4506L75.2827 54.5188L75.5653 54.7353L76.3838 53.6671L76.1012 53.4506Z" fill="#263238"/>
<path d="M75.9936 53.8842C75.98 53.7353 75.9983 53.5852 76.0474 53.4439C76.0966 53.3027 76.1753 53.1736 76.2784 53.0654C76.492 52.8304 77.6793 52.1754 77.8431 52.6026C78.0211 53.0654 76.848 54.1334 75.9936 53.8842Z" fill="#56AA7A"/>
<path d="M76.2678 54.0106C76.1667 54.0111 76.066 53.9974 75.9688 53.9696L75.9154 53.9536L75.9065 53.8984C75.8903 53.7368 75.9093 53.5735 75.9622 53.4199C76.015 53.2663 76.1004 53.1259 76.2126 53.0084C76.4049 52.7984 77.2646 52.3053 77.6847 52.3854C77.7382 52.3922 77.789 52.4134 77.8316 52.4466C77.8742 52.4798 77.9071 52.5238 77.9268 52.5741C78.0033 52.7717 77.8965 53.0476 77.6348 53.3324C77.3073 53.6848 76.7733 54.0106 76.2678 54.0106ZM76.0773 53.813C76.5544 53.9144 77.1453 53.594 77.5013 53.2096C77.706 52.9871 77.8075 52.761 77.7594 52.6346C77.7503 52.6128 77.7353 52.594 77.7162 52.5802C77.697 52.5663 77.6744 52.5581 77.6509 52.5563C77.3127 52.494 76.5099 52.9408 76.3426 53.1259C76.1681 53.3117 76.0729 53.5582 76.0773 53.813Z" fill="#263238"/>
<path d="M76.0202 53.9179L75.9668 53.8485L77.138 52.9425L77.1914 53.0119L76.0202 53.9179Z" fill="#263238"/>
<path d="M75.376 52.2039C75.3623 52.055 75.3807 51.9049 75.4298 51.7636C75.4789 51.6224 75.5577 51.4933 75.6608 51.3851C75.8744 51.1501 77.0616 50.4951 77.2254 50.9223C77.4034 51.3851 76.2286 52.4531 75.376 52.2039Z" fill="#56AA7A"/>
<path d="M75.6502 52.332C75.5491 52.3328 75.4484 52.319 75.3512 52.2911L75.2978 52.2751L75.2871 52.2199C75.2721 52.0582 75.2918 51.8951 75.3449 51.7416C75.3981 51.5881 75.4833 51.4478 75.595 51.3299C75.7855 51.1198 76.6434 50.6179 77.0671 50.7069C77.1207 50.7137 77.1714 50.7348 77.214 50.768C77.2566 50.8012 77.2895 50.8453 77.3092 50.8956C77.3839 51.0931 77.2771 51.3708 77.0155 51.6556C76.6879 52.0063 76.1557 52.332 75.6502 52.332ZM75.4597 52.1344C75.935 52.2359 76.5277 51.9155 76.8837 51.531C77.0884 51.3085 77.1899 51.0825 77.1401 50.9561C77.1318 50.9341 77.1173 50.9149 77.0983 50.901C77.0794 50.8871 77.0568 50.879 77.0333 50.8778C76.6933 50.8137 75.8923 51.2622 75.725 51.4474C75.5503 51.6323 75.4551 51.8783 75.4597 52.1327V52.1344Z" fill="#263238"/>
<path d="M75.4025 52.2394L75.3491 52.1682L76.5186 51.2622L76.5738 51.3316L75.4025 52.2394Z" fill="#263238"/>
<path d="M75.433 52.2537C75.2837 52.252 75.1365 52.2183 75.0014 52.1547C74.8662 52.0911 74.7463 51.9992 74.6498 51.8852C74.438 51.6467 73.9129 50.3971 74.3526 50.2832C74.8314 50.1515 75.7695 51.4313 75.433 52.2537Z" fill="#56AA7A"/>
<path d="M75.4149 52.3427C75.256 52.3375 75.0999 52.2994 74.9565 52.2308C74.8131 52.1622 74.6856 52.0645 74.5819 51.944C74.3932 51.7322 73.9945 50.8261 74.1173 50.415C74.1291 50.3623 74.1551 50.3139 74.1924 50.275C74.2298 50.2361 74.277 50.2082 74.3291 50.1942C74.5356 50.139 74.7973 50.2743 75.0536 50.5645C75.4363 50.9988 75.746 51.725 75.5146 52.2875L75.4932 52.3391H75.4381L75.4149 52.3427ZM74.4235 50.3598C74.4075 50.3579 74.3914 50.3579 74.3754 50.3598C74.3529 50.3668 74.3328 50.3797 74.3171 50.3973C74.3014 50.4148 74.2908 50.4363 74.2864 50.4595C74.1885 50.7905 74.5498 51.6343 74.7154 51.8212C74.8811 52.0149 75.1164 52.1357 75.3704 52.1576C75.5217 51.693 75.2654 51.0682 74.9201 50.6766C74.7996 50.513 74.6226 50.4001 74.4235 50.3598Z" fill="#263238"/>
<path d="M74.6924 50.9634L74.6167 51.0103L75.3956 52.2699L75.4713 52.2231L74.6924 50.9634Z" fill="#263238"/>
<path d="M76.4405 82.9782H73.8221L73.4946 76.3673H76.7663L76.4405 82.9782Z" fill="#263238"/>
<path d="M76.524 83.0672H73.7383L73.4019 76.2783H76.8604L76.524 83.0672ZM73.9074 82.8892H76.362L76.6806 76.4563H73.5888L73.9074 82.8892Z" fill="#263238"/>
</svg>
