<svg width="100" height="100" viewBox="0 0 100 100" fill="none" xmlns="http://www.w3.org/2000/svg">
<path d="M97.7243 59.902C98.9243 41.918 89.8383 24.702 74.0943 15.93C71.1468 14.2893 68.0307 12.9716 64.8003 12C39.6003 4.4 30.2003 10.8 23.6003 18.8C17.0003 26.8 23.2003 40.4 15.6003 46C8.00026 51.6 -1.19974 59.6 2.60026 71.4C6.40026 83.2 15.8003 91 24.6003 90.2C33.4003 89.4 42.6003 79 48.8003 85.8C55.0003 92.6 74.8003 99.2 87.8003 87.8C94.7483 81.708 97.0683 69.732 97.7243 59.902Z" fill="#92E3A9"/>
<path opacity="0.7" d="M97.7243 59.902C98.9243 41.918 89.8383 24.702 74.0943 15.93C71.1468 14.2893 68.0307 12.9716 64.8003 12C39.6003 4.4 30.2003 10.8 23.6003 18.8C17.0003 26.8 23.2003 40.4 15.6003 46C8.00026 51.6 -1.19974 59.6 2.60026 71.4C6.40026 83.2 15.8003 91 24.6003 90.2C33.4003 89.4 42.6003 79 48.8003 85.8C55.0003 92.6 74.8003 99.2 87.8003 87.8C94.7483 81.708 97.0683 69.732 97.7243 59.902Z" fill="white"/>
<path d="M88.2334 62.568C87.3934 62.71 85.8194 63.792 85.8174 63.792C85.8154 63.792 86.8454 64.614 86.9174 64.658C87.7474 65.162 89.6494 65.648 90.4714 64.934C90.6047 64.812 90.7108 64.6632 90.7828 64.4975C90.8548 64.3317 90.8912 64.1527 90.8895 63.972C90.8878 63.7913 90.8481 63.6129 90.773 63.4486C90.6978 63.2842 90.5889 63.1375 90.4534 63.018C89.8934 62.492 88.9494 62.446 88.2334 62.568Z" fill="#92E3A9"/>
<path d="M84.6542 58.3C83.9122 58.644 82.7562 59.99 82.6642 60.1C81.8956 59.4375 81.0838 58.8268 80.2342 58.272C79.7402 57.946 79.2342 57.634 78.7222 57.326C78.9762 57.432 79.2042 57.526 79.2382 57.526C80.1722 57.792 82.1342 57.76 82.7402 56.856C82.8366 56.703 82.8997 56.5315 82.9255 56.3525C82.9512 56.1735 82.939 55.9911 82.8895 55.8171C82.8401 55.6432 82.7546 55.4816 82.6386 55.3429C82.5226 55.2041 82.3786 55.0914 82.2162 55.012C81.5382 54.652 80.6162 54.858 79.9562 55.164C79.2962 55.47 78.2802 56.602 78.0162 56.904C77.8162 56.788 77.6162 56.67 77.4162 56.556C76.4662 56.002 75.5142 55.456 74.5982 54.89C74.2742 54.69 73.9642 54.49 73.6522 54.278C73.8782 54.37 74.0702 54.448 74.1002 54.456C75.0342 54.724 76.9962 54.69 77.6002 53.786C77.6966 53.633 77.7597 53.4615 77.7855 53.2825C77.8112 53.1035 77.799 52.9211 77.7495 52.7471C77.7001 52.5732 77.6146 52.4116 77.4986 52.2729C77.3826 52.1341 77.2386 52.0214 77.0762 51.942C76.3982 51.582 75.4762 51.788 74.8182 52.094C74.1602 52.4 73.2402 53.422 72.9262 53.78C72.6122 53.558 72.2982 53.338 72.0062 53.108C71.8062 52.948 71.6062 52.808 71.4202 52.634L70.8542 52.14C70.5062 51.812 70.1462 51.476 69.8142 51.14C69.5822 50.914 69.3662 50.694 69.1462 50.472C69.4662 50.672 70.0982 51.056 70.1562 51.082C71.0382 51.482 72.9822 51.752 73.7182 50.95C73.8366 50.8133 73.9249 50.6532 73.9773 50.4801C74.0297 50.3071 74.0451 50.1249 74.0225 49.9455C73.9999 49.766 73.9397 49.5934 73.8459 49.4388C73.7521 49.2841 73.6268 49.151 73.4782 49.048C72.8642 48.588 71.9202 48.648 71.2222 48.848C70.4562 49.07 69.1562 50.174 68.9962 50.314C68.6342 49.946 68.2862 49.586 67.9622 49.24C67.2482 48.478 66.6282 47.782 66.1142 47.184L65.5142 47.584C66.0602 48.184 66.7242 48.908 67.4962 49.694C67.8602 50.068 68.2582 50.462 68.6722 50.862C68.356 51.3103 68.0681 51.7778 67.8102 52.262C67.0102 52.062 65.4322 52.252 65.2302 52.278C65.1302 51.772 65.0302 51.278 64.9602 50.812C64.7942 49.836 64.6662 48.958 64.5602 48.202L63.9142 48.624C64.0222 49.31 64.1542 50.082 64.3142 50.928C64.4122 51.442 64.5282 51.99 64.6502 52.55C64.4502 52.626 62.8682 53.258 62.3122 53.834C61.8082 54.354 61.3122 55.16 61.4282 55.918C61.4496 56.0975 61.5087 56.2704 61.6014 56.4255C61.6942 56.5806 61.8186 56.7144 61.9665 56.8182C62.1145 56.9219 62.2826 56.9934 62.4601 57.0278C62.6375 57.0623 62.8201 57.0589 62.9962 57.018C64.0482 56.744 64.7242 54.902 64.7802 53.932C64.7802 53.874 64.7482 53.25 64.7202 52.856C64.7722 53.084 64.8202 53.308 64.8762 53.542C64.9842 54.008 65.1062 54.47 65.2342 54.966C65.3042 55.204 65.3762 55.444 65.4482 55.686C65.5202 55.928 65.6162 56.176 65.6982 56.424C65.8982 56.994 66.1382 57.56 66.3882 58.126C65.9882 58.222 64.5402 58.582 63.9582 59.022C63.3762 59.462 62.7582 60.182 62.7682 60.95C62.7623 61.1306 62.7946 61.3105 62.8629 61.4778C62.9311 61.6451 63.0339 61.7961 63.1645 61.9211C63.2951 62.046 63.4506 62.142 63.6207 62.2028C63.7909 62.2636 63.972 62.2879 64.1522 62.274C65.2342 62.162 66.1822 60.444 66.3842 59.494C66.3962 59.434 66.4642 58.736 66.4922 58.352C66.6462 58.692 66.7962 59.03 66.9622 59.368C67.4422 60.344 67.9622 61.318 68.4642 62.29C68.6222 62.588 68.7742 62.89 68.9262 63.186C68.7822 63.218 67.0582 63.608 66.4082 64.102C65.8302 64.542 65.2082 65.262 65.2182 66.03C65.212 66.2107 65.244 66.3907 65.3122 66.5581C65.3804 66.7256 65.4832 66.8768 65.6138 67.0018C65.7445 67.1268 65.9001 67.2228 66.0704 67.2835C66.2407 67.3442 66.4219 67.3682 66.6022 67.354C67.6842 67.242 68.6302 65.524 68.8322 64.574C68.8462 64.502 68.9422 63.498 68.9542 63.24C69.2922 63.898 69.6222 64.556 69.9222 65.218C70.3407 66.1138 70.7008 67.0357 71.0002 67.978C70.9322 67.994 69.1322 68.394 68.4662 68.898C67.8882 69.338 67.2662 70.058 67.2662 70.826C67.2603 71.0066 67.2926 71.1865 67.3609 71.3538C67.4291 71.5211 67.5319 71.6721 67.6625 71.7971C67.7931 71.922 67.9486 72.018 68.1187 72.0788C68.2889 72.1396 68.47 72.1639 68.6502 72.15C69.7322 72.038 70.6802 70.32 70.8822 69.37C70.8962 69.296 71.0002 68.214 71.0042 68.016C71.0202 68.07 71.0442 68.126 71.0602 68.18C71.3252 69.1282 71.5059 70.098 71.6002 71.078C71.6582 71.62 71.6822 72.14 71.6962 72.646C71.3522 72.686 69.7882 72.886 69.1382 73.274C68.4882 73.662 67.8262 74.296 67.7382 75.06C67.7131 75.2388 67.7259 75.4208 67.7757 75.5943C67.8254 75.7679 67.911 75.929 68.0269 76.0674C68.1428 76.2057 68.2865 76.3182 68.4487 76.3976C68.6108 76.4769 68.7878 76.5214 68.9682 76.528C70.0562 76.528 71.1882 74.928 71.4922 74.01C71.5082 73.96 71.6202 73.43 71.6922 73.044C71.6922 73.272 71.6922 73.508 71.6922 73.728C71.6922 74.55 71.6322 75.304 71.5762 75.97C71.5422 76.348 71.5042 76.69 71.4642 77.01C71.1482 77.226 69.8862 78.108 69.4962 78.74C69.1062 79.372 68.8002 80.25 69.0802 80.966C69.1396 81.1367 69.2344 81.293 69.3583 81.4247C69.4822 81.5563 69.6325 81.6603 69.7993 81.73C69.9661 81.7996 70.1458 81.8333 70.3265 81.8288C70.5072 81.8243 70.685 81.7818 70.8482 81.704C71.8182 81.208 72.0822 79.264 71.9262 78.304C71.9122 78.22 71.5542 76.948 71.5382 76.96L71.5182 76.972C71.5622 76.666 71.6062 76.336 71.6462 75.972C71.7162 75.304 71.7882 74.55 71.8122 73.726C71.8474 72.8358 71.8307 71.9443 71.7622 71.056C71.6895 70.0618 71.5289 69.0759 71.2822 68.11C71.2822 68.098 71.2822 68.088 71.2822 68.076C71.4522 68.346 71.9522 69.076 71.9962 69.136C72.6282 69.874 74.2842 70.936 75.2882 70.508C75.4529 70.4336 75.6 70.3254 75.7201 70.1903C75.8401 70.0552 75.9304 69.8964 75.9849 69.7241C76.0395 69.5518 76.0571 69.3699 76.0366 69.1904C76.0161 69.0108 75.9581 68.8376 75.8662 68.682C75.5002 68.008 74.6162 67.67 73.8982 67.562C73.0982 67.44 71.3822 67.926 71.2462 67.962C70.9709 66.9858 70.6308 66.029 70.2282 65.098C69.9962 64.554 69.7462 64.012 69.4882 63.474C69.6422 63.702 69.7822 63.906 69.8042 63.932C70.4362 64.67 72.0922 65.732 73.0942 65.304C73.259 65.2298 73.4064 65.1217 73.5267 64.9867C73.6469 64.8517 73.7374 64.6929 73.7921 64.5206C73.8468 64.3483 73.8646 64.1664 73.8443 63.9867C73.824 63.8071 73.766 63.6337 73.6742 63.478C73.3082 62.802 72.4242 62.466 71.7062 62.356C70.9882 62.246 69.5062 62.632 69.1302 62.738C69.0282 62.538 68.9302 62.326 68.8282 62.122C68.3382 61.136 67.8462 60.156 67.3942 59.178C67.2342 58.834 67.0902 58.49 66.9442 58.144C67.0802 58.344 67.1982 58.516 67.2182 58.544C67.8502 59.282 69.5062 60.344 70.5102 59.918C70.6749 59.8434 70.8221 59.735 70.9422 59.5997C71.0623 59.4644 71.1525 59.3054 71.207 59.133C71.2615 58.9605 71.2791 58.7785 71.2587 58.5988C71.2382 58.4191 71.1801 58.2458 71.0882 58.09C70.7222 57.416 69.8382 57.078 69.1202 56.97C68.4022 56.862 67.0722 57.208 66.6122 57.334C66.4742 56.976 66.3342 56.618 66.2122 56.266C66.1362 56.024 66.0462 55.796 65.9842 55.548C65.9222 55.3 65.8522 55.062 65.7842 54.822C65.6742 54.356 65.5602 53.878 65.4642 53.422C65.3962 53.106 65.3362 52.802 65.2762 52.496C65.4302 52.842 65.7482 53.51 65.7802 53.562C66.259 54.2703 66.911 54.8445 67.6742 55.23C67.7233 55.3113 67.7803 55.3877 67.8442 55.458C67.9613 55.5958 68.1061 55.7073 68.2691 55.7854C68.4322 55.8635 68.6098 55.9064 68.7906 55.9113C68.9713 55.9162 69.151 55.883 69.3181 55.8139C69.4852 55.7447 69.6358 55.6412 69.7602 55.51C70.4862 54.7 70.0342 52.792 69.5442 51.952C69.5162 51.902 69.1442 51.4 68.9022 51.088C69.0722 51.25 69.2342 51.41 69.4102 51.574C69.7582 51.904 70.1142 52.222 70.4942 52.574L71.0702 53.056C71.2602 53.222 71.4802 53.372 71.6862 53.532C72.1722 53.894 72.6862 54.238 73.2022 54.572C72.9142 54.876 71.9102 55.972 71.6682 56.66C71.4262 57.348 71.3142 58.284 71.7382 58.924C71.8332 59.0777 71.9595 59.2097 72.1089 59.3114C72.2582 59.4132 72.4273 59.4824 72.6051 59.5147C72.7829 59.5469 72.9655 59.5414 73.141 59.4986C73.3166 59.4558 73.4812 59.3765 73.6242 59.266C74.4662 58.574 74.3082 56.618 73.9502 55.716C73.9282 55.658 73.6002 55.04 73.4122 54.702C73.7262 54.902 74.0402 55.102 74.3642 55.29C75.3022 55.842 76.2682 56.368 77.2302 56.9C77.5242 57.062 77.8162 57.228 78.1082 57.392C78.0062 57.498 76.7842 58.776 76.5082 59.546C76.2682 60.23 76.1522 61.17 76.5782 61.81C76.673 61.9636 76.7991 62.0956 76.9483 62.1973C77.0975 62.2991 77.2664 62.3683 77.444 62.4006C77.6217 62.4328 77.8041 62.4273 77.9795 62.3845C78.1549 62.3417 78.3194 62.2625 78.4622 62.152C79.3042 61.46 79.1462 59.504 78.7902 58.602C78.7622 58.534 78.2882 57.642 78.1562 57.422C78.8002 57.784 79.4382 58.15 80.0542 58.538C80.8867 59.0576 81.685 59.6301 82.4442 60.252C82.3962 60.302 81.1142 61.628 80.8442 62.418C80.6042 63.102 80.4882 64.042 80.9142 64.682C81.0092 64.8358 81.1355 64.9678 81.2849 65.0696C81.4343 65.1713 81.6035 65.2405 81.7814 65.2725C81.9593 65.3046 82.1419 65.2989 82.3174 65.2557C82.493 65.2125 82.6574 65.1329 82.8002 65.022C83.6402 64.332 83.4822 62.376 83.1262 61.472C83.0982 61.402 82.5862 60.444 82.4822 60.272L82.6182 60.378C83.362 61.023 84.0468 61.7331 84.6642 62.5C85.0102 62.92 85.3182 63.34 85.6082 63.754C85.3442 63.976 84.1502 65.008 83.8222 65.69C83.4942 66.372 83.2902 67.266 83.6442 67.948C83.7214 68.1114 83.8322 68.2567 83.9694 68.3744C84.1066 68.4921 84.267 68.5795 84.4402 68.631C84.6135 68.6826 84.7956 68.697 84.9748 68.6734C85.154 68.6498 85.3262 68.5886 85.4802 68.494C86.3922 67.894 86.4502 65.94 86.1942 65.002C86.1802 64.95 85.9822 64.448 85.8322 64.084C85.9602 64.274 86.0962 64.466 86.2162 64.65C86.6642 65.34 87.0342 65.998 87.3562 66.586C87.5362 66.92 87.6922 67.226 87.8362 67.514C87.6902 67.868 87.1242 69.3 87.1482 70.044C87.1722 70.788 87.4022 71.686 88.0282 72.13C88.1722 72.2393 88.3376 72.317 88.5136 72.3581C88.6897 72.3992 88.8724 72.4028 89.0499 72.3687C89.2274 72.3345 89.3958 72.2634 89.544 72.1599C89.6922 72.0564 89.817 71.9229 89.9102 71.768C90.4462 70.822 89.5942 69.054 88.9342 68.34C88.8782 68.278 87.8762 67.414 87.8702 67.432L87.8602 67.454C87.7282 67.174 87.5822 66.876 87.4182 66.552C87.1082 65.952 86.7522 65.29 86.3162 64.588C85.8552 63.8256 85.3496 63.091 84.8022 62.388C84.1944 61.5958 83.5171 60.8595 82.7782 60.188L82.7502 60.166C83.0402 60.298 83.8642 60.638 83.9302 60.656C84.8642 60.924 86.8262 60.89 87.4322 59.986C87.5286 59.833 87.5917 59.6615 87.6175 59.4825C87.6432 59.3035 87.631 59.1211 87.5815 58.9471C87.5321 58.7732 87.4466 58.6116 87.3306 58.4729C87.2146 58.3341 87.0706 58.2214 86.9082 58.142C86.2362 57.788 85.3122 58 84.6542 58.3Z" fill="#92E3A9"/>
<path d="M71.8396 72.8C71.8196 72.8 72.2396 74.052 72.2796 74.128C72.6936 75.006 74.0116 76.46 75.0896 76.328C75.2672 76.2996 75.4369 76.2343 75.5877 76.1363C75.7386 76.0383 75.8672 75.9098 75.9654 75.7591C76.0635 75.6083 76.129 75.4387 76.1577 75.2611C76.1863 75.0835 76.1774 74.9019 76.1316 74.728C75.9556 73.98 75.1936 73.42 74.5316 73.128C73.7496 72.758 71.8396 72.8 71.8396 72.8Z" fill="#92E3A9"/>
<path d="M28.9198 29.8C29.5198 29.46 30.3978 28.2 30.3978 28.2C30.3978 28.2 29.3978 27.866 29.3298 27.854C28.5658 27.706 26.9998 27.868 26.5778 28.632C26.5113 28.761 26.4727 28.9025 26.4645 29.0473C26.4563 29.1921 26.4787 29.3371 26.5302 29.4727C26.5817 29.6083 26.6612 29.7316 26.7634 29.8345C26.8657 29.9374 26.9885 30.0176 27.1238 30.07C27.6918 30.324 28.4158 30.094 28.9198 29.8Z" fill="#92E3A9"/>
<path d="M32.7997 32.022C33.2617 31.556 33.7577 30.222 33.7997 30.116C34.5619 30.4013 35.3423 30.6352 36.1357 30.816C36.5977 30.924 37.0677 31.016 37.5357 31.108C37.3157 31.108 37.1177 31.092 37.0897 31.094C36.3117 31.154 34.8457 31.724 34.6397 32.572C34.6101 32.714 34.6107 32.8606 34.6413 33.0023C34.6719 33.1441 34.732 33.2778 34.8176 33.3949C34.9032 33.512 35.0124 33.6098 35.1382 33.682C35.2639 33.7541 35.4035 33.7991 35.5477 33.814C36.1577 33.898 36.7957 33.486 37.2057 33.072C37.6157 32.658 38.0677 31.524 38.1817 31.224L38.7237 31.322C39.5937 31.472 40.4617 31.62 41.3097 31.79C41.6077 31.85 41.8997 31.92 42.1917 31.99C41.9917 31.99 41.8297 31.978 41.8037 31.99C41.0277 32.048 39.5597 32.618 39.3557 33.468C39.3258 33.6098 39.326 33.7564 39.3564 33.8981C39.3868 34.0399 39.4467 34.1737 39.5321 34.2908C39.6175 34.4079 39.7266 34.5058 39.8523 34.578C39.978 34.6502 40.1175 34.6952 40.2617 34.71C40.8737 34.792 41.5097 34.38 41.9217 33.968C42.3337 33.556 42.7397 32.528 42.8757 32.168C43.1737 32.248 43.4757 32.326 43.7557 32.418C43.9557 32.484 44.1377 32.534 44.3277 32.618L44.8917 32.834C45.2437 32.984 45.6097 33.136 45.9497 33.292C46.1877 33.398 46.4117 33.492 46.6377 33.608C46.3417 33.546 45.7597 33.434 45.7097 33.43C44.9317 33.37 43.3957 33.712 43.0637 34.52C43.0125 34.6558 42.9905 34.8008 42.9992 34.9457C43.0078 35.0905 43.0469 35.2319 43.1139 35.3607C43.1809 35.4894 43.2743 35.6025 43.388 35.6927C43.5017 35.7829 43.6331 35.8481 43.7737 35.884C44.3737 36.06 45.0557 35.75 45.5257 35.404C46.0397 35.022 46.7117 33.83 46.7937 33.68C47.1677 33.856 47.5297 34.032 47.8697 34.202C48.6197 34.576 49.2697 34.928 49.8317 35.234L50.1737 34.774C49.5937 34.468 48.8957 34.114 48.0957 33.736C47.7177 33.556 47.3077 33.37 46.8857 33.184C46.9981 32.7589 47.085 32.3275 47.1457 31.892C47.7997 31.82 48.9457 31.238 49.0837 31.162C49.2977 31.514 49.5037 31.86 49.6837 32.19C50.0837 32.878 50.4197 33.504 50.7037 34.046L51.0717 33.548C50.8017 33.062 50.4857 32.518 50.1277 31.926C49.9117 31.568 49.6737 31.188 49.4237 30.8C49.5497 30.688 50.5677 29.77 50.8237 29.184C51.0577 28.65 51.2097 27.906 50.9097 27.368C50.8444 27.2383 50.7524 27.1238 50.6398 27.032C50.5272 26.9403 50.3965 26.8733 50.2562 26.8356C50.1159 26.7978 49.9693 26.7901 49.8258 26.8129C49.6824 26.8357 49.5453 26.8886 49.4237 26.968C48.7077 27.468 48.7097 29.042 48.9397 29.788C48.9517 29.832 49.1517 30.292 49.2817 30.588C49.1797 30.43 49.0817 30.276 48.9737 30.116C48.7737 29.794 48.5437 29.48 48.3097 29.142L47.9477 28.66C47.8317 28.496 47.6857 28.338 47.5477 28.174C47.2337 27.802 46.8997 27.442 46.5477 27.084C46.8277 26.9 47.8137 26.228 48.1277 25.734C48.4417 25.24 48.7037 24.534 48.4877 23.954C48.4419 23.8164 48.3676 23.69 48.2697 23.583C48.1718 23.4759 48.0525 23.3907 47.9195 23.3328C47.7866 23.2749 47.6429 23.2456 47.4979 23.2468C47.3528 23.2481 47.2097 23.2798 47.0777 23.34C46.2957 23.726 46.0597 25.282 46.1717 26.054C46.1717 26.102 46.3217 26.654 46.4077 26.944C46.1977 26.732 45.9897 26.518 45.7717 26.31C45.1397 25.71 44.4817 25.11 43.8277 24.528L43.2277 23.982C43.3277 23.918 44.5157 23.144 44.8697 22.592C45.1817 22.102 45.4437 21.392 45.2297 20.81C45.1835 20.6738 45.1094 20.5488 45.0121 20.4429C44.9148 20.3371 44.7965 20.2526 44.6648 20.195C44.533 20.1374 44.3907 20.108 44.2469 20.1085C44.1032 20.109 43.9611 20.1395 43.8297 20.198C43.0457 20.584 42.8097 22.14 42.9237 22.912C42.9237 22.97 43.1397 23.752 43.2017 23.948C42.7637 23.548 42.3337 23.148 41.9237 22.728C41.3779 22.1653 40.8688 21.5681 40.3997 20.94C40.4457 20.91 41.6897 20.108 42.0517 19.54C42.3637 19.05 42.6257 18.34 42.4117 17.76C42.3657 17.6237 42.2917 17.4984 42.1945 17.3923C42.0974 17.2862 41.9791 17.2016 41.8473 17.1438C41.7156 17.086 41.5732 17.0563 41.4293 17.0567C41.2854 17.0571 41.1432 17.0875 41.0117 17.146C40.2277 17.532 39.9937 19.088 40.1057 19.86C40.1057 19.92 40.3377 20.762 40.3897 20.912C40.3617 20.876 40.3297 20.842 40.3017 20.804C39.8422 20.1636 39.4406 19.4836 39.1017 18.772C38.9017 18.372 38.7437 17.996 38.5937 17.62C38.8397 17.494 39.9617 16.908 40.3437 16.434C40.7257 15.96 41.0477 15.302 40.8977 14.704C40.8674 14.5621 40.8076 14.4283 40.722 14.3111C40.6365 14.1939 40.5272 14.0961 40.4014 14.024C40.2755 13.9519 40.1358 13.9072 39.9915 13.8927C39.8472 13.8782 39.7014 13.8944 39.5637 13.94C38.7417 14.236 38.3377 15.758 38.3637 16.54C38.3637 16.582 38.4277 17.01 38.4777 17.322C38.4117 17.15 38.3417 16.976 38.2777 16.81C38.0537 16.188 37.8777 15.61 37.7417 15.09C37.6637 14.796 37.5957 14.528 37.5417 14.276C37.7197 14.026 38.4257 13.012 38.5417 12.426C38.6577 11.84 38.6437 11.096 38.2357 10.626C38.1433 10.5143 38.0285 10.4233 37.8986 10.3588C37.7688 10.2944 37.6268 10.2579 37.482 10.2519C37.3371 10.2459 37.1926 10.2703 37.0579 10.3238C36.9231 10.3772 36.8011 10.4584 36.6997 10.562C36.0997 11.204 36.4497 12.74 36.8317 13.42C36.8657 13.478 37.4897 14.336 37.4977 14.324L37.5097 14.308C37.5617 14.552 37.6197 14.81 37.6897 15.094C37.8217 15.616 37.9777 16.202 38.1897 16.83C38.4101 17.5112 38.6699 18.179 38.9677 18.83C39.299 19.5586 39.6939 20.2567 40.1477 20.916L40.1657 20.938C39.9657 20.782 39.3817 20.366 39.3337 20.338C38.6517 19.96 37.1137 19.626 36.4757 20.22C36.3724 20.3218 36.2917 20.4441 36.2388 20.5791C36.1859 20.7141 36.1619 20.8587 36.1685 21.0036C36.1751 21.1484 36.2121 21.2903 36.2771 21.4199C36.3421 21.5495 36.4336 21.664 36.5457 21.756C37.0097 22.156 37.7697 22.17 38.3457 22.052C38.9877 21.92 40.1457 21.08 40.2297 21.012C40.7084 21.6711 41.2309 22.2971 41.7937 22.886C42.1177 23.232 42.4577 23.568 42.7937 23.902C42.6137 23.774 42.4517 23.66 42.4277 23.646C41.7457 23.266 40.2077 22.932 39.5697 23.528C39.4664 23.6298 39.3857 23.7521 39.3328 23.8871C39.2799 24.0221 39.2559 24.1667 39.2625 24.3116C39.2691 24.4564 39.3061 24.5983 39.3711 24.7279C39.4361 24.8575 39.5276 24.972 39.6397 25.064C40.1037 25.464 40.8637 25.478 41.4397 25.36C42.0157 25.242 43.0117 24.544 43.2737 24.36L43.6737 24.74C44.3157 25.34 44.9577 25.94 45.5697 26.558C45.7877 26.772 45.9917 26.992 46.1977 27.21C46.0377 27.096 45.9017 27 45.8797 26.988C45.1997 26.608 43.6597 26.276 43.0217 26.87C42.9186 26.9719 42.838 27.0944 42.7852 27.2295C42.7325 27.3645 42.7087 27.5092 42.7155 27.654C42.7223 27.7989 42.7595 27.9407 42.8246 28.0702C42.8898 28.1998 42.9815 28.3142 43.0937 28.406C43.5557 28.806 44.3157 28.82 44.8937 28.702C45.4717 28.584 46.3697 27.954 46.6797 27.732C46.8797 27.962 47.0797 28.192 47.2797 28.426C47.4037 28.586 47.5357 28.734 47.6517 28.904L48.0017 29.394C48.2137 29.714 48.4337 30.042 48.6317 30.36C48.7717 30.58 48.9017 30.792 49.0317 31.004C48.8197 30.788 48.3937 30.374 48.3557 30.342C47.7978 29.9426 47.1474 29.6921 46.4657 29.614C46.4036 29.5652 46.3366 29.5229 46.2657 29.488C46.1393 29.4171 45.9993 29.3735 45.8549 29.3602C45.7105 29.3469 45.565 29.3641 45.4277 29.4107C45.2904 29.4572 45.1644 29.5322 45.0579 29.6306C44.9515 29.729 44.8669 29.8488 44.8097 29.982C44.4877 30.794 45.3597 32.104 45.9617 32.6C45.9977 32.63 46.4177 32.904 46.6857 33.072C46.5137 32.998 46.3457 32.922 46.1677 32.848C45.8157 32.696 45.4577 32.556 45.0757 32.404L44.5077 32.204C44.3197 32.132 44.1077 32.08 43.9077 32.016C43.4417 31.88 42.9617 31.762 42.4777 31.656C42.6097 31.346 43.0597 30.242 43.0497 29.656C43.0397 29.07 42.8657 28.334 42.3677 27.972C42.2536 27.8827 42.1219 27.8183 41.9813 27.7831C41.8407 27.748 41.6943 27.7428 41.5515 27.7678C41.4087 27.7929 41.2728 27.8477 41.1526 27.9287C41.0324 28.0097 40.9306 28.1151 40.8537 28.238C40.4137 28.992 41.0757 30.42 41.5957 31C41.6277 31.038 42.0477 31.412 42.2817 31.614C41.9897 31.552 41.6997 31.488 41.4017 31.436C40.5437 31.282 39.6697 31.154 38.8017 31.02L38.0017 30.894C38.0497 30.786 38.6137 29.484 38.6017 28.83C38.5917 28.248 38.4177 27.508 37.9197 27.146C37.8056 27.0567 37.6739 26.9923 37.5333 26.9571C37.3927 26.922 37.2462 26.9168 37.1035 26.9418C36.9607 26.9669 36.8248 27.0217 36.7046 27.1027C36.5844 27.1837 36.4826 27.2891 36.4057 27.412C35.9657 28.166 36.6277 29.594 37.1457 30.176C37.1857 30.218 37.7897 30.758 37.9457 30.888C37.3597 30.794 36.7777 30.688 36.2057 30.574C35.4351 30.4144 34.6755 30.2053 33.9317 29.948C33.9537 29.898 34.5497 28.548 34.5317 27.872C34.5217 27.29 34.3477 26.55 33.8497 26.188C33.7356 26.0987 33.6039 26.0343 33.4633 25.9991C33.3227 25.964 33.1763 25.9588 33.0335 25.9838C32.8907 26.0089 32.7548 26.0637 32.6346 26.1447C32.5144 26.2257 32.4126 26.3311 32.3357 26.454C31.8957 27.208 32.5577 28.636 33.0777 29.218C33.1177 29.262 33.7697 29.842 33.8937 29.938C33.8517 29.924 33.8057 29.912 33.7617 29.896C33.0226 29.6173 32.3098 29.2732 31.6317 28.868C31.2557 28.65 30.9077 28.418 30.5737 28.188C30.7097 27.946 31.3237 26.838 31.3737 26.234C31.4237 25.63 31.3357 24.9 30.8817 24.484C30.7779 24.3826 30.654 24.3042 30.5179 24.2538C30.3819 24.2033 30.2367 24.182 30.0919 24.1913C29.9471 24.2005 29.8059 24.2401 29.6773 24.3074C29.5488 24.3747 29.4358 24.4683 29.3457 24.582C28.8257 25.284 29.3277 26.782 29.7797 27.41C29.8037 27.446 30.0937 27.768 30.3077 28.01C30.1577 27.904 30.0017 27.796 29.8617 27.69C29.3317 27.29 28.8717 26.904 28.4617 26.552C28.2337 26.352 28.0297 26.162 27.8417 25.986C27.8537 25.68 27.8817 24.444 27.6577 23.89C27.4337 23.336 27.0097 22.724 26.4137 22.566C26.2746 22.5239 26.1282 22.5116 25.9841 22.5299C25.8399 22.5482 25.7012 22.5966 25.5771 22.6721C25.4529 22.7476 25.346 22.8484 25.2634 22.968C25.1808 23.0875 25.1244 23.2232 25.0977 23.366C24.9577 24.228 26.0977 25.322 26.7857 25.676C26.8457 25.706 27.8377 26.076 27.8397 26.062V26.044C28.0177 26.218 28.2097 26.402 28.4237 26.6C28.8237 26.96 29.2757 27.366 29.7997 27.772C30.3581 28.2176 30.9425 28.6297 31.5497 29.006C32.2274 29.4312 32.9416 29.7953 33.6837 30.094L33.7097 30.104C33.4557 30.084 32.7397 30.058 32.6857 30.062C31.9077 30.122 30.4397 30.692 30.2357 31.54C30.2058 31.6818 30.206 31.8284 30.2364 31.9701C30.2668 32.1119 30.3267 32.2457 30.4121 32.3628C30.4975 32.4799 30.6066 32.5778 30.7323 32.65C30.858 32.7222 30.9975 32.7672 31.1417 32.782C31.7537 32.848 32.3997 32.436 32.7997 32.022Z" fill="#92E3A9"/>
<path d="M38.4196 17.552C38.4336 17.552 37.7676 16.722 37.7196 16.676C37.1636 16.13 35.7676 15.4 34.9996 15.8C34.8731 15.8708 34.7629 15.9676 34.6762 16.0839C34.5895 16.2002 34.5283 16.3334 34.4966 16.475C34.4649 16.6165 34.4634 16.7631 34.4922 16.9053C34.521 17.0474 34.5794 17.1819 34.6636 17.3C35.0016 17.814 35.7316 18.024 36.3136 18.06C36.9996 18.11 38.4176 17.554 38.4196 17.552Z" fill="#92E3A9"/>
<g opacity="0.1">
<path d="M14.9496 36.946C14.9776 36.732 14.7296 36.498 14.7296 36.278C14.7296 36.058 14.9776 35.822 14.9496 35.61C14.9216 35.398 14.6216 35.228 14.5656 35.01C14.5096 34.792 14.6876 34.508 14.6036 34.308C14.5196 34.108 14.1896 34.026 14.0796 33.84C13.9696 33.654 14.0676 33.324 13.9356 33.152C13.8036 32.98 13.4616 32.988 13.3076 32.834C13.1536 32.68 13.1636 32.34 12.9896 32.206C12.8156 32.072 12.4916 32.17 12.3016 32.062C12.1116 31.954 12.0356 31.622 11.8336 31.538C11.6316 31.454 11.3436 31.632 11.1316 31.576C10.9196 31.52 10.7596 31.22 10.5416 31.192C10.3236 31.164 10.0956 31.412 9.87356 31.412C9.65156 31.412 9.41956 31.174 9.19956 31.2C8.97956 31.226 8.81956 31.528 8.61156 31.584C8.40356 31.64 8.10756 31.462 7.90756 31.546C7.70756 31.63 7.62756 31.96 7.43956 32.07C7.25156 32.18 6.92356 32.082 6.75156 32.214C6.57956 32.346 6.58756 32.688 6.43356 32.842C6.27956 32.996 5.93956 32.986 5.80756 33.16C5.67556 33.334 5.77156 33.658 5.66156 33.848C5.55156 34.038 5.22156 34.114 5.13756 34.316C5.05356 34.518 5.23356 34.806 5.17556 35.018C5.11756 35.23 4.82156 35.39 4.79156 35.618C4.76156 35.846 5.01156 36.066 5.01156 36.286C5.01156 36.506 4.76556 36.74 4.79156 36.954C4.81756 37.168 5.11956 37.334 5.17556 37.554C5.23156 37.774 5.05556 38.056 5.13756 38.256C5.21956 38.456 5.55356 38.536 5.66156 38.724C5.76956 38.912 5.67356 39.24 5.80756 39.412C5.94156 39.584 6.27956 39.576 6.43356 39.73C6.58756 39.884 6.57956 40.224 6.75156 40.358C6.92356 40.492 7.25156 40.394 7.43956 40.502C7.62756 40.61 7.70756 40.942 7.90956 41.026C8.11156 41.11 8.39956 40.932 8.61156 40.988C8.82356 41.044 8.98156 41.342 9.19956 41.372C9.41756 41.402 9.64756 41.152 9.86756 41.152C10.0876 41.152 10.3236 41.4 10.5356 41.372C10.7476 41.344 10.9176 41.044 11.1256 40.988C11.3336 40.932 11.6276 41.108 11.8276 41.026C12.0276 40.944 12.1096 40.61 12.2956 40.502C12.4816 40.394 12.8116 40.49 12.9836 40.356C13.1556 40.222 13.1476 39.884 13.3016 39.73C13.4556 39.576 13.7976 39.584 13.9296 39.412C14.0616 39.24 13.9656 38.914 14.0756 38.724C14.1856 38.534 14.5156 38.458 14.5976 38.256C14.6796 38.054 14.5036 37.764 14.5596 37.554C14.6156 37.344 14.9216 37.164 14.9496 36.946ZM9.87356 40.216C9.0947 40.216 8.33333 39.985 7.68573 39.5523C7.03813 39.1196 6.53338 38.5046 6.23532 37.785C5.93727 37.0654 5.85928 36.2736 6.01123 35.5097C6.16318 34.7458 6.53824 34.0442 7.08898 33.4934C7.63971 32.9427 8.3414 32.5676 9.1053 32.4157C9.86919 32.2637 10.661 32.3417 11.3806 32.6398C12.1001 32.9378 12.7152 33.4426 13.1479 34.0902C13.5806 34.7378 13.8116 35.4991 13.8116 36.278C13.811 37.3223 13.396 38.3236 12.6576 39.062C11.9192 39.8004 10.9178 40.2155 9.87356 40.216Z" fill="black"/>
<path d="M12.1011 38.5058C13.3313 37.2757 13.3313 35.2812 12.1011 34.0511C10.871 32.8209 8.87648 32.8209 7.64633 34.0511C6.41618 35.2812 6.41618 37.2757 7.64633 38.5058C8.87648 39.736 10.871 39.736 12.1011 38.5058Z" fill="black"/>
</g>
<g opacity="0.1">
<path d="M92.9494 35.47C92.9854 35.186 92.6554 34.87 92.6554 34.578C92.6554 34.286 92.9854 33.978 92.9494 33.686C92.9134 33.394 92.5114 33.178 92.4374 32.9C92.3634 32.622 92.5994 32.228 92.4874 31.962C92.3754 31.696 91.9334 31.586 91.7894 31.336C91.6454 31.086 91.7714 30.648 91.5894 30.418C91.4074 30.188 90.9574 30.2 90.7514 29.994C90.5454 29.788 90.5514 29.334 90.3274 29.156C90.1034 28.978 89.6614 29.108 89.4094 28.956C89.1574 28.804 89.0534 28.37 88.7834 28.258C88.5134 28.146 88.1294 28.384 87.8454 28.308C87.5614 28.232 87.3514 27.834 87.0594 27.796C86.7674 27.758 86.4594 28.09 86.1674 28.09C85.8754 28.09 85.5674 27.76 85.2754 27.796C84.9834 27.832 84.7674 28.234 84.4894 28.308C84.2114 28.382 83.8194 28.148 83.5514 28.258C83.2834 28.368 83.1774 28.812 82.9254 28.958C82.6734 29.104 82.2374 28.974 82.0074 29.158C81.7774 29.342 81.7994 29.788 81.5994 30C81.3994 30.212 80.9394 30.2 80.7634 30.424C80.5874 30.648 80.7154 31.09 80.5634 31.342C80.4114 31.594 79.9754 31.698 79.8634 31.968C79.7514 32.238 79.9914 32.622 79.9154 32.906C79.8394 33.19 79.4414 33.4 79.4034 33.692C79.3654 33.984 79.6954 34.292 79.6954 34.584C79.6954 34.876 79.3654 35.184 79.4034 35.476C79.4414 35.768 79.8414 35.984 79.9154 36.262C79.9894 36.54 79.7534 36.932 79.8634 37.2C79.9734 37.468 80.4174 37.574 80.5634 37.826C80.7094 38.078 80.5814 38.514 80.7634 38.744C80.9454 38.974 81.3954 38.962 81.5994 39.168C81.8034 39.374 81.7994 39.828 82.0234 40.004C82.2474 40.18 82.6894 40.052 82.9434 40.204C83.1974 40.356 83.2994 40.792 83.5694 40.904C83.8394 41.016 84.2234 40.778 84.5054 40.852C84.7874 40.926 85.0014 41.326 85.2914 41.364C85.5814 41.402 85.8914 41.072 86.1834 41.072C86.4754 41.072 86.7834 41.402 87.0754 41.364C87.3674 41.326 87.5834 40.926 87.8614 40.852C88.1394 40.778 88.5334 41.014 88.7994 40.904C89.0654 40.794 89.1754 40.35 89.4254 40.204C89.6754 40.058 90.1134 40.188 90.3434 40.004C90.5734 39.82 90.5614 39.372 90.7674 39.168C90.9734 38.964 91.4274 38.968 91.6054 38.744C91.7834 38.52 91.6534 38.078 91.8054 37.826C91.9574 37.574 92.3914 37.468 92.5034 37.2C92.6154 36.932 92.3774 36.544 92.4534 36.262C92.5294 35.98 92.9114 35.76 92.9494 35.47ZM86.1734 39.834C85.1339 39.834 84.1177 39.5257 83.2534 38.9482C82.389 38.3707 81.7153 37.5498 81.3175 36.5894C80.9197 35.629 80.8156 34.5722 81.0184 33.5526C81.2212 32.533 81.7218 31.5965 82.4569 30.8614C83.192 30.1264 84.1285 29.6258 85.148 29.423C86.1676 29.2202 87.2244 29.3243 88.1848 29.7221C89.1452 30.1199 89.9661 30.7936 90.5436 31.6579C91.1212 32.5223 91.4294 33.5385 91.4294 34.578C91.4289 35.9718 90.875 37.3084 89.8894 38.294C88.9038 39.2795 87.5673 39.8335 86.1734 39.834Z" fill="black"/>
<path d="M88.5955 37.5672C90.4529 36.1741 90.8294 33.539 89.4363 31.6816C88.0432 29.8242 85.4081 29.4477 83.5507 30.8408C81.6933 32.2339 81.3168 34.869 82.7099 36.7264C84.103 38.5838 86.7381 38.9603 88.5955 37.5672Z" fill="black"/>
</g>
<g opacity="0.1">
<path d="M81.9156 78.226C81.0454 78.226 80.1947 78.4841 79.4711 78.9675C78.7475 79.451 78.1836 80.1382 77.8506 80.9422C77.5175 81.7462 77.4304 82.6309 77.6002 83.4844C77.7699 84.3379 78.189 85.1219 78.8044 85.7373C79.4197 86.3526 80.2037 86.7717 81.0572 86.9415C81.9108 87.1112 82.7954 87.0241 83.5994 86.6911C84.4034 86.3581 85.0906 85.7941 85.5741 85.0705C86.0576 84.3469 86.3156 83.4963 86.3156 82.626C86.3156 81.4591 85.8521 80.3399 85.0269 79.5147C84.2017 78.6896 83.0826 78.226 81.9156 78.226ZM82.1996 85.678V86.142H81.6396V85.678C80.8796 85.574 80.5376 84.996 80.5376 84.166V83.8H81.1756V84.22C81.1756 84.77 81.4036 85.086 81.8936 85.086C82.3836 85.086 82.6116 84.77 82.6116 84.22C82.6116 82.856 80.5636 82.838 80.5636 81.114C80.5636 80.274 80.9056 79.724 81.6396 79.61V79.12H82.1996V79.6C82.9436 79.706 83.2836 80.282 83.2836 81.104V81.27H82.6456V81.06C82.6456 80.518 82.4276 80.186 81.9376 80.186C81.4476 80.186 81.2376 80.518 81.2376 81.06C81.2376 82.434 83.2936 82.442 83.2936 84.166C83.2936 84.988 82.9436 85.574 82.1996 85.678Z" fill="black"/>
<path d="M81.9158 75.426C80.4918 75.426 79.0998 75.8483 77.9157 76.6394C76.7317 77.4306 75.8088 78.5551 75.2639 79.8707C74.7189 81.1863 74.5764 82.634 74.8542 84.0307C75.132 85.4273 75.8177 86.7102 76.8247 87.7172C77.8316 88.7241 79.1145 89.4098 80.5112 89.6877C81.9078 89.9655 83.3555 89.8229 84.6711 89.2779C85.9868 88.733 87.1113 87.8101 87.9024 86.6261C88.6936 85.4421 89.1158 84.05 89.1158 82.626C89.1158 80.7165 88.3573 78.8851 87.007 77.5348C85.6567 76.1846 83.8254 75.426 81.9158 75.426ZM81.9158 88.026C80.8478 88.026 79.8038 87.7093 78.9157 87.1159C78.0277 86.5226 77.3356 85.6792 76.9269 84.6925C76.5182 83.7058 76.4112 82.62 76.6196 81.5725C76.8279 80.525 77.3422 79.5628 78.0974 78.8076C78.8527 78.0524 79.8148 77.5381 80.8623 77.3298C81.9098 77.1214 82.9956 77.2283 83.9823 77.6371C84.969 78.0458 85.8124 78.7379 86.4058 79.6259C86.9991 80.514 87.3158 81.558 87.3158 82.626C87.3158 84.0582 86.7469 85.4317 85.7342 86.4444C84.7215 87.4571 83.348 88.026 81.9158 88.026Z" fill="black"/>
</g>
<g opacity="0.1">
<path d="M64.9127 84.468C64.298 84.468 63.6971 84.6503 63.186 84.9918C62.6749 85.3333 62.2765 85.8187 62.0413 86.3866C61.806 86.9545 61.7445 87.5795 61.8644 88.1823C61.9843 88.7852 62.2803 89.339 62.715 89.7737C63.1497 90.2084 63.7035 90.5044 64.3064 90.6243C64.9092 90.7442 65.5342 90.6827 66.1021 90.4474C66.67 90.2122 67.1554 89.8138 67.4969 89.3027C67.8384 88.7916 68.0207 88.1907 68.0207 87.576C68.0207 87.1679 67.9403 86.7637 67.7841 86.3866C67.6279 86.0095 67.399 85.6669 67.1104 85.3783C66.8218 85.0897 66.4792 84.8608 66.1021 84.7046C65.725 84.5484 65.3208 84.468 64.9127 84.468ZM65.1127 89.732V90.06H64.7127V89.732C64.1747 89.658 63.9347 89.25 63.9347 88.662V88.4H64.3987V88.696C64.3987 89.084 64.5587 89.308 64.9047 89.308C65.2507 89.308 65.4127 89.084 65.4127 88.696C65.4127 87.732 63.9667 87.72 63.9667 86.496C63.9667 85.896 64.2067 85.514 64.7267 85.434V85.088H65.1267V85.434C65.6507 85.508 65.8927 85.916 65.8927 86.496V86.614H65.4407V86.466C65.4407 86.082 65.2867 85.848 64.9407 85.848C64.5947 85.848 64.4467 86.082 64.4467 86.466C64.4467 87.436 65.8987 87.442 65.8987 88.666C65.8867 89.244 65.6387 89.658 65.1147 89.732H65.1127Z" fill="black"/>
<path d="M64.9132 82.49C63.9072 82.49 62.9239 82.7883 62.0875 83.3471C61.2511 83.906 60.5992 84.7003 60.2143 85.6297C59.8294 86.559 59.7286 87.5816 59.9249 88.5682C60.1211 89.5548 60.6055 90.4611 61.3168 91.1723C62.0281 91.8836 62.9343 92.368 63.9209 92.5643C64.9075 92.7605 65.9301 92.6598 66.8595 92.2749C67.7888 91.8899 68.5831 91.238 69.142 90.4016C69.7009 89.5652 69.9992 88.5819 69.9992 87.576C69.9992 86.2271 69.4633 84.9335 68.5095 83.9797C67.5557 83.0258 66.262 82.49 64.9132 82.49ZM64.9132 91.39C64.1588 91.39 63.4214 91.1663 62.7942 90.7472C62.167 90.3281 61.6781 89.7325 61.3895 89.0356C61.1008 88.3386 61.0253 87.5718 61.1724 86.8319C61.3196 86.0921 61.6828 85.4125 62.2162 84.8791C62.7496 84.3457 63.4292 83.9825 64.1691 83.8353C64.9089 83.6881 65.6758 83.7637 66.3727 84.0523C67.0696 84.341 67.6653 84.8298 68.0844 85.4571C68.5035 86.0843 68.7272 86.8217 68.7272 87.576C68.7285 88.0777 68.6308 88.5747 68.4397 89.0386C68.2486 89.5025 67.9679 89.9242 67.6136 90.2794C67.2593 90.6346 66.8384 90.9164 66.375 91.1087C65.9116 91.301 65.4149 91.4 64.9132 91.4V91.39Z" fill="black"/>
</g>
<g opacity="0.1">
<path d="M59.5416 73.67C58.9269 73.67 58.326 73.8523 57.8149 74.1938C57.3038 74.5353 56.9054 75.0207 56.6702 75.5886C56.4349 76.1565 56.3734 76.7814 56.4933 77.3843C56.6132 77.9872 56.9092 78.541 57.3439 78.9757C57.7786 79.4103 58.3324 79.7064 58.9353 79.8263C59.5381 79.9462 60.1631 79.8847 60.731 79.6494C61.2989 79.4142 61.7843 79.0158 62.1258 78.5047C62.4673 77.9936 62.6496 77.3927 62.6496 76.778C62.6499 76.3698 62.5696 75.9655 62.4135 75.5883C62.2574 75.2111 62.0285 74.8684 61.7399 74.5797C61.4512 74.2911 61.1085 74.0621 60.7313 73.906C60.3541 73.7499 59.9498 73.6697 59.5416 73.67ZM59.7416 78.934V79.26H59.3416V78.934C58.8056 78.86 58.5636 78.452 58.5636 77.864V77.6H59.0156V77.896C59.0156 78.284 59.1756 78.508 59.5216 78.508C59.8676 78.508 60.0276 78.284 60.0276 77.896C60.0276 76.932 58.5816 76.92 58.5816 75.696C58.5816 75.096 58.8236 74.714 59.3416 74.634V74.288H59.7416V74.634C60.2676 74.708 60.5076 75.116 60.5076 75.696V75.814H60.0576V75.666C60.0576 75.282 59.9016 75.048 59.5556 75.048C59.2096 75.048 59.0616 75.282 59.0616 75.666C59.0616 76.636 60.5136 76.642 60.5136 77.866C60.5136 78.446 60.2676 78.86 59.7416 78.934Z" fill="black"/>
<path d="M59.5411 71.692C58.5351 71.6916 57.5516 71.9896 56.715 72.5482C55.8783 73.1068 55.2261 73.901 54.8409 74.8303C54.4556 75.7596 54.3546 76.7823 54.5506 77.769C54.7466 78.7557 55.2309 79.6622 55.9421 80.3736C56.6533 81.0851 57.5595 81.5697 58.5462 81.7661C59.5328 81.9625 60.5555 81.8619 61.485 81.477C62.4145 81.0922 63.2089 80.4403 63.7678 79.6038C64.3268 78.7674 64.6251 77.784 64.6251 76.778C64.6254 76.1102 64.4941 75.4489 64.2387 74.8318C63.9833 74.2148 63.6089 73.6541 63.1368 73.1818C62.6646 72.7095 62.1041 72.3348 61.4872 72.0792C60.8702 71.8236 60.2089 71.692 59.5411 71.692ZM59.5411 80.592C58.7868 80.592 58.0494 80.3683 57.4222 79.9492C56.795 79.5301 56.3061 78.9345 56.0174 78.2376C55.7288 77.5406 55.6533 76.7738 55.8004 76.0339C55.9476 75.2941 56.3108 74.6145 56.8442 74.0811C57.3776 73.5477 58.0572 73.1845 58.7971 73.0373C59.5369 72.8901 60.3038 72.9657 61.0007 73.2543C61.6976 73.543 62.2933 74.0319 62.7124 74.6591C63.1314 75.2863 63.3551 76.0237 63.3551 76.778C63.3562 77.2795 63.2583 77.7764 63.0671 78.24C62.8759 78.7037 62.5951 79.1251 62.2409 79.4801C61.8866 79.8351 61.4658 80.1167 61.0025 80.3089C60.5393 80.5011 60.0427 80.6 59.5411 80.6V80.592Z" fill="black"/>
</g>
<path opacity="0.1" d="M17.1553 14.806H20.0973L18.6253 12.26L17.1553 14.806Z" fill="black"/>
<path opacity="0.1" d="M11.3818 14.806H14.3238L12.8538 12.26L11.3818 14.806Z" fill="black"/>
<path opacity="0.1" d="M15.7396 8.93401C14.6075 8.93401 13.5009 9.26971 12.5595 9.89867C11.6182 10.5276 10.8846 11.4216 10.4513 12.4675C10.0181 13.5135 9.90475 14.6644 10.1256 15.7747C10.3465 16.885 10.8916 17.905 11.6921 18.7055C12.4927 19.506 13.5126 20.0512 14.6229 20.272C15.7333 20.4929 16.8842 20.3795 17.9301 19.9463C18.976 19.5131 19.87 18.7794 20.499 17.8381C21.1279 16.8968 21.4636 15.7901 21.4636 14.658C21.462 13.1404 20.8585 11.6854 19.7854 10.6123C18.7122 9.53917 17.2572 8.93559 15.7396 8.93401ZM19.7876 15.6H17.4656C17.3523 15.6 17.241 15.5702 17.1429 15.5136C17.0447 15.457 16.9632 15.3756 16.9065 15.2775C16.8498 15.1794 16.8198 15.0682 16.8197 14.9549C16.8195 14.8416 16.8492 14.7302 16.9056 14.632L18.5856 11.72H16.1356V17.28H17.0436V17.754H18.3096V18.42H13.3276V17.754H14.4336V17.28H15.5996V11.71H12.8936L14.5736 14.622C14.6326 14.7205 14.6643 14.8329 14.6655 14.9476C14.6666 15.0624 14.6371 15.1754 14.5801 15.275C14.5231 15.3746 14.4405 15.4573 14.3409 15.5144C14.2414 15.5715 14.1284 15.601 14.0136 15.6H11.6916C11.5783 15.6 11.467 15.5702 11.3689 15.5136C11.2707 15.457 11.1892 15.3756 11.1325 15.2775C11.0758 15.1794 11.0458 15.0682 11.0457 14.9549C11.0455 14.8416 11.0752 14.7302 11.1316 14.632L12.8116 11.72H12.7436C12.6758 11.7142 12.6126 11.6831 12.5665 11.6329C12.5205 11.5827 12.4949 11.5171 12.4949 11.449C12.4949 11.3809 12.5205 11.3153 12.5665 11.2651C12.6126 11.2149 12.6758 11.1838 12.7436 11.178H15.5996C15.6055 11.1102 15.6365 11.047 15.6867 11.0009C15.7369 10.9549 15.8025 10.9293 15.8706 10.9293C15.9387 10.9293 16.0044 10.9549 16.0545 11.0009C16.1047 11.047 16.1358 11.1102 16.1416 11.178H18.9836C19.0212 11.1748 19.059 11.1794 19.0947 11.1915C19.1303 11.2037 19.1631 11.2231 19.1908 11.2486C19.2186 11.2741 19.2408 11.3051 19.2559 11.3396C19.2711 11.374 19.2789 11.4113 19.2789 11.449C19.2789 11.4867 19.2711 11.524 19.2559 11.5585C19.2408 11.593 19.2186 11.6239 19.1908 11.6494C19.1631 11.6749 19.1303 11.6943 19.0947 11.7065C19.059 11.7186 19.0212 11.7232 18.9836 11.72H18.6656L20.3476 14.632C20.4041 14.7302 20.4337 14.8416 20.4336 14.9549C20.4334 15.0682 20.4035 15.1794 20.3468 15.2775C20.29 15.3756 20.2085 15.457 20.1104 15.5136C20.0122 15.5702 19.9009 15.6 19.7876 15.6Z" fill="black"/>
<path opacity="0.1" d="M15.7395 8.104C14.4433 8.104 13.1761 8.48839 12.0983 9.20855C11.0205 9.92871 10.1805 10.9523 9.68444 12.1499C9.18839 13.3475 9.0586 14.6653 9.31148 15.9366C9.56437 17.208 10.1886 18.3758 11.1052 19.2924C12.0218 20.209 13.1896 20.8332 14.4609 21.0861C15.7323 21.339 17.0501 21.2092 18.2477 20.7131C19.4452 20.2171 20.4688 19.377 21.189 18.2992C21.9092 17.2214 22.2936 15.9543 22.2936 14.658C22.2936 12.9198 21.603 11.2527 20.3739 10.0236C19.1448 8.79451 17.4778 8.104 15.7395 8.104ZM15.7395 20.582C14.5679 20.582 13.4225 20.2346 12.4484 19.5836C11.4742 18.9327 10.7149 18.0075 10.2665 16.925C9.81811 15.8426 9.7008 14.6514 9.92938 13.5023C10.158 12.3531 10.7222 11.2976 11.5506 10.4691C12.3791 9.64062 13.4347 9.07641 14.5838 8.84783C15.733 8.61925 16.9241 8.73657 18.0066 9.18494C19.089 9.63331 20.0142 10.3926 20.6652 11.3668C21.3161 12.341 21.6636 13.4863 21.6636 14.658C21.6614 16.2285 21.0366 17.7341 19.9261 18.8446C18.8156 19.9551 17.31 20.5799 15.7395 20.582Z" fill="black"/>
<path opacity="0.1" d="M21.5215 81.898H24.4635L22.9935 79.35L21.5215 81.898Z" fill="black"/>
<path opacity="0.1" d="M15.75 81.898H18.692L17.22 79.35L15.75 81.898Z" fill="black"/>
<path opacity="0.1" d="M20.1058 76.026C18.9737 76.026 17.8669 76.3618 16.9255 76.9908C15.9842 77.6199 15.2505 78.5139 14.8174 79.56C14.3842 80.606 14.2709 81.757 14.492 82.8674C14.713 83.9778 15.2584 84.9978 16.0591 85.7982C16.8598 86.5986 17.8799 87.1436 18.9904 87.3643C20.1008 87.5849 21.2518 87.4713 22.2977 87.0377C23.3436 86.6042 24.2374 85.8702 24.8661 84.9286C25.4949 83.9871 25.8302 82.8802 25.8298 81.748C25.8282 80.2306 25.2246 78.7758 24.1514 77.703C23.0783 76.6302 21.6233 76.0271 20.1058 76.026ZM24.1558 82.68H21.8318C21.7185 82.6803 21.6071 82.6506 21.5088 82.594C21.4106 82.5374 21.3291 82.4558 21.2725 82.3576C21.2158 82.2594 21.1862 82.148 21.1864 82.0346C21.1866 81.9213 21.2168 81.81 21.2738 81.712L22.9538 78.802H20.5038V84.37H21.4118V84.844H22.6778V85.51H17.6938V84.844H18.7998V84.37H19.9598V78.8H17.2598L18.9398 81.71C18.9969 81.808 19.027 81.9193 19.0273 82.0326C19.0275 82.146 18.9978 82.2574 18.9412 82.3556C18.8846 82.4538 18.8031 82.5354 18.7048 82.592C18.6066 82.6486 18.4952 82.6783 18.3818 82.678H16.0578C15.9445 82.6783 15.8331 82.6486 15.7348 82.592C15.6366 82.5354 15.5551 82.4538 15.4985 82.3556C15.4418 82.2574 15.4122 82.146 15.4124 82.0326C15.4126 81.9193 15.4428 81.808 15.4998 81.71L17.1798 78.8H17.1118C17.0397 78.8 16.9705 78.7713 16.9195 78.7203C16.8685 78.6693 16.8398 78.6001 16.8398 78.528C16.8398 78.4559 16.8685 78.3867 16.9195 78.3357C16.9705 78.2847 17.0397 78.256 17.1118 78.256H19.9598C19.9598 78.1839 19.9885 78.1147 20.0395 78.0637C20.0905 78.0127 20.1597 77.984 20.2318 77.984C20.304 77.984 20.3732 78.0127 20.4242 78.0637C20.4752 78.1147 20.5038 78.1839 20.5038 78.256H23.3518C23.424 78.256 23.4932 78.2847 23.5442 78.3357C23.5952 78.3867 23.6238 78.4559 23.6238 78.528C23.6238 78.6001 23.5952 78.6693 23.5442 78.7203C23.4932 78.7713 23.424 78.8 23.3518 78.8H23.0338L24.7138 81.71C24.7707 81.8081 24.8008 81.9195 24.801 82.0329C24.8012 82.1463 24.7715 82.2578 24.7149 82.3561C24.6584 82.4544 24.5769 82.5361 24.4788 82.593C24.3806 82.6498 24.2693 82.6798 24.1558 82.68Z" fill="black"/>
<path opacity="0.1" d="M20.1058 75.2C18.8095 75.2 17.5424 75.5844 16.4646 76.3046C15.3868 77.0247 14.5467 78.0483 14.0507 79.2459C13.5546 80.4435 13.4248 81.7613 13.6777 83.0326C13.9306 84.304 14.5548 85.4718 15.4714 86.3884C16.388 87.305 17.5558 87.9292 18.8271 88.1821C20.0985 88.435 21.4163 88.3052 22.6139 87.8091C23.8115 87.3131 24.8351 86.473 25.5552 85.3952C26.2754 84.3174 26.6598 83.0503 26.6598 81.754C26.6598 80.0158 25.9693 78.3487 24.7401 77.1196C23.511 75.8905 21.844 75.2 20.1058 75.2ZM20.1058 87.678C18.9341 87.678 17.7888 87.3306 16.8146 86.6796C15.8404 86.0287 15.0811 85.1035 14.6327 84.021C14.1843 82.9386 14.067 81.7474 14.2956 80.5983C14.5242 79.4492 15.0884 78.3936 15.9169 77.5651C16.7453 76.7366 17.8009 76.1724 18.95 75.9438C20.0992 75.7153 21.2903 75.8326 22.3728 76.281C23.4552 76.7293 24.3804 77.4886 25.0314 78.4628C25.6823 79.437 26.0298 80.5824 26.0298 81.754C26.0266 83.3236 25.4012 84.828 24.2908 85.9373C23.1803 87.0466 21.6754 87.6704 20.1058 87.672V87.678Z" fill="black"/>
<path d="M49.1998 97.8C72.0644 97.8 90.5998 97.0837 90.5998 96.2C90.5998 95.3164 72.0644 94.6 49.1998 94.6C26.3352 94.6 7.7998 95.3164 7.7998 96.2C7.7998 97.0837 26.3352 97.8 49.1998 97.8Z" fill="#263238"/>
<path d="M78.4964 55.734C79.6784 55.954 80.9684 55.196 81.6964 53.978C82.2504 53.064 82.4444 52.162 82.6704 51.128C82.9244 50 91.7084 9.162 91.8004 8.758H47.3124L38.2564 50.84L37.8884 52.538C37.812 52.8914 37.6768 53.2294 37.4884 53.538L37.2204 53.984C36.9371 54.4528 36.5309 54.8351 36.0459 55.0894C35.5608 55.3438 35.0154 55.4605 34.4687 55.4269C33.922 55.3933 33.395 55.2107 32.9447 54.8989C32.4944 54.5871 32.1381 54.1579 31.9144 53.658C31.5454 52.8321 30.9484 52.1288 30.1933 51.6306C29.4383 51.1325 28.5568 50.8603 27.6524 50.846H27.4864C26.4339 50.8658 25.4178 51.234 24.597 51.8931C23.7762 52.5521 23.1971 53.4647 22.9504 54.488L19.2764 69.732H63.7584L67.1344 55.732" fill="white"/>
<path d="M78.4964 55.734C79.6784 55.954 80.9684 55.196 81.6964 53.978C82.2504 53.064 82.4444 52.162 82.6704 51.128C82.9244 50 91.7084 9.162 91.8004 8.758H47.3124L38.2564 50.84L37.8884 52.538C37.812 52.8914 37.6768 53.2294 37.4884 53.538L37.2204 53.984C36.9371 54.4528 36.5309 54.8351 36.0459 55.0894C35.5608 55.3438 35.0154 55.4605 34.4687 55.4269C33.922 55.3933 33.395 55.2107 32.9447 54.8989C32.4944 54.5871 32.1381 54.1579 31.9144 53.658C31.5454 52.8321 30.9484 52.1288 30.1933 51.6306C29.4383 51.1325 28.5568 50.8603 27.6524 50.846H27.4864C26.4339 50.8658 25.4178 51.234 24.597 51.8931C23.7762 52.5521 23.1971 53.4647 22.9504 54.488L19.2764 69.732H63.7584L67.1344 55.732" stroke="#263238" stroke-width="0.5" stroke-linecap="round" stroke-linejoin="round"/>
<path d="M61.4002 13.508L61.3362 13.844H60.9362L61.0042 13.486C61.0702 13.15 60.9762 12.948 60.6702 12.948C60.3642 12.948 60.1942 13.148 60.1282 13.486L59.7482 15.464C59.6822 15.8 59.7822 16.002 60.0822 16.002C60.3822 16.002 60.5602 15.802 60.6242 15.464L60.7182 14.978H61.1182L61.0302 15.442C60.9202 16.008 60.5802 16.382 60.0042 16.382C59.4282 16.382 59.2382 16.008 59.3462 15.442L59.7202 13.508C59.8282 12.942 60.1682 12.568 60.7402 12.568C61.3122 12.568 61.5002 12.942 61.4002 13.508Z" fill="#263238"/>
<path d="M61.7386 13.508C61.8486 12.936 62.2026 12.568 62.7746 12.568C63.3466 12.568 63.5626 12.936 63.4526 13.508L63.0806 15.442C62.9706 16.008 62.6166 16.382 62.0386 16.382C61.4606 16.382 61.2566 16.008 61.3646 15.442L61.7386 13.508ZM61.7726 15.464C61.7066 15.806 61.8126 16.002 62.1126 16.002C62.4126 16.002 62.5926 15.802 62.6586 15.464L63.0406 13.486C63.1046 13.15 63.0046 12.948 62.7006 12.948C62.3966 12.948 62.2186 13.148 62.1546 13.486L61.7726 15.464Z" fill="#263238"/>
<path d="M63.6699 16.344H63.2959L64.0159 12.6H64.5459L64.8899 15.302L65.4119 12.6H65.7799L65.0579 16.338H64.6259L64.2519 13.316L63.6699 16.344Z" fill="#263238"/>
<path d="M66.0264 16.344L66.6744 12.984H65.9844L66.0584 12.606H67.8484L67.7744 12.984H67.0864L66.4384 16.344H66.0264Z" fill="#263238"/>
<path d="M68.9639 12.6C69.5519 12.6 69.7399 12.898 69.6339 13.454L69.5739 13.758C69.4959 14.17 69.3019 14.426 68.9619 14.528C69.2839 14.63 69.3619 14.908 69.2819 15.308L69.1679 15.89C69.1292 16.0368 69.1292 16.1912 69.1679 16.338H68.7439C68.7136 16.1873 68.7205 16.0315 68.7639 15.884L68.8759 15.298C68.9579 14.874 68.7859 14.742 68.4379 14.742H68.1439L67.8359 16.342H67.4199L68.1299 12.6H68.9639ZM68.5179 14.362C68.5933 14.3729 68.6701 14.3681 68.7436 14.3478C68.817 14.3275 68.8854 14.2921 68.9444 14.244C69.0034 14.1958 69.0518 14.136 69.0865 14.0682C69.1212 14.0003 69.1414 13.9261 69.1459 13.85L69.2139 13.492C69.2799 13.154 69.1899 12.978 68.8799 12.978H68.4799L68.1999 14.368L68.5179 14.362Z" fill="#263238"/>
<path d="M70.0824 15.6L69.8004 16.344H69.4004L70.8464 12.6H71.4464V16.338H71.0304V15.6H70.0824ZM70.2044 15.242H71.0384V13.084L70.2044 15.242Z" fill="#263238"/>
<path d="M73.9624 13.508L73.8984 13.844H73.4984L73.5684 13.486C73.6324 13.15 73.5384 12.948 73.2344 12.948C72.9304 12.948 72.7564 13.148 72.6924 13.486L72.3104 15.464C72.2464 15.8 72.3444 16.002 72.6444 16.002C72.9444 16.002 73.1224 15.802 73.1864 15.464L73.2804 14.978H73.6804L73.6004 15.442C73.4904 16.008 73.1524 16.382 72.5744 16.382C71.9964 16.382 71.8004 16 71.9064 15.442L72.2804 13.508C72.3884 12.942 72.7284 12.568 73.3004 12.568C73.8724 12.568 74.0724 12.942 73.9624 13.508Z" fill="#263238"/>
<path d="M74.3339 16.344L74.9819 12.984H74.2939L74.3659 12.606H76.1559L76.0839 12.984H75.3999L74.7519 16.344H74.3339Z" fill="#263238"/>
<path d="M48.458 18.172H87.696" stroke="#263238" stroke-width="0.5" stroke-miterlimit="10"/>
<path d="M77.2588 22.52H86.4408" stroke="#263238" stroke-width="0.5" stroke-miterlimit="10"/>
<path d="M62.8584 22.52H76.2924" stroke="#263238" stroke-width="0.5" stroke-miterlimit="10"/>
<path d="M53.8701 22.52H62.0861" stroke="#263238" stroke-width="0.5" stroke-miterlimit="10"/>
<path d="M47.2021 22.52H53.0981" stroke="#263238" stroke-width="0.5" stroke-miterlimit="10"/>
<path d="M76.0986 24.742H85.9566" stroke="#263238" stroke-width="0.5" stroke-miterlimit="10"/>
<path d="M53.7744 24.742H75.1324" stroke="#263238" stroke-width="0.5" stroke-miterlimit="10"/>
<path d="M46.7207 24.742H52.9047" stroke="#263238" stroke-width="0.5" stroke-miterlimit="10"/>
<path d="M74.0703 26.966H85.4743" stroke="#263238" stroke-width="0.5" stroke-miterlimit="10"/>
<path d="M56.9648 26.966H73.2968" stroke="#263238" stroke-width="0.5" stroke-miterlimit="10"/>
<path d="M46.2363 26.966H56.1903" stroke="#263238" stroke-width="0.5" stroke-miterlimit="10"/>
<path d="M77.8379 29.188H84.9899" stroke="#263238" stroke-width="0.5" stroke-miterlimit="10"/>
<path d="M66.918 29.188H76.872" stroke="#263238" stroke-width="0.5" stroke-miterlimit="10"/>
<path d="M56.3848 29.188H65.9528" stroke="#263238" stroke-width="0.5" stroke-miterlimit="10"/>
<path d="M48.458 29.188H55.514" stroke="#263238" stroke-width="0.5" stroke-miterlimit="10"/>
<path d="M45.752 29.188H47.588" stroke="#263238" stroke-width="0.5" stroke-miterlimit="10"/>
<path d="M82.8643 31.412H84.5063" stroke="#263238" stroke-width="0.5" stroke-miterlimit="10"/>
<path d="M66.5303 31.412H81.6083" stroke="#263238" stroke-width="0.5" stroke-miterlimit="10"/>
<path d="M55.0303 31.412H65.5643" stroke="#263238" stroke-width="0.5" stroke-miterlimit="10"/>
<path d="M45.2705 31.412H53.9685" stroke="#263238" stroke-width="0.5" stroke-miterlimit="10"/>
<path d="M80.7383 33.634H84.0243" stroke="#263238" stroke-width="0.5" stroke-miterlimit="10"/>
<path d="M71.1699 33.634H79.8679" stroke="#263238" stroke-width="0.5" stroke-miterlimit="10"/>
<path d="M68.2705 33.634H70.2045" stroke="#263238" stroke-width="0.5" stroke-miterlimit="10"/>
<path d="M54.3545 33.634H67.7885" stroke="#263238" stroke-width="0.5" stroke-miterlimit="10"/>
<path d="M44.7861 33.634H53.5801" stroke="#263238" stroke-width="0.5" stroke-miterlimit="10"/>
<path d="M44.3027 35.856H83.5407" stroke="#263238" stroke-width="0.5" stroke-miterlimit="10"/>
<path d="M81.0283 38.08H83.0583" stroke="#263238" stroke-width="0.5" stroke-miterlimit="10"/>
<path d="M72.1367 38.08H79.7727" stroke="#263238" stroke-width="0.5" stroke-miterlimit="10"/>
<path d="M59.3799 38.08H70.7839" stroke="#263238" stroke-width="0.5" stroke-miterlimit="10"/>
<path d="M56.5762 38.08H58.5102" stroke="#263238" stroke-width="0.5" stroke-miterlimit="10"/>
<path d="M47.6865 38.08H55.5145" stroke="#263238" stroke-width="0.5" stroke-miterlimit="10"/>
<path d="M43.8203 38.08H46.5263" stroke="#263238" stroke-width="0.5" stroke-miterlimit="10"/>
<path d="M72.7168 40.302H82.5748" stroke="#263238" stroke-width="0.5" stroke-miterlimit="10"/>
<path d="M62.2783 40.302H71.4603" stroke="#263238" stroke-width="0.5" stroke-miterlimit="10"/>
<path d="M54.2588 40.302H61.3128" stroke="#263238" stroke-width="0.5" stroke-miterlimit="10"/>
<path d="M43.3359 40.302H53.2899" stroke="#263238" stroke-width="0.5" stroke-miterlimit="10"/>
<path d="M78.998 42.526H82.0901" stroke="#263238" stroke-width="0.5" stroke-miterlimit="10"/>
<path d="M68.7539 42.526H77.9339" stroke="#263238" stroke-width="0.5" stroke-miterlimit="10"/>
<path d="M62.1826 42.526H68.0786" stroke="#263238" stroke-width="0.5" stroke-miterlimit="10"/>
<path d="M56.8662 42.526H61.2162" stroke="#263238" stroke-width="0.5" stroke-miterlimit="10"/>
<path d="M51.8428 42.526H56.0948" stroke="#263238" stroke-width="0.5" stroke-miterlimit="10"/>
<path d="M45.4619 42.526H50.7779" stroke="#263238" stroke-width="0.5" stroke-miterlimit="10"/>
<path d="M42.8545 42.526H44.5925" stroke="#263238" stroke-width="0.5" stroke-miterlimit="10"/>
<path d="M76.3887 44.748H81.6087" stroke="#263238" stroke-width="0.5" stroke-miterlimit="10"/>
<path d="M67.208 44.748H75.228" stroke="#263238" stroke-width="0.5" stroke-miterlimit="10"/>
<path d="M58.6064 44.748H66.0484" stroke="#263238" stroke-width="0.5" stroke-miterlimit="10"/>
<path d="M48.5566 44.748H57.4466" stroke="#263238" stroke-width="0.5" stroke-miterlimit="10"/>
<path d="M42.3701 44.748H47.5881" stroke="#263238" stroke-width="0.5" stroke-miterlimit="10"/>
<path d="M76.0986 46.97H81.1246" stroke="#263238" stroke-width="0.5" stroke-miterlimit="10"/>
<path d="M67.4004 46.97H75.1324" stroke="#263238" stroke-width="0.5" stroke-miterlimit="10"/>
<path d="M58.4121 46.97H66.0481" stroke="#263238" stroke-width="0.5" stroke-miterlimit="10"/>
<path d="M52.2285 46.97H57.5445" stroke="#263238" stroke-width="0.5" stroke-miterlimit="10"/>
<path d="M45.8506 46.97H51.2626" stroke="#263238" stroke-width="0.5" stroke-miterlimit="10"/>
<path d="M41.8867 46.97H45.2707" stroke="#263238" stroke-width="0.5" stroke-miterlimit="10"/>
<path d="M77.7422 49.194H80.6402" stroke="#263238" stroke-width="0.5" stroke-miterlimit="10"/>
<path d="M67.8848 49.194H76.7768" stroke="#263238" stroke-width="0.5" stroke-miterlimit="10"/>
<path d="M60.0566 49.194H66.7246" stroke="#263238" stroke-width="0.5" stroke-miterlimit="10"/>
<path d="M54.9346 49.194H58.9926" stroke="#263238" stroke-width="0.5" stroke-miterlimit="10"/>
<path d="M46.7207 49.194H53.4847" stroke="#263238" stroke-width="0.5" stroke-miterlimit="10"/>
<path d="M41.4043 49.194H46.0423" stroke="#263238" stroke-width="0.5" stroke-miterlimit="10"/>
<path d="M71.6624 50.84V50.854C70.6658 50.9372 69.7209 51.3326 68.9621 51.984C68.2034 52.6354 67.6694 53.5095 67.4364 54.482L63.7584 69.732H19.2764L22.9524 54.482C23.1991 53.4587 23.7782 52.5461 24.599 51.8871C25.4198 51.228 26.4359 50.8598 27.4884 50.84H71.6624Z" fill="white" stroke="#263238" stroke-width="0.5" stroke-linecap="round" stroke-linejoin="round"/>
<path d="M78.4968 55.734H67.1348L67.4368 54.482C67.6718 53.5105 68.2063 52.6375 68.9646 51.9864C69.723 51.3354 70.6669 50.9392 71.6628 50.854C71.7928 50.844 71.9228 50.838 72.0528 50.838C73.8528 50.838 75.7028 51.824 76.4008 53.652C76.8928 54.944 77.6668 55.578 78.4968 55.734Z" fill="#263238" stroke="#263238" stroke-width="0.5" stroke-linecap="round" stroke-linejoin="round"/>
<path d="M64.5847 54.43C64.5847 54.578 64.2227 54.688 64.1967 54.83C64.1707 54.972 64.4647 55.208 64.4127 55.342C64.3607 55.476 63.9827 55.452 63.9087 55.578C63.8347 55.704 64.0347 56.02 63.9407 56.132C63.8467 56.244 63.4987 56.104 63.3887 56.202C63.2787 56.3 63.3887 56.66 63.2687 56.744C63.1487 56.828 62.8447 56.604 62.7167 56.672C62.5887 56.74 62.6087 57.118 62.4727 57.172C62.3367 57.226 62.0887 56.944 61.9487 56.984C61.8087 57.024 61.7487 57.398 61.6087 57.424C61.4687 57.45 61.2767 57.124 61.1307 57.138C60.9847 57.152 60.8607 57.506 60.7147 57.506C60.5687 57.506 60.4387 57.15 60.2967 57.138C60.1547 57.126 59.9607 57.45 59.8207 57.424C59.6807 57.398 59.6207 57.024 59.4787 56.984C59.3367 56.944 59.0887 57.226 58.9567 57.172C58.8247 57.118 58.8367 56.74 58.7127 56.672C58.5887 56.604 58.2767 56.826 58.1607 56.744C58.0447 56.662 58.1447 56.296 58.0387 56.202C57.9327 56.108 57.5787 56.24 57.4867 56.132C57.3947 56.024 57.5927 55.7 57.5207 55.576C57.4487 55.452 57.0687 55.476 57.0167 55.342C56.9647 55.208 57.2587 54.972 57.2307 54.83C57.2027 54.688 56.8447 54.58 56.8447 54.43C56.8447 54.28 57.2047 54.174 57.2307 54.03C57.2567 53.886 56.9647 53.654 57.0167 53.518C57.0687 53.382 57.4447 53.41 57.5207 53.284C57.5967 53.158 57.3927 52.842 57.4867 52.73C57.5807 52.618 57.9307 52.758 58.0387 52.66C58.1467 52.562 58.0387 52.202 58.1607 52.118C58.2827 52.034 58.5827 52.258 58.7127 52.188C58.8427 52.118 58.8207 51.744 58.9567 51.688C59.0927 51.632 59.3387 51.918 59.4787 51.878C59.6187 51.838 59.6787 51.464 59.8207 51.438C59.9627 51.412 60.1507 51.738 60.2967 51.724C60.4427 51.71 60.5667 51.354 60.7147 51.354C60.8627 51.354 60.9887 51.71 61.1307 51.724C61.2727 51.738 61.4687 51.41 61.6087 51.438C61.7487 51.466 61.8087 51.838 61.9487 51.878C62.0887 51.918 62.3487 51.636 62.4727 51.688C62.5967 51.74 62.5907 52.122 62.7167 52.188C62.8427 52.254 63.1507 52.036 63.2687 52.118C63.3867 52.2 63.2847 52.564 63.3887 52.66C63.4927 52.756 63.8507 52.62 63.9407 52.73C64.0307 52.84 63.8347 53.162 63.9087 53.284C63.9827 53.406 64.3607 53.386 64.4127 53.52C64.4647 53.654 64.1687 53.888 64.1967 54.03C64.2247 54.172 64.5847 54.284 64.5847 54.43Z" fill="#92E3A9"/>
<path d="M60.7144 56.734C62.337 56.734 63.6524 55.7025 63.6524 54.43C63.6524 53.1575 62.337 52.126 60.7144 52.126C59.0918 52.126 57.7764 53.1575 57.7764 54.43C57.7764 55.7025 59.0918 56.734 60.7144 56.734Z" fill="white"/>
<path d="M60.7139 56.296C62.0273 56.296 63.0919 55.4606 63.0919 54.43C63.0919 53.3994 62.0273 52.564 60.7139 52.564C59.4006 52.564 58.3359 53.3994 58.3359 54.43C58.3359 55.4606 59.4006 56.296 60.7139 56.296Z" fill="#92E3A9"/>
<path d="M62.3883 65.658H43.0723" stroke="#263238" stroke-width="0.5" stroke-linecap="round" stroke-linejoin="round"/>
<path d="M36.9279 65.658H23.0879" stroke="#263238" stroke-width="0.5" stroke-linecap="round" stroke-linejoin="round"/>
<path d="M47.2627 65.25C47.2627 65.25 50.9087 61.212 51.9487 57.25C52.9887 53.288 50.4307 55.436 49.4087 59.83C48.3867 64.224 48.3867 65.35 49.4087 64.532C50.2286 63.8284 50.9361 63.0035 51.5067 62.086C51.6507 61.858 51.7707 61.646 51.8627 61.466C52.2627 60.648 50.9427 61.16 50.6347 62.794C50.3267 64.428 52.1687 62.08 52.6787 61.262C53.1887 60.444 54.2127 60.036 53.3947 62.182C52.5767 64.328 51.3507 63.918 52.4747 62.488C53.5987 61.058 54.8267 58.088 54.9287 59.728C55.0307 61.368 54.6207 63.2 53.8007 63.716C52.9807 64.232 55.3327 61.366 56.0487 61.57C56.7647 61.774 57.0707 62.592 56.3547 63.206C55.6387 63.82 55.6387 61.774 61.0567 61.978" stroke="#263238" stroke-width="0.5" stroke-linecap="round" stroke-linejoin="round"/>
<path d="M60.172 59.61L63.172 62.01C63.2047 62.0368 63.2273 62.0741 63.236 62.1155C63.2447 62.1569 63.2391 62.2 63.22 62.2378C63.2008 62.2755 63.1694 62.3057 63.1309 62.3231C63.0924 62.3406 63.049 62.3445 63.008 62.334L59.208 61.348L60.172 59.61Z" fill="white" stroke="#263238" stroke-width="0.5" stroke-linecap="round" stroke-linejoin="round"/>
<path d="M59.6862 58.676L42.1582 48.298L40.2002 51.63L58.3482 61.46C58.393 61.4915 58.4414 61.5176 58.4922 61.538C59.0922 61.79 59.8502 61.354 60.1802 60.562C60.5102 59.77 60.2882 58.926 59.6862 58.676Z" fill="#8C8C8C" stroke="#263238" stroke-width="0.5" stroke-linecap="round" stroke-linejoin="round"/>
<path d="M42.6207 50.424C42.1087 51.65 40.9367 52.328 40.0027 51.938C39.9131 51.8997 39.8273 51.8528 39.7467 51.798L21.7807 41.786L20.3167 40.968L20.1367 40.87L20.1827 40.76L22.2427 35.828L22.3307 35.628L22.5687 35.772L24.6207 37.022L41.8567 47.506C42.8007 47.888 43.1327 49.2 42.6207 50.424Z" fill="white" stroke="#263238" stroke-width="0.5" stroke-linecap="round" stroke-linejoin="round"/>
<path d="M41.6847 47.4L24.6207 37.02L22.5687 35.77L22.3307 35.626L22.2427 35.826L20.1827 40.758L20.1367 40.868L20.3167 40.966L21.7807 41.784L39.3347 51.566C40.2707 51.844 41.3827 51.166 41.8827 49.966C42.2827 49 42.1767 48 41.6847 47.4Z" fill="#8C8C8C" stroke="#263238" stroke-width="0.5" stroke-linecap="round" stroke-linejoin="round"/>
<path d="M21.78 41.786C22.846 41.83 23.98 41.002 24.536 39.682C24.9157 38.8381 24.9459 37.8781 24.62 37.012L22.568 35.762C22.4579 35.7761 22.3489 35.7981 22.242 35.828C21.396 36.066 20.588 36.804 20.152 37.85C19.716 38.896 19.752 39.992 20.182 40.76C20.2219 40.8298 20.2666 40.8966 20.316 40.96" fill="white"/>
<path d="M21.78 41.786C22.846 41.83 23.98 41.002 24.536 39.682C24.9157 38.8381 24.9459 37.8781 24.62 37.012L22.568 35.762C22.4579 35.7761 22.3489 35.7981 22.242 35.828C21.396 36.066 20.588 36.804 20.152 37.85C19.716 38.896 19.752 39.992 20.182 40.76C20.2219 40.8298 20.2666 40.8966 20.316 40.96" stroke="#263238" stroke-width="0.5" stroke-linecap="round" stroke-linejoin="round"/>
<path d="M23.38 38.764L36.708 47.438C36.7889 47.4924 36.8471 47.5744 36.8718 47.6687C36.8965 47.7629 36.8859 47.863 36.842 47.95C36.8166 47.9968 36.782 48.038 36.7405 48.0712C36.6989 48.1045 36.6511 48.1291 36.5998 48.1436C36.5486 48.1582 36.495 48.1623 36.4421 48.1559C36.3893 48.1494 36.3382 48.1324 36.292 48.106L22.582 40L23.38 38.764Z" fill="white" stroke="#263238" stroke-width="0.5" stroke-linecap="round" stroke-linejoin="round"/>
<path d="M23.2343 39.08C22.6343 40.53 21.2343 41.332 20.1363 40.87C19.0383 40.408 18.6283 38.858 19.2323 37.4C19.8363 35.942 21.2323 35.148 22.3303 35.61C23.4283 36.072 23.8403 37.63 23.2343 39.08Z" fill="#8C8C8C" stroke="#263238" stroke-width="0.5" stroke-linecap="round" stroke-linejoin="round"/>
<path d="M22.8006 38.9C22.3266 40.036 21.2386 40.666 20.3726 40.3C19.5066 39.934 16.5286 37.086 17.0006 35.95C17.4726 34.814 21.2246 35.822 22.0906 36.184C22.9566 36.546 23.2786 37.762 22.8006 38.9Z" fill="white" stroke="#263238" stroke-width="0.5" stroke-linecap="round" stroke-linejoin="round"/>
<path d="M50.8663 57.756L51.9483 57.252C52.1947 57.241 52.437 57.3175 52.6323 57.468C52.9563 57.72 53.5683 58.116 53.5683 58.116C53.5683 58.116 54.7923 58.188 54.8283 58.368C54.8643 58.548 54.1083 58.768 54.0003 58.768H53.2003C53.2003 58.768 54.3163 59.346 54.4243 59.418C54.5323 59.49 56.0823 59.958 55.8663 60.102C55.6503 60.246 54.2083 60.21 53.8843 60.282C53.5627 60.3315 53.2377 60.3555 52.9123 60.354L51.6883 59.238L50.8223 58.3C50.8223 58.3 50.5423 57.972 50.8663 57.756Z" fill="white" stroke="#263238" stroke-width="0.5" stroke-linecap="round" stroke-linejoin="round"/>
<path d="M23.7081 44.826C23.7081 44.826 23.6361 43.852 23.6361 43.384C23.6361 42.916 23.3841 42.016 23.2761 41.944C23.1681 41.872 22.0521 41.44 21.7281 41.144C21.4041 40.848 21.0061 41.252 21.1501 41.504C21.2941 41.756 22.1241 42.224 22.1241 42.224L21.9081 42.548L21.1081 41.864C21.1081 41.864 20.2801 40.568 20.0641 40.676C19.8481 40.784 19.9201 40.964 20.0641 41.216C20.2081 41.468 20.1361 43.088 20.5321 43.416C20.9281 43.744 22.1181 44.138 22.1181 44.138L22.2261 45.038C22.2261 45.038 23.3421 45.11 23.4861 45.146C23.6301 45.182 23.7081 44.826 23.7081 44.826Z" fill="white" stroke="#263238" stroke-width="0.5" stroke-linecap="round" stroke-linejoin="round"/>
<path d="M21.3301 46.2L21.4741 45.228C21.4741 45.228 21.4381 44.904 22.2741 44.76C22.7531 44.6709 23.2463 44.6956 23.7141 44.832C23.7653 44.8521 23.8095 44.8866 23.8414 44.9313C23.8734 44.976 23.8917 45.0291 23.8941 45.084C23.8877 45.4344 23.8515 45.7837 23.7861 46.128C23.7861 46.128 22.4841 45.618 21.3301 46.2Z" fill="white" stroke="#263238" stroke-width="0.5" stroke-linecap="round" stroke-linejoin="round"/>
<path d="M35.7783 94V96.6C35.7783 96.6 36.3783 96.902 38.1283 96.902C39.6951 96.8673 41.244 96.5615 42.7063 95.998C43.5483 95.638 43.8503 94.854 43.5483 94.734C43.2463 94.614 41.7483 94.552 41.4403 94.312C41.1323 94.072 39.8743 93.288 39.8743 93.288C39.8743 93.288 36.8623 94.182 35.7783 94Z" fill="#92E3A9" stroke="#263238" stroke-width="0.5" stroke-linecap="round" stroke-linejoin="round"/>
<path d="M43.6584 94.962C42.3933 95.5554 41.044 95.9494 39.6584 96.13C37.5784 96.398 36.2964 96.168 35.7744 96.032V96.6C35.7744 96.6 36.3744 96.902 38.1244 96.902C39.6912 96.8674 41.2401 96.5615 42.7024 95.998C43.3104 95.73 43.6344 95.254 43.6584 94.962Z" fill="white" stroke="#263238" stroke-width="0.5" stroke-linecap="round" stroke-linejoin="round"/>
<path d="M36.6825 69.126L36.9845 69.97C36.9845 69.97 38.2485 72.37 39.1525 74.126C40.0565 75.882 41.0185 79.606 41.3205 79.968C41.6225 80.33 41.5605 80.81 41.3805 81.352C41.2005 81.894 39.7545 91.352 39.7545 91.592C39.7545 91.832 39.6345 91.832 39.8145 92.134C39.9945 92.436 40.0565 93.398 40.0565 93.398C39.6599 93.7816 39.1552 94.0343 38.6105 94.122C37.6465 94.302 35.7785 94.302 35.7785 94.302C35.7785 94.302 35.5385 93.158 35.5985 92.978C35.6585 92.798 35.8405 91.652 35.8405 91.652C35.8405 91.652 36.4405 88.7 36.3205 87.196C36.2005 85.692 36.5025 82.316 36.6225 81.956C36.7058 81.5615 36.746 81.1592 36.7425 80.756L36.3825 80.094V79.6C36.3825 79.6 33.4905 76.648 32.3465 75.504C31.2025 74.36 30.0585 72.974 30.0585 72.974C30.0585 72.974 28.7325 78.878 28.3705 80.142C28.0085 81.406 27.8285 81.942 27.5885 82.31C27.3485 82.678 24.8785 85.924 23.9745 87.25C23.0705 88.576 21.6865 90.924 21.6865 90.924C21.6829 91.2663 21.7029 91.6084 21.7465 91.948C21.8065 92.188 21.1465 93.092 21.1465 93.092L20.9045 93.332C20.9045 93.332 19.4585 91.886 18.9165 91.766C18.3745 91.646 17.2305 91.826 17.2305 91.826C17.2305 91.826 17.9545 89.84 18.1345 89.426C18.3145 89.012 20.0005 84.728 20.4825 83.884C20.9645 83.04 21.3265 81.354 22.1705 80.684C23.0145 80.014 23.9705 79.238 23.9705 79.238L23.8505 72.494L23.7305 70.626C23.6122 70.153 23.5511 69.6675 23.5485 69.18V67.98C23.5485 67.98 29.0305 69.244 31.7485 69.124C34.4665 69.004 36.0845 68.282 36.0845 68.282L36.6825 69.126Z" fill="#263238" stroke="#263238" stroke-width="0.5" stroke-linecap="round" stroke-linejoin="round"/>
<path d="M38.1878 50.3C38.1878 50.3 35.0538 48.932 33.3978 48.932C31.7418 48.932 30.8398 48.968 29.0738 49.04C27.3078 49.112 26.2738 49.652 26.2738 49.652L23.6738 50.516L23.8878 45.8C23.3607 45.6547 22.8096 45.618 22.2678 45.692C21.8099 45.7771 21.3902 46.0038 21.0678 46.34C21.0678 46.34 20.0958 52.752 20.1318 53.328C20.1678 53.904 20.9318 54.012 20.9318 54.012L26.8038 53.904L26.3718 60.46L21.9718 68.096C21.9718 68.096 22.0078 69.284 25.6098 70.474C29.2118 71.664 33.6418 71.274 35.0098 70.906C36.3778 70.538 38.5678 68.926 38.7478 68.674C38.9278 68.422 38.7478 67.124 38.7478 66.584C38.7478 66.044 37.8478 60.928 37.9918 60.676C38.1358 60.424 38.9278 57.038 38.9278 57.038C38.9278 57.038 46.2398 61.792 46.6718 61.72C47.1038 61.648 51.4978 59.488 51.6078 59.416C51.7178 59.344 52.0078 58.948 51.5718 58.298C51.4113 58.0739 51.2017 57.8893 50.9591 57.7583C50.7166 57.6273 50.4473 57.5533 50.1718 57.542C49.9558 57.542 47.0018 57.794 47.0018 57.794C47.0018 57.794 43.3018 54.514 43.1998 54.334C43.0978 54.154 42.5158 52.642 42.2638 52.246C42.0118 51.85 38.1878 50.3 38.1878 50.3Z" fill="#92E3A9" stroke="#263238" stroke-width="0.5" stroke-linecap="round" stroke-linejoin="round"/>
<path d="M47.0127 57.8C47.0127 57.8 48.1967 58.474 48.4327 58.888L47.0127 57.8Z" fill="#92E3A9"/>
<path d="M47.0127 57.8C47.0127 57.8 48.1967 58.474 48.4327 58.888" stroke="#263238" stroke-width="0.5" stroke-linecap="round" stroke-linejoin="round"/>
<path d="M42.2586 52.246C42.2586 52.246 41.1766 52.332 40.0586 53.512L42.2586 52.246Z" fill="#92E3A9"/>
<path d="M42.2586 52.246C42.2586 52.246 41.1766 52.332 40.0586 53.512" stroke="#263238" stroke-width="0.5" stroke-linecap="round" stroke-linejoin="round"/>
<path d="M39.82 52.746C39.4936 52.9286 39.2126 53.1826 38.9982 53.4891C38.7838 53.7957 38.6415 54.1467 38.582 54.516" fill="#92E3A9"/>
<path d="M39.82 52.746C39.4936 52.9286 39.2126 53.1826 38.9982 53.4891C38.7838 53.7957 38.6415 54.1467 38.582 54.516" stroke="#263238" stroke-width="0.5" stroke-linecap="round" stroke-linejoin="round"/>
<path d="M26.8062 53.902L26.6982 51.2L26.8062 53.902Z" stroke="#263238" stroke-width="0.5" stroke-linecap="round" stroke-linejoin="round"/>
<path d="M37.2379 58.194L38.9439 57.036L36.1699 57.9" stroke="#263238" stroke-width="0.5" stroke-linecap="round" stroke-linejoin="round"/>
<path d="M36.0264 59.018L36.6164 58.618" stroke="#263238" stroke-width="0.5" stroke-linecap="round" stroke-linejoin="round"/>
<path d="M35.8588 50.71C35.1927 50.9484 34.5779 51.3107 34.0468 51.778C32.6468 53.038 31.8848 52.93 31.8848 52.93" stroke="#263238" stroke-width="0.5" stroke-linecap="round" stroke-linejoin="round"/>
<path d="M37.2522 50.372C37.038 50.3943 36.8255 50.4311 36.6162 50.482" stroke="#263238" stroke-width="0.5" stroke-linecap="round" stroke-linejoin="round"/>
<path d="M33.8301 51.272C33.8301 51.272 32.6761 52.354 31.4521 52.858" stroke="#263238" stroke-width="0.5" stroke-linecap="round" stroke-linejoin="round"/>
<path d="M21.1443 51.168C21.0263 51.31 20.9563 51.4857 20.9443 51.67" stroke="#263238" stroke-width="0.5" stroke-linecap="round" stroke-linejoin="round"/>
<path d="M23.6727 50.516L23.1687 50.552C23.1687 50.552 22.5207 50.264 22.1967 50.3C21.9692 50.3739 21.7632 50.5023 21.5967 50.674" stroke="#263238" stroke-width="0.5" stroke-linecap="round" stroke-linejoin="round"/>
<path d="M21.4748 50.372C21.4748 50.372 20.8268 50.624 20.7188 51.2" stroke="#263238" stroke-width="0.5" stroke-linecap="round" stroke-linejoin="round"/>
<path d="M38.0005 60.674C38.0005 60.674 37.4905 64.134 37.2625 65.202C37.0345 66.27 36.7285 68.9 36.7285 68.9C37.1099 68.7549 37.5064 68.6529 37.9105 68.596C38.5105 68.52 38.7485 68.672 38.7485 68.672C38.7485 68.672 39.2065 67.566 38.7485 65.658C38.2905 63.75 38.0005 60.674 38.0005 60.674Z" fill="#92E3A9" stroke="#263238" stroke-width="0.5" stroke-linecap="round" stroke-linejoin="round"/>
<path d="M20.9021 93.338C20.9021 93.338 21.1441 94.482 21.3841 94.604C21.6241 94.726 22.7701 94.964 22.8901 95.266C23.0101 95.568 21.8061 96.108 21.0221 96.23C20.2381 96.352 18.8541 96.048 18.6741 95.928C18.4941 95.808 18.0741 95.206 17.5301 95.024C16.9861 94.842 16.3301 94.604 16.4461 93.88C16.5621 93.156 17.2281 91.832 17.2281 91.832C18.0363 91.5846 18.9029 91.6057 19.6981 91.892C21.0221 92.374 20.9021 93.338 20.9021 93.338Z" fill="#92E3A9" stroke="#263238" stroke-width="0.5" stroke-linecap="round" stroke-linejoin="round"/>
<path d="M21.0223 96.23C21.8063 96.108 23.0103 95.566 22.8903 95.266C22.8776 95.2384 22.86 95.2133 22.8383 95.192C22.2523 95.392 21.5323 95.502 20.8703 95.136C20.0583 94.684 19.7863 93.69 18.7023 93.336C18.0723 93.126 17.2283 93.162 16.6323 93.226C16.5518 93.441 16.4896 93.6625 16.4463 93.888C16.3243 94.612 16.9883 94.852 17.5303 95.032C18.0723 95.212 18.4943 95.816 18.6743 95.936C18.8543 96.056 20.2403 96.35 21.0223 96.23Z" fill="white" stroke="#263238" stroke-width="0.5" stroke-linecap="round" stroke-linejoin="round"/>
<path d="M20.6627 95.8C19.9987 95.498 19.3967 94.716 18.4327 94.114C17.5527 93.562 16.6327 94.168 16.4707 94.276C16.6087 94.696 17.1047 94.876 17.5307 95.016C18.0727 95.198 18.4947 95.8 18.6747 95.92C18.8547 96.04 20.2407 96.342 21.0227 96.222C21.1821 96.1957 21.3397 96.1596 21.4947 96.114C21.2116 96.0252 20.9339 95.9204 20.6627 95.8Z" fill="#263238" stroke="#263238" stroke-width="0.5" stroke-linecap="round" stroke-linejoin="round"/>
<path d="M38.8002 49.328L37.7202 50.084C37.7202 50.084 36.3202 49.148 35.3422 48.968C34.3642 48.788 33.8662 48.752 33.8662 48.752L34.6222 47.418C35.1751 47.0197 35.6003 46.4694 35.8462 45.834C36.1702 44.862 36.4942 44.466 37.2162 44.834C37.9382 45.202 38.2162 46.634 38.2162 47.534C38.2162 48.434 38.8002 49.328 38.8002 49.328Z" fill="white" stroke="#263238" stroke-width="0.5" stroke-linecap="round" stroke-linejoin="round"/>
<path d="M39.4125 42.7C39.4125 42.7 40.0245 43.6 40.0965 43.926C40.1685 44.252 39.8445 44.898 39.8445 44.898C39.8445 44.898 40.5665 45.942 40.6025 46.194C40.6385 46.446 40.1685 46.914 40.1685 46.914C40.1685 46.914 40.2765 47.96 40.4225 48.212C40.5685 48.464 40.7105 48.824 40.5305 49.148C40.3505 49.472 40.0965 49.688 39.3305 49.796C38.5645 49.904 37.9625 49.544 37.8185 48.796C37.6745 48.048 37.6745 46.418 37.5665 46.196C37.4585 45.974 36.9545 45.476 36.7025 45.872C36.4505 46.268 36.6305 46.672 36.8105 47.024C36.9208 47.2412 37.0973 47.4177 37.3145 47.528L36.5145 47.928C36.036 48.1349 35.4985 48.1604 35.0025 48C34.8257 47.9329 34.6639 47.8313 34.5266 47.7012C34.3893 47.571 34.2791 47.415 34.2025 47.242C34.1665 47.134 33.8025 46.242 33.6985 46.054C33.5945 45.866 32.8325 44.794 32.7965 43.532C32.7605 42.27 34.2745 40.832 36.2185 40.436C38.1625 40.04 39.0645 40.904 39.4965 40.94C39.9285 40.976 39.4965 40.58 39.8565 40.832C40.2165 41.084 40.3125 42.484 39.4125 42.7Z" fill="white" stroke="#263238" stroke-width="0.5" stroke-linecap="round" stroke-linejoin="round"/>
<path d="M40.1681 46.914C40.1681 46.914 40.2081 46.874 40.2641 46.812C40.1181 46.832 39.6801 46.892 39.4121 46.95C39.0881 47.022 38.9441 47.996 38.6561 47.75C38.3681 47.504 38.2241 45.372 38.1521 45.264C38.0801 45.156 38.4001 44.8 38.4001 44.8C38.4001 44.8 38.9041 44.116 38.9041 43.826C38.9041 43.536 38.4001 43.214 38.5801 43.142C38.7601 43.07 39.4081 42.71 39.4081 42.71C40.3081 42.494 40.2361 41.09 39.8761 40.838C39.5161 40.586 39.9481 40.982 39.5161 40.946C39.0841 40.91 38.1841 40.044 36.2381 40.442C34.2921 40.84 32.7801 42.278 32.8161 43.538C32.8521 44.798 33.6161 45.88 33.7181 46.06C33.8201 46.24 34.1861 47.14 34.2221 47.248C34.2986 47.421 34.4088 47.577 34.5461 47.7072C34.6834 47.8373 34.8452 47.9389 35.0221 48.006C35.5181 48.1664 36.0555 48.1409 36.5341 47.934L37.3341 47.534C37.1168 47.4237 36.9403 47.2472 36.8301 47.03C36.6501 46.67 36.4681 46.274 36.7221 45.878C36.9761 45.482 37.4781 45.986 37.5861 46.202C37.6941 46.418 37.6941 48.04 37.8381 48.802C37.9821 49.564 38.5941 49.918 39.3501 49.802C40.1061 49.686 40.3501 49.478 40.5501 49.154C40.7501 48.83 40.5861 48.47 40.4421 48.218C40.2981 47.966 40.1681 46.914 40.1681 46.914Z" fill="#263238" stroke="#263238" stroke-width="0.5" stroke-linecap="round" stroke-linejoin="round"/>
<path d="M39.9885 44.25C39.8913 44.2493 39.7959 44.2759 39.7132 44.3268C39.6304 44.3778 39.5637 44.4509 39.5205 44.538" stroke="#263238" stroke-width="0.5" stroke-linecap="round" stroke-linejoin="round"/>
<path d="M39.7006 45.474C39.7802 45.474 39.8446 45.2967 39.8446 45.078C39.8446 44.8593 39.7802 44.682 39.7006 44.682C39.6211 44.682 39.5566 44.8593 39.5566 45.078C39.5566 45.2967 39.6211 45.474 39.7006 45.474Z" fill="#263238"/>
<path d="M40.24 47.816C40.24 47.816 39.628 48.032 39.376 47.598" stroke="white" stroke-width="0.5" stroke-linecap="round" stroke-linejoin="round"/>
<path d="M33.4 48.932C35.056 48.932 38.19 50.3 38.19 50.3L38.31 50.35C38.278 50.1881 38.2096 50.0356 38.11 49.904C38.002 49.832 37.426 49.004 36.344 48.572C35.6354 48.2789 34.8786 48.1202 34.112 48.104C33.858 48.104 33.132 48.772 32.96 48.932H33.4Z" fill="#92E3A9" stroke="#263238" stroke-width="0.5" stroke-linecap="round" stroke-linejoin="round"/>
</svg>
