<svg width="87" height="85" viewBox="0 0 87 85" fill="none" xmlns="http://www.w3.org/2000/svg">
<path d="M27.1772 9.73009C27.1772 9.73009 13.9932 16.4465 7.41774 26.796C0.84228 37.1455 1.36254 50.46 9.35262 60.3432C17.3427 70.2264 32.6147 68.9284 45.4019 75.1889C58.1892 81.4494 72.2971 80.1601 78.3436 66.896C84.3901 53.632 75.2725 48.6748 73.7065 33.3245C72.1405 17.9742 58.3023 -4.50311 27.1772 9.73009Z" fill="#56AA7A"/>
<path opacity="0.7" d="M27.1772 9.73009C27.1772 9.73009 13.9932 16.4465 7.41774 26.796C0.84228 37.1455 1.36254 50.46 9.35262 60.3432C17.3427 70.2264 32.6147 68.9284 45.4019 75.1889C58.1892 81.4494 72.2971 80.1601 78.3436 66.896C84.3901 53.632 75.2725 48.6748 73.7065 33.3245C72.1405 17.9742 58.3023 -4.50311 27.1772 9.73009Z" fill="white"/>
<path d="M54.4585 10.0781V7.36194H56.9919V27.0448" stroke="#808080" stroke-width="0.3" stroke-miterlimit="10"/>
<path d="M54.4585 51.5893V10.8158" stroke="#808080" stroke-width="0.3" stroke-miterlimit="10"/>
<path d="M56.9919 27.7826V73.0504H54.4585V52.595" stroke="#808080" stroke-width="0.3" stroke-miterlimit="10"/>
<path d="M41.238 8.55384V7.36194H43.7715V8.33634" stroke="#808080" stroke-width="0.3" stroke-miterlimit="10"/>
<path d="M41.238 29.7262V28.9275" stroke="#808080" stroke-width="0.3" stroke-miterlimit="10"/>
<path d="M43.7715 70.7032V73.0504H41.238V61.9823" stroke="#808080" stroke-width="0.3" stroke-miterlimit="10"/>
<path d="M43.7715 61.9388V69.8314" stroke="#808080" stroke-width="0.3" stroke-miterlimit="10"/>
<path d="M15.5071 68.422V61.9823" stroke="#808080" stroke-width="0.3" stroke-miterlimit="10"/>
<path d="M18.0405 61.9388V73.0504H15.5071V69.4956" stroke="#808080" stroke-width="0.3" stroke-miterlimit="10"/>
<path d="M43.7715 28.71V29.6827" stroke="#808080" stroke-width="0.3" stroke-miterlimit="10"/>
<path d="M33.8186 28.8266H54.4672V26.0426H8.15625" stroke="#808080" stroke-width="0.3" stroke-miterlimit="10"/>
<path d="M17.522 28.8266H33.1472" stroke="#808080" stroke-width="0.3" stroke-miterlimit="10"/>
<path d="M15.3765 28.8266H16.852" stroke="#808080" stroke-width="0.3" stroke-miterlimit="10"/>
<path d="M7.4873 28.8266H14.5708" stroke="#808080" stroke-width="0.3" stroke-miterlimit="10"/>
<path d="M52.9534 55.1771H47.7178V59.2296H52.9534V55.1771Z" stroke="#808080" stroke-width="0.3" stroke-miterlimit="10"/>
<path d="M40.201 55.1771H34.9653V59.2296H40.201V55.1771Z" stroke="#808080" stroke-width="0.3" stroke-miterlimit="10"/>
<path d="M27.4469 55.1771H12.3037V59.2296H27.4469V55.1771Z" stroke="#808080" stroke-width="0.3" stroke-miterlimit="10"/>
<path d="M27.4469 55.1771H23.0308V59.2296H27.4469V55.1771Z" stroke="#808080" stroke-width="0.3" stroke-miterlimit="10"/>
<path d="M53.3921 54.3628H9.92163V55.1737H53.3921V54.3628Z" stroke="#808080" stroke-width="0.3" stroke-miterlimit="10"/>
<path d="M53.3903 54.3628H21.1829V55.1737H53.3903V54.3628Z" stroke="#808080" stroke-width="0.3" stroke-miterlimit="10"/>
<path d="M25.9522 53.766H10.4976V54.3854H25.9522V53.766Z" stroke="#808080" stroke-width="0.3" stroke-miterlimit="10"/>
<path d="M32.4928 53.766H29.3242V54.3472H32.4928V53.766Z" stroke="#808080" stroke-width="0.3" stroke-miterlimit="10"/>
<path d="M39.0335 53.766H35.865V54.3472H39.0335V53.766Z" stroke="#808080" stroke-width="0.3" stroke-miterlimit="10"/>
<path d="M45.5741 53.766H42.4055V54.3472H45.5741V53.766Z" stroke="#808080" stroke-width="0.3" stroke-miterlimit="10"/>
<path d="M52.1148 53.766H48.9463V54.3472H52.1148V53.766Z" stroke="#808080" stroke-width="0.3" stroke-miterlimit="10"/>
<path d="M27.4468 59.2296H34.9653" stroke="#808080" stroke-width="0.3" stroke-miterlimit="10"/>
<path d="M40.1992 59.2296H47.7178" stroke="#808080" stroke-width="0.3" stroke-miterlimit="10"/>
<path d="M22.9768 54.368V53.7869" stroke="#808080" stroke-width="0.3" stroke-miterlimit="10"/>
<path d="M25.9521 53.766H29.3243" stroke="#808080" stroke-width="0.3" stroke-miterlimit="10"/>
<path d="M32.4929 53.766H35.865" stroke="#808080" stroke-width="0.3" stroke-miterlimit="10"/>
<path d="M39.0334 53.766H42.4056" stroke="#808080" stroke-width="0.3" stroke-miterlimit="10"/>
<path d="M45.5742 53.766H48.9463" stroke="#808080" stroke-width="0.3" stroke-miterlimit="10"/>
<path d="M10.8159 62.0066H54.4673M12.3824 59.2226H9.93488H7.4873M23.2574 70.0976H20.8099H18.3623" stroke="white" stroke-width="0.3" stroke-miterlimit="10"/>
<path d="M7.4873 62.0066H10.012" stroke="white" stroke-width="0.3" stroke-miterlimit="10"/>
<path d="M52.2383 29.7035H37.7893V41.7078H52.2383V29.7035Z" stroke="#808080" stroke-width="0.3" stroke-miterlimit="10"/>
<path d="M52.2383 29.7035H40.6204V41.7078H52.2383V29.7035Z" stroke="#808080" stroke-width="0.3" stroke-miterlimit="10"/>
<path d="M47.791 30.6588H45.355C45.2424 30.6588 45.1344 30.6141 45.0548 30.5344C44.9752 30.4548 44.9304 30.3468 44.9304 30.2342C44.9304 30.1216 44.9752 30.0136 45.0548 29.934C45.1344 29.8544 45.2424 29.8097 45.355 29.8097H47.791C47.9036 29.8097 48.0116 29.8544 48.0912 29.934C48.1708 30.0136 48.2155 30.1216 48.2155 30.2342C48.2155 30.3468 48.1708 30.4548 48.0912 30.5344C48.0116 30.6141 47.9036 30.6588 47.791 30.6588Z" stroke="#808080" stroke-width="0.3" stroke-miterlimit="10"/>
<path d="M52.2383 41.7043H37.7893V53.7086H52.2383V41.7043Z" stroke="#808080" stroke-width="0.3" stroke-miterlimit="10"/>
<path d="M52.2383 41.7043H40.6204V53.7086H52.2383V41.7043Z" stroke="#808080" stroke-width="0.3" stroke-miterlimit="10"/>
<path d="M47.791 41.8105H45.355C45.1205 41.8105 44.9304 42.0002 44.9304 42.2341C44.9304 42.4681 45.1205 42.6578 45.355 42.6578H47.791C48.0255 42.6578 48.2155 42.4681 48.2155 42.2341C48.2155 42.0002 48.0255 41.8105 47.791 41.8105Z" stroke="#808080" stroke-width="0.3" stroke-miterlimit="10"/>
<path d="M35.51 41.7043H21.061V53.7086H35.51V41.7043Z" stroke="#808080" stroke-width="0.3" stroke-miterlimit="10"/>
<path d="M35.5101 41.7043H23.8921V53.7086H35.5101V41.7043Z" stroke="#808080" stroke-width="0.3" stroke-miterlimit="10"/>
<path d="M31.0644 41.8105H28.6284C28.3939 41.8105 28.2039 42.0002 28.2039 42.2341C28.2039 42.4681 28.3939 42.6578 28.6284 42.6578H31.0644C31.2989 42.6578 31.489 42.4681 31.489 42.2341C31.489 42.0002 31.2989 41.8105 31.0644 41.8105Z" stroke="#808080" stroke-width="0.3" stroke-miterlimit="10"/>
<path d="M52.9534 21.9588H47.7178V26.0113H52.9534V21.9588Z" stroke="#808080" stroke-width="0.3" stroke-miterlimit="10"/>
<path d="M40.201 21.9588H34.9653V26.0113H40.201V21.9588Z" stroke="#808080" stroke-width="0.3" stroke-miterlimit="10"/>
<path d="M27.4469 21.9588H12.3037V26.0113H27.4469V21.9588Z" stroke="#808080" stroke-width="0.3" stroke-miterlimit="10"/>
<path d="M27.4469 21.9588H23.0308V26.0113H27.4469V21.9588Z" stroke="#808080" stroke-width="0.3" stroke-miterlimit="10"/>
<path d="M53.3921 21.1462H9.92163V21.9571H53.3921V21.1462Z" stroke="#808080" stroke-width="0.3" stroke-miterlimit="10"/>
<path d="M53.3918 21.1462H9.92139V21.957H11.4188" stroke="white" stroke-width="0.3" stroke-miterlimit="10"/>
<path d="M53.3903 21.1462H21.1829V21.9571H53.3903V21.1462Z" stroke="#808080" stroke-width="0.3" stroke-miterlimit="10"/>
<path d="M14.6997 20.5477H10.4976V21.1671H25.9522V20.5477H15.4044" stroke="#808080" stroke-width="0.3" stroke-miterlimit="10"/>
<path d="M12.5871 20.5476H10.4976V21.167H11.9626" stroke="white" stroke-width="0.3" stroke-miterlimit="10"/>
<path d="M32.4928 20.5494H29.3242V21.1306H32.4928V20.5494Z" stroke="#808080" stroke-width="0.3" stroke-miterlimit="10"/>
<path d="M39.0335 20.5494H35.865V21.1306H39.0335V20.5494Z" stroke="#808080" stroke-width="0.3" stroke-miterlimit="10"/>
<path d="M45.5741 20.5494H42.4055V21.1306H45.5741V20.5494Z" stroke="#808080" stroke-width="0.3" stroke-miterlimit="10"/>
<path d="M52.1148 20.5494H48.9463V21.1306H52.1148V20.5494Z" stroke="#808080" stroke-width="0.3" stroke-miterlimit="10"/>
<path d="M27.4468 26.013H34.9653" stroke="#808080" stroke-width="0.3" stroke-miterlimit="10"/>
<path d="M40.1992 26.013H47.7178" stroke="#808080" stroke-width="0.3" stroke-miterlimit="10"/>
<path d="M22.9768 21.1497V20.5703" stroke="#808080" stroke-width="0.3" stroke-miterlimit="10"/>
<path d="M25.9521 20.5494H29.3243" stroke="#808080" stroke-width="0.3" stroke-miterlimit="10"/>
<path d="M32.4929 20.5494H35.865" stroke="#808080" stroke-width="0.3" stroke-miterlimit="10"/>
<path d="M39.0334 20.5494H42.4056" stroke="#808080" stroke-width="0.3" stroke-miterlimit="10"/>
<path d="M45.5742 20.5494H48.9463" stroke="#808080" stroke-width="0.3" stroke-miterlimit="10"/>
<path d="M52.2383 8.48772H37.7893V20.492H52.2383V8.48772Z" stroke="#808080" stroke-width="0.3" stroke-miterlimit="10"/>
<path d="M40.6204 16.4604V8.48772H52.2366V20.492H40.6204V17.4644" stroke="#808080" stroke-width="0.3" stroke-miterlimit="10"/>
<path d="M47.791 9.44124H45.355C45.2424 9.44124 45.1344 9.39651 45.0548 9.31689C44.9752 9.23727 44.9304 9.12928 44.9304 9.01668C44.9304 8.96101 44.9414 8.90588 44.9628 8.85447C44.9841 8.80306 45.0154 8.75637 45.0549 8.71708C45.0943 8.6778 45.1411 8.64669 45.1926 8.62554C45.2441 8.6044 45.2993 8.59363 45.355 8.59386H47.791C47.8467 8.59363 47.9018 8.6044 47.9533 8.62554C48.0048 8.64669 48.0516 8.6778 48.0911 8.71708C48.1305 8.75637 48.1618 8.80306 48.1832 8.85447C48.2045 8.90588 48.2155 8.96101 48.2155 9.01668C48.2155 9.12928 48.1708 9.23727 48.0912 9.31689C48.0116 9.39651 47.9036 9.44124 47.791 9.44124Z" stroke="#808080" stroke-width="0.3" stroke-miterlimit="10"/>
<path d="M35.51 13.7443V20.492H21.061V8.48772H35.51V12.9908" stroke="#808080" stroke-width="0.3" stroke-miterlimit="10"/>
<path d="M21.0608 13.4101V8.48767H35.5098V12.4223" stroke="white" stroke-width="0.3" stroke-miterlimit="10"/>
<path d="M35.5101 13.7443V20.492H23.8921V8.48772H35.5101V12.488" stroke="#808080" stroke-width="0.3" stroke-miterlimit="10"/>
<path d="M23.925 11.9624V10.3312L23.8921 8.48767H29.9063" stroke="white" stroke-width="0.3" stroke-miterlimit="10"/>
<path d="M31.0644 9.44124H28.6284C28.5727 9.44124 28.5176 9.43024 28.4662 9.40889C28.4148 9.38753 28.3681 9.35623 28.3288 9.31678C28.2895 9.27734 28.2584 9.23052 28.2373 9.17902C28.2161 9.12752 28.2053 9.07235 28.2056 9.01668C28.2056 8.90454 28.2501 8.79699 28.3294 8.7177C28.4087 8.63841 28.5162 8.59386 28.6284 8.59386H31.0644C31.1204 8.59317 31.1761 8.60358 31.2281 8.6245C31.2801 8.64542 31.3274 8.67643 31.3674 8.71574C31.4073 8.75504 31.4391 8.80188 31.4609 8.85353C31.4826 8.90518 31.4939 8.96063 31.4942 9.01668C31.4942 9.07287 31.483 9.12851 31.4614 9.18037C31.4397 9.23222 31.408 9.27926 31.368 9.31875C31.328 9.35824 31.2806 9.3894 31.2285 9.41043C31.1763 9.43146 31.1206 9.44193 31.0644 9.44124Z" stroke="#808080" stroke-width="0.3" stroke-miterlimit="10"/>
<path d="M28.2373 9.17897C28.2161 9.12747 28.2053 9.07231 28.2056 9.01663C28.2056 8.90449 28.2501 8.79695 28.3294 8.71765C28.4087 8.63836 28.354 8.59381 28.4662 8.59381H29.9064" stroke="white" stroke-width="0.3" stroke-miterlimit="10"/>
<path d="M49.7676 62.0206L54.4969 65.2517" stroke="#808080" stroke-width="0.3" stroke-miterlimit="10"/>
<path d="M54.4899 67.6895L46.2214 62.0362" stroke="#808080" stroke-width="0.3" stroke-miterlimit="10"/>
<path d="M36.4861 62.0206L41.2137 65.2517" stroke="#808080" stroke-width="0.3" stroke-miterlimit="10"/>
<path d="M41.2067 67.6895L32.9382 62.0362" stroke="#808080" stroke-width="0.3" stroke-miterlimit="10"/>
<path d="M82.128 73.0487H5.91602" stroke="#263238" stroke-width="0.5" stroke-linecap="round" stroke-linejoin="round"/>
<path d="M67.143 61.462H50.0127V75.7231H67.143V61.462Z" fill="#263238" stroke="#808080" stroke-width="0.3" stroke-miterlimit="10"/>
<path d="M62.2797 61.462H50.0127V75.7231H62.2797V61.462Z" fill="#E9FFF2" stroke="#808080" stroke-width="0.3" stroke-miterlimit="10"/>
<path d="M57.1903 61.462H55.1023V64.1486H57.1903V61.462Z" fill="#56AA7A" stroke="#808080" stroke-width="0.3" stroke-miterlimit="10"/>
<path d="M57.1903 61.462H55.1023V64.1486H57.1903V61.462Z" fill="#56AA7A" stroke="#808080" stroke-width="0.3" stroke-miterlimit="10"/>
<path opacity="0.4" d="M57.1903 61.462H55.1023V64.1486H57.1903V61.462Z" fill="white" stroke="#808080" stroke-width="0.3" stroke-miterlimit="10"/>
<path d="M81.237 61.462H64.1067V75.7231H81.237V61.462Z" fill="#263238" stroke="#808080" stroke-width="0.3" stroke-miterlimit="10"/>
<path d="M76.3737 61.462H64.1067V75.7231H76.3737V61.462Z" fill="#E9FFF2" stroke="#808080" stroke-width="0.3" stroke-miterlimit="10"/>
<path d="M71.2843 61.462H69.1963V64.1486H71.2843V61.462Z" fill="#56AA7A" stroke="#808080" stroke-width="0.3" stroke-miterlimit="10"/>
<path d="M71.2843 61.462H69.1963V64.1486H71.2843V61.462Z" fill="#56AA7A" stroke="#808080" stroke-width="0.3" stroke-miterlimit="10"/>
<path opacity="0.4" d="M71.2843 61.462H69.1963V64.1486H71.2843V61.462Z" fill="white" stroke="#808080" stroke-width="0.3" stroke-miterlimit="10"/>
<path d="M80.3688 47.2741H63.2385V61.5351H80.3688V47.2741Z" fill="#263238" stroke="#808080" stroke-width="0.3" stroke-miterlimit="10"/>
<path d="M75.5055 47.2741H63.2385V61.5351H75.5055V47.2741Z" fill="#E9FFF2" stroke="#808080" stroke-width="0.3" stroke-miterlimit="10"/>
<path d="M70.4159 47.2741H68.3262V49.9606H70.4159V47.2741Z" fill="#56AA7A" stroke="#808080" stroke-width="0.3" stroke-miterlimit="10"/>
<path d="M70.4157 47.2741H68.3259V49.9607H70.4157V47.2741Z" fill="#56AA7A" stroke="#808080" stroke-width="0.3" stroke-miterlimit="10"/>
<path opacity="0.4" d="M70.4157 47.2741H68.3259V49.9607H70.4157V47.2741Z" fill="white" stroke="#808080" stroke-width="0.3" stroke-miterlimit="10"/>
<path d="M80.3688 32.8321H63.2385V47.0931H80.3688V32.8321Z" fill="#263238" stroke="#808080" stroke-width="0.3" stroke-miterlimit="10"/>
<path d="M75.5055 32.8321H63.2385V47.0931H75.5055V32.8321Z" fill="#E9FFF2" stroke="#808080" stroke-width="0.3" stroke-miterlimit="10"/>
<path d="M69.3469 40.3225L65.0295 43.0078L66.5109 45.3895L70.8283 42.7043L69.3469 40.3225Z" fill="#56AA7A" stroke="#808080" stroke-width="0.3" stroke-miterlimit="10"/>
<path d="M69.3469 40.3225L65.0295 43.0077L66.5109 45.3895L70.8283 42.7043L69.3469 40.3225Z" fill="#56AA7A" stroke="#808080" stroke-width="0.3" stroke-miterlimit="10"/>
<path opacity="0.4" d="M69.3469 40.3225L65.0295 43.0077L66.5109 45.3895L70.8283 42.7043L69.3469 40.3225Z" fill="white" stroke="#808080" stroke-width="0.3" stroke-miterlimit="10"/>
<path d="M55.6731 68.113L51.3557 70.7982L52.8371 73.18L57.1544 70.4948L55.6731 68.113Z" fill="#56AA7A" stroke="#808080" stroke-width="0.3" stroke-miterlimit="10"/>
<path d="M55.6731 68.113L51.3557 70.7982L52.8371 73.18L57.1544 70.4947L55.6731 68.113Z" fill="#56AA7A" stroke="#808080" stroke-width="0.3" stroke-miterlimit="10"/>
<path opacity="0.4" d="M55.6731 68.113L51.3557 70.7982L52.8371 73.18L57.1544 70.4947L55.6731 68.113Z" fill="white" stroke="#808080" stroke-width="0.3" stroke-miterlimit="10"/>
<path d="M70.4159 32.8321H68.3262V35.5186H70.4159V32.8321Z" fill="#56AA7A" stroke="#808080" stroke-width="0.3" stroke-miterlimit="10"/>
<path d="M70.4157 32.8321H68.3259V35.5186H70.4157V32.8321Z" fill="#56AA7A" stroke="#808080" stroke-width="0.3" stroke-miterlimit="10"/>
<path opacity="0.4" d="M70.4157 32.8321H68.3259V35.5186H70.4157V32.8321Z" fill="white" stroke="#808080" stroke-width="0.3" stroke-miterlimit="10"/>
<path d="M72.2686 50.3185L73.3074 52.6153L74.3496 50.3238L73.8102 50.322V47.9748L72.8097 47.973L72.808 50.3203L72.2686 50.3185Z" fill="#263238"/>
<path d="M58.9968 64.7755L60.0356 67.0723L61.0779 64.7807L60.5385 64.779V62.4317L59.538 62.43L59.5362 64.7772L58.9968 64.7755Z" fill="#263238"/>
<path d="M60.8998 20.706L82.4758 20.706V9.39599L60.8998 9.39599V20.706Z" stroke="#808080" stroke-width="0.3" stroke-miterlimit="10"/>
<path d="M81.364 9.49518L82.3558 11.4788H61.6359L60.8999 9.396" stroke="#808080" stroke-width="0.3" stroke-miterlimit="10"/>
<path d="M81.364 11.5327L82.3558 13.5181H61.6359L60.8999 11.4353" stroke="#808080" stroke-width="0.3" stroke-miterlimit="10"/>
<path d="M81.364 13.572L82.3558 15.5556H61.6359L60.8999 13.4746" stroke="#808080" stroke-width="0.3" stroke-miterlimit="10"/>
<path d="M81.364 15.6113L82.3558 17.5949H61.6359L60.8999 15.5121" stroke="#808080" stroke-width="0.3" stroke-miterlimit="10"/>
<path d="M81.364 17.6506L82.3558 19.6342H61.6359L60.8999 17.5514" stroke="#808080" stroke-width="0.3" stroke-miterlimit="10"/>
<path d="M69.9536 20.706H82.4758V9.39604L60.9 9.39604V9.7875L66.8813 15.7687L69.9536 20.706Z" stroke="white" stroke-width="0.3" stroke-miterlimit="10"/>
<path d="M81.364 9.49519L82.3558 11.4788L62.5312 11.4788L60.8999 9.39601" stroke="white" stroke-width="0.3" stroke-miterlimit="10"/>
<path d="M81.3641 11.5328L82.3559 13.5181H64.7063L62.5312 11.4187" stroke="white" stroke-width="0.3" stroke-miterlimit="10"/>
<path d="M81.3641 13.572L82.3559 15.5556H66.5955L64.7063 13.5937" stroke="white" stroke-width="0.3" stroke-miterlimit="10"/>
<path d="M81.364 15.6113L82.3558 17.5949H67.9685" stroke="white" stroke-width="0.3" stroke-miterlimit="10"/>
<path d="M81.3641 17.6505L82.3559 19.6341H69.2615" stroke="white" stroke-width="0.3" stroke-miterlimit="10"/>
<path d="M26.8832 75.6761C33.584 75.6761 39.2842 76.687 41.4035 78.0982L47.0707 80.3462L32.6826 83.9132L29.2548 82.911C28.4823 82.9388 27.6917 82.9533 26.8832 82.9545C18.3746 82.9545 11.479 81.3241 11.479 79.3144C11.479 77.3047 18.3746 75.6761 26.8832 75.6761Z" fill="#263238"/>
<path d="M12.7873 51.5701C12.7873 51.5701 12.2653 52.8073 11.8443 54.0444C11.4232 55.2815 11.2822 56.2124 11.458 57.1538C11.6337 58.0951 12.502 59.1078 13.372 59.2853C14.242 59.4628 19.2619 57.8132 20.5564 56.811C21.851 55.8088 20.9688 53.2196 19.9092 52.635C18.8495 52.0504 12.7873 51.5701 12.7873 51.5701Z" fill="white" stroke="#263238" stroke-width="0.3" stroke-linecap="round" stroke-linejoin="round"/>
<path d="M13.9932 52.6489C13.9932 52.6489 15.3121 53.4859 16.0203 53.7103C16.7284 53.9348 18.0143 54.194 18.0143 54.194C18.0143 54.194 15.7941 54.0322 15.3434 54.2254C14.8927 54.4185 14.5065 54.6116 14.5065 54.6116C14.5065 54.6116 17.7255 54.5159 18.4336 54.9979C19.1418 55.4799 20.0101 56.2159 20.0101 56.2159L19.0131 53.6407L19.1731 53.3519C19.1731 53.3519 16.0846 53.3884 13.9932 52.6489Z" fill="#263238" stroke="#263238" stroke-width="0.3" stroke-linecap="round" stroke-linejoin="round"/>
<path d="M28.3082 40.9526C28.3082 40.9526 30.7737 42.3064 31.113 43.7071C31.2938 44.502 31.5867 45.2671 31.983 45.9795L20.0884 53.3293C20.0884 53.3293 17.5271 53.9087 15.5435 53.2805C13.5599 52.6524 12.5472 52.3618 12.5855 51.5405C12.6238 50.7193 13.4085 50.1381 13.6504 49.7031C13.8923 49.2681 15.9228 44.5301 17.0834 42.6926C18.244 40.8552 18.5816 39.3571 20.9514 38.3896C22.3276 37.8131 23.8098 37.5326 25.3014 37.5666L28.3082 40.9526Z" fill="#56AA7A" stroke="#263238" stroke-width="0.3" stroke-linecap="round" stroke-linejoin="round"/>
<path d="M14.8302 51.8241C14.5414 51.8241 14.2525 51.8241 13.9602 51.798" stroke="#263238" stroke-width="0.3" stroke-linecap="round" stroke-linejoin="round"/>
<path d="M18.6302 51.504C17.5005 51.6843 16.36 51.7884 15.2163 51.8155" stroke="#263238" stroke-width="0.3" stroke-linecap="round" stroke-linejoin="round"/>
<path d="M19.5073 51.3561C19.5073 51.3561 19.3594 51.3874 19.0984 51.4327" stroke="#263238" stroke-width="0.3" stroke-linecap="round" stroke-linejoin="round"/>
<path d="M18.5051 49.67C17.4228 50.2146 15.5697 51.0307 13.6853 51.3161" stroke="#263238" stroke-width="0.3" stroke-linecap="round" stroke-linejoin="round"/>
<path d="M19.4672 49.148C19.4672 49.148 19.2932 49.2524 18.9905 49.416" stroke="#263238" stroke-width="0.3" stroke-linecap="round" stroke-linejoin="round"/>
<path d="M13.1233 50.9542C13.6048 50.7265 14.1041 50.5385 14.6162 50.3921" stroke="#263238" stroke-width="0.3" stroke-linecap="round" stroke-linejoin="round"/>
<path d="M27.7758 42.5482L26.4708 46.2701L25.8914 46.3675L26.5682 44.5301" stroke="#263238" stroke-width="0.3" stroke-linecap="round" stroke-linejoin="round"/>
<path d="M29.467 42.4838L28.9085 44.0812L28.5378 42.409L29.467 42.4838Z" fill="#56AA7A" stroke="#263238" stroke-width="0.3" stroke-linecap="round" stroke-linejoin="round"/>
<path d="M28.4839 40.2758L29.467 42.4838L27.4973 42.7814L28.4839 40.2758Z" fill="#56AA7A" stroke="#263238" stroke-width="0.3" stroke-linecap="round" stroke-linejoin="round"/>
<path d="M34.8942 35.4577C34.8942 35.4577 34.2626 36.3869 34.1877 36.6844C34.1129 36.982 33.5927 38.0225 33.1838 38.6175C32.7749 39.2126 31.2889 40.8795 30.3998 41.0344C29.5106 41.1893 28.7276 40.5507 28.7276 40.5507L27.4922 42.7814L26.0793 37.3874L27.0085 36.7175C26.7714 36.3797 26.6417 35.9782 26.6361 35.5656C26.6361 34.8974 27.045 34.0796 27.045 34.0796C27.045 34.0796 27.567 33.1487 28.4214 32.7033C29.2757 32.2578 32.5469 32.8895 33.6623 33.2618C34.7776 33.6342 35.0421 34.6399 34.8942 35.4577Z" fill="white" stroke="#263238" stroke-width="0.3" stroke-linecap="round" stroke-linejoin="round"/>
<path d="M28.7241 40.5507L27.781 39.6981L28.2021 41.2276L28.7241 40.5507Z" fill="#263238" stroke="#263238" stroke-width="0.3" stroke-linecap="round" stroke-linejoin="round"/>
<path d="M32.6635 35.7187L32.2546 36.2755C32.2546 36.2755 32.366 37.9477 32.0319 38.0973C31.6978 38.2469 30.9879 38.0608 30.8052 37.7632" stroke="#263238" stroke-width="0.3" stroke-linecap="round" stroke-linejoin="round"/>
<path d="M30.6938 38.32C30.4086 37.9663 30.1475 37.5936 29.9126 37.2047C29.615 36.6827 29.1696 36.8706 28.9086 37.2047C28.6476 37.5388 28.8721 38.0225 29.2444 38.2487C29.6168 38.4749 30.5077 38.7655 30.6938 38.32Z" stroke="#263238" stroke-width="0.3" stroke-linecap="round" stroke-linejoin="round"/>
<path d="M29.0581 37.062C29.0581 37.062 29.5801 38.1391 30.471 38.4366" stroke="#263238" stroke-width="0.3" stroke-linecap="round" stroke-linejoin="round"/>
<path d="M31.1235 35.7379C31.0178 35.5634 30.87 35.4184 30.6937 35.3159C30.5173 35.2135 30.3181 35.1569 30.1143 35.1515" stroke="#263238" stroke-width="0.3" stroke-linecap="round" stroke-linejoin="round"/>
<path d="M32.7905 36.4513C32.7905 36.4513 33.4361 36.3886 33.5979 36.8602" stroke="#263238" stroke-width="0.3" stroke-linecap="round" stroke-linejoin="round"/>
<path d="M34.0345 36.3956C34.0345 36.3956 34.0675 35.8736 32.9905 35.8405" stroke="#263238" stroke-width="0.3" stroke-linecap="round" stroke-linejoin="round"/>
<path d="M31.5097 35.3777C31.5097 35.3777 31.4244 34.6156 30.283 34.4607" stroke="#263238" stroke-width="0.3" stroke-linecap="round" stroke-linejoin="round"/>
<path d="M27.0693 34.0501C27.2995 33.674 27.5872 33.3364 27.9219 33.0496C28.5157 33.0984 29.106 33.1826 29.6898 33.3019L29.876 33.5994C29.876 33.5994 28.7606 35.1236 28.3517 35.1236C27.9428 35.1236 28.0542 34.2676 27.6818 34.0448C27.5871 33.9955 27.4817 33.9702 27.3749 33.9711C27.2681 33.972 27.1632 33.9991 27.0693 34.0501Z" fill="#263238" stroke="#263238" stroke-width="0.3" stroke-linecap="round" stroke-linejoin="round"/>
<path d="M26.6414 35.5691C26.6449 35.3879 26.6683 35.2076 26.711 35.0314C26.6431 35.6978 26.9702 36.2164 27.0885 36.2755C27.202 36.3448 27.3026 36.4331 27.3861 36.5365L27.0033 36.7105C26.7726 36.3741 26.6466 35.9769 26.6414 35.5691Z" fill="#263238" stroke="#263238" stroke-width="0.3" stroke-linecap="round" stroke-linejoin="round"/>
<path d="M27.0276 33.9004C27.0276 33.9004 28.8494 33.4915 31.5916 34.2049C34.3338 34.9183 34.9254 35.6265 34.9254 35.6265C34.9254 35.6265 35.3082 34.1092 35.477 33.1574C35.6458 32.2057 33.871 30.7214 32.8479 30.3125C31.8248 29.9036 29.6898 30.2429 28.9729 30.4552C28.256 30.6675 27.7062 31.628 27.5809 31.9081C27.4556 32.1883 27.0276 33.9004 27.0276 33.9004Z" fill="#56AA7A" stroke="#263238" stroke-width="0.3" stroke-linecap="round" stroke-linejoin="round"/>
<path opacity="0.4" d="M27.0273 33.9004C27.0273 33.9004 28.8491 33.4915 31.5914 34.2049C34.3336 34.9183 34.9252 35.6265 34.9252 35.6265C34.9252 35.6265 35.308 34.1092 35.4768 33.1574C35.6456 32.2057 33.8708 30.7214 32.8476 30.3125C31.8245 29.9036 29.6895 30.2429 28.9727 30.4552C28.2558 30.6675 27.7059 31.628 27.5807 31.9081C27.4554 32.1883 27.0273 33.9004 27.0273 33.9004Z" fill="white" stroke="#263238" stroke-width="0.3" stroke-linecap="round" stroke-linejoin="round"/>
<path d="M34.9254 35.6265C34.9254 35.6265 36.4757 37.5248 36.1138 37.6501C35.7519 37.7754 34.3564 36.2807 32.8252 35.971C31.294 35.6613 29.8585 35.0297 29.3452 34.5233C29.0827 34.284 28.8491 34.0148 28.6492 33.7212C28.6492 33.7212 32.2701 33.5698 34.9254 35.6265Z" fill="white" stroke="#263238" stroke-width="0.3" stroke-linecap="round" stroke-linejoin="round"/>
<path d="M26.53 36.7592L27.868 42.7066L26.1594 43.3765L25.0806 37.316L26.53 36.7592Z" fill="#56AA7A" stroke="#263238" stroke-width="0.3" stroke-linecap="round" stroke-linejoin="round"/>
<path d="M31.75 69.0606L29.8656 72.2396C29.8656 72.2396 30.278 72.5876 30.278 72.7703V73.3584C30.278 73.3584 32.6322 74.1832 33.1629 74.4198C33.6936 74.6564 33.8102 75.3611 33.751 75.5386C33.6918 75.7161 32.5156 75.951 31.3968 75.951C30.278 75.951 28.1569 75.4203 28.1569 75.4203C28.1569 75.4203 26.744 75.4203 26.2725 75.1262C25.8009 74.8322 25.9784 74.124 26.0985 73.595C26.2185 73.0661 26.3925 72.5354 26.3925 72.5354C26.3925 72.5354 26.3334 71.6515 26.4517 71.4166C26.57 71.1817 26.7458 70.945 26.7458 70.7084C26.7458 70.4717 27.5705 67.0544 27.5705 67.0544L31.75 69.0606Z" fill="#263238" stroke="#263238" stroke-width="0.3" stroke-linecap="round" stroke-linejoin="round"/>
<path d="M29.982 58.638L34.8105 71.8289L24.1495 65.7059L19.2288 53.6685L29.982 58.638Z" fill="#263238" stroke="#263238" stroke-width="0.3" stroke-linecap="round" stroke-linejoin="round"/>
<path d="M45.4697 47.3889L29.982 58.638L19.2288 53.6686L32.632 43.9159L45.4697 47.3889Z" fill="#CCE5D7" stroke="#263238" stroke-width="0.3" stroke-linecap="round" stroke-linejoin="round"/>
<path d="M45.4697 47.3889L49.945 60.5798L34.8104 71.8289L29.9819 58.638L45.4697 47.3889Z" fill="#E9FFF2" stroke="#263238" stroke-width="0.3" stroke-linecap="round" stroke-linejoin="round"/>
<path d="M39.3973 45.8003L24.8996 56.2716L25.9854 59.776L24.0139 58.5927L22.7524 55.3007L36.7873 45.0329L39.3973 45.8003Z" fill="#56AA7A" stroke="#263238" stroke-width="0.3" stroke-linecap="round" stroke-linejoin="round"/>
<path d="M39.397 45.8002L24.8994 56.2716L25.9851 59.7759L24.0137 58.5927L22.7522 55.3006L36.787 45.0329L39.397 45.8002Z" fill="#56AA7A" stroke="#263238" stroke-width="0.3" stroke-linecap="round" stroke-linejoin="round"/>
<path opacity="0.4" d="M39.397 45.8002L24.8994 56.2716L25.9851 59.7759L24.0137 58.5927L22.7522 55.3006L36.787 45.0329L39.397 45.8002Z" fill="white" stroke="#263238" stroke-width="0.3" stroke-linecap="round" stroke-linejoin="round"/>
<path d="M23.3839 55.5634L23.0759 55.419" stroke="#263238" stroke-width="0.3" stroke-linecap="round" stroke-linejoin="round"/>
<path d="M24.635 56.155L23.6101 55.6713" stroke="#263238" stroke-width="0.3" stroke-linecap="round" stroke-linejoin="round"/>
<path d="M43.4151 52.6454L45.16 53.882L45.5139 51.3996L44.9687 51.7241L44.2568 49.8211L43.2448 50.4197L43.9585 52.3227L43.4151 52.6454Z" fill="#263238"/>
<path d="M33.1251 60.7976L34.8717 62.0342L35.2239 59.5518L34.6805 59.8745L33.9667 57.9715L32.9565 58.5719L33.6685 60.4749L33.1251 60.7976Z" fill="#263238"/>
<path d="M49.7798 54.4794L49.9851 55.0693" stroke="#263238" stroke-width="0.3" stroke-linecap="round" stroke-linejoin="round"/>
<path d="M47.4795 47.8778L49.618 54.02" stroke="#263238" stroke-width="0.3" stroke-linecap="round" stroke-linejoin="round"/>
<path d="M50.4185 53.7938L51.1162 55.7966" stroke="#263238" stroke-width="0.3" stroke-linecap="round" stroke-linejoin="round"/>
<path d="M48.6106 48.6052L50.2445 53.2979" stroke="#263238" stroke-width="0.3" stroke-linecap="round" stroke-linejoin="round"/>
<path d="M39.371 44.4048L34.3076 43.0302" stroke="#263238" stroke-width="0.3" stroke-linecap="round" stroke-linejoin="round"/>
<path d="M40.8536 44.8067L39.9036 44.5492" stroke="#263238" stroke-width="0.3" stroke-linecap="round" stroke-linejoin="round"/>
<path d="M37.6207 43.4339L33.9041 42.4647" stroke="#263238" stroke-width="0.3" stroke-linecap="round" stroke-linejoin="round"/>
<path d="M36.1225 72.0151L35.5205 72.4432" stroke="#263238" stroke-width="0.3" stroke-linecap="round" stroke-linejoin="round"/>
<path d="M38.5915 70.2612L36.4705 71.768" stroke="#263238" stroke-width="0.3" stroke-linecap="round" stroke-linejoin="round"/>
<path d="M39.3172 70.7466L37.8643 71.7959" stroke="#263238" stroke-width="0.3" stroke-linecap="round" stroke-linejoin="round"/>
<path d="M35.9434 52.9865C36.1337 52.9465 36.3259 52.9163 36.5193 52.896C36.8178 52.9443 37.1225 52.9384 37.4189 52.8786C37.8139 52.7707 37.9948 52.8786 37.8852 53.1309C37.8161 53.2621 37.7193 53.3767 37.6015 53.4668C37.4837 53.5569 37.3478 53.6204 37.2031 53.6529C36.9874 53.6703 36.5071 53.6703 36.5071 53.6703L35.8599 53.0944L35.9434 52.9865Z" fill="white" stroke="#263238" stroke-width="0.3" stroke-linecap="round" stroke-linejoin="round"/>
<path d="M23.9565 40.0339C23.9565 40.0339 25.0214 41.0483 25.1171 42.1115C25.2128 43.1746 24.5342 49.2681 24.5342 49.2681C24.5342 49.2681 26.7092 50.3312 28.3535 51.2987C29.9978 52.2661 32.7539 53.4267 32.7539 53.4267C32.7539 53.4267 35.9433 52.8455 36.1852 52.943C36.4271 53.0404 37.7338 54.4411 37.7808 54.6343C37.8278 54.8274 37.5389 55.9393 37.5389 56.1341C37.5389 56.329 37.2884 56.3325 37.2884 56.3325H37.1039L36.9717 56.597C36.9384 56.6634 36.8892 56.7205 36.8285 56.7633C36.7678 56.8061 36.6974 56.8333 36.6237 56.8423L36.4305 56.8632C36.4305 56.8632 36.093 57.2512 35.8024 57.0094C35.5118 56.7675 34.8837 55.7026 34.8837 55.7026C34.8837 55.7026 33.3855 55.5582 32.9975 55.4138C32.6788 55.2773 32.3716 55.1156 32.0788 54.9301C32.0788 54.9301 23.1422 52.6524 22.2722 52.4105C21.4022 52.1687 21.0629 51.9268 20.7253 51.25C20.3877 50.5731 19.6187 43.855 19.6187 43.2755" fill="white"/>
<path d="M23.9565 40.0339C23.9565 40.0339 25.0214 41.0483 25.1171 42.1115C25.2128 43.1746 24.5342 49.2681 24.5342 49.2681C24.5342 49.2681 26.7092 50.3312 28.3535 51.2987C29.9978 52.2661 32.7539 53.4267 32.7539 53.4267C32.7539 53.4267 35.9433 52.8455 36.1852 52.943C36.4271 53.0404 37.7338 54.4411 37.7808 54.6343C37.8278 54.8274 37.5389 55.9393 37.5389 56.1341C37.5389 56.329 37.2884 56.3325 37.2884 56.3325H37.1039L36.9717 56.597C36.9384 56.6634 36.8892 56.7205 36.8285 56.7633C36.7678 56.8061 36.6974 56.8333 36.6237 56.8423L36.4305 56.8632C36.4305 56.8632 36.093 57.2512 35.8024 57.0094C35.5118 56.7675 34.8837 55.7026 34.8837 55.7026C34.8837 55.7026 33.3855 55.5582 32.9975 55.4138C32.6788 55.2773 32.3716 55.1156 32.0788 54.9301C32.0788 54.9301 23.1422 52.6524 22.2722 52.4105C21.4022 52.1687 21.0629 51.9268 20.7253 51.25C20.3877 50.5731 19.6187 43.855 19.6187 43.2755" stroke="#263238" stroke-width="0.3" stroke-linecap="round" stroke-linejoin="round"/>
<path d="M34.835 54.636C34.835 54.636 35.8511 55.506 35.8511 55.8453C35.8511 56.1846 36.3209 56.9276 36.3209 56.9276" stroke="#263238" stroke-width="0.3" stroke-linecap="round" stroke-linejoin="round"/>
<path d="M35.4404 54.0113C35.4404 54.0113 36.1242 54.7665 36.2669 55.0014C36.4096 55.2363 36.6149 56.8371 36.6149 56.8371" stroke="#263238" stroke-width="0.3" stroke-linecap="round" stroke-linejoin="round"/>
<path d="M35.9973 53.5624C35.9973 53.5624 36.8673 54.3715 36.8795 54.6777C36.8917 54.984 37.1074 56.3273 37.1074 56.3273" stroke="#263238" stroke-width="0.3" stroke-linecap="round" stroke-linejoin="round"/>
<path d="M23.906 39.9504C23.906 39.9504 25.0214 41.0483 25.124 42.1115C25.1919 42.8597 24.8787 46.0891 24.6855 47.944C23.7164 47.5873 21.8754 47.2045 20.2259 48.5443C19.9423 46.5085 19.6656 43.975 19.6187 43.2755" fill="#56AA7A"/>
<path d="M23.906 39.9504C23.906 39.9504 25.0214 41.0483 25.124 42.1115C25.1919 42.8597 24.8787 46.0891 24.6855 47.944C23.7164 47.5873 21.8754 47.2045 20.2259 48.5443C19.9423 46.5085 19.6656 43.975 19.6187 43.2755" stroke="#263238" stroke-width="0.3" stroke-linecap="round" stroke-linejoin="round"/>
<path d="M24.5342 49.2681C24.5342 49.2681 23.4223 48.9288 22.9873 49.0262" stroke="#263238" stroke-width="0.3" stroke-linecap="round" stroke-linejoin="round"/>
<path d="M21.2125 79.9408C21.2125 79.9408 22.5679 81.472 23.5684 82.2968C24.5689 83.1215 24.1565 83.8871 23.4501 84.0629C22.7437 84.2386 21.3308 83.9463 20.0345 83.5409C18.7382 83.1355 17.6803 81.7748 17.6803 81.7748C17.6803 81.7748 16.2065 80.8317 16.0899 80.4785C15.9733 80.1253 17.3253 78.474 17.3253 78.474C17.3253 78.474 20.8592 79.9408 21.2125 79.9408Z" fill="#56AA7A" stroke="#263238" stroke-width="0.3" stroke-linecap="round" stroke-linejoin="round"/>
<path d="M16.0898 80.4715C16.0481 80.3497 16.1838 80.0713 16.3804 79.7599C17.1617 80.4332 18.5606 82.3542 19.622 82.8919C20.5216 83.3408 22.5157 83.8262 23.9164 83.8262C23.7833 83.9441 23.6231 84.0272 23.45 84.0681C22.7436 84.2421 21.3307 83.9515 20.0344 83.5461C18.7381 83.1407 17.6802 81.78 17.6802 81.78C17.6802 81.78 16.2064 80.8247 16.0898 80.4715Z" fill="white" stroke="#263238" stroke-width="0.3" stroke-linecap="round" stroke-linejoin="round"/>
<path d="M13.9062 54.8692C13.9062 54.8692 16.1438 53.9261 17.7934 54.5734C19.4429 55.2206 22.387 57.8794 23.6224 59.7568C24.8578 61.6343 25.9261 62.466 25.86 64.2321C25.7939 65.9982 23.0342 73.8891 22.9159 74.5955C22.7976 75.302 22.0459 78.2339 22.0459 78.2339C22.087 78.6057 22.087 78.9809 22.0459 79.3527C21.992 79.8016 21.8476 80.5707 21.8476 80.5707C21.8476 80.5707 19.8674 80.4663 18.7486 79.9356C18.1348 79.6593 17.5603 79.3029 17.0399 78.8759C17.1162 78.4347 17.2327 78.0014 17.3879 77.5814C17.6246 76.9915 18.385 75.9458 18.5033 75.5908C18.6216 75.2359 18.9157 71.6462 18.9157 70.1742C18.9157 68.7022 19.5629 65.0499 19.5629 64.815C19.6142 64.4757 19.6928 64.1411 19.7978 63.8145C19.7978 63.8145 14.7936 61.3402 13.4381 60.1605C12.0827 58.9808 11.5067 57.8776 11.3728 56.8232C11.2771 56.0593 11.5937 54.9666 11.5937 54.9666" fill="white"/>
<path d="M13.9062 54.8692C13.9062 54.8692 16.1438 53.9261 17.7934 54.5734C19.4429 55.2206 22.387 57.8794 23.6224 59.7568C24.8578 61.6343 25.9261 62.466 25.86 64.2321C25.7939 65.9982 23.0342 73.8891 22.9159 74.5955C22.7976 75.302 22.0459 78.2339 22.0459 78.2339C22.087 78.6057 22.087 78.9809 22.0459 79.3527C21.992 79.8016 21.8476 80.5707 21.8476 80.5707C21.8476 80.5707 19.8674 80.4663 18.7486 79.9356C18.1348 79.6593 17.5603 79.3029 17.0399 78.8759C17.1162 78.4347 17.2327 78.0014 17.3879 77.5814C17.6246 76.9915 18.385 75.9458 18.5033 75.5908C18.6216 75.2359 18.9157 71.6462 18.9157 70.1742C18.9157 68.7022 19.5629 65.0499 19.5629 64.815C19.6142 64.4757 19.6928 64.1411 19.7978 63.8145C19.7978 63.8145 14.7936 61.3402 13.4381 60.1605C12.0827 58.9808 11.5067 57.8776 11.3728 56.8232C11.2771 56.0593 11.5937 54.9666 11.5937 54.9666" stroke="#263238" stroke-width="0.3" stroke-linecap="round" stroke-linejoin="round"/>
<path d="M13.3755 52.8073C13.3755 52.8073 12.6099 53.632 12.7282 53.9852C12.8466 54.3385 13.3755 54.984 13.1406 54.984C12.9057 54.984 12.5525 55.5147 12.5525 55.5147L13.0745 55.6313L12.8396 56.9867L19.9127 62.64C20.2426 62.9086 20.5975 63.1452 20.9724 63.3464L20.56 64.0529L21.3256 64.1712C21.3256 64.1712 20.2068 65.29 20.0902 66.2314C19.9736 67.1727 18.9748 77.0541 18.8565 77.3482C18.7382 77.6423 18.5625 77.8197 18.5085 78.1138C18.4787 78.4275 18.4787 78.7432 18.5085 79.0569C18.5085 79.2309 18.4494 79.645 18.4494 79.645" stroke="#263238" stroke-width="0.3" stroke-linecap="round" stroke-linejoin="round"/>
<path d="M34.2974 63.768L34.0699 63.8893L33.7278 63.2476L33.9571 63.1253C34.0217 63.0909 34.0841 63.0741 34.1444 63.0749C34.2046 63.0756 34.2599 63.0932 34.3105 63.1276C34.3613 63.162 34.4045 63.2125 34.44 63.2791C34.4756 63.346 34.4936 63.4102 34.4939 63.4717C34.4945 63.5331 34.4781 63.5892 34.4448 63.64C34.4117 63.6906 34.3626 63.7333 34.2974 63.768ZM34.1436 63.7007L34.2298 63.6548C34.2699 63.6334 34.2998 63.6083 34.3196 63.5795C34.3395 63.5504 34.3483 63.5171 34.3461 63.4797C34.3439 63.4419 34.3301 63.3991 34.3046 63.3513C34.2793 63.3039 34.2517 63.2689 34.2216 63.2462C34.1918 63.2235 34.1594 63.2123 34.1245 63.2127C34.0895 63.2131 34.052 63.224 34.0119 63.2454L33.9254 63.2915L34.1436 63.7007ZM35.1306 62.9118C35.1679 62.9817 35.1864 63.0484 35.186 63.1116C35.1859 63.1747 35.1699 63.2314 35.1382 63.2816C35.1065 63.3314 35.0624 63.3714 35.0058 63.4016C34.9488 63.432 34.8907 63.4464 34.8315 63.4446C34.7724 63.4429 34.7166 63.4245 34.6641 63.3894C34.6116 63.3544 34.5667 63.302 34.5295 63.2322C34.4922 63.1622 34.4737 63.0957 34.4738 63.0325C34.4739 62.9694 34.4898 62.9129 34.5215 62.863C34.553 62.813 34.5973 62.7727 34.6543 62.7423C34.7109 62.7121 34.7688 62.6979 34.8279 62.6996C34.8872 62.7011 34.943 62.7193 34.9955 62.7544C35.0482 62.7893 35.0933 62.8418 35.1306 62.9118ZM34.993 62.9851C34.9688 62.9398 34.9417 62.9052 34.9115 62.8813C34.8815 62.8573 34.85 62.8437 34.817 62.8407C34.784 62.8376 34.7511 62.8448 34.7183 62.8623C34.6855 62.8798 34.6612 62.9031 34.6453 62.9322C34.6294 62.9614 34.623 62.9951 34.626 63.0335C34.6292 63.0717 34.6429 63.1135 34.6671 63.1588C34.6913 63.2042 34.7183 63.2388 34.7483 63.2628C34.7785 63.2867 34.8101 63.3002 34.8431 63.3033C34.8761 63.3063 34.909 63.2991 34.9418 63.2816C34.9746 63.2641 34.999 63.2408 35.0148 63.2117C35.0307 63.1826 35.037 63.1489 35.0338 63.1106C35.0308 63.0723 35.0172 63.0304 34.993 62.9851ZM35.5225 63.1149L34.9967 62.571L35.1449 62.492L35.4889 62.8813L35.4942 62.8785L35.3737 62.3701L35.5006 62.3024L35.8557 62.6869L35.8613 62.6839L35.7293 62.1804L35.8776 62.1014L36.0361 62.8411L35.9038 62.9116L35.5579 62.5571L35.5529 62.5598L35.6547 63.0444L35.5225 63.1149ZM36.487 61.7765L36.8291 62.4183L36.7119 62.4808L36.2174 62.2257L36.2127 62.2282L36.428 62.6321L36.2923 62.7045L35.9502 62.0627L36.0693 61.9992L36.5615 62.2551L36.5671 62.2521L36.3519 61.8485L36.487 61.7765Z" fill="#263238"/>
<path d="M71.861 54.244H71.6032V53.5167H71.8631C71.9363 53.5167 71.9993 53.5313 72.0521 53.5604C72.1049 53.5893 72.1455 53.6308 72.1739 53.6851C72.2025 53.7393 72.2168 53.8041 72.2168 53.8797C72.2168 53.9554 72.2025 54.0205 72.1739 54.075C72.1455 54.1294 72.1046 54.1712 72.0514 54.2003C71.9983 54.2294 71.9349 54.244 71.861 54.244ZM71.757 54.1123H71.8546C71.9001 54.1123 71.9383 54.1042 71.9693 54.0881C72.0006 54.0718 72.024 54.0466 72.0396 54.0125C72.0555 53.9781 72.0634 53.9339 72.0634 53.8797C72.0634 53.8259 72.0555 53.782 72.0396 53.7479C72.024 53.7138 72.0007 53.6887 71.9697 53.6726C71.9387 53.6565 71.9004 53.6485 71.855 53.6485H71.757V54.1123ZM72.9991 53.8804C72.9991 53.9597 72.984 54.0271 72.954 54.0828C72.9241 54.1384 72.8834 54.1809 72.8318 54.2103C72.7804 54.2394 72.7227 54.2539 72.6585 54.2539C72.5939 54.2539 72.5359 54.2393 72.4845 54.2099C72.4331 54.1806 72.3925 54.1381 72.3627 54.0824C72.3329 54.0268 72.318 53.9594 72.318 53.8804C72.318 53.8011 72.3329 53.7336 72.3627 53.678C72.3925 53.6223 72.4331 53.5799 72.4845 53.5508C72.5359 53.5215 72.5939 53.5068 72.6585 53.5068C72.7227 53.5068 72.7804 53.5215 72.8318 53.5508C72.8834 53.5799 72.9241 53.6223 72.954 53.678C72.984 53.7336 72.9991 53.8011 72.9991 53.8804ZM72.8432 53.8804C72.8432 53.829 72.8355 53.7857 72.8201 53.7504C72.8049 53.7151 72.7835 53.6884 72.7558 53.6701C72.7281 53.6519 72.6957 53.6428 72.6585 53.6428C72.6213 53.6428 72.5889 53.6519 72.5612 53.6701C72.5335 53.6884 72.512 53.7151 72.4966 53.7504C72.4814 53.7857 72.4739 53.829 72.4739 53.8804C72.4739 53.9317 72.4814 53.9751 72.4966 54.0103C72.512 54.0456 72.5335 54.0724 72.5612 54.0906C72.5889 54.1088 72.6213 54.1179 72.6585 54.1179C72.6957 54.1179 72.7281 54.1088 72.7558 54.0906C72.7835 54.0724 72.8049 54.0456 72.8201 54.0103C72.8355 53.9751 72.8432 53.9317 72.8432 53.8804ZM73.2493 54.244L73.0412 53.5167H73.2092L73.3296 54.0221H73.3356L73.4684 53.5167H73.6123L73.7447 54.0231H73.7511L73.8715 53.5167H74.0395L73.8314 54.244H73.6815L73.543 53.7685H73.5373L73.3992 54.244H73.2493ZM74.7301 53.5167V54.244H74.5973L74.2808 53.7863H74.2755V54.244H74.1218V53.5167H74.2567L74.5706 53.9741H74.577V53.5167H74.7301Z" fill="#263238"/>
<path d="M58.6371 68.338H58.3793V67.6107H58.6393C58.7124 67.6107 58.7754 67.6253 58.8282 67.6544C58.881 67.6833 58.9216 67.7248 58.95 67.7791C58.9786 67.8333 58.993 67.8981 58.993 67.9737C58.993 68.0494 58.9786 68.1145 58.95 68.169C58.9216 68.2234 58.8807 68.2652 58.8275 68.2943C58.7744 68.3235 58.711 68.338 58.6371 68.338ZM58.5331 68.2063H58.6307C58.6762 68.2063 58.7144 68.1982 58.7454 68.1821C58.7767 68.1658 58.8001 68.1406 58.8158 68.1065C58.8316 68.0722 58.8396 68.0279 58.8396 67.9737C58.8396 67.9199 58.8316 67.876 58.8158 67.8419C58.8001 67.8078 58.7768 67.7827 58.7458 67.7666C58.7148 67.7505 58.6766 67.7425 58.6311 67.7425H58.5331V68.2063ZM59.7752 67.9744C59.7752 68.0537 59.7602 68.1212 59.7301 68.1768C59.7003 68.2324 59.6595 68.2749 59.6079 68.3043C59.5566 68.3334 59.4988 68.348 59.4346 68.348C59.37 68.348 59.312 68.3333 59.2606 68.3039C59.2093 68.2746 59.1687 68.2321 59.1388 68.1764C59.109 68.1208 59.0941 68.0534 59.0941 67.9744C59.0941 67.8951 59.109 67.8276 59.1388 67.772C59.1687 67.7163 59.2093 67.674 59.2606 67.6448C59.312 67.6155 59.37 67.6008 59.4346 67.6008C59.4988 67.6008 59.5566 67.6155 59.6079 67.6448C59.6595 67.674 59.7003 67.7163 59.7301 67.772C59.7602 67.8276 59.7752 67.8951 59.7752 67.9744ZM59.6193 67.9744C59.6193 67.923 59.6116 67.8797 59.5962 67.8444C59.5811 67.8091 59.5596 67.7824 59.5319 67.7641C59.5042 67.7459 59.4718 67.7368 59.4346 67.7368C59.3975 67.7368 59.365 67.7459 59.3373 67.7641C59.3096 67.7824 59.2881 67.8091 59.2727 67.8444C59.2575 67.8797 59.25 67.923 59.25 67.9744C59.25 68.0257 59.2575 68.0691 59.2727 68.1043C59.2881 68.1396 59.3096 68.1664 59.3373 68.1846C59.365 68.2028 59.3975 68.2119 59.4346 68.2119C59.4718 68.2119 59.5042 68.2028 59.5319 68.1846C59.5596 68.1664 59.5811 68.1396 59.5962 68.1043C59.6116 68.0691 59.6193 68.0257 59.6193 67.9744ZM60.0255 68.338L59.8174 67.6107H59.9853L60.1057 68.1161H60.1117L60.2446 67.6107H60.3884L60.5208 68.1171H60.5272L60.6476 67.6107H60.8156L60.6075 68.338H60.4576L60.3191 67.8625H60.3134L60.1753 68.338H60.0255ZM61.5062 67.6107V68.338H61.3734L61.057 67.8803H61.0516V68.338H60.8979V67.6107H61.0328L61.3467 68.0681H61.3531V67.6107H61.5062Z" fill="#263238"/>
<path d="M44.7373 55.7641L44.5098 55.8853L44.1677 55.2436L44.3971 55.1213C44.4616 55.0869 44.524 55.0701 44.5843 55.071C44.6445 55.0716 44.6999 55.0892 44.7505 55.1236C44.8012 55.158 44.8444 55.2085 44.8799 55.2752C44.9156 55.342 44.9336 55.4062 44.9339 55.4677C44.9344 55.5291 44.9181 55.5852 44.8848 55.636C44.8517 55.6866 44.8025 55.7293 44.7373 55.7641ZM44.5835 55.6968L44.6697 55.6508C44.7098 55.6294 44.7398 55.6043 44.7596 55.5755C44.7795 55.5464 44.7883 55.5131 44.786 55.4757C44.7839 55.438 44.7701 55.3952 44.7445 55.3473C44.7193 55.2999 44.6916 55.2649 44.6616 55.2423C44.6317 55.2195 44.5994 55.2084 44.5644 55.2087C44.5295 55.2091 44.492 55.22 44.4518 55.2414L44.3654 55.2875L44.5835 55.6968ZM45.5705 54.9078C45.6078 54.9778 45.6263 55.0444 45.6259 55.1076C45.6258 55.1707 45.6099 55.2274 45.5781 55.2776C45.5465 55.3274 45.5024 55.3675 45.4458 55.3976C45.3887 55.4281 45.3306 55.4424 45.2715 55.4407C45.2123 55.4389 45.1565 55.4205 45.104 55.3855C45.0515 55.3504 45.0067 55.298 44.9695 55.2282C44.9322 55.1582 44.9136 55.0917 44.9137 55.0285C44.9139 54.9654 44.9298 54.9089 44.9614 54.8591C44.9929 54.809 45.0372 54.7687 45.0942 54.7383C45.1509 54.7082 45.2087 54.6939 45.2679 54.6957C45.3271 54.6971 45.383 54.7153 45.4355 54.7504C45.4882 54.7853 45.5332 54.8378 45.5705 54.9078ZM45.4329 54.9811C45.4088 54.9358 45.3816 54.9012 45.3514 54.8773C45.3215 54.8533 45.29 54.8398 45.257 54.8367C45.2239 54.8337 45.191 54.8409 45.1582 54.8584C45.1254 54.8758 45.1011 54.8991 45.0852 54.9283C45.0694 54.9574 45.0629 54.9911 45.066 55.0295C45.0692 55.0677 45.0829 55.1095 45.1071 55.1549C45.1312 55.2002 45.1583 55.2349 45.1883 55.2589C45.2184 55.2828 45.25 55.2962 45.283 55.2993C45.3161 55.3023 45.349 55.2951 45.3818 55.2776C45.4146 55.2601 45.4389 55.2368 45.4548 55.2077C45.4706 55.1786 45.4769 55.1449 45.4737 55.1067C45.4707 55.0683 45.4571 55.0265 45.4329 54.9811ZM45.9624 55.1109L45.4366 54.5671L45.5849 54.488L45.9288 54.8773L45.9342 54.8745L45.8136 54.3661L45.9405 54.2984L46.2956 54.683L46.3013 54.6799L46.1693 54.1765L46.3175 54.0974L46.476 54.8371L46.3438 54.9076L45.9979 54.5532L45.9929 54.5558L46.0947 55.0404L45.9624 55.1109ZM46.9269 53.7725L47.2691 54.4143L47.1519 54.4768L46.6573 54.2217L46.6526 54.2242L46.868 54.6281L46.7323 54.7005L46.3901 54.0587L46.5092 53.9952L47.0014 54.2512L47.007 54.2481L46.7919 53.8445L46.9269 53.7725Z" fill="#263238"/>
</svg>
