<svg width="33" height="33" viewBox="0 0 33 33" fill="none" xmlns="http://www.w3.org/2000/svg">
<path d="M19.1309 30.0001H13.129V32.2501H19.1309V30.0001ZM2.25006 16.0346V13.1251H5.91873e-05V16.0346H2.25006ZM20.4686 5.04188L26.4088 10.3862L27.9136 8.71356L21.9736 3.36921L20.4686 5.04188ZM26.4088 10.3862C28.4395 12.2134 29.189 12.9182 29.588 13.814L31.6433 12.8984C31.0042 11.4635 29.7967 10.4077 27.9136 8.71356L26.4088 10.3862ZM13.1737 2.25008C15.5471 2.25008 16.4429 2.26743 17.2414 2.57372L18.0472 0.472981C16.7692 -0.0172792 15.3767 7.58703e-05 13.1737 7.58703e-05V2.25008ZM21.9736 3.36921C20.344 1.9031 19.3252 0.963211 18.0472 0.472981L17.2414 2.57372C18.04 2.88006 18.7135 3.46278 20.4686 5.04188L21.9736 3.36921ZM13.129 30.0001C10.2678 30.0001 8.23512 29.9977 6.69306 29.7904C5.18332 29.5876 4.31344 29.207 3.67836 28.5721L2.08762 30.1633C3.21048 31.2859 4.63425 31.784 6.39334 32.0204C8.12011 32.2525 10.3314 32.2501 13.129 32.2501V30.0001ZM19.1309 32.2501C21.9286 32.2501 24.1399 32.2525 25.8665 32.0204C27.6257 31.784 29.0495 31.2859 30.1723 30.1633L28.5815 28.5721C27.9464 29.207 27.0766 29.5876 25.5668 29.7904C24.0248 29.9977 21.9922 30.0001 19.1309 30.0001V32.2501ZM2.25006 13.1251C2.25006 10.2648 2.25244 8.23287 2.45976 6.6914C2.66272 5.18234 3.04332 4.31289 3.67836 3.67806L2.08762 2.08682C0.964724 3.20934 0.466364 4.6328 0.229844 6.39149C-0.00232579 8.11779 5.91873e-05 10.3285 5.91873e-05 13.1251H2.25006ZM13.1737 7.58703e-05C10.3611 7.58703e-05 8.13901 -0.00229418 6.40519 0.229681C4.63989 0.465871 3.21135 0.963451 2.08762 2.08682L3.67836 3.67806C4.31257 3.04406 5.18512 2.66297 6.70356 2.45981C8.25346 2.25245 10.2977 2.25008 13.1737 2.25008V7.58703e-05ZM24.9377 18.3469C26.8732 19.6369 29.3947 19.6369 31.3301 18.3469L30.0823 16.4746C28.9025 17.2609 27.3653 17.2609 26.1856 16.4746L24.9377 18.3469ZM13.3241 18.3469C14.1146 17.8202 15.1444 17.8202 15.9347 18.3469L17.1826 16.4746C15.6365 15.4442 13.6225 15.4442 12.0764 16.4746L13.3241 18.3469ZM6.93183 18.3469C8.86729 19.6369 11.3887 19.6369 13.3241 18.3469L12.0764 16.4746C10.8966 17.2609 9.35944 17.2609 8.17963 16.4746L6.93183 18.3469ZM4.32123 18.3469C5.11164 17.8202 6.14142 17.8202 6.93183 18.3469L8.17963 16.4746C6.63357 15.4442 4.61949 15.4442 3.07344 16.4746L4.32123 18.3469ZM24.9377 24.3469C26.8732 25.6369 29.3947 25.6369 31.3301 24.3469L30.0823 22.4746C28.9025 23.2609 27.3653 23.2609 26.1856 22.4746L24.9377 24.3469ZM22.3271 24.3469C23.1175 23.8202 24.1474 23.8202 24.9377 24.3469L26.1856 22.4746C24.6395 21.4442 22.6253 21.4442 21.0793 22.4746L22.3271 24.3469ZM15.9347 24.3469C17.8703 25.6369 20.3917 25.6369 22.3271 24.3469L21.0793 22.4746C19.8995 23.2609 18.3625 23.2609 17.1826 22.4746L15.9347 24.3469ZM13.3241 24.3469C14.1146 23.8202 15.1444 23.8202 15.9347 24.3469L17.1826 22.4746C15.6365 21.4442 13.6225 21.4442 12.0764 22.4746L13.3241 24.3469ZM22.3271 18.3469C23.1175 17.8202 24.1474 17.8202 24.9377 18.3469L26.1856 16.4746C24.6395 15.4442 22.6253 15.4442 21.0793 16.4746L22.3271 18.3469ZM6.93183 24.3469C8.86729 25.6369 11.3887 25.6369 13.3241 24.3469L12.0764 22.4746C10.8966 23.2609 9.35944 23.2609 8.17963 22.4746L6.93183 24.3469ZM15.9347 18.3469C17.8703 19.6369 20.3917 19.6369 22.3271 18.3469L21.0793 16.4746C19.8995 17.2609 18.3625 17.2609 17.1826 16.4746L15.9347 18.3469ZM4.32123 24.3469C5.11164 23.8202 6.14142 23.8202 6.93183 24.3469L8.17963 22.4746C6.63357 21.4442 4.61949 21.4442 3.07344 22.4746L4.32123 24.3469ZM3.38193 24.973L4.32123 24.3469L3.07344 22.4746L2.13412 23.1007L3.38193 24.973ZM0.448124 27.0583C0.740579 28.2851 1.23714 29.3131 2.08762 30.1633L3.67836 28.5721C3.19011 28.084 2.85768 27.4631 2.6368 26.5366L0.448124 27.0583ZM29.9585 23.5751C29.8426 26.372 29.4635 27.6905 28.5815 28.5721L30.1723 30.1633C31.7167 28.6195 32.0896 26.4923 32.2066 23.6683L29.9585 23.5751ZM32.2498 16.5952C32.2222 15.1061 32.1226 13.9741 31.6433 12.8984L29.588 13.814C29.8691 14.4451 29.9732 15.1811 30.0001 16.6369L32.2498 16.5952ZM31.3301 18.3469C31.9091 17.9611 32.2628 17.3042 32.2498 16.5952L30.0001 16.6369C29.9987 16.5655 30.034 16.5068 30.0823 16.4746L31.3301 18.3469ZM2.13412 23.1007C1.7766 23.3389 1.42482 23.5711 1.14972 23.807C0.845774 24.0677 0.572354 24.3832 0.399584 24.8227L2.49361 25.6459C2.49688 25.6375 2.49988 25.6313 2.50933 25.619C2.52154 25.6031 2.55018 25.5701 2.61454 25.5149C2.76223 25.3882 2.98 25.2407 3.38193 24.973L2.13412 23.1007ZM2.6368 26.5366C2.54074 26.1335 2.49684 25.9388 2.48278 25.7918C2.47344 25.694 2.48298 25.6729 2.49361 25.6459L0.399584 24.8227C0.0734242 25.6523 0.291989 26.4032 0.448124 27.0583L2.6368 26.5366ZM31.3301 24.3469C30.7343 24.7439 29.9284 24.3019 29.9585 23.5751L32.2066 23.6683C32.2531 22.5458 31.0076 21.8579 30.0823 22.4746L31.3301 24.3469ZM5.91873e-05 16.0346C5.91873e-05 16.243 -0.00186075 16.4506 0.0161692 16.6126L2.25235 16.3637C2.25387 16.3772 2.25208 16.3691 2.25106 16.3052C2.25009 16.2442 2.25006 16.162 2.25006 16.0346H5.91873e-05ZM3.07344 16.4746C2.96742 16.5452 2.89902 16.5908 2.84766 16.6238C2.7939 16.6585 2.78608 16.6616 2.79814 16.6553L3.8313 18.6541C3.97603 18.5792 4.14772 18.4625 4.32123 18.3469L3.07344 16.4746ZM0.0161692 16.6126C0.219869 18.443 2.19585 19.4995 3.8313 18.6541L2.79814 16.6553C2.56372 16.7765 2.28141 16.6247 2.25235 16.3637L0.0161692 16.6126Z" fill="white"/>
</svg>
