<svg width="144" height="96" viewBox="0 0 144 96" fill="none" xmlns="http://www.w3.org/2000/svg">
<path d="M7.75491 65.0688C4.55428 41.3606 20.6016 19.3152 44.0679 14.665C47.424 14.0006 51.1373 13.44 55.2288 13.0349C78.8448 10.7309 96.7008 32.8109 113.021 39.1469C129.341 45.4829 136.829 44.7149 138.365 65.0669C139.901 85.4189 121.277 91.7549 100.157 87.7229C79.0368 83.6909 80.5728 73.1309 56.3808 81.7709C32.1888 90.4109 21.2448 92.3309 12.6048 79.0829C10.1223 75.2755 8.47876 70.4352 7.75491 65.0688Z" fill="#56AA7A"/>
<path opacity="0.7" d="M7.75491 65.0688C4.55428 41.3606 20.6016 19.3152 44.0679 14.665C47.424 14.0006 51.1373 13.44 55.2288 13.0349C78.8448 10.7309 96.7008 32.8109 113.021 39.1469C129.341 45.4829 136.829 44.7149 138.365 65.0669C139.901 85.4189 121.277 91.7549 100.157 87.7229C79.0368 83.6909 80.5728 73.1309 56.3808 81.7709C32.1888 90.4109 21.2448 92.3309 12.6048 79.0829C10.1223 75.2755 8.47876 70.4352 7.75491 65.0688Z" fill="white"/>
<path d="M15.1201 64.0953L13.0273 84.1459" stroke="#263238" stroke-width="0.3" stroke-miterlimit="10"/>
<path d="M13.3633 80.3078L14.3118 79.3075" stroke="#263238" stroke-width="0.3" stroke-miterlimit="10"/>
<path d="M14.016 79.607C14.0186 79.4533 14.0542 79.3018 14.1205 79.163C14.1868 79.0242 14.2821 78.9013 14.4 78.8025C14.6438 78.5856 15.9245 78.0461 16.0473 78.4973C16.1798 78.9888 14.8684 79.9526 14.016 79.607Z" fill="#56AA7A" stroke="#263238" stroke-width="0.3" stroke-miterlimit="10"/>
<path opacity="0.4" d="M14.016 79.607C14.0186 79.4533 14.0542 79.3018 14.1205 79.163C14.1868 79.0242 14.2821 78.9013 14.4 78.8025C14.6438 78.5856 15.9245 78.0461 16.0473 78.4973C16.1798 78.9888 14.8684 79.9526 14.016 79.607Z" fill="white" stroke="#263238" stroke-width="0.3" stroke-miterlimit="10"/>
<path d="M14.0237 79.607L15.2449 78.8467" stroke="#263238" stroke-width="0.3" stroke-miterlimit="10"/>
<path d="M13.1253 82.5888L14.0757 81.5865" stroke="#263238" stroke-width="0.3" stroke-miterlimit="10"/>
<path d="M13.7857 81.888C13.7885 81.734 13.8242 81.5823 13.8904 81.4432C13.9566 81.3041 14.0519 81.1808 14.1697 81.0816C14.4136 80.8646 15.6942 80.3251 15.8171 80.7763C15.9361 81.2678 14.6305 82.2317 13.7857 81.888Z" fill="#56AA7A" stroke="#263238" stroke-width="0.3" stroke-miterlimit="10"/>
<path opacity="0.4" d="M13.7857 81.888C13.7885 81.734 13.8242 81.5823 13.8904 81.4432C13.9566 81.3041 14.0519 81.1808 14.1697 81.0816C14.4136 80.8646 15.6942 80.3251 15.8171 80.7763C15.9361 81.2678 14.6305 82.2317 13.7857 81.888Z" fill="white" stroke="#263238" stroke-width="0.3" stroke-miterlimit="10"/>
<path d="M13.7857 81.888L15.0068 81.1277" stroke="#263238" stroke-width="0.3" stroke-miterlimit="10"/>
<path d="M13.9451 74.7437L14.8936 73.7433" stroke="#263238" stroke-width="0.3" stroke-miterlimit="10"/>
<path d="M14.6056 74.0429C14.6084 73.8891 14.6441 73.7378 14.7103 73.599C14.7765 73.4602 14.8718 73.3372 14.9896 73.2384C15.2334 73.0214 16.5256 72.4819 16.637 72.9331C16.7618 73.4246 15.4504 74.3885 14.6056 74.0429Z" fill="#56AA7A" stroke="#263238" stroke-width="0.3" stroke-miterlimit="10"/>
<path opacity="0.4" d="M14.6054 74.0428C14.6081 73.8891 14.6438 73.7377 14.7101 73.5989C14.7763 73.4601 14.8715 73.3372 14.9894 73.2383C15.2332 73.0214 16.5254 72.4819 16.6367 72.9331C16.7615 73.4246 15.4502 74.3884 14.6054 74.0428Z" fill="white" stroke="#263238" stroke-width="0.3" stroke-miterlimit="10"/>
<path d="M14.6055 74.0429L15.8247 73.2825" stroke="#263238" stroke-width="0.3" stroke-miterlimit="10"/>
<path d="M13.707 77.0246L14.6555 76.0224" stroke="#263238" stroke-width="0.3" stroke-miterlimit="10"/>
<path d="M14.3673 76.3238C14.3702 76.1698 14.4059 76.0182 14.4721 75.8791C14.5384 75.74 14.6336 75.6167 14.7513 75.5174C14.9952 75.3005 16.2873 74.761 16.3987 75.2141C16.5235 75.7037 15.2121 76.6675 14.3673 76.3238Z" fill="#56AA7A" stroke="#263238" stroke-width="0.3" stroke-miterlimit="10"/>
<path opacity="0.4" d="M14.3676 76.3238C14.3704 76.1698 14.4062 76.0182 14.4724 75.8791C14.5386 75.74 14.6338 75.6167 14.7516 75.5174C14.9954 75.3005 16.2876 74.7609 16.3989 75.214C16.5237 75.7036 15.2124 76.6675 14.3676 76.3238Z" fill="white" stroke="#263238" stroke-width="0.3" stroke-miterlimit="10"/>
<path d="M14.3675 76.3238L15.5867 75.5635" stroke="#263238" stroke-width="0.3" stroke-miterlimit="10"/>
<path d="M14.3311 71.04L15.2795 70.0378" stroke="#263238" stroke-width="0.3" stroke-miterlimit="10"/>
<path d="M14.9916 70.3392C14.9942 70.1854 15.0298 70.034 15.0961 69.8952C15.1623 69.7564 15.2576 69.6335 15.3756 69.5347C15.6194 69.3158 16.9 68.7782 17.021 69.2294C17.1477 69.719 15.8364 70.6829 14.9916 70.3392Z" fill="#56AA7A" stroke="#263238" stroke-width="0.3" stroke-miterlimit="10"/>
<path opacity="0.4" d="M14.9913 70.3392C14.9939 70.1854 15.0296 70.034 15.0958 69.8952C15.1621 69.7564 15.2574 69.6334 15.3753 69.5347C15.6192 69.3158 16.8998 68.7782 17.0208 69.2294C17.1475 69.719 15.8361 70.6828 14.9913 70.3392Z" fill="white" stroke="#263238" stroke-width="0.3" stroke-miterlimit="10"/>
<path d="M14.9915 70.3392L16.2107 69.5789" stroke="#263238" stroke-width="0.3" stroke-miterlimit="10"/>
<path d="M14.7188 67.3209L15.6672 66.3187" stroke="#263238" stroke-width="0.3" stroke-miterlimit="10"/>
<path d="M15.3793 66.624C15.3819 66.4702 15.4176 66.3188 15.4838 66.18C15.5501 66.0412 15.6454 65.9183 15.7633 65.8195C16.0071 65.6026 17.2878 65.063 17.4106 65.5142C17.5354 66 16.2241 66.9638 15.3793 66.624Z" fill="#56AA7A" stroke="#263238" stroke-width="0.3" stroke-miterlimit="10"/>
<path opacity="0.4" d="M15.3793 66.624C15.3819 66.4702 15.4176 66.3188 15.4838 66.18C15.5501 66.0412 15.6454 65.9183 15.7633 65.8195C16.0071 65.6026 17.2878 65.063 17.4106 65.5142C17.5354 66 16.2241 66.9638 15.3793 66.624Z" fill="white" stroke="#263238" stroke-width="0.3" stroke-miterlimit="10"/>
<path d="M15.3792 66.6182L16.6003 65.8579" stroke="#263238" stroke-width="0.3" stroke-miterlimit="10"/>
<path d="M13.5227 78.96L12.8027 77.783" stroke="#263238" stroke-width="0.3" stroke-miterlimit="10"/>
<path d="M13.0215 78.144C13.0515 77.9935 13.0489 77.8383 13.0138 77.6889C12.9787 77.5395 12.9119 77.3994 12.8179 77.2781C12.6259 77.015 11.4739 76.224 11.2704 76.6406C11.04 77.0861 12.1248 78.2995 13.0215 78.144Z" fill="#56AA7A" stroke="#263238" stroke-width="0.3" stroke-miterlimit="10"/>
<path opacity="0.4" d="M13.0217 78.144C13.0518 77.9935 13.0492 77.8383 13.0141 77.6889C12.9789 77.5395 12.9122 77.3994 12.8182 77.2781C12.6262 77.015 11.4742 76.224 11.2707 76.6406C11.0403 77.0861 12.1251 78.2995 13.0217 78.144Z" fill="white" stroke="#263238" stroke-width="0.3" stroke-miterlimit="10"/>
<path d="M13.0215 78.1363L11.9232 77.0861" stroke="#263238" stroke-width="0.3" stroke-miterlimit="10"/>
<path d="M14.1504 72.96L13.4285 71.783" stroke="#263238" stroke-width="0.3" stroke-miterlimit="10"/>
<path d="M13.6494 72.1363C13.6781 71.9854 13.6743 71.8301 13.6383 71.6807C13.6022 71.5314 13.5346 71.3915 13.4401 71.2704C13.2481 71.0073 12.0961 70.2163 11.8906 70.6329C11.666 71.0861 12.7508 72.2995 13.6494 72.1363Z" fill="#56AA7A" stroke="#263238" stroke-width="0.3" stroke-miterlimit="10"/>
<path opacity="0.4" d="M13.6494 72.1363C13.6781 71.9854 13.6743 71.8301 13.6383 71.6807C13.6022 71.5314 13.5346 71.3915 13.4401 71.2704C13.2481 71.0073 12.0961 70.2163 11.8906 70.6329C11.666 71.0861 12.7508 72.2995 13.6494 72.1363Z" fill="white" stroke="#263238" stroke-width="0.3" stroke-miterlimit="10"/>
<path d="M13.6494 72.1363L12.5492 71.0861" stroke="#263238" stroke-width="0.3" stroke-miterlimit="10"/>
<path d="M14.425 70.3219L13.7031 69.1469" stroke="#263238" stroke-width="0.3" stroke-miterlimit="10"/>
<path d="M13.9239 69.504C13.9534 69.3538 13.9505 69.199 13.9154 69.05C13.8804 68.901 13.8138 68.7612 13.7204 68.64C13.5284 68.3769 12.3764 67.584 12.1728 68.0006C11.9424 68.448 13.0253 69.6614 13.9239 69.504Z" fill="#56AA7A" stroke="#263238" stroke-width="0.3" stroke-miterlimit="10"/>
<path opacity="0.4" d="M13.9241 69.504C13.9537 69.3538 13.9508 69.199 13.9157 69.05C13.8806 68.901 13.8141 68.7612 13.7206 68.64C13.5286 68.377 12.3766 67.584 12.1731 68.0007C11.9427 68.448 13.0256 69.6614 13.9241 69.504Z" fill="white" stroke="#263238" stroke-width="0.3" stroke-miterlimit="10"/>
<path d="M13.9238 69.4982L12.8256 68.4499" stroke="#263238" stroke-width="0.3" stroke-miterlimit="10"/>
<path d="M14.8281 66.457L14.1062 65.28" stroke="#263238" stroke-width="0.3" stroke-miterlimit="10"/>
<path d="M14.3272 65.6333C14.3567 65.4828 14.3539 65.3277 14.3188 65.1784C14.2837 65.029 14.2172 64.8889 14.1236 64.7673C13.9316 64.5043 12.7797 63.7133 12.5761 64.1299C12.3457 64.583 13.4286 65.7965 14.3272 65.6333Z" fill="#56AA7A" stroke="#263238" stroke-width="0.3" stroke-miterlimit="10"/>
<path opacity="0.4" d="M14.3269 65.6332C14.3565 65.4827 14.3536 65.3277 14.3185 65.1783C14.2835 65.029 14.2169 64.8889 14.1234 64.7673C13.9314 64.5043 12.7794 63.7132 12.5759 64.1299C12.3455 64.583 13.4284 65.7964 14.3269 65.6332Z" fill="white" stroke="#263238" stroke-width="0.3" stroke-miterlimit="10"/>
<path d="M14.3271 65.6333L13.2289 64.583" stroke="#263238" stroke-width="0.3" stroke-miterlimit="10"/>
<path d="M15.1373 63.984C15.1668 63.8338 15.1639 63.679 15.1288 63.53C15.0937 63.381 15.0272 63.2412 14.9338 63.12C14.7418 62.8569 13.5897 62.064 13.3862 62.4806C13.1539 62.9338 14.2387 64.1472 15.1373 63.984Z" fill="#56AA7A" stroke="#263238" stroke-width="0.3" stroke-miterlimit="10"/>
<path opacity="0.4" d="M15.1375 63.984C15.1671 63.8338 15.1642 63.679 15.1291 63.53C15.094 63.381 15.0275 63.2412 14.934 63.12C14.742 62.8569 13.59 62.064 13.3865 62.4806C13.1541 62.9338 14.239 64.1472 15.1375 63.984Z" fill="white" stroke="#263238" stroke-width="0.3" stroke-miterlimit="10"/>
<path d="M15.1375 63.984L14.0392 62.9357" stroke="#263238" stroke-width="0.3" stroke-miterlimit="10"/>
<path d="M15.0739 64.0301C15.2267 64.044 15.3806 64.025 15.5254 63.9743C15.6701 63.9236 15.8023 63.8425 15.913 63.7363C16.153 63.5174 16.8211 62.2982 16.3853 62.1312C15.9111 61.9488 14.8166 63.1546 15.0739 64.0301Z" fill="#56AA7A" stroke="#263238" stroke-width="0.3" stroke-miterlimit="10"/>
<path opacity="0.4" d="M15.0742 64.0301C15.2269 64.044 15.3809 64.025 15.5256 63.9744C15.6704 63.9237 15.8025 63.8425 15.9132 63.7363C16.1532 63.5175 16.8214 62.2983 16.3855 62.1312C15.9113 61.9488 14.8169 63.1546 15.0742 64.0301Z" fill="white" stroke="#263238" stroke-width="0.3" stroke-miterlimit="10"/>
<path d="M15.0741 64.0301L16.0015 62.8282" stroke="#263238" stroke-width="0.3" stroke-miterlimit="10"/>
<path d="M9.60011 66.8563L11.6814 86.9088" stroke="#263238" stroke-width="0.3" stroke-miterlimit="10"/>
<path d="M11.2205 83.0842L11.9424 81.9072" stroke="#263238" stroke-width="0.3" stroke-miterlimit="10"/>
<path d="M11.7237 82.2605C11.6935 82.1103 11.6961 81.9554 11.7312 81.8063C11.7663 81.6572 11.8332 81.5174 11.9272 81.3965C12.1192 81.1334 13.2712 80.3424 13.4747 80.759C13.7051 81.216 12.6203 82.4256 11.7237 82.2605Z" fill="#56AA7A" stroke="#263238" stroke-width="0.3" stroke-miterlimit="10"/>
<path opacity="0.4" d="M11.7235 82.2605C11.6933 82.1103 11.6958 81.9554 11.731 81.8063C11.7661 81.6572 11.8329 81.5174 11.927 81.3965C12.119 81.1334 13.271 80.3424 13.4745 80.759C13.7049 81.216 12.6201 82.4256 11.7235 82.2605Z" fill="white" stroke="#263238" stroke-width="0.3" stroke-miterlimit="10"/>
<path d="M11.7237 82.2605L12.7605 81.2659" stroke="#263238" stroke-width="0.3" stroke-miterlimit="10"/>
<path d="M10.6445 77.52L11.3665 76.343" stroke="#263238" stroke-width="0.3" stroke-miterlimit="10"/>
<path d="M11.136 76.6963C11.1059 76.5461 11.1084 76.3912 11.1435 76.2421C11.1787 76.093 11.2455 75.9532 11.3396 75.8323C11.5316 75.5693 12.6836 74.7763 12.8871 75.1929C13.1271 75.648 12.0423 76.8595 11.136 76.6963Z" fill="#56AA7A" stroke="#263238" stroke-width="0.3" stroke-miterlimit="10"/>
<path opacity="0.4" d="M11.136 76.6963C11.1059 76.5461 11.1084 76.3912 11.1435 76.2421C11.1787 76.093 11.2455 75.9532 11.3396 75.8323C11.5316 75.5692 12.6836 74.7763 12.8871 75.1929C13.1271 75.648 12.0423 76.8595 11.136 76.6963Z" fill="white" stroke="#263238" stroke-width="0.3" stroke-miterlimit="10"/>
<path d="M11.1456 76.6963L12.1824 75.7018" stroke="#263238" stroke-width="0.3" stroke-miterlimit="10"/>
<path d="M10.8806 79.799L11.6025 78.624" stroke="#263238" stroke-width="0.3" stroke-miterlimit="10"/>
<path d="M11.3818 78.9773C11.3522 78.8268 11.3551 78.6717 11.3901 78.5224C11.4252 78.373 11.4918 78.2329 11.5853 78.1113C11.7773 77.8483 12.9293 77.0573 13.1347 77.4739C13.3651 77.927 12.288 79.1405 11.3818 78.9773Z" fill="#56AA7A" stroke="#263238" stroke-width="0.3" stroke-miterlimit="10"/>
<path opacity="0.4" d="M11.382 78.9772C11.3524 78.8267 11.3553 78.6716 11.3904 78.5223C11.4255 78.373 11.492 78.2329 11.5855 78.1113C11.7775 77.8483 12.9295 77.0572 13.135 77.4739C13.3654 77.927 12.2882 79.1404 11.382 78.9772Z" fill="white" stroke="#263238" stroke-width="0.3" stroke-miterlimit="10"/>
<path d="M11.3819 78.9773L12.4187 77.9827" stroke="#263238" stroke-width="0.3" stroke-miterlimit="10"/>
<path d="M10.2585 73.8144L10.9805 72.6393" stroke="#263238" stroke-width="0.3" stroke-miterlimit="10"/>
<path d="M10.752 72.9926C10.7219 72.8421 10.7245 72.6869 10.7596 72.5375C10.7948 72.3881 10.8616 72.248 10.9555 72.1267C11.1475 71.8637 12.2995 71.0726 12.503 71.4893C12.743 71.9424 11.6582 73.152 10.752 72.9926Z" fill="#56AA7A" stroke="#263238" stroke-width="0.3" stroke-miterlimit="10"/>
<path opacity="0.4" d="M10.7522 72.9926C10.7222 72.8421 10.7248 72.6869 10.7599 72.5375C10.795 72.3881 10.8618 72.248 10.9558 72.1267C11.1478 71.8637 12.2998 71.0726 12.5033 71.4893C12.7433 71.9424 11.6585 73.152 10.7522 72.9926Z" fill="white" stroke="#263238" stroke-width="0.3" stroke-miterlimit="10"/>
<path d="M10.7618 72.9926L11.7986 71.9981" stroke="#263238" stroke-width="0.3" stroke-miterlimit="10"/>
<path d="M9.8728 70.0954L10.5947 68.9184" stroke="#263238" stroke-width="0.3" stroke-miterlimit="10"/>
<path d="M10.368 69.2717C10.3378 69.1215 10.3404 68.9666 10.3755 68.8175C10.4106 68.6684 10.4775 68.5286 10.5715 68.4077C10.7635 68.1446 11.9155 67.3517 12.119 67.7683C12.3571 68.2214 11.2723 69.4349 10.368 69.2717Z" fill="#56AA7A" stroke="#263238" stroke-width="0.3" stroke-miterlimit="10"/>
<path opacity="0.4" d="M10.368 69.2717C10.3378 69.1215 10.3404 68.9666 10.3755 68.8175C10.4106 68.6684 10.4775 68.5286 10.5715 68.4077C10.7635 68.1447 11.9155 67.3517 12.119 67.7683C12.3571 68.2215 11.2723 69.4349 10.368 69.2717Z" fill="white" stroke="#263238" stroke-width="0.3" stroke-miterlimit="10"/>
<path d="M10.3758 69.2717L11.4126 68.2771" stroke="#263238" stroke-width="0.3" stroke-miterlimit="10"/>
<path d="M11.0996 81.7305L10.1511 80.7283" stroke="#263238" stroke-width="0.3" stroke-miterlimit="10"/>
<path d="M10.4392 81.024C10.4362 80.8703 10.4004 80.719 10.3342 80.5802C10.2679 80.4415 10.1728 80.3185 10.0552 80.2195C9.81137 80.0026 8.53073 79.463 8.40785 79.9142C8.28305 80.4077 9.60017 81.3734 10.4392 81.024Z" fill="#56AA7A" stroke="#263238" stroke-width="0.3" stroke-miterlimit="10"/>
<path opacity="0.4" d="M10.439 81.024C10.436 80.8703 10.4002 80.719 10.3339 80.5803C10.2677 80.4415 10.1726 80.3185 10.055 80.2195C9.81112 80.0026 8.53048 79.4631 8.4076 79.9143C8.2828 80.4077 9.59992 81.3735 10.439 81.024Z" fill="white" stroke="#263238" stroke-width="0.3" stroke-miterlimit="10"/>
<path d="M10.4392 81.0278L9.14897 80.2272" stroke="#263238" stroke-width="0.3" stroke-miterlimit="10"/>
<path d="M10.4775 75.7305L9.52906 74.7283" stroke="#263238" stroke-width="0.3" stroke-miterlimit="10"/>
<path d="M9.81714 75.0278C9.81451 74.874 9.77886 74.7226 9.71261 74.5838C9.64636 74.445 9.55105 74.3221 9.43314 74.2233C9.19122 74.0045 7.90866 73.4649 7.7877 73.9161C7.66098 74.4077 8.97234 75.3715 9.81714 75.0278Z" fill="#56AA7A" stroke="#263238" stroke-width="0.3" stroke-miterlimit="10"/>
<path opacity="0.4" d="M9.81689 75.0278C9.81427 74.8741 9.77862 74.7227 9.71236 74.5839C9.64611 74.4451 9.5508 74.3221 9.43289 74.2234C9.19097 74.0045 7.90841 73.465 7.78745 73.9162C7.66073 74.4077 8.97209 75.3715 9.81689 75.0278Z" fill="white" stroke="#263238" stroke-width="0.3" stroke-miterlimit="10"/>
<path d="M9.81714 75.0278L8.52498 74.2272" stroke="#263238" stroke-width="0.3" stroke-miterlimit="10"/>
<path d="M10.2029 73.0925L9.2544 72.0902" stroke="#263238" stroke-width="0.3" stroke-miterlimit="10"/>
<path d="M9.54248 72.384C9.5401 72.2302 9.50456 72.0787 9.43829 71.9398C9.37202 71.801 9.27658 71.6781 9.15848 71.5795C8.91464 71.3625 7.634 70.823 7.51112 71.2742C7.38632 71.7696 8.69768 72.7353 9.54248 72.384Z" fill="#56AA7A" stroke="#263238" stroke-width="0.3" stroke-miterlimit="10"/>
<path opacity="0.4" d="M9.54248 72.384C9.5401 72.2302 9.50456 72.0787 9.43829 71.9398C9.37202 71.801 9.27658 71.6781 9.15848 71.5795C8.91464 71.3626 7.634 70.823 7.51112 71.2742C7.38632 71.7696 8.69768 72.7354 9.54248 72.384Z" fill="white" stroke="#263238" stroke-width="0.3" stroke-miterlimit="10"/>
<path d="M9.54248 72.3898L8.25223 71.5891" stroke="#263238" stroke-width="0.3" stroke-miterlimit="10"/>
<path d="M9.80176 69.2275L8.85328 68.2253" stroke="#263238" stroke-width="0.3" stroke-miterlimit="10"/>
<path d="M9.14111 68.5248C9.13886 68.3709 9.10339 68.2194 9.03711 68.0805C8.97083 67.9417 8.87531 67.8188 8.75711 67.7203C8.51327 67.5014 7.23263 66.9619 7.11167 67.4131C6.98495 67.9046 8.29631 68.8685 9.14111 68.5248Z" fill="#56AA7A" stroke="#263238" stroke-width="0.3" stroke-miterlimit="10"/>
<path opacity="0.4" d="M9.14111 68.5248C9.13886 68.371 9.10339 68.2194 9.03711 68.0806C8.97083 67.9417 8.87531 67.8188 8.75711 67.7203C8.51327 67.5014 7.23263 66.9619 7.11167 67.4131C6.98495 67.9046 8.29631 68.8685 9.14111 68.5248Z" fill="white" stroke="#263238" stroke-width="0.3" stroke-miterlimit="10"/>
<path d="M9.14111 68.5248L7.85088 67.7242" stroke="#263238" stroke-width="0.3" stroke-miterlimit="10"/>
<path d="M9.6001 66.745C9.59734 66.5912 9.56165 66.4398 9.4954 66.301C9.42916 66.1623 9.33391 66.0393 9.2161 65.9405C8.97226 65.7216 7.69161 65.1821 7.56873 65.6333C7.43817 66.1248 8.74954 67.0886 9.6001 66.745Z" fill="#56AA7A" stroke="#263238" stroke-width="0.3" stroke-miterlimit="10"/>
<path opacity="0.4" d="M9.6001 66.7449C9.59734 66.5911 9.56165 66.4398 9.4954 66.301C9.42916 66.1622 9.33391 66.0392 9.2161 65.9404C8.97226 65.7215 7.69161 65.182 7.56873 65.6332C7.43817 66.1247 8.74954 67.0886 9.6001 66.7449Z" fill="white" stroke="#263238" stroke-width="0.3" stroke-miterlimit="10"/>
<path d="M9.59424 66.7449L8.304 65.9443" stroke="#263238" stroke-width="0.3" stroke-miterlimit="10"/>
<path d="M9.54261 66.8026C9.69629 66.7857 9.8445 66.7358 9.97707 66.6563C10.1096 66.5767 10.2234 66.4694 10.3106 66.3418C10.5026 66.0787 10.9039 64.7482 10.4431 64.6733C9.93237 64.5926 9.11061 65.9981 9.54261 66.8026Z" fill="#56AA7A" stroke="#263238" stroke-width="0.3" stroke-miterlimit="10"/>
<path opacity="0.4" d="M9.54261 66.8026C9.69629 66.7857 9.8445 66.7358 9.97707 66.6563C10.1096 66.5767 10.2234 66.4695 10.3106 66.3418C10.5026 66.0787 10.9039 64.7482 10.4431 64.6733C9.93237 64.5927 9.11061 65.9981 9.54261 66.8026Z" fill="white" stroke="#263238" stroke-width="0.3" stroke-miterlimit="10"/>
<path d="M9.5424 66.8026L10.2029 65.4336" stroke="#263238" stroke-width="0.3" stroke-miterlimit="10"/>
<path d="M11.9846 58.6925V84.048" stroke="#263238" stroke-width="0.3" stroke-miterlimit="10"/>
<path d="M11.9635 80.2349L12.8044 79.1405" stroke="#263238" stroke-width="0.3" stroke-miterlimit="10"/>
<path d="M12.5491 79.4688C12.5351 79.3162 12.5538 79.1624 12.6042 79.0177C12.6545 78.8729 12.7352 78.7407 12.841 78.6298C13.0598 78.3878 14.279 77.7197 14.4461 78.1555C14.6285 78.6298 13.4246 79.7242 12.5491 79.4688Z" fill="#56AA7A" stroke="#263238" stroke-width="0.3" stroke-miterlimit="10"/>
<path opacity="0.4" d="M12.5494 79.4688C12.5353 79.3162 12.5541 79.1624 12.6044 79.0177C12.6547 78.8729 12.7355 78.7407 12.8412 78.6298C13.0601 78.3878 14.2793 77.7197 14.4463 78.1555C14.6287 78.6298 13.4249 79.7242 12.5494 79.4688Z" fill="white" stroke="#263238" stroke-width="0.3" stroke-miterlimit="10"/>
<path d="M12.5491 79.4688L13.6819 78.5856" stroke="#263238" stroke-width="0.3" stroke-miterlimit="10"/>
<path d="M11.9635 75.4713L12.8044 74.375" stroke="#263238" stroke-width="0.3" stroke-miterlimit="10"/>
<path d="M12.5491 74.7034C12.5351 74.5508 12.5538 74.3969 12.6042 74.2522C12.6545 74.1075 12.7352 73.9752 12.841 73.8643C13.0598 73.6224 14.279 72.9542 14.4461 73.3901C14.6285 73.8643 13.4246 74.9587 12.5491 74.7034Z" fill="#56AA7A" stroke="#263238" stroke-width="0.3" stroke-miterlimit="10"/>
<path opacity="0.4" d="M12.5494 74.7033C12.5353 74.5507 12.5541 74.3969 12.6044 74.2522C12.6547 74.1074 12.7355 73.9752 12.8412 73.8643C13.0601 73.6223 14.2793 72.9542 14.4463 73.39C14.6287 73.8643 13.4249 74.9587 12.5494 74.7033Z" fill="white" stroke="#263238" stroke-width="0.3" stroke-miterlimit="10"/>
<path d="M12.5491 74.7034L13.6819 73.8221" stroke="#263238" stroke-width="0.3" stroke-miterlimit="10"/>
<path d="M11.9635 69.8765L12.8044 68.7821" stroke="#263238" stroke-width="0.3" stroke-miterlimit="10"/>
<path d="M12.5491 69.12C12.5351 68.9671 12.554 68.813 12.6043 68.668C12.6546 68.523 12.7353 68.3904 12.841 68.279C13.0598 68.039 14.279 67.3689 14.4461 67.8048C14.6285 68.2694 13.4246 69.3657 12.5491 69.12Z" fill="#56AA7A" stroke="#263238" stroke-width="0.3" stroke-miterlimit="10"/>
<path opacity="0.4" d="M12.5494 69.12C12.5354 68.9671 12.5542 68.8131 12.6045 68.668C12.6548 68.523 12.7355 68.3904 12.8412 68.279C13.0601 68.039 14.2793 67.369 14.4463 67.8048C14.6287 68.2694 13.4249 69.3658 12.5494 69.12Z" fill="white" stroke="#263238" stroke-width="0.3" stroke-miterlimit="10"/>
<path d="M12.5491 69.1104L13.6819 68.2272" stroke="#263238" stroke-width="0.3" stroke-miterlimit="10"/>
<path d="M11.9635 66.1517L12.8044 65.0573" stroke="#263238" stroke-width="0.3" stroke-miterlimit="10"/>
<path d="M12.5491 65.3856C12.5351 65.233 12.5538 65.0792 12.6042 64.9344C12.6545 64.7897 12.7352 64.6575 12.841 64.5465C13.0598 64.3046 14.279 63.6345 14.4461 64.0723C14.6285 64.5465 13.4246 65.6409 12.5491 65.3856Z" fill="#56AA7A" stroke="#263238" stroke-width="0.3" stroke-miterlimit="10"/>
<path opacity="0.4" d="M12.5494 65.3856C12.5353 65.233 12.5541 65.0792 12.6044 64.9345C12.6547 64.7897 12.7355 64.6575 12.8412 64.5466C13.0601 64.3046 14.2793 63.6346 14.4463 64.0723C14.6287 64.5466 13.4249 65.641 12.5494 65.3856Z" fill="white" stroke="#263238" stroke-width="0.3" stroke-miterlimit="10"/>
<path d="M12.5491 65.3856L13.6819 64.5024" stroke="#263238" stroke-width="0.3" stroke-miterlimit="10"/>
<path d="M11.9635 62.4115L12.8044 61.3171" stroke="#263238" stroke-width="0.3" stroke-miterlimit="10"/>
<path d="M12.5491 61.6454C12.5351 61.4928 12.5538 61.339 12.6042 61.1943C12.6545 61.0496 12.7352 60.9173 12.841 60.8064C13.0598 60.5645 14.279 59.8944 14.4461 60.3322C14.6285 60.8064 13.4246 61.9008 12.5491 61.6454Z" fill="#56AA7A" stroke="#263238" stroke-width="0.3" stroke-miterlimit="10"/>
<path opacity="0.4" d="M12.5494 61.6454C12.5353 61.4928 12.5541 61.339 12.6044 61.1942C12.6547 61.0495 12.7355 60.9172 12.8412 60.8063C13.0601 60.5644 14.2793 59.8943 14.4463 60.3321C14.6287 60.8063 13.4249 61.9007 12.5494 61.6454Z" fill="white" stroke="#263238" stroke-width="0.3" stroke-miterlimit="10"/>
<path d="M12.5491 61.6454L13.6819 60.7622" stroke="#263238" stroke-width="0.3" stroke-miterlimit="10"/>
<path d="M11.9829 81.6902L11.1439 80.5958" stroke="#263238" stroke-width="0.3" stroke-miterlimit="10"/>
<path d="M11.399 80.9241C11.4131 80.7716 11.3943 80.6177 11.344 80.473C11.2937 80.3283 11.2129 80.196 11.1072 80.0851C10.8883 79.8432 9.66911 79.1731 9.50207 79.6109C9.31775 80.0851 10.5235 81.1795 11.399 80.9241Z" fill="#56AA7A" stroke="#263238" stroke-width="0.3" stroke-miterlimit="10"/>
<path opacity="0.4" d="M11.3993 80.9242C11.4133 80.7716 11.3946 80.6178 11.3442 80.473C11.2939 80.3283 11.2132 80.1961 11.1074 80.0851C10.8886 79.8432 9.66935 79.1731 9.50231 79.6109C9.31799 80.0851 10.5238 81.1795 11.3993 80.9242Z" fill="white" stroke="#263238" stroke-width="0.3" stroke-miterlimit="10"/>
<path d="M11.3992 80.9242L10.1972 79.993" stroke="#263238" stroke-width="0.3" stroke-miterlimit="10"/>
<path d="M11.9829 74.112L11.1439 73.0176" stroke="#263238" stroke-width="0.3" stroke-miterlimit="10"/>
<path d="M11.399 73.344C11.4131 73.1914 11.3943 73.0376 11.344 72.8928C11.2937 72.7481 11.2129 72.6159 11.1072 72.5049C10.8883 72.263 9.66911 71.5929 9.50207 72.0307C9.31775 72.5069 10.5235 73.6013 11.399 73.344Z" fill="#56AA7A" stroke="#263238" stroke-width="0.3" stroke-miterlimit="10"/>
<path opacity="0.4" d="M11.3993 73.344C11.4133 73.1914 11.3946 73.0376 11.3442 72.8928C11.2939 72.7481 11.2132 72.6159 11.1074 72.5049C10.8886 72.263 9.66935 71.5929 9.50231 72.0307C9.31799 72.5069 10.5238 73.6013 11.3993 73.344Z" fill="white" stroke="#263238" stroke-width="0.3" stroke-miterlimit="10"/>
<path d="M11.3992 73.3459L10.1972 72.4147" stroke="#263238" stroke-width="0.3" stroke-miterlimit="10"/>
<path d="M11.9829 70.3718L11.1439 69.2774" stroke="#263238" stroke-width="0.3" stroke-miterlimit="10"/>
<path d="M11.399 69.6058C11.4131 69.4532 11.3943 69.2994 11.344 69.1546C11.2937 69.0099 11.2129 68.8776 11.1072 68.7667C10.8883 68.5248 9.66911 67.8547 9.50207 68.2906C9.31775 68.7667 10.5235 69.8611 11.399 69.6058Z" fill="#56AA7A" stroke="#263238" stroke-width="0.3" stroke-miterlimit="10"/>
<path opacity="0.4" d="M11.3993 69.6057C11.4133 69.4531 11.3946 69.2993 11.3442 69.1546C11.2939 69.0098 11.2132 68.8776 11.1074 68.7667C10.8886 68.5247 9.66935 67.8547 9.50231 68.2905C9.31799 68.7667 10.5238 69.8611 11.3993 69.6057Z" fill="white" stroke="#263238" stroke-width="0.3" stroke-miterlimit="10"/>
<path d="M11.3992 69.6058L10.1972 68.6746" stroke="#263238" stroke-width="0.3" stroke-miterlimit="10"/>
<path d="M11.9829 65.4278L11.1439 64.3334" stroke="#263238" stroke-width="0.3" stroke-miterlimit="10"/>
<path d="M11.399 64.6618C11.4131 64.5092 11.3943 64.3554 11.344 64.2106C11.2937 64.0659 11.2129 63.9336 11.1072 63.8227C10.8883 63.5808 9.66911 62.9107 9.50207 63.3485C9.31775 63.8227 10.5235 64.9171 11.399 64.6618Z" fill="#56AA7A" stroke="#263238" stroke-width="0.3" stroke-miterlimit="10"/>
<path opacity="0.4" d="M11.3993 64.6617C11.4133 64.5091 11.3946 64.3553 11.3442 64.2106C11.2939 64.0659 11.2132 63.9336 11.1074 63.8227C10.8886 63.5808 9.66935 62.9107 9.50231 63.3484C9.31799 63.8227 10.5238 64.9171 11.3993 64.6617Z" fill="white" stroke="#263238" stroke-width="0.3" stroke-miterlimit="10"/>
<path d="M11.3992 64.6618L10.1972 63.7306" stroke="#263238" stroke-width="0.3" stroke-miterlimit="10"/>
<path d="M11.9829 61.5418L11.1439 60.4454" stroke="#263238" stroke-width="0.3" stroke-miterlimit="10"/>
<path d="M11.399 60.7757C11.4131 60.6228 11.3944 60.4687 11.344 60.3236C11.2937 60.1786 11.2129 60.046 11.1072 59.9347C10.8883 59.6928 9.66909 59.0246 9.50205 59.4605C9.31773 59.9347 10.5235 61.031 11.399 60.7757Z" fill="#56AA7A" stroke="#263238" stroke-width="0.3" stroke-miterlimit="10"/>
<path opacity="0.4" d="M11.3993 60.7756C11.4134 60.6228 11.3946 60.4686 11.3443 60.3236C11.2939 60.1786 11.2132 60.046 11.1074 59.9347C10.8885 59.6928 9.66934 59.0246 9.5023 59.4604C9.31798 59.9347 10.5237 61.031 11.3993 60.7756Z" fill="white" stroke="#263238" stroke-width="0.3" stroke-miterlimit="10"/>
<path d="M11.3992 60.7757L10.1972 59.8445" stroke="#263238" stroke-width="0.3" stroke-miterlimit="10"/>
<path d="M12.0326 59.0515C12.0466 58.8986 12.0278 58.7445 11.9775 58.5995C11.9271 58.4545 11.8465 58.3219 11.7408 58.2105C11.5219 57.9705 10.3027 57.3005 10.1357 57.7363C9.95327 58.2105 11.1571 59.3069 12.0326 59.0515Z" fill="#56AA7A" stroke="#263238" stroke-width="0.3" stroke-miterlimit="10"/>
<path opacity="0.4" d="M12.0326 59.0515C12.0466 58.8987 12.0278 58.7446 11.9775 58.5996C11.9271 58.4545 11.8465 58.3219 11.7408 58.2106C11.5219 57.9706 10.3027 57.3005 10.1357 57.7363C9.95327 58.2106 11.1571 59.3069 12.0326 59.0515Z" fill="white" stroke="#263238" stroke-width="0.3" stroke-miterlimit="10"/>
<path d="M12.0327 59.0515L10.8327 58.1203" stroke="#263238" stroke-width="0.3" stroke-miterlimit="10"/>
<path d="M11.975 59.1033C12.1287 59.1002 12.28 59.0644 12.4187 58.9981C12.5574 58.9319 12.6804 58.8369 12.7795 58.7193C12.9965 58.4774 13.5341 57.1949 13.0829 57.0739C12.5914 56.9453 11.6294 58.2585 11.975 59.1033Z" fill="#56AA7A" stroke="#263238" stroke-width="0.3" stroke-miterlimit="10"/>
<path opacity="0.4" d="M11.9753 59.1033C12.129 59.1002 12.2802 59.0644 12.4189 58.9981C12.5577 58.9319 12.6807 58.8369 12.7798 58.7193C12.9967 58.4774 13.5343 57.1949 13.0831 57.0739C12.5916 56.9453 11.6297 58.2585 11.9753 59.1033Z" fill="white" stroke="#263238" stroke-width="0.3" stroke-miterlimit="10"/>
<path d="M11.9752 59.1033L12.7739 57.8093" stroke="#263238" stroke-width="0.3" stroke-miterlimit="10"/>
<path d="M10.9422 90.624H13.6264L13.9624 83.8426H10.6062L10.9422 90.624Z" fill="#263238" stroke="#263238" stroke-width="0.3" stroke-miterlimit="10"/>
<path d="M115.469 10.56H133.248V22.5907H115.469V10.56Z" stroke="white" stroke-width="0.5" stroke-linecap="round" stroke-linejoin="round"/>
<path d="M96.6356 10.56H114.415V22.5907H96.6356V10.56Z" stroke="white" stroke-width="0.5" stroke-linecap="round" stroke-linejoin="round"/>
<path d="M70.704 10.56H88.4832V22.5907H70.704V10.56Z" stroke="url(#paint0_linear_974_19186)" stroke-width="0.5" stroke-linecap="round" stroke-linejoin="round"/>
<path d="M51.8687 10.56H69.6479V22.5907H51.8687V10.56Z" stroke="#D7D7D7" stroke-width="0.5" stroke-linecap="round" stroke-linejoin="round"/>
<path d="M25.9374 10.56H43.7166V22.5907H25.9374V10.56Z" stroke="white" stroke-width="0.5" stroke-linecap="round" stroke-linejoin="round"/>
<path d="M7.1041 10.56H24.8833V22.5907H7.1041V10.56Z" stroke="white" stroke-width="0.5" stroke-linecap="round" stroke-linejoin="round"/>
<path d="M49.9336 73.3248H63.7307V88.0877H49.9336V73.3248Z" fill="white" stroke="#B2B2B2" stroke-width="0.3" stroke-linecap="round" stroke-linejoin="round"/>
<path d="M61.392 73.3248H62.6458V78.695H61.392V73.3248Z" fill="#B2B2B2" stroke="#B2B2B2" stroke-width="0.3" stroke-miterlimit="10"/>
<path d="M36.148 73.3248H49.9451V88.0877H36.148V73.3248Z" fill="white" stroke="#B2B2B2" stroke-width="0.3" stroke-linecap="round" stroke-linejoin="round"/>
<path d="M47.6066 73.3248H48.8604V78.695H47.6066V73.3248Z" fill="#B2B2B2" stroke="#B2B2B2" stroke-width="0.3" stroke-miterlimit="10"/>
<path d="M49.9336 58.4659H63.7307V73.2288H49.9336V58.4659Z" fill="white" stroke="#B2B2B2" stroke-width="0.3" stroke-linecap="round" stroke-linejoin="round"/>
<path d="M61.392 58.4659H62.6458V63.8362H61.392V58.4659Z" fill="#B2B2B2" stroke="#B2B2B2" stroke-width="0.3" stroke-miterlimit="10"/>
<path d="M36.148 58.4659H49.9451V73.2288H36.148V58.4659Z" fill="white" stroke="#B2B2B2" stroke-width="0.3" stroke-linecap="round" stroke-linejoin="round"/>
<path d="M47.6066 58.4659H48.8604V63.8362H47.6066V58.4659Z" fill="#B2B2B2" stroke="#B2B2B2" stroke-width="0.3" stroke-miterlimit="10"/>
<path d="M34.7193 89.9194H64.2585V90.624H34.7193V89.9194Z" fill="white" stroke="#B2B2B2" stroke-width="0.3" stroke-linecap="round" stroke-linejoin="round"/>
<path d="M34.7193 87.3619H64.2585V88.0666H34.7193V87.3619Z" fill="white" stroke="#B2B2B2" stroke-width="0.3" stroke-linecap="round" stroke-linejoin="round"/>
<path d="M61.4382 88.0877H63.7307V89.8771H61.4382V88.0877Z" fill="white" stroke="#B2B2B2" stroke-width="0.3" stroke-linecap="round" stroke-linejoin="round"/>
<path d="M48.7219 88.0877H51.0144V89.8771H48.7219V88.0877Z" fill="white" stroke="#B2B2B2" stroke-width="0.3" stroke-linecap="round" stroke-linejoin="round"/>
<path d="M36.0059 88.0877H38.2983V89.8771H36.0059V88.0877Z" fill="white" stroke="#B2B2B2" stroke-width="0.3" stroke-linecap="round" stroke-linejoin="round"/>
<path d="M80.0774 73.3248H93.8745V88.0877H80.0774V73.3248Z" fill="white" stroke="#B2B2B2" stroke-width="0.3" stroke-linecap="round" stroke-linejoin="round"/>
<path d="M91.536 73.3248H92.7898V78.695H91.536V73.3248Z" fill="#B2B2B2" stroke="#B2B2B2" stroke-width="0.3" stroke-miterlimit="10"/>
<path d="M66.292 73.3248H80.0891V88.0877H66.292V73.3248Z" fill="white" stroke="#B2B2B2" stroke-width="0.3" stroke-linecap="round" stroke-linejoin="round"/>
<path d="M77.7504 73.3248H79.0042V78.695H77.7504V73.3248Z" fill="#B2B2B2" stroke="#B2B2B2" stroke-width="0.3" stroke-miterlimit="10"/>
<path d="M80.0774 58.4659H93.8745V73.2288H80.0774V58.4659Z" fill="white" stroke="#B2B2B2" stroke-width="0.3" stroke-linecap="round" stroke-linejoin="round"/>
<path d="M91.536 58.4659H92.7898V63.8362H91.536V58.4659Z" fill="#B2B2B2" stroke="#B2B2B2" stroke-width="0.3" stroke-miterlimit="10"/>
<path d="M66.292 58.4659H80.0891V73.2288H66.292V58.4659Z" fill="white" stroke="#B2B2B2" stroke-width="0.3" stroke-linecap="round" stroke-linejoin="round"/>
<path d="M77.7504 58.4659H79.0042V63.8362H77.7504V58.4659Z" fill="#B2B2B2" stroke="#B2B2B2" stroke-width="0.3" stroke-miterlimit="10"/>
<path d="M64.8634 89.9194H94.4026V90.624H64.8634V89.9194Z" fill="white" stroke="#B2B2B2" stroke-width="0.3" stroke-linecap="round" stroke-linejoin="round"/>
<path d="M64.8634 87.3619H94.4026V88.0666H64.8634V87.3619Z" fill="white" stroke="#B2B2B2" stroke-width="0.3" stroke-linecap="round" stroke-linejoin="round"/>
<path d="M91.582 88.0877H93.8745V89.8771H91.582V88.0877Z" fill="white" stroke="#B2B2B2" stroke-width="0.3" stroke-linecap="round" stroke-linejoin="round"/>
<path d="M78.866 88.0877H81.1584V89.8771H78.866V88.0877Z" fill="white" stroke="#B2B2B2" stroke-width="0.3" stroke-linecap="round" stroke-linejoin="round"/>
<path d="M66.1499 88.0877H68.4424V89.8771H66.1499V88.0877Z" fill="white" stroke="#B2B2B2" stroke-width="0.3" stroke-linecap="round" stroke-linejoin="round"/>
<path d="M110.221 73.3248H124.019V88.0877H110.221V73.3248Z" fill="white" stroke="#B2B2B2" stroke-width="0.3" stroke-linecap="round" stroke-linejoin="round"/>
<path d="M121.68 73.3248H122.934V78.695H121.68V73.3248Z" fill="#B2B2B2" stroke="#B2B2B2" stroke-width="0.3" stroke-miterlimit="10"/>
<path d="M96.4358 73.3248H110.233V88.0877H96.4358V73.3248Z" fill="white" stroke="#B2B2B2" stroke-width="0.3" stroke-linecap="round" stroke-linejoin="round"/>
<path d="M107.894 73.3248H109.148V78.695H107.894V73.3248Z" fill="#B2B2B2" stroke="#B2B2B2" stroke-width="0.3" stroke-miterlimit="10"/>
<path d="M110.221 58.4659H124.019V73.2288H110.221V58.4659Z" fill="white" stroke="#B2B2B2" stroke-width="0.3" stroke-linecap="round" stroke-linejoin="round"/>
<path d="M121.68 58.4659H122.934V63.8362H121.68V58.4659Z" fill="#B2B2B2" stroke="#B2B2B2" stroke-width="0.3" stroke-miterlimit="10"/>
<path d="M96.4358 58.4659H110.233V73.2288H96.4358V58.4659Z" fill="white" stroke="#B2B2B2" stroke-width="0.3" stroke-linecap="round" stroke-linejoin="round"/>
<path d="M107.894 58.4659H109.148V63.8362H107.894V58.4659Z" fill="#B2B2B2" stroke="#B2B2B2" stroke-width="0.3" stroke-miterlimit="10"/>
<path d="M110.221 43.8739H124.019V58.6368H110.221V43.8739Z" fill="white" stroke="#B2B2B2" stroke-width="0.3" stroke-linecap="round" stroke-linejoin="round"/>
<path d="M121.68 43.8739H122.934V49.2442H121.68V43.8739Z" fill="#B2B2B2" stroke="#B2B2B2" stroke-width="0.3" stroke-miterlimit="10"/>
<path d="M96.4358 43.8739H110.233V58.6368H96.4358V43.8739Z" fill="white" stroke="#B2B2B2" stroke-width="0.3" stroke-linecap="round" stroke-linejoin="round"/>
<path d="M107.894 43.8739H109.148V49.2442H107.894V43.8739Z" fill="#B2B2B2" stroke="#B2B2B2" stroke-width="0.3" stroke-miterlimit="10"/>
<path d="M95.0074 89.9194H124.547V90.624H95.0074V89.9194Z" fill="white" stroke="#B2B2B2" stroke-width="0.3" stroke-linecap="round" stroke-linejoin="round"/>
<path d="M95.0074 87.3619H124.547V88.0666H95.0074V87.3619Z" fill="white" stroke="#B2B2B2" stroke-width="0.3" stroke-linecap="round" stroke-linejoin="round"/>
<path d="M121.726 88.0877H124.019V89.8771H121.726V88.0877Z" fill="white" stroke="#B2B2B2" stroke-width="0.3" stroke-linecap="round" stroke-linejoin="round"/>
<path d="M109.01 88.0877H111.302V89.8771H109.01V88.0877Z" fill="white" stroke="#B2B2B2" stroke-width="0.3" stroke-linecap="round" stroke-linejoin="round"/>
<path d="M96.2939 88.0877H98.5864V89.8771H96.2939V88.0877Z" fill="white" stroke="#B2B2B2" stroke-width="0.3" stroke-linecap="round" stroke-linejoin="round"/>
<path d="M15.8553 5.21283H68.2866V46.2375H15.8553V5.21283Z" fill="#FDFFF4" stroke="#263238" stroke-width="0.3" stroke-linecap="round" stroke-linejoin="round"/>
<path d="M15.8553 5.21283H68.2866V7.06947H15.8553V5.21283Z" fill="#263238" stroke="#263238" stroke-width="0.3" stroke-linecap="round" stroke-linejoin="round"/>
<path d="M20.0946 6.06144C20.0927 5.9668 20.1191 5.87373 20.1703 5.79413C20.2216 5.71454 20.2953 5.65201 20.3823 5.61455C20.4692 5.57709 20.5653 5.5664 20.6584 5.58383C20.7514 5.60126 20.8372 5.64602 20.9046 5.71241C20.9721 5.7788 21.0183 5.86379 21.0372 5.95654C21.0562 6.04929 21.0471 6.14557 21.011 6.23311C20.975 6.32064 20.9137 6.39545 20.8349 6.44798C20.7562 6.5005 20.6636 6.52836 20.5689 6.528C20.4446 6.52752 20.3254 6.47846 20.2368 6.39128C20.1482 6.3041 20.0971 6.18572 20.0946 6.06144Z" fill="white" stroke="#263238" stroke-width="0.3" stroke-linecap="round" stroke-linejoin="round"/>
<path d="M18.4318 6.06144C18.4299 5.96721 18.456 5.87454 18.5069 5.79516C18.5577 5.71579 18.6309 5.65328 18.7173 5.61555C18.8037 5.57783 18.8993 5.56658 18.992 5.58324C19.0848 5.5999 19.1706 5.64372 19.2384 5.70914C19.3062 5.77457 19.3531 5.85865 19.3732 5.95075C19.3932 6.04285 19.3854 6.13882 19.3509 6.22651C19.3163 6.31419 19.2565 6.38965 19.179 6.44332C19.1015 6.49699 19.0099 6.52646 18.9157 6.528C18.7897 6.53006 18.668 6.48211 18.5774 6.39467C18.4867 6.30722 18.4343 6.1874 18.4318 6.06144Z" fill="white" stroke="#263238" stroke-width="0.3" stroke-linecap="round" stroke-linejoin="round"/>
<path d="M16.7865 6.06144C16.7846 5.96688 16.8109 5.8739 16.8621 5.79434C16.9132 5.71478 16.9869 5.65226 17.0737 5.61474C17.1606 5.57723 17.2566 5.56642 17.3496 5.58369C17.4426 5.60097 17.5283 5.64554 17.5959 5.71174C17.6634 5.77793 17.7097 5.86274 17.7289 5.95536C17.7481 6.04798 17.7392 6.14421 17.7035 6.23178C17.6677 6.31934 17.6067 6.39428 17.5282 6.44704C17.4497 6.4998 17.3573 6.52798 17.2627 6.528C17.1381 6.52803 17.0184 6.47918 16.9294 6.39195C16.8403 6.30472 16.7891 6.18606 16.7865 6.06144Z" fill="white" stroke="#263238" stroke-width="0.3" stroke-linecap="round" stroke-linejoin="round"/>
<path d="M47.2874 12.8108H47V10.0192H47.4082L48.0741 12.0371V10.0192H48.3516V12.8108H48.0167L47.2794 10.5529L47.2874 12.8108Z" fill="#263238"/>
<path d="M49.7131 11.2556V11.5417H49.0096V12.5363H49.8736V12.8185H48.6846V10.0192H49.8736V10.3014H49.0096V11.2614L49.7131 11.2556Z" fill="#263238"/>
<path d="M50.9379 12.8108H50.496L50.0996 10.0192H50.4127L50.7496 12.3961L51.0707 10.023H51.3878L51.7049 12.4L52.0299 10.0192H52.3152L51.9189 12.8108H51.4948L51.2193 10.9158L50.9379 12.8108Z" fill="#263238"/>
<path d="M54.2355 11.2556V11.5417H53.532V12.5363H54.3981V12.8185H53.209V10.0192H54.3981V10.3014H53.532V11.2614L54.2355 11.2556Z" fill="#263238"/>
<path d="M54.9785 12.8108H54.6931V10.0192H55.0895L55.7573 12.0371V10.0192H56.0407V12.8108H55.7078L54.9706 10.5529L54.9785 12.8108Z" fill="#263238"/>
<path d="M56.7941 12.8108V10.3014H56.2629V10.0192H57.6502V10.3014H57.1111V12.8108H56.7941Z" fill="#263238"/>
<path d="M58.5041 10.0192C58.956 10.0192 59.1462 10.2419 59.1462 10.6566V10.8832C59.1462 11.1904 59.0353 11.3824 58.7875 11.4592C59.0511 11.534 59.1502 11.7414 59.1502 12.0352V12.471C59.1407 12.5852 59.1604 12.7 59.2077 12.8051H58.8827C58.8368 12.6976 58.8185 12.581 58.8291 12.4652V12.0332C58.8291 11.7184 58.6765 11.6185 58.409 11.6185H58.1831V12.8108H57.864V10.0192H58.5041ZM58.4209 11.3344C58.6765 11.3344 58.8291 11.2556 58.8291 10.9504V10.6854C58.8291 10.4339 58.734 10.3014 58.4962 10.3014H58.1831V11.3344H58.4209Z" fill="#263238"/>
<path d="M59.8062 10.0192V12.8108H59.4832V10.0192H59.8062Z" fill="#263238"/>
<path d="M61.1599 11.2556V11.5417H60.4564V12.5363H61.3204V12.8185H60.1313V10.0192H61.3204V10.3014H60.4564V11.2614L61.1599 11.2556Z" fill="#263238"/>
<path d="M62.8661 10.6893V10.7738H62.5609V10.6816C62.5609 10.4301 62.4618 10.2842 62.232 10.2842C62.0021 10.2842 61.901 10.4301 61.901 10.6778C61.901 11.3056 62.8701 11.3651 62.8701 12.1504C62.8701 12.5728 62.66 12.8493 62.2201 12.8493C61.7801 12.8493 61.572 12.5728 61.572 12.1504V11.991H61.8733V12.1658C61.8733 12.4173 61.9803 12.5651 62.2102 12.5651C62.44 12.5651 62.549 12.4173 62.549 12.1658C62.549 11.5437 61.5859 11.4842 61.5859 10.6989C61.5859 10.2669 61.7841 10 62.224 10C62.664 10 62.8661 10.265 62.8661 10.6893Z" fill="#263238"/>
<path d="M47.7484 13.6877H64.7596C65.1297 13.6877 65.4297 13.9877 65.4297 14.3578V16.7674C65.4297 17.1375 65.1297 17.4375 64.7596 17.4375H47.7484C47.3783 17.4375 47.0783 17.1375 47.0783 16.7674V14.3578C47.0783 13.9877 47.3783 13.6877 47.7484 13.6877Z" fill="#56AA7A" stroke="#263238" stroke-width="0.3" stroke-linecap="round" stroke-linejoin="round"/>
<path d="M56.1734 41.0823H64.9766C65.2268 41.0823 65.4297 41.2851 65.4297 41.5354V43.8797C65.4297 44.13 65.2268 44.3328 64.9766 44.3328H56.1734C55.9231 44.3328 55.7202 44.13 55.7202 43.8797V41.5354C55.7202 41.2851 55.9231 41.0823 56.1734 41.0823Z" fill="#56AA7A" stroke="#263238" stroke-width="0.3" stroke-linecap="round" stroke-linejoin="round"/>
<path d="M44.1675 41.0823H52.9707C53.221 41.0823 53.4238 41.2851 53.4238 41.5354V43.8797C53.4238 44.13 53.221 44.3328 52.9707 44.3328H44.1675C43.9173 44.3328 43.7144 44.13 43.7144 43.8797V41.5354C43.7144 41.2851 43.9173 41.0823 44.1675 41.0823Z" fill="#263238" stroke="#263238" stroke-width="0.3" stroke-linecap="round" stroke-linejoin="round"/>
<path d="M19.0847 19.8835H64.7596C65.1297 19.8835 65.4297 20.1836 65.4297 20.5536V22.9632C65.4297 23.3333 65.1297 23.6333 64.7596 23.6333H19.0847C18.7147 23.6333 18.4146 23.3333 18.4146 22.9632V20.5536C18.4146 20.1836 18.7147 19.8835 19.0847 19.8835Z" fill="#56AA7A" stroke="#263238" stroke-width="0.3" stroke-linecap="round" stroke-linejoin="round"/>
<path d="M18.4147 25.3479H31.6953V38.5498H18.4147V25.3479Z" fill="white" stroke="#263238" stroke-width="0.3" stroke-linecap="round" stroke-linejoin="round"/>
<path d="M32.6251 25.3585H65.2075V38.5604H32.6251V25.3585Z" fill="white" stroke="#263238" stroke-width="0.3" stroke-linecap="round" stroke-linejoin="round"/>
<path d="M30.7852 27.4906H20.0216" stroke="#263238" stroke-width="0.3" stroke-linecap="round" stroke-linejoin="round"/>
<path d="M64.3018 27.1698H33.7661" stroke="#263238" stroke-width="0.3" stroke-linecap="round" stroke-linejoin="round"/>
<path d="M30.6987 30.3034H20.0216" stroke="#263238" stroke-width="0.3" stroke-linecap="round" stroke-linejoin="round"/>
<path d="M64.3018 29.8868H33.6816" stroke="#263238" stroke-width="0.3" stroke-linecap="round" stroke-linejoin="round"/>
<path d="M30.6987 33.1162H20.0216" stroke="#263238" stroke-width="0.3" stroke-linecap="round" stroke-linejoin="round"/>
<path d="M64.2239 33.1162H33.6037" stroke="#263238" stroke-width="0.3" stroke-linecap="round" stroke-linejoin="round"/>
<path d="M30.6987 35.929H20.0216" stroke="#263238" stroke-width="0.3" stroke-linecap="round" stroke-linejoin="round"/>
<path d="M64.2239 35.929H33.6037" stroke="#263238" stroke-width="0.3" stroke-linecap="round" stroke-linejoin="round"/>
<path d="M29.2662 14.4788C29.4943 14.4788 29.5988 14.6304 29.5988 14.88V15.6922C29.5988 15.9399 29.4943 16.0916 29.2662 16.0916H28.918V14.4788H29.2662ZM29.2662 15.9284C29.3829 15.9284 29.4403 15.8477 29.4403 15.6999V14.8704C29.4403 14.7226 29.3846 14.642 29.2662 14.642H29.0921V15.936L29.2662 15.9284Z" fill="#263238"/>
<path d="M29.9138 15.7671L29.858 16.0916H29.7065L29.9869 14.4788H30.2237L30.5023 16.0916H30.3404L30.2829 15.7671H29.9138ZM29.9346 15.6116H30.2603L30.0966 14.6823L29.9346 15.6116Z" fill="#263238"/>
<path d="M30.8439 16.0916V14.642H30.574V14.4788H31.2705V14.642H31.0023V16.0916H30.8439Z" fill="#263238"/>
<path d="M31.9094 15.193V15.36H31.5524V15.936H31.9912V16.0992H31.3975V14.4864H31.9999V14.6496H31.5611V15.2007L31.9094 15.193Z" fill="#263238"/>
<path d="M25.054 14.21H27.5884V16.7444H25.054V14.21Z" fill="#56AA7A" stroke="#263238" stroke-width="0.3" stroke-linecap="round" stroke-linejoin="round"/>
<path d="M21.6516 14.21H24.186V16.7444H21.6516V14.21Z" fill="#56AA7A" stroke="#263238" stroke-width="0.3" stroke-linecap="round" stroke-linejoin="round"/>
<path d="M18.2495 14.21H20.7839V16.7444H18.2495V14.21Z" fill="#56AA7A" stroke="#263238" stroke-width="0.3" stroke-linecap="round" stroke-linejoin="round"/>
<path d="M51.4136 47.7159H42.5029L33.8072 57.5367L39.7457 47.7159H29.8481" stroke="#263238" stroke-width="0.3" stroke-linecap="round" stroke-linejoin="round"/>
<path d="M52.967 47.7159H52.2298" stroke="#263238" stroke-width="0.3" stroke-linecap="round" stroke-linejoin="round"/>
<path d="M30.5682 87.3293C30.5682 87.3293 31.4763 88.7904 31.7355 89.0189C31.9947 89.2473 32.6456 89.7331 32.9048 89.9923C33.164 90.2515 32.8415 90.5779 32.5477 90.6086C32.2539 90.6393 28.7077 90.6086 28.7077 90.6086C28.7077 90.6086 28.3237 90.5453 28.2853 90.3494C28.2469 90.1536 28.0933 89.5699 28.3179 89.0515C28.4606 88.6998 28.538 88.325 28.5464 87.9456L28.4811 87.7843L28.5464 87.4003L30.5682 87.3293Z" fill="white" stroke="#263238" stroke-width="0.3" stroke-linecap="round" stroke-linejoin="round"/>
<path d="M32.5478 90.6086C32.256 90.6413 28.7078 90.6086 28.7078 90.6086C28.7078 90.6086 28.3238 90.5453 28.2854 90.3494C28.2308 90.1081 28.2024 89.8615 28.2009 89.6141C28.7366 89.7734 29.28 89.9981 29.28 89.9981H32.9049C33.166 90.2515 32.832 90.5779 32.5478 90.6086Z" fill="white" stroke="#263238" stroke-width="0.3" stroke-linecap="round" stroke-linejoin="round"/>
<path d="M29.1205 89.6621L29.3701 90.5395" stroke="#263238" stroke-width="0.3" stroke-linecap="round" stroke-linejoin="round"/>
<path d="M30.1651 89.2627C30.1855 89.2628 30.2057 89.2589 30.2246 89.2512C30.8985 88.9517 31.3382 89.1552 31.3555 89.1648C31.3898 89.1813 31.4294 89.1835 31.4654 89.1709C31.5013 89.1583 31.5309 89.1319 31.5475 89.0976C31.5641 89.0634 31.5666 89.0241 31.5543 88.9881C31.5421 88.9522 31.5162 88.9225 31.4822 88.9056C31.4591 88.894 30.9062 88.6291 30.1055 88.9862C30.0879 88.9937 30.0719 89.0047 30.0585 89.0185C30.0451 89.0322 30.0346 89.0485 30.0277 89.0664C30.0207 89.0843 30.0174 89.1034 30.0179 89.1226C30.0184 89.1418 30.0227 89.1607 30.0307 89.1782C30.0425 89.2038 30.0615 89.2253 30.0854 89.2403C30.1092 89.2553 30.1369 89.2631 30.1651 89.2627Z" fill="white" stroke="#263238" stroke-width="0.3" stroke-linecap="round" stroke-linejoin="round"/>
<path d="M30.0402 88.896C30.0605 88.8959 30.0807 88.892 30.0997 88.8845C30.7717 88.585 31.2113 88.7885 31.2305 88.7981C31.2647 88.812 31.3029 88.8124 31.3374 88.7993C31.3718 88.7861 31.4001 88.7605 31.4164 88.7274C31.4327 88.6943 31.4358 88.6562 31.4252 88.6209C31.4146 88.5856 31.391 88.5556 31.3592 88.537C31.3362 88.5254 30.7832 88.2605 29.9806 88.6176C29.9506 88.6315 29.9261 88.6552 29.9113 88.6848C29.8965 88.7144 29.8922 88.7482 29.8991 88.7806C29.906 88.813 29.9237 88.842 29.9494 88.863C29.975 88.884 30.007 88.8956 30.0402 88.896Z" fill="white" stroke="#263238" stroke-width="0.3" stroke-linecap="round" stroke-linejoin="round"/>
<path d="M29.9154 88.512C29.9352 88.5119 29.9547 88.508 29.973 88.5005C30.6469 88.199 31.0866 88.4045 31.1058 88.4141C31.14 88.428 31.1781 88.4284 31.2126 88.4153C31.2471 88.4021 31.2753 88.3765 31.2916 88.3434C31.3079 88.3103 31.3111 88.2722 31.3005 88.2369C31.2899 88.2016 31.2663 88.1716 31.2344 88.1529C31.2114 88.1414 30.6584 87.8765 29.8559 88.2336C29.8205 88.2492 29.7928 88.2781 29.7787 88.3141C29.7647 88.3501 29.7655 88.3902 29.781 88.4256C29.7929 88.4512 29.8119 88.4729 29.8357 88.4882C29.8595 88.5035 29.8871 88.5117 29.9154 88.512Z" fill="white" stroke="#263238" stroke-width="0.3" stroke-linecap="round" stroke-linejoin="round"/>
<path d="M20.7033 87.3293C20.7033 87.3293 19.7951 88.7904 19.534 89.0189C19.2729 89.2473 18.6258 89.7331 18.3647 89.9923C18.1036 90.2515 18.43 90.5779 18.7238 90.6086C19.0175 90.6393 22.5638 90.6086 22.5638 90.6086C22.5638 90.6086 22.9478 90.5453 22.9842 90.3494C23.0207 90.1536 23.1762 89.5699 22.9535 89.0515C22.8109 88.6998 22.7335 88.325 22.725 87.9456L22.7903 87.7843L22.725 87.4003L20.7033 87.3293Z" fill="white" stroke="#263238" stroke-width="0.3" stroke-linecap="round" stroke-linejoin="round"/>
<path d="M18.7237 90.6086C19.0155 90.6413 22.5637 90.6086 22.5637 90.6086C22.5637 90.6086 22.9477 90.5453 22.9842 90.3494C23.0407 90.1084 23.0696 89.8617 23.0706 89.6141C22.5349 89.7734 21.9915 89.9981 21.9915 89.9981H18.3723C18.1054 90.2515 18.4318 90.5779 18.7237 90.6086Z" fill="white" stroke="#263238" stroke-width="0.3" stroke-linecap="round" stroke-linejoin="round"/>
<path d="M22.1509 89.6621L21.8994 90.5395" stroke="#263238" stroke-width="0.3" stroke-linecap="round" stroke-linejoin="round"/>
<path d="M21.1065 89.2627C21.0861 89.2628 21.0658 89.2589 21.0469 89.2512C20.373 88.9517 19.9333 89.1552 19.9161 89.1648C19.8984 89.174 19.8791 89.1796 19.8593 89.1814C19.8395 89.1831 19.8195 89.1809 19.8005 89.175C19.7815 89.169 19.7639 89.1593 19.7486 89.1466C19.7334 89.1338 19.7208 89.1181 19.7116 89.1005C19.7024 89.0828 19.6967 89.0635 19.695 89.0437C19.6932 89.0239 19.6954 89.0039 19.7014 88.9849C19.7074 88.9659 19.717 88.9483 19.7298 88.933C19.7426 88.9178 19.7582 88.9052 19.7759 88.896C19.7989 88.8845 20.3519 88.6195 21.1545 88.9766C21.1721 88.9841 21.1881 88.9951 21.2015 89.0089C21.2149 89.0227 21.2254 89.039 21.2323 89.0569C21.2393 89.0747 21.2427 89.0938 21.2421 89.113C21.2416 89.1322 21.2373 89.1511 21.2293 89.1686C21.2197 89.1943 21.2031 89.2167 21.1814 89.2333C21.1597 89.2499 21.1337 89.2601 21.1065 89.2627Z" fill="white" stroke="#263238" stroke-width="0.3" stroke-linecap="round" stroke-linejoin="round"/>
<path d="M21.2312 88.896C21.2108 88.8959 21.1906 88.892 21.1717 88.8845C20.4978 88.585 20.06 88.7885 20.0408 88.7981C20.0066 88.812 19.9685 88.8124 19.934 88.7993C19.8995 88.7861 19.8713 88.7605 19.855 88.7274C19.8387 88.6943 19.8355 88.6562 19.8461 88.6209C19.8567 88.5856 19.8803 88.5556 19.9122 88.537C19.9352 88.5254 20.4882 88.2605 21.2907 88.6176C21.3208 88.6315 21.3453 88.6552 21.3601 88.6848C21.3749 88.7144 21.3792 88.7482 21.3723 88.7806C21.3653 88.813 21.3476 88.842 21.322 88.863C21.2963 88.884 21.2643 88.8956 21.2312 88.896Z" fill="white" stroke="#263238" stroke-width="0.3" stroke-linecap="round" stroke-linejoin="round"/>
<path d="M21.3562 88.512C21.3364 88.5119 21.3169 88.508 21.2986 88.5005C20.6247 88.199 20.185 88.4045 20.1658 88.4141C20.1316 88.428 20.0935 88.4284 20.059 88.4153C20.0245 88.4021 19.9963 88.3765 19.98 88.3434C19.9637 88.3103 19.9605 88.2722 19.9711 88.2369C19.9817 88.2016 20.0053 88.1716 20.0372 88.1529C20.0602 88.1414 20.6132 87.8765 21.4157 88.2336C21.4458 88.2475 21.4702 88.2712 21.4851 88.3008C21.4999 88.3304 21.5042 88.3642 21.4973 88.3966C21.4903 88.429 21.4726 88.458 21.447 88.479C21.4213 88.5 21.3893 88.5116 21.3562 88.512Z" fill="white" stroke="#263238" stroke-width="0.3" stroke-linecap="round" stroke-linejoin="round"/>
<path d="M20.2021 86.4326C20.229 86.3347 20.2578 86.2406 20.2846 86.1427C20.5178 85.1731 20.6535 84.1825 20.6898 83.1859C21.1378 76.727 21.5858 70.2675 22.0338 63.8073C22.0184 64.0262 28.4062 63.8918 28.9765 63.8822C30.2782 63.863 30.1957 64.2144 30.2283 65.4758C30.261 66.7373 30.2898 68.0525 30.3166 69.3408C30.4139 74.2816 30.4568 79.2217 30.4453 84.1613C30.4257 84.565 30.4625 84.9696 30.5547 85.3632C30.643 85.6723 30.8005 85.9565 30.8965 86.2617C31.0607 86.782 31.0499 87.3418 30.8658 87.8553C30.0202 87.8287 29.1786 87.9819 28.3966 88.3046C27.9166 87.3677 27.7899 86.2963 27.6709 85.2499L25.9429 70.1126L23.7234 82.8691L23.3086 85.248C23.132 86.2637 22.9554 87.2813 22.7614 88.295C21.9415 87.9928 21.0759 87.8331 20.2021 87.8227C19.9678 87.4118 20.0715 86.9107 20.2021 86.4326Z" fill="#263238" stroke="#263238" stroke-width="0.3" stroke-linecap="round" stroke-linejoin="round"/>
<path d="M23.5258 64.343H28.7847V64.9113H23.5258V64.343Z" fill="#575757" stroke="#263238" stroke-width="0.3" stroke-linecap="round" stroke-linejoin="round"/>
<path d="M22.0319 64.343H23.0476V64.9113H22.0319V64.343Z" fill="#575757" stroke="#263238" stroke-width="0.3" stroke-linecap="round" stroke-linejoin="round"/>
<path d="M29.2627 64.343H30.0691V64.9113H29.2627V64.343Z" fill="#575757" stroke="#263238" stroke-width="0.3" stroke-linecap="round" stroke-linejoin="round"/>
<path d="M25.438 64.4026H26.7532V64.8806H25.438V64.4026Z" fill="white" stroke="#263238" stroke-width="0.3" stroke-linecap="round" stroke-linejoin="round"/>
<path d="M31.8931 53.8905C31.8931 53.8905 34.3161 62.3155 34.4217 62.5305C34.5273 62.7456 33.8937 62.6361 33.2985 62.7417C32.7033 62.8473 31.8585 62.3904 31.7625 62.2137C31.6665 62.0371 30.7795 59.3011 30.7795 59.3011L31.8931 53.8905Z" fill="white" stroke="#263238" stroke-width="0.3" stroke-linecap="round" stroke-linejoin="round"/>
<path d="M31.7851 56.6208L31.8835 56.377" stroke="#263238" stroke-width="0.3" stroke-linecap="round" stroke-linejoin="round"/>
<path d="M30.9888 58.5427L31.6665 56.903" stroke="#263238" stroke-width="0.3" stroke-linecap="round" stroke-linejoin="round"/>
<path d="M31.8413 61.1021L31.6493 61.2403L31.8413 61.1021Z" fill="white"/>
<path d="M31.8413 61.1021L31.6493 61.2403" stroke="#263238" stroke-width="0.3" stroke-linecap="round" stroke-linejoin="round"/>
<path d="M33.6306 60.7219C33.3706 60.622 33.1037 60.5411 32.8319 60.48C32.5586 60.6028 32.3008 60.7575 32.0639 60.9408" fill="white"/>
<path d="M33.6306 60.7219C33.3706 60.622 33.1037 60.5411 32.8319 60.48C32.5586 60.6028 32.3008 60.7575 32.0639 60.9408" stroke="#263238" stroke-width="0.3" stroke-linecap="round" stroke-linejoin="round"/>
<path d="M20.6591 53.399C20.6591 53.399 17.8866 60.8064 17.8156 61.079C17.7285 61.3252 17.6926 61.5865 17.71 61.847C17.7464 62.1619 18.2361 62.3731 18.3417 62.3731C18.4473 62.3731 19.2191 61.8816 19.5359 61.7414C19.8527 61.6013 20.7993 61.1443 20.7993 61.1443L21.2908 59.5641L20.6591 53.399Z" fill="white" stroke="#263238" stroke-width="0.3" stroke-linecap="round" stroke-linejoin="round"/>
<path d="M20.5037 55.8029L20.4582 55.6224" stroke="#263238" stroke-width="0.3" stroke-linecap="round" stroke-linejoin="round"/>
<path d="M21.166 58.4083L20.5785 56.0966" stroke="#263238" stroke-width="0.3" stroke-linecap="round" stroke-linejoin="round"/>
<path d="M19.4668 59.7293L20.5996 60.4378" stroke="#263238" stroke-width="0.3" stroke-linecap="round" stroke-linejoin="round"/>
<path d="M27.8379 51.3389L27.7227 49.5552H25.4513L24.9905 51.5405L26.515 52.8921L27.8379 51.3389Z" fill="white" stroke="#263238" stroke-width="0.3" stroke-linecap="round" stroke-linejoin="round"/>
<path d="M27.9264 51.7843L31.8931 53.8963L30.1651 63.024C30.1651 63.024 30.3052 63.8669 30.2015 64.0416C30.1295 64.1549 30.0331 64.2506 29.9193 64.3219H22.1606C22.1606 64.3219 21.6345 63.8304 21.6345 63.7267V63.264L20.6515 53.399L24.5875 51.84L27.9264 51.7843Z" fill="white" stroke="#263238" stroke-width="0.3" stroke-linecap="round" stroke-linejoin="round"/>
<path d="M27.0374 52.201L26.517 53.6698L27.2217 62.6093L26.1196 64.3546L25.1692 62.4557L26.1503 53.6698L25.5378 52.3526L26.4249 51.3734L27.0374 52.201Z" fill="#263238" stroke="#263238" stroke-width="0.3" stroke-linecap="round" stroke-linejoin="round"/>
<path d="M27.9857 51.0067L28.0779 51.9859L27.2523 53.3338L26.6398 51.863L27.9857 51.0067Z" fill="white" stroke="#263238" stroke-width="0.3" stroke-linecap="round" stroke-linejoin="round"/>
<path d="M26.0889 51.8937L25.5993 53.4547L24.5874 51.8323L25.0482 50.8838L26.0889 51.8937Z" fill="white" stroke="#263238" stroke-width="0.3" stroke-linecap="round" stroke-linejoin="round"/>
<path d="M23.5737 62.2464L23.7139 61.1577L22.7654 61.3325L23.5737 62.2464Z" fill="white" stroke="#263238" stroke-width="0.3" stroke-linecap="round" stroke-linejoin="round"/>
<path d="M26.1715 58.944C26.468 58.907 26.7613 58.8479 27.0489 58.7674C27.3657 58.6637 27.575 58.8038 27.3293 59.1187C27.0835 59.4336 26.2061 59.5757 26.1005 59.5757C26.1005 59.5757 25.9257 60.4877 25.4342 60.6643C25.1887 60.7615 24.9297 60.8205 24.6662 60.839C24.5319 61.0315 24.3318 61.1681 24.1037 61.223C23.7869 61.2595 23.0515 61.7856 23.0515 61.7856L22.7001 60.9773L23.4681 60.3456L24.2361 59.0112L24.9734 58.7654L25.6089 58.56L26.1715 58.944Z" fill="white" stroke="#263238" stroke-width="0.3" stroke-linecap="round" stroke-linejoin="round"/>
<path d="M24.2055 59.904L24.5204 60.2189C24.499 60.3108 24.4874 60.4048 24.4858 60.4992C24.4858 60.6413 24.7315 60.6413 24.9082 60.6413C25.0939 60.6486 25.2775 60.5991 25.4343 60.4992C25.5744 60.3955 26.137 59.904 26.137 59.904L25.5399 58.8499L26.0659 59.2013C26.193 59.4397 26.3462 59.6632 26.5229 59.8675C26.7322 60.0787 26.8032 59.833 26.8032 59.833C26.7157 59.5406 26.5979 59.2581 26.4519 58.9901C26.2524 58.7796 26.0415 58.5803 25.8202 58.393C25.6808 58.3716 25.539 58.3716 25.3997 58.393C25.0619 58.4955 24.742 58.6497 24.4512 58.8499C24.2567 58.9903 24.1094 59.1865 24.0288 59.4125C24.0084 59.4929 23.9968 59.5753 23.9943 59.6582" fill="white"/>
<path d="M24.2055 59.904L24.5204 60.2189C24.499 60.3108 24.4874 60.4048 24.4858 60.4992C24.4858 60.6413 24.7315 60.6413 24.9082 60.6413C25.0939 60.6486 25.2775 60.5991 25.4343 60.4992C25.5744 60.3955 26.137 59.904 26.137 59.904L25.5399 58.8499L26.0659 59.2013C26.193 59.4397 26.3462 59.6632 26.5229 59.8675C26.7322 60.0787 26.8032 59.833 26.8032 59.833C26.7157 59.5406 26.5979 59.2581 26.4519 58.9901C26.2524 58.7796 26.0415 58.5803 25.8202 58.393C25.6808 58.3716 25.539 58.3716 25.3997 58.393C25.0619 58.4955 24.742 58.6497 24.4512 58.8499C24.2567 58.9903 24.1094 59.1865 24.0288 59.4125C24.0084 59.4929 23.9968 59.5753 23.9943 59.6582" stroke="#263238" stroke-width="0.3" stroke-linecap="round" stroke-linejoin="round"/>
<path d="M25.1173 60.5952C25.1749 60.4627 25.1878 60.3151 25.1537 60.1747C24.9924 59.8848 24.8161 59.6035 24.6257 59.3318" stroke="#263238" stroke-width="0.3" stroke-linecap="round" stroke-linejoin="round"/>
<path d="M25.4342 60.4896C25.4342 60.4896 25.4899 60.4262 25.5532 60.3379C25.6166 60.2496 25.5647 60.0902 25.5647 59.975C25.5647 59.7638 25.0483 58.9113 25.0483 58.9113" stroke="#263238" stroke-width="0.3" stroke-linecap="round" stroke-linejoin="round"/>
<path d="M18.5184 60.3149C18.5184 60.3149 17.6409 61.6493 17.6755 62.0006C17.71 62.352 17.9212 63.1238 18.2361 63.1238C18.551 63.1238 19.9641 62.9472 20.9395 62.7725C21.9148 62.5977 22.5907 62.5267 22.5907 62.5267L23.5737 62.2464L22.9056 60.6317L22.2681 60.7641C21.9632 60.6901 21.6533 60.6388 21.3408 60.6105C20.8838 60.5741 19.3613 60.2093 19.3613 60.2093" fill="white"/>
<path d="M18.5184 60.3149C18.5184 60.3149 17.6409 61.6493 17.6755 62.0006C17.71 62.352 17.9212 63.1238 18.2361 63.1238C18.551 63.1238 19.9641 62.9472 20.9395 62.7725C21.9148 62.5977 22.5907 62.5267 22.5907 62.5267L23.5737 62.2464L22.9056 60.6317L22.2681 60.7641C21.9632 60.6901 21.6533 60.6388 21.3408 60.6105C20.8838 60.5741 19.3613 60.2093 19.3613 60.2093" stroke="#263238" stroke-width="0.3" stroke-linecap="round" stroke-linejoin="round"/>
<path d="M22.2624 60.9235C22.2458 61.3171 22.3431 61.7071 22.5427 62.0467" stroke="#263238" stroke-width="0.3" stroke-linecap="round" stroke-linejoin="round"/>
<path d="M33.9647 61.4035C33.9647 61.4035 34.5618 62.8416 34.5964 62.9395C34.631 63.0374 34.4908 63.7075 33.9302 63.5712C33.3695 63.4349 30.3839 63.1162 29.998 63.0451L29.015 62.8704H28.247C27.8956 62.8704 26.903 62.8704 26.7014 62.7994L25.8585 62.519C25.6492 62.448 25.1923 62.1677 25.1577 62.0621C25.1231 61.9565 25.2614 61.8528 25.6127 61.8874C25.9641 61.9219 27.0527 61.9565 27.0527 61.9565C27.0527 61.9565 26.0697 61.5725 25.7529 61.4304C25.4361 61.2883 25.5436 61.1501 25.5436 61.1501C25.7472 61.1514 25.9491 61.1871 26.1407 61.2557C26.3865 61.3613 28.8076 61.6762 28.8076 61.6762L29.0841 61.44C29.0047 61.238 28.9574 61.0249 28.9439 60.8083C28.9439 60.528 29.0841 60.3168 29.2607 60.3878C29.4374 60.4589 29.5065 60.8794 29.541 61.0195C29.5756 61.1597 29.7523 61.7203 29.7523 61.7203L29.8214 62.0371C29.8214 62.0371 31.2614 61.7568 31.6838 61.5802C32.1062 61.4035 32.9817 61.1597 33.1218 61.1962C33.262 61.2326 33.5442 61.6186 33.6134 61.7933" fill="white"/>
<path d="M33.9647 61.4035C33.9647 61.4035 34.5618 62.8416 34.5964 62.9395C34.631 63.0374 34.4908 63.7075 33.9302 63.5712C33.3695 63.4349 30.3839 63.1162 29.998 63.0451L29.015 62.8704H28.247C27.8956 62.8704 26.903 62.8704 26.7014 62.7994L25.8585 62.519C25.6492 62.448 25.1923 62.1677 25.1577 62.0621C25.1231 61.9565 25.2614 61.8528 25.6127 61.8874C25.9641 61.9219 27.0527 61.9565 27.0527 61.9565C27.0527 61.9565 26.0697 61.5725 25.7529 61.4304C25.4361 61.2883 25.5436 61.1501 25.5436 61.1501C25.7472 61.1514 25.9491 61.1871 26.1407 61.2557C26.3865 61.3613 28.8076 61.6762 28.8076 61.6762L29.0841 61.44C29.0047 61.238 28.9574 61.0249 28.9439 60.8083C28.9439 60.528 29.0841 60.3168 29.2607 60.3878C29.4374 60.4589 29.5065 60.8794 29.541 61.0195C29.5756 61.1597 29.7523 61.7203 29.7523 61.7203L29.8214 62.0371C29.8214 62.0371 31.2614 61.7568 31.6838 61.5802C32.1062 61.4035 32.9817 61.1597 33.1218 61.1962C33.262 61.2326 33.5442 61.6186 33.6134 61.7933" stroke="#263238" stroke-width="0.3" stroke-linecap="round" stroke-linejoin="round"/>
<path d="M30.8307 61.9066C30.8307 61.9066 31.0617 62.4211 30.7834 62.7494" stroke="#263238" stroke-width="0.3" stroke-linecap="round" stroke-linejoin="round"/>
<path d="M30.3264 60.0576L29.2589 62.2291C29.2398 62.2683 29.21 62.3014 29.173 62.3245C29.136 62.3475 29.0932 62.3598 29.0496 62.3597L25.152 62.4C25.1135 62.4003 25.0755 62.3913 25.0413 62.3736C25.0072 62.3559 24.9778 62.3302 24.9559 62.2986C24.9339 62.267 24.92 62.2305 24.9154 62.1923C24.9107 62.1541 24.9155 62.1153 24.9293 62.0794L25.7779 59.8675C25.795 59.8234 25.8251 59.7854 25.8641 59.7587C25.9032 59.7319 25.9495 59.7177 25.9968 59.7178H30.1152C30.1554 59.7174 30.195 59.7274 30.2302 59.7467C30.2654 59.7661 30.2951 59.7942 30.3163 59.8283C30.3375 59.8625 30.3496 59.9015 30.3513 59.9416C30.3531 59.9818 30.3445 60.0217 30.3264 60.0576Z" fill="#56AA7A" stroke="#263238" stroke-width="0.3" stroke-linecap="round" stroke-linejoin="round"/>
<path d="M25.6089 61.895C25.9603 61.9296 27.0489 61.9642 27.0489 61.9642C27.0489 61.9642 26.0659 61.5802 25.7491 61.4381C25.4323 61.296 25.5398 61.1578 25.5398 61.1578C25.7434 61.1591 25.9453 61.1948 26.1369 61.2634C26.3827 61.369 28.8038 61.6838 28.8038 61.6838L29.0841 61.44C29.0048 61.238 28.9575 61.0249 28.944 60.8083C28.944 60.528 29.0841 60.3168 29.2608 60.3878C29.4374 60.4589 29.5065 60.8794 29.5411 61.0195C29.5756 61.1597 29.7523 61.7203 29.7523 61.7203L29.8214 62.0371L30.1939 61.9622C30.2632 62.2056 30.2558 62.4644 30.1728 62.7034C30.1343 62.8249 30.0887 62.9442 30.0364 63.0605H29.998L29.015 62.8858H28.247C27.8956 62.8858 26.903 62.8858 26.7014 62.8147L25.8585 62.5344C25.6492 62.4634 25.1923 62.183 25.1577 62.0774C25.1232 61.9718 25.2576 61.8605 25.6089 61.895Z" fill="white" stroke="#263238" stroke-width="0.3" stroke-linecap="round" stroke-linejoin="round"/>
<path d="M25.2863 62.1254C25.5561 62.259 25.8345 62.3744 26.1196 62.471C26.2233 62.471 27.4636 62.6112 27.4636 62.6112" stroke="#263238" stroke-width="0.3" stroke-linecap="round" stroke-linejoin="round"/>
<path d="M30.8756 87.863C30.8672 87.829 30.8565 87.7956 30.8434 87.7632C30.8567 87.7862 30.8718 87.8073 30.887 87.8304L30.8756 87.863Z" fill="white" stroke="#263238" stroke-width="0.3" stroke-linecap="round" stroke-linejoin="round"/>
<path d="M28.7596 46.8173C28.7596 46.8173 29.0745 46.5869 29.1897 46.9325C29.3049 47.2781 29.3625 47.6505 29.1321 47.9097C28.9017 48.1689 28.5868 48.6297 28.5868 48.6297L28.7596 46.8173Z" fill="white" stroke="#263238" stroke-width="0.3" stroke-linecap="round" stroke-linejoin="round"/>
<path d="M24.43 46.8173C24.43 46.8173 24.1151 46.5869 23.9999 46.9325C23.8847 47.2781 23.8271 47.6505 24.0575 47.9097C24.2879 48.1689 24.6028 48.6297 24.6028 48.6297L24.43 46.8173Z" fill="white" stroke="#263238" stroke-width="0.3" stroke-linecap="round" stroke-linejoin="round"/>
<path d="M28.4332 49.2979C28.4332 49.2979 27.2811 50.8435 27.0392 50.9241C26.7608 51.0163 26.2501 51.1161 26.0178 50.9702C25.7855 50.8243 24.5547 49.4534 24.5202 48.8179C24.4856 48.1824 24.2648 45.6979 24.6239 45.0701C24.9829 44.4422 25.7394 43.5341 27.7362 44.1869C27.7362 44.1869 29.6408 44.7917 28.4332 49.2979Z" fill="white" stroke="#263238" stroke-width="0.3" stroke-linecap="round" stroke-linejoin="round"/>
<path d="M27.1045 49.1693C27.0476 49.2745 26.962 49.3614 26.8576 49.4198C26.7533 49.4783 26.6345 49.5059 26.5151 49.4995C26.2386 49.4995 26.0754 49.1731 26.0754 49.1731" stroke="#263238" stroke-width="0.3" stroke-linecap="round" stroke-linejoin="round"/>
<path d="M26.853 49.9008C26.853 49.9008 26.661 50.1331 26.1561 49.9008" stroke="#263238" stroke-width="0.3" stroke-linecap="round" stroke-linejoin="round"/>
<path d="M28.1086 48.192C28.1086 48.192 27.4942 48.4954 27.1198 48.1786" stroke="#263238" stroke-width="0.3" stroke-linecap="round" stroke-linejoin="round"/>
<path d="M25.9717 48.192C25.6215 48.2813 25.2539 48.2767 24.9061 48.1786" stroke="#263238" stroke-width="0.3" stroke-linecap="round" stroke-linejoin="round"/>
<path d="M27.0624 47.8234C27.2195 47.6912 27.4075 47.6008 27.6088 47.5605C27.8102 47.5202 28.0185 47.5314 28.2144 47.593" stroke="#263238" stroke-width="0.3" stroke-linecap="round" stroke-linejoin="round"/>
<path d="M26.0562 47.8234C25.8667 47.6973 25.6476 47.623 25.4206 47.6078C25.1936 47.5927 24.9665 47.6372 24.7621 47.737" stroke="#263238" stroke-width="0.3" stroke-linecap="round" stroke-linejoin="round"/>
<path d="M29.7502 46.2835C29.7502 46.2835 28.8056 47.543 27.2312 47.6064C25.6568 47.6697 25.0117 47.3856 24.6181 47.0707C24.2245 46.7558 23.4526 46.0953 23.4526 46.0953C23.6756 45.7288 23.8256 45.3227 23.8942 44.8992C23.9883 44.2368 24.0862 42.9465 25.532 42.5049C26.9778 42.0633 28.6174 42.6624 29.1205 43.6704C29.6235 44.6784 29.4046 45.8745 29.7502 46.2835Z" fill="white" stroke="#263238" stroke-width="0.3" stroke-linecap="round" stroke-linejoin="round"/>
<path d="M28.1145 46.2586C28.1145 46.2586 28.1568 44.8013 27.9859 44.2867C27.815 43.7722 26.8723 43.344 26.8723 43.344V42.7872" fill="white"/>
<path d="M28.1145 46.2586C28.1145 46.2586 28.1568 44.8013 27.9859 44.2867C27.815 43.7722 26.8723 43.344 26.8723 43.344V42.7872" stroke="#263238" stroke-width="0.3" stroke-linecap="round" stroke-linejoin="round"/>
<path d="M25.3285 46.2586C25.3285 46.2586 25.1154 44.759 25.5436 44.0717C25.9717 43.3843 26.2712 43.3862 26.2712 43.3862V42.7872" fill="white"/>
<path d="M25.3285 46.2586C25.3285 46.2586 25.1154 44.759 25.5436 44.0717C25.9717 43.3843 26.2712 43.3862 26.2712 43.3862V42.7872" stroke="#263238" stroke-width="0.3" stroke-linecap="round" stroke-linejoin="round"/>
<path d="M97.515 31.7318H101.453V88.3066H97.515V31.7318Z" fill="#263238" stroke="#263238" stroke-width="0.5" stroke-linecap="round" stroke-linejoin="round"/>
<path d="M95.6045 43.657H98.0736C98.6582 43.657 99.2188 43.8892 99.6322 44.3025C100.046 44.7159 100.278 45.2765 100.278 45.8611V47.5354C100.28 47.7022 100.239 47.8667 100.158 48.0127C100.077 48.1587 99.9599 48.2811 99.8175 48.3679C99.675 48.4547 99.5124 48.503 99.3457 48.5078C99.1789 48.5126 99.0138 48.4739 98.8665 48.3955L94.6425 46.2144V43.9219L95.6045 43.657Z" fill="#424242" stroke="#263238" stroke-width="0.5" stroke-linecap="round" stroke-linejoin="round"/>
<path d="M95.6045 74.88H98.0736C98.6582 74.88 99.2188 75.1122 99.6322 75.5256C100.046 75.939 100.278 76.4996 100.278 77.0842V78.7584C100.28 78.9252 100.239 79.0897 100.158 79.2357C100.077 79.3817 99.9599 79.5042 99.8175 79.591C99.675 79.6778 99.5124 79.726 99.3457 79.7308C99.1789 79.7357 99.0138 79.697 98.8665 79.6186L94.6425 77.4374V75.1354L95.6045 74.88Z" fill="#424242" stroke="#263238" stroke-width="0.5" stroke-linecap="round" stroke-linejoin="round"/>
<path d="M101.161 30.2534H102.924V42.7738H101.161V30.2534Z" fill="#424242" stroke="#263238" stroke-linecap="round" stroke-linejoin="round"/>
<path d="M69.9285 66.7008H83.5413V72.9389H69.9285V66.7008Z" fill="#263238" stroke="#263238" stroke-width="0.3" stroke-linecap="round" stroke-linejoin="round"/>
<path d="M94.8884 77.568L89.0151 47.2109C88.6823 45.4886 87.7788 43.9287 86.4505 42.783C85.1223 41.6372 83.4467 40.9725 81.6942 40.896L68.3195 40.32C67.6657 40.292 67.0266 40.5184 66.5361 40.9515C66.0457 41.3847 65.7421 41.991 65.6891 42.6432L63.3851 71.3664" stroke="#263238" stroke-width="2.5" stroke-miterlimit="10"/>
<path d="M84.3841 78.2784L98.4385 76.2202V82.9344L83.4894 79.2633L84.3841 78.2784Z" fill="#263238" stroke="#263238" stroke-width="0.5" stroke-miterlimit="10"/>
<path d="M85.396 63.0355L87.3602 61.9027L88.3836 62.4L90.0482 61.152L90.7049 62.2253L90.0482 62.9414L90.7049 63.2409L90.3477 64.0089C90.3477 64.0089 91.8396 65.0227 92.1967 67.7683L93.748 67.7088V73.152L91.7762 72.2515L91.06 72.1325C91.06 72.1325 87.2392 68.1945 86.3445 66.2841C85.4498 64.3737 85.396 63.0355 85.396 63.0355Z" fill="#263238" stroke="#263238" stroke-width="0.5" stroke-miterlimit="10"/>
<path d="M81.3158 57.9494L81.8918 58.2029L86.0314 57.8189C86.0314 57.8189 87.1142 57.1833 87.7498 57.4349C88.1366 57.5915 88.4845 57.8306 88.7693 58.1357C88.7693 58.1357 88.7693 59.3453 88.4506 59.4086C88.1318 59.472 87.5597 59.2819 87.5597 59.2819L87.241 58.9632C87.241 58.9632 83.1667 60.0461 82.5926 60.1728C82.0186 60.2995 80.3654 59.5968 80.3654 59.5968L81.3158 57.9494Z" fill="white" stroke="#263238" stroke-width="0.3" stroke-linecap="round" stroke-linejoin="round"/>
<path d="M87.7442 57.4387C88.131 57.5953 88.4789 57.8345 88.7637 58.1395C88.7637 58.1395 88.7637 59.3491 88.445 59.4125C88.1262 59.4758 87.5541 59.2858 87.5541 59.2858L87.2354 58.967L86.0392 59.2838C85.895 59.1288 85.8089 58.9287 85.7954 58.7174C85.818 58.417 85.8688 58.1194 85.947 57.8285H86.0257C86.0257 57.8285 87.1106 57.1853 87.7442 57.4387Z" fill="#56AA7A" stroke="#263238" stroke-width="0.3" stroke-linecap="round" stroke-linejoin="round"/>
<path d="M87.2046 57.8112L87.579 57.8745C87.579 57.8745 88.1416 58.5005 88.1416 58.7174C88.1416 58.9344 87.7979 59.0611 87.6731 58.9997C87.5349 58.9085 87.4063 58.8037 87.2891 58.6867C87.1346 58.7961 86.9484 58.8514 86.7592 58.8441C86.5413 58.8401 86.3272 58.7863 86.1333 58.6867" stroke="#263238" stroke-width="0.3" stroke-miterlimit="10"/>
<path d="M78.2594 54.8294L81.7615 57.6307L80.3618 59.6045L78.2594 58.0762V54.8294Z" fill="white" stroke="#263238" stroke-width="0.3" stroke-linecap="round" stroke-linejoin="round"/>
<path d="M81.7615 57.6307L80.5519 60.1766L79.7877 59.4125L80.8706 56.8665L81.7615 57.6307Z" fill="white" stroke="#263238" stroke-width="0.3" stroke-linecap="round" stroke-linejoin="round"/>
<path d="M78.1959 52.8L79.0868 56.8742C79.0868 56.8742 78.7028 60.2477 78.7028 60.8851C78.7028 61.5226 79.0215 62.9222 79.0215 62.9222L79.1501 63.3677C79.1501 63.3677 79.1501 65.7869 78.1306 66.0422C77.1111 66.2976 76.0935 66.551 74.8205 66.551C73.5476 66.551 72.5281 65.975 72.0193 65.088C71.5105 64.201 71.5085 62.2848 71.5085 61.5859C71.5085 60.887 72.5914 55.4093 72.7834 54.0096C72.9754 52.6099 74.8205 51.5251 75.2026 51.3984C75.5847 51.2717 78.1959 52.8 78.1959 52.8Z" fill="white" stroke="#263238" stroke-width="0.3" stroke-linecap="round" stroke-linejoin="round"/>
<path d="M79.8567 46.9037L80.2099 47.6851C80.2099 47.6851 81.1565 48.3782 80.9376 48.5606C80.8125 48.6626 80.6945 48.773 80.5843 48.8909C80.5843 48.8909 80.9434 50.4518 80.8128 50.5901C80.6719 50.7184 80.4955 50.8011 80.3067 50.8275C80.1179 50.8539 79.9256 50.8227 79.7549 50.7379C79.6409 50.699 79.5189 50.6897 79.4004 50.7108C79.2818 50.732 79.1706 50.7829 79.0771 50.8589L78.1459 52.6253L75.2813 50.8973L75.6653 49.4362L74.9549 48.361L79.8567 46.9037Z" fill="white" stroke="#263238" stroke-width="0.3" stroke-linecap="round" stroke-linejoin="round"/>
<path d="M75.6693 49.4342L74.9589 48.359L78.8891 47.232C78.9851 47.4029 79.1541 47.7466 79.0101 47.8387C78.8623 47.9453 78.7327 48.075 78.6261 48.2227C78.6261 48.2227 78.6741 48.5894 78.4149 48.5472C78.1557 48.505 77.7583 47.9808 77.3474 48.2861C76.9365 48.5914 76.9231 48.935 77.2226 49.2058C77.4021 49.3679 77.5905 49.5198 77.7871 49.6608C77.7871 49.6608 76.1896 50.8704 75.6751 50.7821L75.3755 50.7302L75.6693 49.4342Z" fill="#263238" stroke="#263238" stroke-width="0.3" stroke-linecap="round" stroke-linejoin="round"/>
<path d="M80.2925 46.6118L81.3408 46.7674C81.3408 46.7674 78.8928 47.7274 78.1863 47.7178C77.4797 47.7082 74.7303 49.1405 74.7303 49.1405C74.7303 49.1405 73.5629 47.4125 74.4403 45.8765C75.3178 44.3405 76.8423 43.9373 77.9847 44.3405C79.1271 44.7437 79.7203 45.145 80.2925 46.6118Z" fill="white" stroke="#263238" stroke-width="0.3" stroke-linecap="round" stroke-linejoin="round"/>
<path d="M75.3948 50.2445L78.8335 52.345L78.7049 53.4278L74.886 51.2006L75.3948 50.2445Z" fill="white" stroke="#263238" stroke-width="0.3" stroke-linecap="round" stroke-linejoin="round"/>
<path d="M89.3972 73.8624C89.3972 73.8624 91.4267 74.9971 91.7857 75.1162C92.1447 75.2352 94.4737 75.8323 94.4104 76.2509C94.347 76.6694 94.1723 76.7866 93.218 77.0189C92.2638 77.2512 88.2644 77.6755 87.7268 77.616C87.1892 77.5565 87.7864 74.3328 87.7864 74.3328L89.3972 73.8624Z" fill="#263238" stroke="#263238" stroke-width="0.3" stroke-linecap="round" stroke-linejoin="round"/>
<path d="M93.218 77.0266C92.258 77.2646 88.2644 77.6832 87.7268 77.6237C87.5348 77.6026 87.4887 77.1763 87.5079 76.6406C90.722 77.0976 93.1546 76.4986 94.3335 76.0915C94.3582 76.11 94.378 76.1341 94.3914 76.1618C94.4047 76.1896 94.4112 76.2201 94.4103 76.2509C94.3508 76.6675 94.1722 76.7866 93.218 77.0266Z" fill="white" stroke="#263238" stroke-width="0.3" stroke-linecap="round" stroke-linejoin="round"/>
<path d="M74.1813 64.4947C74.1813 64.4947 76.7464 63.36 76.9922 63.1814C77.2379 63.0029 84.6319 63.5981 85.2885 64.0762C85.9451 64.5542 90.9583 73.3267 90.9583 73.3267L87.7346 75.4157L82.7138 67.776C82.7138 67.776 80.8053 67.7165 80.3272 67.5379C79.8491 67.3594 77.044 66.8813 77.044 66.8813C77.044 66.8813 74.0008 67.2979 73.1656 66.9408C72.3304 66.5837 73.2847 65.0899 73.2847 65.0899" fill="#56AA7A"/>
<path d="M74.1813 64.4947C74.1813 64.4947 76.7464 63.36 76.9922 63.1814C77.2379 63.0029 84.6319 63.5981 85.2885 64.0762C85.9451 64.5542 90.9583 73.3267 90.9583 73.3267L87.7346 75.4157L82.7138 67.776C82.7138 67.776 80.8053 67.7165 80.3272 67.5379C79.8491 67.3594 77.044 66.8813 77.044 66.8813C77.044 66.8813 74.0008 67.2979 73.1656 66.9408C72.3304 66.5837 73.2847 65.0899 73.2847 65.0899" stroke="#263238" stroke-width="0.3" stroke-linecap="round" stroke-linejoin="round"/>
<path d="M82.8327 67.5974L84.384 65.7466L82.6541 67.0003" stroke="#263238" stroke-width="0.3" stroke-miterlimit="10"/>
<path d="M81.3198 68.5555H69.8171V65.1763C69.8171 65.1763 70.3086 64.5773 71.3435 64.9574C72.3784 65.3376 73.1425 66.7027 73.1425 66.7027C73.1425 66.7027 80.7208 65.3952 81.3198 68.5555Z" fill="#263238" stroke="#263238" stroke-width="0.3" stroke-linecap="round" stroke-linejoin="round"/>
<path d="M69.9265 66.4838H68.4001L65.7832 59.1245L66.9832 58.7981L69.9265 66.4838Z" fill="#263238" stroke="#263238" stroke-width="0.3" stroke-linecap="round" stroke-linejoin="round"/>
<path d="M66.9832 58.7981L69.1086 64.5773L70.9365 63.8285C71.1351 63.7474 71.3147 63.6261 71.4639 63.472C71.6132 63.318 71.7289 63.1346 71.8036 62.9336C71.8783 62.7325 71.9105 62.5181 71.898 62.304C71.8856 62.0899 71.8288 61.8806 71.7313 61.6896C71.0862 60.4281 70.0552 58.7251 68.8917 57.9801C66.9294 56.7264 66.8161 57.9264 66.9832 58.7981Z" fill="#263238" stroke="#263238" stroke-width="0.3" stroke-linecap="round" stroke-linejoin="round"/>
<path d="M84.9216 71.3875L85.2806 78.9965L91.8528 80.1485C90.6263 80.9615 89.726 82.181 89.3101 83.5925C88.8943 85.004 88.9897 86.5169 89.5795 87.8649H62.2598C61.9314 87.8649 61.6164 87.7345 61.3841 87.5022C61.1519 87.27 61.0214 86.955 61.0214 86.6265V70.1664C61.0209 69.886 61.1259 69.6156 61.3154 69.4089C61.505 69.2023 61.7653 69.0745 62.0448 69.0509C65.6793 68.736 78.096 67.968 84.9216 71.3875Z" fill="#56AA7A" stroke="#263238" stroke-width="0.3" stroke-linecap="round" stroke-linejoin="round"/>
<path d="M91.7776 89.2685C89.6144 87.3193 89.4408 83.9856 91.39 81.8224C93.3391 79.6592 96.6728 79.4856 98.8361 81.4348C100.999 83.3839 101.173 86.7176 99.2237 88.8809C97.2745 91.0441 93.9408 91.2176 91.7776 89.2685Z" fill="#263238" stroke="#263238" stroke-linecap="round" stroke-linejoin="round"/>
<path d="M93.6619 87.1811C92.6559 86.2715 92.5778 84.7186 93.4874 83.7126C94.397 82.7066 95.9499 82.6285 96.9559 83.5381C97.9618 84.4477 98.04 86.0006 97.1304 87.0066C96.2207 88.0126 94.6679 88.0907 93.6619 87.1811Z" fill="white" stroke="#263238" stroke-linecap="round" stroke-linejoin="round"/>
<path d="M62.0009 89.8059C60.9099 88.715 60.9099 86.9462 62.0009 85.8552C63.0918 84.7642 64.8607 84.7642 65.9516 85.8552C67.0426 86.9462 67.0426 88.715 65.9516 89.8059C64.8607 90.8969 63.0918 90.8969 62.0009 89.8059Z" fill="#263238" stroke="#263238" stroke-linecap="round" stroke-linejoin="round"/>
<path d="M62.6765 87.8304C62.6765 87.5728 62.7529 87.3211 62.896 87.107C63.0392 86.8928 63.2426 86.726 63.4806 86.6275C63.7185 86.5291 63.9804 86.5034 64.2329 86.5538C64.4855 86.6042 64.7175 86.7283 64.8994 86.9106C65.0814 87.0928 65.2052 87.325 65.2552 87.5776C65.3053 87.8302 65.2792 88.092 65.1804 88.3299C65.0816 88.5677 64.9144 88.7709 64.7001 88.9137C64.4858 89.0565 64.2339 89.1325 63.9763 89.1321C63.8055 89.1321 63.6363 89.0985 63.4785 89.033C63.3206 88.9676 63.1773 88.8717 63.0565 88.7508C62.9358 88.6298 62.8401 88.4863 62.7749 88.3284C62.7097 88.1705 62.6763 88.0012 62.6765 87.8304Z" fill="white" stroke="#263238" stroke-linecap="round" stroke-linejoin="round"/>
<path d="M98.8512 80.6285C97.8489 79.8757 96.6331 79.4613 95.3798 79.4453C94.1264 79.4293 92.9004 79.8125 91.8793 80.5395C90.8581 81.2664 90.0947 82.2994 89.6996 83.489C89.3044 84.6786 89.298 85.963 89.6813 87.1565H89.2973C88.9178 85.893 88.9468 84.542 89.3802 83.296C89.8135 82.05 90.6292 80.9726 91.7109 80.2174C92.7925 79.4622 94.085 79.0677 95.404 79.0901C96.723 79.1126 98.0013 79.5508 99.0566 80.3424L98.8512 80.6285Z" fill="#56AA7A" stroke="#263238" stroke-linecap="round" stroke-linejoin="round"/>
<path d="M85.2808 78.9965C85.2808 78.9965 70.8424 76.8576 69.7499 76.6925C68.6574 76.5274 65.4376 75.3696 64.2299 68.9299" stroke="#263238" stroke-width="0.3" stroke-linecap="round" stroke-linejoin="round"/>
<path d="M118.401 26.1811H132.198V40.944H118.401V26.1811Z" fill="#56AA7A" stroke="#263238" stroke-width="0.5" stroke-linecap="round" stroke-linejoin="round"/>
<path opacity="0.4" d="M118.401 26.1811H132.198V40.944H118.401V26.1811Z" fill="white" stroke="#263238" stroke-width="0.3" stroke-linecap="round" stroke-linejoin="round"/>
<path d="M129.859 26.1811H131.113V31.5514H129.859V26.1811Z" fill="#263238"/>
<path d="M104.615 26.1811H118.412V40.944H104.615V26.1811Z" fill="#56AA7A" stroke="#263238" stroke-width="0.5" stroke-linecap="round" stroke-linejoin="round"/>
<path opacity="0.4" d="M104.615 26.1811H118.412V40.944H104.615V26.1811Z" fill="white" stroke="#263238" stroke-width="0.3" stroke-linecap="round" stroke-linejoin="round"/>
<path d="M116.074 26.1811H117.327V31.5514H116.074V26.1811Z" fill="#263238"/>
<path d="M118.401 11.3222H132.198V26.0851H118.401V11.3222Z" fill="#56AA7A" stroke="#263238" stroke-width="0.5" stroke-linecap="round" stroke-linejoin="round"/>
<path opacity="0.4" d="M118.401 11.3222H132.198V26.0851H118.401V11.3222Z" fill="white" stroke="#263238" stroke-width="0.3" stroke-linecap="round" stroke-linejoin="round"/>
<path d="M129.859 11.3222H131.113V16.6925H129.859V11.3222Z" fill="#263238"/>
<path d="M104.615 11.3222H118.412V26.0851H104.615V11.3222Z" fill="#56AA7A" stroke="#263238" stroke-width="0.5" stroke-linecap="round" stroke-linejoin="round"/>
<path opacity="0.4" d="M104.615 11.3222H118.412V26.0851H104.615V11.3222Z" fill="white" stroke="#263238" stroke-width="0.3" stroke-linecap="round" stroke-linejoin="round"/>
<path d="M116.074 11.3222H117.327V16.6925H116.074V11.3222Z" fill="#263238"/>
<path d="M103.189 42.7757H132.728V43.4803H103.189V42.7757Z" fill="white" stroke="#263238" stroke-linecap="round" stroke-linejoin="round"/>
<path d="M103.189 40.2182H132.728V40.9229H103.189V40.2182Z" fill="white" stroke="#263238" stroke-linecap="round" stroke-linejoin="round"/>
<path d="M129.905 40.944H132.198V42.7334H129.905V40.944Z" fill="white" stroke="#263238" stroke-linecap="round" stroke-linejoin="round"/>
<path d="M117.189 40.944H119.482V42.7334H117.189V40.944Z" fill="white" stroke="#263238" stroke-linecap="round" stroke-linejoin="round"/>
<path d="M104.475 40.944H106.768V42.7334H104.475V40.944Z" fill="white" stroke="#263238" stroke-linecap="round" stroke-linejoin="round"/>
<path d="M79.5976 59.7946C79.5976 59.7946 82.971 60.9466 83.4798 61.1386C83.6145 61.177 83.7401 61.2417 83.8496 61.3291C83.959 61.4164 84.05 61.5246 84.1173 61.6474C84.1173 61.6474 84.5627 62.7302 84.1806 62.9203C83.7986 63.1104 82.8366 62.9837 82.8366 62.9837C82.8366 62.9837 82.2606 63.1123 82.1358 62.857C82.0356 62.569 81.9712 62.2698 81.9438 61.9661C81.9438 61.9661 79.0139 61.7741 78.3784 61.7107C77.9548 61.6508 77.556 61.4747 77.2264 61.2019L79.5976 59.7946Z" fill="white" stroke="#263238" stroke-width="0.3" stroke-linecap="round" stroke-linejoin="round"/>
<path d="M82.1434 62.8512C82.0423 62.5648 81.9778 62.2667 81.9514 61.9642C82.3226 61.9299 82.6731 61.7779 82.9517 61.5302C83.1821 61.3267 83.1955 61.1462 83.1437 61.0099C83.2973 61.0637 83.4183 61.1059 83.4855 61.1328C83.6201 61.1712 83.7458 61.236 83.8552 61.3233C83.9646 61.4106 84.0556 61.5188 84.1229 61.6416C84.1229 61.6416 84.5683 62.7245 84.1863 62.9146C83.8042 63.1046 82.8423 62.9779 82.8423 62.9779C82.8423 62.9779 82.2701 63.1066 82.1434 62.8512Z" fill="#56AA7A" stroke="#263238" stroke-width="0.5" stroke-linecap="round" stroke-linejoin="round"/>
<path d="M76.8 52.992C76.8 52.992 77.4989 53.8195 77.6909 54.528C77.8829 55.2365 78.3917 57.7747 78.3917 57.7747L78.9005 58.7347L79.6013 59.8157C79.5193 60.1211 79.3583 60.3996 79.1345 60.623C78.9107 60.8465 78.632 61.0071 78.3264 61.0886C77.2455 61.4074 76.9824 61.536 76.7348 61.2806C76.4871 61.0253 75.3908 59.1149 75.1431 58.224C74.8954 57.3331 73.8701 54.8506 73.8701 54.8506" fill="white"/>
<path d="M76.8 52.992C76.8 52.992 77.4989 53.8195 77.6909 54.528C77.8829 55.2365 78.3917 57.7747 78.3917 57.7747L78.9005 58.7347L79.6013 59.8157C79.5193 60.1211 79.3583 60.3996 79.1345 60.623C78.9107 60.8465 78.632 61.0071 78.3264 61.0886C77.2455 61.4074 76.9824 61.536 76.7348 61.2806C76.4871 61.0253 75.3908 59.1149 75.1431 58.224C74.8954 57.3331 73.8701 54.8506 73.8701 54.8506" stroke="#263238" stroke-width="0.3" stroke-linecap="round" stroke-linejoin="round"/>
<path d="M78.8969 58.7136L80.3618 59.6045C80.2248 60.0626 80.0091 60.4933 79.7244 60.8774C79.2789 61.4534 78.5724 61.705 78.3804 61.705H77.4876L76.47 61.129C76.47 61.129 77.8697 60.937 78.3151 59.977C78.7605 59.017 78.8969 58.7136 78.8969 58.7136Z" fill="white" stroke="#263238" stroke-width="0.3" stroke-linecap="round" stroke-linejoin="round"/>
<path d="M87.8459 60.0768L87.1298 61.9872L85.2213 62.8819L84.5647 61.7491L87.8459 60.0768Z" fill="#263238" stroke="#263238" stroke-width="0.5" stroke-miterlimit="10"/>
<path d="M82.5255 63.145C82.5836 63.1449 82.6408 63.1311 82.6925 63.1046L89.1879 59.6659C89.267 59.6187 89.325 59.543 89.3498 59.4543C89.3746 59.3656 89.3643 59.2707 89.3212 59.1893C89.278 59.108 89.2053 59.0463 89.1179 59.0171C89.0306 58.9878 88.9353 58.9933 88.8519 59.0323L82.3584 62.471C82.2873 62.508 82.2308 62.5679 82.1978 62.6409C82.1648 62.714 82.1574 62.796 82.1766 62.8738C82.1959 62.9516 82.2408 63.0206 82.3041 63.0698C82.3674 63.119 82.4453 63.1455 82.5255 63.145Z" fill="#263238"/>
<path d="M133.056 90.624H5.59672" stroke="#263238" stroke-linecap="round" stroke-linejoin="round"/>
<path d="M139.776 90.624H134.4" stroke="#263238" stroke-linecap="round" stroke-linejoin="round"/>
<defs>
<linearGradient id="paint0_linear_974_19186" x1="88.9998" y1="10.9999" x2="80.9998" y2="22.9999" gradientUnits="userSpaceOnUse">
<stop stop-color="white"/>
<stop offset="1" stop-color="#D7D7D7"/>
</linearGradient>
</defs>
</svg>
