<svg width="91" height="82" viewBox="0 0 91 82" fill="none" xmlns="http://www.w3.org/2000/svg">
<g clip-path="url(#clip0_974_19540)">
<path d="M53.1022 8.76694C45.0396 8.67958 36.9715 10.8381 29.7734 14.4745C22.5753 18.1108 16.2981 23.842 12.8201 31.122C9.34209 38.402 8.89801 47.2527 12.427 54.5035C13.7501 57.2208 15.7485 59.7997 18.5731 60.8735C22.1858 62.2458 26.1898 60.8881 30.0501 60.7443C35.2826 60.5514 40.3276 62.6244 44.9741 65.045C49.6205 67.4656 54.105 70.2975 59.1118 71.8281C64.1186 73.3587 69.8935 73.417 74.2451 70.5068C78.3529 67.7604 80.5314 62.7864 81.0519 57.8724C81.5724 52.9584 80.6515 48.0207 79.736 43.1649C78.7751 38.0926 74.1341 8.99262 53.1022 8.76694Z" fill="#56AA7A"/>
<g opacity="0.7">
<path d="M53.1022 8.76694C45.0396 8.67958 36.9715 10.8381 29.7734 14.4745C22.5753 18.1108 16.2981 23.842 12.8201 31.122C9.34209 38.402 8.89801 47.2527 12.427 54.5035C13.7501 57.2208 15.7485 59.7997 18.5731 60.8735C22.1858 62.2458 26.1898 60.8881 30.0501 60.7443C35.2826 60.5514 40.3276 62.6244 44.9741 65.045C49.6205 67.4656 54.105 70.2975 59.1118 71.8281C64.1186 73.3587 69.8935 73.417 74.2451 70.5068C78.3529 67.7604 80.5314 62.7864 81.0519 57.8724C81.5724 52.9584 80.6515 48.0207 79.736 43.1649C78.7751 38.0926 74.1341 8.99262 53.1022 8.76694Z" fill="white"/>
</g>
<path d="M45.8276 82.0019C60.3019 82.0019 72.0356 80.8791 72.0356 79.494C72.0356 78.1089 60.3019 76.986 45.8276 76.986C31.3533 76.986 19.6196 78.1089 19.6196 79.494C19.6196 80.8791 31.3533 82.0019 45.8276 82.0019Z" fill="#56AA7A"/>
<path opacity="0.5" d="M45.8276 82.0019C60.3019 82.0019 72.0356 80.8791 72.0356 79.494C72.0356 78.1089 60.3019 76.986 45.8276 76.986C31.3533 76.986 19.6196 78.1089 19.6196 79.494C19.6196 80.8791 31.3533 82.0019 45.8276 82.0019Z" fill="white"/>
<path d="M65.7765 30.8563C65.8657 31.5952 65.509 32.6763 64.7446 32.5944C64.6197 32.5787 64.4973 32.5469 64.3806 32.4997C64.4552 31.9537 64.1258 31.3368 64.3988 30.8617C64.5462 30.596 64.9211 30.1028 65.2123 30.0591C65.6091 29.9954 65.7256 30.4504 65.7765 30.8563Z" fill="#56AA7A"/>
<path d="M64.9339 33.1968C64.6791 33.7428 64.3296 34.1887 63.5088 34.1669C63.325 34.1593 63.1465 34.1028 62.9919 34.0031C62.9151 33.9566 62.8493 33.8943 62.7987 33.8202C62.7482 33.7461 62.7141 33.6619 62.6989 33.5735C62.6909 33.4575 62.7176 33.3417 62.7756 33.2409C62.8336 33.1402 62.9203 33.0589 63.0247 33.0075C63.2353 32.9043 63.4655 32.8472 63.6999 32.8401C63.9499 32.8243 64.2009 32.8501 64.4425 32.9165C64.6213 32.9807 64.7875 33.0756 64.9339 33.1968Z" fill="#56AA7A"/>
<path d="M63.1194 31.2148C63.9802 32.1994 64.9285 33.0767 65.7857 34.0249" stroke="#56AA7A" stroke-width="0.3" stroke-miterlimit="10"/>
<path d="M68.5212 33.8738C68.5476 34.2925 68.4385 34.7086 68.21 35.0605C67.9897 35.3881 67.664 35.5828 67.3 35.4936C67.1814 35.4588 67.0667 35.4118 66.9578 35.3535C67.0111 35.0714 67.0178 34.7824 66.9778 34.4981C66.9295 34.2229 66.967 33.9395 67.0852 33.6864C67.2381 33.4225 67.6021 32.9129 67.9188 32.9056C68.341 32.8965 68.4975 33.4316 68.5212 33.8738Z" fill="#56AA7A"/>
<path d="M67.3926 36.1143C67.2385 36.3611 67.0284 36.5681 66.7793 36.7185C66.489 36.8676 66.1574 36.9162 65.8365 36.8568C65.6698 36.8352 65.5123 36.7678 65.3815 36.6621C65.3178 36.6171 65.2663 36.5569 65.2317 36.487C65.197 36.4171 65.1804 36.3396 65.1832 36.2617C65.1977 36.1487 65.2414 36.0414 65.31 35.9504C65.3786 35.8594 65.4698 35.7879 65.5745 35.743C65.7843 35.652 66.0121 35.6103 66.2406 35.621C66.4859 35.6219 66.7285 35.6721 66.954 35.7685C67.1193 35.8572 67.2678 35.9742 67.3926 36.1143Z" fill="#56AA7A"/>
<path d="M65.7856 34.034C66.2206 34.5017 66.6192 34.9986 67.0087 35.5009C67.3982 36.0032 67.7476 36.5383 68.0734 37.0861" stroke="#56AA7A" stroke-width="0.3" stroke-miterlimit="10"/>
<path d="M70.787 37.4429C70.6759 38.24 69.9862 39.1173 69.2836 38.806C69.1715 38.7534 69.0668 38.6861 68.9724 38.6058C69.033 38.4771 69.0753 38.3405 69.098 38.2C69.1217 38.0598 69.1344 37.9142 69.1508 37.7705C69.158 37.4906 69.2514 37.2199 69.4183 36.9951C69.6203 36.7658 70.0699 36.3381 70.3884 36.3891C70.7979 36.4619 70.8452 37.0133 70.787 37.4429Z" fill="#56AA7A"/>
<path d="M69.2672 39.4339C68.8395 39.8762 68.3663 40.1619 67.6056 39.8908C67.2798 39.7834 66.9868 39.4867 67.0596 39.1628C67.0926 39.0539 67.1544 38.956 67.2382 38.8791C67.3221 38.8023 67.4251 38.7494 67.5364 38.726C67.7622 38.6742 67.9968 38.6742 68.2225 38.726C68.462 38.7782 68.6898 38.8745 68.8941 39.0099C69.0446 39.1259 69.1713 39.2699 69.2672 39.4339Z" fill="#56AA7A"/>
<path d="M68.0679 37.077C68.7239 38.1735 69.2976 39.3172 69.7841 40.4986" stroke="#56AA7A" stroke-width="0.3" stroke-miterlimit="10"/>
<path d="M72.436 41.3304C72.3178 41.7428 72.0606 42.1016 71.708 42.3459C71.3804 42.5662 71.0073 42.619 70.7015 42.3951C70.6034 42.32 70.5143 42.2339 70.4358 42.1385C70.5936 41.8964 70.7019 41.6255 70.7543 41.3413C70.796 41.0664 70.9234 40.8116 71.1183 40.6133C71.3476 40.4167 71.8608 40.0673 72.163 40.151C72.2543 40.181 72.3343 40.2383 72.3922 40.315C72.4501 40.3918 72.4832 40.4845 72.4869 40.5806C72.5251 40.8312 72.5077 41.0872 72.436 41.3304Z" fill="#56AA7A"/>
<path d="M70.5523 43.003C70.0354 43.3342 69.504 43.4743 68.8324 43.0867C68.5485 42.9247 68.3246 42.6244 68.4684 42.3587C68.53 42.2677 68.6108 42.1914 68.7052 42.1351C68.7995 42.0788 68.9051 42.0439 69.0144 42.0329C69.2389 42.0084 69.466 42.0403 69.6751 42.1257C69.9012 42.2114 70.1065 42.3442 70.2775 42.5152C70.3998 42.6585 70.4931 42.8241 70.5523 43.003Z" fill="#56AA7A"/>
<path d="M69.7896 40.4986L70.1536 41.3886C70.2657 41.6821 70.3611 41.9816 70.4393 42.2859C70.6009 42.8989 70.7207 43.5221 70.7978 44.1514" stroke="#56AA7A" stroke-width="0.3" stroke-miterlimit="10"/>
<path d="M73.0838 45.682C72.8518 46.0397 72.5082 46.311 72.1064 46.4537C71.7279 46.5756 71.3603 46.521 71.1237 46.2225C71.0509 46.1231 70.9898 46.0156 70.9417 45.9022C71.393 45.571 71.5422 44.8703 72.0446 44.6282C72.323 44.5045 72.9163 44.3006 73.1784 44.4881C73.5279 44.7556 73.3295 45.318 73.0838 45.682Z" fill="#56AA7A"/>
<path d="M70.7979 46.774C70.5217 46.8647 70.228 46.889 69.9406 46.845C69.6273 46.7783 69.3421 46.6169 69.1235 46.3827C68.8941 46.1534 68.7595 45.8058 68.9724 45.5655C69.0543 45.4879 69.1543 45.4318 69.2632 45.4022C69.3722 45.3727 69.4867 45.3707 69.5967 45.3963C69.8194 45.4471 70.0274 45.5487 70.2045 45.6929C70.3963 45.8414 70.556 46.0271 70.6741 46.2389C70.7505 46.4073 70.7926 46.5892 70.7979 46.774Z" fill="#56AA7A"/>
<path d="M70.7979 44.1514C70.9648 45.4067 70.9335 46.6805 70.7051 47.9261" stroke="#56AA7A" stroke-width="0.3" stroke-miterlimit="10"/>
<path d="M72.2903 50.232C72.1091 50.3657 71.9067 50.4678 71.6915 50.5341C71.4871 50.5962 71.2728 50.6184 71.06 50.5996C70.878 50.5948 70.7024 50.5314 70.5591 50.419C70.4159 50.3066 70.3126 50.151 70.2646 49.9754C70.2404 49.8555 70.227 49.7337 70.2246 49.6114C70.5003 49.5244 70.755 49.3813 70.9726 49.191C71.1818 49.0003 71.4393 48.8707 71.717 48.8161C72.0209 48.7906 72.6543 48.7797 72.8345 49.0618C73.082 49.4312 72.6725 49.9372 72.2903 50.232Z" fill="#56AA7A"/>
<path d="M69.7496 50.3157C69.4504 50.2772 69.1672 50.1584 68.9301 49.9719C68.693 49.7854 68.5108 49.5382 68.4028 49.2565C68.2736 48.9744 68.27 48.6668 68.5393 48.5521C68.6456 48.5196 68.7577 48.5107 68.8677 48.5261C68.9778 48.5415 69.0831 48.5808 69.1763 48.6413C69.3661 48.7628 69.5245 48.9275 69.6386 49.1218C69.762 49.3242 69.8379 49.552 69.8607 49.7879C69.8638 49.97 69.8259 50.1504 69.7496 50.3157Z" fill="#56AA7A"/>
<path d="M70.6979 47.9261C70.576 48.5408 70.3849 49.1398 70.1282 49.7115C69.8678 50.2767 69.5263 50.801 69.1145 51.2676" stroke="#56AA7A" stroke-width="0.3" stroke-miterlimit="10"/>
<path d="M69.5585 53.9248C69.1542 53.9799 68.7425 53.9206 68.3701 53.7537C68.0061 53.5844 67.7713 53.2987 67.8041 52.9183C67.8169 52.7935 67.8469 52.671 67.8933 52.5543C68.4393 52.6235 69.0526 52.2777 69.5313 52.5452C69.706 52.6427 69.8739 52.7522 70.0336 52.8728C70.1148 52.9267 70.1843 52.9964 70.2381 53.0777C70.2919 53.159 70.3288 53.2502 70.3466 53.346C70.4194 53.7355 69.9699 53.872 69.5585 53.9248Z" fill="#56AA7A"/>
<path d="M67.2015 53.1058C66.6555 52.8437 66.2314 52.4797 66.2314 51.6826C66.2314 51.3459 66.4298 50.9455 66.7902 50.8927C66.9064 50.8821 67.0232 50.9067 67.1254 50.9631C67.2276 51.0196 67.3105 51.1053 67.3635 51.2094C67.4703 51.4174 67.5323 51.6456 67.5455 51.8791C67.5671 52.1278 67.5455 52.3784 67.4818 52.6199C67.4192 52.7977 67.3241 52.9625 67.2015 53.1058Z" fill="#56AA7A"/>
<path d="M69.1145 51.2676C69.018 51.3877 68.8997 51.4914 68.7942 51.6043L68.4465 51.9428L67.7604 52.6289C67.5329 52.8546 67.3072 53.0803 67.0743 53.2969C66.9578 53.4043 66.8413 53.5116 66.7212 53.6154C66.6011 53.7191 66.4791 53.8192 66.3572 53.9321" stroke="#56AA7A" stroke-width="0.3" stroke-miterlimit="10"/>
<path d="M66.9759 56.4619C66.7947 56.4836 66.612 56.489 66.4299 56.4782C66.2323 56.4663 66.0365 56.4339 65.8456 56.3818C65.4816 56.2799 65.154 56.0687 65.1176 55.6884C65.1093 55.5632 65.1191 55.4376 65.1468 55.3153C65.711 55.2971 66.2661 54.9276 66.7593 55.1951C67.0268 55.3316 67.52 55.7011 67.5965 55.9723C67.6236 56.0419 67.6236 56.1192 67.5965 56.1889C67.5701 56.2498 67.523 56.2994 67.4636 56.329C67.3091 56.3988 67.1444 56.4436 66.9759 56.4619Z" fill="#56AA7A"/>
<path d="M64.5681 56.0178C64.2776 55.9907 63.9976 55.8953 63.751 55.7393C63.5198 55.5719 63.3506 55.3043 63.3069 54.8293C63.2668 54.4344 63.4889 53.8884 63.882 53.7555C63.9961 53.7173 64.12 53.7198 64.2325 53.7626C64.345 53.8054 64.4391 53.8859 64.499 53.9903C64.6178 54.2014 64.6933 54.434 64.721 54.6746C64.7596 54.9318 64.767 55.1928 64.7429 55.4518C64.7104 55.6474 64.6516 55.8378 64.5681 56.0178Z" fill="#56AA7A"/>
<path d="M66.3553 53.9321C65.3608 54.8194 64.5779 55.9183 64.064 57.148" stroke="#56AA7A" stroke-width="0.3" stroke-miterlimit="10"/>
<path d="M65.702 59.1664C65.3813 59.3679 65.0248 59.5058 64.6519 59.5722C64.266 59.6323 63.8966 59.5832 63.6982 59.2537C63.6349 59.1449 63.5906 59.0262 63.5671 58.9025C64.064 58.6459 64.4171 58.078 64.974 58.1053C65.2743 58.1053 65.884 58.2309 66.066 58.4475C66.3081 58.7278 65.9968 58.968 65.702 59.1664Z" fill="#56AA7A"/>
<path d="M63.3359 59.787C62.7499 59.9526 62.1766 60.0636 61.6852 59.2501C61.582 59.0562 61.5276 58.84 61.5269 58.6204C61.5261 58.4038 61.6051 58.1945 61.7489 58.0325C61.8375 57.9498 61.9518 57.9 62.0727 57.8914C62.1936 57.8828 62.3138 57.9159 62.4132 57.9852C62.608 58.1262 62.7737 58.3035 62.901 58.5075C63.0457 58.7245 63.1643 58.9579 63.254 59.2028C63.2849 59.2971 63.3038 59.395 63.3105 59.494C63.3359 59.5923 63.3359 59.696 63.3359 59.787Z" fill="#56AA7A"/>
<path d="M64.064 57.148C63.5419 58.3724 63.3025 59.6986 63.3633 61.0283" stroke="#56AA7A" stroke-width="0.3" stroke-miterlimit="10"/>
<path d="M78.806 51.324C78.6426 51.4862 78.4499 51.6159 78.2381 51.7062C78.0428 51.7935 77.8315 51.8394 77.6175 51.8409C77.4352 51.8551 77.2533 51.8094 77.0992 51.7109C76.9452 51.6124 76.8275 51.4663 76.7639 51.2949C76.7242 51.177 76.6985 51.0548 76.6875 50.9309C76.9527 50.8113 77.1891 50.6363 77.3809 50.4176C77.5647 50.1962 77.8004 50.0236 78.0671 49.9153C78.3637 49.8389 78.9862 49.7006 79.21 49.9754C79.2771 50.075 79.3168 50.1905 79.3251 50.3103C79.3334 50.4301 79.31 50.55 79.2573 50.6579C79.1555 50.9092 79.0017 51.1362 78.806 51.324Z" fill="#56AA7A"/>
<path d="M76.2743 51.6989C75.9714 51.694 75.6758 51.6051 75.4203 51.4422C75.1649 51.2793 74.9596 51.0488 74.8274 50.7762C74.6836 50.5105 74.6236 50.2156 74.882 50.0937C75.0895 50.0166 75.3191 50.0244 75.5208 50.1155C75.7248 50.2064 75.9026 50.3473 76.0377 50.525C76.1869 50.7096 76.2893 50.9275 76.3362 51.1602C76.355 51.3421 76.3339 51.526 76.2743 51.6989Z" fill="#56AA7A"/>
<path d="M76.8986 49.2237C76.8758 50.482 76.4744 51.7042 75.7466 52.7309" stroke="#56AA7A" stroke-width="0.3" stroke-miterlimit="10"/>
<path d="M76.3199 55.4663C75.898 55.5689 75.4535 55.52 75.0641 55.328C74.7128 55.146 74.4962 54.8384 74.5472 54.458C74.5696 54.3338 74.6037 54.2119 74.6491 54.094C75.1951 54.1869 75.8103 53.7774 76.3399 53.9375C76.6293 54.034 77.2171 54.2724 77.2699 54.6018C77.35 55.0568 76.7785 55.3571 76.3199 55.4663Z" fill="#56AA7A"/>
<path d="M73.9373 54.6C73.6803 54.4634 73.459 54.2683 73.2912 54.0303C73.1247 53.757 73.0442 53.44 73.0601 53.1203C73.058 52.965 73.097 52.8118 73.1729 52.6763C73.2049 52.6157 73.2524 52.5647 73.3107 52.5285C73.3689 52.4924 73.4357 52.4724 73.5042 52.4706C73.6158 52.4784 73.7241 52.5119 73.8207 52.5684C73.9173 52.6249 73.9995 52.7029 74.0611 52.7964C74.1869 52.9845 74.2667 53.1996 74.294 53.4243C74.3273 53.6633 74.3087 53.9066 74.2394 54.1377C74.1704 54.3103 74.0677 54.4674 73.9373 54.6Z" fill="#56AA7A"/>
<path d="M75.7465 52.7309C75.3907 53.253 74.9788 53.7345 74.518 54.1668C74.0516 54.5986 73.55 54.9907 73.0183 55.3389" stroke="#56AA7A" stroke-width="0.3" stroke-miterlimit="10"/>
<path d="M72.6671 58.0744C72.2501 58.0236 71.8604 57.8405 71.5551 57.552C71.273 57.2736 71.1401 56.9241 71.2985 56.5765C71.3524 56.4641 71.4203 56.3589 71.5005 56.2635C72.0028 56.5128 72.6962 56.3326 73.1294 56.6821C73.3642 56.875 73.8101 57.3154 73.7573 57.6358C73.6845 58.058 73.1075 58.129 72.6671 58.0744Z" fill="#56AA7A"/>
<path d="M70.6668 56.5529C70.23 56.1252 69.9588 55.6429 70.2245 54.8876C70.3392 54.5709 70.6158 54.2742 70.9343 54.3525C71.042 54.3882 71.1388 54.451 71.2152 54.5348C71.2917 54.6186 71.3454 54.7206 71.3711 54.8311C71.4231 55.0551 71.4231 55.2879 71.3711 55.5118C71.322 55.7528 71.2268 55.9821 71.0908 56.187C70.9727 56.3335 70.829 56.4575 70.6668 56.5529Z" fill="#56AA7A"/>
<path d="M73.0182 55.3389C71.9369 56.0287 70.788 56.6062 69.5894 57.0625" stroke="#56AA7A" stroke-width="0.3" stroke-miterlimit="10"/>
<path d="M68.8814 59.6742C68.5013 59.5508 68.1612 59.3277 67.8968 59.0281C67.642 58.7332 67.5109 58.382 67.6929 58.0416C67.7557 57.9334 67.8328 57.8342 67.9222 57.7468C68.4027 58.0362 69.0943 57.9725 69.4529 58.3984C69.6458 58.6313 69.9898 59.1518 69.8969 59.4503C69.7732 59.8471 69.2654 59.7925 68.8814 59.6742Z" fill="#56AA7A"/>
<path d="M67.0541 57.9961C66.6246 57.5648 66.2934 57.097 66.6901 56.3053C66.8612 55.9723 67.2561 55.6684 67.6001 55.7721C67.7095 55.8114 67.8048 55.8821 67.874 55.9753C67.9433 56.0686 67.9835 56.1802 67.9896 56.2963C68.002 56.53 67.9628 56.7636 67.8749 56.9806C67.7869 57.2189 67.6609 57.4414 67.5018 57.6394C67.371 57.7797 67.2201 57.8999 67.0541 57.9961Z" fill="#56AA7A"/>
<path d="M69.5895 57.0625C68.3956 57.5375 67.1398 57.9342 65.9731 58.5803" stroke="#56AA7A" stroke-width="0.3" stroke-miterlimit="10"/>
<path d="M66.0659 61.1611C65.7017 61.1137 65.3469 61.0105 65.014 60.8553C64.6718 60.6915 64.3733 60.4477 64.3952 60.0618C64.407 59.936 64.4396 59.813 64.4916 59.6978C64.7746 59.7188 65.0586 59.7188 65.3416 59.6978C65.609 59.6736 65.8759 59.7488 66.0914 59.9089C66.3244 60.1 66.7266 60.566 66.743 60.8481C66.7739 61.2102 66.4063 61.192 66.0659 61.1611Z" fill="#56AA7A"/>
<path d="M63.8017 60.3221C63.5141 60.2692 63.2429 60.1495 63.01 59.9726C62.8007 59.7906 62.6624 59.4721 62.7207 58.9607C62.7643 58.5276 63.1283 57.9797 63.5597 57.9142C63.6806 57.8932 63.8051 57.9168 63.9099 57.9808C64.0148 58.0448 64.0927 58.1446 64.1293 58.2618C64.1988 58.4978 64.2217 58.7451 64.1967 58.9898C64.18 59.2563 64.1361 59.5204 64.0656 59.7779C63.9958 59.9676 63.9074 60.1498 63.8017 60.3221Z" fill="#56AA7A"/>
<path d="M65.9731 58.5803C65.3821 58.9 64.8382 59.3 64.3569 59.7688C63.8614 60.2436 63.4762 60.8214 63.2285 61.4614" stroke="#56AA7A" stroke-width="0.3" stroke-miterlimit="10"/>
<path d="M59.1754 80.5023C59.1153 80.5168 57.0187 80.5168 56.9568 80.5023C55.4189 80.1637 49.9571 78.3692 54.8802 72.558H61.1829C66.1023 78.3674 60.7151 80.1637 59.1754 80.5023Z" fill="white" stroke="#263238" stroke-width="0.3" stroke-miterlimit="10"/>
<path d="M61.1811 72.5962C61.1811 72.6908 61.0392 72.7782 60.7898 72.8564C60.2438 72.6872 59.2101 72.5743 58.0125 72.5743C56.8149 72.5743 55.7757 72.6872 55.237 72.8564C54.9877 72.78 54.8457 72.6908 54.8457 72.5962C54.8457 72.2977 56.2635 72.0502 58.0125 72.0502C59.7615 72.0502 61.1811 72.2977 61.1811 72.5962Z" fill="white" stroke="#263238" stroke-width="0.3" stroke-miterlimit="10"/>
<path d="M60.7879 72.8564C60.2419 73.0239 59.2082 73.1367 58.0106 73.1367C56.813 73.1367 55.7738 73.0239 55.2351 72.8564C55.7811 72.6872 56.8149 72.5743 58.0106 72.5743C59.2063 72.5743 60.251 72.6872 60.7879 72.8564Z" fill="#263238" stroke="#263238" stroke-width="0.3" stroke-miterlimit="10"/>
<path d="M60.4402 74.2414C60.6604 74.1959 60.8788 74.145 61.0917 74.0886L60.4402 74.2414Z" fill="white"/>
<path d="M60.4402 74.2414C60.6604 74.1959 60.8788 74.145 61.0917 74.0886" stroke="#263238" stroke-width="0.3" stroke-miterlimit="10"/>
<path d="M55.0039 73.9957C56.5072 74.5417 58.2708 74.5945 59.9052 74.3379L55.0039 73.9957Z" fill="white"/>
<path d="M55.0039 73.9957C56.5072 74.5417 58.2708 74.5945 59.9052 74.3379" stroke="#263238" stroke-width="0.3" stroke-miterlimit="10"/>
<path d="M62.6078 63.6654C61.8889 63.7255 60.8933 63.2741 60.9243 62.5734C60.9333 62.4617 60.9565 62.3516 60.9934 62.2458C61.514 62.3678 62.0618 62.0802 62.5532 62.3186C62.8226 62.4533 63.3558 62.7736 63.4104 63.0757C63.4759 63.478 62.9991 63.6327 62.6078 63.6654Z" fill="#56AA7A"/>
<path d="M60.3693 62.6935C59.8415 62.4096 59.4156 62.0456 59.4065 61.2703C59.4065 60.9445 59.5667 60.5987 59.8742 60.6024C59.9865 60.6131 60.0945 60.6503 60.1895 60.7111C60.2844 60.7719 60.3635 60.8544 60.4202 60.9518C60.536 61.143 60.6104 61.3562 60.6386 61.5779C60.6734 61.8049 60.6654 62.0364 60.615 62.2604C60.5616 62.4192 60.4782 62.5662 60.3693 62.6935Z" fill="#56AA7A"/>
<path d="M62.0329 61.1138C61.3049 61.9364 60.4586 62.6626 59.645 63.4452" stroke="#56AA7A" stroke-width="0.3" stroke-miterlimit="10"/>
<path d="M60.3275 65.884C59.9588 65.8903 59.5927 65.8209 59.2519 65.6802C58.9115 65.5309 58.5948 65.3052 58.5639 64.9522C58.5559 64.839 58.5663 64.7253 58.5948 64.6155C59.1226 64.6682 59.6432 64.3843 60.1218 64.6519C60.3839 64.7956 60.8826 65.156 60.9572 65.4308C61.0537 65.7985 60.6733 65.8731 60.3275 65.884Z" fill="#56AA7A"/>
<path d="M58.0379 65.1924C57.7518 65.1382 57.4803 65.0247 57.2407 64.8593C57.015 64.6773 56.8585 64.4171 56.8403 63.9493C56.8221 63.5599 57.0114 63.1194 57.3699 63.0503C57.485 63.0369 57.6015 63.0575 57.705 63.1096C57.8085 63.1617 57.8945 63.2429 57.9523 63.3433C58.0688 63.5408 58.146 63.759 58.1798 63.9857C58.2232 64.2204 58.233 64.46 58.2089 64.6974C58.1759 64.8697 58.1183 65.0364 58.0379 65.1924Z" fill="#56AA7A"/>
<path d="M59.6449 63.4452C59.2329 63.8373 58.8435 64.2523 58.4782 64.6883C58.2921 64.9115 58.1218 65.1474 57.9686 65.3944C57.8958 65.5218 57.8176 65.6438 57.7521 65.7748L57.5701 66.1679" stroke="#56AA7A" stroke-width="0.3" stroke-miterlimit="10"/>
<path d="M59.2463 68.028C58.9197 68.1976 58.564 68.3038 58.1979 68.341C57.8212 68.3774 57.4426 68.3082 57.2515 68.0116C57.1933 67.9148 57.1497 67.8099 57.1223 67.7004C57.3582 67.5863 57.5814 67.4478 57.7884 67.2872C57.9916 67.135 58.2409 67.0572 58.4946 67.067C58.7894 67.087 59.3919 67.2308 59.5866 67.4219C59.7176 67.5511 59.7085 67.6585 59.6266 67.755C59.5189 67.8699 59.3896 67.9626 59.2463 68.028Z" fill="#56AA7A"/>
<path d="M56.8877 68.4538C56.2962 68.5594 55.7247 68.6049 55.2497 67.8969C55.0549 67.5966 55.0113 67.0979 55.3079 66.8577C55.402 66.7887 55.515 66.7504 55.6317 66.7482C55.7483 66.7459 55.8628 66.7797 55.9595 66.845C56.1536 66.9721 56.3216 67.1352 56.4545 67.3254C56.5998 67.515 56.7192 67.7231 56.8094 67.9442C56.8609 68.1092 56.8873 68.281 56.8877 68.4538Z" fill="#56AA7A"/>
<path d="M57.5628 66.1679C57.3372 66.6983 57.1659 67.2501 57.0514 67.815C56.9352 68.3746 56.8622 68.9423 56.833 69.5131" stroke="#56AA7A" stroke-width="0.3" stroke-miterlimit="10"/>
<path d="M59.0097 70.8198C58.7493 71.0884 58.4339 71.2976 58.0852 71.4332C57.7212 71.5679 57.3572 71.5915 57.0842 71.3567C57.0016 71.2796 56.9315 71.1899 56.8767 71.091C57.3008 70.7689 57.4737 70.1956 58.0087 70.0645C58.2981 69.9899 58.9078 69.9135 59.1517 70.0554C59.4684 70.2374 59.2482 70.5578 59.0097 70.8198Z" fill="#56AA7A"/>
<path d="M56.8421 71.8754C56.3052 72.123 55.7501 72.294 55.1259 71.7535C54.8583 71.526 54.6982 71.0856 54.9038 70.7998C54.9801 70.7132 55.0795 70.65 55.1904 70.6178C55.3013 70.5856 55.419 70.5856 55.5299 70.6178C55.7503 70.6803 55.9571 70.7834 56.1396 70.9218C56.3322 71.0589 56.5028 71.2246 56.6456 71.4132C56.7376 71.5546 56.8041 71.711 56.8421 71.8754Z" fill="#56AA7A"/>
<path d="M56.8331 69.5131C56.7718 70.6506 56.8414 71.7913 57.0405 72.9129" stroke="#56AA7A" stroke-width="0.3" stroke-miterlimit="10"/>
<path d="M63.6525 69.3129C62.9336 69.5349 61.8562 69.2856 61.7834 68.5612C61.775 68.4443 61.7824 68.3268 61.8052 68.2118C62.3512 68.2245 62.8553 67.8114 63.3904 67.9442C63.6816 68.0225 64.2713 68.2318 64.3732 68.5266C64.5061 68.9252 64.0456 69.2 63.6525 69.3129Z" fill="#56AA7A"/>
<path d="M61.2429 68.796C60.6677 68.614 60.1854 68.3301 60.058 67.5493C60.0034 67.2199 60.1108 66.8377 60.422 66.7758C60.5337 66.7647 60.6464 66.7809 60.7504 66.8231C60.8544 66.8653 60.9466 66.9321 61.019 67.0179C61.1671 67.1902 61.2747 67.3936 61.3339 67.613C61.4043 67.8382 61.4321 68.0746 61.4158 68.3101C61.3883 68.4812 61.3297 68.6459 61.2429 68.796Z" fill="#56AA7A"/>
<path d="M62.6698 66.834C62.0819 67.8369 61.3321 68.756 60.6187 69.7096" stroke="#56AA7A" stroke-width="0.3" stroke-miterlimit="10"/>
<path d="M61.5778 72.1266C61.2047 72.2089 60.8175 72.202 60.4475 72.1066C60.0744 72.0065 59.7578 71.8045 59.6941 71.4441C59.6759 71.3277 59.6759 71.2092 59.6941 71.0928C60.2401 71.0692 60.7351 70.6797 61.2556 70.8617C61.5395 70.96 62.0946 71.2257 62.2002 71.5042C62.3367 71.8682 61.9345 72.0374 61.5778 72.1266Z" fill="#56AA7A"/>
<path d="M59.1753 71.7444C58.582 71.6352 58.0378 71.4641 57.8722 70.6124C57.8392 70.4242 57.8574 70.2305 57.925 70.0518C57.9547 69.9665 58.0026 69.8888 58.0655 69.824C58.1284 69.7593 58.2047 69.709 58.289 69.6769C58.4011 69.649 58.519 69.6543 58.6282 69.6921C58.7374 69.7299 58.8332 69.7986 58.9042 69.8898C59.0486 70.0711 59.1534 70.2807 59.2117 70.505C59.282 70.7381 59.3164 70.9805 59.3137 71.2239C59.2953 71.4036 59.2486 71.5793 59.1753 71.7444Z" fill="#56AA7A"/>
<path d="M60.6186 69.706C59.8707 70.6526 59.2281 71.6779 58.7021 72.7636" stroke="#56AA7A" stroke-width="0.3" stroke-miterlimit="10"/>
<path d="M76.0632 48.8706C75.9839 48.4441 76.067 48.0033 76.2962 47.6349C76.3235 47.6003 76.7257 47.1107 76.8622 47.1234C77.1652 47.2752 77.4082 47.5246 77.552 47.8314C77.7223 48.1523 77.7939 48.5164 77.7576 48.8779C77.7158 49.2164 77.3791 49.8625 76.9241 49.8898C76.4691 49.9171 76.1233 49.1819 76.0632 48.8706Z" fill="#56AA7A"/>
<path d="M42.6016 -2.002C42.1154 -0.615153 41.4477 0.701223 40.616 1.91282C39.797 3.12803 38.8659 4.26382 37.835 5.3053L37.7185 5.4236C37.9425 4.97363 38.1358 4.50908 38.2973 4.03312C38.5248 3.28692 38.5375 2.548 37.8132 2.21312C36.9214 1.79088 35.9331 2.58622 36.2971 3.8038C36.5285 4.52163 36.9336 5.1712 37.4765 5.69478C36.6047 6.53766 35.6833 7.32774 34.7174 8.06078C34.9293 7.62708 35.1117 7.17956 35.2634 6.72126C35.489 5.97142 35.5 5.2234 34.7774 4.89216C33.8893 4.459 32.9065 5.25616 33.2705 6.47192C33.4911 7.16434 33.875 7.79355 34.3898 8.30648C33.285 9.1546 32.1566 9.98088 31.0846 10.88C31.2981 10.4401 31.4805 9.98577 31.6306 9.52042C31.8563 8.77058 31.8691 8.02256 31.1483 7.6895C30.2584 7.2709 29.2683 8.06624 29.6323 9.28018C29.8578 9.98187 30.2485 10.6191 30.7716 11.1384C30.3039 11.5497 29.8398 11.9592 29.3884 12.3778C29.059 12.6981 28.7368 13.0203 28.4238 13.3552C28.5515 13.0735 28.6615 12.7842 28.7532 12.4888C28.9789 11.7408 28.9953 11.0037 28.2709 10.6688C27.3791 10.2466 26.3909 11.0328 26.7549 12.2595C26.9672 12.9244 27.3296 13.5316 27.8141 14.034C26.9325 15.0478 26.1516 16.1449 25.4827 17.31C25.5431 16.9839 25.5844 16.6545 25.6064 16.3236C25.6447 15.541 25.4827 14.8239 24.6964 14.6656C23.73 14.4726 22.962 15.4846 23.6044 16.5766C23.9753 17.1752 24.4791 17.6803 25.0768 18.0526C24.429 19.3048 23.9048 20.6171 23.5116 21.971C23.4792 21.6943 23.4312 21.4197 23.3678 21.1484C23.1858 20.3895 22.8218 19.7452 22.0229 19.818C21.0437 19.9072 20.5942 21.092 21.5242 21.9565C22.0213 22.4028 22.6112 22.7335 23.2514 22.9247C22.9915 23.9744 22.794 25.0385 22.6599 26.1115C22.6398 26.2808 22.6235 26.4501 22.6053 26.6193C22.5703 26.6525 22.5381 26.6884 22.5088 26.7267L22.3541 26.3154C22.0538 25.5874 21.5988 25.0123 20.8235 25.2088C19.8662 25.4472 19.6041 26.6867 20.6579 27.3928C21.1933 27.7422 21.797 27.9736 22.4287 28.0717C22.4379 28.1006 22.452 28.1277 22.4706 28.1518C22.4196 28.9538 22.3978 29.7588 22.4051 30.5669C22.4051 31.1693 22.4305 31.7699 22.4633 32.3742C21.6243 32.436 21.0983 33.3934 21.748 34.3507C22.0213 34.7491 22.3604 35.0981 22.7509 35.3826C22.9001 36.5074 23.0918 37.6255 23.326 38.7369C23.2 38.6356 23.0498 38.5691 22.8901 38.5438C22.7305 38.5186 22.567 38.5356 22.416 38.5931C21.8991 38.7751 21.688 39.2155 21.6443 39.7452C21.4765 39.9546 21.3951 40.2202 21.4168 40.4877C20.9745 39.9417 20.5669 39.3593 20.1646 38.7769C20.6832 38.3149 21.1002 37.7503 21.3895 37.1189C21.9355 35.894 21.1529 34.924 20.2502 35.2407C19.5222 35.4955 19.4021 36.2635 19.4894 37.0898C19.5222 37.3989 19.5732 37.7058 19.6423 38.0089C19.4967 37.7905 19.3511 37.5739 19.2091 37.3537C18.8451 36.8077 18.523 36.2235 18.179 35.6611C18.0921 35.524 18.0125 35.3825 17.9406 35.237C18.5358 34.882 19.0508 34.4072 19.453 33.8429C20.2138 32.7509 19.635 31.6389 18.6795 31.7845C17.9097 31.8991 17.6549 32.6399 17.5875 33.4589C17.5587 33.8155 17.5526 34.1735 17.5693 34.5309L17.2472 33.9121C16.5586 32.5121 15.9699 31.0653 15.4854 29.5823C16.1651 29.2855 16.771 28.8424 17.2599 28.2846C18.1335 27.2672 17.6585 26.1115 16.6939 26.1498C15.9186 26.188 15.591 26.9014 15.4381 27.7077C15.3636 28.1387 15.3161 28.5739 15.2961 29.0108C15.028 28.1615 14.7896 27.3006 14.5809 26.4282C14.4407 25.8822 14.3406 25.3362 14.2296 24.7902C14.9702 24.5898 15.655 24.2224 16.2316 23.7164C17.2272 22.821 16.905 21.6125 15.9532 21.5324C15.1797 21.4687 14.7702 22.1294 14.4972 22.912C14.3503 23.4063 14.233 23.9089 14.1459 24.4171C14.0403 23.7819 13.9275 23.1431 13.8547 22.5061C13.6734 21.1859 13.5828 19.8548 13.5835 18.5221C13.5428 19.8586 13.5926 21.1964 13.7328 22.5261C13.7837 23.1377 13.8711 23.7455 13.9512 24.3571C13.7536 23.9569 13.5298 23.5703 13.2814 23.1995C12.8319 22.5589 12.2622 22.0893 11.5433 22.4442C10.6624 22.8829 10.6715 24.1532 11.8509 24.6191C12.5542 24.868 13.3076 24.9418 14.0458 24.8339C14.135 25.3799 14.2278 25.9259 14.3425 26.4573C14.5196 27.3067 14.7259 28.156 14.9613 29.0053C14.7515 28.6926 14.5236 28.3924 14.2788 28.1063C13.751 27.5293 13.1231 27.1326 12.4588 27.5857C11.6379 28.1317 11.8145 29.3912 13.0503 29.7115C13.7446 29.8723 14.4668 29.8692 15.1596 29.7024C15.601 31.2073 16.1484 32.6792 16.7976 34.1068L17.0033 34.5345C16.8311 34.3401 16.6488 34.1548 16.4573 33.9794C15.8767 33.4589 15.2142 33.1331 14.5954 33.6445C13.8365 34.2724 14.1386 35.5046 15.3944 35.692C16.0886 35.783 16.7944 35.712 17.4565 35.4845C17.5293 35.632 17.6021 35.7757 17.684 35.9159C18.0152 36.4965 18.3264 37.1007 18.6777 37.6704C18.776 37.8342 18.8797 37.9961 18.9816 38.1599C18.8197 38.0372 18.6514 37.923 18.4775 37.8178C17.8096 37.4137 17.0961 37.2172 16.5829 37.8178C15.955 38.5804 16.481 39.7342 17.7513 39.6796C18.4043 39.6468 19.0423 39.4716 19.6205 39.1664C20.0281 39.7979 20.4504 40.4186 20.8945 41.0337C21.0643 41.2643 21.236 41.4936 21.4095 41.7217C21.1635 41.5244 20.9058 41.3421 20.6378 41.1757C19.9699 40.7716 19.2565 40.5751 18.7432 41.1757C18.1153 41.9364 18.6413 43.0921 19.9135 43.0375C20.6381 42.9935 21.3418 42.7777 21.9664 42.4078C22.1976 42.6863 22.4342 42.9629 22.6781 43.2341C22.2467 43.8147 22.4633 44.7229 23.4534 45.0723C23.9343 45.2321 24.4392 45.3072 24.9458 45.2943C25.0095 45.338 25.0714 45.3799 25.1387 45.4199L25.1696 45.4418C25.9389 47.6622 26.8173 49.8401 27.805 51.9756C28.4262 53.3224 29.0857 54.6497 29.7833 55.9577C30.4895 57.2681 31.212 58.5494 32.0329 59.8252L33.2504 59.0044C32.4569 57.8232 31.7053 56.5583 30.99 55.2952C30.2747 54.0322 29.6032 52.7345 28.9643 51.4277C28.118 49.6824 27.3373 47.9079 26.6366 46.0988C26.7403 46.1152 26.8331 46.1406 26.946 46.1479C27.0775 46.1628 27.2106 46.1585 27.3409 46.1352L27.1207 45.1797L27.0952 45.1906H27.0115C26.9587 45.1906 26.8877 45.1706 26.8295 45.1651C26.6912 45.1374 26.5555 45.0985 26.4236 45.0486L26.2671 44.9868C26.819 44.752 27.3225 44.4169 27.7522 43.9985C28.7095 43.0576 28.3328 41.8673 27.3773 41.8327C26.602 41.8054 26.2143 42.4861 25.9923 43.276C25.9304 43.4998 25.8813 43.7328 25.8394 43.9621C25.7611 43.7564 25.6883 43.5635 25.6319 43.356C25.4354 42.7591 25.2479 42.1591 25.0695 41.5561C25.6683 41.3168 26.2148 40.9632 26.6784 40.515C27.6321 39.5741 27.2572 38.3838 26.3035 38.3474C25.5264 38.3201 25.1405 39.0008 24.9185 39.7907C24.8545 40.0214 24.8023 40.2553 24.762 40.4914C24.6418 40.0491 24.5235 39.6087 24.4125 39.1664C24.3324 38.837 24.256 38.5057 24.185 38.1763C24.1304 37.7031 24.0904 37.2281 24.0594 36.7513C24.0467 36.4892 24.034 36.2289 24.0267 35.965C24.6145 36.1064 25.2231 36.1403 25.823 36.0651C27.1516 35.8831 27.5648 34.7074 26.8186 34.105C26.2161 33.6154 25.4991 33.9321 24.8457 34.4326C24.5563 34.6635 24.2804 34.9108 24.0194 35.1733C24.0205 34.0512 24.1093 32.9309 24.2851 31.8227C24.3945 31.1724 24.5384 30.5284 24.7165 29.8935C25.3449 30.062 26.0001 30.1071 26.6457 30.0264C27.9743 29.8444 28.3856 28.6686 27.6412 28.0662C27.0388 27.5876 26.3181 27.8842 25.6683 28.3938C25.4371 28.5745 25.2159 28.7677 25.0058 28.9726C25.2204 28.349 25.4776 27.7409 25.7757 27.1526C26.3776 25.9684 27.157 24.8833 28.0871 23.9348C28.6324 24.368 29.2623 24.6823 29.9362 24.8576C31.2339 25.1852 32.0547 24.2442 31.5924 23.4016C31.2102 22.7245 30.4276 22.7482 29.6341 22.9648C29.3349 23.0521 29.0409 23.156 28.7532 23.276H28.7751C29.8049 22.3436 30.9283 21.5203 32.1275 20.819C32.6065 21.3643 33.1983 21.799 33.862 22.093C35.0941 22.6208 36.0551 21.8236 35.7256 20.9227C35.4526 20.1947 34.6791 20.0928 33.8656 20.1947C33.5464 20.2378 33.2298 20.2986 32.9174 20.3767C34.1914 19.6615 35.4981 18.9699 36.7503 18.1927L36.7794 18.1818C37.3985 18.6421 38.1153 18.9535 38.8742 19.0918C40.1956 19.3211 40.9327 18.3201 40.4158 17.5248C39.9863 16.8769 39.2055 16.9606 38.432 17.2427C38.2154 17.3228 38.0025 17.4247 37.7968 17.5139C38.628 16.9484 39.4298 16.3409 40.1992 15.6939L40.2738 15.7612L40.2866 15.7284C40.9087 16.1965 41.6317 16.5125 42.3978 16.6512C43.7209 16.8805 44.4544 15.8795 43.9393 15.0842C43.508 14.4362 42.7308 14.52 41.9555 14.8002C41.4103 15.0226 40.8781 15.2754 40.3612 15.5574C40.6378 15.3189 40.9072 15.0769 41.1802 14.8294C42.4133 13.687 43.5766 12.4715 44.6637 11.1894C43.3852 12.6307 42.0039 13.9774 40.5304 15.2188C40.7199 14.8309 40.8834 14.4308 41.02 14.0213C41.2457 13.2714 41.2566 12.5234 40.5359 12.2013C39.6441 11.779 38.6558 12.5653 39.0198 13.792C39.2349 14.4651 39.6038 15.0789 40.0973 15.5847C39.135 16.3555 38.1233 17.0625 37.0688 17.7013L36.9669 17.7632C37.1705 17.346 37.3456 16.9155 37.491 16.4746C37.7149 15.7248 37.7313 14.9877 37.0069 14.6546C36.1151 14.2342 35.1269 15.0296 35.4927 16.2453C35.7032 16.9106 36.0652 17.518 36.5501 18.0198C35.2761 18.7624 33.9584 19.4121 32.6407 20.1092L32.4442 20.2129C32.6897 19.9102 32.9141 19.5909 33.1158 19.2574C33.5089 18.5804 33.6963 17.8651 33.0703 17.3646C32.3022 16.7495 31.1629 17.2882 31.2266 18.5604C31.2788 19.2593 31.4912 19.9368 31.8472 20.5405C30.626 21.2022 29.4753 21.9864 28.4129 22.881L28.3783 22.9138C28.5132 22.662 28.6347 22.4032 28.7423 22.1385C29.0226 21.4105 29.0936 20.6734 28.3947 20.2784C28.2705 20.2066 28.1334 20.1599 27.9912 20.141C27.849 20.1222 27.7045 20.1315 27.5659 20.1685C27.4273 20.2055 27.2974 20.2695 27.1835 20.3568C27.0696 20.444 26.9741 20.5528 26.9023 20.677C26.8625 20.7477 26.8296 20.8221 26.804 20.8991C26.7071 20.7672 26.5789 20.6615 26.4309 20.5915C25.7302 20.2511 25.1023 20.7171 24.5781 21.3504C24.4415 21.5157 24.3139 21.6882 24.1959 21.8673C24.5451 20.6244 25.0094 19.4167 25.5828 18.2601C26.2242 18.4881 26.9053 18.5835 27.5848 18.5403C28.9207 18.4421 29.4048 17.29 28.7004 16.6475C28.1271 16.1197 27.39 16.3909 26.7094 16.8496C26.483 17.003 26.2649 17.1682 26.056 17.3446C26.6599 16.2706 27.3631 15.2554 28.1563 14.3125C28.7461 14.7256 29.4186 15.0057 30.1273 15.1333C31.4505 15.3626 32.1839 14.3616 31.667 13.5663C31.2393 12.9184 30.4604 13.0021 29.6832 13.286C29.3201 13.4245 28.9658 13.5849 28.6222 13.7665C28.9571 13.4025 29.2919 13.0385 29.6414 12.6745C30.0976 12.2231 30.5708 11.7839 31.061 11.3568C31.6445 11.7575 32.3064 12.0298 33.0029 12.1558C34.3261 12.3815 35.0613 11.3823 34.5426 10.5869C34.1149 9.93902 33.336 10.0227 32.5607 10.3048C32.3786 10.3704 32.2 10.4451 32.0256 10.5287C32.8646 9.83164 33.7273 9.15824 34.5863 8.47392C35.1933 8.91417 35.891 9.21326 36.6284 9.34934C37.9515 9.57684 38.685 8.57584 38.1699 7.7805C37.7404 7.1344 36.9614 7.21812 36.1861 7.4984C35.8859 7.61346 35.5919 7.74407 35.3052 7.8897C35.6692 7.59668 36.0223 7.2982 36.359 6.99244C36.6356 6.7522 36.8941 6.48648 37.158 6.22258C37.3109 6.08062 37.4601 5.93138 37.6039 5.78032C38.2142 6.2203 38.9149 6.51873 39.655 6.65392C40.9782 6.8796 41.7244 5.87678 41.1984 5.08326C40.767 4.43534 39.9881 4.51906 39.2146 4.80298C38.7885 4.96825 38.3733 5.16034 37.9715 5.3781C38.9676 4.32042 39.865 3.17391 40.6524 1.95286C41.4738 0.726365 42.1292 -0.603473 42.6016 -2.002ZM24.4671 43.185C24.3358 43.0366 24.17 42.9228 23.9843 42.8536C23.7986 42.7845 23.5988 42.762 23.4024 42.7882C23.113 42.4952 22.8364 42.1912 22.5652 41.8782L22.7472 41.6962C23.1215 41.7852 23.5056 41.8255 23.8902 41.8163L23.9102 41.8727L24.0922 41.8218C24.2032 42.2786 24.3288 42.7336 24.4671 43.185ZM23.5662 31.6844C23.5007 32.0338 23.4479 32.3869 23.4006 32.74L23.3424 32.6872C23.2805 31.9756 23.2423 31.2621 23.2204 30.5469C23.2077 30.0482 23.2077 29.5477 23.2204 29.0472C23.4789 29.2776 23.7614 29.4796 24.0631 29.6496C23.8598 30.3179 23.6951 30.9972 23.5699 31.6844H23.5662ZM24.5345 28.3156C24.5345 28.1827 24.5454 28.0535 24.5454 27.9206C24.5454 27.8551 24.5454 27.7896 24.5454 27.7241C24.6525 27.6875 24.7566 27.6424 24.8566 27.5894C24.7419 27.8296 24.6382 28.0717 24.5399 28.3174L24.5345 28.3156ZM25.9122 22.699C26.3038 22.5691 26.6353 22.3022 26.8459 21.9474C27.0149 22.5304 27.299 23.0738 27.6812 23.5453C27.0115 24.2052 26.4114 24.9322 25.8904 25.7148C25.8309 25.6031 25.7494 25.5045 25.6509 25.4251C25.5524 25.3457 25.4388 25.287 25.3171 25.2525C24.5745 25.025 24.0321 25.5801 23.5935 26.2917L23.5771 26.3263L23.528 26.3172C23.4778 26.3126 23.4272 26.3126 23.3769 26.3172C23.3769 26.2753 23.3769 26.2335 23.3897 26.1953C23.5058 25.1203 23.6882 24.0536 23.9357 23.0012C24.6088 23.0353 25.2818 22.9325 25.914 22.699H25.9122Z" fill="#56AA7A"/>
<g opacity="0.7">
<path opacity="0.4" d="M42.6016 -2.002C42.1154 -0.615153 41.4477 0.701223 40.616 1.91282C39.797 3.12803 38.8659 4.26382 37.835 5.3053L37.7185 5.4236C37.9425 4.97363 38.1358 4.50908 38.2973 4.03312C38.5248 3.28692 38.5375 2.548 37.8132 2.21312C36.9214 1.79088 35.9331 2.58622 36.2971 3.8038C36.5285 4.52163 36.9336 5.1712 37.4765 5.69478C36.6047 6.53766 35.6833 7.32774 34.7174 8.06078C34.9293 7.62708 35.1117 7.17956 35.2634 6.72126C35.489 5.97142 35.5 5.2234 34.7774 4.89216C33.8893 4.459 32.9065 5.25616 33.2705 6.47192C33.4911 7.16434 33.875 7.79355 34.3898 8.30648C33.285 9.1546 32.1566 9.98088 31.0846 10.88C31.2981 10.4401 31.4805 9.98577 31.6306 9.52042C31.8563 8.77058 31.8691 8.02256 31.1483 7.6895C30.2584 7.2709 29.2683 8.06624 29.6323 9.28018C29.8578 9.98187 30.2485 10.6191 30.7716 11.1384C30.3039 11.5497 29.8398 11.9592 29.3884 12.3778C29.059 12.6981 28.7368 13.0203 28.4238 13.3552C28.5515 13.0735 28.6615 12.7842 28.7532 12.4888C28.9789 11.7408 28.9953 11.0037 28.2709 10.6688C27.3791 10.2466 26.3909 11.0328 26.7549 12.2595C26.9672 12.9244 27.3296 13.5316 27.8141 14.034C26.9325 15.0478 26.1516 16.1449 25.4827 17.31C25.5431 16.9839 25.5844 16.6545 25.6064 16.3236C25.6447 15.541 25.4827 14.8239 24.6964 14.6656C23.73 14.4726 22.962 15.4846 23.6044 16.5766C23.9753 17.1752 24.4791 17.6803 25.0768 18.0526C24.429 19.3048 23.9048 20.6171 23.5116 21.971C23.4792 21.6943 23.4312 21.4197 23.3678 21.1484C23.1858 20.3895 22.8218 19.7452 22.0229 19.818C21.0437 19.9072 20.5942 21.092 21.5242 21.9565C22.0213 22.4028 22.6112 22.7335 23.2514 22.9247C22.9915 23.9744 22.794 25.0385 22.6599 26.1115C22.6398 26.2808 22.6235 26.4501 22.6053 26.6193C22.5703 26.6525 22.5381 26.6884 22.5088 26.7267L22.3541 26.3154C22.0538 25.5874 21.5988 25.0123 20.8235 25.2088C19.8662 25.4472 19.6041 26.6867 20.6579 27.3928C21.1933 27.7422 21.797 27.9736 22.4287 28.0717C22.4379 28.1006 22.452 28.1277 22.4706 28.1518C22.4196 28.9538 22.3978 29.7588 22.4051 30.5669C22.4051 31.1693 22.4305 31.7699 22.4633 32.3742C21.6243 32.436 21.0983 33.3934 21.748 34.3507C22.0213 34.7491 22.3604 35.0981 22.7509 35.3826C22.9001 36.5074 23.0918 37.6255 23.326 38.7369C23.2 38.6356 23.0498 38.5691 22.8901 38.5438C22.7305 38.5186 22.567 38.5356 22.416 38.5931C21.8991 38.7751 21.688 39.2155 21.6443 39.7452C21.4765 39.9546 21.3951 40.2202 21.4168 40.4877C20.9745 39.9417 20.5669 39.3593 20.1646 38.7769C20.6832 38.3149 21.1002 37.7503 21.3895 37.1189C21.9355 35.894 21.1529 34.924 20.2502 35.2407C19.5222 35.4955 19.4021 36.2635 19.4894 37.0898C19.5222 37.3989 19.5732 37.7058 19.6423 38.0089C19.4967 37.7905 19.3511 37.5739 19.2091 37.3537C18.8451 36.8077 18.523 36.2235 18.179 35.6611C18.0921 35.524 18.0125 35.3825 17.9406 35.237C18.5358 34.882 19.0508 34.4072 19.453 33.8429C20.2138 32.7509 19.635 31.6389 18.6795 31.7845C17.9097 31.8991 17.6549 32.6399 17.5875 33.4589C17.5587 33.8155 17.5526 34.1735 17.5693 34.5309L17.2472 33.9121C16.5586 32.5121 15.9699 31.0653 15.4854 29.5823C16.1651 29.2855 16.771 28.8424 17.2599 28.2846C18.1335 27.2672 17.6585 26.1115 16.6939 26.1498C15.9186 26.188 15.591 26.9014 15.4381 27.7077C15.3636 28.1387 15.3161 28.5739 15.2961 29.0108C15.028 28.1615 14.7896 27.3006 14.5809 26.4282C14.4407 25.8822 14.3406 25.3362 14.2296 24.7902C14.9702 24.5898 15.655 24.2224 16.2316 23.7164C17.2272 22.821 16.905 21.6125 15.9532 21.5324C15.1797 21.4687 14.7702 22.1294 14.4972 22.912C14.3503 23.4063 14.233 23.9089 14.1459 24.4171C14.0403 23.7819 13.9275 23.1431 13.8547 22.5061C13.6734 21.1859 13.5828 19.8548 13.5835 18.5221C13.5428 19.8586 13.5926 21.1964 13.7328 22.5261C13.7837 23.1377 13.8711 23.7455 13.9512 24.3571C13.7536 23.9569 13.5298 23.5703 13.2814 23.1995C12.8319 22.5589 12.2622 22.0893 11.5433 22.4442C10.6624 22.8829 10.6715 24.1532 11.8509 24.6191C12.5542 24.868 13.3076 24.9418 14.0458 24.8339C14.135 25.3799 14.2278 25.9259 14.3425 26.4573C14.5196 27.3067 14.7259 28.156 14.9613 29.0053C14.7515 28.6926 14.5236 28.3924 14.2788 28.1063C13.751 27.5293 13.1231 27.1326 12.4588 27.5857C11.6379 28.1317 11.8145 29.3912 13.0503 29.7115C13.7446 29.8723 14.4668 29.8692 15.1596 29.7024C15.601 31.2073 16.1484 32.6792 16.7976 34.1068L17.0033 34.5345C16.8311 34.3401 16.6488 34.1548 16.4573 33.9794C15.8767 33.4589 15.2142 33.1331 14.5954 33.6445C13.8365 34.2724 14.1386 35.5046 15.3944 35.692C16.0886 35.783 16.7944 35.712 17.4565 35.4845C17.5293 35.632 17.6021 35.7757 17.684 35.9159C18.0152 36.4965 18.3264 37.1007 18.6777 37.6704C18.776 37.8342 18.8797 37.9961 18.9816 38.1599C18.8197 38.0372 18.6514 37.923 18.4775 37.8178C17.8096 37.4137 17.0961 37.2172 16.5829 37.8178C15.955 38.5804 16.481 39.7342 17.7513 39.6796C18.4043 39.6468 19.0423 39.4716 19.6205 39.1664C20.0281 39.7979 20.4504 40.4186 20.8945 41.0337C21.0643 41.2643 21.236 41.4936 21.4095 41.7217C21.1635 41.5244 20.9058 41.3421 20.6378 41.1757C19.9699 40.7716 19.2565 40.5751 18.7432 41.1757C18.1153 41.9364 18.6413 43.0921 19.9135 43.0375C20.6381 42.9935 21.3418 42.7777 21.9664 42.4078C22.1976 42.6863 22.4342 42.9629 22.6781 43.2341C22.2467 43.8147 22.4633 44.7229 23.4534 45.0723C23.9343 45.2321 24.4392 45.3072 24.9458 45.2943C25.0095 45.338 25.0714 45.3799 25.1387 45.4199L25.1696 45.4418C25.9389 47.6622 26.8173 49.8401 27.805 51.9756C28.4262 53.3224 29.0857 54.6497 29.7833 55.9577C30.4895 57.2681 31.212 58.5494 32.0329 59.8252L33.2504 59.0044C32.4569 57.8232 31.7053 56.5583 30.99 55.2952C30.2747 54.0322 29.6032 52.7345 28.9643 51.4277C28.118 49.6824 27.3373 47.9079 26.6366 46.0988C26.7403 46.1152 26.8331 46.1406 26.946 46.1479C27.0775 46.1628 27.2106 46.1585 27.3409 46.1352L27.1207 45.1797L27.0952 45.1906H27.0115C26.9587 45.1906 26.8877 45.1706 26.8295 45.1651C26.6912 45.1374 26.5555 45.0985 26.4236 45.0486L26.2671 44.9868C26.819 44.752 27.3225 44.4169 27.7522 43.9985C28.7095 43.0576 28.3328 41.8673 27.3773 41.8327C26.602 41.8054 26.2143 42.4861 25.9923 43.276C25.9304 43.4998 25.8813 43.7328 25.8394 43.9621C25.7611 43.7564 25.6883 43.5635 25.6319 43.356C25.4354 42.7591 25.2479 42.1591 25.0695 41.5561C25.6683 41.3168 26.2148 40.9632 26.6784 40.515C27.6321 39.5741 27.2572 38.3838 26.3035 38.3474C25.5264 38.3201 25.1405 39.0008 24.9185 39.7907C24.8545 40.0214 24.8023 40.2553 24.762 40.4914C24.6418 40.0491 24.5235 39.6087 24.4125 39.1664C24.3324 38.837 24.256 38.5057 24.185 38.1763C24.1304 37.7031 24.0904 37.2281 24.0594 36.7513C24.0467 36.4892 24.034 36.2289 24.0267 35.965C24.6145 36.1064 25.2231 36.1403 25.823 36.0651C27.1516 35.8831 27.5648 34.7074 26.8186 34.105C26.2161 33.6154 25.4991 33.9321 24.8457 34.4326C24.5563 34.6635 24.2804 34.9108 24.0194 35.1733C24.0205 34.0512 24.1093 32.9309 24.2851 31.8227C24.3945 31.1724 24.5384 30.5284 24.7165 29.8935C25.3449 30.062 26.0001 30.1071 26.6457 30.0264C27.9743 29.8444 28.3856 28.6686 27.6412 28.0662C27.0388 27.5876 26.3181 27.8842 25.6683 28.3938C25.4371 28.5745 25.2159 28.7677 25.0058 28.9726C25.2204 28.349 25.4776 27.7409 25.7757 27.1526C26.3776 25.9684 27.157 24.8833 28.0871 23.9348C28.6324 24.368 29.2623 24.6823 29.9362 24.8576C31.2339 25.1852 32.0547 24.2442 31.5924 23.4016C31.2102 22.7245 30.4276 22.7482 29.6341 22.9648C29.3349 23.0521 29.0409 23.156 28.7532 23.276H28.7751C29.8049 22.3436 30.9283 21.5203 32.1275 20.819C32.6065 21.3643 33.1983 21.799 33.862 22.093C35.0941 22.6208 36.0551 21.8236 35.7256 20.9227C35.4526 20.1947 34.6791 20.0928 33.8656 20.1947C33.5464 20.2378 33.2298 20.2986 32.9174 20.3767C34.1914 19.6615 35.4981 18.9699 36.7503 18.1927L36.7794 18.1818C37.3985 18.6421 38.1153 18.9535 38.8742 19.0918C40.1956 19.3211 40.9327 18.3201 40.4158 17.5248C39.9863 16.8769 39.2055 16.9606 38.432 17.2427C38.2154 17.3228 38.0025 17.4247 37.7968 17.5139C38.628 16.9484 39.4298 16.3409 40.1992 15.6939L40.2738 15.7612L40.2866 15.7284C40.9087 16.1965 41.6317 16.5125 42.3978 16.6512C43.7209 16.8805 44.4544 15.8795 43.9393 15.0842C43.508 14.4362 42.7308 14.52 41.9555 14.8002C41.4103 15.0226 40.8781 15.2754 40.3612 15.5574C40.6378 15.3189 40.9072 15.0769 41.1802 14.8294C42.4133 13.687 43.5766 12.4715 44.6637 11.1894C43.3852 12.6307 42.0039 13.9774 40.5304 15.2188C40.7199 14.8309 40.8834 14.4308 41.02 14.0213C41.2457 13.2714 41.2566 12.5234 40.5359 12.2013C39.6441 11.779 38.6558 12.5653 39.0198 13.792C39.2349 14.4651 39.6038 15.0789 40.0973 15.5847C39.135 16.3555 38.1233 17.0625 37.0688 17.7013L36.9669 17.7632C37.1705 17.346 37.3456 16.9155 37.491 16.4746C37.7149 15.7248 37.7313 14.9877 37.0069 14.6546C36.1151 14.2342 35.1269 15.0296 35.4927 16.2453C35.7032 16.9106 36.0652 17.518 36.5501 18.0198C35.2761 18.7624 33.9584 19.4121 32.6407 20.1092L32.4442 20.2129C32.6897 19.9102 32.9141 19.5909 33.1158 19.2574C33.5089 18.5804 33.6963 17.8651 33.0703 17.3646C32.3022 16.7495 31.1629 17.2882 31.2266 18.5604C31.2788 19.2593 31.4912 19.9368 31.8472 20.5405C30.626 21.2022 29.4753 21.9864 28.4129 22.881L28.3783 22.9138C28.5132 22.662 28.6347 22.4032 28.7423 22.1385C29.0226 21.4105 29.0936 20.6734 28.3947 20.2784C28.2705 20.2066 28.1334 20.1599 27.9912 20.141C27.849 20.1222 27.7045 20.1315 27.5659 20.1685C27.4273 20.2055 27.2974 20.2695 27.1835 20.3568C27.0696 20.444 26.9741 20.5528 26.9023 20.677C26.8625 20.7477 26.8296 20.8221 26.804 20.8991C26.7071 20.7672 26.5789 20.6615 26.4309 20.5915C25.7302 20.2511 25.1023 20.7171 24.5781 21.3504C24.4415 21.5157 24.3139 21.6882 24.1959 21.8673C24.5451 20.6244 25.0094 19.4167 25.5828 18.2601C26.2242 18.4881 26.9053 18.5835 27.5848 18.5403C28.9207 18.4421 29.4048 17.29 28.7004 16.6475C28.1271 16.1197 27.39 16.3909 26.7094 16.8496C26.483 17.003 26.2649 17.1682 26.056 17.3446C26.6599 16.2706 27.3631 15.2554 28.1563 14.3125C28.7461 14.7256 29.4186 15.0057 30.1273 15.1333C31.4505 15.3626 32.1839 14.3616 31.667 13.5663C31.2393 12.9184 30.4604 13.0021 29.6832 13.286C29.3201 13.4245 28.9658 13.5849 28.6222 13.7665C28.9571 13.4025 29.2919 13.0385 29.6414 12.6745C30.0976 12.2231 30.5708 11.7839 31.061 11.3568C31.6445 11.7575 32.3064 12.0298 33.0029 12.1558C34.3261 12.3815 35.0613 11.3823 34.5426 10.5869C34.1149 9.93902 33.336 10.0227 32.5607 10.3048C32.3786 10.3704 32.2 10.4451 32.0256 10.5287C32.8646 9.83164 33.7273 9.15824 34.5863 8.47392C35.1933 8.91417 35.891 9.21326 36.6284 9.34934C37.9515 9.57684 38.685 8.57584 38.1699 7.7805C37.7404 7.1344 36.9614 7.21812 36.1861 7.4984C35.8859 7.61346 35.5919 7.74407 35.3052 7.8897C35.6692 7.59668 36.0223 7.2982 36.359 6.99244C36.6356 6.7522 36.8941 6.48648 37.158 6.22258C37.3109 6.08062 37.4601 5.93138 37.6039 5.78032C38.2142 6.2203 38.9149 6.51873 39.655 6.65392C40.9782 6.8796 41.7244 5.87678 41.1984 5.08326C40.767 4.43534 39.9881 4.51906 39.2146 4.80298C38.7885 4.96825 38.3733 5.16034 37.9715 5.3781C38.9676 4.32042 39.865 3.17391 40.6524 1.95286C41.4738 0.726365 42.1292 -0.603473 42.6016 -2.002ZM24.4671 43.185C24.3358 43.0366 24.17 42.9228 23.9843 42.8536C23.7986 42.7845 23.5988 42.762 23.4024 42.7882C23.113 42.4952 22.8364 42.1912 22.5652 41.8782L22.7472 41.6962C23.1215 41.7852 23.5056 41.8255 23.8902 41.8163L23.9102 41.8727L24.0922 41.8218C24.2032 42.2786 24.3288 42.7336 24.4671 43.185ZM23.5662 31.6844C23.5007 32.0338 23.4479 32.3869 23.4006 32.74L23.3424 32.6872C23.2805 31.9756 23.2423 31.2621 23.2204 30.5469C23.2077 30.0482 23.2077 29.5477 23.2204 29.0472C23.4789 29.2776 23.7614 29.4796 24.0631 29.6496C23.8598 30.3179 23.6951 30.9972 23.5699 31.6844H23.5662ZM24.5345 28.3156C24.5345 28.1827 24.5454 28.0535 24.5454 27.9206C24.5454 27.8551 24.5454 27.7896 24.5454 27.7241C24.6525 27.6875 24.7566 27.6424 24.8566 27.5894C24.7419 27.8296 24.6382 28.0717 24.5399 28.3174L24.5345 28.3156ZM25.9122 22.699C26.3038 22.5691 26.6353 22.3022 26.8459 21.9474C27.0149 22.5304 27.299 23.0738 27.6812 23.5453C27.0115 24.2052 26.4114 24.9322 25.8904 25.7148C25.8309 25.6031 25.7494 25.5045 25.6509 25.4251C25.5524 25.3457 25.4388 25.287 25.3171 25.2525C24.5745 25.025 24.0321 25.5801 23.5935 26.2917L23.5771 26.3263L23.528 26.3172C23.4778 26.3126 23.4272 26.3126 23.3769 26.3172C23.3769 26.2753 23.3769 26.2335 23.3897 26.1953C23.5058 25.1203 23.6882 24.0536 23.9357 23.0012C24.6088 23.0353 25.2818 22.9325 25.914 22.699H25.9122Z" fill="white"/>
</g>
<path d="M64.9648 16.309H30.0208V62.7572H64.9648V16.309Z" fill="white"/>
<path d="M64.974 62.8482H30.03C30.0058 62.8482 29.9827 62.8386 29.9656 62.8216C29.9486 62.8045 29.939 62.7814 29.939 62.7572V16.309C29.939 16.2849 29.9486 16.2617 29.9656 16.2447C29.9827 16.2276 30.0058 16.218 30.03 16.218H64.974C64.9981 16.218 65.0212 16.2276 65.0383 16.2447C65.0554 16.2617 65.065 16.2849 65.065 16.309V62.7572C65.065 62.7814 65.0554 62.8045 65.0383 62.8216C65.0212 62.8386 64.9981 62.8482 64.974 62.8482ZM30.121 62.6662H64.883V16.4H30.121V62.6662Z" fill="#263238"/>
<path d="M60.4459 40.242H33.8484V41.334H60.4459V40.242Z" fill="#263238"/>
<path d="M60.4459 26.4883H38.7788V27.5803H60.4459V26.4883Z" fill="#263238"/>
<path d="M60.4459 33.3661H33.8484V34.4581H60.4459V33.3661Z" fill="#263238"/>
<path d="M53.6118 53.9939C53.2733 54.3579 52.9275 54.7219 52.5744 55.0859H33.8521V53.9939H53.6118Z" fill="#263238"/>
<path d="M58.837 47.118C58.6041 47.482 58.3656 47.846 58.1181 48.21H33.8521V47.118H58.837Z" fill="#263238"/>
<path d="M43.254 61.5033C43.254 61.5033 41.6998 62.2586 37.3463 62.6662H30.1118" stroke="#263238" stroke-width="0.3" stroke-linecap="round" stroke-linejoin="round"/>
<path d="M34.2378 21.3723C33.9926 21.38 33.7484 21.3384 33.5196 21.2499C33.2908 21.1614 33.0821 21.0279 32.906 20.8572C32.7298 20.6865 32.5897 20.4821 32.4941 20.2562C32.3984 20.0303 32.3491 19.7876 32.3491 19.5423C32.3491 19.297 32.3984 19.0542 32.4941 18.8283C32.5897 18.6024 32.7298 18.398 32.906 18.2274C33.0821 18.0567 33.2908 17.9231 33.5196 17.8346C33.7484 17.7461 33.9926 17.7045 34.2378 17.7122C34.3102 17.7122 34.3796 17.741 34.4308 17.7922C34.482 17.8434 34.5108 17.9128 34.5108 17.9852C34.5108 18.0576 34.482 18.1271 34.4308 18.1783C34.3796 18.2295 34.3102 18.2582 34.2378 18.2582C33.9832 18.2561 33.7337 18.3296 33.5209 18.4695C33.3082 18.6093 33.1418 18.8092 33.0429 19.0438C32.944 19.2784 32.917 19.5371 32.9653 19.7871C33.0136 20.037 33.1351 20.267 33.3144 20.4478C33.4937 20.6286 33.7226 20.7521 33.9721 20.8025C34.2217 20.853 34.4806 20.8282 34.716 20.7313C34.9514 20.6344 35.1528 20.4697 35.2944 20.2581C35.4361 20.0466 35.5118 19.7978 35.5118 19.5432C35.5118 19.4708 35.5405 19.4013 35.5917 19.3501C35.6429 19.2989 35.7124 19.2702 35.7848 19.2702C35.8572 19.2702 35.9266 19.2989 35.9778 19.3501C36.029 19.4013 36.0578 19.4708 36.0578 19.5432C36.0573 20.0266 35.8657 20.4901 35.5247 20.8328C35.1838 21.1755 34.7211 21.3694 34.2378 21.3723Z" fill="#263238"/>
<path d="M34.1941 20.617C32.5215 20.617 32.4305 17.0024 32.4287 16.2781V16.2562C32.4287 15.5282 32.5143 11.8882 34.1941 11.8882C35.874 11.8882 35.9905 15.8085 35.9996 16.2562L34.5436 16.2835C34.5406 15.4412 34.4181 14.6035 34.1796 13.7956C33.9653 14.5953 33.8648 15.4212 33.8811 16.249V16.2708C33.8649 17.1028 33.9691 17.9329 34.1905 18.7351C34.2069 18.6823 34.2232 18.6241 34.2414 18.5531L34.3561 18.1581L35.3717 18.4548C35.422 18.4694 35.469 18.4939 35.5099 18.5267C35.5508 18.5595 35.5848 18.6001 35.61 18.6461C35.6352 18.692 35.651 18.7425 35.6567 18.7947C35.6623 18.8468 35.6576 18.8995 35.6428 18.9498C35.348 20.0546 34.8584 20.617 34.1941 20.617Z" fill="#BFBFBF" stroke="#263238" stroke-width="0.3" stroke-linecap="round" stroke-linejoin="round"/>
<path d="M35.7939 19.8162C35.7215 19.8162 35.652 19.7874 35.6008 19.7362C35.5496 19.685 35.5209 19.6156 35.5209 19.5432C35.5209 19.2043 35.387 18.8791 35.1484 18.6384C34.9098 18.3978 34.5858 18.2611 34.2469 18.2582C34.1745 18.2582 34.105 18.2295 34.0538 18.1783C34.0026 18.1271 33.9739 18.0577 33.9739 17.9852C33.9739 17.9128 34.0026 17.8434 34.0538 17.7922C34.105 17.741 34.1745 17.7122 34.2469 17.7122C34.7304 17.7156 35.193 17.9099 35.534 18.2529C35.8749 18.5958 36.0664 19.0596 36.0669 19.5432C36.0669 19.6156 36.0381 19.685 35.9869 19.7362C35.9357 19.7874 35.8663 19.8162 35.7939 19.8162Z" fill="#263238"/>
<path d="M42.8645 21.3723C42.3892 21.3573 41.9383 21.1579 41.6073 20.8163C41.2764 20.4748 41.0913 20.0179 41.0913 19.5423C41.0913 19.0667 41.2764 18.6097 41.6073 18.2682C41.9383 17.9266 42.3892 17.7272 42.8645 17.7122C42.9369 17.7122 43.0064 17.741 43.0576 17.7922C43.1087 17.8434 43.1375 17.9128 43.1375 17.9852C43.1375 18.0577 43.1087 18.1271 43.0576 18.1783C43.0064 18.2295 42.9369 18.2582 42.8645 18.2582C42.6104 18.2582 42.362 18.3336 42.1506 18.4748C41.9393 18.616 41.7747 18.8167 41.6774 19.0515C41.5801 19.2862 41.5547 19.5446 41.6043 19.7938C41.6539 20.0431 41.7762 20.272 41.9559 20.4517C42.1356 20.6314 42.3646 20.7538 42.6138 20.8034C42.8631 20.853 43.1214 20.8275 43.3562 20.7303C43.591 20.633 43.7917 20.4683 43.9329 20.257C44.0741 20.0457 44.1494 19.7973 44.1494 19.5432C44.1494 19.4708 44.1782 19.4013 44.2294 19.3501C44.2806 19.2989 44.35 19.2702 44.4224 19.2702C44.4948 19.2702 44.5643 19.2989 44.6155 19.3501C44.6667 19.4013 44.6954 19.4708 44.6954 19.5432C44.6945 20.0283 44.5012 20.4933 44.158 20.8361C43.8148 21.179 43.3496 21.3718 42.8645 21.3723Z" fill="#263238"/>
<path d="M42.8228 20.617C41.1502 20.617 41.0574 17.0024 41.0574 16.2781V16.2562C41.0574 15.5282 41.1411 11.8882 42.8228 11.8882C44.5045 11.8882 44.6191 15.8085 44.6282 16.2562L43.1722 16.2835C43.1695 15.4412 43.0469 14.6035 42.8082 13.7956C42.5948 14.5954 42.4949 15.4213 42.5116 16.249V16.2708C42.4955 17.1064 42.5997 17.94 42.821 18.746C42.8392 18.6932 42.8555 18.635 42.8737 18.564L42.9884 18.1691L44.004 18.4657C44.0543 18.4804 44.1013 18.5048 44.1422 18.5376C44.1831 18.5704 44.2171 18.611 44.2423 18.657C44.2675 18.703 44.2833 18.7535 44.289 18.8056C44.2946 18.8577 44.2899 18.9105 44.2751 18.9608C43.9767 20.0546 43.4871 20.617 42.8228 20.617Z" fill="#BFBFBF" stroke="#263238" stroke-width="0.3" stroke-linecap="round" stroke-linejoin="round"/>
<path d="M44.4225 19.8162C44.3501 19.8162 44.2806 19.7874 44.2294 19.7362C44.1782 19.685 44.1495 19.6156 44.1495 19.5432C44.149 19.2025 44.0135 18.876 43.7726 18.6351C43.5317 18.3943 43.2052 18.2587 42.8646 18.2582C42.7921 18.2582 42.7227 18.2295 42.6715 18.1783C42.6203 18.1271 42.5916 18.0577 42.5916 17.9852C42.5916 17.9128 42.6203 17.8434 42.6715 17.7922C42.7227 17.741 42.7921 17.7122 42.8646 17.7122C43.35 17.7127 43.8154 17.9058 44.1587 18.249C44.5019 18.5923 44.695 19.0577 44.6955 19.5432C44.6955 19.6156 44.6667 19.685 44.6155 19.7362C44.5643 19.7874 44.4949 19.8162 44.4225 19.8162Z" fill="#263238"/>
<path d="M51.4932 21.3723C51.0178 21.3573 50.5669 21.1579 50.236 20.8163C49.905 20.4748 49.72 20.0179 49.72 19.5423C49.72 19.0667 49.905 18.6097 50.236 18.2682C50.5669 17.9266 51.0178 17.7272 51.4932 17.7122C51.5656 17.7122 51.635 17.741 51.6862 17.7922C51.7374 17.8434 51.7662 17.9128 51.7662 17.9852C51.7662 18.0577 51.7374 18.1271 51.6862 18.1783C51.635 18.2295 51.5656 18.2582 51.4932 18.2582C51.239 18.2582 50.9906 18.3336 50.7793 18.4748C50.568 18.616 50.4033 18.8167 50.3061 19.0515C50.2088 19.2862 50.1834 19.5446 50.2329 19.7938C50.2825 20.0431 50.4049 20.272 50.5846 20.4517C50.7643 20.6314 50.9932 20.7538 51.2425 20.8034C51.4917 20.853 51.7501 20.8275 51.9849 20.7303C52.2197 20.633 52.4204 20.4683 52.5615 20.257C52.7027 20.0457 52.7781 19.7973 52.7781 19.5432C52.7781 19.4708 52.8069 19.4013 52.8581 19.3501C52.9093 19.2989 52.9787 19.2702 53.0511 19.2702C53.1235 19.2702 53.1929 19.2989 53.2441 19.3501C53.2953 19.4013 53.3241 19.4708 53.3241 19.5432C53.3231 20.0283 53.1299 20.4933 52.7867 20.8361C52.4434 21.179 51.9783 21.3718 51.4932 21.3723Z" fill="#263238"/>
<path d="M51.4495 20.617C49.7769 20.617 49.6859 17.0024 49.6841 16.2781V16.2562C49.6841 15.5282 49.7696 11.8882 51.4495 11.8882C53.1293 11.8882 53.2476 15.8085 53.2549 16.2562L51.7989 16.2835C51.796 15.4412 51.6734 14.6035 51.4349 13.7956C51.2218 14.5979 51.1232 15.4263 51.1419 16.2562V16.2781C51.1258 17.1101 51.23 17.9401 51.4513 18.7424C51.4677 18.6896 51.4859 18.6313 51.5023 18.5604L51.6187 18.1654L52.6325 18.4621C52.6828 18.4767 52.7298 18.5011 52.7707 18.534C52.8116 18.5668 52.8456 18.6073 52.8708 18.6533C52.896 18.6993 52.9119 18.7498 52.9175 18.802C52.9231 18.8541 52.9184 18.9068 52.9037 18.9571C52.5979 20.0546 52.1156 20.617 51.4495 20.617Z" fill="#BFBFBF" stroke="#263238" stroke-width="0.3" stroke-linecap="round" stroke-linejoin="round"/>
<path d="M53.0511 19.8162C52.9787 19.8162 52.9093 19.7874 52.8581 19.7362C52.8069 19.685 52.7781 19.6156 52.7781 19.5432C52.7777 19.2025 52.6421 18.876 52.4013 18.6351C52.1604 18.3943 51.8338 18.2587 51.4932 18.2582C51.4208 18.2582 51.3514 18.2295 51.3002 18.1783C51.249 18.1271 51.2202 18.0577 51.2202 17.9852C51.2202 17.9128 51.249 17.8434 51.3002 17.7922C51.3514 17.741 51.4208 17.7122 51.4932 17.7122C51.979 17.7122 52.4449 17.9051 52.7885 18.2484C53.1322 18.5917 53.3255 19.0574 53.326 19.5432C53.3255 19.6157 53.2963 19.6852 53.2448 19.7363C53.1933 19.7875 53.1237 19.8162 53.0511 19.8162Z" fill="#263238"/>
<path d="M60.1218 21.3723C59.8766 21.38 59.6324 21.3384 59.4036 21.2499C59.1748 21.1614 58.9662 21.0279 58.79 20.8572C58.6138 20.6865 58.4738 20.4821 58.3781 20.2562C58.2824 20.0303 58.2332 19.7876 58.2332 19.5423C58.2332 19.297 58.2824 19.0542 58.3781 18.8283C58.4738 18.6024 58.6138 18.398 58.79 18.2274C58.9662 18.0567 59.1748 17.9231 59.4036 17.8346C59.6324 17.7461 59.8766 17.7045 60.1218 17.7122C60.1942 17.7122 60.2636 17.741 60.3148 17.7922C60.366 17.8434 60.3948 17.9128 60.3948 17.9852C60.3948 18.0576 60.366 18.1271 60.3148 18.1783C60.2636 18.2295 60.1942 18.2582 60.1218 18.2582C59.8676 18.2579 59.619 18.3329 59.4074 18.4739C59.1959 18.6149 59.0309 18.8154 58.9334 19.0502C58.8359 19.2849 58.8102 19.5434 58.8595 19.7927C58.9089 20.0421 59.0311 20.2712 59.2108 20.4511C59.3904 20.631 59.6193 20.7535 59.8686 20.8033C60.1179 20.853 60.3764 20.8276 60.6113 20.7304C60.8462 20.6333 61.0469 20.4686 61.1882 20.2572C61.3295 20.0459 61.4049 19.7974 61.4049 19.5432C61.4049 19.4708 61.4337 19.4013 61.4849 19.3501C61.5361 19.2989 61.6055 19.2702 61.6779 19.2702C61.7503 19.2702 61.8197 19.2989 61.8709 19.3501C61.9221 19.4013 61.9509 19.4708 61.9509 19.5432C61.9504 20.0281 61.7576 20.4931 61.4146 20.836C61.0717 21.1789 60.6068 21.3718 60.1218 21.3723Z" fill="#263238"/>
<path d="M60.0781 20.617C58.4056 20.617 58.3146 17.0024 58.3127 16.2781V16.2562C58.3127 15.5282 58.3983 11.8882 60.0781 11.8882C61.758 11.8882 61.8799 15.8158 61.8799 16.2635L60.4239 16.2908C60.4201 15.4485 60.2975 14.611 60.0599 13.8029C59.8447 14.6024 59.7442 15.4284 59.7615 16.2562V16.2781C59.7479 17.1115 59.8539 17.9427 60.0763 18.746C60.0945 18.6932 60.1109 18.635 60.1291 18.564L60.2438 18.1691L61.2593 18.4657C61.3097 18.4804 61.3566 18.5048 61.3975 18.5376C61.4384 18.5704 61.4724 18.611 61.4976 18.657C61.5228 18.703 61.5387 18.7535 61.5443 18.8056C61.55 18.8577 61.5453 18.9105 61.5305 18.9608C61.232 20.0546 60.7424 20.617 60.0781 20.617Z" fill="#BFBFBF" stroke="#263238" stroke-width="0.3" stroke-linecap="round" stroke-linejoin="round"/>
<path d="M61.678 19.8162C61.6056 19.8162 61.5361 19.7874 61.4849 19.7362C61.4337 19.685 61.405 19.6156 61.405 19.5432C61.405 19.2027 61.2699 18.8762 61.0293 18.6352C60.7887 18.3943 60.4623 18.2587 60.1219 18.2582C60.0495 18.2582 59.98 18.2295 59.9288 18.1783C59.8776 18.1271 59.8489 18.0577 59.8489 17.9852C59.8489 17.9128 59.8776 17.8434 59.9288 17.7922C59.98 17.741 60.0495 17.7122 60.1219 17.7122C60.607 17.7132 61.072 17.9065 61.4148 18.2497C61.7577 18.5929 61.9505 19.058 61.951 19.5432C61.951 19.6156 61.9222 19.685 61.871 19.7362C61.8198 19.7874 61.7504 19.8162 61.678 19.8162Z" fill="#263238"/>
<path d="M12.5581 39.1646L27.3128 36.218L32.4653 60.9554L16.7823 64.3188L12.5581 39.1646Z" stroke="#263238" stroke-width="0.3" stroke-linecap="round" stroke-linejoin="round"/>
<path d="M16.189 60.7898L31.841 57.9561" stroke="#263238" stroke-width="0.3" stroke-linecap="round" stroke-linejoin="round"/>
<path d="M29.9865 55.8522L22.5117 57.2317" stroke="#263238" stroke-width="0.3" stroke-linecap="round" stroke-linejoin="round"/>
<path d="M28.8781 54.6109L26.6941 54.9331" stroke="#263238" stroke-width="0.3" stroke-linecap="round" stroke-linejoin="round"/>
<path d="M29.211 52.0848L18.0544 54.1778" stroke="#263238" stroke-width="0.3" stroke-linecap="round" stroke-linejoin="round"/>
<path d="M14.4873 50.6561L29.7589 47.9606" stroke="#263238" stroke-width="0.3" stroke-linecap="round" stroke-linejoin="round" stroke-dasharray="1 2"/>
<path d="M30.7145 60.1546L21.438 62.0984" stroke="#263238" stroke-width="0.3" stroke-linecap="round" stroke-linejoin="round"/>
<path d="M30.4379 59.372L26.0771 60.1546" stroke="#263238" stroke-width="0.3" stroke-linecap="round" stroke-linejoin="round"/>
<path d="M28.0791 46.3299L20.4297 47.846" stroke="#263238" stroke-width="0.3" stroke-linecap="round" stroke-linejoin="round"/>
<path d="M27.4748 44.6319L25.0378 45.1105" stroke="#263238" stroke-width="0.3" stroke-linecap="round" stroke-linejoin="round"/>
<path d="M27.331 43.4525L16.189 45.6001" stroke="#263238" stroke-width="0.3" stroke-linecap="round" stroke-linejoin="round"/>
<path d="M26.319 37.7122L23.3105 38.3347" stroke="#263238" stroke-width="0.3" stroke-linecap="round" stroke-linejoin="round"/>
<path d="M16.1891 39.8507L13.5938 40.3549" stroke="#263238" stroke-width="0.3" stroke-linecap="round" stroke-linejoin="round"/>
<path d="M14.5383 41.7854C14.5925 41.6009 14.6854 41.43 14.811 41.2844C14.9365 41.1387 15.0918 41.0216 15.2663 40.9409" stroke="#263238" stroke-width="0.3" stroke-linecap="round" stroke-linejoin="round"/>
<path d="M15.6921 43.4525C15.3698 43.4143 15.0719 43.2618 14.8525 43.0227C14.6331 42.7836 14.5067 42.4737 14.4963 42.1494" stroke="#263238" stroke-width="0.3" stroke-linecap="round" stroke-linejoin="round"/>
<path d="M16.7041 43.1431C16.5194 43.3093 16.2894 43.417 16.0435 43.4525" stroke="#263238" stroke-width="0.3" stroke-linecap="round" stroke-linejoin="round"/>
<path d="M15.8196 40.8171C16.0539 40.8248 16.2823 40.893 16.4824 41.0152C16.6825 41.1373 16.8476 41.3092 16.9616 41.514C17.0756 41.7189 17.1346 41.9498 17.1329 42.1843C17.1311 42.4187 17.0687 42.6487 16.9516 42.8519" stroke="#263238" stroke-width="0.3" stroke-linecap="round" stroke-linejoin="round"/>
<path d="M18.4731 41.1593C18.2311 41.0829 17.9908 40.9955 17.7451 40.9409" stroke="#263238" stroke-width="0.3" stroke-linecap="round" stroke-linejoin="round"/>
<path d="M20.537 41.334C20.3313 41.8236 19.1811 41.3777 18.8462 41.2758" stroke="#263238" stroke-width="0.3" stroke-linecap="round" stroke-linejoin="round"/>
<path d="M18.5676 40.0345L20.7189 40.5405C20.6843 40.6843 20.657 40.8299 20.6297 40.9737" stroke="#263238" stroke-width="0.3" stroke-linecap="round" stroke-linejoin="round"/>
<path d="M17.5029 40.5405C17.7322 39.9945 17.6412 39.8125 18.2127 39.9454" stroke="#263238" stroke-width="0.3" stroke-linecap="round" stroke-linejoin="round"/>
</g>
<defs>
<clipPath id="clip0_974_19540">
<rect width="91" height="91" fill="white"/>
</clipPath>
</defs>
</svg>
