<svg width="29" height="37" viewBox="0 0 29 37" fill="none" xmlns="http://www.w3.org/2000/svg">
<path d="M20.454 1.36305C19.8914 0.800444 19.1284 0.484375 18.3327 0.484375H3C1.34314 0.484375 0 1.82752 0 3.48438V33.9574C0 35.6143 1.34315 36.9574 3 36.9574H26C27.6569 36.9574 29 35.6143 29 33.9574V11.1517C29 10.356 28.6839 9.59294 28.1213 9.03033L20.454 1.36305ZM24.1429 9.07669H20.4088V5.34246L24.1429 9.07669ZM5.84521 34.1122C4.18835 34.1122 2.8452 32.769 2.8452 31.1122V6.32958C2.8452 4.67272 4.18835 3.32958 5.8452 3.32958H15.5636C16.6682 3.32958 17.5636 4.22501 17.5636 5.32958V10.4993C17.5636 11.2849 18.2004 11.9219 18.9862 11.9219H23.1548C24.8117 11.9219 26.1548 13.265 26.1548 14.9219V31.1122C26.1548 32.7691 24.8117 34.1122 23.1548 34.1122H5.84521Z" fill="white"/>
<path d="M22.6569 28.7476H6.34326V30.6444H22.6569V28.7476Z" fill="white"/>
<path d="M16.0279 10.936H6.34326V12.8328H16.0279V10.936Z" fill="white"/>
<path d="M19.2617 16.9744H20.3129L16.2502 21.037L13.0734 17.8602L6.05029 24.8839L7.39133 26.2253L13.0734 20.5429L16.2502 23.7195L21.6541 18.3155V19.3644H23.5509V15.0776H19.2617V16.9744Z" fill="white"/>
<path d="M16.0279 6.79736H6.34326V8.69416H16.0279V6.79736Z" fill="white"/>
</svg>
